<svg xmlns="http://www.w3.org/2000/svg" viewBox="0 0 125.972 141.247"><path d="M86.258 94.46c0-.56-.5-.92-1.22-1.2a9.54 9.54 0 00-3.26-.51 9.81 9.81 0 00-2.73.35c-.93.28-1.54.65-1.59 1.29v1.43l-5.41.76h-.1v.05a.11.11 0 000 .06v18.19a.27.27 0 000 .13l3.83 2.09 10.69 5.81a.5.5 0 00.13 0l24-3.37h.1a.11.11 0 000-.06v-18.24a.43.43 0 000-.12.21.21 0 000-.06l-6-3.29v-1.14c0-.56-.5-.92-1.23-1.2a9.46 9.46 0 00-3.26-.51h-.72l-1.85-1v-.93c0-.56-.51-.91-1.22-1.2a10.74 10.74 0 00-6-.16c-.93.28-1.55.65-1.6 1.29v1.2l-2.55.35" fill="#1ea551"/><path d="M110.858 101.38a.43.43 0 000-.12.21.21 0 000-.06l-6-3.29v-1.14c0-.56-.5-.92-1.23-1.2a9.46 9.46 0 00-3.26-.51h-.72l-1.85-1v.67l.83.45q-.43.08-.84.18v-2.23c0-.56-.51-.91-1.22-1.2a10.74 10.74 0 00-6-.16c-.93.28-1.55.65-1.6 1.29v1.2l-2.55.35v.6l2.54-.35v1.52a9.78 9.78 0 00-2.68.34h.13v-2.24c0-.56-.5-.92-1.22-1.2a9.54 9.54 0 00-3.26-.51 9.81 9.81 0 00-2.73.35c-.93.28-1.54.65-1.59 1.29v1.41l-5.41.76h-.1v.05a.11.11 0 000 .06v18.19a.27.27 0 000 .13l3.83 2.09 10.69 5.81a.5.5 0 00.13 0l24-3.37h.1a.11.11 0 000-.06v-18.24zm-10.68-5.81a9 9 0 013 .47c.66.24.87.55.84.65-.03.1-.27.48-1.16.74a9.66 9.66 0 01-2.57.32 9 9 0 01-3-.47c-.64-.24-.85-.52-.85-.63 0-.12.29-.49 1.18-.74a9.51 9.51 0 012.56-.34zm-9.6-3.32a10 10 0 012.56-.31 9.09 9.09 0 013 .46c.67.25.87.56.84.65-.03.09-.27.49-1.16.74a9.66 9.66 0 01-2.57.32 9.11 9.11 0 01-3.05-.46c-.63-.24-.84-.53-.83-.63.01-.14.34-.52 1.21-.77zm-4.31 5a9.59 9.59 0 012.56-.32 9.09 9.09 0 013 .47c.66.25.86.55.84.65-.02.1-.28.49-1.17.74a9.59 9.59 0 01-2.56.32 9.09 9.09 0 01-3-.47c-.63-.24-.84-.52-.84-.63-.03-.08.28-.47 1.17-.71zm-8.22-2.89c0-.12.28-.49 1.17-.73a9.53 9.53 0 012.56-.32 9 9 0 013 .46c.67.25.87.55.85.65-.02.1-.28.49-1.17.74a9.53 9.53 0 01-2.56.32 9.05 9.05 0 01-3.05-.47c-.63-.23-.84-.51-.84-.62zm-5.05 2.61l4.44-.63v1.37c0 .56.51.92 1.22 1.2a9.26 9.26 0 003.26.51 10.57 10.57 0 002.59-.31v2.21c0 .56.5.91 1.22 1.19a9.3 9.3 0 003.26.51 9.77 9.77 0 002.73-.34c.94-.29 1.56-.65 1.6-1.3v-3.41a10.17 10.17 0 002.54-.3v2.24c0 .56.5.91 1.22 1.2a9.5 9.5 0 003.26.51 10.2 10.2 0 002.73-.35c.93-.28 1.55-.65 1.59-1.31v-1.54l5 2.72-23 3.22zm37.23 22.3c-.08.06-23.37 3.28-23.37 3.28v-17.59l23.37-3.28s-.01 17.53 0 17.64z" fill="#02743b"/><path d="M86.258 76.2c0-.56-.5-.92-1.22-1.2a9.54 9.54 0 00-3.26-.51 9.81 9.81 0 00-2.73.35c-.93.27-1.54.65-1.59 1.29v1.38l-5.41.76h-.1a.14.14 0 000 .06l-.24 18.49a.3.3 0 000 .13l4 2.17 10.69 5.81a.5.5 0 00.13 0l24-3.37a.21.21 0 00.1 0 .14.14 0 000-.06V83.11a.37.37 0 000-.12.1.1 0 000-.05l-6-3.29v-1.23c0-.56-.5-.91-1.23-1.2a9.71 9.71 0 00-3.26-.5h-.72l-1.85-1v-.9c0-.56-.51-.92-1.22-1.2a9.83 9.83 0 00-3.26-.51 10.15 10.15 0 00-2.73.34c-.93.29-1.55.65-1.6 1.3v1.2l-2.55.35" fill="#1ea551"/><path d="M110.858 83.11a.37.37 0 000-.12.1.1 0 000-.05l-6-3.29v-1.23c0-.56-.5-.91-1.23-1.2a9.71 9.71 0 00-3.26-.5h-.72l-1.85-1v.66l.83.45q-.43.07-.84.18v-2.23c0-.56-.51-.92-1.22-1.2a9.83 9.83 0 00-3.26-.51 10.15 10.15 0 00-2.73.34c-.93.29-1.55.65-1.6 1.3v1.2l-2.55.35v.6l2.54-.35v1.52a9.78 9.78 0 00-2.68.34h.13v-2.23c0-.56-.5-.92-1.22-1.2a9.54 9.54 0 00-3.26-.51 9.81 9.81 0 00-2.73.35c-.93.27-1.54.65-1.59 1.29v1.38l-5.41.76h-.1a.14.14 0 000 .06l-.4 18.55a.3.3 0 000 .13l4 2.17 10.69 5.81a.5.5 0 00.13 0l24-3.37a.21.21 0 00.1 0 .14.14 0 000-.06V83.11zm-10.68-5.81a9 9 0 013 .47c.66.25.87.55.84.64-.03.09-.27.5-1.16.74a9.26 9.26 0 01-2.57.33 9 9 0 01-3-.47c-.64-.24-.85-.52-.85-.62 0-.12.29-.49 1.18-.74a9.51 9.51 0 012.56-.35zm-9.6-3.32a10 10 0 012.56-.32 9.07 9.07 0 013 .47c.67.25.87.56.84.65-.03.09-.27.49-1.16.74a9.66 9.66 0 01-2.57.32 8.85 8.85 0 01-3.05-.47c-.63-.24-.84-.52-.83-.62.01-.14.34-.52 1.21-.77zm-4.31 5.05a9.59 9.59 0 012.56-.32 9.09 9.09 0 013 .47c.66.25.86.55.84.65-.02.1-.28.49-1.17.74a9.59 9.59 0 01-2.56.32 9.09 9.09 0 01-3-.47c-.63-.24-.84-.52-.84-.63-.03-.14.28-.51 1.17-.76zm-8.22-2.89c0-.12.28-.49 1.17-.73a9.15 9.15 0 012.56-.32 9 9 0 013 .46c.67.25.87.55.85.65-.02.1-.28.49-1.17.74a9.53 9.53 0 01-2.56.32 8.81 8.81 0 01-3.05-.47c-.63-.24-.84-.52-.84-.62zm-5.05 2.61l4.44-.63v1.37c0 .55.51.91 1.22 1.19a9.5 9.5 0 003.26.51 10.57 10.57 0 002.59-.31v2.21c0 .56.5.91 1.22 1.2a9.55 9.55 0 003.26.5 9.77 9.77 0 002.73-.34c.94-.29 1.56-.66 1.6-1.3v-3.36a10.17 10.17 0 002.54-.3v2.23c0 .56.5.92 1.22 1.19a9.25 9.25 0 003.26.52 10.2 10.2 0 002.73-.35c.93-.28 1.55-.65 1.59-1.3v-1.55l5 2.71-23 3.23zm37.23 22.3c-.08.06-23.37 3.28-23.37 3.28V86.74l23.37-3.28s-.01 17.48 0 17.59z" fill="#02743b"/><path d="M86.258 39.65c0-.55-.5-.91-1.22-1.19a9.54 9.54 0 00-3.26-.51 9.81 9.81 0 00-2.73.35c-.93.28-1.54.65-1.59 1.29v1.38l-5.41.76h-.1a.14.14 0 000 .06v18.2a.27.27 0 000 .13l3.83 2.09 10.69 5.81a.5.5 0 00.13 0l24-3.37h.1a.11.11 0 000-.06V46.4a.37.37 0 000-.12l-6-3.29v-1.14c0-.56-.5-.91-1.23-1.2a9.71 9.71 0 00-3.26-.5h-.72l-1.85-1v-.94c0-.56-.51-.91-1.22-1.2a9.83 9.83 0 00-3.26-.51 10.15 10.15 0 00-2.73.34c-.93.29-1.55.66-1.6 1.3v1.19l-2.55.36" fill="#1ea551"/><path d="M110.858 46.57a.37.37 0 000-.12l-6-3.29v-1.14c0-.56-.5-.91-1.23-1.2a9.71 9.71 0 00-3.26-.5h-.72l-1.85-1v.5l.83.45q-.43.08-.84.18v-2.24c0-.56-.51-.91-1.22-1.2a9.83 9.83 0 00-3.26-.51 10.15 10.15 0 00-2.73.34c-.93.29-1.55.66-1.6 1.3v1.19l-2.55.36v.6l2.54-.35v1.52a9.78 9.78 0 00-2.68.34h.13v-2.24c0-.55-.5-.91-1.22-1.19a9.54 9.54 0 00-3.26-.51 9.81 9.81 0 00-2.73.35c-.93.28-1.54.65-1.59 1.29v1.38l-5.41.76h-.1a.14.14 0 000 .06v18.2a.27.27 0 000 .13l3.83 2.09 10.69 5.81a.5.5 0 00.13 0l24-3.37h.1a.11.11 0 000-.06V46.31zm-10.68-5.81a9 9 0 013 .47c.66.24.87.55.84.64-.03.09-.27.5-1.16.74a9.26 9.26 0 01-2.57.33 9 9 0 01-3-.47c-.64-.24-.85-.52-.85-.63 0-.12.29-.49 1.18-.74a9.51 9.51 0 012.56-.34zm-9.6-3.32a10 10 0 012.56-.32 9.07 9.07 0 013 .47c.67.25.87.55.84.65-.03.1-.27.49-1.16.74a9.66 9.66 0 01-2.57.32 8.85 8.85 0 01-3.05-.47c-.63-.23-.84-.52-.83-.63.01-.13.34-.51 1.21-.76zm-4.31 5a9.59 9.59 0 012.56-.32 9.09 9.09 0 013 .47c.66.25.86.55.84.65-.02.1-.28.49-1.17.74a9.6 9.6 0 01-2.56.31 8.86 8.86 0 01-3-.46c-.63-.24-.84-.52-.84-.63-.03-.08.28-.47 1.17-.71zm-8.22-2.89c0-.12.28-.49 1.17-.73a9.15 9.15 0 012.56-.32 9 9 0 013 .46c.67.25.87.55.85.64-.02.09-.28.5-1.17.75a9.53 9.53 0 01-2.56.32 9.05 9.05 0 01-3.05-.47c-.63-.24-.84-.52-.84-.62zm-5.05 2.61l4.44-.63v1.37c0 .56.51.92 1.22 1.2a9.5 9.5 0 003.26.51 10.57 10.57 0 002.59-.31v2.21c0 .56.5.91 1.22 1.2a9.55 9.55 0 003.26.5 9.77 9.77 0 002.73-.34c.94-.29 1.56-.66 1.6-1.3v-3.36a10.17 10.17 0 002.54-.3v2.23c0 .56.5.91 1.22 1.19a9.25 9.25 0 003.26.52 10.2 10.2 0 002.73-.35c.93-.28 1.55-.65 1.59-1.31v-1.54l5 2.71-23 3.23zm37.23 22.3c-.08.06-23.37 3.28-23.37 3.28V50.15l23.37-3.28s-.01 17.53 0 17.64z" fill="#02743b"/><path d="M86.258 21.38c0-.56-.5-.92-1.22-1.2a9.54 9.54 0 00-3.26-.51 9.81 9.81 0 00-2.73.35c-.93.27-1.54.65-1.59 1.29v1.38l-5.41.76h-.1v.05a.25.25 0 000 .07v18.2a.3.3 0 000 .13l3.83 2.09 10.69 5.81a.28.28 0 00.13 0l24-3.37h.1a.14.14 0 000-.06V28.18a.5.5 0 000-.12l-6-3.29v-1.16c0-.56-.5-.91-1.23-1.2a9.47 9.47 0 00-3.26-.5h-.72l-1.85-1v-.93c0-.56-.51-.92-1.22-1.2a9.83 9.83 0 00-3.26-.51 10.15 10.15 0 00-2.73.34c-.93.29-1.55.66-1.6 1.3v1.19l-2.55.36" fill="#1ea551"/><path d="M110.858 28.29a.5.5 0 000-.12l-6-3.29v-1.27c0-.56-.5-.91-1.23-1.2a9.47 9.47 0 00-3.26-.5h-.72l-1.85-1v.67l.83.45q-.43.08-.84.18v-2.23c0-.56-.51-.92-1.22-1.2a9.83 9.83 0 00-3.26-.51 10.15 10.15 0 00-2.73.34c-.93.29-1.55.66-1.6 1.3v1.19l-2.55.36v.6l2.54-.35v1.52a9.78 9.78 0 00-2.68.34h.13v-2.24c0-.56-.5-.92-1.22-1.2a9.54 9.54 0 00-3.26-.51 9.81 9.81 0 00-2.73.35c-.93.27-1.54.65-1.59 1.29v1.38l-5.41.76h-.1v.05a.25.25 0 000 .07v18.2a.3.3 0 000 .13l3.83 2.09 10.69 5.81a.28.28 0 00.13 0l24-3.37h.1a.14.14 0 000-.06V28.13zm-10.68-5.8a9.28 9.28 0 013 .46c.66.25.87.56.84.65-.03.09-.27.49-1.16.74a9.26 9.26 0 01-2.57.33 8.77 8.77 0 01-3-.48c-.64-.23-.85-.51-.85-.62 0-.12.29-.49 1.18-.74a9.51 9.51 0 012.56-.34zm-9.6-3.32a10 10 0 012.56-.32 9.07 9.07 0 013 .47c.67.25.87.55.84.65-.03.1-.27.49-1.16.74a9.68 9.68 0 01-2.57.31 8.63 8.63 0 01-3.05-.46c-.63-.23-.84-.52-.83-.63.01-.11.34-.51 1.21-.76zm-4.31 5.05a9.59 9.59 0 012.56-.32 9.09 9.09 0 013 .47c.66.25.86.55.84.65-.02.1-.28.49-1.17.74a9.6 9.6 0 01-2.56.31 8.86 8.86 0 01-3-.46c-.63-.24-.84-.52-.84-.63-.03-.16.28-.52 1.17-.76zm-8.22-2.89c0-.12.28-.49 1.17-.73a9.15 9.15 0 012.56-.32 9 9 0 013 .46c.67.25.87.55.85.65-.02.1-.28.49-1.17.74a9.53 9.53 0 01-2.56.32 9.05 9.05 0 01-3.05-.47c-.63-.24-.84-.52-.84-.62zm-5.05 2.61l4.44-.63v1.37c0 .56.51.92 1.22 1.2a9.5 9.5 0 003.26.51 10.57 10.57 0 002.59-.31v2.21c0 .56.5.91 1.22 1.2a9.8 9.8 0 003.26.5 10.15 10.15 0 002.73-.34c.94-.29 1.56-.66 1.6-1.3v-3.36a10.17 10.17 0 002.54-.3v2.23c0 .56.5.91 1.22 1.19a9.25 9.25 0 003.26.52 10.2 10.2 0 002.73-.35c.93-.28 1.55-.65 1.59-1.31v-1.55l5 2.71-23 3.23zm37.23 22.3c-.08.06-23.37 3.28-23.37 3.28V31.93l23.37-3.29s-.01 17.49 0 17.6z" fill="#02743b"/><path d="M86.258 3.11c0-.55-.5-.91-1.22-1.19a9.54 9.54 0 00-3.26-.51 9.81 9.81 0 00-2.73.35c-.93.27-1.54.65-1.59 1.29v1.38l-5.41.76h-.1a.25.25 0 000 .07v18.2a.3.3 0 000 .13l3.83 2.09 10.64 6.14a.5.5 0 00.13 0l24-3.37h.1a.14.14 0 000-.06V10.03a.5.5 0 000-.12.21.21 0 000-.06l-6-3.29V5.34c0-.56-.5-.91-1.23-1.2a9.71 9.71 0 00-3.26-.5h-.72l-1.85-1v-.93c0-.56-.51-.92-1.22-1.2a9.83 9.83 0 00-3.26-.51 10.15 10.15 0 00-2.73.34c-.93.29-1.55.66-1.6 1.3v1.18l-2.55.36" fill="#1ea551"/><path d="M110.858 10.02a.5.5 0 000-.12.21.21 0 000-.06l-6-3.29V5.34c0-.56-.5-.91-1.23-1.2a9.71 9.71 0 00-3.26-.5h-.72l-1.85-1v.67l.83.45a7.34 7.34 0 00-.84.18V1.71c0-.56-.51-.92-1.22-1.2a9.83 9.83 0 00-3.26-.51 10.15 10.15 0 00-2.73.34c-.93.29-1.55.66-1.6 1.3v1.18l-2.55.36v.64l2.54-.36v1.53a9.78 9.78 0 00-2.68.34h.13V3.09c0-.55-.5-.91-1.22-1.19a9.54 9.54 0 00-3.26-.51 9.81 9.81 0 00-2.73.35c-.93.27-1.54.65-1.59 1.29v1.38l-5.41.76h-.1a.25.25 0 000 .07v18.2a.3.3 0 000 .13l3.83 2.09 10.48 6.16a.5.5 0 00.13 0l24-3.37h.1a.14.14 0 000-.06V10.03zm-10.68-5.8a9 9 0 013 .47c.66.25.87.55.84.64-.03.09-.27.5-1.16.74a9.26 9.26 0 01-2.57.33 8.77 8.77 0 01-3-.48c-.64-.23-.85-.51-.85-.62 0-.12.29-.49 1.18-.74a9.51 9.51 0 012.56-.34zM90.578.9a10 10 0 012.56-.32 9.07 9.07 0 013 .47c.67.25.87.56.84.65-.03.09-.27.49-1.16.74a9.66 9.66 0 01-2.57.32 8.85 8.85 0 01-3.05-.47c-.63-.23-.84-.52-.83-.63.01-.13.34-.51 1.21-.76zm-4.31 5a9.59 9.59 0 012.56-.32 9.09 9.09 0 013 .47c.66.25.86.55.84.65-.02.1-.28.49-1.17.74a9.6 9.6 0 01-2.56.31 8.86 8.86 0 01-3-.46c-.63-.24-.84-.52-.84-.63-.03-.09.28-.47 1.17-.71zm-8.22-2.89c0-.12.28-.49 1.17-.73a9.15 9.15 0 012.56-.32 9 9 0 013 .46c.67.25.87.55.85.64-.02.09-.28.5-1.17.75a9.53 9.53 0 01-2.56.32 9.05 9.05 0 01-3.05-.47c-.63-.24-.84-.52-.84-.62zm-5.05 2.61l4.44-.63v1.37c0 .56.51.92 1.22 1.2a9.5 9.5 0 003.26.51 10.57 10.57 0 002.59-.31v2.21c0 .56.5.91 1.22 1.2a9.55 9.55 0 003.26.5 10.15 10.15 0 002.73-.34c.94-.29 1.56-.66 1.6-1.3V6.62a10.17 10.17 0 002.54-.3v2.23c0 .56.5.91 1.22 1.19a9.25 9.25 0 003.26.52 10.2 10.2 0 002.73-.35c.93-.28 1.55-.65 1.59-1.31V7.14l5 2.72-23 3.23zm37.23 22.3c-.08.06-23.37 3.28-23.37 3.28V13.61l23.37-3.29s-.01 17.5 0 17.65z" fill="#02743b"/><path d="M62.278 97.82c0-.56-.5-.91-1.22-1.2a9.5 9.5 0 00-3.26-.51 9.74 9.74 0 00-2.72.35c-.94.28-1.55.65-1.6 1.3v1.39l-5.41.76a.35.35 0 00-.11 0v.06a.14.14 0 010 .06v18.19a.27.27 0 000 .13l3.75 2.47 10.7 5.82h.13l24-3.37a.25.25 0 00.11 0 .19.19 0 000-.07v-18.19a.21.21 0 000-.12v-.05l-6-3.29v-1.13c0-.56-.5-.92-1.22-1.2a9.54 9.54 0 00-3.26-.51h-.72l-1.86-1v-.94c0-.56-.5-.91-1.22-1.2a10.74 10.74 0 00-6-.16c-.93.28-1.55.65-1.59 1.29v1.21l-2.55.36" fill="#1ea551"/><path d="M86.888 104.76a.21.21 0 000-.12v-.05l-6-3.29v-1.13c0-.56-.5-.92-1.22-1.2a9.54 9.54 0 00-3.26-.51h-.72l-1.86-1v.66l.84.45q-.45.08-.84.18v-2.23c0-.56-.5-.91-1.22-1.2a10.74 10.74 0 00-6-.16c-.93.28-1.55.65-1.59 1.29v1.21l-2.55.36v.6l2.54-.36v1.53a9.79 9.79 0 00-2.69.35h.14v-2.32c0-.56-.5-.91-1.22-1.2a9.5 9.5 0 00-3.26-.51 9.74 9.74 0 00-2.72.35c-.94.28-1.55.65-1.6 1.3v1.39l-5.41.76a.35.35 0 00-.11 0v.06a.14.14 0 010 .06v18.19a.27.27 0 000 .13l3.57 2.47 10.7 5.82h.13l24-3.37a.25.25 0 00.11 0 .19.19 0 000-.07v-18.19zm-10.68-5.81a9 9 0 013 .47c.67.25.87.55.85.65-.02.1-.28.49-1.17.74a9.53 9.53 0 01-2.56.32 9.05 9.05 0 01-3-.47c-.63-.24-.84-.52-.84-.62 0-.11.28-.49 1.17-.73a9.13 9.13 0 012.55-.36zm-9.61-3.31a9.52 9.52 0 012.56-.33 8.73 8.73 0 013 .48c.67.24.87.55.85.64-.02.09-.28.5-1.17.74a9.66 9.66 0 01-2.57.32 8.84 8.84 0 01-3-.46c-.63-.24-.85-.53-.84-.64-.03-.13.28-.51 1.17-.75zm-4.31 5a10 10 0 012.56-.32 9.09 9.09 0 013.05.47c.66.25.87.55.84.65-.03.1-.28.49-1.17.74a9.53 9.53 0 01-2.56.32 8.85 8.85 0 01-3-.47c-.63-.23-.84-.52-.83-.63-.08-.09.22-.47 1.11-.72zm-8.22-2.82c0-.12.29-.5 1.18-.74a9.51 9.51 0 012.55-.32 9.11 9.11 0 013 .46c.66.25.86.55.84.65-.02.1-.27.5-1.17.74a9.15 9.15 0 01-2.56.32 8.75 8.75 0 01-3-.47c-.64-.23-.85-.51-.85-.62zm-5 2.61l4.43-.62v1.36c0 .56.51.91 1.23 1.19a9.46 9.46 0 003.26.51 10.54 10.54 0 002.58-.31v2.21c0 .56.5.91 1.22 1.2a9.49 9.49 0 003.25.5 10.29 10.29 0 002.74-.33c.94-.3 1.55-.67 1.59-1.31v-3.35a10.24 10.24 0 002.55-.31v2.21c0 .56.51.92 1.22 1.2a9.5 9.5 0 003.26.51 10.63 10.63 0 002.73-.34c.94-.29 1.55-.66 1.6-1.31v-1.55l5 2.72-23.02 3.21zm37.23 22.31c-.09.05-23.37 3.27-23.37 3.27v-17.59l23.37-3.28s-.05 17.45-.04 17.57z" fill="#02743b"/><path d="M62.278 61.3c0-.56-.5-.91-1.22-1.2a9.5 9.5 0 00-3.26-.51 9.74 9.74 0 00-2.72.35c-.94.28-1.55.65-1.6 1.3v1.38l-5.41.76h-.11v.05a.14.14 0 010 .06v18.19a.27.27 0 000 .13l3.83 2.09 10.7 5.81h.13l24-3.37a.17.17 0 00.11 0 .14.14 0 000-.07V68.08a.21.21 0 000-.12l-6-3.29v-1.14c0-.56-.5-.92-1.22-1.2a9.54 9.54 0 00-3.26-.51h-.72l-1.86-1v-.93c0-.56-.5-.91-1.22-1.2a10.74 10.74 0 00-6-.16c-.93.28-1.55.65-1.59 1.29v1.2l-2.55.36" fill="#1ea551"/><path d="M86.888 68.22a.21.21 0 000-.12l-6-3.29v-1.14c0-.56-.5-.92-1.22-1.2a9.54 9.54 0 00-3.26-.51h-.72l-1.86-1v.67l.84.46a6.56 6.56 0 00-.84.17v-2.23c0-.56-.5-.91-1.22-1.2a10.74 10.74 0 00-6-.16c-.93.28-1.55.65-1.59 1.29v1.2l-2.55.36v.6l2.54-.36v1.54a9.8 9.8 0 00-2.69.34h.14V61.4c0-.56-.5-.91-1.22-1.2a9.5 9.5 0 00-3.26-.51 9.74 9.74 0 00-2.72.35c-.94.28-1.55.65-1.6 1.3v1.38l-5.41.76h-.11v.05a.14.14 0 010 .06v18.19a.27.27 0 000 .13l3.83 2.09 10.7 5.81h.13l24-3.37a.17.17 0 00.11 0 .14.14 0 000-.07V68.18zm-10.68-5.81a9 9 0 013 .47c.67.25.87.55.85.65-.02.1-.28.49-1.17.74a9.53 9.53 0 01-2.56.32 9.05 9.05 0 01-3-.47c-.63-.24-.84-.52-.84-.62 0-.12.28-.49 1.17-.73a9.13 9.13 0 012.55-.36zm-9.61-3.31a9.53 9.53 0 012.56-.32 9 9 0 013 .46c.67.25.87.56.85.65-.02.09-.28.5-1.17.74a9.66 9.66 0 01-2.57.32 8.59 8.59 0 01-3-.47c-.63-.23-.85-.52-.84-.63-.03-.13.28-.51 1.17-.75zm-4.31 5a10 10 0 012.56-.32 9.09 9.09 0 013.05.47c.66.25.87.55.84.65-.03.1-.28.49-1.17.74a9.53 9.53 0 01-2.56.32 8.85 8.85 0 01-3-.47c-.63-.24-.84-.52-.83-.63-.08-.04.22-.47 1.11-.72zm-8.22-2.89c0-.11.29-.49 1.18-.73a9.51 9.51 0 012.55-.32 9.11 9.11 0 013 .46c.66.25.86.55.84.65-.02.1-.27.49-1.17.74a9.15 9.15 0 01-2.56.32 8.75 8.75 0 01-3-.47c-.64-.24-.85-.51-.85-.62zm-5 2.61l4.43-.62v1.36c0 .56.51.92 1.23 1.2a9.46 9.46 0 003.26.51 10.54 10.54 0 002.58-.31v2.21c0 .56.5.91 1.22 1.2a9.49 9.49 0 003.25.5 10.29 10.29 0 002.74-.33c.94-.3 1.55-.66 1.59-1.31v-3.4a10.73 10.73 0 002.55-.31v2.21c0 .56.51.92 1.22 1.2a9.5 9.5 0 003.26.51 10.2 10.2 0 002.73-.35c.94-.28 1.55-.65 1.6-1.3v-1.55l5 2.72-23 3.23zm37.23 22.31c-.09.05-23.37 3.27-23.37 3.27V71.81l23.37-3.28s-.05 17.52-.04 17.64z" fill="#02743b"/><path d="M62.278 6.49c0-.56-.5-.92-1.22-1.2a9.5 9.5 0 00-3.26-.51 9.74 9.74 0 00-2.72.35c-.94.28-1.55.65-1.6 1.29v1.4l-5.41.76h-.11v.05a.14.14 0 010 .06v18.19a.27.27 0 000 .13l3.75 2.41 10.7 5.81h.13l24-3.37a.25.25 0 00.11 0 .19.19 0 000-.07V13.41a.21.21 0 000-.12l-5.94-3.47v-1.1c0-.55-.5-.91-1.22-1.2a9.8 9.8 0 00-3.26-.5h-.72l-1.86-1v-.95c0-.56-.5-.91-1.22-1.2a9.79 9.79 0 00-3.26-.51 10.15 10.15 0 00-2.73.34c-.93.29-1.55.66-1.59 1.3v1.22l-2.55.36" fill="#1ea551"/><path d="M86.888 13.41a.21.21 0 000-.12l-6.18-3.47v-1.1c0-.55-.5-.91-1.22-1.2a9.8 9.8 0 00-3.26-.5h-.72l-1.86-1v.66l.84.45q-.45.08-.84.18V5.08c0-.56-.5-.91-1.22-1.2a9.79 9.79 0 00-3.26-.51 10.15 10.15 0 00-2.73.34c-.93.29-1.55.66-1.59 1.3v1.21l-2.55.36v.6l2.54-.35v1.54a9.8 9.8 0 00-2.69.34h.14V6.49c0-.56-.5-.92-1.22-1.2a9.5 9.5 0 00-3.26-.51 9.74 9.74 0 00-2.72.35c-.94.28-1.55.65-1.6 1.29v1.4l-5.41.76h-.11v.05a.14.14 0 010 .06v18.19a.27.27 0 000 .13l3.74 2.41 10.7 5.81h.13l24-3.37a.25.25 0 00.11 0 .19.19 0 000-.07V13.41zM76.208 7.6a9 9 0 013 .47c.67.25.87.55.85.64-.02.09-.28.5-1.17.75a9.53 9.53 0 01-2.56.32 9.05 9.05 0 01-3-.47c-.63-.24-.84-.52-.84-.62 0-.12.28-.49 1.17-.73a9.13 9.13 0 012.55-.36zm-9.61-3.32a10 10 0 012.56-.32 9 9 0 013 .47c.67.25.87.56.85.65-.02.09-.28.49-1.17.74a9.66 9.66 0 01-2.57.32 8.59 8.59 0 01-3-.47c-.63-.23-.85-.52-.84-.63-.03-.13.28-.51 1.17-.76zm-4.31 5.05a9.59 9.59 0 012.56-.32 9.09 9.09 0 013.05.47c.66.25.87.55.84.65-.03.1-.28.49-1.17.74a9.55 9.55 0 01-2.56.31 8.86 8.86 0 01-3-.46c-.63-.24-.84-.52-.83-.63-.08-.13.22-.51 1.11-.76zm-8.22-2.89c0-.11.29-.49 1.18-.73a10.33 10.33 0 015.6.14c.66.25.86.55.84.65-.02.1-.27.49-1.17.74a9.15 9.15 0 01-2.56.32 9 9 0 01-3-.47c-.64-.24-.85-.52-.85-.62zm-5 2.61l4.43-.62v1.39c0 .55.51.91 1.23 1.19a9.46 9.46 0 003.26.51 10.54 10.54 0 002.58-.31v2.21c0 .56.5.91 1.22 1.2a9.49 9.49 0 003.25.5 10.29 10.29 0 002.67-.3c.94-.3 1.55-.66 1.59-1.31v-3.36a10.25 10.25 0 002.55-.3v2.21c0 .56.51.92 1.22 1.19a9.25 9.25 0 003.26.52 10.2 10.2 0 002.73-.35c.94-.28 1.55-.65 1.6-1.3v-1.59l5 2.72-23 3.23zm37.23 22.31c-.09 0-23.37 3.27-23.37 3.27V17.04l23.37-3.28s-.05 17.48-.04 17.6z" fill="#02743b"/><path d="M38.328 101.22c0-.56-.5-.91-1.23-1.2a9.47 9.47 0 00-3.26-.5 9.74 9.74 0 00-2.72.35c-.93.27-1.54.65-1.59 1.29v1.38l-5.41.76h-.11v18.26a.28.28 0 000 .13l3.83 2.09 10.69 5.81a.28.28 0 00.12 0l24-3.37a.23.23 0 00.11 0v-18.26a.5.5 0 000-.12l-6-3.3v-1.14c0-.56-.5-.91-1.22-1.2a9.54 9.54 0 00-3.26-.51h-.72l-1.85-1v-.87c0-.55-.51-.91-1.23-1.19a9.26 9.26 0 00-3.26-.51 10 10 0 00-2.72.34c-.94.29-1.55.65-1.6 1.29v1.19l-2.54.36" fill="#1ea551"/><path d="M62.928 108.13a.5.5 0 000-.12l-6-3.3v-1.14c0-.56-.5-.91-1.22-1.2a9.54 9.54 0 00-3.26-.51h-.72l-1.85-1v.66l.84.46c-.29 0-.58.1-.84.17v-2.23c0-.55-.51-.91-1.23-1.19a9.26 9.26 0 00-3.26-.51 10 10 0 00-2.72.34c-.94.29-1.55.65-1.6 1.29v1.19l-2.54.36v.6l2.55-.36v1.53a10.3 10.3 0 00-2.69.35h.14v-2.23c0-.56-.5-.91-1.23-1.2a9.47 9.47 0 00-3.26-.5 9.74 9.74 0 00-2.72.35c-.93.27-1.54.65-1.59 1.29v1.38l-5.41.76h-.11v18.26a.28.28 0 000 .13l3.83 2.08 10.69 5.81a.28.28 0 00.12 0l24-3.37a.23.23 0 00.11 0v-18.26zm-10.68-5.8a9.11 9.11 0 013.05.46c.66.25.86.55.84.65-.02.1-.27.49-1.16.74a9.27 9.27 0 01-2.57.32 9 9 0 01-3-.47c-.64-.23-.85-.51-.85-.62 0-.12.29-.5 1.18-.74a9.51 9.51 0 012.51-.34zm-9.61-3.32a9.59 9.59 0 012.56-.32 9.09 9.09 0 013 .47c.66.25.86.55.84.64-.02.09-.28.5-1.17.75a10 10 0 01-2.56.31 8.86 8.86 0 01-3-.46c-.63-.24-.84-.52-.84-.63-.03-.14.24-.52 1.17-.76zm-4.3 5.05a9.53 9.53 0 012.56-.32 9 9 0 013 .46c.67.25.87.56.85.65-.02.09-.28.5-1.17.74a9.66 9.66 0 01-2.57.32 8.56 8.56 0 01-3-.47c-.63-.23-.85-.52-.84-.63-.03-.13.28-.51 1.17-.75zm-8.23-2.89c0-.12.29-.49 1.18-.74a9.51 9.51 0 012.55-.32 9.28 9.28 0 013 .46c.66.26.87.56.84.65-.03.09-.27.5-1.16.74a9.17 9.17 0 01-2.57.32 9 9 0 01-3-.46c-.64-.24-.85-.52-.85-.62zm-5 2.6l4.44-.62v1.37c0 .56.5.92 1.22 1.19a9.26 9.26 0 003.26.51 10.11 10.11 0 002.59-.31v2.21c0 .56.5.92 1.22 1.2a9.5 9.5 0 003.26.51 10.15 10.15 0 002.73-.34c.94-.29 1.55-.66 1.6-1.31v-3.35a10.74 10.74 0 002.55-.3v2.2c0 .56.51.92 1.23 1.2a9.46 9.46 0 003.26.51 10.21 10.21 0 002.73-.34c.93-.29 1.55-.66 1.59-1.31v-1.55l5 2.72-23 3.23zm37.23 22.31c-.08.06-23.37 3.27-23.37 3.27v-17.59l23.37-3.28s-.05 17.49-.04 17.6z" fill="#02743b"/><path d="M38.328 64.68c0-.56-.5-.91-1.23-1.2a9.47 9.47 0 00-3.26-.5 10.13 10.13 0 00-2.72.34c-.93.28-1.54.66-1.59 1.29V66l-5.41.76h-.11v18.25a.28.28 0 000 .13l3.83 2.09 10.69 5.81a.28.28 0 00.12 0l24-3.37a.17.17 0 00.11 0V71.4a.5.5 0 000-.12l-6-3.29v-1.14c0-.56-.5-.92-1.22-1.2a9.54 9.54 0 00-3.26-.51h-.72l-1.85-1v-.94c0-.55-.51-.91-1.23-1.19a9.49 9.49 0 00-3.26-.52 10 10 0 00-2.72.35c-.94.28-1.55.65-1.6 1.29v1.19l-2.54.36" fill="#1ea551"/><path d="M62.928 71.59a.5.5 0 000-.12l-6-3.29v-1.14c0-.56-.5-.92-1.22-1.2a9.54 9.54 0 00-3.26-.51h-.72l-1.85-1v.66l.84.46a6.93 6.93 0 00-.84.17v-2.23c0-.55-.51-.91-1.23-1.19a9.49 9.49 0 00-3.26-.52 10 10 0 00-2.72.35c-.94.28-1.55.65-1.6 1.29v1.19l-2.54.36v.6l2.55-.36v1.52a10.31 10.31 0 00-2.69.34h.14v-2.23c0-.56-.5-.91-1.23-1.2a9.47 9.47 0 00-3.26-.5 10.13 10.13 0 00-2.72.34c-.93.28-1.54.66-1.59 1.29v1.39l-5.41.76h-.11v18.25a.28.28 0 000 .13l3.83 2.09 10.69 5.81a.28.28 0 00.12 0l24-3.37a.17.17 0 00.11 0V71.46zm-10.68-5.77a9.11 9.11 0 013.05.46c.66.25.86.55.84.65-.02.1-.27.49-1.16.74a9.27 9.27 0 01-2.57.32 9 9 0 01-3-.47c-.64-.23-.85-.52-.85-.62 0-.11.29-.49 1.18-.73a9.51 9.51 0 012.51-.35zm-9.61-3.32a9.59 9.59 0 012.56-.32 8.85 8.85 0 013 .47c.66.25.86.55.84.64-.02.09-.28.5-1.17.75a10 10 0 01-2.56.31 8.86 8.86 0 01-3-.46c-.63-.24-.84-.52-.84-.63-.03-.17.24-.55 1.17-.79zm-4.3 5a9.52 9.52 0 012.56-.33 9 9 0 013 .47c.67.25.87.56.85.65-.02.09-.28.5-1.17.74a9.66 9.66 0 01-2.57.32 9 9 0 01-3-.46c-.63-.24-.85-.53-.84-.64-.03-.11.28-.49 1.17-.73zm-8.23-2.9c0-.12.29-.5 1.18-.74a9.51 9.51 0 012.55-.32 9.28 9.28 0 013 .46c.66.25.87.56.84.65-.03.09-.27.49-1.16.74a9.17 9.17 0 01-2.57.32 9 9 0 01-3-.46c-.64-.24-.85-.52-.85-.63zm-5 2.61l4.44-.62v1.36c0 .56.5.91 1.22 1.19a9.26 9.26 0 003.26.51 10.11 10.11 0 002.59-.31v2.21c0 .56.5.92 1.22 1.2a9.5 9.5 0 003.26.51 10.15 10.15 0 002.73-.34c.94-.29 1.55-.66 1.6-1.31v-3.35a10.74 10.74 0 002.55-.3v2.2c0 .55.51.91 1.23 1.19a9.46 9.46 0 003.26.51 10.21 10.21 0 002.73-.34c.93-.29 1.55-.66 1.59-1.31v-1.55l5 2.72-23 3.23zm37.23 22.31c-.08.05-23.37 3.27-23.37 3.27V75.2l23.37-3.28s-.05 17.51-.04 17.62z" fill="#02743b"/><path d="M38.328 9.87c0-.56-.5-.91-1.23-1.2a9.47 9.47 0 00-3.26-.5 9.74 9.74 0 00-2.72.34c-.93.28-1.54.65-1.59 1.3v1.39l-5.41.76h-.11v18.25a.28.28 0 000 .13l3.83 2.09 10.69 5.81a.28.28 0 00.12 0l24-3.37a.17.17 0 00.11 0V16.6a.5.5 0 000-.12v-.05l-6-3.29v-1.05c0-.56-.5-.92-1.22-1.2a9.54 9.54 0 00-3.26-.51h-.72l-1.85-1v-.94c0-.56-.51-.91-1.23-1.19a9.49 9.49 0 00-3.26-.52 10 10 0 00-2.72.35c-.94.28-1.55.65-1.6 1.29v1.21l-2.54.36" fill="#1ea551"/><path d="M62.928 16.82a.5.5 0 000-.12v-.05l-6-3.29v-1.27c0-.56-.5-.92-1.22-1.2a9.54 9.54 0 00-3.26-.51h-.72l-1.85-1v.66l.84.46a6.93 6.93 0 00-.84.17V8.44c0-.56-.51-.91-1.23-1.19a9.49 9.49 0 00-3.26-.52 10 10 0 00-2.72.35c-.94.28-1.55.65-1.6 1.29v1.21l-2.54.36v.6l2.55-.36v1.54a10.31 10.31 0 00-2.69.34h.14V9.83c0-.56-.5-.91-1.23-1.2a9.47 9.47 0 00-3.26-.5 9.74 9.74 0 00-2.72.34c-.93.28-1.54.65-1.59 1.3v1.39l-5.41.76h-.11v18.25a.28.28 0 000 .13l3.83 2.09 10.69 5.81a.28.28 0 00.12 0l24-3.37a.17.17 0 00.11 0V16.56zm-10.68-5.8a9.11 9.11 0 013.05.46c.66.25.86.55.84.65-.02.1-.27.49-1.16.74a9.27 9.27 0 01-2.57.32 9 9 0 01-3-.47c-.64-.24-.85-.52-.85-.62 0-.11.29-.49 1.18-.73a9.13 9.13 0 012.51-.39zm-9.61-3.32a9.59 9.59 0 012.56-.32 8.85 8.85 0 013 .47c.66.25.86.55.84.64-.02.09-.28.5-1.17.75a10 10 0 01-2.56.31 8.86 8.86 0 01-3-.46c-.63-.24-.84-.53-.84-.63-.03-.18.24-.56 1.17-.8zm-4.3 5a10 10 0 012.56-.32 9 9 0 013 .47c.67.25.87.56.85.65-.02.09-.28.49-1.17.74a9.66 9.66 0 01-2.57.32 8.79 8.79 0 01-3-.47c-.63-.23-.85-.52-.84-.63-.03-.13.28-.51 1.17-.76zm-8.23-2.88c0-.12.29-.5 1.18-.74a9.51 9.51 0 012.55-.32 9.28 9.28 0 013 .46c.66.25.87.56.84.65-.03.09-.27.49-1.16.74a9.17 9.17 0 01-2.57.32 9 9 0 01-3-.46c-.64-.24-.85-.52-.85-.63zm-5 2.61l4.4-.61v1.36c0 .56.5.91 1.22 1.19a9.26 9.26 0 003.26.51 10.11 10.11 0 002.59-.31v2.21c0 .56.5.91 1.22 1.2a9.5 9.5 0 003.26.51 10.15 10.15 0 002.73-.34c.94-.29 1.55-.66 1.6-1.31v-3.36a10.24 10.24 0 002.55-.31v2.21c0 .56.51.92 1.23 1.2a9.46 9.46 0 003.26.51 10.21 10.21 0 002.73-.34c.93-.29 1.55-.66 1.59-1.31V13.9l5 2.72-23.04 3.2zm37.23 22.31c-.08 0-23.37 3.27-23.37 3.27V20.42l23.37-3.28s-.05 17.48-.04 17.59z" fill="#02743b"/><path d="M14.358 104.58c0-.56-.5-.91-1.22-1.2a9.55 9.55 0 00-3.26-.5 9.82 9.82 0 00-2.73.34c-.93.28-1.54.66-1.59 1.29v1.39l-5.41.76a.19.19 0 00-.1 0v.11c0 .06 0 0 0 0v18.19a.27.27 0 000 .13l3.83 2.09 10.69 5.81a.28.28 0 00.13 0l24-3.37a.21.21 0 00.1 0 .64.64 0 000-.07V111.3a.43.43 0 000-.12.1.1 0 000-.05l-6.05-3.29v-1.02c0-.56-.5-.92-1.23-1.2a9.46 9.46 0 00-3.26-.51h-.72l-1.85-1v-.94c0-.56-.51-.91-1.23-1.19a9.47 9.47 0 00-3.25-.52 9.76 9.76 0 00-2.73.35c-.93.28-1.55.65-1.6 1.29v1.2l-2.54.35" fill="#1ea551"/><path d="M38.958 111.49a.43.43 0 000-.12.1.1 0 000-.05l-6.05-3.29v-1.21c0-.56-.5-.92-1.23-1.2a9.46 9.46 0 00-3.26-.51h-.72l-1.85-1v.71l.83.45q-.44.07-.84.18v-2.23c0-.56-.51-.91-1.23-1.19a9.47 9.47 0 00-3.25-.52 9.76 9.76 0 00-2.73.35c-.93.28-1.55.65-1.6 1.29v1.2l-2.54.35v.6l2.55-.35v1.52a10.18 10.18 0 00-2.68.34h.13v-2.23c0-.56-.5-.91-1.22-1.2a9.55 9.55 0 00-3.26-.5 9.82 9.82 0 00-2.73.34c-.93.28-1.54.66-1.59 1.29v1.39l-5.41.76a.19.19 0 00-.1 0v.11c0 .06 0 0 0 0v18.19a.27.27 0 000 .13l3.83 2.09 10.69 5.81a.28.28 0 00.13 0l24-3.37a.21.21 0 00.1 0 .64.64 0 000-.07V111.3zm-10.68-5.8a9 9 0 013 .46c.66.25.87.55.84.65-.03.1-.27.49-1.16.74a9.66 9.66 0 01-2.57.32 9 9 0 01-3-.47c-.64-.24-.85-.52-.85-.62 0-.12.29-.49 1.18-.74a9.53 9.53 0 012.56-.34zm-9.6-3.32a9.53 9.53 0 012.56-.32 8.83 8.83 0 013 .47c.67.25.87.55.84.64-.03.09-.27.5-1.16.74a9.66 9.66 0 01-2.57.32 9.11 9.11 0 01-3-.46c-.63-.24-.84-.53-.83-.63-.04-.14.27-.52 1.19-.76zm-4.31 5a10 10 0 012.56-.32 9.09 9.09 0 013 .47c.66.25.86.55.84.65-.02.1-.28.49-1.17.74a9.56 9.56 0 01-2.57.32 9.07 9.07 0 01-3-.47c-.63-.23-.84-.52-.84-.63-.02-.09.29-.47 1.18-.72zm-8.22-2.89c0-.12.28-.5 1.17-.74a9.53 9.53 0 012.56-.32 9.26 9.26 0 013 .46c.67.25.87.56.85.65-.02.09-.28.49-1.17.74a9.15 9.15 0 01-2.56.32 8.81 8.81 0 01-3.05-.47c-.63-.24-.84-.51-.84-.62zm-5.05 2.61l4.44-.62v1.36c0 .55.51.91 1.23 1.19a9.17 9.17 0 003.25.51 10.11 10.11 0 002.59-.31v2.21c0 .56.5.91 1.22 1.2a9.55 9.55 0 003.26.5 9.77 9.77 0 002.73-.34c.94-.28 1.56-.65 1.6-1.3v-3.36a10.64 10.64 0 002.54-.31v2.24c0 .56.5.92 1.22 1.2a9.5 9.5 0 003.26.51 10.2 10.2 0 002.73-.35c.93-.28 1.55-.65 1.59-1.3v-1.55l5 2.72-23 3.23zm37.23 22.31c-.08 0-23.37 3.27-23.37 3.27v-17.59l23.41-3.26s-.05 17.51-.04 17.62z" fill="#02743b"/><path d="M14.358 86.31c0-.56-.5-.91-1.22-1.2a9.55 9.55 0 00-3.26-.5 9.82 9.82 0 00-2.73.34c-.93.28-1.54.65-1.59 1.29v1.39l-5.41.76a.19.19 0 00-.1 0v18.3a.27.27 0 000 .13l3.83 2.09 10.69 5.81a.28.28 0 00.13 0l24-3.37a.21.21 0 00.1 0v-18.3a.43.43 0 000-.12l-6.05-3.29V88.5c0-.56-.5-.92-1.23-1.2a9.46 9.46 0 00-3.26-.51h-.72l-1.83-.97v-.94c0-.55-.51-.91-1.23-1.2a9.72 9.72 0 00-3.25-.51 10.57 10.57 0 00-2.73.34c-.93.29-1.55.66-1.6 1.3v1.2l-2.54.35" fill="#1ea551"/><path d="M38.958 93.22a.43.43 0 000-.12l-6.05-3.29v-1.14c0-.56-.5-.92-1.23-1.2a9.46 9.46 0 00-3.26-.51h-.72l-1.99-1.14v.66l.83.46a7.34 7.34 0 00-.84.17v-2.23c0-.55-.51-.91-1.23-1.2a9.72 9.72 0 00-3.25-.51 10.57 10.57 0 00-2.73.34c-.93.29-1.55.66-1.6 1.3v1.2l-2.54.35v.61l2.55-.36v1.52a9.78 9.78 0 00-2.68.34h.13v-2.23c0-.56-.5-.91-1.22-1.2a9.55 9.55 0 00-3.26-.5 9.82 9.82 0 00-2.73.34c-.93.28-1.54.65-1.59 1.29v1.39l-5.41.76a.19.19 0 00-.1 0v18.3a.27.27 0 000 .13l3.83 2.09 10.69 5.81a.28.28 0 00.13 0l24-3.37a.21.21 0 00.1 0V92.97zm-10.68-5.81a9 9 0 013 .47c.66.25.87.55.84.65-.03.1-.27.49-1.16.74a9.66 9.66 0 01-2.57.32 9 9 0 01-3-.47c-.64-.24-.85-.52-.85-.62 0-.12.29-.49 1.18-.73a9.11 9.11 0 012.56-.36zm-9.6-3.31a9.53 9.53 0 012.56-.32 8.83 8.83 0 013 .47c.67.25.87.55.84.64-.03.09-.27.5-1.16.74a9.66 9.66 0 01-2.57.32 8.61 8.61 0 01-3-.47c-.63-.23-.84-.51-.83-.62-.04-.14.27-.52 1.19-.76zm-4.31 5a10 10 0 012.56-.32 9.09 9.09 0 013 .47c.66.25.86.55.84.65-.02.1-.28.49-1.17.74a9.58 9.58 0 01-2.57.31 8.61 8.61 0 01-3-.46c-.63-.24-.84-.52-.84-.63-.02-.04.29-.47 1.18-.72zm-8.22-2.89c0-.12.28-.5 1.17-.74a9.53 9.53 0 012.56-.32 9.26 9.26 0 013 .46c.67.25.87.56.85.65-.02.09-.28.49-1.17.74a9.15 9.15 0 01-2.56.32 8.81 8.81 0 01-3.05-.47c-.63-.23-.84-.51-.84-.62zm-5.05 2.61l4.44-.62v1.36c0 .55.51.91 1.23 1.19a9.4 9.4 0 003.25.51 10.11 10.11 0 002.59-.31v2.21c0 .56.5.92 1.22 1.2a9.55 9.55 0 003.26.5 9.77 9.77 0 002.73-.34c.94-.28 1.56-.65 1.6-1.3v-3.36a10.16 10.16 0 002.54-.31v2.27c0 .56.5.92 1.22 1.19a9.25 9.25 0 003.26.52 10.2 10.2 0 002.73-.35c.93-.28 1.55-.65 1.59-1.3v-1.55l5 2.72-23 3.22zm37.23 22.31c-.08.05-23.37 3.27-23.37 3.27V96.81l23.37-3.28s-.01 17.53 0 17.64z" fill="#02743b"/><path d="M14.358 68.04c0-.56-.5-.91-1.22-1.2a9.54 9.54 0 00-3.26-.51 9.81 9.81 0 00-2.73.35c-.93.28-1.54.65-1.59 1.29v1.39l-5.41.76a.19.19 0 00-.1 0v.06c0 .06 0 0 0 0v18.19a.27.27 0 000 .13l3.83 2.09 10.64 6.23a.5.5 0 00.13 0l24-3.37h.1V75.14a.5.5 0 000-.12v-.05l-6.05-3.29v-1.14c0-.56-.5-.92-1.23-1.2a9.46 9.46 0 00-3.26-.51h-.72l-1.85-1v-.94c0-.56-.51-.91-1.23-1.2a9.72 9.72 0 00-3.25-.51 10.14 10.14 0 00-2.73.35c-.93.28-1.55.65-1.6 1.29v1l-2.54.35" fill="#1ea551"/><path d="M38.958 74.95a.5.5 0 000-.12v-.05l-6.05-3.29v-1.14c0-.56-.5-.92-1.23-1.2a9.46 9.46 0 00-3.26-.51h-.72l-1.85-1v.66l.83.45q-.44.07-.84.18V66.7c0-.56-.51-.91-1.23-1.2a9.72 9.72 0 00-3.25-.51 10.14 10.14 0 00-2.73.35c-.93.28-1.55.65-1.6 1.29v1.19l-2.54.35v.61l2.55-.36v1.52a9.78 9.78 0 00-2.68.34h.13v-2.23c0-.56-.5-.91-1.22-1.2a9.54 9.54 0 00-3.26-.51 9.81 9.81 0 00-2.73.35c-.93.28-1.54.65-1.59 1.29v1.39l-5.41.76a.19.19 0 00-.1 0v.06c0 .06 0 0 0 0v18.19a.27.27 0 000 .13l3.83 2.09 10.51 6.22a.5.5 0 00.13 0l24-3.37h.1V75.14zm-10.68-5.8a9 9 0 013 .46c.66.25.87.55.84.65-.03.1-.27.49-1.16.74a9.66 9.66 0 01-2.57.32 9 9 0 01-3-.47c-.64-.24-.85-.52-.85-.62 0-.12.29-.49 1.18-.74a9.53 9.53 0 012.56-.34zm-9.57-3.33a9.53 9.53 0 012.56-.32 9.09 9.09 0 013 .46c.67.26.87.56.84.65-.03.09-.27.5-1.16.74a9.66 9.66 0 01-2.57.32 9.11 9.11 0 01-3-.46c-.63-.24-.84-.53-.83-.63-.07-.13.24-.51 1.16-.76zm-4.31 5a9.59 9.59 0 012.56-.32 9.09 9.09 0 013 .47c.66.25.86.55.84.65-.02.1-.28.49-1.17.74a9.56 9.56 0 01-2.57.32 8.83 8.83 0 01-3-.47c-.63-.24-.84-.52-.84-.63-.05-.08.26-.46 1.15-.71zm-8.22-2.89c0-.12.28-.5 1.17-.74a9.53 9.53 0 012.56-.32 9 9 0 013 .46c.67.25.87.55.85.65-.02.1-.28.49-1.17.74a9.53 9.53 0 01-2.56.32 8.81 8.81 0 01-3.05-.47c-.63-.23-.84-.51-.84-.62zm-5.05 2.61l4.44-.63v1.37c0 .55.51.91 1.23 1.19a9.17 9.17 0 003.25.51 10.11 10.11 0 002.59-.31v2.21c0 .56.5.91 1.22 1.2a9.54 9.54 0 003.26.51 9.76 9.76 0 002.73-.35c.94-.28 1.56-.65 1.6-1.3v-3.36a9.72 9.72 0 002.54-.3v2.24c0 .56.5.92 1.22 1.19a9.25 9.25 0 003.26.52 9.81 9.81 0 002.73-.35c.93-.28 1.55-.65 1.59-1.3v-1.55l5 2.72-23 3.23zm37.23 22.31c-.08 0-23.37 3.27-23.37 3.27V78.53l23.37-3.28s-.04 17.57-.03 17.65z" fill="#02743b"/><path d="M14.358 49.76c0-.56-.5-.91-1.22-1.2a9.55 9.55 0 00-3.26-.5 9.82 9.82 0 00-2.73.34c-.93.28-1.54.65-1.59 1.29v1.39l-5.41.75h-.1v.06c0 .06 0 0 0 0v18.19a.27.27 0 000 .13l3.83 2.09 10.69 5.81a.28.28 0 00.13 0l24-3.37a.14.14 0 00.1 0 .64.64 0 000-.07V56.71a.43.43 0 000-.12.1.1 0 000-.05l-6.05-3.29v-1.14c0-.56-.5-.92-1.23-1.2a9.46 9.46 0 00-3.26-.51h-.72l-1.85-1v-.94c0-.56-.51-.91-1.23-1.2a9.72 9.72 0 00-3.25-.51 10.15 10.15 0 00-2.73.34c-.93.29-1.55.66-1.6 1.3v1.2l-2.54.35" fill="#1ea551"/><path d="M38.958 56.68a.43.43 0 000-.12.1.1 0 000-.05l-6.05-3.29v-1.14c0-.56-.5-.92-1.23-1.2a9.46 9.46 0 00-3.26-.51h-.72l-1.85-1v.66l.83.45q-.44.07-.84.18v-2.23c0-.56-.51-.91-1.23-1.2a9.72 9.72 0 00-3.25-.51 10.15 10.15 0 00-2.73.34c-.93.29-1.55.66-1.6 1.3v1.2l-2.54.35v.61l2.55-.36v1.52a9.78 9.78 0 00-2.68.34h.13v-2.24c0-.56-.5-.91-1.22-1.2a9.55 9.55 0 00-3.26-.5 9.82 9.82 0 00-2.73.34c-.93.28-1.54.65-1.59 1.29v1.39l-5.41.75h-.1v.06c0 .06 0 0 0 0V70.1a.27.27 0 000 .13l3.83 2.09 10.69 5.81a.28.28 0 00.13 0l24-3.37a.14.14 0 00.1 0 .64.64 0 000-.07V56.71zm-10.68-5.81a9 9 0 013 .47c.66.25.87.55.84.65-.03.1-.27.49-1.16.74a9.66 9.66 0 01-2.57.32 9 9 0 01-3-.47c-.64-.24-.85-.52-.85-.62 0-.12.29-.49 1.18-.74a9.51 9.51 0 012.56-.35zm-9.6-3.31a9.53 9.53 0 012.56-.32 9.09 9.09 0 013 .46c.67.25.87.56.84.65-.03.09-.27.5-1.16.74a9.66 9.66 0 01-2.57.32 9.11 9.11 0 01-3-.46c-.63-.24-.84-.53-.83-.63-.04-.14.27-.5 1.19-.76zm-4.31 5a9.59 9.59 0 012.56-.32 9.09 9.09 0 013 .47c.66.25.86.55.84.65-.02.1-.28.49-1.17.74a9.56 9.56 0 01-2.57.32 9.07 9.07 0 01-3-.47c-.63-.24-.84-.52-.84-.63-.02-.09.29-.5 1.18-.72zm-8.22-2.89c0-.12.28-.5 1.17-.74a9.53 9.53 0 012.56-.32 9 9 0 013 .46c.67.25.87.55.85.65-.02.1-.28.49-1.17.74a9.15 9.15 0 01-2.56.32 9.05 9.05 0 01-3.05-.47c-.63-.23-.84-.51-.84-.62zm-5.05 2.61l4.44-.63v1.37c0 .55.51.91 1.23 1.19a9.4 9.4 0 003.25.51 10.57 10.57 0 002.59-.31v2.21c0 .56.5.91 1.22 1.2a9.55 9.55 0 003.26.5 9.77 9.77 0 002.73-.34c.94-.29 1.56-.65 1.6-1.3v-3.41a9.72 9.72 0 002.54-.3v2.24c0 .56.5.92 1.22 1.19a9.25 9.25 0 003.26.52 10.2 10.2 0 002.73-.35c.93-.28 1.55-.65 1.59-1.3v-1.45l5 2.72-23 3.23zm37.23 22.3c-.08.06-23.37 3.28-23.37 3.28V60.27l23.37-3.28s-.01 17.52 0 17.63z" fill="#02743b"/><path d="M14.358 31.49c0-.56-.5-.92-1.22-1.2a9.54 9.54 0 00-3.26-.51 9.81 9.81 0 00-2.73.35c-.93.28-1.54.65-1.59 1.29v1.4l-5.41.76h-.1v.06c0 .06 0 0 0 0v18.19a.27.27 0 000 .13l3.83 2.09 10.69 5.81a.28.28 0 00.13 0l24-3.37h.1V38.41a.43.43 0 000-.12l-6.04-3.47v-1.1c0-.55-.5-.91-1.23-1.2a9.71 9.71 0 00-3.26-.5h-.72l-1.85-1v-.94c0-.56-.51-.91-1.23-1.2a10.71 10.71 0 00-6-.16c-.93.28-1.55.65-1.6 1.29v1.2l-2.54.35" fill="#1ea551"/><path d="M38.958 38.41a.43.43 0 000-.12l-6.2-3.47v-1.1c0-.55-.5-.91-1.23-1.2a9.71 9.71 0 00-3.26-.5h-.72l-1.85-1v.66l.83.45q-.44.08-.84.18v-2.23c0-.56-.51-.91-1.23-1.2a10.71 10.71 0 00-6-.16c-.93.28-1.55.65-1.6 1.29v1.2l-2.54.35v.6l2.55-.35v1.52a9.78 9.78 0 00-2.68.34h.13v-2.24c0-.56-.5-.92-1.22-1.2a9.54 9.54 0 00-3.26-.51 9.81 9.81 0 00-2.73.35c-.93.28-1.54.65-1.59 1.29v1.46l-5.41.76h-.1v.06c0 .06 0 0 0 0v18.19a.27.27 0 000 .13l3.83 2.09 10.69 5.81a.28.28 0 00.13 0l24-3.37h.1V38.41zm-10.68-5.8a9 9 0 013 .46c.66.25.87.55.84.64-.03.09-.27.5-1.16.75a9.66 9.66 0 01-2.57.32 9 9 0 01-3-.47c-.64-.24-.85-.52-.85-.63 0-.12.29-.49 1.18-.74a9.53 9.53 0 012.56-.33zm-9.6-3.32a9.53 9.53 0 012.56-.32 9.09 9.09 0 013 .46c.67.25.87.56.84.65-.03.09-.27.49-1.16.74a9.66 9.66 0 01-2.57.32 9.11 9.11 0 01-3-.46c-.63-.24-.84-.53-.83-.63-.04-.14.27-.52 1.19-.76zm-4.31 5a9.59 9.59 0 012.56-.32 9.09 9.09 0 013 .47c.66.25.86.55.84.65-.02.1-.28.49-1.17.74a9.58 9.58 0 01-2.57.31 8.84 8.84 0 01-3-.46c-.63-.24-.84-.52-.84-.63-.02-.09.29-.47 1.18-.72zm-8.22-2.89c0-.12.28-.49 1.17-.73a9.53 9.53 0 012.56-.32 9 9 0 013 .46c.67.25.87.55.85.65-.02.1-.28.49-1.17.74a9.53 9.53 0 01-2.56.32 8.81 8.81 0 01-3.05-.47c-.63-.24-.84-.51-.84-.62zm-5.05 2.61l4.44-.63v1.44c0 .55.51.91 1.23 1.19a9.4 9.4 0 003.25.51 10.11 10.11 0 002.59-.31v2.21c0 .56.5.91 1.22 1.2a9.55 9.55 0 003.26.5 9.77 9.77 0 002.73-.34c.94-.29 1.56-.65 1.6-1.3v-3.36a10.17 10.17 0 002.54-.3v2.24c0 .56.5.92 1.22 1.19a9.25 9.25 0 003.26.52 10.2 10.2 0 002.73-.35c.93-.28 1.55-.65 1.59-1.3v-1.55l5 2.71-23 3.23zm37.23 22.3c-.08.06-23.37 3.28-23.37 3.28V42l23.37-3.28s-.01 17.52 0 17.63z" fill="#02743b"/><path d="M14.358 13.22c0-.56-.5-.92-1.22-1.2a9.54 9.54 0 00-3.26-.51 9.81 9.81 0 00-2.73.35c-.93.28-1.54.65-1.59 1.29v1.38l-5.41.77a.19.19 0 00-.1 0v.06c0 .06 0 0 0 0v18.19a.27.27 0 000 .13l3.83 2.09 10.69 5.81a.5.5 0 00.13 0l24-3.37h.1v-18.3a.43.43 0 000-.12.1.1 0 000-.05l-6.05-3.29v-1c0-.56-.5-.92-1.23-1.21a9.71 9.71 0 00-3.26-.5h-.72l-1.85-1v-.92c0-.56-.51-.91-1.23-1.2a9.72 9.72 0 00-3.25-.51 10.15 10.15 0 00-2.73.34c-.93.29-1.55.66-1.6 1.3v1.2l-2.54.35" fill="#1ea551"/><path d="M38.958 20.14a.43.43 0 000-.12.1.1 0 000-.05l-6.05-3.29v-1.23c0-.56-.5-.92-1.23-1.21a9.71 9.71 0 00-3.26-.5h-.72l-1.85-1v.66l.83.45q-.44.08-.84.18l-.13-2.21c0-.56-.51-.91-1.23-1.2a9.72 9.72 0 00-3.25-.51 10.15 10.15 0 00-2.73.34c-.93.29-1.55.66-1.6 1.3v1.2l-2.54.35v.61l2.55-.36v1.52a9.78 9.78 0 00-2.68.34h.13v-2.24c0-.56-.5-.92-1.22-1.2a9.54 9.54 0 00-3.26-.51 9.81 9.81 0 00-2.73.35c-.93.28-1.54.65-1.59 1.29v1.38l-5.41.77a.19.19 0 00-.1 0v.06c0 .06 0 0 0 0V33.5a.27.27 0 000 .13l3.83 2.09 10.69 5.81a.5.5 0 00.13 0l24-3.37h.1v-18.3zm-10.68-5.81a9 9 0 013 .47c.66.25.87.55.84.65-.03.1-.27.49-1.16.74a9.66 9.66 0 01-2.57.32 9 9 0 01-3-.47c-.64-.24-.85-.52-.85-.62 0-.12.29-.49 1.18-.74a9.51 9.51 0 012.56-.35zm-9.57-3.31a9.53 9.53 0 012.56-.32 9.09 9.09 0 013 .46c.67.25.87.56.84.65-.03.09-.27.49-1.16.74a9.66 9.66 0 01-2.57.32 8.85 8.85 0 01-3-.47c-.63-.23-.84-.52-.83-.63-.07-.13.24-.51 1.16-.75zm-4.31 5a9.59 9.59 0 012.56-.32 9.09 9.09 0 013 .47c.66.25.86.55.84.65-.02.1-.28.49-1.17.74a9.58 9.58 0 01-2.57.31 8.84 8.84 0 01-3-.46c-.63-.24-.84-.52-.84-.63-.05-.09.26-.47 1.15-.72zm-8.22-2.89c0-.12.28-.5 1.17-.74a9.53 9.53 0 012.56-.32 9 9 0 013 .46c.67.25.87.55.85.65-.02.1-.28.49-1.17.74a9.53 9.53 0 01-2.56.32 9.05 9.05 0 01-3.05-.47c-.63-.24-.84-.51-.84-.62zm-5.08 2.69l4.44-.63v1.33c0 .55.51.91 1.23 1.19a9.4 9.4 0 003.25.51 10.11 10.11 0 002.59-.31v2.21c0 .56.5.91 1.22 1.2a9.55 9.55 0 003.26.5 9.77 9.77 0 002.73-.34c.94-.29 1.56-.65 1.6-1.3v-3.36a9.72 9.72 0 002.54-.3v2.24c0 .56.5.92 1.22 1.19a9.25 9.25 0 003.26.52 10.2 10.2 0 002.73-.35c.91-.3 1.54-.66 1.54-1.3v-1.56l5 2.72-23 3.22zm37.23 22.3c-.08.06-23.37 3.28-23.37 3.28V23.81l23.37-3.28s-.01 17.44 0 17.55z" fill="#02743b"/><path d="M101.338 102.69c0-.56-.5-.91-1.22-1.2a9.51 9.51 0 00-3.26-.5 9.87 9.87 0 00-2.73.34c-.93.28-1.54.65-1.58 1.29V104l-5.42.76h-.1a.14.14 0 010 .06v18.19a.51.51 0 000 .13v.05l3.83 2.09 10.7 5.81a.33.33 0 00.13 0l24-3.37h.11a.19.19 0 000-.07v.17-18.19a.23.23 0 000-.12.1.1 0 000-.05l-6-3.29v-1.25c0-.56-.5-.92-1.22-1.21a9.81 9.81 0 00-3.27-.5h-.72l-1.85-1v-.93c0-.56-.5-.91-1.22-1.2a9.83 9.83 0 00-3.26-.51 10.57 10.57 0 00-2.73.34c-.93.29-1.55.66-1.59 1.3v1.19l-2.55.36" fill="#1ea551"/><path d="M125.938 109.61a.23.23 0 000-.12.1.1 0 000-.05l-6-3.29v-1.23c0-.56-.5-.92-1.22-1.21a9.81 9.81 0 00-3.27-.5h-.72l-1.85-1v.67l.83.45q-.43.07-.84.18v-2.23c0-.56-.5-.91-1.22-1.2a9.83 9.83 0 00-3.26-.51 10.57 10.57 0 00-2.73.34c-.93.29-1.55.66-1.59 1.3v1.19l-2.55.36v.61l2.54-.36v1.52a10.26 10.26 0 00-2.69.34h.14v-2.24c0-.56-.5-.91-1.22-1.2a9.51 9.51 0 00-3.26-.5 9.87 9.87 0 00-2.73.34c-.93.28-1.54.65-1.58 1.29v1.38l-5.42.76h-.1a.14.14 0 010 .06v18.19a.51.51 0 000 .13v.05l3.83 2.09 10.7 5.81a.33.33 0 00.13 0l24-3.37h.11a.19.19 0 000-.07v.23-18.19zm-10.68-5.8a9 9 0 013.05.46c.67.25.87.55.84.65-.03.1-.27.49-1.16.74a9.53 9.53 0 01-2.56.32 9.05 9.05 0 01-3.05-.47c-.63-.24-.84-.52-.84-.62 0-.12.28-.49 1.17-.74a9.53 9.53 0 012.55-.33zm-9.6-3.32a9.53 9.53 0 012.56-.32 8.75 8.75 0 013 .47c.67.25.87.55.85.64-.02.09-.28.5-1.17.74a9.66 9.66 0 01-2.57.32 9 9 0 01-3-.46c-.63-.24-.85-.53-.84-.63-.03-.14.28-.52 1.22-.76zm-4.31 5a10 10 0 012.56-.32 9.09 9.09 0 013 .47c.66.25.87.55.84.65-.03.1-.28.49-1.17.74a9.53 9.53 0 01-2.56.32 9.09 9.09 0 01-3.05-.47c-.63-.24-.84-.52-.83-.63.02-.09.32-.43 1.21-.72zm-8.22-2.89c0-.11.29-.49 1.18-.73a9.51 9.51 0 012.55-.32 9.11 9.11 0 013.05.46c.66.25.86.55.84.65-.02.1-.27.49-1.16.74a9.27 9.27 0 01-2.57.32 9.09 9.09 0 01-3-.47c-.63-.24-.84-.51-.84-.62zm-5 2.61l4.43-.62v1.36c0 .55.51.91 1.23 1.19a9.42 9.42 0 003.26.51 10.54 10.54 0 002.58-.31v2.21c0 .56.5.91 1.21 1.2a9.59 9.59 0 003.26.5 10.29 10.29 0 002.74-.33c.93-.3 1.55-.67 1.59-1.31v-3.36a10.79 10.79 0 002.55-.31v2.21c0 .56.5.92 1.22 1.2a9.5 9.5 0 003.26.51 10.2 10.2 0 002.73-.35c.94-.28 1.55-.65 1.59-1.3v-1.92.37l5 2.72-23 3.23zm37.23 22.31c-.09 0-23.37 3.27-23.37 3.27V113.2l23.37-3.28s-.05 17.52-.04 17.64z" fill="#02743b"/><path d="M101.338 84.42c0-.56-.5-.92-1.22-1.2a9.5 9.5 0 00-3.26-.51 9.86 9.86 0 00-2.73.35c-.93.28-1.54.65-1.58 1.29v1.38l-5.42.77a.19.19 0 00-.1 0v.05a.14.14 0 010 .07v18.19a.51.51 0 000 .13l3.83 2.09 10.7 5.81a.33.33 0 00.13 0l24-3.37a.3.3 0 00.11 0 .11.11 0 000-.06v-18.2a.23.23 0 000-.12l-6-3.29v-1.14c0-.56-.5-.92-1.22-1.2a9.56 9.56 0 00-3.27-.51h-.72l-1.85-1v-.94c0-.56-.5-.91-1.22-1.2a9.83 9.83 0 00-3.26-.51 10.15 10.15 0 00-2.73.34c-.93.29-1.55.66-1.59 1.3v1.19l-2.55.36" fill="#1ea551"/><path d="M125.938 91.34a.23.23 0 000-.12l-6-3.29v-1.14c0-.56-.5-.92-1.22-1.2a9.56 9.56 0 00-3.27-.51h-.72l-1.85-1v.66l.83.46a7.34 7.34 0 00-.84.17v-2.23c0-.56-.5-.91-1.22-1.2a9.83 9.83 0 00-3.26-.51 10.15 10.15 0 00-2.73.34c-.93.29-1.55.66-1.59 1.3v1.19l-2.55.36v.6l2.54-.35v1.52a9.85 9.85 0 00-2.69.34h.14v-2.31c0-.56-.5-.92-1.22-1.2a9.5 9.5 0 00-3.26-.51 9.86 9.86 0 00-2.73.35c-.93.28-1.54.65-1.58 1.29v1.38l-5.42.77a.19.19 0 00-.1 0v.05a.14.14 0 010 .07v18.19a.51.51 0 000 .13l3.83 2.09 10.7 5.81h.13l24-3.37a.3.3 0 00.11 0 .11.11 0 000-.06v-18.2zm-10.68-5.81a9 9 0 013.05.47c.67.25.87.55.84.65-.03.1-.27.49-1.16.74a9.53 9.53 0 01-2.56.32 9.05 9.05 0 01-3.05-.47c-.63-.24-.84-.52-.84-.63 0-.12.28-.49 1.17-.74a9.51 9.51 0 012.55-.34zm-9.6-3.31a9.53 9.53 0 012.56-.32 9 9 0 013 .46c.67.25.87.56.85.65-.02.09-.28.49-1.17.74a9.66 9.66 0 01-2.57.32 8.75 8.75 0 01-3-.47c-.63-.23-.85-.52-.84-.62-.03-.16.28-.52 1.22-.76zm-4.31 5a10 10 0 012.56-.32 9.09 9.09 0 013 .47c.66.25.87.55.84.65-.03.1-.28.49-1.17.74a9.53 9.53 0 01-2.56.32 9.09 9.09 0 01-3.05-.47c-.63-.24-.84-.52-.83-.63.02-.09.32-.47 1.21-.72zm-8.22-2.89c0-.12.29-.5 1.18-.74a9.13 9.13 0 012.55-.32 9.37 9.37 0 013.05.46c.66.25.86.56.84.65-.02.09-.27.49-1.16.74a9.66 9.66 0 01-2.57.32 9.09 9.09 0 01-3-.47c-.63-.23-.84-.51-.84-.62zm-5 2.61l4.43-.63v1.37c0 .55.51.91 1.23 1.19a9.42 9.42 0 003.26.51 10.08 10.08 0 002.58-.31v2.21c0 .56.5.91 1.21 1.2a9.59 9.59 0 003.26.5 10.29 10.29 0 002.74-.33c.93-.3 1.55-.66 1.59-1.31v-3.36a.09.09 0 010-.05 10.31 10.31 0 002.55-.3v2.21c0 .56.5.92 1.22 1.19a9.25 9.25 0 003.26.52 10.2 10.2 0 002.73-.35c.94-.28 1.55-.65 1.59-1.31v-1.91.37l5 2.71-23 3.23zm37.23 22.3c-.09.06-23.37 3.28-23.37 3.28V94.93l23.37-3.28s-.05 17.52-.04 17.63z" fill="#02743b"/><path d="M101.338 47.88c0-.56-.5-.92-1.22-1.2a9.5 9.5 0 00-3.26-.51 9.86 9.86 0 00-2.73.35c-.93.28-1.54.65-1.58 1.29v1.38l-5.42.76h-.1V50a.14.14 0 010 .06v18.19a.51.51 0 000 .13l3.78 2.44 10.7 5.81a.31.31 0 00.13 0l24-3.36h.11a.11.11 0 000-.06V54.96a.22.22 0 000-.12.1.1 0 000-.05l-6-3.29v-1.14c0-.55-.5-.91-1.22-1.2a9.81 9.81 0 00-3.27-.5h-.72l-1.85-1v-.93c0-.56-.5-.91-1.22-1.2a9.83 9.83 0 00-3.26-.51 10.15 10.15 0 00-2.73.34c-.93.29-1.55.66-1.59 1.3v1.19l-2.55.36" fill="#1ea551"/><path d="M125.938 54.82a.22.22 0 000-.12.1.1 0 000-.05l-6-3.29v-1.14c0-.55-.5-.91-1.22-1.2a9.81 9.81 0 00-3.27-.5h-.72l-1.85-1v.67l.83.45q-.43.08-.84.18v-2.23c0-.56-.5-.91-1.22-1.2a9.83 9.83 0 00-3.26-.51 10.15 10.15 0 00-2.73.34c-.93.29-1.55.66-1.59 1.3v1.19l-2.55.36v.6l2.54-.35v1.52a9.85 9.85 0 00-2.69.34h.14v-2.24c0-.56-.5-.92-1.22-1.2a9.5 9.5 0 00-3.26-.51 9.86 9.86 0 00-2.73.35c-.93.28-1.54.65-1.58 1.29v1.38l-5.42.76h-.1v.05a.14.14 0 010 .06v18.19a.51.51 0 000 .13l3.61 2.38 10.7 5.81a.31.31 0 00.13 0l24-3.36h.11a.11.11 0 000-.06V54.96zm-10.68-5.81a9 9 0 013.05.47c.67.25.87.55.84.64-.03.09-.27.5-1.16.75a9.53 9.53 0 01-2.56.32 9.05 9.05 0 01-3.05-.47c-.63-.24-.84-.52-.84-.63 0-.12.28-.49 1.17-.74a9.51 9.51 0 012.55-.36zm-9.6-3.32a10 10 0 012.56-.32 9 9 0 013 .47c.67.25.87.56.85.65-.02.09-.28.49-1.17.74a9.66 9.66 0 01-2.57.32 8.75 8.75 0 01-3-.47c-.63-.23-.85-.52-.84-.63-.03-.15.28-.53 1.22-.78zm-4.31 5.05a9.59 9.59 0 012.56-.32 9.09 9.09 0 013 .47c.66.25.87.55.84.65-.03.1-.28.49-1.17.74a9.55 9.55 0 01-2.56.31 8.86 8.86 0 01-3.05-.46c-.63-.24-.84-.52-.83-.63.02-.15.32-.53 1.21-.78zm-8.22-2.92c0-.11.29-.49 1.18-.73a9.51 9.51 0 012.55-.32 9.11 9.11 0 013.05.46c.66.25.86.55.84.65-.02.1-.27.49-1.16.74a9.27 9.27 0 01-2.57.32 9.09 9.09 0 01-3-.47c-.63-.24-.84-.52-.84-.62zm-5 2.61l4.43-.63v1.37c0 .55.51.91 1.23 1.19a9.42 9.42 0 003.26.51 10.54 10.54 0 002.58-.31v2.26c0 .56.5.91 1.21 1.2a9.59 9.59 0 003.26.5 9.89 9.89 0 002.74-.34c.93-.29 1.55-.65 1.59-1.3v-3.36a10.31 10.31 0 002.55-.3v2.2c0 .56.5.92 1.22 1.19a9.25 9.25 0 003.26.52 10.2 10.2 0 002.73-.35c.94-.28 1.55-.65 1.59-1.3v-1.92.37l5 2.72-23 3.23zm37.23 22.3c-.09.06-23.37 3.28-23.37 3.28V58.42l23.37-3.28s-.05 17.49-.04 17.6z" fill="#02743b"/><path d="M101.338 29.61c0-.56-.5-.92-1.22-1.2a9.5 9.5 0 00-3.26-.51 9.86 9.86 0 00-2.73.35c-.93.28-1.54.65-1.58 1.29v1.38l-5.42.76h-.1a.14.14 0 010 .06v18.19a.51.51 0 000 .13l3.83 2.09 10.7 5.81h.13l24-3.37h.11a.11.11 0 000-.06V36.34a.22.22 0 000-.12.1.1 0 000-.05l-6-3.29v-1.06c0-.55-.5-.91-1.22-1.2a9.81 9.81 0 00-3.27-.5h-.72l-1.85-1v-.93c0-.56-.5-.91-1.22-1.2a9.83 9.83 0 00-3.26-.51 10.15 10.15 0 00-2.73.34c-.93.29-1.55.66-1.59 1.3v1.2l-2.55.35" fill="#1ea551"/><path d="M125.938 36.53a.22.22 0 000-.12.1.1 0 000-.05l-6-3.29v-1.25c0-.55-.5-.91-1.22-1.2a9.81 9.81 0 00-3.27-.5h-.72l-1.85-1v.7l.83.45q-.43.07-.84.18v-2.23c0-.56-.5-.91-1.22-1.2a9.83 9.83 0 00-3.26-.51 10.15 10.15 0 00-2.73.34c-.93.29-1.55.66-1.59 1.3v1.2l-2.55.35v.6l2.54-.35v1.52a9.85 9.85 0 00-2.69.34h.14v-2.24c0-.56-.5-.92-1.22-1.2a9.5 9.5 0 00-3.26-.51 9.86 9.86 0 00-2.73.35c-.93.28-1.54.65-1.58 1.29v1.38l-5.42.76h-.1a.14.14 0 010 .06v18.19a.51.51 0 000 .13l3.83 2.09 10.7 5.81h.13l24-3.37h.11a.11.11 0 000-.06V36.3zm-10.68-5.81a9 9 0 013.05.47c.67.24.87.55.84.64-.03.09-.27.5-1.16.75a9.53 9.53 0 01-2.56.32 9.05 9.05 0 01-3.05-.47c-.63-.24-.84-.52-.84-.63 0-.12.28-.49 1.17-.74a9.51 9.51 0 012.55-.34zm-9.6-3.32a10 10 0 012.56-.32 9 9 0 013 .47c.67.25.87.56.85.65-.02.09-.28.49-1.17.74a9.66 9.66 0 01-2.57.32 8.75 8.75 0 01-3-.47c-.63-.23-.85-.52-.84-.63-.03-.13.28-.51 1.22-.76zm-4.31 5a9.59 9.59 0 012.56-.32 9.09 9.09 0 013 .47c.66.25.87.55.84.65-.03.1-.28.49-1.17.74a9.55 9.55 0 01-2.56.31 8.86 8.86 0 01-3.05-.46c-.63-.24-.84-.52-.83-.63.02-.08.32-.47 1.21-.71zm-8.22-2.89c0-.12.29-.49 1.18-.73a10.33 10.33 0 015.6.14c.66.25.86.55.84.65-.02.1-.27.49-1.16.74a9.66 9.66 0 01-2.57.32 9.09 9.09 0 01-3-.47c-.63-.24-.84-.52-.84-.62zm-5 2.61l4.43-.63v1.37c0 .56.51.92 1.23 1.2a9.42 9.42 0 003.26.51 10.54 10.54 0 002.58-.31v2.21c0 .56.5.91 1.21 1.2a9.59 9.59 0 003.26.5 10.28 10.28 0 002.74-.34c.93-.29 1.55-.66 1.59-1.3v-3.36a.09.09 0 010-.05 10.31 10.31 0 002.55-.3v2.2c0 .56.5.91 1.22 1.19a9.26 9.26 0 003.26.51 10.21 10.21 0 002.73-.34c.94-.28 1.55-.65 1.59-1.31v-1.91.37l5 2.71-23 3.23zm37.23 22.3c-.09.06-23.37 3.28-23.37 3.28V40.11l23.37-3.28s-.05 17.53-.04 17.64z" fill="#02743b"/><path d="M101.338 11.34c0-.56-.5-.92-1.22-1.2a9.5 9.5 0 00-3.26-.51 9.86 9.86 0 00-2.73.35c-.93.28-1.54.65-1.58 1.29v1.38l-5.42.76h-.1a.14.14 0 010 .07v18.19a.59.59 0 000 .13l3.83 2.09 10.7 5.81h.13l24-3.37h.11a.11.11 0 000-.06V18.03a.2.2 0 000-.11v-.06l-6-3.29v-1c0-.55-.5-.91-1.22-1.2a9.81 9.81 0 00-3.27-.5h-.72l-1.85-1v-.94c0-.56-.5-.91-1.22-1.2a9.83 9.83 0 00-3.26-.51 10.15 10.15 0 00-2.73.34c-.93.29-1.55.66-1.59 1.3v1.19l-2.55.36" fill="#1ea551"/><path d="M125.938 18.25a.2.2 0 000-.11v-.06l-6-3.29v-1.22c0-.55-.5-.91-1.22-1.2a9.81 9.81 0 00-3.27-.5h-.72l-1.85-1v.66l.83.45q-.43.08-.84.18V9.93c0-.56-.5-.91-1.22-1.2a9.83 9.83 0 00-3.26-.51 10.15 10.15 0 00-2.73.34c-.93.29-1.55.66-1.59 1.3v1.19l-2.55.36v.6l2.54-.35v1.52a9.85 9.85 0 00-2.69.34h.14v-2.18c0-.56-.5-.92-1.22-1.2a9.5 9.5 0 00-3.26-.51 9.86 9.86 0 00-2.73.35c-.93.28-1.54.65-1.58 1.29v1.38l-5.42.76h-.1a.14.14 0 010 .07v18.19a.59.59 0 000 .13l3.83 2.09 10.7 5.81h.13l24-3.37h.11a.11.11 0 000-.06V18.03zm-10.68-5.8a9 9 0 013.05.47c.67.25.87.55.84.64-.03.09-.27.5-1.16.75a9.53 9.53 0 01-2.56.32 9.05 9.05 0 01-3.05-.47c-.63-.24-.84-.52-.84-.63 0-.12.28-.49 1.17-.74a9.51 9.51 0 012.55-.34zm-9.6-3.31a9.52 9.52 0 012.56-.33 9 9 0 013 .47c.67.25.87.56.85.65-.02.09-.28.49-1.17.74a9.66 9.66 0 01-2.57.32 8.75 8.75 0 01-3-.47c-.63-.23-.85-.52-.84-.63-.03-.13.28-.51 1.22-.75zm-4.31 5a9.59 9.59 0 012.56-.32 9.09 9.09 0 013 .47c.66.25.87.55.84.65-.03.1-.28.49-1.17.74a9.55 9.55 0 01-2.56.31 8.86 8.86 0 01-3.05-.46c-.63-.24-.84-.52-.83-.63.02-.08.32-.47 1.21-.72zm-8.22-2.89c0-.11.29-.49 1.18-.73a10.33 10.33 0 015.6.14c.66.25.86.55.84.65-.02.1-.27.49-1.16.74a9.66 9.66 0 01-2.57.32 9.09 9.09 0 01-3-.47c-.63-.24-.84-.52-.84-.62zm-5 2.61l4.43-.63v1.37c0 .56.51.92 1.23 1.2a9.42 9.42 0 003.26.51 10.54 10.54 0 002.58-.31v2.21c0 .56.5.91 1.21 1.2a9.59 9.59 0 003.26.5 9.89 9.89 0 002.74-.34c.93-.29 1.55-.66 1.59-1.3v-3.36a10.31 10.31 0 002.55-.3v2.21c0 .56.5.91 1.22 1.19a9.25 9.25 0 003.26.52 10.2 10.2 0 002.73-.35c.94-.28 1.55-.65 1.59-1.31v-1.91.37l5 2.71-23 3.23zm37.23 22.3c-.09.06-23.37 3.28-23.37 3.28V21.85l23.37-3.28s-.05 17.52-.04 17.63z" fill="#02743b"/><path d="M77.368 106.08c0-.56-.5-.91-1.23-1.2a9.47 9.47 0 00-3.26-.5 9.74 9.74 0 00-2.72.34c-.93.28-1.55.65-1.59 1.29v1.39l-5.41.76a.45.45 0 00-.11 0v18.32a.28.28 0 000 .13v.05l3.83 2.09 10.65 6.07a.28.28 0 00.12 0l24-3.37a.25.25 0 00.11 0v-18.36a.37.37 0 000-.12v-.06l-6.05-3.29v-1.14c0-.56-.5-.92-1.22-1.2a9.54 9.54 0 00-3.26-.51h-.72l-1.85-1v-.94c0-.55-.5-.91-1.22-1.2a9.74 9.74 0 00-3.26-.51 10 10 0 00-2.72.35c-.94.28-1.55.65-1.6 1.29v1.06l-2.54.36" fill="#1ea551"/><path d="M101.968 112.99a.37.37 0 000-.12v-.06l-6.05-3.29v-1.14c0-.56-.5-.92-1.22-1.2a9.54 9.54 0 00-3.26-.51h-.72l-1.85-1v.66l.84.46a6.93 6.93 0 00-.84.17v-2.23c0-.55-.5-.91-1.22-1.2a9.74 9.74 0 00-3.26-.51 10 10 0 00-2.72.35c-.94.28-1.55.65-1.6 1.29v1.16l-2.54.36v.6l2.55-.36v1.53a10.26 10.26 0 00-2.69.34h.14v-2.23c0-.56-.5-.91-1.23-1.2a9.47 9.47 0 00-3.26-.5 9.74 9.74 0 00-2.72.34c-.93.28-1.55.65-1.59 1.29v1.39l-5.41.76a.45.45 0 00-.11 0v18.32a.28.28 0 000 .13v.05l3.83 2.09 10.49 6.09a.28.28 0 00.12 0l24-3.37a.25.25 0 00.11 0v-18.36zm-10.68-5.8a9 9 0 013 .46c.67.25.87.55.85.65-.02.1-.27.49-1.17.74a9.53 9.53 0 01-2.56.32 8.85 8.85 0 01-3-.47c-.63-.24-.84-.51-.84-.62 0-.12.29-.49 1.18-.73a9.08 9.08 0 012.54-.35zm-9.58-3.32a9.59 9.59 0 012.56-.32 8.85 8.85 0 013.05.47c.66.25.86.55.84.64-.02.09-.28.5-1.17.75a9.58 9.58 0 01-2.57.31 8.84 8.84 0 01-3-.46c-.63-.24-.84-.52-.84-.63-.1-.14.21-.52 1.13-.76zm-4.3 5a10 10 0 012.56-.32 9 9 0 013 .47c.67.25.87.56.85.65-.02.09-.28.49-1.17.75a10.11 10.11 0 01-2.57.31 9 9 0 01-3-.46c-.63-.24-.85-.53-.84-.63-.06-.1.25-.48 1.14-.73zm-8.22-2.89c0-.12.28-.5 1.17-.74a9.51 9.51 0 012.55-.32 9.28 9.28 0 013.05.46c.66.25.87.56.84.65-.03.09-.27.49-1.16.74a9.21 9.21 0 01-2.57.33 8.77 8.77 0 01-3-.48c-.64-.23-.84-.51-.84-.62zm-5.05 2.61l4.44-.62v1.36c0 .56.5.91 1.22 1.19a9.5 9.5 0 003.26.51 10.16 10.16 0 002.59-.31v2.21c0 .56.5.92 1.22 1.2a9.5 9.5 0 003.26.51 10.15 10.15 0 002.73-.34c.94-.29 1.56-.66 1.59-1.31v-3.35a10.74 10.74 0 002.55-.3v2.2c0 .55.51.91 1.23 1.19a9.42 9.42 0 003.26.51 10.2 10.2 0 002.73-.35c.93-.28 1.55-.65 1.59-1.3v-1.55l5 2.72-23 3.23zm37.23 22.31c-.08 0-23.37 3.28-23.37 3.28v-17.6l23.37-3.28s-.04 17.52-.03 17.64z" fill="#02743b"/><path d="M77.368 69.54c0-.56-.5-.91-1.23-1.2a9.47 9.47 0 00-3.26-.5 9.74 9.74 0 00-2.72.34c-.93.28-1.55.65-1.59 1.29v1.39l-5.41.76a.45.45 0 00-.11 0v18.25a.28.28 0 000 .13v.05l3.83 2.09 10.69 5.81a.27.27 0 00.12 0l24-3.37a.25.25 0 00.11 0v-18.3a.43.43 0 000-.12v-.05l-6.05-3.3v-1.14c0-.56-.5-.92-1.22-1.2a9.54 9.54 0 00-3.26-.51h-.72l-1.85-1v-.94c0-.55-.5-.91-1.22-1.2a9.74 9.74 0 00-3.26-.51 10 10 0 00-2.72.35c-.94.28-1.55.65-1.6 1.29v1.21l-2.54.36" fill="#1ea551"/><path d="M101.968 76.45a.43.43 0 000-.12v-.05l-6.05-3.3v-1.14c0-.56-.5-.92-1.22-1.2a9.54 9.54 0 00-3.26-.51h-.72l-1.85-1v.66l.84.46a6.93 6.93 0 00-.84.17v-2.23c0-.55-.5-.91-1.22-1.2a9.74 9.74 0 00-3.26-.51 10 10 0 00-2.72.35c-.94.28-1.55.65-1.6 1.29v1.21l-2.54.36v.6l2.55-.36v1.52a10.26 10.26 0 00-2.69.34h.14v-2.23c0-.56-.5-.91-1.23-1.2a9.47 9.47 0 00-3.26-.5 9.74 9.74 0 00-2.72.34c-.93.28-1.55.65-1.59 1.29v1.39l-5.41.76a.45.45 0 00-.11 0v18.25a.28.28 0 000 .13v.05l3.83 2.09 10.69 5.81a.27.27 0 00.12 0l24-3.37a.25.25 0 00.11 0V76.3zm-10.68-5.8a9 9 0 013 .46c.67.25.87.55.85.65-.02.1-.27.49-1.17.74a9.53 9.53 0 01-2.56.32 9.09 9.09 0 01-3-.47c-.63-.24-.84-.52-.84-.62 0-.12.29-.49 1.18-.73a9.08 9.08 0 012.54-.35zm-9.58-3.32a9.59 9.59 0 012.56-.32 8.85 8.85 0 013.05.47c.66.24.86.55.84.64-.02.09-.28.5-1.17.75a10 10 0 01-2.57.31 8.84 8.84 0 01-3-.46c-.63-.24-.84-.53-.84-.63-.1-.14.21-.52 1.13-.76zm-4.3 5.05a9.52 9.52 0 012.56-.33 9 9 0 013 .47c.67.25.87.55.85.65-.02.1-.28.49-1.17.74a9.66 9.66 0 01-2.57.32 9.26 9.26 0 01-3-.46c-.63-.24-.85-.53-.84-.63-.06-.14.25-.52 1.14-.76zm-8.22-2.9c0-.12.28-.5 1.17-.74a9.51 9.51 0 012.55-.32 9.28 9.28 0 013.05.46c.66.25.87.55.84.65-.03.1-.27.49-1.16.74a9.22 9.22 0 01-2.57.32 8.79 8.79 0 01-3-.47c-.64-.23-.84-.51-.84-.62zm-5.05 2.61l4.44-.62v1.35c0 .56.5.91 1.22 1.19a9.5 9.5 0 003.26.51 10.16 10.16 0 002.59-.31v2.21c0 .56.5.92 1.22 1.2a9.51 9.51 0 003.26.5 10.17 10.17 0 002.73-.33c.94-.3 1.56-.66 1.59-1.31v-3.35a10.74 10.74 0 002.55-.3v2.2c0 .56.51.92 1.23 1.2a9.42 9.42 0 003.26.51 10.63 10.63 0 002.73-.34c.93-.29 1.55-.66 1.59-1.31v-1.55l5 2.72-23 3.23zm37.23 22.31c-.08 0-23.37 3.27-23.37 3.27V80.08l23.37-3.26s-.04 17.46-.03 17.58z" fill="#02743b"/><path d="M77.368 14.73c0-.56-.5-.91-1.23-1.2a9.46 9.46 0 00-3.26-.51 9.74 9.74 0 00-2.72.35c-.93.28-1.55.65-1.59 1.29v1.38l-5.41.77a.45.45 0 00-.11 0v18.25a.31.31 0 000 .13l3.83 2.09 10.69 5.81a.27.27 0 00.12 0l24-3.37a.25.25 0 00.11 0V21.46a.43.43 0 000-.12v-.05L95.748 18v-1.05c0-.55-.5-.91-1.22-1.19a9.54 9.54 0 00-3.26-.51h-.72l-1.85-1v-.93c0-.55-.5-.91-1.22-1.2a9.74 9.74 0 00-3.26-.51 10 10 0 00-2.72.35c-.94.28-1.55.65-1.6 1.29v1.2l-2.54.36" fill="#1ea551"/><path d="M101.968 21.64a.43.43 0 000-.12v-.05l-6.05-3.29v-1.23c0-.55-.5-.91-1.22-1.19a9.54 9.54 0 00-3.26-.51h-.72l-1.85-1v.66l.84.46a6.93 6.93 0 00-.84.17v-2.22c0-.55-.5-.91-1.22-1.2a9.74 9.74 0 00-3.26-.51 10 10 0 00-2.72.35c-.94.28-1.55.65-1.6 1.29v1.2l-2.54.36v.6l2.55-.36v1.52a10.26 10.26 0 00-2.69.34h.14v-2.23c0-.56-.5-.91-1.23-1.2a9.46 9.46 0 00-3.26-.51 9.74 9.74 0 00-2.72.35c-.93.28-1.55.65-1.59 1.29v1.38l-5.41.77a.45.45 0 00-.11 0v18.25a.31.31 0 000 .13l3.83 2.09 10.69 5.81a.27.27 0 00.12 0l24-3.37a.25.25 0 00.11 0V21.41zm-10.68-5.82a9 9 0 013 .47c.67.25.87.55.85.64-.02.09-.27.5-1.17.75a9.53 9.53 0 01-2.56.32 9.09 9.09 0 01-3-.47c-.63-.24-.84-.52-.84-.62 0-.12.29-.49 1.18-.73a9.06 9.06 0 012.54-.36zm-9.58-3.3a9.57 9.57 0 012.56-.33 8.83 8.83 0 013.05.48c.66.24.86.55.84.64-.02.09-.28.5-1.17.74a9.56 9.56 0 01-2.57.32 8.84 8.84 0 01-3-.46c-.63-.24-.84-.53-.84-.64-.1-.13.21-.51 1.13-.75zm-4.3 5a10 10 0 012.56-.32 9 9 0 013 .47c.67.25.87.55.85.65-.02.1-.28.49-1.17.74a9.68 9.68 0 01-2.57.31 8.53 8.53 0 01-3-.46c-.63-.23-.85-.52-.84-.63-.06-.09.25-.46 1.14-.72zm-8.22-2.89c0-.12.28-.5 1.17-.74a9.13 9.13 0 012.55-.32 9 9 0 013.05.46c.66.25.87.55.84.65-.03.1-.27.49-1.16.74a9.22 9.22 0 01-2.57.32 8.79 8.79 0 01-3-.47c-.64-.24-.84-.51-.84-.62zm-5.05 2.61l4.44-.62v1.4c0 .56.5.91 1.22 1.19a9.5 9.5 0 003.26.51 10.16 10.16 0 002.59-.31v2.21c0 .56.5.91 1.22 1.2a9.51 9.51 0 003.26.5 10.17 10.17 0 002.73-.33c.94-.3 1.56-.66 1.59-1.31v-3.35a10.73 10.73 0 002.55-.31v2.21c0 .56.51.92 1.23 1.2a9.42 9.42 0 003.26.51 10.2 10.2 0 002.73-.35c.93-.28 1.55-.65 1.59-1.31v-1.52l5 2.72-23 3.23zm37.23 22.31c-.08 0-23.37 3.27-23.37 3.27V25.23l23.37-3.28s-.04 17.52-.03 17.64z" fill="#02743b"/><path d="M53.408 109.45c0-.56-.5-.91-1.22-1.2a11 11 0 00-6-.16c-.93.28-1.54.66-1.59 1.3v1.43l-5.41.76h-.11v.05a.14.14 0 000 .07v18.19a.27.27 0 000 .13.1.1 0 000 .05l3.83 2.09 10.69 5.81a.28.28 0 00.13 0l23.98-3.15a.24.24 0 00.1 0v-18.25a.5.5 0 000-.12v-.06l-6-3.3v-1.13c0-.56-.5-.91-1.23-1.2a9.47 9.47 0 00-3.26-.5h-.72l-1.85-1v-.94c0-.56-.51-.92-1.22-1.2a9.34 9.34 0 00-3.26-.51 10.15 10.15 0 00-2.73.34c-.93.29-1.55.66-1.6 1.3v1.19l-2.54.36" fill="#1ea551"/><path d="M78.008 116.36a.5.5 0 000-.12v-.06l-6-3.3v-1.13c0-.56-.5-.91-1.23-1.2a9.47 9.47 0 00-3.26-.5h-.72l-1.85-1v.67l.83.45a7.34 7.34 0 00-.84.17v-2.23c0-.56-.51-.92-1.22-1.2a9.34 9.34 0 00-3.26-.51 10.15 10.15 0 00-2.73.34c-.93.29-1.55.66-1.6 1.3v1.19l-2.54.36v.6l2.54-.36v1.53a10.17 10.17 0 00-2.68.35h.13v-2.24c0-.56-.5-.91-1.22-1.2a11 11 0 00-6-.16c-.93.28-1.54.66-1.59 1.3v1.41l-5.41.76h-.11v.05a.14.14 0 000 .07v18.19a.27.27 0 000 .13.1.1 0 000 .05l3.83 2.09 10.69 5.81a.28.28 0 00.13 0l23.81-3.15a.24.24 0 00.1 0v-18.25zm-10.68-5.8a9 9 0 013 .46c.66.25.86.56.84.65-.02.09-.27.49-1.16.74a9.27 9.27 0 01-2.57.32 8.79 8.79 0 01-3-.47c-.64-.23-.85-.51-.85-.62 0-.11.29-.49 1.18-.73a9.51 9.51 0 012.56-.35zm-9.6-3.32a9.48 9.48 0 012.56-.32 9.07 9.07 0 013 .47c.67.25.87.55.84.65-.03.1-.27.49-1.17.74a9.55 9.55 0 01-2.56.31 8.63 8.63 0 01-3.05-.46c-.63-.24-.84-.52-.83-.63.01-.18.32-.52 1.19-.76zm-4.31 5.05a9.59 9.59 0 012.56-.32 8.85 8.85 0 013.05.47c.66.24.86.55.84.65-.02.1-.28.48-1.17.74a10 10 0 01-2.56.31 8.86 8.86 0 01-3-.46c-.63-.24-.84-.52-.84-.63-.08-.14.23-.52 1.12-.76zm-8.22-2.9c0-.12.28-.49 1.17-.74a9.53 9.53 0 012.56-.32 9 9 0 013 .47c.67.25.87.55.85.64-.02.09-.28.5-1.17.75a9.53 9.53 0 01-2.56.32 9.05 9.05 0 01-3-.47c-.63-.24-.84-.52-.84-.62zm-5 2.62l4.44-.63v1.37c0 .56.51.92 1.22 1.19a9.25 9.25 0 003.26.52 10.57 10.57 0 002.59-.31v2.2c0 .55.5.91 1.22 1.19a9.54 9.54 0 003.26.51 10.15 10.15 0 002.73-.34c.94-.29 1.56-.66 1.6-1.31V113a10.17 10.17 0 002.54-.3v2.23c0 .56.5.91 1.22 1.19a9.5 9.5 0 003.26.51 10.21 10.21 0 002.73-.34c.93-.29 1.55-.66 1.59-1.31v-1.55l5 2.72-23 3.23zm37.23 22.3c-.08.06-23.37 3.28-23.37 3.28V120l23.37-3.29s-.06 17.49-.05 17.6z" fill="#02743b"/><path d="M53.408 72.91c0-.56-.5-.91-1.22-1.2a9.8 9.8 0 00-3.26-.5 10.15 10.15 0 00-2.73.34c-.93.28-1.54.66-1.59 1.3v1.38l-5.41.76h-.11a.14.14 0 000 .07v18.19a.27.27 0 000 .13l3.83 2.09 10.69 5.82a.28.28 0 00.13 0l24-3.37a.14.14 0 00.1 0V79.67a.5.5 0 000-.12v-.05l-6-3.29v-1.15c0-.56-.5-.92-1.23-1.2a9.46 9.46 0 00-3.26-.51h-.72l-1.85-1v-.94c0-.55-.51-.91-1.22-1.19a9.34 9.34 0 00-3.26-.51 10.15 10.15 0 00-2.73.34c-.93.28-1.55.65-1.6 1.3v1.19l-2.54.36" fill="#1ea551"/><path d="M78.008 79.82a.5.5 0 000-.12v-.05l-6-3.29v-1.15c0-.56-.5-.92-1.23-1.2a9.46 9.46 0 00-3.26-.51h-.72l-1.85-1v.66l.83.46c-.29 0-.57.1-.84.17v-2.23c0-.55-.51-.91-1.22-1.19a9.34 9.34 0 00-3.26-.51 10.15 10.15 0 00-2.73.34c-.93.28-1.55.65-1.6 1.3v1.19l-2.54.36v.6l2.54-.36v1.53a9.78 9.78 0 00-2.68.34h.13v-2.23c0-.56-.5-.91-1.22-1.2a9.8 9.8 0 00-3.26-.5 10.15 10.15 0 00-2.73.34c-.93.28-1.54.66-1.59 1.3v1.38l-5.41.76h-.11a.14.14 0 000 .07v18.19a.27.27 0 000 .13l3.83 2.09 10.69 5.82a.28.28 0 00.13 0l24-3.37a.14.14 0 00.1 0V79.69zm-10.68-5.8a9.28 9.28 0 013 .46c.66.25.86.55.84.65-.02.1-.27.49-1.16.74a9.26 9.26 0 01-2.57.33 8.77 8.77 0 01-3-.48c-.64-.24-.85-.51-.85-.62 0-.12.29-.5 1.18-.74a9.51 9.51 0 012.56-.34zm-9.6-3.32a9.48 9.48 0 012.56-.32 9.07 9.07 0 013 .47c.67.25.87.55.84.64-.03.09-.27.5-1.17.75a9.55 9.55 0 01-2.56.31 8.86 8.86 0 01-3.05-.46c-.63-.24-.84-.52-.83-.63.01-.14.32-.52 1.19-.76zm-4.31 5.05a9.59 9.59 0 012.56-.32 8.85 8.85 0 013.05.47c.66.24.86.55.84.64-.02.09-.28.5-1.17.74a9.53 9.53 0 01-2.56.32 8.61 8.61 0 01-3-.47c-.63-.23-.84-.52-.84-.62-.08-.14.23-.52 1.12-.76zm-8.22-2.93c0-.12.28-.49 1.17-.74a9.53 9.53 0 012.56-.32 9.26 9.26 0 013 .46c.67.26.87.56.85.65-.02.09-.28.5-1.17.74a10.11 10.11 0 01-5.61-.14c-.63-.24-.84-.52-.84-.62zm-5 2.6l4.44-.62v1.37c0 .56.51.92 1.22 1.19a9.26 9.26 0 003.26.51 10.58 10.58 0 002.59-.3v2.2c0 .55.5.91 1.22 1.19a9.54 9.54 0 003.26.51 10.15 10.15 0 002.73-.34c.94-.29 1.56-.66 1.6-1.31v-3.35a10.17 10.17 0 002.54-.3v2.23c0 .57.5.92 1.22 1.2a9.5 9.5 0 003.26.51 10.21 10.21 0 002.73-.34c.93-.29 1.55-.66 1.59-1.31v-1.55l5 2.72-23 3.23zm37.18 22.4c-.08.06-23.37 3.27-23.37 3.27V83.5l23.37-3.28s-.01 17.44 0 17.6z" fill="#02743b"/><path d="M53.408 18.1c0-.56-.5-.91-1.22-1.2a9.55 9.55 0 00-3.26-.5 9.77 9.77 0 00-2.73.34c-.93.28-1.54.65-1.59 1.3v1.38l-5.41.76h-.11v.05a.14.14 0 000 .07v18.19a.27.27 0 000 .13l3.83 2.09 10.65 6.11a.28.28 0 00.13 0l24-3.37a.14.14 0 00.1 0 .64.64 0 000-.07V25.19a.5.5 0 000-.12l-6-3.3v-1.44c0-.56-.5-.92-1.23-1.2a9.46 9.46 0 00-3.26-.51h-.72l-1.85-1v-.94c0-.55-.51-.91-1.22-1.19a9.57 9.57 0 00-3.26-.52 10.14 10.14 0 00-2.73.35c-.93.28-1.55.65-1.6 1.29v1.21l-2.54.36" fill="#1ea551"/><path d="M78.008 25.01a.5.5 0 000-.12l-6-3.3v-1.26c0-.56-.5-.92-1.23-1.2a9.46 9.46 0 00-3.26-.51h-.72l-1.85-1v.66l.83.46c-.29 0-.57.1-.84.17v-2.23c0-.55-.51-.91-1.22-1.19a9.57 9.57 0 00-3.26-.52 10.14 10.14 0 00-2.73.35c-.93.28-1.55.65-1.6 1.29v1.21l-2.54.36v.64l2.54-.36v1.53a10.17 10.17 0 00-2.68.35h.13v-2.23c0-.56-.5-.91-1.22-1.2a9.55 9.55 0 00-3.26-.5 9.77 9.77 0 00-2.73.34c-.93.28-1.54.65-1.59 1.3v1.38l-5.41.76h-.11v.05a.14.14 0 000 .07V38.5a.27.27 0 000 .13l3.83 2.09 10.48 6.1a.28.28 0 00.13 0l24-3.37a.14.14 0 00.1 0 .64.64 0 000-.07V25.19zm-10.68-5.8a9 9 0 013 .46c.66.25.86.55.84.65-.02.1-.27.49-1.16.74a9.66 9.66 0 01-2.57.32 8.79 8.79 0 01-3-.47c-.64-.24-.85-.52-.85-.62 0-.11.29-.49 1.18-.73a9.13 9.13 0 012.56-.35zm-9.62-3.32a9.48 9.48 0 012.56-.32 8.83 8.83 0 013 .47c.67.25.87.55.84.64-.03.09-.27.5-1.17.75a9.55 9.55 0 01-2.56.31 8.86 8.86 0 01-3.05-.46c-.63-.24-.84-.52-.83-.63.03-.14.34-.52 1.21-.76zm-4.31 5.05a9.57 9.57 0 012.56-.33 8.83 8.83 0 013.05.48c.66.25.86.55.84.64-.02.09-.28.49-1.17.74a9.53 9.53 0 01-2.56.32 8.61 8.61 0 01-3-.47c-.63-.23-.84-.52-.84-.62-.06-.14.25-.52 1.14-.76zm-8.22-2.89c0-.12.28-.49 1.17-.74a9.53 9.53 0 012.56-.32 9.26 9.26 0 013 .46c.67.25.87.56.85.65-.02.09-.28.5-1.17.74a9.13 9.13 0 01-2.56.33 8.79 8.79 0 01-3-.48c-.63-.23-.84-.51-.84-.62zm-5 2.6l4.44-.62v1.36c0 .56.51.91 1.22 1.19a9.26 9.26 0 003.26.51 10.11 10.11 0 002.59-.31v2.21c0 .56.5.92 1.22 1.2a9.54 9.54 0 003.26.51 10.15 10.15 0 002.73-.34c.94-.29 1.56-.66 1.6-1.31V21.7a10.16 10.16 0 002.54-.31v2.23c0 .56.5.91 1.22 1.19a9.5 9.5 0 003.26.51 10.21 10.21 0 002.73-.34c.93-.29 1.55-.66 1.59-1.31v-1.54l5 2.72-23 3.23zm37.23 22.31c-.08.06-23.37 3.27-23.37 3.27V28.64l23.37-3.28s-.04 17.46-.03 17.6z" fill="#02743b"/><path d="M29.438 112.82c0-.56-.5-.91-1.22-1.2a9.51 9.51 0 00-3.26-.5 9.74 9.74 0 00-2.72.34c-.94.28-1.55.65-1.6 1.3v1.38l-5.42.76a.21.21 0 00-.1 0 .11.11 0 000 .05.14.14 0 010 .06v18.19a.27.27 0 000 .13l3.83 2.09 10.7 5.82a.33.33 0 00.13 0l24-3.36.11-.05a.14.14 0 000-.07v-18.19a.25.25 0 000-.12l-6-3.3v-1.13c0-.56-.5-.92-1.22-1.2a9.54 9.54 0 00-3.26-.51h-.73l-1.85-1v-.94c0-.55-.5-.91-1.22-1.19a9.34 9.34 0 00-3.26-.51 10.15 10.15 0 00-2.73.34c-.93.28-1.55.65-1.59 1.29v1.21l-2.55.36" fill="#1ea551"/><path d="M54.038 119.72a.25.25 0 000-.12l-6-3.3v-1.13c0-.56-.5-.92-1.22-1.2a9.54 9.54 0 00-3.26-.51h-.73l-1.85-1v.66l.83.46a7.34 7.34 0 00-.84.17v-2.23c0-.55-.5-.91-1.22-1.19a9.34 9.34 0 00-3.26-.51 10.15 10.15 0 00-2.73.34c-.93.28-1.55.65-1.59 1.29v1.21l-2.55.36v.6l2.54-.36v1.53a9.79 9.79 0 00-2.69.35h.14v-2.32c0-.56-.5-.91-1.22-1.2a9.51 9.51 0 00-3.26-.5 9.74 9.74 0 00-2.72.34c-.94.28-1.55.65-1.6 1.3v1.38l-5.42.76a.21.21 0 00-.1 0 .11.11 0 000 .05.14.14 0 010 .06v18.19a.27.27 0 000 .13l3.83 2.09 10.7 5.82a.33.33 0 00.13 0l24-3.36.11-.05a.14.14 0 000-.07v-18.19zm-10.67-5.8a9 9 0 013 .46c.67.25.87.55.85.65-.02.1-.28.49-1.17.74a9.53 9.53 0 01-2.56.32 8.81 8.81 0 01-3.05-.47c-.63-.24-.84-.52-.84-.62 0-.11.28-.49 1.17-.73a9.15 9.15 0 012.6-.35zm-9.61-3.32a9.53 9.53 0 012.56-.32 8.75 8.75 0 013 .47c.67.25.87.55.85.64-.02.09-.28.5-1.17.74a9.66 9.66 0 01-2.57.32 8.76 8.76 0 01-3-.46c-.63-.24-.85-.53-.84-.63-.03-.14.28-.54 1.17-.76zm-4.31 5.05a9.57 9.57 0 012.56-.33 9.09 9.09 0 013.05.47c.66.25.87.55.84.65-.03.1-.28.49-1.17.74a9.53 9.53 0 01-2.56.32 8.85 8.85 0 01-3.05-.47c-.63-.24-.84-.52-.84-.63-.02-.13.28-.51 1.17-.75zm-8.22-2.89c0-.12.29-.5 1.18-.74a9.51 9.51 0 012.55-.32 9.33 9.33 0 013 .46c.66.25.86.56.84.65-.02.09-.27.49-1.17.74a9.13 9.13 0 01-2.56.33 8.83 8.83 0 01-3-.48c-.63-.23-.84-.51-.84-.62zm-5 2.6l4.43-.62v1.36c0 .56.51.91 1.23 1.19a9.46 9.46 0 003.26.51 10.08 10.08 0 002.58-.31v2.21c0 .56.5.91 1.21 1.2a9.58 9.58 0 003.26.51 10.28 10.28 0 002.74-.34c.93-.3 1.55-.66 1.59-1.31v-3.35a10.3 10.3 0 002.55-.31v2.21c0 .56.5.92 1.22 1.2a9.5 9.5 0 003.26.51 10.21 10.21 0 002.73-.34c.93-.29 1.55-.66 1.59-1.31v-1.92.37l5 2.72-23 3.23zm37.23 22.31c-.09.06-23.37 3.27-23.37 3.27v-17.59l23.37-3.28s-.05 17.49-.04 17.6z" fill="#02743b"/><path d="M29.438 94.54c0-.56-.5-.92-1.22-1.2a9.51 9.51 0 00-3.26-.5 9.74 9.74 0 00-2.72.34c-.94.28-1.55.65-1.6 1.29v1.39l-5.42.76a.38.38 0 00-.1 0 .14.14 0 010 .06v18.19a.27.27 0 000 .13v.05l3.83 2.09 10.7 5.81a.33.33 0 00.13 0l24-3.37a.17.17 0 00.11 0 .14.14 0 000-.07v-18.2a.25.25 0 000-.12v-.05l-6-3.29v-1.14c0-.55-.5-.91-1.22-1.19a9.54 9.54 0 00-3.26-.51h-.73l-1.85-1v-.94c0-.55-.5-.91-1.22-1.2a9.83 9.83 0 00-3.26-.51 10.14 10.14 0 00-2.73.35c-.93.28-1.55.65-1.59 1.29v1.21l-2.55.35" fill="#1ea551"/><path d="M54.038 101.45a.25.25 0 000-.12v-.05l-6-3.29v-1.14c0-.55-.5-.91-1.22-1.19a9.54 9.54 0 00-3.26-.51h-.73l-1.85-1v.66l.83.46a7.34 7.34 0 00-.84.17v-2.23c0-.55-.5-.91-1.22-1.2a9.83 9.83 0 00-3.26-.51 10.14 10.14 0 00-2.73.35c-.93.28-1.55.65-1.59 1.29v1.21l-2.55.35v.61l2.54-.36v1.52a9.8 9.8 0 00-2.69.34h.14v-2.23c0-.56-.5-.92-1.22-1.2a9.51 9.51 0 00-3.26-.5 9.74 9.74 0 00-2.72.34c-.94.28-1.55.65-1.6 1.29v1.39l-5.42.76a.38.38 0 00-.1 0 .14.14 0 010 .06v18.19a.27.27 0 000 .13v.05l3.83 2.09 10.7 5.81a.33.33 0 00.13 0l24-3.37a.17.17 0 00.11 0 .14.14 0 000-.07v-18.2zm-10.67-5.8a9 9 0 013 .46c.67.25.87.55.85.64-.02.09-.28.5-1.17.75a9.53 9.53 0 01-2.56.32 9.05 9.05 0 01-3.05-.47c-.63-.24-.84-.52-.84-.62 0-.11.28-.49 1.17-.73a9.53 9.53 0 012.6-.35zm-9.61-3.32a9.53 9.53 0 012.56-.32 9 9 0 013 .46c.67.26.87.56.85.65-.02.09-.28.49-1.17.75a10.11 10.11 0 01-2.57.31 8.76 8.76 0 01-3-.46c-.63-.24-.85-.52-.84-.63-.03-.14.28-.52 1.17-.76zm-4.31 5a10 10 0 012.56-.32 9.09 9.09 0 013.05.47c.66.25.87.56.84.65-.03.09-.28.49-1.17.74a9.53 9.53 0 01-2.56.32 9.09 9.09 0 01-3.05-.47c-.63-.23-.84-.52-.84-.63-.02-.09.28-.47 1.17-.72zm-8.22-2.89c0-.12.29-.5 1.18-.74a9.51 9.51 0 012.55-.32 9.33 9.33 0 013 .46c.66.25.86.56.84.65-.02.09-.27.49-1.17.74a9.15 9.15 0 01-2.56.32 8.85 8.85 0 01-3-.47c-.63-.24-.84-.51-.84-.62zm-5 2.61l4.43-.62v1.39c0 .55.51.91 1.23 1.19a9.22 9.22 0 003.26.51 10.08 10.08 0 002.58-.31v2.21c0 .56.5.91 1.21 1.2a9.59 9.59 0 003.26.5 10.29 10.29 0 002.74-.33c.93-.29 1.55-.66 1.59-1.31v-3.36a10.82 10.82 0 002.55-.29v2.2c0 .56.5.92 1.22 1.2a9.5 9.5 0 003.26.51 10.2 10.2 0 002.73-.35c.93-.28 1.55-.65 1.59-1.3v-1.92.37l5 2.72-23 3.23zm37.23 22.31c-.09 0-23.37 3.27-23.37 3.27v-17.59l23.36-3.22s-.04 17.47-.03 17.58z" fill="#02743b"/><path d="M29.438 76.26c0-.56-.5-.91-1.22-1.2a9.5 9.5 0 00-3.26-.51 9.74 9.74 0 00-2.72.35c-.94.28-1.55.65-1.6 1.3v1.39l-5.42.76a.19.19 0 00-.1 0v.05a.14.14 0 010 .06v18.19a.27.27 0 000 .13v.05l3.83 2.09 10.7 5.81a.33.33 0 00.13 0l24-3.37a.25.25 0 00.11 0 .14.14 0 000-.07v-18.2a.25.25 0 000-.12v-.05l-6-3.29v-1.14c0-.56-.5-.92-1.22-1.2a9.54 9.54 0 00-3.26-.51h-.73l-1.85-1v-.96c0-.56-.5-.91-1.22-1.19a9.57 9.57 0 00-3.26-.52 10.14 10.14 0 00-2.73.35c-.93.28-1.55.65-1.59 1.29v1.21l-2.55.35" fill="#1ea551"/><path d="M54.038 83.18a.25.25 0 000-.12v-.05l-6-3.29v-1.14c0-.56-.5-.92-1.22-1.2a9.54 9.54 0 00-3.26-.51h-.73l-1.85-1v.66l.83.46a7.34 7.34 0 00-.84.17v-2.23c0-.56-.5-.91-1.22-1.19a9.57 9.57 0 00-3.26-.52 10.14 10.14 0 00-2.73.35c-.93.28-1.55.65-1.59 1.29v1.21l-2.55.35v.61l2.54-.36v1.53a10.2 10.2 0 00-2.69.34h.14V76.3c0-.56-.5-.91-1.22-1.2a9.5 9.5 0 00-3.26-.51 9.74 9.74 0 00-2.72.35c-.94.28-1.55.65-1.6 1.3v1.39l-5.42.76a.19.19 0 00-.1 0v.05a.14.14 0 010 .06v18.19a.27.27 0 000 .13v.05l3.83 2.09 10.7 5.81a.33.33 0 00.13 0l24-3.37a.25.25 0 00.11 0 .14.14 0 000-.07v-18.2zm-10.67-5.8a9 9 0 013 .46c.67.25.87.55.85.65-.02.1-.28.49-1.17.74a9.53 9.53 0 01-2.56.32 9.05 9.05 0 01-3.05-.47c-.63-.24-.84-.52-.84-.62 0-.12.28-.49 1.17-.73a9.15 9.15 0 012.6-.35zm-9.61-3.32a9.53 9.53 0 012.56-.32 8.75 8.75 0 013 .47c.67.24.87.55.85.64-.02.09-.28.5-1.17.74a9.66 9.66 0 01-2.57.32 8.76 8.76 0 01-3-.46c-.63-.24-.85-.53-.84-.63-.03-.14.28-.52 1.17-.76zm-4.31 5a10 10 0 012.56-.32 9.09 9.09 0 013.05.47c.66.25.87.55.84.65-.03.1-.28.49-1.17.74a9.53 9.53 0 01-2.56.32 8.85 8.85 0 01-3.05-.47c-.63-.24-.84-.52-.84-.63-.02-.09.28-.47 1.17-.72zm-8.22-2.89c0-.12.29-.5 1.18-.74a9.51 9.51 0 012.55-.32 9.33 9.33 0 013 .46c.66.25.86.56.84.65-.02.09-.27.49-1.17.74a9.15 9.15 0 01-2.56.32 8.85 8.85 0 01-3-.47c-.63-.24-.84-.51-.84-.62zm-5 2.61l4.43-.62v1.36c0 .56.51.91 1.23 1.19a9.22 9.22 0 003.26.51 10.08 10.08 0 002.58-.31v2.21c0 .56.5.92 1.21 1.2a9.58 9.58 0 003.26.51 10.28 10.28 0 002.74-.34c.93-.3 1.55-.66 1.59-1.31v-3.35a10.3 10.3 0 002.55-.31v2.21c0 .56.5.92 1.22 1.2a9.5 9.5 0 003.26.51 10.63 10.63 0 002.73-.34c.93-.29 1.55-.66 1.59-1.31v-1.92.37l5 2.72-23 3.23zm37.23 22.31c-.09.05-23.37 3.27-23.37 3.27V86.77l23.37-3.28s-.05 17.53-.04 17.64z" fill="#02743b"/><path d="M29.438 57.99c0-.56-.5-.91-1.22-1.2a9.51 9.51 0 00-3.26-.5 9.74 9.74 0 00-2.72.34c-.94.28-1.55.65-1.6 1.3v1.38l-5.42.77a.19.19 0 00-.1 0v.05a.14.14 0 010 .06v18.19a.27.27 0 000 .13l3.83 2.09 10.7 5.82a.33.33 0 00.13 0l24-3.37a.25.25 0 00.11 0 .19.19 0 000-.07V64.79a.22.22 0 000-.12l-6-3.29v-1.16c0-.56-.5-.92-1.22-1.2a9.54 9.54 0 00-3.26-.51h-.73l-1.85-1v-.94c0-.56-.5-.91-1.22-1.2a9.83 9.83 0 00-3.26-.51 10.14 10.14 0 00-2.73.35c-.93.28-1.55.65-1.59 1.29v1.21l-2.55.36" fill="#1ea551"/><path d="M54.038 64.91a.22.22 0 000-.12l-6-3.29v-1.28c0-.56-.5-.92-1.22-1.2a9.54 9.54 0 00-3.26-.51h-.73l-1.85-1v.66l.83.46a7.34 7.34 0 00-.84.17v-2.23c0-.56-.5-.91-1.22-1.2a9.83 9.83 0 00-3.26-.51 10.14 10.14 0 00-2.73.35c-.93.28-1.55.65-1.59 1.29v1.21l-2.55.36v.6l2.54-.36v1.51a10.2 10.2 0 00-2.69.34h.14v-2.24c0-.56-.5-.91-1.22-1.2a9.51 9.51 0 00-3.26-.5 9.74 9.74 0 00-2.72.34c-.94.28-1.55.65-1.6 1.3v1.38l-5.42.77a.19.19 0 00-.1 0v.05a.14.14 0 010 .06v18.19a.27.27 0 000 .13l3.83 2.09 10.7 5.82a.33.33 0 00.13 0l24-3.37a.25.25 0 00.11 0 .19.19 0 000-.07V64.72zm-10.67-5.8a9 9 0 013 .46c.67.25.87.55.85.65-.02.1-.28.49-1.17.74a9.53 9.53 0 01-2.56.32 9.05 9.05 0 01-3.05-.47c-.63-.24-.84-.52-.84-.62 0-.12.28-.49 1.17-.73a9.15 9.15 0 012.6-.35zm-9.61-3.29a9.53 9.53 0 012.56-.32 8.75 8.75 0 013 .47c.67.24.87.55.85.64-.02.09-.28.5-1.17.74a9.66 9.66 0 01-2.57.32 8.76 8.76 0 01-3-.46c-.63-.24-.85-.53-.84-.63-.03-.17.28-.55 1.17-.76zm-4.31 5a10 10 0 012.56-.32 9.09 9.09 0 013.05.47c.66.25.87.56.84.65-.03.09-.28.49-1.17.74a9.53 9.53 0 01-2.56.32 8.85 8.85 0 01-3.05-.47c-.63-.24-.84-.52-.84-.63-.02-.12.28-.5 1.17-.76zm-8.22-2.89c0-.12.29-.5 1.18-.74a9.51 9.51 0 012.55-.32 9.33 9.33 0 013 .46c.66.25.86.56.84.65-.02.09-.27.49-1.17.74a9.15 9.15 0 01-2.56.32 8.85 8.85 0 01-3-.47c-.63-.23-.84-.51-.84-.62zm-5 2.61l4.43-.62v1.36c0 .55.51.91 1.23 1.19a9.46 9.46 0 003.26.51 10.08 10.08 0 002.58-.31v2.21c0 .56.5.91 1.21 1.2a9.58 9.58 0 003.26.51 10.28 10.28 0 002.74-.34c.93-.29 1.55-.66 1.59-1.31v-3.35a10.3 10.3 0 002.55-.31v2.21c0 .56.5.92 1.22 1.19a9.25 9.25 0 003.26.52 9.81 9.81 0 002.73-.35c.93-.28 1.55-.65 1.59-1.3v-1.92.37l5 2.72-23 3.23zm37.19 22.28c-.09.05-23.37 3.27-23.37 3.27V68.5l23.37-3.28s-.01 17.53 0 17.6z" fill="#02743b"/><path d="M29.438 39.72c0-.56-.5-.91-1.22-1.2a9.51 9.51 0 00-3.26-.5 9.74 9.74 0 00-2.72.34c-.94.28-1.55.65-1.6 1.29v1.39l-5.42.76a.19.19 0 00-.1 0 .14.14 0 010 .06v18.19a.27.27 0 000 .13l3.83 2.09 10.7 5.81a.33.33 0 00.13 0l24-3.37a.25.25 0 00.11 0 .14.14 0 000-.07v-18.2a.23.23 0 000-.12v-.05l-6-3.29v-1.14c0-.56-.5-.92-1.22-1.2a9.54 9.54 0 00-3.26-.51h-.73l-1.85-1v-.94c0-.56-.5-.91-1.22-1.2a10.74 10.74 0 00-6-.16c-.93.28-1.55.65-1.59 1.29v1.21l-2.55.35" fill="#1ea551"/><path d="M54.038 46.64a.23.23 0 000-.12v-.05l-6-3.29v-1.14c0-.56-.5-.92-1.22-1.2a9.54 9.54 0 00-3.26-.51h-.73l-1.85-1v.66l.83.45q-.43.08-.84.18v-2.23c0-.56-.5-.91-1.22-1.2a10.74 10.74 0 00-6-.16c-.93.28-1.55.65-1.59 1.29v1.21l-2.55.35v.6l2.54-.35v1.52a9.8 9.8 0 00-2.69.34h.14v-2.27c0-.56-.5-.91-1.22-1.2a9.51 9.51 0 00-3.26-.5 9.74 9.74 0 00-2.72.34c-.94.28-1.55.65-1.6 1.29v1.39l-5.42.76a.19.19 0 00-.1 0 .14.14 0 010 .06v18.19a.27.27 0 000 .13l3.83 2.09 10.7 5.81a.33.33 0 00.13 0l24-3.37a.25.25 0 00.11 0 .14.14 0 000-.07v-18.2zm-10.67-5.82a9 9 0 013 .46c.67.25.87.55.85.65-.02.1-.28.49-1.17.74a9.53 9.53 0 01-2.56.32 9.05 9.05 0 01-3.05-.47c-.63-.24-.84-.52-.84-.63 0-.12.28-.49 1.17-.74a9.55 9.55 0 012.6-.33zm-9.61-3.32a9.53 9.53 0 012.56-.32 9 9 0 013 .46c.67.26.87.56.85.65-.02.09-.28.5-1.17.74a9.66 9.66 0 01-2.57.32 9 9 0 01-3-.46c-.63-.24-.85-.53-.84-.63-.03-.12.28-.5 1.17-.74zm-4.31 5a10 10 0 012.56-.32 9.09 9.09 0 013.05.47c.66.25.87.55.84.65-.03.1-.28.49-1.17.74a9.53 9.53 0 01-2.56.32 9.09 9.09 0 01-3.05-.47c-.63-.24-.84-.52-.84-.63-.02-.07.28-.44 1.17-.7zm-8.22-2.89c0-.12.29-.5 1.18-.74a9.51 9.51 0 012.55-.32 9.33 9.33 0 013 .46c.66.25.86.55.84.65-.02.1-.27.49-1.17.74a9.15 9.15 0 01-2.56.32 8.85 8.85 0 01-3-.47c-.63-.23-.84-.51-.84-.62zm-5 2.61l4.43-.62v1.36c0 .55.51.91 1.23 1.19a9.46 9.46 0 003.26.51 10.08 10.08 0 002.58-.31v2.21c0 .56.5.91 1.21 1.2a9.59 9.59 0 003.26.5 9.89 9.89 0 002.74-.34c.93-.29 1.55-.65 1.59-1.3v-3.36a10.79 10.79 0 002.55-.31v2.21c0 .56.5.92 1.22 1.2a9.5 9.5 0 003.26.51 10.2 10.2 0 002.73-.35c.93-.28 1.55-.65 1.59-1.3V43.3v.37l5 2.72-23 3.23zm37.23 22.31c-.09 0-23.37 3.27-23.37 3.27V50.21l23.37-3.28s-.05 17.54-.04 17.66z" fill="#02743b"/><path d="M29.438 21.45c0-.56-.5-.91-1.22-1.2a9.51 9.51 0 00-3.26-.5 9.74 9.74 0 00-2.72.34c-.94.28-1.55.65-1.6 1.29v1.44l-5.42.76a.19.19 0 00-.1 0 .14.14 0 010 .06v18.19a.27.27 0 000 .13l3.83 2.09 10.7 5.81a.33.33 0 00.13 0l24-3.37a.25.25 0 00.11 0 .14.14 0 000-.07v-18.2a.23.23 0 000-.12l-6-3.29v-1.13c0-.56-.5-.92-1.22-1.2a9.54 9.54 0 00-3.26-.51h-.73l-1.85-1v-.94c0-.56-.5-.91-1.22-1.2a10.74 10.74 0 00-6-.16c-.93.28-1.55.65-1.59 1.29v1.21l-2.55.35" fill="#1ea551"/><path d="M54.038 28.37a.23.23 0 000-.12l-6-3.29v-1.28c0-.56-.5-.92-1.22-1.2a9.54 9.54 0 00-3.26-.51h-.73l-1.85-1v.66l.83.46a7.34 7.34 0 00-.84.17v-2.23c0-.56-.5-.91-1.22-1.2a10.74 10.74 0 00-6-.16c-.93.28-1.55.65-1.59 1.29v1.21l-2.55.35v.61l2.54-.36v1.52a9.8 9.8 0 00-2.69.34h.14v-2.18c0-.56-.5-.91-1.22-1.2a9.51 9.51 0 00-3.26-.5 9.74 9.74 0 00-2.72.34c-.94.28-1.55.65-1.6 1.29v1.44l-5.42.76a.19.19 0 00-.1 0 .14.14 0 010 .06v18.19a.27.27 0 000 .13l3.83 2.09 10.7 5.81a.33.33 0 00.13 0l24-3.37a.25.25 0 00.11 0 .14.14 0 000-.07v-18.2zm-10.67-5.8a9 9 0 013 .46c.67.25.87.55.85.65-.02.1-.28.49-1.17.74a9.53 9.53 0 01-2.56.32 9.05 9.05 0 01-3.05-.47c-.63-.24-.84-.52-.84-.62 0-.12.28-.49 1.17-.74a9.55 9.55 0 012.6-.34zm-9.61-3.32a9.52 9.52 0 012.56-.33 9 9 0 013 .47c.67.26.87.56.85.65-.02.09-.28.5-1.17.74a9.66 9.66 0 01-2.57.32 9 9 0 01-3-.46c-.63-.24-.85-.53-.84-.63-.03-.14.28-.52 1.17-.76zm-4.31 5a10 10 0 012.56-.32 9.09 9.09 0 013.05.47c.66.25.87.55.84.65-.03.1-.28.49-1.17.74a9.53 9.53 0 01-2.56.32 9.09 9.09 0 01-3.05-.47c-.63-.24-.84-.52-.84-.63-.02-.09.28-.47 1.17-.72zm-8.22-2.89c0-.12.29-.5 1.18-.74a9.51 9.51 0 012.55-.32 9.33 9.33 0 013 .46c.66.25.86.55.84.65-.02.1-.27.49-1.17.74a10.25 10.25 0 01-5.61-.15c-.63-.24-.84-.51-.84-.62zm-5 2.61l4.43-.62v1.36c0 .55.51.91 1.23 1.19a9.46 9.46 0 003.26.51 10.08 10.08 0 002.58-.31v2.21c0 .56.5.91 1.21 1.2a9.59 9.59 0 003.26.5 10.29 10.29 0 002.74-.33c.93-.29 1.55-.66 1.59-1.31v-3.36a10.3 10.3 0 002.55-.31v2.21c0 .56.5.92 1.22 1.19a9.25 9.25 0 003.26.52 10.2 10.2 0 002.73-.35c.93-.28 1.55-.65 1.59-1.3v-1.92.37l5 2.72-23 3.23zm37.23 22.31c-.09 0-23.37 3.27-23.37 3.27V31.96l23.37-3.28s-.05 17.52-.04 17.64z" fill="#02743b"/></svg>