<svg xmlns="http://www.w3.org/2000/svg" viewBox="0 0 125.905 141.247"><path d="M86.028 94.461c0-.56-.5-.92-1.22-1.2a9.54 9.54 0 00-3.26-.51 9.76 9.76 0 00-2.73.35c-.93.28-1.54.65-1.59 1.29v1.43l-5.42.76h-.11a.1.1 0 000 .05v18.25a.27.27 0 000 .13l3.83 2.09 10.69 5.81a.5.5 0 00.13 0l24-3.37h.1v-18.3a.23.23 0 000-.12.21.21 0 000-.06l-6-3.29v-1.14c0-.56-.5-.92-1.23-1.2a9.46 9.46 0 00-3.26-.51h-.72l-1.85-1v-.93c0-.56-.51-.91-1.23-1.2a10.71 10.71 0 00-6-.16c-.93.28-1.55.65-1.6 1.29v1.2l-2.54.35" fill="#ffdc5a"/><path d="M110.628 101.381a.23.23 0 000-.12.21.21 0 000-.06l-6-3.29v-1.14c0-.56-.5-.92-1.23-1.2a9.46 9.46 0 00-3.26-.51h-.72l-1.85-1v.67l.83.45q-.43.08-.84.18v-2.23c0-.56-.51-.91-1.23-1.2a10.71 10.71 0 00-6-.16c-.93.28-1.55.65-1.6 1.29v1.2l-2.54.35v.6l2.54-.35v1.52a9.91 9.91 0 00-2.69.34h.14v-2.24c0-.56-.5-.92-1.22-1.2a9.54 9.54 0 00-3.26-.51 9.76 9.76 0 00-2.73.35c-.93.28-1.54.65-1.59 1.29v1.41l-5.42.76h-.11a.1.1 0 000 .05v18.25a.27.27 0 000 .13l3.83 2.09 10.69 5.81a.5.5 0 00.13 0l24-3.37h.1v-18.3zm-10.68-5.81a9 9 0 013 .47c.66.24.87.55.84.65-.03.1-.27.48-1.16.74a9.66 9.66 0 01-2.57.32 9 9 0 01-3-.47c-.64-.24-.85-.52-.85-.63 0-.12.29-.49 1.18-.74a9.51 9.51 0 012.56-.34zm-9.6-3.32a10 10 0 012.56-.31 9.09 9.09 0 013 .46c.67.25.87.56.84.65-.03.09-.28.49-1.17.74a9.53 9.53 0 01-2.56.32 9.11 9.11 0 01-3-.46c-.62-.24-.84-.53-.83-.63-.04-.14.29-.52 1.16-.77zm-4.31 5a9.59 9.59 0 012.56-.32 9.09 9.09 0 013.05.47c.66.25.86.55.84.65-.02.1-.28.49-1.17.74a9.56 9.56 0 01-2.57.32 9.07 9.07 0 01-3-.47c-.63-.24-.84-.52-.84-.63-.07-.08.24-.47 1.13-.71zm-8.22-2.89c0-.12.28-.49 1.17-.73a9.53 9.53 0 012.56-.32 9 9 0 013 .46c.67.25.87.55.85.65-.02.1-.28.49-1.17.74a9.53 9.53 0 01-2.56.32 9.05 9.05 0 01-3-.47c-.63-.23-.84-.51-.84-.62zm-5 2.61l4.44-.63v1.37c0 .56.51.92 1.22 1.2a9.28 9.28 0 003.27.51 10.54 10.54 0 002.58-.31v2.21c0 .56.5.91 1.22 1.19a9.3 9.3 0 003.26.51 9.77 9.77 0 002.73-.34c.94-.29 1.56-.65 1.6-1.3v-3.41a10.23 10.23 0 002.54-.3v2.24c0 .56.5.91 1.22 1.2a9.5 9.5 0 003.26.51 10.2 10.2 0 002.73-.35c.93-.28 1.55-.65 1.59-1.31v-1.92.38l5 2.72-23 3.22zm37.23 22.3c-.08.06-23.37 3.28-23.37 3.28v-17.59l23.37-3.28s-.06 17.53-.05 17.64z" fill="#f3aa00"/><path d="M86.028 76.201c0-.56-.5-.92-1.22-1.2a9.54 9.54 0 00-3.26-.51 9.76 9.76 0 00-2.73.35c-.93.27-1.54.65-1.59 1.29v1.38l-5.42.76h-.11v18.25a.3.3 0 000 .13l3.83 2.09 10.69 5.81a.5.5 0 00.13 0l24-3.37a.21.21 0 00.1 0v-18.07a.22.22 0 000-.12.1.1 0 000-.05l-6-3.29v-1.23c0-.56-.5-.91-1.23-1.2a9.71 9.71 0 00-3.26-.5h-.72l-1.85-1v-.9c0-.56-.51-.92-1.23-1.2a9.72 9.72 0 00-3.25-.51 10.15 10.15 0 00-2.73.34c-.93.29-1.55.65-1.6 1.3v1.2l-2.54.35" fill="#ffdc5a"/><path d="M110.628 83.111a.22.22 0 000-.12.1.1 0 000-.05l-6-3.29v-1.23c0-.56-.5-.91-1.23-1.2a9.71 9.71 0 00-3.26-.5h-.72l-1.85-1v.66l.83.45q-.43.07-.84.18v-2.23c0-.56-.51-.92-1.23-1.2a9.72 9.72 0 00-3.25-.51 10.15 10.15 0 00-2.73.34c-.93.29-1.55.65-1.6 1.3v1.2l-2.54.35v.6l2.54-.35v1.52a9.91 9.91 0 00-2.69.34h.14v-2.23c0-.56-.5-.92-1.22-1.2a9.54 9.54 0 00-3.26-.51 9.76 9.76 0 00-2.73.35c-.93.27-1.54.65-1.59 1.29v1.38l-5.42.76h-.11v18.25a.3.3 0 000 .13l3.83 2.09 10.69 5.81a.5.5 0 00.13 0l24-3.37a.21.21 0 00.1 0v-18.01zm-10.68-5.81a9 9 0 013 .47c.66.25.87.55.84.64-.03.09-.27.5-1.16.74a9.26 9.26 0 01-2.57.33 9 9 0 01-3-.47c-.64-.24-.85-.52-.85-.62 0-.12.29-.49 1.18-.74a9.51 9.51 0 012.56-.35zm-9.6-3.32a10 10 0 012.56-.32 9.07 9.07 0 013 .47c.67.25.87.56.84.65-.03.09-.28.49-1.17.74a9.53 9.53 0 01-2.56.32 8.85 8.85 0 01-3-.47c-.62-.24-.84-.52-.83-.62-.04-.14.29-.52 1.16-.77zm-4.31 5.05a9.59 9.59 0 012.56-.32 9.09 9.09 0 013.05.47c.66.25.86.55.84.65-.02.1-.28.49-1.17.74a9.56 9.56 0 01-2.57.32 9.07 9.07 0 01-3-.47c-.63-.24-.84-.52-.84-.63-.07-.14.24-.51 1.13-.76zm-8.22-2.89c0-.12.28-.49 1.17-.73a9.15 9.15 0 012.56-.32 9 9 0 013 .46c.67.25.87.55.85.65-.02.1-.28.49-1.17.74a9.53 9.53 0 01-2.56.32 8.81 8.81 0 01-3-.47c-.63-.24-.84-.52-.84-.62zm-5 2.61l4.44-.63v1.37c0 .55.51.91 1.22 1.19a9.52 9.52 0 003.27.51 10.54 10.54 0 002.58-.31v2.21c0 .56.5.91 1.22 1.2a9.55 9.55 0 003.26.5 9.77 9.77 0 002.73-.34c.94-.29 1.56-.66 1.6-1.3v-3.36a10.23 10.23 0 002.54-.3v2.23c0 .56.5.92 1.22 1.19a9.25 9.25 0 003.26.52 10.2 10.2 0 002.73-.35c.93-.28 1.55-.65 1.59-1.3v-1.92.37l5 2.71-23 3.23zm37.23 22.3c-.08.06-23.37 3.28-23.37 3.28v-17.59l23.37-3.28s-.06 17.48-.05 17.59z" fill="#f3aa00"/><path d="M86.028 21.381c0-.56-.5-.92-1.22-1.2a9.54 9.54 0 00-3.26-.51 9.76 9.76 0 00-2.73.35c-.93.27-1.54.65-1.59 1.29v1.38l-5.42.76h-.11a.1.1 0 000 .05v18.27a.3.3 0 000 .13l3.83 2.09 10.69 5.81a.28.28 0 00.13 0l24-3.37h.1v-18.3a.25.25 0 000-.12l-6-3.29v-1.11c0-.56-.5-.91-1.23-1.2a9.47 9.47 0 00-3.26-.5h-.72l-1.85-1v-.93c0-.56-.51-.92-1.23-1.2a9.72 9.72 0 00-3.25-.51 10.15 10.15 0 00-2.73.34c-.93.29-1.55.66-1.6 1.3v1.19l-2.54.36" fill="#ffdc5a"/><path d="M110.628 28.291a.25.25 0 000-.12l-6-3.29v-1.27c0-.56-.5-.91-1.23-1.2a9.47 9.47 0 00-3.26-.5h-.72l-1.85-1v.67l.83.45q-.43.08-.84.18v-2.23c0-.56-.51-.92-1.23-1.2a9.72 9.72 0 00-3.25-.51 10.15 10.15 0 00-2.73.34c-.93.29-1.55.66-1.6 1.3v1.19l-2.54.36v.6l2.54-.35v1.52a9.91 9.91 0 00-2.69.34h.14v-2.24c0-.56-.5-.92-1.22-1.2a9.54 9.54 0 00-3.26-.51 9.76 9.76 0 00-2.73.35c-.93.27-1.54.65-1.59 1.29v1.38l-5.42.76h-.11a.1.1 0 000 .05v18.27a.3.3 0 000 .13l3.83 2.09 10.69 5.81a.28.28 0 00.13 0l24-3.37h.1v-18.3zm-10.68-5.8a9.28 9.28 0 013 .46c.66.25.87.56.84.65-.03.09-.27.49-1.16.74a9.26 9.26 0 01-2.57.33 8.73 8.73 0 01-3-.48c-.64-.23-.85-.51-.85-.62 0-.12.29-.49 1.18-.74a9.51 9.51 0 012.56-.34zm-9.6-3.32a10 10 0 012.56-.32 9.07 9.07 0 013 .47c.67.25.87.55.84.65-.03.1-.28.49-1.17.74a9.55 9.55 0 01-2.56.31 8.63 8.63 0 01-3-.46c-.62-.23-.84-.52-.83-.63-.04-.11.29-.51 1.16-.76zm-4.31 5.05a9.59 9.59 0 012.56-.32 9.09 9.09 0 013.05.47c.66.25.86.55.84.65-.02.1-.28.49-1.17.74a9.58 9.58 0 01-2.57.31 8.84 8.84 0 01-3-.46c-.63-.24-.84-.52-.84-.63-.07-.16.24-.52 1.13-.76zm-8.22-2.89c0-.12.28-.49 1.17-.73a9.15 9.15 0 012.56-.32 9 9 0 013 .46c.67.25.87.55.85.65-.02.1-.28.49-1.17.74a9.53 9.53 0 01-2.56.32 9.05 9.05 0 01-3-.47c-.63-.24-.84-.52-.84-.62zm-5 2.61l4.44-.63v1.37c0 .56.51.92 1.22 1.2a9.52 9.52 0 003.27.51 10.54 10.54 0 002.58-.31v2.21c0 .56.5.91 1.22 1.2a9.8 9.8 0 003.26.5 10.15 10.15 0 002.73-.34c.94-.29 1.56-.66 1.6-1.3v-3.36a10.23 10.23 0 002.54-.3v2.23c0 .56.5.91 1.22 1.19a9.25 9.25 0 003.26.52 10.2 10.2 0 002.73-.35c.93-.28 1.55-.65 1.59-1.31v-1.91.37l5 2.71-23 3.23zm37.23 22.3c-.08.06-23.37 3.28-23.37 3.28v-17.59l23.37-3.29s-.06 17.49-.05 17.6z" fill="#f3aa00"/><path d="M86.028 3.111c0-.55-.5-.91-1.22-1.19a9.54 9.54 0 00-3.26-.51 9.76 9.76 0 00-2.73.35c-.93.27-1.54.65-1.59 1.29v1.38l-5.42.76h-.11v18.27a.3.3 0 000 .13l3.83 2.09 10.69 5.81a.5.5 0 00.13 0l24-3.37h.1v-18.09a.25.25 0 000-.12.21.21 0 000-.06l-6-3.29v-1.22c0-.56-.5-.91-1.23-1.2a9.71 9.71 0 00-3.26-.5h-.72l-1.85-1v-.93c0-.56-.51-.92-1.23-1.2a9.72 9.72 0 00-3.25-.51 10.15 10.15 0 00-2.73.34c-.93.29-1.55.66-1.6 1.3v1.18l-2.54.36" fill="#ffdc5a"/><path d="M110.628 10.021a.25.25 0 000-.12.21.21 0 000-.06l-6-3.29v-1.21c0-.56-.5-.91-1.23-1.2a9.71 9.71 0 00-3.26-.5h-.72l-1.85-1v.67l.83.45a7.34 7.34 0 00-.84.18v-2.23c0-.56-.51-.92-1.23-1.2a9.72 9.72 0 00-3.25-.51 10.15 10.15 0 00-2.73.34c-.93.29-1.55.66-1.6 1.3v1.18l-2.54.36v.64l2.54-.36v1.53a9.91 9.91 0 00-2.69.34h.14v-2.24c0-.55-.5-.91-1.22-1.19a9.54 9.54 0 00-3.26-.51 9.76 9.76 0 00-2.73.35c-.93.27-1.54.65-1.59 1.29v1.38l-5.42.76h-.11v18.27a.3.3 0 000 .13l3.83 2.09 10.69 5.81a.5.5 0 00.13 0l24-3.37h.1v-18.07zm-10.68-5.8a9 9 0 013 .47c.66.25.87.55.84.64-.03.09-.27.5-1.16.74a9.26 9.26 0 01-2.57.33 8.73 8.73 0 01-3-.48c-.64-.23-.85-.51-.85-.62 0-.12.29-.49 1.18-.74a9.51 9.51 0 012.56-.34zm-9.6-3.32a10 10 0 012.56-.32 9.07 9.07 0 013 .47c.67.25.87.56.84.65-.03.09-.28.49-1.17.74a9.53 9.53 0 01-2.56.32 8.85 8.85 0 01-3-.47c-.62-.23-.84-.52-.83-.63-.04-.13.29-.51 1.16-.76zm-4.31 5a9.59 9.59 0 012.56-.32 9.09 9.09 0 013.05.47c.66.25.86.55.84.65-.02.1-.28.49-1.17.74a9.58 9.58 0 01-2.57.31 8.84 8.84 0 01-3-.46c-.63-.24-.84-.52-.84-.63-.07-.09.24-.47 1.13-.71zm-8.22-2.89c0-.12.28-.49 1.17-.73a9.15 9.15 0 012.56-.32 9 9 0 013 .46c.67.25.87.55.85.64-.02.09-.28.5-1.17.75a9.53 9.53 0 01-2.56.32 9.05 9.05 0 01-3-.47c-.63-.24-.84-.52-.84-.62zm-5 2.61l4.44-.63v1.37c0 .56.51.92 1.22 1.2a9.52 9.52 0 003.27.51 10.54 10.54 0 002.58-.31v2.21c0 .56.5.91 1.22 1.2a9.55 9.55 0 003.26.5 10.15 10.15 0 002.73-.34c.94-.29 1.56-.66 1.6-1.3v-3.41a10.23 10.23 0 002.54-.3v2.23c0 .56.5.91 1.22 1.19a9.25 9.25 0 003.26.52 10.2 10.2 0 002.73-.35c.93-.28 1.55-.65 1.59-1.31v-1.92.37l5 2.72-23 3.23zm37.23 22.3c-.08.06-23.37 3.28-23.37 3.28v-17.59l23.37-3.29s-.06 17.5-.05 17.65z" fill="#f3aa00"/><path d="M62.048 97.821c0-.56-.5-.91-1.22-1.2a9.5 9.5 0 00-3.26-.51 9.74 9.74 0 00-2.72.35c-.94.28-1.55.65-1.6 1.3v1.39l-5.42.76h-.1v.06a.14.14 0 010 .06v18.19a.51.51 0 000 .13l3.75 2.47 10.7 5.82h.13l24-3.37a.3.3 0 00.11 0 .19.19 0 000-.07v-18.19a.21.21 0 000-.12v-.05l-6-3.29v-1.13c0-.56-.5-.92-1.22-1.2a9.54 9.54 0 00-3.26-.51h-.72l-1.86-1v-.94c0-.56-.5-.91-1.22-1.2a10.74 10.74 0 00-6-.16c-.93.28-1.55.65-1.59 1.29v1.21l-2.55.36" fill="#ffdc5a"/><path d="M86.658 104.761a.21.21 0 000-.12v-.05l-6-3.29v-1.13c0-.56-.5-.92-1.22-1.2a9.54 9.54 0 00-3.26-.51h-.72l-1.86-1v.66l.83.45q-.43.08-.84.18v-2.23c0-.56-.5-.91-1.22-1.2a10.74 10.74 0 00-6-.16c-.93.28-1.55.65-1.59 1.29v1.21l-2.55.36v.6l2.54-.36v1.53a9.79 9.79 0 00-2.69.35h.14v-2.32c0-.56-.5-.91-1.22-1.2a9.5 9.5 0 00-3.26-.51 9.74 9.74 0 00-2.72.35c-.94.28-1.55.65-1.6 1.3v1.39l-5.42.76h-.1v.06a.14.14 0 010 .06v18.19a.51.51 0 000 .13l3.58 2.47 10.7 5.82h.13l24-3.37a.3.3 0 00.11 0 .19.19 0 000-.07v-18.19zm-10.68-5.81a9 9 0 013 .47c.67.25.87.55.85.65-.02.1-.28.49-1.17.74a9.53 9.53 0 01-2.56.32 9.05 9.05 0 01-3.05-.47c-.63-.24-.84-.52-.84-.62 0-.11.28-.49 1.17-.73a9.13 9.13 0 012.6-.36zm-9.61-3.31a9.52 9.52 0 012.56-.33 8.83 8.83 0 013 .48c.66.24.86.55.84.64-.02.09-.28.5-1.17.74a9.66 9.66 0 01-2.57.32 8.76 8.76 0 01-3-.46c-.63-.24-.85-.53-.84-.64-.02-.13.29-.51 1.18-.75zm-4.31 5a10 10 0 012.56-.32 9.09 9.09 0 013 .47c.66.25.87.55.84.65-.03.1-.28.49-1.17.74a9.53 9.53 0 01-2.56.32 8.85 8.85 0 01-3-.47c-.63-.23-.84-.52-.83-.63-.03-.09.28-.47 1.16-.72zm-8.22-2.89c0-.12.29-.5 1.18-.74a9.41 9.41 0 012.55-.32 9.11 9.11 0 013.05.46c.66.25.86.55.84.65-.02.1-.27.5-1.16.74a9.27 9.27 0 01-2.57.32 8.85 8.85 0 01-3-.47c-.63-.23-.84-.51-.84-.62zm-5 2.61l4.43-.62v1.36c0 .56.51.91 1.23 1.19a9.42 9.42 0 003.26.51 10.54 10.54 0 002.58-.31v2.33c0 .56.5.91 1.21 1.2a9.59 9.59 0 003.26.5 10.29 10.29 0 002.74-.33c.93-.3 1.55-.67 1.59-1.31v-3.35a10.24 10.24 0 002.55-.31v2.21c0 .56.5.92 1.22 1.2a9.5 9.5 0 003.26.51 10.63 10.63 0 002.73-.34c.94-.29 1.55-.66 1.6-1.31v-1.55l5 2.72-23.02 3.16zm37.23 22.31c-.09.05-23.38 3.27-23.38 3.27v-17.59l23.37-3.28s-.04 17.52-.03 17.64z" fill="#f3aa00"/><path d="M62.048 6.491c0-.56-.5-.92-1.22-1.2a9.5 9.5 0 00-3.26-.51 9.74 9.74 0 00-2.72.35c-.94.28-1.55.65-1.6 1.29v1.4l-5.42.76h-.1v.05a.14.14 0 010 .06v18.19a.51.51 0 000 .13l3.83 2.09 10.7 5.81h.13l24-3.37a.3.3 0 00.11 0 .19.19 0 000-.07v-18.25a.21.21 0 000-.12l-6.02-3.28v-1.1c0-.55-.5-.91-1.22-1.2a9.8 9.8 0 00-3.26-.5h-.72l-1.86-1v-.95c0-.56-.5-.91-1.22-1.2a9.79 9.79 0 00-3.26-.51 10.15 10.15 0 00-2.73.34c-.93.29-1.55.66-1.59 1.3v1.22l-2.55.36" fill="#ffdc5a"/><path d="M86.658 13.411a.21.21 0 000-.12l-6.18-3.47v-1.1c0-.55-.5-.91-1.22-1.2a9.8 9.8 0 00-3.26-.5h-.72l-1.86-1v.66l.83.45q-.43.08-.84.18v-2.24c0-.56-.5-.91-1.22-1.2a9.79 9.79 0 00-3.26-.51 10.15 10.15 0 00-2.73.34c-.93.29-1.55.66-1.59 1.3v1.22l-2.55.36v.6l2.54-.35v1.54a9.8 9.8 0 00-2.69.34h.14v-2.22c0-.56-.5-.92-1.22-1.2a9.5 9.5 0 00-3.26-.51 9.74 9.74 0 00-2.72.35c-.94.28-1.55.65-1.6 1.29v1.4l-5.42.76h-.1v.05a.14.14 0 010 .06v18.19a.51.51 0 000 .13l3.83 2.09 10.7 5.81h.13l24-3.37a.3.3 0 00.11 0 .19.19 0 000-.07v-18.25zm-10.68-5.81a9 9 0 013 .47c.67.25.87.55.85.64-.02.09-.28.5-1.17.75a9.53 9.53 0 01-2.56.32 9.05 9.05 0 01-3.05-.47c-.63-.24-.84-.52-.84-.62 0-.12.28-.49 1.17-.73a9.13 9.13 0 012.6-.36zm-9.61-3.32a10 10 0 012.56-.32 9.09 9.09 0 013 .47c.66.25.86.56.84.65-.02.09-.28.49-1.17.74a9.66 9.66 0 01-2.57.32 8.52 8.52 0 01-3-.47c-.63-.23-.85-.52-.84-.63-.02-.13.29-.51 1.18-.76zm-4.31 5.05a9.59 9.59 0 012.56-.32 9.09 9.09 0 013 .47c.66.25.87.55.84.65-.03.1-.28.49-1.17.74a9.55 9.55 0 01-2.56.31 8.86 8.86 0 01-3-.46c-.63-.24-.84-.52-.83-.63-.03-.13.28-.51 1.16-.76zm-8.22-2.89c0-.11.29-.49 1.18-.73a10.33 10.33 0 015.6.14c.66.25.86.55.84.65-.02.1-.27.49-1.16.74a9.27 9.27 0 01-2.57.32 9.09 9.09 0 01-3-.47c-.63-.24-.84-.52-.84-.62zm-5 2.61l4.43-.62v1.39c0 .55.51.91 1.23 1.19a9.42 9.42 0 003.26.51 10.54 10.54 0 002.58-.31v2.21c0 .56.5.91 1.21 1.2a9.59 9.59 0 003.26.5 10.29 10.29 0 002.67-.3c.93-.3 1.55-.66 1.59-1.31v-3.36a10.25 10.25 0 002.55-.3v2.21c0 .56.5.92 1.22 1.19a9.25 9.25 0 003.26.52 10.2 10.2 0 002.73-.35c.94-.28 1.55-.65 1.6-1.3v-1.59l5 2.72-23 3.23zm37.23 22.31c-.09 0-23.38 3.27-23.38 3.27v-17.59l23.37-3.28s-.04 17.48-.03 17.6z" fill="#f3aa00"/><path d="M38.098 101.221c0-.56-.5-.91-1.23-1.2a9.47 9.47 0 00-3.26-.5 9.74 9.74 0 00-2.72.35c-.93.27-1.55.65-1.59 1.29v1.38l-5.41.76h-.11v18.26a.28.28 0 000 .13l3.83 2.09 10.69 5.81a.28.28 0 00.12 0l24-3.37a.23.23 0 00.11 0v-18.26a.5.5 0 000-.12l-6-3.3v-1.14c0-.56-.5-.91-1.22-1.2a9.54 9.54 0 00-3.26-.51h-.72l-1.85-1v-.87c0-.55-.5-.91-1.22-1.19a9.26 9.26 0 00-3.26-.51 10 10 0 00-2.72.34c-.94.29-1.55.65-1.6 1.29v1.19l-2.54.36" fill="#ffdc5a"/><path d="M62.698 108.131a.5.5 0 000-.12l-6-3.3v-1.14c0-.56-.5-.91-1.22-1.2a9.54 9.54 0 00-3.26-.51h-.72l-1.85-1v.66l.84.46c-.29 0-.58.1-.84.17v-2.33c0-.55-.5-.91-1.22-1.19a9.26 9.26 0 00-3.26-.51 10 10 0 00-2.72.34c-.94.29-1.55.65-1.6 1.29v1.19l-2.54.36v.6l2.55-.36v1.53a10.3 10.3 0 00-2.69.35h.14v-2.23c0-.56-.5-.91-1.23-1.2a9.47 9.47 0 00-3.26-.5 9.74 9.74 0 00-2.72.35c-.93.27-1.55.65-1.59 1.29v1.38l-5.41.76h-.11v18.26a.28.28 0 000 .13l3.83 2.08 10.69 5.81a.28.28 0 00.12 0l24-3.37a.23.23 0 00.11 0v-18.26zm-10.68-5.8a9.11 9.11 0 013 .46c.66.25.86.55.84.65-.02.1-.27.49-1.17.74a10.25 10.25 0 01-5.61-.15c-.63-.23-.84-.51-.84-.62 0-.12.29-.5 1.18-.74a9.46 9.46 0 012.6-.34zm-9.61-3.32a9.59 9.59 0 012.56-.32 9.09 9.09 0 013 .47c.66.25.86.55.84.64-.02.09-.28.5-1.17.75a10 10 0 01-2.56.31 8.86 8.86 0 01-3.05-.46c-.63-.24-.84-.52-.84-.63.02-.14.29-.52 1.22-.76zm-4.3 5.05a9.53 9.53 0 012.56-.32 9 9 0 013 .46c.67.25.87.56.85.65-.02.09-.28.5-1.17.74a9.66 9.66 0 01-2.57.32 8.52 8.52 0 01-3-.47c-.63-.23-.85-.52-.84-.63-.03-.13.28-.51 1.17-.75zm-8.23-2.89c0-.12.29-.49 1.18-.74a9.51 9.51 0 012.55-.32 9.28 9.28 0 013 .46c.66.26.87.56.84.65-.03.09-.27.5-1.16.74a9.17 9.17 0 01-2.57.32 9 9 0 01-3-.46c-.64-.24-.85-.52-.85-.62zm-5 2.6l4.44-.62v1.37c0 .56.5.92 1.22 1.19a9.26 9.26 0 003.26.51 10.16 10.16 0 002.59-.31v2.21c0 .56.5.92 1.22 1.2a9.5 9.5 0 003.26.51 10.15 10.15 0 002.73-.34c.94-.29 1.56-.66 1.6-1.31v-3.35a10.74 10.74 0 002.55-.3v2.2c0 .56.51.92 1.23 1.2a9.42 9.42 0 003.26.51 10.21 10.21 0 002.73-.34c.93-.29 1.55-.66 1.59-1.31v-1.55l5 2.72-23 3.23zm37.23 22.31c-.08.06-23.37 3.27-23.37 3.27v-17.59l23.37-3.28s-.05 17.49-.04 17.6z" fill="#f3aa00"/><path d="M38.098 9.871c0-.56-.5-.91-1.23-1.2a9.47 9.47 0 00-3.26-.5 9.74 9.74 0 00-2.72.34c-.93.28-1.55.65-1.59 1.3v1.39l-5.41.76h-.11v18.25a.28.28 0 000 .13l3.83 2.09 10.69 5.81a.28.28 0 00.12 0l24-3.37a.17.17 0 00.11 0v-18.27a.5.5 0 000-.12v-.05l-6-3.29v-1.05c0-.56-.5-.92-1.22-1.2a9.54 9.54 0 00-3.26-.51h-.72l-1.85-1v-.94c0-.56-.5-.91-1.22-1.19a9.49 9.49 0 00-3.26-.52 10 10 0 00-2.72.35c-.94.28-1.55.65-1.6 1.29v1.21l-2.54.36" fill="#ffdc5a"/><path d="M62.698 16.821a.5.5 0 000-.12v-.05l-6-3.29v-1.27c0-.56-.5-.92-1.22-1.2a9.54 9.54 0 00-3.26-.51h-.72l-1.85-1v.66l.84.46a6.93 6.93 0 00-.84.17v-2.21c0-.56-.5-.91-1.22-1.19a9.49 9.49 0 00-3.26-.52 10 10 0 00-2.72.35c-.94.28-1.55.65-1.6 1.29v1.21l-2.54.36v.6l2.55-.36v1.52a10.31 10.31 0 00-2.69.34h.14v-2.23c0-.56-.5-.91-1.23-1.2a9.47 9.47 0 00-3.26-.5 9.74 9.74 0 00-2.72.34c-.93.28-1.55.65-1.59 1.3v1.39l-5.41.76h-.11v18.25a.28.28 0 000 .13l3.83 2.09 10.69 5.81a.28.28 0 00.12 0l24-3.37a.17.17 0 00.11 0v-18.27zm-10.68-5.8a9.11 9.11 0 013 .46c.66.25.86.55.84.65-.02.1-.27.49-1.17.74a10.25 10.25 0 01-5.61-.15c-.63-.24-.84-.52-.84-.62 0-.11.29-.49 1.18-.73a9.08 9.08 0 012.6-.39zm-9.61-3.32a9.59 9.59 0 012.56-.32 8.85 8.85 0 013 .47c.66.25.86.55.84.64-.02.09-.28.5-1.17.75a10 10 0 01-2.56.31 8.86 8.86 0 01-3.05-.46c-.63-.24-.84-.53-.84-.63.02-.18.29-.56 1.22-.8zm-4.3 5a10 10 0 012.56-.32 9 9 0 013 .47c.67.25.87.56.85.65-.02.09-.28.49-1.17.74a9.66 9.66 0 01-2.57.32 8.75 8.75 0 01-3-.47c-.63-.23-.85-.52-.84-.63-.03-.13.28-.51 1.17-.76zm-8.23-2.88c0-.12.29-.5 1.18-.74a9.51 9.51 0 012.55-.32 9.28 9.28 0 013 .46c.66.25.87.56.84.65-.03.09-.27.49-1.16.74a9.17 9.17 0 01-2.57.32 9 9 0 01-3-.46c-.64-.24-.85-.52-.85-.63zm-5 2.61l4.44-.62v1.36c0 .56.5.91 1.22 1.19a9.26 9.26 0 003.26.51 10.16 10.16 0 002.59-.31v2.21c0 .56.5.91 1.22 1.2a9.5 9.5 0 003.26.51 10.15 10.15 0 002.73-.34c.94-.29 1.56-.66 1.6-1.31v-3.36a10.24 10.24 0 002.55-.31v2.21c0 .56.51.92 1.23 1.2a9.42 9.42 0 003.26.51 10.21 10.21 0 002.73-.34c.93-.29 1.55-.66 1.59-1.31v-1.53l5 2.72-23.08 3.2zm37.23 22.31c-.08 0-23.37 3.27-23.37 3.27v-17.59l23.37-3.28s-.05 17.48-.04 17.59z" fill="#f3aa00"/><path d="M14.128 104.581c0-.56-.5-.91-1.22-1.2a9.55 9.55 0 00-3.26-.5 9.82 9.82 0 00-2.73.34c-.93.28-1.54.66-1.59 1.29v1.39l-5.41.76a.23.23 0 00-.11 0v.11c0 .06 0 0 0 0v18.19a.27.27 0 000 .13l3.83 2.09 10.69 5.81a.28.28 0 00.13 0l24-3.37a.21.21 0 00.1 0 .64.64 0 000-.07v-18.25a.23.23 0 000-.12.1.1 0 000-.05l-6-3.29v-1.02c0-.56-.5-.92-1.23-1.2a9.46 9.46 0 00-3.26-.51h-.72l-1.85-1v-.94c0-.56-.51-.91-1.23-1.19a9.47 9.47 0 00-3.25-.52 9.76 9.76 0 00-2.73.35c-.93.28-1.55.65-1.6 1.29v1.2l-2.54.35" fill="#ffdc5a"/><path d="M38.728 111.491a.23.23 0 000-.12.1.1 0 000-.05l-6-3.29v-1.21c0-.56-.5-.92-1.23-1.2a9.46 9.46 0 00-3.26-.51h-.72l-1.85-1v.71l.83.45q-.43.07-.84.18v-2.23c0-.56-.51-.91-1.23-1.19a9.47 9.47 0 00-3.25-.52 9.76 9.76 0 00-2.73.35c-.93.28-1.55.65-1.6 1.29v1.2l-2.54.35v.6l2.54-.35v1.52a10.18 10.18 0 00-2.68.34h.13v-2.23c0-.56-.5-.91-1.22-1.2a9.55 9.55 0 00-3.26-.5 9.82 9.82 0 00-2.73.34c-.93.28-1.54.66-1.59 1.29v1.39l-5.41.76a.23.23 0 00-.11 0v.11c0 .06 0 0 0 0v18.19a.27.27 0 000 .13l3.83 2.09 10.69 5.81a.28.28 0 00.13 0l24-3.37a.21.21 0 00.1 0 .64.64 0 000-.07v-18.25zm-10.68-5.8a9 9 0 013 .46c.66.25.86.55.84.65-.02.1-.27.49-1.16.74a9.66 9.66 0 01-2.57.32 9 9 0 01-3-.47c-.64-.24-.85-.52-.85-.62 0-.12.29-.49 1.18-.74a9.53 9.53 0 012.56-.34zm-9.6-3.32a9.53 9.53 0 012.56-.32 8.83 8.83 0 013 .47c.67.25.87.55.84.64-.03.09-.28.5-1.17.74a9.53 9.53 0 01-2.56.32 9.11 9.11 0 01-3-.46c-.63-.24-.84-.53-.83-.63-.04-.14.27-.52 1.19-.76zm-4.31 5a10 10 0 012.56-.32 9.09 9.09 0 013 .47c.66.25.86.55.84.65-.02.1-.28.49-1.17.74a9.61 9.61 0 01-2.57.32 9.07 9.07 0 01-3-.47c-.63-.23-.84-.52-.84-.63-.02-.09.29-.47 1.18-.72zm-8.22-2.89c0-.12.28-.5 1.17-.74a9.53 9.53 0 012.56-.32 9.26 9.26 0 013 .46c.67.25.87.56.85.65-.02.09-.28.49-1.17.74a9.15 9.15 0 01-2.56.32 8.81 8.81 0 01-3-.47c-.63-.24-.84-.51-.84-.62zm-5 2.61l4.43-.62v1.36c0 .55.51.91 1.22 1.19a9.26 9.26 0 003.26.51 10.11 10.11 0 002.59-.31v2.21c0 .56.5.91 1.22 1.2a9.55 9.55 0 003.26.5 9.77 9.77 0 002.73-.34c.94-.28 1.56-.65 1.6-1.3v-3.36a10.71 10.71 0 002.54-.31v2.24c0 .56.5.92 1.22 1.2a9.5 9.5 0 003.26.51 10.2 10.2 0 002.73-.35c.93-.28 1.55-.65 1.59-1.3v-1.92.37l5 2.72-23 3.23zm37.22 22.31c-.08 0-23.37 3.27-23.37 3.27v-17.59l23.37-3.28s-.05 17.53-.04 17.64z" fill="#f3aa00"/><path d="M14.128 86.311c0-.56-.5-.91-1.22-1.2a9.55 9.55 0 00-3.26-.5 9.82 9.82 0 00-2.73.34c-.93.28-1.54.65-1.59 1.29v1.39l-5.41.76a.23.23 0 00-.11 0v18.3a.27.27 0 000 .13l3.83 2.09 10.69 5.81a.28.28 0 00.13 0l24-3.37a.21.21 0 00.1 0v-18.3a.23.23 0 000-.12l-6-3.29v-1.14c0-.56-.5-.92-1.23-1.2a9.46 9.46 0 00-3.26-.51h-.72l-1.85-1v-.94c0-.55-.51-.91-1.23-1.2a9.72 9.72 0 00-3.25-.51 10.57 10.57 0 00-2.73.34c-.93.29-1.55.66-1.6 1.3v1.2l-2.54.35" fill="#ffdc5a"/><path d="M38.728 93.221a.23.23 0 000-.12l-6-3.29v-1.14c0-.56-.5-.92-1.23-1.2a9.46 9.46 0 00-3.26-.51h-.72l-1.85-1v.66l.83.46a7.34 7.34 0 00-.84.17v-2.23c0-.55-.51-.91-1.23-1.2a9.72 9.72 0 00-3.25-.51 10.57 10.57 0 00-2.73.34c-.93.29-1.55.66-1.6 1.3v1.2l-2.54.35v.61l2.54-.36v1.52a9.78 9.78 0 00-2.68.34h.13v-2.23c0-.56-.5-.91-1.22-1.2a9.55 9.55 0 00-3.26-.5 9.82 9.82 0 00-2.73.34c-.93.28-1.54.65-1.59 1.29v1.39l-5.41.76a.23.23 0 00-.11 0v18.3a.27.27 0 000 .13l3.83 2.09 10.69 5.81a.28.28 0 00.13 0l24-3.37a.21.21 0 00.1 0v-18.31zm-10.68-5.81a9 9 0 013 .47c.66.25.86.55.84.65-.02.1-.27.49-1.16.74a9.66 9.66 0 01-2.57.32 9 9 0 01-3-.47c-.64-.24-.85-.52-.85-.62 0-.12.29-.49 1.18-.73a9.11 9.11 0 012.56-.36zm-9.6-3.31a9.53 9.53 0 012.56-.32 8.83 8.83 0 013 .47c.67.25.87.55.84.64-.03.09-.28.5-1.17.74a9.53 9.53 0 01-2.56.32 8.61 8.61 0 01-3-.47c-.63-.23-.84-.51-.83-.62-.04-.14.27-.52 1.19-.76zm-4.31 5a10 10 0 012.56-.32 9.09 9.09 0 013 .47c.66.25.86.55.84.65-.02.1-.28.49-1.17.74a9.63 9.63 0 01-2.57.31 8.61 8.61 0 01-3-.46c-.63-.24-.84-.52-.84-.63-.02-.04.29-.47 1.18-.72zm-8.22-2.89c0-.12.28-.5 1.17-.74a9.53 9.53 0 012.56-.32 9.26 9.26 0 013 .46c.67.25.87.56.85.65-.02.09-.28.49-1.17.74a9.15 9.15 0 01-2.56.32 8.81 8.81 0 01-3-.47c-.63-.23-.84-.51-.84-.62zm-5 2.61l4.43-.62v1.36c0 .55.51.91 1.22 1.19a9.5 9.5 0 003.26.51 10.11 10.11 0 002.59-.31v2.21c0 .56.5.92 1.22 1.2a9.55 9.55 0 003.26.5 9.77 9.77 0 002.73-.34c.94-.28 1.56-.65 1.6-1.3v-3.36a10.22 10.22 0 002.54-.31v2.27c0 .56.5.92 1.22 1.19a9.25 9.25 0 003.26.52 10.2 10.2 0 002.73-.35c.93-.28 1.55-.65 1.59-1.3v-1.92.37l5 2.72-23 3.22zm37.22 22.31c-.08.05-23.37 3.27-23.37 3.27v-17.59l23.37-3.28s-.05 17.53-.04 17.64z" fill="#f3aa00"/><path d="M14.128 68.041c0-.56-.5-.91-1.22-1.2a9.54 9.54 0 00-3.26-.51 9.81 9.81 0 00-2.73.35c-.93.28-1.54.65-1.59 1.29v1.39l-5.41.76a.23.23 0 00-.11 0v.06c0 .06 0 0 0 0v18.19a.27.27 0 000 .13l3.83 2.09 10.69 5.81a.5.5 0 00.13 0l24-3.37h.1v-18.31a.25.25 0 000-.12v-.05l-6-3.29v-1.14c0-.56-.5-.92-1.23-1.2a9.46 9.46 0 00-3.26-.51h-.72l-1.85-1v-.94c0-.56-.51-.91-1.23-1.2a9.72 9.72 0 00-3.25-.51 10.14 10.14 0 00-2.73.35c-.93.28-1.55.65-1.6 1.29v1.42l-2.54.35" fill="#ffdc5a"/><path d="M38.728 74.951a.25.25 0 000-.12v-.05l-6-3.29v-1.14c0-.56-.5-.92-1.23-1.2a9.46 9.46 0 00-3.26-.51h-.72l-1.85-1v.66l.83.45q-.43.07-.84.18v-2.23c0-.56-.51-.91-1.23-1.2a9.72 9.72 0 00-3.25-.51 10.14 10.14 0 00-2.73.35c-.93.28-1.55.65-1.6 1.29v1.19l-2.54.35v.61l2.54-.36v1.52a9.78 9.78 0 00-2.68.34h.13v-2.23c0-.56-.5-.91-1.22-1.2a9.54 9.54 0 00-3.26-.51 9.81 9.81 0 00-2.73.35c-.93.28-1.54.65-1.59 1.29v1.39l-5.41.76a.23.23 0 00-.11 0v.06c0 .06 0 0 0 0v18.19a.27.27 0 000 .13l3.83 2.09 10.69 5.81a.5.5 0 00.13 0l24-3.37h.1v-18.31zm-10.68-5.8a9 9 0 013 .46c.66.25.86.55.84.65-.02.1-.27.49-1.16.74a9.66 9.66 0 01-2.57.32 9 9 0 01-3-.47c-.64-.24-.85-.52-.85-.62 0-.12.29-.49 1.18-.74a9.53 9.53 0 012.56-.34zm-9.57-3.33a9.53 9.53 0 012.56-.32 9.09 9.09 0 013 .46c.67.26.87.56.84.65-.03.09-.28.5-1.17.74a9.53 9.53 0 01-2.56.32 9.11 9.11 0 01-3-.46c-.63-.24-.84-.53-.83-.63-.07-.13.24-.51 1.16-.76zm-4.31 5a9.59 9.59 0 012.56-.32 9.09 9.09 0 013 .47c.66.25.86.55.84.65-.02.1-.28.49-1.17.74a9.61 9.61 0 01-2.57.32 8.83 8.83 0 01-3-.47c-.63-.24-.84-.52-.84-.63-.05-.08.26-.46 1.15-.71zm-8.22-2.89c0-.12.28-.5 1.17-.74a9.53 9.53 0 012.56-.32 9 9 0 013 .46c.67.25.87.55.85.65-.02.1-.28.49-1.17.74a9.53 9.53 0 01-2.56.32 8.81 8.81 0 01-3-.47c-.63-.23-.84-.51-.84-.62zm-5 2.61l4.43-.63v1.37c0 .55.51.91 1.22 1.19a9.26 9.26 0 003.26.51 10.11 10.11 0 002.59-.31v2.21c0 .56.5.91 1.22 1.2a9.54 9.54 0 003.26.51 9.76 9.76 0 002.73-.35c.94-.28 1.56-.65 1.6-1.3v-3.36a9.78 9.78 0 002.54-.3v2.24c0 .56.5.92 1.22 1.19a9.25 9.25 0 003.26.52 9.81 9.81 0 002.73-.35c.93-.28 1.55-.65 1.59-1.3v-1.92.37l5 2.72-23 3.23zm37.22 22.31c-.08 0-23.37 3.27-23.37 3.27v-17.59l23.37-3.28s-.08 17.57-.07 17.65z" fill="#f3aa00"/><path d="M14.128 49.761c0-.56-.5-.91-1.22-1.2a9.55 9.55 0 00-3.26-.5 9.82 9.82 0 00-2.73.34c-.93.28-1.54.65-1.59 1.29v1.39l-5.41.75h-.11v.06c0 .06 0 0 0 0v18.19a.27.27 0 000 .13l3.83 2.09 10.69 5.81a.28.28 0 00.13 0l24-3.37a.14.14 0 00.1 0 .64.64 0 000-.07v-17.96a.23.23 0 000-.12.1.1 0 000-.05l-6-3.29v-1.14c0-.56-.5-.92-1.23-1.2a9.46 9.46 0 00-3.26-.51h-.72l-1.85-1v-.94c0-.56-.51-.91-1.23-1.2a9.72 9.72 0 00-3.25-.51 10.15 10.15 0 00-2.73.34c-.93.29-1.55.66-1.6 1.3v1.2l-2.54.35" fill="#ffdc5a"/><path d="M38.728 56.681a.23.23 0 000-.12.1.1 0 000-.05l-6-3.29v-1.14c0-.56-.5-.92-1.23-1.2a9.46 9.46 0 00-3.26-.51h-.72l-1.85-1v.66l.83.45q-.43.07-.84.18v-2.23c0-.56-.51-.91-1.23-1.2a9.72 9.72 0 00-3.25-.51 10.15 10.15 0 00-2.73.34c-.93.29-1.55.66-1.6 1.3v1.2l-2.54.35v.61l2.54-.36v1.52a9.78 9.78 0 00-2.68.34h.13v-2.24c0-.56-.5-.91-1.22-1.2a9.55 9.55 0 00-3.26-.5 9.82 9.82 0 00-2.73.34c-.93.28-1.54.65-1.59 1.29v1.39l-5.41.75h-.11v.06c0 .06 0 0 0 0v18.19a.27.27 0 000 .13l3.83 2.09 10.69 5.81a.28.28 0 00.13 0l24-3.37a.14.14 0 00.1 0 .64.64 0 000-.07v-17.98zm-10.68-5.81a9 9 0 013 .47c.66.25.86.55.84.65-.02.1-.27.49-1.16.74a9.66 9.66 0 01-2.57.32 9 9 0 01-3-.47c-.64-.24-.85-.52-.85-.62 0-.12.29-.49 1.18-.74a9.51 9.51 0 012.56-.35zm-9.6-3.31a9.53 9.53 0 012.56-.32 9.09 9.09 0 013 .46c.67.25.87.56.84.65-.03.09-.28.5-1.17.74a9.53 9.53 0 01-2.56.32 9.11 9.11 0 01-3-.46c-.63-.24-.84-.53-.83-.63-.04-.14.27-.5 1.19-.76zm-4.31 5a9.59 9.59 0 012.56-.32 9.09 9.09 0 013 .47c.66.25.86.55.84.65-.02.1-.28.49-1.17.74a9.61 9.61 0 01-2.57.32 9.07 9.07 0 01-3-.47c-.63-.24-.84-.52-.84-.63-.02-.09.29-.5 1.18-.72zm-8.22-2.89c0-.12.28-.5 1.17-.74a9.53 9.53 0 012.56-.32 9 9 0 013 .46c.67.25.87.55.85.65-.02.1-.28.49-1.17.74a9.15 9.15 0 01-2.56.32 9.05 9.05 0 01-3-.47c-.63-.23-.84-.51-.84-.62zm-5 2.61l4.43-.63v1.37c0 .55.51.91 1.22 1.19a9.5 9.5 0 003.26.51 10.57 10.57 0 002.59-.31v2.21c0 .56.5.91 1.22 1.2a9.55 9.55 0 003.26.5 9.77 9.77 0 002.73-.34c.94-.29 1.56-.65 1.6-1.3v-3.41a9.78 9.78 0 002.54-.3v2.24c0 .56.5.92 1.22 1.19a9.25 9.25 0 003.26.52 10.2 10.2 0 002.73-.35c.93-.28 1.55-.65 1.59-1.3v-1.92.47l5 2.72-23 3.23zm37.22 22.3c-.08.06-23.37 3.28-23.37 3.28v-17.59l23.37-3.28s-.05 17.52-.04 17.63z" fill="#f3aa00"/><path d="M14.128 31.491c0-.56-.5-.92-1.22-1.2a9.54 9.54 0 00-3.26-.51 9.81 9.81 0 00-2.73.35c-.93.28-1.54.65-1.59 1.29v1.4l-5.41.76h-.11v.06c0 .06 0 0 0 0v18.19a.27.27 0 000 .13l3.83 2.09 10.69 5.81a.28.28 0 00.13 0l24-3.37h.1v-18.08a.23.23 0 000-.12l-6-3.29v-1.28c0-.55-.5-.91-1.23-1.2a9.71 9.71 0 00-3.26-.5h-.72l-1.85-1v-.94c0-.56-.51-.91-1.23-1.2a10.71 10.71 0 00-6-.16c-.93.28-1.55.65-1.6 1.29v1.2l-2.54.35" fill="#ffdc5a"/><path d="M38.728 38.411a.23.23 0 000-.12l-6-3.29v-1.28c0-.55-.5-.91-1.23-1.2a9.71 9.71 0 00-3.26-.5h-.72l-1.85-1v.66l.83.45q-.43.08-.84.18v-2.23c0-.56-.51-.91-1.23-1.2a10.71 10.71 0 00-6-.16c-.93.28-1.55.65-1.6 1.29v1.2l-2.54.35v.6l2.54-.35v1.52a9.78 9.78 0 00-2.68.34h.13v-2.24c0-.56-.5-.92-1.22-1.2a9.54 9.54 0 00-3.26-.51 9.81 9.81 0 00-2.73.35c-.93.28-1.54.65-1.59 1.29v1.46l-5.41.76h-.11v.06c0 .06 0 0 0 0v18.19a.27.27 0 000 .13l3.83 2.09 10.69 5.81a.28.28 0 00.13 0l24-3.37h.1v-18.08zm-10.68-5.8a9 9 0 013 .46c.66.25.86.55.84.64-.02.09-.27.5-1.16.75a9.66 9.66 0 01-2.57.32 9 9 0 01-3-.47c-.64-.24-.85-.52-.85-.63 0-.12.29-.49 1.18-.74a9.53 9.53 0 012.56-.33zm-9.6-3.32a9.53 9.53 0 012.56-.32 9.09 9.09 0 013 .46c.67.25.87.56.84.65-.03.09-.28.49-1.17.74a9.53 9.53 0 01-2.56.32 9.11 9.11 0 01-3-.46c-.63-.24-.84-.53-.83-.63-.04-.14.27-.52 1.19-.76zm-4.31 5a9.59 9.59 0 012.56-.32 9.09 9.09 0 013 .47c.66.25.86.55.84.65-.02.1-.28.49-1.17.74a9.63 9.63 0 01-2.57.31 8.84 8.84 0 01-3-.46c-.63-.24-.84-.52-.84-.63-.02-.09.29-.47 1.18-.72zm-8.22-2.89c0-.12.28-.49 1.17-.73a9.53 9.53 0 012.56-.32 9 9 0 013 .46c.67.25.87.55.85.65-.02.1-.28.49-1.17.74a9.53 9.53 0 01-2.56.32 8.81 8.81 0 01-3-.47c-.63-.24-.84-.51-.84-.62zm-5 2.61l4.43-.63v1.44c0 .55.51.91 1.22 1.19a9.5 9.5 0 003.26.51 10.11 10.11 0 002.59-.31v2.21c0 .56.5.91 1.22 1.2a9.55 9.55 0 003.26.5 9.77 9.77 0 002.73-.34c.94-.29 1.56-.65 1.6-1.3v-3.36a10.23 10.23 0 002.54-.3v2.24c0 .56.5.92 1.22 1.19a9.25 9.25 0 003.26.52 10.2 10.2 0 002.73-.35c.93-.28 1.55-.65 1.59-1.3v-1.92.37l5 2.71-23 3.23zm37.22 22.3c-.08.06-23.37 3.28-23.37 3.28v-17.59l23.37-3.28s-.05 17.52-.04 17.63z" fill="#f3aa00"/><path d="M14.128 13.221c0-.56-.5-.92-1.22-1.2a9.54 9.54 0 00-3.26-.51 9.81 9.81 0 00-2.73.35c-.93.28-1.54.65-1.59 1.29v1.38l-5.41.77a.23.23 0 00-.11 0v.06c0 .06 0 0 0 0v18.19a.27.27 0 000 .13l3.83 2.09 10.69 5.81a.5.5 0 00.13 0l24-3.37h.1v-18.3a.23.23 0 000-.12.1.1 0 000-.05l-6-3.29v-1c0-.56-.5-.92-1.23-1.21a9.71 9.71 0 00-3.26-.5h-.72l-1.85-1v-.92c0-.56-.51-.91-1.23-1.2a9.72 9.72 0 00-3.25-.51 10.15 10.15 0 00-2.73.34c-.93.29-1.55.66-1.6 1.3v1.2l-2.54.35" fill="#ffdc5a"/><path d="M38.728 20.141a.23.23 0 000-.12.1.1 0 000-.05l-6-3.29v-1.23c0-.56-.5-.92-1.23-1.21a9.71 9.71 0 00-3.26-.5h-.72l-1.85-1v.66l.83.45q-.43.08-.84.18v-2.23c0-.56-.51-.91-1.23-1.2a9.72 9.72 0 00-3.25-.51 10.15 10.15 0 00-2.73.34c-.93.29-1.55.66-1.6 1.3v1.2l-2.54.35v.61l2.54-.36v1.52a9.78 9.78 0 00-2.68.34h.13v-2.24c0-.56-.5-.92-1.22-1.2a9.54 9.54 0 00-3.26-.51 9.81 9.81 0 00-2.73.35c-.93.28-1.54.65-1.59 1.29v1.38l-5.41.77a.23.23 0 00-.11 0v.06c0 .06 0 0 0 0v18.19a.27.27 0 000 .13l3.83 2.09 10.69 5.81a.5.5 0 00.13 0l24-3.37h.1v-18.3zm-10.68-5.81a9 9 0 013 .47c.66.25.86.55.84.65-.02.1-.27.49-1.16.74a9.66 9.66 0 01-2.57.32 9 9 0 01-3-.47c-.64-.24-.85-.52-.85-.62 0-.12.29-.49 1.18-.74a9.51 9.51 0 012.56-.35zm-9.57-3.31a9.53 9.53 0 012.56-.32 9.09 9.09 0 013 .46c.67.25.87.56.84.65-.03.09-.28.49-1.17.74a9.53 9.53 0 01-2.56.32 8.85 8.85 0 01-3-.47c-.63-.23-.84-.52-.83-.63-.07-.13.24-.51 1.16-.75zm-4.31 5a9.59 9.59 0 012.56-.32 9.09 9.09 0 013 .47c.66.25.86.55.84.65-.02.1-.28.49-1.17.74a9.63 9.63 0 01-2.57.31 8.84 8.84 0 01-3-.46c-.63-.24-.84-.52-.84-.63-.05-.09.26-.47 1.15-.72zm-8.22-2.89c0-.12.28-.5 1.17-.74a9.53 9.53 0 012.56-.32 9 9 0 013 .46c.67.25.87.55.85.65-.02.1-.28.49-1.17.74a9.53 9.53 0 01-2.56.32 9.05 9.05 0 01-3-.47c-.63-.24-.84-.51-.84-.62zm-5 2.61l4.43-.63v1.41c0 .55.51.91 1.22 1.19a9.5 9.5 0 003.26.51 10.11 10.11 0 002.59-.31v2.21c0 .56.5.91 1.22 1.2a9.55 9.55 0 003.26.5 9.77 9.77 0 002.73-.34c.94-.29 1.56-.65 1.6-1.3v-3.36a9.78 9.78 0 002.54-.3v2.24c0 .56.5.92 1.22 1.19a9.25 9.25 0 003.26.52 10.2 10.2 0 002.73-.35c.93-.28 1.55-.65 1.59-1.31v-1.91.37l5 2.72-23 3.22zm37.22 22.3c-.08.06-23.37 3.28-23.37 3.28v-17.59l23.37-3.28s-.08 17.52-.07 17.63z" fill="#f3aa00"/><path d="M101.108 102.691c0-.56-.5-.91-1.22-1.2a9.55 9.55 0 00-3.26-.5 9.82 9.82 0 00-2.73.34c-.93.28-1.54.65-1.59 1.29v1.38l-5.42.76h-.1a.14.14 0 010 .06v18.19a.27.27 0 000 .13v.05l3.83 2.09 10.7 5.81a.38.38 0 00.13 0l24-3.37h.11a.19.19 0 000-.07v.17-18.19a.23.23 0 000-.12v-.05l-6-3.29v-1.25c0-.56-.5-.92-1.23-1.21a9.69 9.69 0 00-3.25-.5h-.73l-1.85-1v-.93c0-.56-.5-.91-1.22-1.2a9.79 9.79 0 00-3.26-.51 10.57 10.57 0 00-2.73.34c-.93.29-1.55.66-1.59 1.3v1.19l-2.55.36" fill="#ffdc5a"/><path d="M125.708 109.611a.23.23 0 000-.12v-.05l-6-3.29v-1.23c0-.56-.5-.92-1.23-1.21a9.69 9.69 0 00-3.25-.5h-.73l-1.85-1v.67l.83.45q-.43.07-.84.18v-2.23c0-.56-.5-.91-1.22-1.2a9.79 9.79 0 00-3.26-.51 10.57 10.57 0 00-2.73.34c-.93.29-1.55.66-1.59 1.3v1.19l-2.55.36v.61l2.54-.36v1.54a10.2 10.2 0 00-2.69.34h.14v-2.24c0-.56-.5-.91-1.22-1.2a9.55 9.55 0 00-3.26-.5 9.82 9.82 0 00-2.73.34c-.93.28-1.54.65-1.59 1.29v1.38l-5.42.76h-.1a.14.14 0 010 .06v18.19a.27.27 0 000 .13v.05l3.83 2.09 10.7 5.81a.38.38 0 00.13 0l24-3.37h.11a.19.19 0 000-.07v.21-18.19zm-10.67-5.8a9 9 0 013 .46c.67.25.87.55.84.65-.03.1-.27.49-1.16.74a9.53 9.53 0 01-2.56.32 9.05 9.05 0 01-3-.47c-.64-.24-.84-.52-.84-.62 0-.12.28-.49 1.17-.74a9.55 9.55 0 012.55-.33zm-9.61-3.32a9.53 9.53 0 012.56-.32 8.79 8.79 0 013 .47c.67.25.87.55.85.64-.02.09-.28.5-1.17.74a9.66 9.66 0 01-2.57.32 9 9 0 01-3-.46c-.63-.24-.85-.53-.84-.63-.03-.14.28-.52 1.22-.76zm-4.31 5a10 10 0 012.56-.32 9.09 9.09 0 013 .47c.66.25.87.55.84.65-.03.1-.28.49-1.17.74a9.53 9.53 0 01-2.56.32 9.09 9.09 0 01-3-.47c-.63-.24-.84-.52-.84-.63-.02-.09.28-.43 1.17-.72zm-8.22-2.89c0-.11.29-.49 1.18-.73a9.51 9.51 0 012.55-.32 9.11 9.11 0 013 .46c.66.25.86.55.84.65-.02.1-.27.49-1.17.74a10.25 10.25 0 01-5.61-.15c-.63-.24-.84-.51-.84-.62zm-5 2.61l4.43-.62v1.36c0 .55.51.91 1.23 1.19a9.42 9.42 0 003.26.51 10.54 10.54 0 002.58-.31v2.21c0 .56.5.91 1.21 1.2a9.59 9.59 0 003.26.5 10.17 10.17 0 002.73-.33c.94-.3 1.56-.67 1.6-1.31v-3.36a10.79 10.79 0 002.55-.31v2.21c0 .56.5.92 1.22 1.2a9.5 9.5 0 003.26.51 10.2 10.2 0 002.73-.35c.94-.28 1.55-.65 1.59-1.3v-1.92.37l5 2.72-23 3.23zm37.23 22.31c-.09 0-23.37 3.27-23.37 3.27v-17.59l23.37-3.28s-.05 17.52-.04 17.64z" fill="#f3aa00"/><path d="M101.108 84.421c0-.56-.5-.92-1.22-1.2a9.54 9.54 0 00-3.26-.51 9.81 9.81 0 00-2.73.35c-.93.28-1.54.65-1.59 1.29v1.38l-5.42.77a.19.19 0 00-.1 0v.05a.14.14 0 010 .07v18.19a.27.27 0 000 .13l3.83 2.09 10.7 5.81a.38.38 0 00.13 0l24-3.37a.25.25 0 00.11 0 .11.11 0 000-.06v-18.2a.23.23 0 000-.12l-6-3.29v-1.14c0-.56-.5-.92-1.23-1.2a9.44 9.44 0 00-3.25-.51h-.73l-1.85-1v-.94c0-.56-.5-.91-1.22-1.2a9.79 9.79 0 00-3.26-.51 10.15 10.15 0 00-2.73.34c-.93.29-1.55.66-1.59 1.3v1.19l-2.55.36" fill="#ffdc5a"/><path d="M125.708 91.341a.23.23 0 000-.12l-6-3.29v-1.14c0-.56-.5-.92-1.23-1.2a9.44 9.44 0 00-3.25-.51h-.73l-1.85-1v.66l.83.46a7.34 7.34 0 00-.84.17v-2.23c0-.56-.5-.91-1.22-1.2a9.79 9.79 0 00-3.26-.51 10.15 10.15 0 00-2.73.34c-.93.29-1.55.66-1.59 1.3v1.19l-2.55.36v.6l2.54-.35v1.54a9.8 9.8 0 00-2.69.34h.14v-2.33c0-.56-.5-.92-1.22-1.2a9.54 9.54 0 00-3.26-.51 9.81 9.81 0 00-2.73.35c-.93.28-1.54.65-1.59 1.29v1.38l-5.42.77a.19.19 0 00-.1 0v.05a.14.14 0 010 .07v18.19a.27.27 0 000 .13l3.83 2.09 10.7 5.81h.13l24-3.37a.25.25 0 00.11 0 .11.11 0 000-.06v-18.2zm-10.67-5.81a9 9 0 013 .47c.67.25.87.55.84.65-.03.1-.27.49-1.16.74a9.53 9.53 0 01-2.56.32 9.05 9.05 0 01-3-.47c-.64-.24-.84-.52-.84-.63 0-.12.28-.49 1.17-.74a9.53 9.53 0 012.55-.34zm-9.56-3.31a9.53 9.53 0 012.56-.32 9 9 0 013 .46c.67.25.87.56.85.65-.02.09-.28.49-1.17.74a9.66 9.66 0 01-2.57.32 8.75 8.75 0 01-3-.47c-.63-.23-.85-.52-.84-.62-.08-.16.23-.52 1.17-.76zm-4.31 5a10 10 0 012.56-.32 9.09 9.09 0 013 .47c.66.25.87.55.84.65-.03.1-.28.49-1.17.74a9.53 9.53 0 01-2.56.32 9.09 9.09 0 01-3-.47c-.63-.24-.84-.52-.84-.63-.07-.09.23-.47 1.12-.72zm-8.22-2.89c0-.12.29-.5 1.18-.74a9.13 9.13 0 012.55-.32 9.37 9.37 0 013 .46c.66.25.86.56.84.65-.02.09-.27.49-1.17.74a9.53 9.53 0 01-2.56.32 9.09 9.09 0 01-3-.47c-.63-.23-.84-.51-.84-.62zm-5 2.61l4.43-.63v1.37c0 .55.51.91 1.23 1.19a9.42 9.42 0 003.26.51 10.08 10.08 0 002.58-.31v2.21c0 .56.5.91 1.21 1.2a9.59 9.59 0 003.26.5 10.17 10.17 0 002.73-.33c.94-.3 1.56-.66 1.6-1.31v-3.41a10.31 10.31 0 002.55-.3v2.21c0 .56.5.92 1.22 1.19a9.25 9.25 0 003.26.52 10.2 10.2 0 002.73-.35c.94-.28 1.55-.65 1.59-1.31v-1.91.37l5 2.71-23 3.23zm37.23 22.3c-.09.06-23.37 3.28-23.37 3.28v-17.59l23.37-3.28s-.1 17.52-.09 17.63z" fill="#f3aa00"/><path d="M101.108 29.611c0-.56-.5-.92-1.22-1.2a9.54 9.54 0 00-3.26-.51 9.81 9.81 0 00-2.73.35c-.93.28-1.54.65-1.59 1.29v1.38l-5.42.76h-.1a.14.14 0 010 .06v18.19a.27.27 0 000 .13l3.83 2.09 10.7 5.81h.13l24-3.37h.11a.11.11 0 000-.06v-18.19a.22.22 0 000-.12v-.05l-6-3.29v-1.06c0-.55-.5-.91-1.23-1.2a9.69 9.69 0 00-3.25-.5h-.73l-1.85-1v-.93c0-.56-.5-.91-1.22-1.2a9.79 9.79 0 00-3.26-.51 10.15 10.15 0 00-2.73.34c-.93.29-1.55.66-1.59 1.3v1.2l-2.55.35" fill="#ffdc5a"/><path d="M125.708 36.531a.22.22 0 000-.12v-.05l-6-3.29v-1.25c0-.55-.5-.91-1.23-1.2a9.69 9.69 0 00-3.25-.5h-.73l-1.85-1v.7l.83.45q-.43.07-.84.18v-2.23c0-.56-.5-.91-1.22-1.2a9.79 9.79 0 00-3.26-.51 10.15 10.15 0 00-2.73.34c-.93.29-1.55.66-1.59 1.3v1.2l-2.55.35v.6l2.54-.35v1.54a9.8 9.8 0 00-2.69.34h.14v-2.24c0-.56-.5-.92-1.22-1.2a9.54 9.54 0 00-3.26-.51 9.81 9.81 0 00-2.73.35c-.93.28-1.54.65-1.59 1.29v1.38l-5.42.76h-.1a.14.14 0 010 .06v18.19a.27.27 0 000 .13l3.83 2.09 10.7 5.81h.13l24-3.37h.11a.11.11 0 000-.06v-18.19zm-10.67-5.81a9 9 0 013 .47c.67.24.87.55.84.64-.03.09-.27.5-1.16.75a9.53 9.53 0 01-2.56.32 9.05 9.05 0 01-3-.47c-.64-.24-.84-.52-.84-.63 0-.12.28-.49 1.17-.74a9.53 9.53 0 012.55-.34zm-9.61-3.32a10 10 0 012.56-.32 9 9 0 013 .47c.67.25.87.56.85.65-.02.09-.28.49-1.17.74a9.66 9.66 0 01-2.57.32 8.75 8.75 0 01-3-.47c-.63-.23-.85-.52-.84-.63-.03-.13.28-.51 1.22-.76zm-4.31 5a9.59 9.59 0 012.56-.32 9.09 9.09 0 013 .47c.66.25.87.55.84.65-.03.1-.28.49-1.17.74a9.55 9.55 0 01-2.56.31 8.86 8.86 0 01-3-.46c-.63-.24-.84-.52-.84-.63-.02-.08.28-.47 1.17-.71zm-8.22-2.89c0-.12.29-.49 1.18-.73a10.33 10.33 0 015.6.14c.66.25.86.55.84.65-.02.1-.27.49-1.17.74a9.53 9.53 0 01-2.56.32 9.09 9.09 0 01-3-.47c-.63-.24-.84-.52-.84-.62zm-5 2.61l4.43-.63v1.37c0 .56.51.92 1.23 1.2a9.42 9.42 0 003.26.51 10.54 10.54 0 002.58-.31v2.21c0 .56.5.91 1.21 1.2a9.59 9.59 0 003.26.5 10.15 10.15 0 002.73-.34c.94-.29 1.56-.66 1.6-1.3v-3.41a10.31 10.31 0 002.55-.3v2.2c0 .56.5.91 1.22 1.19a9.26 9.26 0 003.26.51 10.21 10.21 0 002.73-.34c.94-.28 1.55-.65 1.59-1.31v-1.91.37l5 2.71-23 3.23zm37.23 22.3c-.09.06-23.37 3.28-23.37 3.28v-17.59l23.37-3.28s-.05 17.53-.04 17.64z" fill="#f3aa00"/><path d="M101.108 11.341c0-.56-.5-.92-1.22-1.2a9.54 9.54 0 00-3.26-.51 9.81 9.81 0 00-2.73.35c-.93.28-1.54.65-1.59 1.29v1.38l-5.42.76h-.1a.14.14 0 010 .07v18.19a.3.3 0 000 .13l3.83 2.09 10.7 5.81h.13l24-3.37h.11a.11.11 0 000-.06v-18.24a.2.2 0 000-.11v-.06l-6-3.29v-1c0-.55-.5-.91-1.23-1.2a9.69 9.69 0 00-3.25-.5h-.73l-1.85-1v-.94c0-.56-.5-.91-1.22-1.2a9.79 9.79 0 00-3.26-.51 10.15 10.15 0 00-2.73.34c-.93.29-1.55.66-1.59 1.3v1.19l-2.55.36" fill="#ffdc5a"/><path d="M125.708 18.251a.2.2 0 000-.11v-.06l-6-3.29v-1.22c0-.55-.5-.91-1.23-1.2a9.69 9.69 0 00-3.25-.5h-.73l-1.85-1v.66l.83.45q-.43.08-.84.18v-2.23c0-.56-.5-.91-1.22-1.2a9.79 9.79 0 00-3.26-.51 10.15 10.15 0 00-2.73.34c-.93.29-1.55.66-1.59 1.3v1.19l-2.55.36v.6l2.54-.35v1.56a9.8 9.8 0 00-2.69.34h.14v-2.22c0-.56-.5-.92-1.22-1.2a9.54 9.54 0 00-3.26-.51 9.81 9.81 0 00-2.73.35c-.93.28-1.54.65-1.59 1.29v1.38l-5.42.76h-.1a.14.14 0 010 .07v18.19a.3.3 0 000 .13l3.83 2.09 10.7 5.81h.13l24-3.37h.11a.11.11 0 000-.06v-18.24zm-10.67-5.8a9 9 0 013 .47c.67.25.87.55.84.64-.03.09-.27.5-1.16.75a9.53 9.53 0 01-2.56.32 9.05 9.05 0 01-3-.47c-.64-.24-.84-.52-.84-.63 0-.12.28-.49 1.17-.74a9.53 9.53 0 012.55-.34zm-9.56-3.31a9.52 9.52 0 012.56-.33 9 9 0 013 .47c.67.25.87.56.85.65-.02.09-.28.49-1.17.74a9.66 9.66 0 01-2.57.32 8.75 8.75 0 01-3-.47c-.63-.23-.85-.52-.84-.63-.08-.13.23-.51 1.17-.75zm-4.31 5a9.59 9.59 0 012.56-.32 9.09 9.09 0 013 .47c.66.25.87.55.84.65-.03.1-.28.49-1.17.74a9.55 9.55 0 01-2.56.31 8.86 8.86 0 01-3-.46c-.63-.24-.84-.52-.84-.63-.07-.08.23-.47 1.12-.72zm-8.22-2.89c0-.11.29-.49 1.18-.73a10.33 10.33 0 015.6.14c.66.25.86.55.84.65-.02.1-.27.49-1.17.74a9.53 9.53 0 01-2.56.32 9.09 9.09 0 01-3-.47c-.63-.24-.84-.52-.84-.62zm-5 2.61l4.43-.63v1.37c0 .56.51.92 1.23 1.2a9.42 9.42 0 003.26.51 10.54 10.54 0 002.58-.31v2.21c0 .56.5.91 1.21 1.2a9.59 9.59 0 003.26.5 9.77 9.77 0 002.73-.34c.94-.29 1.56-.66 1.6-1.3v-3.36a10.31 10.31 0 002.55-.3v2.21c0 .56.5.91 1.22 1.19a9.25 9.25 0 003.26.52 10.2 10.2 0 002.73-.35c.94-.28 1.55-.65 1.59-1.31v-1.91.37l5 2.71-23 3.23zm37.23 22.3c-.09.06-23.37 3.28-23.37 3.28v-17.59l23.37-3.28s-.1 17.52-.09 17.63z" fill="#f3aa00"/><path d="M77.138 106.081c0-.56-.5-.91-1.23-1.2a9.47 9.47 0 00-3.26-.5 9.74 9.74 0 00-2.72.34c-.93.28-1.55.65-1.59 1.29v1.39l-5.41.76a.45.45 0 00-.11 0v18.32a.51.51 0 000 .13v.05l3.82 2.09 10.7 5.81a.28.28 0 00.12 0l24-3.37a.25.25 0 00.11 0v-18.36a.21.21 0 000-.12v-.06l-6-3.29v-1.14c0-.56-.5-.92-1.22-1.2a9.54 9.54 0 00-3.26-.51h-.72l-1.85-1v-.94c0-.55-.51-.91-1.23-1.2a9.74 9.74 0 00-3.26-.51 10 10 0 00-2.72.35c-.94.28-1.55.65-1.6 1.29v1.32l-2.54.36" fill="#ffdc5a"/><path d="M101.738 112.991a.21.21 0 000-.12v-.06l-6-3.29v-1.14c0-.56-.5-.92-1.22-1.2a9.54 9.54 0 00-3.26-.51h-.72l-1.85-1v.66l.84.46a6.93 6.93 0 00-.84.17v-2.23c0-.55-.51-.91-1.23-1.2a9.74 9.74 0 00-3.26-.51 10 10 0 00-2.72.35c-.94.28-1.55.65-1.6 1.29v1.16l-2.54.36v.6l2.55-.36v1.53a10.26 10.26 0 00-2.69.34h.14v-2.23c0-.56-.5-.91-1.23-1.2a9.47 9.47 0 00-3.26-.5 9.74 9.74 0 00-2.72.34c-.93.28-1.55.65-1.59 1.29v1.39l-5.41.76a.45.45 0 00-.11 0v18.32a.51.51 0 000 .13v.05l3.82 2.09 10.7 5.81a.28.28 0 00.12 0l24-3.37a.25.25 0 00.11 0v-18.36zm-10.68-5.8a9 9 0 013 .46c.67.25.87.55.85.65-.02.1-.27.49-1.17.74a9.53 9.53 0 01-2.56.32 8.81 8.81 0 01-3-.47c-.63-.24-.84-.51-.84-.62 0-.12.29-.49 1.18-.73a9 9 0 012.54-.35zm-9.61-3.32a9.59 9.59 0 012.56-.32 8.85 8.85 0 013 .47c.66.25.86.55.84.64-.02.09-.28.5-1.17.75a9.55 9.55 0 01-2.56.31 8.86 8.86 0 01-3-.46c-.63-.24-.84-.52-.84-.63-.03-.14.28-.52 1.2-.76zm-4.3 5a10 10 0 012.56-.32 9 9 0 013 .47c.67.25.87.56.85.65-.02.09-.28.49-1.17.75a10.11 10.11 0 01-2.57.31 9.11 9.11 0 01-3.05-.46c-.62-.24-.84-.53-.83-.63.01-.1.32-.48 1.21-.73zm-8.23-2.89c0-.12.29-.5 1.18-.74a9.51 9.51 0 012.55-.32 9.28 9.28 0 013 .46c.66.25.87.56.84.65-.03.09-.27.49-1.16.74a9.26 9.26 0 01-2.57.33 8.77 8.77 0 01-3-.48c-.64-.23-.85-.51-.85-.62zm-5 2.61l4.44-.62v1.36c0 .56.5.91 1.22 1.19a9.5 9.5 0 003.26.51 10.16 10.16 0 002.59-.31v2.21c0 .56.5.92 1.22 1.2a9.5 9.5 0 003.26.51 10.15 10.15 0 002.73-.34c.94-.29 1.55-.66 1.6-1.31v-3.35a10.74 10.74 0 002.55-.3v2.2c0 .55.51.91 1.23 1.19a9.46 9.46 0 003.26.51 10.25 10.25 0 002.73-.35c.93-.28 1.55-.65 1.59-1.3v-1.55l5 2.72-23 3.23zm37.23 22.31c-.09 0-23.37 3.28-23.37 3.28v-17.6l23.37-3.28s-.05 17.52-.04 17.64z" fill="#f3aa00"/><path d="M77.138 14.731c0-.56-.5-.91-1.23-1.2a9.46 9.46 0 00-3.26-.51 9.74 9.74 0 00-2.72.35c-.93.28-1.55.65-1.59 1.29v1.38l-5.41.77a.45.45 0 00-.11 0v18.25a.59.59 0 000 .13l3.82 2.09 10.7 5.81h.12l24-3.37a.25.25 0 00.11 0v-18.26a.24.24 0 000-.12v-.05l-6-3.29v-1.05c0-.55-.5-.91-1.22-1.19a9.54 9.54 0 00-3.26-.51h-.72l-1.85-1v-.93c0-.55-.51-.91-1.23-1.2a9.74 9.74 0 00-3.26-.51 10 10 0 00-2.72.35c-.94.28-1.55.65-1.6 1.29v1.2l-2.54.36" fill="#ffdc5a"/><path d="M101.738 21.641a.24.24 0 000-.12v-.05l-6-3.29v-1.23c0-.55-.5-.91-1.22-1.19a9.54 9.54 0 00-3.26-.51h-.72l-1.85-1v.66l.84.46a6.93 6.93 0 00-.84.17v-2.23c0-.55-.51-.91-1.23-1.2a9.74 9.74 0 00-3.26-.51 10 10 0 00-2.72.35c-.94.28-1.55.65-1.6 1.29v1.2l-2.54.36v.6l2.55-.36v1.52a10.26 10.26 0 00-2.69.34h.14v-2.23c0-.56-.5-.91-1.23-1.2a9.46 9.46 0 00-3.26-.51 9.74 9.74 0 00-2.72.35c-.93.28-1.55.65-1.59 1.29v1.38l-5.41.77a.45.45 0 00-.11 0v18.25a.59.59 0 000 .13l3.82 2.09 10.7 5.81h.12l24-3.37a.25.25 0 00.11 0v-18.26zm-10.68-5.82a9 9 0 013 .47c.67.25.87.55.85.64-.02.09-.27.5-1.17.75a9.53 9.53 0 01-2.56.32 9.05 9.05 0 01-3-.47c-.63-.24-.84-.52-.84-.62 0-.12.29-.49 1.18-.73a9 9 0 012.54-.36zm-9.58-3.3a9.57 9.57 0 012.56-.33 8.83 8.83 0 013 .48c.66.24.86.55.84.64-.02.09-.28.5-1.17.74a9.53 9.53 0 01-2.56.32 8.86 8.86 0 01-3-.46c-.63-.24-.84-.53-.84-.64-.06-.13.25-.51 1.17-.75zm-4.3 5a10 10 0 012.56-.32 9 9 0 013 .47c.67.25.87.55.85.65-.02.1-.28.49-1.17.74a9.68 9.68 0 01-2.57.31 8.63 8.63 0 01-3.05-.46c-.62-.23-.84-.52-.83-.63-.02-.09.29-.46 1.18-.72zm-8.23-2.89c0-.12.29-.5 1.18-.74a9.13 9.13 0 012.55-.32 9 9 0 013 .46c.66.25.87.55.84.65-.03.1-.27.49-1.16.74a9.27 9.27 0 01-2.57.32 8.79 8.79 0 01-3-.47c-.64-.24-.85-.51-.85-.62zm-5 2.61l4.44-.62v1.4c0 .56.5.91 1.22 1.19a9.5 9.5 0 003.26.51 10.16 10.16 0 002.59-.31v2.21c0 .56.5.91 1.22 1.2a9.51 9.51 0 003.26.5 10.17 10.17 0 002.73-.33c.94-.3 1.55-.66 1.6-1.31v-3.35a10.73 10.73 0 002.55-.31v2.21c0 .56.51.92 1.23 1.2a9.46 9.46 0 003.26.51 10.25 10.25 0 002.73-.35c.93-.28 1.55-.65 1.59-1.31v-1.52l5 2.72-23 3.23zm37.23 22.31c-.09 0-23.37 3.27-23.37 3.27v-17.59l23.37-3.28s-.08 17.52-.07 17.64z" fill="#f3aa00"/><path d="M53.178 109.451c0-.56-.5-.91-1.22-1.2a11 11 0 00-6-.16c-.93.28-1.54.66-1.59 1.3v1.43l-5.42.76h-.11v18.31a.27.27 0 000 .13.1.1 0 000 .05l3.83 2.09 10.69 5.81a.28.28 0 00.13 0l24-3.36a.24.24 0 00.1 0v-18.29a.5.5 0 000-.12v-.06l-6.05-3.3v-1.13c0-.56-.5-.91-1.23-1.2a9.47 9.47 0 00-3.26-.5h-.72l-1.85-1v-.94c0-.56-.51-.92-1.23-1.2a9.26 9.26 0 00-3.26-.51 10.13 10.13 0 00-2.72.34c-.93.29-1.55.66-1.6 1.3v1.19l-2.54.36" fill="#ffdc5a"/><path d="M77.778 116.361a.5.5 0 000-.12v-.06l-6.05-3.3v-1.13c0-.56-.5-.91-1.23-1.2a9.47 9.47 0 00-3.26-.5h-.72l-1.85-1v.67l.83.45a7.34 7.34 0 00-.84.17v-2.23c0-.56-.51-.92-1.23-1.2a9.26 9.26 0 00-3.26-.51 10.13 10.13 0 00-2.72.34c-.93.29-1.55.66-1.6 1.3v1.19l-2.54.36v.6l2.55-.36v1.53a10.17 10.17 0 00-2.68.35h.13v-2.24c0-.56-.5-.91-1.22-1.2a11 11 0 00-6-.16c-.93.28-1.54.66-1.59 1.3v1.41l-5.42.76h-.11v18.31a.27.27 0 000 .13.1.1 0 000 .05l3.83 2.09 10.69 5.81a.28.28 0 00.13 0l24-3.36a.24.24 0 00.1 0v-18.29zm-10.68-5.8a9 9 0 013.05.46c.66.25.87.56.84.65-.03.09-.27.49-1.16.74a9.27 9.27 0 01-2.57.32 8.75 8.75 0 01-3-.47c-.64-.23-.85-.51-.85-.62 0-.11.29-.49 1.18-.73a9.51 9.51 0 012.51-.35zm-9.6-3.32a9.46 9.46 0 012.55-.32 9.09 9.09 0 013 .47c.67.25.87.55.84.65-.03.1-.27.49-1.17.74a9.55 9.55 0 01-2.56.31 8.63 8.63 0 01-3-.46c-.63-.24-.84-.52-.83-.63-.03-.18.27-.52 1.15-.76zm-4.31 5.05a9.59 9.59 0 012.56-.32 8.85 8.85 0 013 .47c.66.24.86.55.84.65-.02.1-.28.48-1.17.74a10.05 10.05 0 01-2.57.31 8.84 8.84 0 01-3-.46c-.63-.24-.85-.52-.84-.63-.02-.14.29-.52 1.18-.76zm-8.22-2.9c0-.12.28-.49 1.17-.74a9.53 9.53 0 012.56-.32 9 9 0 013 .47c.67.25.87.55.85.64-.02.09-.28.5-1.17.75a9.53 9.53 0 01-2.56.32 9.05 9.05 0 01-3.05-.47c-.63-.24-.84-.52-.84-.62zm-5 2.62l4.44-.63v1.37c0 .56.51.92 1.22 1.19a9.25 9.25 0 003.26.52 10.57 10.57 0 002.59-.31v2.2c0 .55.5.91 1.22 1.19a9.54 9.54 0 003.26.51 10.15 10.15 0 002.73-.34c.94-.29 1.56-.66 1.6-1.31v-3.4a10.23 10.23 0 002.54-.3v2.23c0 .56.5.91 1.22 1.19a9.46 9.46 0 003.26.51 10.21 10.21 0 002.73-.34c.93-.29 1.55-.66 1.59-1.31v-1.92.37l5 2.72-23 3.23zm37.23 22.3c-.08.06-23.37 3.28-23.37 3.28v-17.59l23.37-3.29s-.06 17.49-.05 17.6z" fill="#f3aa00"/><path d="M53.178 18.101c0-.56-.5-.91-1.22-1.2a9.55 9.55 0 00-3.26-.5 9.82 9.82 0 00-2.73.34c-.93.28-1.54.65-1.59 1.3v1.38l-5.42.76h-.11v18.31a.27.27 0 000 .13l3.83 2.09 10.69 5.82a.28.28 0 00.13 0l24-3.37a.14.14 0 00.1 0v-18.3a.5.5 0 000-.12l-6.05-3.3v-1.11c0-.56-.5-.92-1.23-1.2a9.46 9.46 0 00-3.26-.51h-.72l-1.85-1v-.94c0-.55-.51-.91-1.23-1.19a9.49 9.49 0 00-3.26-.52 10.12 10.12 0 00-2.72.35c-.93.28-1.55.65-1.6 1.29v1.21l-2.54.36" fill="#ffdc5a"/><path d="M77.778 25.011a.5.5 0 000-.12l-6.05-3.3v-1.26c0-.56-.5-.92-1.23-1.2a9.46 9.46 0 00-3.26-.51h-.72l-1.85-1v.66l.83.46c-.29 0-.57.1-.84.17v-2.23c0-.55-.51-.91-1.23-1.19a9.49 9.49 0 00-3.26-.52 10.12 10.12 0 00-2.72.35c-.93.28-1.55.65-1.6 1.29v1.21l-2.54.36v.64l2.55-.36v1.53a10.17 10.17 0 00-2.68.35h.13v-2.23c0-.56-.5-.91-1.22-1.2a9.55 9.55 0 00-3.26-.5 9.82 9.82 0 00-2.73.34c-.93.28-1.54.65-1.59 1.3v1.38l-5.42.76h-.11v18.31a.27.27 0 000 .13l3.83 2.09 10.69 5.82a.28.28 0 00.13 0l24-3.37a.14.14 0 00.1 0v-18.3zm-10.68-5.8a9 9 0 013.05.46c.66.25.87.55.84.65-.03.1-.27.49-1.16.74a9.66 9.66 0 01-2.57.32 8.75 8.75 0 01-3-.47c-.64-.24-.85-.52-.85-.62 0-.11.29-.49 1.18-.73a9.13 9.13 0 012.51-.35zm-9.6-3.32a9.46 9.46 0 012.55-.32 8.85 8.85 0 013 .47c.67.25.87.55.84.64-.03.09-.27.5-1.17.75a9.55 9.55 0 01-2.56.31 8.86 8.86 0 01-3-.46c-.63-.24-.84-.52-.83-.63-.03-.14.27-.52 1.15-.76zm-4.31 5.05a9.57 9.57 0 012.56-.33 8.83 8.83 0 013 .48c.66.25.86.55.84.64-.02.09-.28.49-1.17.74a9.61 9.61 0 01-2.57.32 8.59 8.59 0 01-3-.47c-.63-.23-.85-.52-.84-.62-.02-.14.29-.52 1.18-.76zm-8.22-2.89c0-.12.28-.49 1.17-.74a9.53 9.53 0 012.56-.32 9.26 9.26 0 013 .46c.67.25.87.56.85.65-.02.09-.28.5-1.17.74a9.13 9.13 0 01-2.56.33 8.79 8.79 0 01-3.05-.48c-.63-.23-.84-.51-.84-.62zm-5 2.6l4.44-.62v1.36c0 .56.51.91 1.22 1.19a9.26 9.26 0 003.26.51 10.11 10.11 0 002.59-.31v2.21c0 .56.5.92 1.22 1.2a9.54 9.54 0 003.26.51 10.15 10.15 0 002.73-.34c.94-.29 1.56-.66 1.6-1.31v-3.35a10.22 10.22 0 002.54-.31v2.23c0 .56.5.91 1.22 1.19a9.46 9.46 0 003.26.51 10.21 10.21 0 002.73-.34c.93-.29 1.55-.66 1.59-1.31v-1.92.37l5 2.72-23 3.23zm37.23 22.31c-.08.06-23.37 3.27-23.37 3.27v-17.59l23.37-3.28s-.06 17.46-.05 17.6z" fill="#f3aa00"/><path d="M29.208 112.821c0-.56-.5-.91-1.22-1.2a9.51 9.51 0 00-3.26-.5 9.87 9.87 0 00-2.73.34c-.93.28-1.54.65-1.59 1.3v1.38l-5.42.76a.21.21 0 00-.1 0 .11.11 0 000 .05.14.14 0 010 .06v18.19a.27.27 0 000 .13l3.83 2.09 10.7 5.82a.38.38 0 00.13 0l24-3.36.11-.05a.14.14 0 000-.07v-18.19a.25.25 0 000-.12l-6-3.3v-1.13c0-.56-.5-.92-1.22-1.2a9.54 9.54 0 00-3.26-.51h-.73l-1.85-1v-.94c0-.55-.5-.91-1.22-1.19a9.3 9.3 0 00-3.26-.51 10.15 10.15 0 00-2.73.34c-.93.28-1.55.65-1.59 1.29v1.21l-2.55.36" fill="#ffdc5a"/><path d="M53.808 119.721a.25.25 0 000-.12l-6-3.3v-1.13c0-.56-.5-.92-1.22-1.2a9.54 9.54 0 00-3.26-.51h-.73l-1.85-1v.66l.83.46a6.76 6.76 0 00-.83.17v-2.23c0-.55-.5-.91-1.22-1.19a9.3 9.3 0 00-3.26-.51 10.15 10.15 0 00-2.73.34c-.93.28-1.55.65-1.59 1.29v1.21l-2.55.36v.6l2.54-.36v1.53a9.79 9.79 0 00-2.69.35h.14v-2.32c0-.56-.5-.91-1.22-1.2a9.51 9.51 0 00-3.26-.5 9.87 9.87 0 00-2.73.34c-.93.28-1.54.65-1.59 1.3v1.38l-5.42.76a.21.21 0 00-.1 0 .11.11 0 000 .05.14.14 0 010 .06v18.19a.27.27 0 000 .13l3.83 2.09 10.7 5.82a.38.38 0 00.13 0l24-3.36.11-.05a.14.14 0 000-.07v-18.19zm-10.67-5.8a9 9 0 013 .46c.67.25.87.55.85.65-.02.1-.28.49-1.17.74a9.53 9.53 0 01-2.56.32 8.81 8.81 0 01-3-.47c-.63-.24-.84-.52-.84-.62 0-.11.28-.49 1.17-.73a9.15 9.15 0 012.55-.35zm-9.61-3.32a9.53 9.53 0 012.56-.32 8.75 8.75 0 013 .47c.67.25.87.55.85.64-.02.09-.28.5-1.17.74a9.66 9.66 0 01-2.57.32 8.8 8.8 0 01-3-.46c-.63-.24-.85-.53-.84-.63-.03-.14.28-.54 1.17-.76zm-4.31 5.05a9.57 9.57 0 012.56-.33 9.09 9.09 0 013 .47c.66.25.87.55.84.65-.03.1-.28.49-1.17.74a9.53 9.53 0 01-2.56.32 8.85 8.85 0 01-3-.47c-.63-.24-.84-.52-.83-.63-.03-.13.27-.51 1.16-.75zm-8.22-2.89c0-.12.29-.5 1.18-.74a10.33 10.33 0 015.6.14c.66.25.86.56.84.65-.02.09-.27.49-1.17.74a9.13 9.13 0 01-2.56.33 8.83 8.83 0 01-3.05-.48c-.63-.23-.84-.51-.84-.62zm-5 2.6l4.43-.62v1.36c0 .56.51.91 1.23 1.19a9.46 9.46 0 003.26.51 10.08 10.08 0 002.58-.31v2.21c0 .56.49.91 1.22 1.2a9.48 9.48 0 003.25.51 10.28 10.28 0 002.74-.34c.93-.3 1.55-.66 1.59-1.31v-3.35a10.3 10.3 0 002.55-.31v2.21c0 .56.5.92 1.22 1.2a9.5 9.5 0 003.26.51 10.21 10.21 0 002.73-.34c.94-.29 1.55-.66 1.59-1.31v-1.92.37l5 2.72-23 3.23zm37.23 22.31c-.09.06-23.37 3.27-23.37 3.27v-17.59l23.37-3.28s-.05 17.49-.04 17.6z" fill="#f3aa00"/><path d="M29.208 94.541c0-.56-.5-.92-1.22-1.2a9.51 9.51 0 00-3.26-.5 9.87 9.87 0 00-2.73.34c-.93.28-1.54.65-1.59 1.29v1.39l-5.42.76a.38.38 0 00-.1 0 .14.14 0 010 .06v18.19a.27.27 0 000 .13v.05l3.83 2.09 10.7 5.81a.38.38 0 00.13 0l24-3.37a.19.19 0 00.11 0 .14.14 0 000-.07v-18.2a.25.25 0 000-.12v-.05l-6-3.29v-1.14c0-.55-.5-.91-1.22-1.19a9.54 9.54 0 00-3.26-.51h-.73l-1.85-1v-.94c0-.55-.5-.91-1.22-1.2a9.79 9.79 0 00-3.26-.51 10.14 10.14 0 00-2.73.35c-.93.28-1.55.65-1.59 1.29v1.21l-2.55.35" fill="#ffdc5a"/><path d="M53.808 101.451a.25.25 0 000-.12v-.05l-6-3.29v-1.14c0-.55-.5-.91-1.22-1.19a9.54 9.54 0 00-3.26-.51h-.73l-1.85-1v.66l.83.46a6.76 6.76 0 00-.83.17v-2.23c0-.55-.5-.91-1.22-1.2a9.79 9.79 0 00-3.26-.51 10.14 10.14 0 00-2.73.35c-.93.28-1.55.65-1.59 1.29v1.21l-2.55.35v.61l2.54-.36v1.54a9.8 9.8 0 00-2.69.34h.14v-2.23c0-.56-.5-.92-1.22-1.2a9.51 9.51 0 00-3.26-.5 9.87 9.87 0 00-2.73.34c-.93.28-1.54.65-1.59 1.29v1.39l-5.42.76a.38.38 0 00-.1 0 .14.14 0 010 .06v18.19a.27.27 0 000 .13v.05l3.83 2.09 10.7 5.81a.38.38 0 00.13 0l24-3.37a.19.19 0 00.11 0 .14.14 0 000-.07v-18.2zm-10.67-5.8a9 9 0 013 .46c.67.25.87.55.85.64-.02.09-.28.5-1.17.75a9.53 9.53 0 01-2.56.32 9.05 9.05 0 01-3-.47c-.63-.24-.84-.52-.84-.62 0-.11.28-.49 1.17-.73a9.53 9.53 0 012.55-.35zm-9.61-3.32a9.53 9.53 0 012.56-.32 9 9 0 013 .46c.67.26.87.56.85.65-.02.09-.28.49-1.17.75a10.11 10.11 0 01-2.57.31 8.8 8.8 0 01-3-.46c-.63-.24-.85-.52-.84-.63-.03-.14.28-.52 1.17-.76zm-4.31 5a10 10 0 012.56-.32 9.09 9.09 0 013 .47c.66.25.87.56.84.65-.03.09-.28.49-1.17.74a9.53 9.53 0 01-2.56.32 9.09 9.09 0 01-3-.47c-.63-.23-.84-.52-.83-.63-.03-.09.27-.47 1.16-.72zm-8.22-2.89c0-.12.29-.5 1.18-.74a10.33 10.33 0 015.6.14c.66.25.86.56.84.65-.02.09-.27.49-1.17.74a9.15 9.15 0 01-2.56.32 8.85 8.85 0 01-3.05-.47c-.63-.24-.84-.51-.84-.62zm-5 2.61l4.43-.62v1.39c0 .55.51.91 1.23 1.19a9.22 9.22 0 003.26.51 10.08 10.08 0 002.58-.31v2.21c0 .56.49.91 1.22 1.2a9.49 9.49 0 003.25.5 10.29 10.29 0 002.74-.33c.93-.29 1.55-.66 1.59-1.31v-3.36a10.82 10.82 0 002.55-.29v2.2c0 .56.5.92 1.22 1.2a9.5 9.5 0 003.26.51 10.2 10.2 0 002.73-.35c.94-.28 1.55-.65 1.59-1.3v-1.92.37l5 2.72-23 3.23zm37.23 22.31c-.09 0-23.37 3.27-23.37 3.27v-17.59l23.37-3.28s-.05 17.53-.04 17.64z" fill="#f3aa00"/><path d="M29.208 76.261c0-.56-.5-.91-1.22-1.2a9.5 9.5 0 00-3.26-.51 9.86 9.86 0 00-2.73.35c-.93.28-1.54.65-1.59 1.3v1.39l-5.42.76a.19.19 0 00-.1 0v.05a.14.14 0 010 .06v18.19a.27.27 0 000 .13v.05l3.83 2.09 10.7 5.81a.38.38 0 00.13 0l24-3.37a.3.3 0 00.11 0 .14.14 0 000-.07v-18.2a.25.25 0 000-.12v-.05l-6-3.29v-1.14c0-.56-.5-.92-1.22-1.2a9.54 9.54 0 00-3.26-.51h-.73l-1.85-1v-.96c0-.56-.5-.91-1.22-1.19a9.53 9.53 0 00-3.26-.52 10.14 10.14 0 00-2.73.35c-.93.28-1.55.65-1.59 1.29v1.21l-2.55.35" fill="#ffdc5a"/><path d="M53.808 83.181a.25.25 0 000-.12v-.05l-6-3.29v-1.14c0-.56-.5-.92-1.22-1.2a9.54 9.54 0 00-3.26-.51h-.73l-1.85-1v.66l.83.46a6.76 6.76 0 00-.83.17v-2.34c0-.56-.5-.91-1.22-1.19a9.53 9.53 0 00-3.26-.52 10.14 10.14 0 00-2.73.35c-.93.28-1.55.65-1.59 1.29v1.21l-2.55.35v.61l2.54-.36v1.53a10.2 10.2 0 00-2.69.34h.14v-2.24c0-.56-.5-.91-1.22-1.2a9.5 9.5 0 00-3.26-.51 9.86 9.86 0 00-2.73.35c-.93.28-1.54.65-1.59 1.3v1.39l-5.42.76a.19.19 0 00-.1 0v.05a.14.14 0 010 .06v18.19a.27.27 0 000 .13v.05l3.83 2.09 10.7 5.81a.38.38 0 00.13 0l24-3.37a.3.3 0 00.11 0 .14.14 0 000-.07v-18.2zm-10.67-5.8a9 9 0 013 .46c.67.25.87.55.85.65-.02.1-.28.49-1.17.74a9.53 9.53 0 01-2.56.32 9.05 9.05 0 01-3-.47c-.63-.24-.84-.52-.84-.62 0-.12.28-.49 1.17-.73a9.15 9.15 0 012.55-.35zm-9.61-3.32a9.53 9.53 0 012.56-.32 8.75 8.75 0 013 .47c.67.24.87.55.85.64-.02.09-.28.5-1.17.74a9.66 9.66 0 01-2.57.32 8.8 8.8 0 01-3-.46c-.63-.24-.85-.53-.84-.63-.03-.14.28-.52 1.17-.76zm-4.31 5a10 10 0 012.56-.32 9.09 9.09 0 013 .47c.66.25.87.55.84.65-.03.1-.28.49-1.17.74a9.53 9.53 0 01-2.56.32 8.85 8.85 0 01-3-.47c-.63-.24-.84-.52-.83-.63-.03-.09.27-.47 1.16-.72zm-8.22-2.89c0-.12.29-.5 1.18-.74a10.33 10.33 0 015.6.14c.66.25.86.56.84.65-.02.09-.27.49-1.17.74a9.15 9.15 0 01-2.56.32 8.85 8.85 0 01-3.05-.47c-.63-.24-.84-.51-.84-.62zm-5 2.61l4.43-.62v1.36c0 .56.51.91 1.23 1.19a9.22 9.22 0 003.26.51 10.08 10.08 0 002.58-.31v2.21c0 .56.49.92 1.22 1.2a9.48 9.48 0 003.25.51 10.28 10.28 0 002.74-.34c.93-.3 1.55-.66 1.59-1.31v-3.35a10.3 10.3 0 002.55-.31v2.21c0 .56.5.92 1.22 1.2a9.5 9.5 0 003.26.51 10.63 10.63 0 002.73-.34c.94-.29 1.55-.66 1.59-1.31v-1.92.37l5 2.72-23 3.23zm37.23 22.31c-.09.05-23.37 3.27-23.37 3.27v-17.59l23.37-3.28s-.05 17.53-.04 17.64z" fill="#f3aa00"/><path d="M29.208 57.991c0-.56-.5-.91-1.22-1.2a9.51 9.51 0 00-3.26-.5 9.87 9.87 0 00-2.73.34c-.93.28-1.54.65-1.59 1.3v1.38l-5.42.77a.19.19 0 00-.1 0v.05a.14.14 0 010 .06v18.19a.27.27 0 000 .13l3.83 2.09 10.7 5.82a.38.38 0 00.13 0l24-3.37a.3.3 0 00.11 0 .19.19 0 000-.07v-18.19a.22.22 0 000-.12l-6-3.29v-1.16c0-.56-.5-.92-1.22-1.2a9.54 9.54 0 00-3.26-.51h-.73l-1.85-1v-.94c0-.56-.5-.91-1.22-1.2a9.79 9.79 0 00-3.26-.51 10.14 10.14 0 00-2.73.35c-.93.28-1.55.65-1.59 1.29v1.21l-2.55.36" fill="#ffdc5a"/><path d="M53.808 64.911a.22.22 0 000-.12l-6-3.29v-1.28c0-.56-.5-.92-1.22-1.2a9.54 9.54 0 00-3.26-.51h-.73l-1.85-1v.66l.83.46a6.76 6.76 0 00-.83.17v-2.23c0-.56-.5-.91-1.22-1.2a9.79 9.79 0 00-3.26-.51 10.14 10.14 0 00-2.73.35c-.93.28-1.55.65-1.59 1.29v1.21l-2.55.36v.6l2.54-.36v1.54a10.2 10.2 0 00-2.69.34h.14v-2.24c0-.56-.5-.91-1.22-1.2a9.51 9.51 0 00-3.26-.5 9.87 9.87 0 00-2.73.34c-.93.28-1.54.65-1.59 1.3v1.38l-5.42.77a.19.19 0 00-.1 0v.05a.14.14 0 010 .06v18.19a.27.27 0 000 .13l3.83 2.09 10.7 5.82a.38.38 0 00.13 0l24-3.37a.3.3 0 00.11 0 .19.19 0 000-.07v-18.19zm-10.67-5.8a9 9 0 013 .46c.67.25.87.55.85.65-.02.1-.28.49-1.17.74a9.53 9.53 0 01-2.56.32 9.05 9.05 0 01-3-.47c-.63-.24-.84-.52-.84-.62 0-.12.28-.49 1.17-.73a9.15 9.15 0 012.55-.35zm-9.61-3.32a9.53 9.53 0 012.56-.32 8.75 8.75 0 013 .47c.67.24.87.55.85.64-.02.09-.28.5-1.17.74a9.66 9.66 0 01-2.57.32 8.8 8.8 0 01-3-.46c-.63-.24-.85-.53-.84-.63-.03-.14.28-.52 1.17-.73zm-4.31 5a10 10 0 012.56-.32 9.09 9.09 0 013 .47c.66.25.87.56.84.65-.03.09-.28.49-1.17.74a9.53 9.53 0 01-2.56.32 8.85 8.85 0 01-3-.47c-.63-.24-.84-.52-.83-.63-.03-.09.27-.47 1.16-.73zm-8.22-2.89c0-.12.29-.5 1.18-.74a10.33 10.33 0 015.6.14c.66.25.86.56.84.65-.02.09-.27.49-1.17.74a9.15 9.15 0 01-2.56.32 8.85 8.85 0 01-3.05-.47c-.63-.23-.84-.51-.84-.62zm-5 2.61l4.43-.62v1.36c0 .55.51.91 1.23 1.19a9.46 9.46 0 003.26.51 10.08 10.08 0 002.58-.31v2.21c0 .56.49.91 1.22 1.2a9.48 9.48 0 003.25.51 10.28 10.28 0 002.74-.34c.93-.29 1.55-.66 1.59-1.31v-3.35a10.3 10.3 0 002.55-.31v2.21c0 .56.5.92 1.22 1.19a9.25 9.25 0 003.26.52 9.81 9.81 0 002.73-.35c.94-.28 1.55-.65 1.59-1.3v-1.92.37l5 2.72-23 3.23zm37.19 22.31c-.09.05-23.37 3.27-23.37 3.27v-17.59l23.37-3.28s-.01 17.53 0 17.6z" fill="#f3aa00"/><path d="M29.208 39.721c0-.56-.5-.91-1.22-1.2a9.51 9.51 0 00-3.26-.5 9.87 9.87 0 00-2.73.34c-.93.28-1.54.65-1.59 1.29v1.39l-5.42.76a.19.19 0 00-.1 0 .14.14 0 010 .06v18.19a.27.27 0 000 .13l3.83 2.09 10.7 5.81a.38.38 0 00.13 0l24-3.37a.3.3 0 00.11 0 .14.14 0 000-.07v-18.2a.23.23 0 000-.12.1.1 0 000-.05l-6-3.29v-1.14c0-.56-.5-.92-1.22-1.2a9.54 9.54 0 00-3.26-.51h-.73l-1.85-1v-.94c0-.56-.5-.91-1.22-1.2a10.74 10.74 0 00-6-.16c-.93.28-1.55.65-1.59 1.29v1.21l-2.55.35" fill="#ffdc5a"/><path d="M53.808 46.641a.23.23 0 000-.12.1.1 0 000-.05l-6-3.29v-1.14c0-.56-.5-.92-1.22-1.2a9.54 9.54 0 00-3.26-.51h-.73l-1.85-1v.66l.83.45c-.29 0-.57.11-.83.18v-2.3c0-.56-.5-.91-1.22-1.2a10.74 10.74 0 00-6-.16c-.93.28-1.55.65-1.59 1.29v1.21l-2.55.35v.6l2.54-.35v1.54a9.8 9.8 0 00-2.69.34h.14v-2.22c0-.56-.5-.91-1.22-1.2a9.51 9.51 0 00-3.26-.5 9.87 9.87 0 00-2.73.34c-.93.28-1.54.65-1.59 1.29v1.39l-5.42.76a.19.19 0 00-.1 0 .14.14 0 010 .06v18.19a.27.27 0 000 .13l3.83 2.09 10.7 5.81a.38.38 0 00.13 0l24-3.37a.3.3 0 00.11 0 .14.14 0 000-.07v-18.2zm-10.67-5.8a9 9 0 013 .46c.67.25.87.55.85.65-.02.1-.28.49-1.17.74a9.53 9.53 0 01-2.56.32 9.05 9.05 0 01-3-.47c-.63-.24-.84-.52-.84-.63 0-.12.28-.49 1.17-.74a9.55 9.55 0 012.55-.35zm-9.61-3.32a9.53 9.53 0 012.56-.32 9 9 0 013 .46c.67.26.87.56.85.65-.02.09-.28.5-1.17.74a9.66 9.66 0 01-2.57.32 9 9 0 01-3-.46c-.63-.24-.85-.53-.84-.63-.03-.14.28-.52 1.17-.76zm-4.31 5a10 10 0 012.56-.32 9.09 9.09 0 013 .47c.66.25.87.55.84.65-.03.1-.28.49-1.17.74a9.53 9.53 0 01-2.56.32 9.09 9.09 0 01-3-.47c-.63-.24-.84-.52-.83-.63-.03-.09.27-.46 1.16-.72zm-8.22-2.89c0-.12.29-.5 1.18-.74a10.33 10.33 0 015.6.14c.66.25.86.55.84.65-.02.1-.27.49-1.17.74a9.15 9.15 0 01-2.56.32 8.85 8.85 0 01-3.05-.47c-.63-.23-.84-.51-.84-.62zm-5 2.61l4.43-.62v1.36c0 .55.51.91 1.23 1.19a9.46 9.46 0 003.26.51 10.08 10.08 0 002.58-.31v2.21c0 .56.49.91 1.22 1.2a9.49 9.49 0 003.25.5 9.89 9.89 0 002.74-.34c.93-.29 1.55-.65 1.59-1.3v-3.36a10.79 10.79 0 002.55-.31v2.21c0 .56.5.92 1.22 1.2a9.5 9.5 0 003.26.51 10.2 10.2 0 002.73-.35c.94-.28 1.55-.65 1.59-1.3v-1.92.37l5 2.72-23 3.23zm37.23 22.31c-.09 0-23.37 3.27-23.37 3.27v-17.59l23.37-3.28s-.05 17.52-.04 17.64z" fill="#f3aa00"/><path d="M29.208 21.451c0-.56-.5-.91-1.22-1.2a9.51 9.51 0 00-3.26-.5 9.87 9.87 0 00-2.73.34c-.93.28-1.54.65-1.59 1.29v1.44l-5.42.76a.19.19 0 00-.1 0 .14.14 0 010 .06v18.19a.27.27 0 000 .13l3.83 2.09 10.7 5.81a.38.38 0 00.13 0l24-3.37a.3.3 0 00.11 0 .14.14 0 000-.07v-18.2a.23.23 0 000-.12l-6-3.29v-1.13c0-.56-.5-.92-1.22-1.2a9.54 9.54 0 00-3.26-.51h-.73l-1.85-1v-.94c0-.56-.5-.91-1.22-1.2a10.74 10.74 0 00-6-.16c-.93.28-1.55.65-1.59 1.29v1.21l-2.55.35" fill="#ffdc5a"/><path d="M53.808 28.371a.23.23 0 000-.12l-6-3.29v-1.28c0-.56-.5-.92-1.22-1.2a9.54 9.54 0 00-3.26-.51h-.73l-1.85-1v.66l.83.46a6.76 6.76 0 00-.83.17v-2.21c0-.56-.5-.91-1.22-1.2a10.74 10.74 0 00-6-.16c-.93.28-1.55.65-1.59 1.29v1.21l-2.55.35v.61l2.54-.36v1.54a9.8 9.8 0 00-2.69.34h.14v-2.22c0-.56-.5-.91-1.22-1.2a9.51 9.51 0 00-3.26-.5 9.87 9.87 0 00-2.73.34c-.93.28-1.54.65-1.59 1.29v1.44l-5.42.76a.19.19 0 00-.1 0 .14.14 0 010 .06v18.19a.27.27 0 000 .13l3.83 2.09 10.7 5.81a.38.38 0 00.13 0l24-3.37a.3.3 0 00.11 0 .14.14 0 000-.07v-18.2zm-10.67-5.8a9 9 0 013 .46c.67.25.87.55.85.65-.02.1-.28.49-1.17.74a9.53 9.53 0 01-2.56.32 9.05 9.05 0 01-3-.47c-.63-.24-.84-.52-.84-.62 0-.12.28-.49 1.17-.74a9.55 9.55 0 012.55-.34zm-9.61-3.32a9.52 9.52 0 012.56-.33 9 9 0 013 .47c.67.26.87.56.85.65-.02.09-.28.5-1.17.74a9.66 9.66 0 01-2.57.32 9 9 0 01-3-.46c-.63-.24-.85-.53-.84-.63-.03-.14.28-.52 1.17-.76zm-4.31 5a10 10 0 012.56-.32 9.09 9.09 0 013 .47c.66.25.87.55.84.65-.03.1-.28.49-1.17.74a9.53 9.53 0 01-2.56.32 9.09 9.09 0 01-3-.47c-.63-.24-.84-.52-.83-.63-.03-.09.27-.47 1.16-.72zm-8.22-2.89c0-.12.29-.5 1.18-.74a10.33 10.33 0 015.6.14c.66.25.86.55.84.65-.02.1-.27.49-1.17.74a10.25 10.25 0 01-5.61-.15c-.63-.24-.84-.51-.84-.62zm-5 2.61l4.43-.62v1.36c0 .55.51.91 1.23 1.19a9.46 9.46 0 003.26.51 10.08 10.08 0 002.58-.31v2.21c0 .56.49.91 1.22 1.2a9.49 9.49 0 003.25.5 10.29 10.29 0 002.74-.33c.93-.29 1.55-.66 1.59-1.31v-3.36a10.3 10.3 0 002.55-.31v2.21c0 .56.5.92 1.22 1.19a9.25 9.25 0 003.26.52 10.2 10.2 0 002.73-.35c.94-.28 1.55-.65 1.59-1.3v-1.92.37l5 2.72-23 3.23zm37.23 22.31c-.09 0-23.37 3.27-23.37 3.27v-17.59l23.37-3.28s-.05 17.52-.04 17.64z" fill="#f3aa00"/></svg>