<svg xmlns="http://www.w3.org/2000/svg" viewBox="0 0 125.842 137.81"><path d="M86.158 72.763c0-.56-.5-.91-1.22-1.2a9.8 9.8 0 00-3.26-.5 10.13 10.13 0 00-2.72.34c-.93.28-1.54.66-1.59 1.3v1.38l-5.41.76h-.1v18.24a.32.32 0 000 .13l3.83 2.09 10.68 5.8a.5.5 0 00.13 0l23.95-3.37a.14.14 0 00.1 0 .64.64 0 000-.07v-18.18a.22.22 0 000-.12l-6-3.29v-1.09c0-.56-.5-.92-1.22-1.2a9.55 9.55 0 00-3.26-.5h-.72l-1.85-1v-.94c0-.56-.5-.92-1.22-1.2a9.3 9.3 0 00-3.26-.51 10 10 0 00-2.72.34c-.94.28-1.55.65-1.6 1.3v1.19l-2.54.36" fill="#33abe1"/><path d="M110.738 79.673a.22.22 0 000-.12l-6-3.29v-1.28c0-.56-.5-.92-1.22-1.2a9.55 9.55 0 00-3.26-.5h-.72l-1.85-1v.67l.83.45a7.34 7.34 0 00-.84.17v-2.23c0-.56-.5-.92-1.22-1.2a9.3 9.3 0 00-3.26-.51 10 10 0 00-2.72.34c-.94.28-1.55.65-1.6 1.3v1.19l-2.54.36v.6l2.54-.36v1.53a10.18 10.18 0 00-2.68.34h.14v-2.23c0-.56-.5-.91-1.22-1.2a9.8 9.8 0 00-3.26-.5 10.13 10.13 0 00-2.72.34c-.93.28-1.54.66-1.59 1.3v1.44l-5.41.76h-.1v18.24a.32.32 0 000 .13l3.83 2.09 10.68 5.8a.5.5 0 00.13 0l23.95-3.37a.14.14 0 00.1 0 .64.64 0 000-.07v-18.18zm-10.67-5.8a9.22 9.22 0 013 .46c.67.25.87.55.85.65-.02.1-.28.49-1.17.74a9.53 9.53 0 01-2.56.32 9 9 0 01-3-.47c-.64-.24-.84-.52-.84-.62 0-.12.28-.49 1.17-.73a9.13 9.13 0 012.55-.35zm-9.6-3.32a9.59 9.59 0 012.56-.32 9 9 0 013 .47c.67.25.87.55.84.65-.03.1-.27.49-1.16.74a9.68 9.68 0 01-2.57.31 8.84 8.84 0 01-3-.46c-.63-.24-.84-.52-.84-.63-.03-.14.33-.52 1.17-.76zm-4.3 5a10 10 0 012.56-.32 9 9 0 013 .47c.67.25.87.56.85.65-.02.09-.28.49-1.17.74a9.66 9.66 0 01-2.57.32 9.07 9.07 0 01-3-.47c-.63-.23-.84-.52-.84-.63-.03-.09.28-.47 1.17-.72zm-8.22-2.89c0-.12.29-.49 1.18-.74a9.51 9.51 0 012.55-.32 9 9 0 013 .47c.67.24.87.55.85.64-.02.09-.28.5-1.17.74a9.13 9.13 0 01-2.56.33 9 9 0 01-3-.47c-.64-.24-.85-.52-.85-.63zm-5 2.61l4.43-.62v1.43c0 .55.5.91 1.22 1.19a9.46 9.46 0 003.26.51 10.08 10.08 0 002.58-.31v2.21c0 .56.49.91 1.21 1.2a9.55 9.55 0 003.26.5 10.15 10.15 0 002.72-.3c.94-.29 1.55-.66 1.59-1.3v-3.35a10.79 10.79 0 002.55-.31v2.21c0 .56.5.92 1.22 1.19a9.25 9.25 0 003.26.52 10.2 10.2 0 002.73-.35c.93-.28 1.54-.65 1.59-1.3v-1.55l5 2.71-23 3.23zm37.19 22.29c-.08.06-23.35 3.27-23.35 3.27v-17.57l23.35-3.28-.03 17.62z" fill="#237dba"/><path d="M86.158 54.503c0-.56-.5-.92-1.22-1.2a9.55 9.55 0 00-3.26-.5 9.74 9.74 0 00-2.72.34c-.93.28-1.54.65-1.59 1.29v1.38l-5.41.76h-.1v18.3a.27.27 0 000 .13v.05l3.83 2.09 10.68 5.81a.28.28 0 00.13 0l23.95-3.36h.1v-18.23a.23.23 0 000-.12v-.06l-6-3.28v-1.14c0-.56-.5-.91-1.22-1.2a9.8 9.8 0 00-3.26-.5h-.72l-1.85-1v-.98c0-.56-.5-.91-1.22-1.2a9.79 9.79 0 00-3.26-.51 10 10 0 00-2.72.35c-.94.28-1.55.65-1.6 1.29v1.2l-2.54.35" fill="#33abe1"/><path d="M110.738 61.413a.23.23 0 000-.12v-.06l-6-3.28v-1.14c0-.56-.5-.91-1.22-1.2a9.8 9.8 0 00-3.26-.5h-.72l-1.85-1v.67l.83.45q-.43.08-.84.18v-2.23c0-.56-.5-.91-1.22-1.2a9.79 9.79 0 00-3.26-.51 10 10 0 00-2.72.35c-.94.28-1.55.65-1.6 1.29v1.2l-2.54.35v.6l2.54-.36v1.53a9.78 9.78 0 00-2.68.34h.14v-2.24c0-.56-.5-.92-1.22-1.2a9.55 9.55 0 00-3.26-.5 9.74 9.74 0 00-2.72.34c-.93.28-1.54.65-1.59 1.29v1.38l-5.41.76h-.1v18.3a.27.27 0 000 .13.1.1 0 000 .05l3.83 2.09 10.68 5.81a.28.28 0 00.13 0l23.95-3.36h.1v-18.24zm-10.67-5.8a9 9 0 013 .47c.67.24.87.55.85.64-.02.09-.28.49-1.17.74a9.15 9.15 0 01-2.56.32 8.79 8.79 0 01-3-.47c-.64-.23-.84-.51-.84-.62 0-.12.28-.49 1.17-.74a9.51 9.51 0 012.55-.34zm-9.6-3.31a9.57 9.57 0 012.56-.33 8.73 8.73 0 013 .48c.67.24.87.55.84.64-.03.09-.27.49-1.16.74a9.66 9.66 0 01-2.57.32 8.83 8.83 0 01-3-.47c-.63-.23-.84-.52-.84-.62-.03-.14.33-.52 1.17-.76zm-4.3 5a9.59 9.59 0 012.56-.32 9 9 0 013 .47c.67.25.87.55.85.64-.02.09-.28.5-1.17.74a9.66 9.66 0 01-2.57.32 8.84 8.84 0 01-3-.46c-.63-.24-.84-.53-.84-.63-.03-.1.28-.48 1.17-.72zm-8.22-2.89c0-.13.29-.5 1.18-.74a9.13 9.13 0 012.55-.32 9 9 0 013 .46c.67.25.87.55.85.65-.02.1-.28.49-1.17.74a9.53 9.53 0 01-2.56.32 9 9 0 01-3-.47c-.64-.24-.85-.52-.85-.62zm-5 2.6l4.43-.62v1.36c0 .56.5.91 1.22 1.19a9.22 9.22 0 003.26.51 10.55 10.55 0 002.58-.3v2.2c0 .56.49.92 1.21 1.2a9.55 9.55 0 003.26.5 10.17 10.17 0 002.73-.33c.94-.3 1.55-.66 1.59-1.31v-3.35a10.31 10.31 0 002.55-.3v2.2c0 .56.5.91 1.22 1.19a9.5 9.5 0 003.26.51 10.2 10.2 0 002.73-.35c.93-.28 1.54-.65 1.59-1.3v-1.54l5 2.71-23 3.23zm37.19 22.29c-.08.06-23.35 3.28-23.35 3.28v-17.58l23.35-3.28-.03 17.62z" fill="#237dba"/><path d="M86.158 36.253c0-.56-.5-.91-1.22-1.2a11 11 0 00-6-.16c-.93.28-1.54.65-1.59 1.3v1.39l-5.41.76h-.1v.06c0 .06 0 0 0 0v18.17a.32.32 0 000 .14l3.83 2.08 10.68 5.81a.28.28 0 00.13 0l23.95-3.37a.21.21 0 00.1 0v-18.24a.25.25 0 000-.12v-.06l-6-3.29v-1.14c0-.55-.5-.91-1.22-1.19a9.54 9.54 0 00-3.26-.51h-.72l-1.85-1v-.94c0-.56-.5-.92-1.22-1.2a9.54 9.54 0 00-3.26-.51 10 10 0 00-2.72.34c-.94.28-1.55.65-1.6 1.29v1.19l-2.54.36" fill="#33abe1"/><path d="M110.738 43.153a.25.25 0 000-.12v-.06l-6-3.29v-1.14c0-.55-.5-.91-1.22-1.19a9.54 9.54 0 00-3.26-.51h-.72l-1.85-1v.66l.83.46a7.34 7.34 0 00-.84.17v-2.23c0-.56-.5-.92-1.22-1.2a9.54 9.54 0 00-3.26-.51 10 10 0 00-2.72.34c-.94.28-1.55.65-1.6 1.29v1.19l-2.54.36v.6l2.54-.36v1.47a10.18 10.18 0 00-2.68.34h.14v-2.23c0-.56-.5-.91-1.22-1.2a11 11 0 00-6-.16c-.93.28-1.54.65-1.59 1.3v1.39l-5.41.76h-.1v.06c0 .06 0 0 0 0v18.17a.32.32 0 000 .14l3.83 2.08 10.68 5.81a.28.28 0 00.13 0l23.95-3.37a.14.14 0 00.1 0 .64.64 0 000-.07v-18.18zm-10.67-5.79a9 9 0 013 .46c.67.25.87.55.85.64-.02.09-.28.5-1.17.75a9.53 9.53 0 01-2.56.32 9 9 0 01-3-.47c-.64-.24-.84-.52-.84-.62 0-.12.28-.49 1.17-.73a9.13 9.13 0 012.55-.35zm-9.6-3.32a9.59 9.59 0 012.56-.32 9 9 0 013 .47c.67.25.87.55.84.65-.03.1-.27.49-1.16.74a9.68 9.68 0 01-2.57.31 8.84 8.84 0 01-3-.46c-.63-.24-.84-.52-.84-.63-.03-.13.33-.52 1.17-.72zm-4.3 5a10 10 0 012.56-.32 9 9 0 013 .47c.67.25.87.55.85.65-.02.1-.28.49-1.17.74a9.66 9.66 0 01-2.57.32 9.07 9.07 0 01-3-.47c-.63-.24-.84-.52-.84-.63-.03-.09.28-.47 1.17-.72zm-8.22-2.89c0-.12.29-.49 1.18-.74a9.51 9.51 0 012.55-.32 9 9 0 013 .47c.67.24.87.55.85.64-.02.09-.28.49-1.17.74a9.15 9.15 0 01-2.56.32 8.75 8.75 0 01-3-.47c-.64-.23-.85-.51-.85-.62zm-5 2.61l4.43-.62v1.36c0 .55.5.91 1.22 1.19a9.46 9.46 0 003.26.51 10.54 10.54 0 002.58-.31v2.21c0 .56.49.91 1.21 1.19a9.54 9.54 0 003.26.51 10.15 10.15 0 002.73-.34c.94-.29 1.55-.66 1.59-1.3v-3.36a10.3 10.3 0 002.55-.31v2.21c0 .56.5.91 1.22 1.19a9.26 9.26 0 003.26.51 10.21 10.21 0 002.73-.34c.93-.28 1.54-.65 1.59-1.3v-1.48l5 2.71-23 3.23zm37.16 22.32c-.08.05-23.35 3.27-23.35 3.27v-17.57l23.35-3.28z" fill="#237dba"/><path d="M86.158 17.993c0-.56-.5-.92-1.22-1.2a9.54 9.54 0 00-3.26-.51 9.74 9.74 0 00-2.72.35c-.93.28-1.54.65-1.59 1.29v1.38l-5.41.76h-.1v18.25a.27.27 0 000 .13l3.83 2.09 10.68 5.81a.28.28 0 00.13 0l23.95-3.36h.1v-18.24a.25.25 0 000-.12v-.05l-6-3.28v-1.07c0-.56-.5-.91-1.22-1.2a9.55 9.55 0 00-3.26-.5h-.72l-1.85-1v-.93c0-.56-.5-.91-1.22-1.2a9.79 9.79 0 00-3.26-.51 10.44 10.44 0 00-2.72.34c-.94.29-1.55.66-1.6 1.3v1.2l-2.54.35" fill="#33abe1"/><path d="M110.738 24.903a.25.25 0 000-.12v-.05l-6-3.28v-1.23c0-.56-.5-.91-1.22-1.2a9.55 9.55 0 00-3.26-.5h-.72l-1.85-1v.67l.83.45a7.34 7.34 0 00-.84.18v-2.23c0-.56-.5-.91-1.22-1.2a9.79 9.79 0 00-3.26-.51 10.44 10.44 0 00-2.72.34c-.94.29-1.55.66-1.6 1.3v1.2l-2.54.35v.6l2.54-.35v1.52a9.78 9.78 0 00-2.68.34h.14v-2.19c0-.56-.5-.92-1.22-1.2a9.54 9.54 0 00-3.26-.51 9.74 9.74 0 00-2.72.35c-.93.28-1.54.65-1.59 1.29v1.38l-5.41.76h-.1v18.25a.27.27 0 000 .13l3.83 2.09 10.68 5.81a.28.28 0 00.13 0l23.95-3.36h.1v-18.24zm-10.67-5.82a9.22 9.22 0 013 .46c.67.25.87.55.85.65-.02.1-.28.49-1.17.74a9.15 9.15 0 01-2.56.32 8.79 8.79 0 01-3-.47c-.64-.23-.84-.51-.84-.62 0-.12.28-.49 1.17-.74a9.51 9.51 0 012.55-.34zm-9.6-3.31a9.57 9.57 0 012.56-.33 9 9 0 013 .47c.67.25.87.55.84.65-.03.1-.27.49-1.16.74a9.68 9.68 0 01-2.57.31 8.61 8.61 0 01-3-.46c-.63-.23-.84-.52-.84-.62-.03-.12.33-.45 1.17-.74zm-4.3 5a9.59 9.59 0 012.56-.32 9 9 0 013 .47c.67.24.87.55.85.64-.02.09-.28.49-1.17.75a10.11 10.11 0 01-2.57.31 8.84 8.84 0 01-3-.46c-.63-.24-.84-.53-.84-.63-.03-.08.28-.45 1.17-.7zm-8.22-2.89c0-.12.29-.49 1.18-.73a9.13 9.13 0 012.55-.32 9 9 0 013 .46c.67.25.87.55.85.65-.02.1-.28.49-1.17.74a9.53 9.53 0 01-2.56.32 9 9 0 01-3-.47c-.64-.24-.85-.52-.85-.62zm-5 2.6l4.43-.62v1.42c0 .56.5.91 1.22 1.19a9.22 9.22 0 003.26.51 10.55 10.55 0 002.58-.3v2.2c0 .56.49.92 1.21 1.2a9.55 9.55 0 003.26.5 10.17 10.17 0 002.73-.33c.94-.3 1.55-.66 1.59-1.31v-3.35a10.31 10.31 0 002.55-.3v2.2c0 .55.5.91 1.22 1.19a9.5 9.5 0 003.26.51 10.2 10.2 0 002.73-.35c.93-.28 1.54-.65 1.59-1.3v-1.52l5 2.72-23 3.23zm37.19 22.29c-.08.06-23.35 3.28-23.35 3.28v-17.58l23.35-3.28-.03 17.64z" fill="#237dba"/><path d="M62.198 94.393c0-.56-.5-.92-1.22-1.2a9.46 9.46 0 00-3.26-.51 9.74 9.74 0 00-2.72.35c-.93.28-1.54.65-1.59 1.29v1.38l-5.41.76h-.11v18.25a.51.51 0 000 .13l3.82 2.09 10.69 5.81h.13l23.95-3.36h.11a.14.14 0 000-.06v-18.23a.27.27 0 000-.12v-.05l-6-3.29v-1.14c0-.56-.5-.91-1.22-1.2a9.45 9.45 0 00-3.25-.5h-.73l-1.84-1v-.93c0-.56-.5-.91-1.22-1.2a10.71 10.71 0 00-6-.16c-.93.28-1.55.65-1.6 1.29v1.2l-2.55.35" fill="#33abe1"/><path d="M86.788 101.303a.27.27 0 000-.12v-.05l-6-3.29v-1.14c0-.56-.5-.91-1.22-1.2a9.45 9.45 0 00-3.25-.5h-.73l-1.84-1v.67l.83.45c-.29 0-.57.11-.83.18v-2.23c0-.56-.5-.91-1.22-1.2a10.71 10.71 0 00-6-.16c-.93.28-1.55.65-1.6 1.29v1.2l-2.55.35v.53l2.54-.36v1.52a9.8 9.8 0 00-2.69.34h.14v-2.23c0-.56-.5-.92-1.22-1.2a9.46 9.46 0 00-3.26-.51 9.74 9.74 0 00-2.72.35c-.93.28-1.54.65-1.59 1.29v1.38l-5.41.76h-.11v18.25a.51.51 0 000 .13l3.82 2.09 10.69 5.81h.13l23.95-3.36h.11a.14.14 0 000-.06v-18.23zm-10.67-5.8a9.26 9.26 0 013 .46c.66.25.86.56.84.65-.02.09-.27.5-1.16.74a9.26 9.26 0 01-2.57.33 8.77 8.77 0 01-3-.48c-.63-.23-.84-.51-.84-.62 0-.12.28-.49 1.17-.73a9.13 9.13 0 012.56-.35zm-9.6-3.31a9.44 9.44 0 012.55-.33 8.83 8.83 0 013 .48c.66.24.86.55.84.64-.02.09-.28.49-1.17.74a9.53 9.53 0 01-2.56.32 8.61 8.61 0 01-3-.47c-.63-.23-.84-.52-.83-.63-.03-.13.28-.51 1.17-.75zm-4.3 5a9.46 9.46 0 012.55-.32 8.85 8.85 0 013 .47c.66.24.86.55.84.64-.02.09-.28.5-1.17.74a9.56 9.56 0 01-2.57.32 8.84 8.84 0 01-3-.46c-.63-.24-.84-.53-.83-.63-.02-.1.29-.48 1.18-.72zm-8.22-2.89c0-.11.28-.49 1.17-.73a9.51 9.51 0 012.55-.32 9 9 0 013.05.46c.66.25.86.55.84.65-.02.1-.27.49-1.16.74a9.66 9.66 0 01-2.57.32 8.79 8.79 0 01-3-.47c-.63-.24-.84-.52-.84-.62zm-5 2.61l4.43-.63v1.37c0 .56.51.92 1.22 1.19a9.26 9.26 0 003.26.51 10.16 10.16 0 002.59-.31v2.21c0 .56.5.91 1.22 1.2a9.49 9.49 0 003.25.5 10.17 10.17 0 002.73-.33c.94-.29 1.56-.66 1.6-1.31v-3.35a10.25 10.25 0 002.55-.3v2.2c0 .55.51.91 1.22 1.19a9.5 9.5 0 003.26.51 10.21 10.21 0 002.73-.34c.93-.29 1.55-.66 1.59-1.31v-1.55l5 2.72-23 3.23zm37.2 22.28c-.09.06-23.35 3.28-23.35 3.28v-17.58l23.35-3.28s-.05 17.47-.04 17.62z" fill="#237dba"/><path d="M62.198 21.373c0-.56-.5-.92-1.22-1.2a9.46 9.46 0 00-3.26-.51 9.74 9.74 0 00-2.72.35c-.93.28-1.54.65-1.59 1.29v1.38l-5.41.76h-.11v18.25a.51.51 0 000 .13l3.82 2.09 10.69 5.8a.38.38 0 00.13 0l23.95-3.36h.11a.14.14 0 000-.06v-18.24a.27.27 0 000-.12l-6-3.29v-1.14c0-.56-.5-.91-1.22-1.2a9.45 9.45 0 00-3.25-.5h-.73l-1.84-1v-.94c0-.56-.5-.91-1.22-1.2a9.74 9.74 0 00-3.26-.51 10.08 10.08 0 00-2.72.34c-.93.29-1.55.66-1.6 1.3v1.29l-2.55.36" fill="#33abe1"/><path d="M86.788 28.283a.27.27 0 000-.12l-6-3.29v-1.14c0-.56-.5-.91-1.22-1.2a9.45 9.45 0 00-3.25-.5h-.73l-1.84-1v.67l.83.45c-.29 0-.57.11-.83.18v-2.37c0-.56-.5-.91-1.22-1.2a9.74 9.74 0 00-3.26-.51 10.08 10.08 0 00-2.72.34c-.93.29-1.55.66-1.6 1.3v1.19l-2.55.36v.64l2.54-.35v1.52a10.19 10.19 0 00-2.69.35h.14v-2.23c0-.56-.5-.92-1.22-1.2a9.46 9.46 0 00-3.26-.51 9.74 9.74 0 00-2.72.35c-.93.28-1.54.65-1.59 1.29v1.38l-5.41.76h-.11v18.25a.51.51 0 000 .13l3.82 2.09 10.69 5.8a.38.38 0 00.13 0l23.95-3.36h.11a.14.14 0 000-.06v-18.24zm-10.67-5.8a9.26 9.26 0 013 .46c.66.25.86.56.84.65-.02.09-.27.49-1.16.74a9.27 9.27 0 01-2.57.32 9 9 0 01-3-.47c-.63-.23-.84-.51-.84-.62 0-.12.28-.5 1.17-.74a9.53 9.53 0 012.56-.34zm-9.6-3.32a9.87 9.87 0 012.55-.32 9.09 9.09 0 013 .47c.66.25.86.55.84.65-.02.1-.28.49-1.17.74a9.55 9.55 0 01-2.56.31 8.86 8.86 0 01-3-.46c-.63-.24-.84-.52-.83-.63-.03-.13.28-.51 1.17-.76zm-4.3 5a9.46 9.46 0 012.55-.32 8.85 8.85 0 013 .47c.66.25.86.55.84.64-.02.09-.28.5-1.17.74a9.56 9.56 0 01-2.57.32 8.83 8.83 0 01-3-.47c-.63-.23-.84-.52-.83-.62-.02-.09.29-.47 1.18-.71zm-8.22-2.89c0-.12.28-.49 1.17-.74a9.53 9.53 0 012.55-.31 9 9 0 013.05.46c.66.25.86.55.84.65-.02.1-.27.49-1.16.74a9.66 9.66 0 01-2.57.32 9 9 0 01-3-.47c-.63-.24-.84-.52-.84-.62zm-5 2.6l4.43-.62v1.36c0 .56.51.91 1.22 1.19a9.26 9.26 0 003.26.51 10.16 10.16 0 002.59-.31v2.21c0 .56.5.91 1.22 1.2a9.49 9.49 0 003.25.5 10.17 10.17 0 002.73-.33c.94-.3 1.56-.66 1.6-1.31v-3.35a10.25 10.25 0 002.55-.3v2.2c0 .56.51.92 1.22 1.2a9.5 9.5 0 003.26.51 10.2 10.2 0 002.73-.35c.93-.28 1.55-.65 1.59-1.3v-1.55l5 2.72-23 3.23zm37.2 22.29c-.09.06-23.35 3.28-23.35 3.28v-17.58l23.35-3.28s-.05 17.5-.04 17.63z" fill="#237dba"/><path d="M62.198 3.083c0-.56-.5-.91-1.22-1.2a9.47 9.47 0 00-3.26-.5 9.74 9.74 0 00-2.72.34c-.93.28-1.54.65-1.59 1.29v1.39l-5.41.75h-.11v18.28a.68.68 0 000 .14l3.82 2.09 10.69 5.81h.13l23.95-3.37a.25.25 0 00.11 0 .14.14 0 000-.07V9.853a.27.27 0 000-.12v-.06l-6-3.29v-1.04c0-.55-.5-.91-1.22-1.19a9.44 9.44 0 00-3.25-.51h-.73l-1.84-1v-.94c0-.55-.5-.91-1.22-1.19a9.26 9.26 0 00-3.26-.51 10.08 10.08 0 00-2.72.34c-.93.29-1.55.65-1.6 1.29v1.19l-2.55.36" fill="#33abe1"/><path d="M86.788 10.023a.27.27 0 000-.12v-.06l-6-3.29v-1.21c0-.55-.5-.91-1.22-1.19a9.44 9.44 0 00-3.25-.51h-.73l-1.84-1v.66l.83.46a6.76 6.76 0 00-.83.17v-2.22c0-.55-.5-.91-1.22-1.19a9.26 9.26 0 00-3.26-.51 10.08 10.08 0 00-2.72.34c-.93.29-1.55.65-1.6 1.29v1.19l-2.55.36v.6l2.54-.36v1.52a9.8 9.8 0 00-2.69.34h.14v-2.21c0-.56-.5-.91-1.22-1.2a9.47 9.47 0 00-3.26-.5 9.74 9.74 0 00-2.72.34c-.93.28-1.54.65-1.59 1.29v1.39l-5.41.75h-.11v18.28a.68.68 0 000 .14l3.82 2.08 10.69 5.81h.13l23.95-3.37a.25.25 0 00.11 0 .14.14 0 000-.07V9.843zm-10.67-5.8a9 9 0 013 .47c.66.25.86.55.84.64-.02.09-.27.5-1.16.75a9.66 9.66 0 01-2.57.32 9 9 0 01-3-.47c-.63-.24-.84-.52-.84-.62 0-.12.28-.49 1.17-.73a9.13 9.13 0 012.56-.36zm-9.6-3.31a9.46 9.46 0 012.55-.32 9.09 9.09 0 013 .47c.66.25.86.55.84.64-.02.09-.28.5-1.17.75a10 10 0 01-2.56.31 8.86 8.86 0 01-3-.46c-.63-.24-.84-.52-.83-.63-.03-.14.28-.52 1.17-.76zm-4.3 5a9.46 9.46 0 012.55-.32 9.09 9.09 0 013 .47c.66.25.86.55.84.65-.02.1-.28.49-1.17.74a9.58 9.58 0 01-2.57.31 8.84 8.84 0 01-3-.46c-.63-.24-.84-.52-.83-.63-.02-.09.29-.47 1.18-.72zm-8.22-2.83c0-.12.28-.5 1.17-.74a9.51 9.51 0 012.55-.32 9.28 9.28 0 013.05.46c.66.25.86.56.84.65-.02.09-.27.49-1.16.74a9.27 9.27 0 01-2.57.32 8.79 8.79 0 01-3-.47c-.63-.23-.84-.51-.84-.62zm-5 2.61l4.43-.62v1.36c0 .56.51.92 1.22 1.2a9.5 9.5 0 003.26.51 10.63 10.63 0 002.59-.31v2.2c0 .55.5.91 1.22 1.19a9.48 9.48 0 003.25.51 10.15 10.15 0 002.73-.34c.94-.29 1.56-.66 1.6-1.31v-3.35a10.25 10.25 0 002.55-.3v2.2c0 .56.51.92 1.22 1.19a9.26 9.26 0 003.26.51 10.21 10.21 0 002.73-.34c.93-.29 1.55-.66 1.59-1.31v-1.53l5 2.71-23.02 3.22zm37.2 22.29c-.09.05-23.35 3.27-23.35 3.27v-17.58l23.35-3.28s-.05 17.46-.04 17.57z" fill="#237dba"/><path d="M38.258 97.763c0-.56-.49-.92-1.22-1.2a9.44 9.44 0 00-3.25-.51 9.86 9.86 0 00-2.73.35c-.93.28-1.54.65-1.58 1.29v1.39l-5.41.76h-.11a.14.14 0 000 .07v18.18a.28.28 0 000 .13v.05l3.83 2.09 10.68 5.81a.28.28 0 00.12 0l24-3.37h.11v-18.13a.27.27 0 000-.12l-6-3.29v-1.13c0-.56-.5-.91-1.23-1.2a9.45 9.45 0 00-3.25-.5h-.72l-1.85-1v-.93c0-.56-.5-.91-1.22-1.2a10.71 10.71 0 00-6-.16c-.93.28-1.55.65-1.59 1.29v1.21l-2.55.35" fill="#33abe1"/><path d="M62.848 104.673a.27.27 0 000-.12l-6-3.29v-1.13c0-.56-.5-.91-1.23-1.2a9.45 9.45 0 00-3.25-.5h-.72l-1.85-1v.67l.84.45q-.43.07-.84.18v-2.23c0-.56-.5-.91-1.22-1.2a10.71 10.71 0 00-6-.16c-.93.28-1.55.65-1.59 1.29v1.21l-2.55.35v.61l2.54-.36v1.54a10.25 10.25 0 00-2.69.35h.14v-2.23c0-.56-.49-.92-1.22-1.2a9.44 9.44 0 00-3.25-.51 9.86 9.86 0 00-2.73.35c-.93.28-1.54.65-1.58 1.29v1.25l-5.41.76h-.11a.14.14 0 000 .07v18.18a.28.28 0 000 .13v.05l3.83 2.09 10.68 5.81a.28.28 0 00.12 0l24-3.37h.11v-18.13zm-10.67-5.8a9.26 9.26 0 013 .46c.67.26.87.56.84.65-.03.09-.27.49-1.16.74a9.15 9.15 0 01-2.56.32 9.37 9.37 0 01-3-.46c-.63-.24-.84-.52-.84-.63 0-.12.29-.49 1.18-.74a9.46 9.46 0 012.54-.34zm-9.6-3.31a9.53 9.53 0 012.56-.32 9.09 9.09 0 013 .46c.66.25.86.56.84.65-.02.09-.28.49-1.17.74a9.53 9.53 0 01-2.56.32 8.79 8.79 0 01-3-.47c-.63-.23-.85-.52-.84-.63-.03-.13.28-.51 1.22-.75zm-4.3 5a9.48 9.48 0 012.56-.32 8.83 8.83 0 013 .47c.66.25.86.55.84.64-.02.09-.28.5-1.17.74a9.53 9.53 0 01-2.56.32 8.76 8.76 0 01-3-.46c-.63-.24-.85-.53-.84-.63-.03-.1.28-.48 1.17-.72zm-8.22-2.89c0-.11.29-.49 1.18-.73a10.3 10.3 0 015.59.14c.67.25.87.55.84.65-.03.1-.27.49-1.16.74a10.25 10.25 0 01-5.61-.15c-.63-.24-.84-.52-.84-.62zm-5 2.6l4.43-.62v1.43c0 .56.51.92 1.23 1.19a9.17 9.17 0 003.25.51 10.11 10.11 0 002.59-.31v2.21c0 .56.5.92 1.22 1.2a9.49 9.49 0 003.25.5 10.29 10.29 0 002.74-.33c.93-.29 1.55-.66 1.59-1.31v-3.35a10.66 10.66 0 002.54-.3v2.23c0 .56.5.92 1.22 1.2a9.44 9.44 0 003.25.51 10.15 10.15 0 002.73-.34c.94-.29 1.55-.66 1.59-1.31v-1.92.37l5 2.72-23 3.23zm37.2 22.29c-.08.06-23.35 3.28-23.35 3.28v-17.58l23.35-3.28s-.05 17.51-.04 17.62z" fill="#237dba"/><path d="M38.258 6.493c0-.56-.49-.91-1.22-1.2a9.45 9.45 0 00-3.25-.5 9.87 9.87 0 00-2.73.34c-.93.28-1.54.65-1.58 1.29v1.39l-5.41.75h-.11a.14.14 0 000 .06v18.17a.28.28 0 000 .13l3.83 2.09 10.68 5.81a.27.27 0 00.12 0l24-3.37a.17.17 0 00.11 0v-18.25a.2.2 0 000-.11v-.06l-6-3.29v-1.03c0-.55-.5-.91-1.23-1.19a9.44 9.44 0 00-3.25-.51h-.72l-1.85-1v-.93c0-.55-.5-.91-1.22-1.19a9.24 9.24 0 00-3.25-.51 10.15 10.15 0 00-2.73.34c-.93.28-1.55.65-1.59 1.29v1.19l-2.55.36" fill="#33abe1"/><path d="M62.848 13.393a.2.2 0 000-.11v-.06l-6-3.29v-1.22c0-.55-.5-.91-1.23-1.19a9.44 9.44 0 00-3.25-.51h-.72l-1.85-1v.66l.84.45q-.43.08-.84.18v-2.22c0-.55-.5-.91-1.22-1.19a9.24 9.24 0 00-3.25-.51 10.15 10.15 0 00-2.73.34c-.93.28-1.55.65-1.59 1.29v1.19l-2.55.36v.6l2.54-.36v1.54a9.85 9.85 0 00-2.69.34h.14v-2.19c0-.56-.49-.91-1.22-1.2a9.45 9.45 0 00-3.25-.5 9.87 9.87 0 00-2.73.34c-.93.28-1.54.65-1.58 1.29v1.39l-5.41.75h-.11a.14.14 0 000 .06v18.17a.28.28 0 000 .13l3.83 2.08 10.68 5.81a.27.27 0 00.12 0l24-3.37a.17.17 0 00.11 0v-18.25zm-10.67-5.79a9 9 0 013 .46c.67.25.87.55.84.64-.03.09-.27.5-1.16.75a9.53 9.53 0 01-2.56.32 9.09 9.09 0 01-3-.47c-.63-.24-.84-.52-.84-.63 0-.12.29-.49 1.18-.73a9.08 9.08 0 012.54-.34zm-9.55-3.32a9.53 9.53 0 012.56-.32 9.07 9.07 0 013 .47c.66.25.86.55.84.64-.02.09-.28.5-1.17.75a10 10 0 01-2.56.31 8.8 8.8 0 01-3-.46c-.63-.24-.85-.52-.84-.63-.08-.14.23-.52 1.17-.76zm-4.3 5a9.48 9.48 0 012.56-.32 9.07 9.07 0 013 .47c.66.25.86.55.84.65-.02.1-.28.49-1.17.74a9.55 9.55 0 01-2.56.31 8.76 8.76 0 01-3-.46c-.63-.24-.85-.52-.84-.63-.08-.1.23-.48 1.12-.72zm-8.22-2.89c0-.12.29-.5 1.18-.74a9.41 9.41 0 012.55-.32 9.26 9.26 0 013 .46c.67.25.87.56.84.65-.03.09-.27.49-1.16.74a9.15 9.15 0 01-2.56.32 8.85 8.85 0 01-3-.47c-.63-.23-.84-.51-.84-.62zm-5 2.61l4.43-.63v1.41c0 .56.51.92 1.23 1.2a9.4 9.4 0 003.25.51 10.57 10.57 0 002.59-.31v2.2c0 .55.5.91 1.22 1.19a9.48 9.48 0 003.25.51 10.28 10.28 0 002.74-.34c.93-.29 1.55-.66 1.59-1.31v-3.35a10.17 10.17 0 002.54-.3v2.23c0 .56.5.91 1.22 1.19a9.2 9.2 0 003.25.51 10.15 10.15 0 002.73-.34c.94-.29 1.55-.66 1.59-1.31v-1.92.38l5 2.71-23 3.23zm37.2 22.29c-.08 0-23.35 3.27-23.35 3.27v-17.58l23.35-3.28s-.1 17.51-.09 17.63z" fill="#237dba"/><path d="M14.318 101.083c0-.56-.5-.91-1.22-1.2a9.8 9.8 0 00-3.26-.5 10.13 10.13 0 00-2.72.34c-.93.28-1.55.66-1.59 1.3v1.39l-5.41.76h-.11a.1.1 0 000 .05v.06c0 .06 0 0 0 0v18.17a.34.34 0 000 .14l3.83 2.09 10.68 5.81a.28.28 0 00.13 0l23.94-3.37a.21.21 0 00.11 0 .64.64 0 000-.07v-18.18a.2.2 0 000-.11v-.06l-6-3.29v-1.14c0-.56-.5-.92-1.22-1.2a9.54 9.54 0 00-3.26-.51h-.72l-1.85-1v-.94c0-.55-.51-.91-1.22-1.19a9.34 9.34 0 00-3.26-.51 10 10 0 00-2.72.34c-.94.29-1.55.66-1.6 1.29v1.19l-2.54.36" fill="#33abe1"/><path d="M38.898 108.023a.2.2 0 000-.11v-.06l-6-3.29v-1.14c0-.56-.5-.92-1.22-1.2a9.54 9.54 0 00-3.26-.51h-.72l-1.85-1v.66l.83.46a7.34 7.34 0 00-.84.17v-2.23c0-.55-.51-.91-1.22-1.19a9.34 9.34 0 00-3.26-.51 10 10 0 00-2.72.34c-.94.29-1.55.66-1.6 1.29v1.19l-2.54.36v.6l2.54-.36v1.52a10.18 10.18 0 00-2.68.34h.13v-2.23c0-.56-.5-.91-1.22-1.2a9.8 9.8 0 00-3.26-.5 10.13 10.13 0 00-2.72.34c-.93.28-1.55.66-1.59 1.3v1.39l-5.41.76h-.11a.1.1 0 000 .05v.06c0 .06 0 0 0 0v18.17a.34.34 0 000 .14l3.83 2.09 10.68 5.81a.28.28 0 00.13 0l23.94-3.37a.21.21 0 00.11 0 .64.64 0 000-.07v-18.18zm-10.67-5.79a9 9 0 013 .46c.67.25.87.55.85.65-.02.1-.28.48-1.17.74a9.53 9.53 0 01-2.56.32 9 9 0 01-3-.47c-.64-.24-.84-.52-.84-.62 0-.11.28-.49 1.17-.73a9.13 9.13 0 012.55-.35zm-9.6-3.32a9.59 9.59 0 012.56-.32 8.79 8.79 0 013 .47c.66.25.87.55.84.64-.03.09-.28.5-1.16.75a10.05 10.05 0 01-2.57.31 8.84 8.84 0 01-3-.46c-.63-.24-.84-.52-.84-.63-.03-.14.28-.52 1.17-.76zm-4.3 5a10 10 0 012.56-.32 9.07 9.07 0 013 .47c.66.25.87.55.84.65-.03.1-.28.49-1.17.74a9.55 9.55 0 01-2.56.31 8.84 8.84 0 01-3-.46c-.63-.24-.84-.52-.84-.63-.03-.09.28-.48 1.17-.72zm-8.22-2.89c0-.12.29-.5 1.18-.74a9.51 9.51 0 012.55-.32 9 9 0 013 .47c.67.24.87.55.85.64-.02.09-.28.49-1.17.74a9.15 9.15 0 01-2.56.32 9 9 0 01-3-.46c-.64-.24-.85-.52-.85-.63zm-5 2.61l4.43-.62v1.36c0 .56.5.92 1.22 1.2a9.46 9.46 0 003.26.51 10.54 10.54 0 002.58-.31v2.21c0 .55.49.91 1.21 1.2a9.55 9.55 0 003.26.5 10.15 10.15 0 002.73-.34c.93-.29 1.55-.66 1.59-1.31v-3.35a10.31 10.31 0 002.55-.3v2.2c0 .56.5.92 1.22 1.19a9.22 9.22 0 003.26.51 10.21 10.21 0 002.73-.34c.93-.29 1.54-.65 1.59-1.3v-1.55l5 2.72-23 3.22zm37.19 22.29c-.08.05-23.35 3.27-23.35 3.27v-17.57l23.35-3.29s-.04 17.52-.03 17.63z" fill="#237dba"/><path d="M14.318 82.863c0-.56-.5-.92-1.22-1.2a9.54 9.54 0 00-3.26-.51 9.74 9.74 0 00-2.72.35c-.93.28-1.55.65-1.59 1.29v1.38l-5.41.76h-.11v18.25a.27.27 0 000 .13l3.83 2.09 10.68 5.81a.28.28 0 00.13 0l23.94-3.36a.22.22 0 00.11 0v-18.08a.23.23 0 000-.12v-.05l-6-3.28v-1.24c0-.56-.5-.92-1.22-1.2a9.55 9.55 0 00-3.26-.5h-.72l-1.85-1v-.94c0-.56-.51-.91-1.22-1.2a9.83 9.83 0 00-3.26-.51 10 10 0 00-2.72.34c-.94.29-1.55.66-1.6 1.3v1.19l-2.54.36" fill="#33abe1"/><path d="M38.898 89.773a.23.23 0 000-.12v-.05l-6-3.28v-1.24c0-.56-.5-.92-1.22-1.2a9.55 9.55 0 00-3.26-.5h-.72l-1.85-1v.7l.83.45q-.43.07-.84.18v-2.23c0-.56-.51-.91-1.22-1.2a9.83 9.83 0 00-3.26-.51 10 10 0 00-2.72.34c-.94.29-1.55.66-1.6 1.3v1.19l-2.54.36v.6l2.54-.36v1.53a10.17 10.17 0 00-2.68.35h.13v-2.23c0-.56-.5-.92-1.22-1.2a9.54 9.54 0 00-3.26-.51 9.74 9.74 0 00-2.72.35c-.93.28-1.55.65-1.59 1.29v1.38l-5.41.76h-.11v18.25a.27.27 0 000 .13l3.83 2.09 10.68 5.81a.28.28 0 00.13 0l23.94-3.36a.22.22 0 00.11 0v-18.07zm-10.67-5.8a9.26 9.26 0 013 .46c.67.25.87.56.85.65-.02.09-.28.49-1.17.74a9.15 9.15 0 01-2.56.32 8.75 8.75 0 01-3-.47c-.64-.23-.84-.51-.84-.62 0-.12.28-.5 1.17-.74a9.51 9.51 0 012.55-.34zm-9.6-3.31a9.59 9.59 0 012.56-.32 9 9 0 013 .46c.66.26.87.56.84.65-.03.09-.28.49-1.16.74a9.61 9.61 0 01-2.57.32 9.07 9.07 0 01-3-.47c-.63-.23-.84-.52-.84-.63-.03-.13.28-.51 1.17-.75zm-4.3 5a9.53 9.53 0 012.56-.32 9.07 9.07 0 013 .47c.66.24.87.55.84.64-.03.09-.28.49-1.17.74a9.53 9.53 0 01-2.56.32 9.09 9.09 0 01-3-.46c-.63-.24-.84-.53-.84-.63-.03-.1.28-.48 1.17-.72zm-8.22-2.89c0-.11.29-.49 1.18-.73a9.51 9.51 0 012.55-.32 9 9 0 013 .46c.67.25.87.55.85.65-.02.1-.28.49-1.17.74a9.53 9.53 0 01-2.56.32 9 9 0 01-3-.47c-.64-.24-.85-.52-.85-.62zm-5 2.6l4.43-.62v1.37c0 .56.5.91 1.22 1.19a9.22 9.22 0 003.26.51 10.08 10.08 0 002.58-.31v2.21c0 .56.49.92 1.21 1.2a9.55 9.55 0 003.26.5 9.77 9.77 0 002.73-.34c.93-.28 1.55-.65 1.59-1.3v-3.35a10.31 10.31 0 002.55-.3v2.2c0 .56.5.92 1.22 1.2a9.46 9.46 0 003.26.51 10.2 10.2 0 002.73-.35c.93-.28 1.54-.65 1.59-1.3v-1.55l5 2.72-23 3.22zm37.19 22.29c-.08.06-23.35 3.28-23.35 3.28v-17.58l23.35-3.28s-.04 17.51-.03 17.62z" fill="#237dba"/><path d="M14.318 64.613c0-.56-.5-.91-1.22-1.2a9.55 9.55 0 00-3.26-.5 10.13 10.13 0 00-2.72.34c-.93.28-1.55.66-1.59 1.29v1.39l-5.41.76h-.11v.06c0 .06 0 0 0 0v18.17a.27.27 0 000 .13.1.1 0 000 .05l3.83 2.09 10.68 5.81a.28.28 0 00.13 0l23.94-3.35h.11v-18.29a.25.25 0 000-.12.21.21 0 000-.06h-.05l-6-3.29v-1.14c0-.56-.5-.92-1.22-1.2a9.54 9.54 0 00-3.26-.51h-.72l-1.85-1v-.94c0-.55-.51-.91-1.22-1.19a9.34 9.34 0 00-3.26-.51 10 10 0 00-2.72.34c-.94.29-1.55.65-1.6 1.29v1.19l-2.54.36" fill="#33abe1"/><path d="M38.898 71.513a.25.25 0 000-.12.21.21 0 000-.06h-.05l-6-3.29v-1.14c0-.56-.5-.92-1.22-1.2a9.54 9.54 0 00-3.26-.51h-.72l-1.85-1v.66l.83.46a7.34 7.34 0 00-.84.17v-2.23c0-.55-.51-.91-1.22-1.19a9.34 9.34 0 00-3.26-.51 10 10 0 00-2.72.34c-.94.29-1.55.65-1.6 1.29v1.19l-2.54.36v.6l2.54-.36v1.52a9.78 9.78 0 00-2.68.34h.13v-2.23c0-.56-.5-.91-1.22-1.2a9.55 9.55 0 00-3.26-.5 10.13 10.13 0 00-2.72.34c-.93.28-1.55.66-1.59 1.29v1.39l-5.41.76h-.11v.06c0 .06 0 0 0 0v18.17a.27.27 0 000 .13.1.1 0 000 .05l3.83 2.09 10.68 5.81a.5.5 0 00.13 0l23.94-3.35h.11v-18.29zm-10.67-5.79a9 9 0 013 .46c.67.25.87.55.85.65-.02.1-.28.49-1.17.74a9.53 9.53 0 01-2.56.32 9 9 0 01-3-.47c-.64-.24-.84-.52-.84-.62 0-.12.28-.49 1.17-.73a9.13 9.13 0 012.55-.35zm-9.6-3.32a9.59 9.59 0 012.56-.32 9 9 0 013 .47c.66.25.87.55.84.64-.03.09-.28.5-1.16.75a10.05 10.05 0 01-2.57.31 8.84 8.84 0 01-3-.46c-.63-.24-.84-.52-.84-.63-.03-.14.28-.52 1.17-.76zm-4.3 5a9.53 9.53 0 012.56-.32 9.07 9.07 0 013 .47c.66.25.87.55.84.65-.03.1-.28.49-1.17.74a9.55 9.55 0 01-2.56.31 8.84 8.84 0 01-3-.46c-.63-.24-.84-.52-.84-.63-.03-.08.28-.47 1.17-.72zm-8.22-2.89c0-.12.29-.5 1.18-.74a9.51 9.51 0 012.55-.32 9.26 9.26 0 013 .46c.67.25.87.56.85.65-.02.09-.28.49-1.17.74a9.53 9.53 0 01-2.56.32 8.75 8.75 0 01-3-.47c-.64-.23-.85-.51-.85-.62zm-5 2.61l4.43-.62v1.36c0 .55.5.91 1.22 1.19a9.46 9.46 0 003.26.51 10.54 10.54 0 002.58-.31v2.21c0 .55.49.91 1.21 1.2a9.8 9.8 0 003.26.5 10.15 10.15 0 002.73-.34c.93-.29 1.55-.66 1.59-1.3v-3.36a10.31 10.31 0 002.55-.3v2.2c0 .56.5.91 1.22 1.19a9.22 9.22 0 003.26.51 10.21 10.21 0 002.73-.34c.93-.29 1.54-.65 1.59-1.31v-1.54l5 2.71-23 3.23zm37.19 22.29c-.08 0-23.35 3.27-23.35 3.27v-17.57l23.35-3.29s-.04 17.52-.03 17.63z" fill="#237dba"/><path d="M14.318 46.353c0-.56-.5-.92-1.22-1.2a9.54 9.54 0 00-3.26-.51 9.74 9.74 0 00-2.72.35c-.93.28-1.55.65-1.59 1.29v1.38l-5.41.76a.3.3 0 00-.11 0v18.24a.27.27 0 000 .13l3.83 2.09 10.68 5.81a.28.28 0 00.13 0l23.94-3.36h.11v-18.24a.25.25 0 000-.12l-6-3.28v-1.11c0-.56-.5-.91-1.22-1.2a9.55 9.55 0 00-3.26-.5h-.72l-1.85-1v-.94c0-.56-.51-.91-1.22-1.2a9.83 9.83 0 00-3.26-.51 10 10 0 00-2.72.34c-.94.29-1.55.66-1.6 1.3v1.21l-2.54.36" fill="#33abe1"/><path d="M38.898 53.263a.25.25 0 000-.12l-6-3.28v-1.28c0-.56-.5-.91-1.22-1.2a9.55 9.55 0 00-3.26-.5h-.72l-1.85-1v.67l.83.45a7.34 7.34 0 00-.84.18v-2.24c0-.56-.51-.91-1.22-1.2a9.83 9.83 0 00-3.26-.51 10 10 0 00-2.72.34c-.94.29-1.55.66-1.6 1.3v1.21l-2.54.36v.6l2.54-.36v1.53a10.17 10.17 0 00-2.68.35h.13v-2.23c0-.56-.5-.92-1.22-1.2a9.54 9.54 0 00-3.26-.51 9.74 9.74 0 00-2.72.35c-.93.28-1.55.65-1.59 1.29v1.38l-5.41.76a.3.3 0 00-.11 0v18.24a.27.27 0 000 .13l3.83 2.09 10.68 5.81a.28.28 0 00.13 0l23.94-3.36h.11v-18.24zm-10.67-5.8a9.26 9.26 0 013 .46c.67.25.87.56.85.65-.02.09-.28.49-1.17.74a9.15 9.15 0 01-2.56.32 8.75 8.75 0 01-3-.47c-.64-.23-.84-.51-.84-.62 0-.12.28-.5 1.17-.74a9.51 9.51 0 012.55-.34zm-9.6-3.32a10 10 0 012.56-.32 9 9 0 013 .47c.66.25.87.55.84.65-.03.1-.28.49-1.16.74a9.61 9.61 0 01-2.57.32 9.07 9.07 0 01-3-.47c-.63-.24-.84-.52-.84-.63-.03-.13.28-.51 1.17-.76zm-4.3 5a9.53 9.53 0 012.56-.32 9.09 9.09 0 013 .46c.66.26.87.56.84.65-.03.09-.28.5-1.17.74a9.53 9.53 0 01-2.56.32 9.09 9.09 0 01-3-.46c-.63-.24-.84-.53-.84-.63-.03-.09.28-.47 1.17-.71zm-8.22-2.89c0-.11.29-.49 1.18-.73a9.13 9.13 0 012.55-.32 9 9 0 013 .46c.67.25.87.55.85.65-.02.1-.28.49-1.17.74a9.53 9.53 0 01-2.56.32 9 9 0 01-3-.47c-.64-.24-.85-.52-.85-.62zm-5 2.6l4.43-.62v1.36c0 .56.5.91 1.22 1.19a9.22 9.22 0 003.26.51 10.08 10.08 0 002.58-.31v2.21c0 .56.49.91 1.21 1.2a9.55 9.55 0 003.26.5 9.77 9.77 0 002.73-.34c.93-.29 1.55-.65 1.59-1.3v-3.35a10.31 10.31 0 002.55-.3v2.2c0 .56.5.92 1.22 1.2a9.46 9.46 0 003.26.51 10.21 10.21 0 002.73-.34c.93-.29 1.54-.66 1.59-1.31v-1.48l5 2.72-23 3.22zm37.19 22.29c-.08.06-23.35 3.28-23.35 3.28v-17.58l23.35-3.28s-.04 17.52-.03 17.63z" fill="#237dba"/><path d="M14.318 28.083c0-.56-.5-.92-1.22-1.2a9.55 9.55 0 00-3.26-.5 10.13 10.13 0 00-2.72.34c-.93.28-1.55.66-1.59 1.29v1.38l-5.41.76h-.11v.06c0 .06 0 0 0 0v18.17a.27.27 0 000 .13l3.83 2.09 10.68 5.81a.28.28 0 00.13 0l23.98-2.93h.11v-18.5a.25.25 0 000-.12.21.21 0 000-.06l-6-3.29v-1.14c0-.55-.5-.91-1.22-1.19a9.54 9.54 0 00-3.26-.51h-.72l-1.85-1v-.94c0-.55-.51-.91-1.22-1.19a9.34 9.34 0 00-3.26-.51 10 10 0 00-2.72.34c-.94.29-1.55.65-1.6 1.29v1.19l-2.54.36" fill="#33abe1"/><path d="M38.898 35.003a.25.25 0 000-.12.21.21 0 000-.06l-6-3.29v-1.14c0-.55-.5-.91-1.22-1.19a9.54 9.54 0 00-3.26-.51h-.72l-1.85-1v.66l.83.46a7.34 7.34 0 00-.84.17v-2.23c0-.55-.51-.91-1.22-1.19a9.34 9.34 0 00-3.26-.51 10 10 0 00-2.72.34c-.94.29-1.55.65-1.6 1.29v1.19l-2.54.36v.6l2.54-.36v1.52a9.78 9.78 0 00-2.68.34h.13v-2.23c0-.56-.5-.92-1.22-1.2a9.55 9.55 0 00-3.26-.5 10.13 10.13 0 00-2.72.34c-.93.28-1.55.66-1.59 1.29v1.38l-5.41.76h-.11v.06c0 .06 0 0 0 0v18.17a.27.27 0 000 .13l3.83 2.09 10.68 5.81a.5.5 0 00.13 0l23.81-2.95a.21.21 0 00.11 0v-18.5zm-10.67-5.79a9 9 0 013 .46c.67.25.87.55.85.64-.02.09-.28.5-1.17.74a9.13 9.13 0 01-2.56.33 9 9 0 01-3-.47c-.64-.24-.84-.52-.84-.63 0-.12.28-.49 1.17-.73a9.13 9.13 0 012.55-.34zm-9.6-3.32a9.59 9.59 0 012.56-.32 9 9 0 013 .47c.66.25.87.55.84.64-.03.09-.28.49-1.16.75a10.05 10.05 0 01-2.57.31 8.84 8.84 0 01-3-.46c-.63-.24-.84-.53-.84-.63-.03-.14.28-.52 1.17-.76zm-4.3 5a9.53 9.53 0 012.56-.32 9.07 9.07 0 013 .47c.66.25.87.55.84.65-.03.1-.28.49-1.17.74a9.55 9.55 0 01-2.56.31 8.84 8.84 0 01-3-.46c-.63-.24-.84-.52-.84-.63-.03-.09.28-.48 1.17-.72zm-8.22-2.89c0-.12.29-.5 1.18-.74a9.51 9.51 0 012.55-.32 9.26 9.26 0 013 .46c.67.25.87.56.85.65-.02.09-.28.49-1.17.74a9.53 9.53 0 01-2.56.32 8.75 8.75 0 01-3-.47c-.64-.23-.85-.51-.85-.62zm-5 2.61l4.43-.63v1.37c0 .56.5.92 1.22 1.2a9.46 9.46 0 003.26.51 10.54 10.54 0 002.58-.31v2.2c0 .55.49.91 1.21 1.19a9.54 9.54 0 003.26.51 10.15 10.15 0 002.73-.34c.93-.29 1.55-.66 1.59-1.31v-3.4a10.31 10.31 0 002.55-.3v2.2c0 .56.5.91 1.22 1.19a9.22 9.22 0 003.26.51 10.21 10.21 0 002.73-.34c.93-.29 1.54-.65 1.59-1.31v-1.54l5 2.71-23 3.23zm37.19 22.29c-.08 0-23.35 3.27-23.35 3.27v-17.58l23.35-3.28s-.04 17.52-.03 17.63z" fill="#237dba"/><path d="M14.318 9.843c0-.56-.5-.92-1.22-1.2a9.54 9.54 0 00-3.26-.51 9.74 9.74 0 00-2.72.35c-.93.27-1.55.65-1.59 1.29v1.38l-5.41.76h-.11v18.24a.3.3 0 000 .13l3.83 2.09 10.68 5.8a.28.28 0 00.13 0l23.94-3.36a.22.22 0 00.11-.05.64.64 0 000-.07v-18.18a.23.23 0 000-.12l-6-3.29v-1.02c0-.56-.5-.92-1.22-1.2a9.55 9.55 0 00-3.26-.5h-.72l-1.85-1v-.94c0-.56-.51-.91-1.22-1.2a9.83 9.83 0 00-3.26-.51 10 10 0 00-2.72.34c-.94.29-1.55.66-1.6 1.3v1.19l-2.54.36" fill="#33abe1"/><path d="M38.898 16.753a.23.23 0 000-.12l-6-3.29v-1.26c0-.56-.5-.92-1.22-1.2a9.55 9.55 0 00-3.26-.5h-.72l-1.85-1v.7l.83.45q-.43.07-.84.18v-2.24c0-.56-.51-.91-1.22-1.2a9.83 9.83 0 00-3.26-.51 10 10 0 00-2.72.34c-.94.29-1.55.66-1.6 1.3v1.19l-2.54.36v.6l2.54-.36v1.53a10.17 10.17 0 00-2.68.35h.13v-2.23c0-.56-.5-.92-1.22-1.2a9.54 9.54 0 00-3.26-.51 9.74 9.74 0 00-2.72.35c-.93.27-1.55.65-1.59 1.29v1.38l-5.41.76h-.11v18.24a.3.3 0 000 .13l3.83 2.09 10.68 5.8a.28.28 0 00.13 0l23.94-3.36a.22.22 0 00.11-.05.64.64 0 000-.07v-18.18zm-10.67-5.8a9.26 9.26 0 013 .46c.67.25.87.55.85.65-.02.1-.28.49-1.17.74a9.53 9.53 0 01-2.56.32 9 9 0 01-3-.47c-.64-.23-.84-.51-.84-.62 0-.12.28-.5 1.17-.74a9.51 9.51 0 012.55-.34zm-9.6-3.32a10 10 0 012.56-.32 9 9 0 013 .47c.66.25.87.55.84.65-.03.1-.28.49-1.16.74a9.61 9.61 0 01-2.57.32 9.07 9.07 0 01-3-.47c-.63-.23-.84-.52-.84-.63-.03-.13.28-.51 1.17-.76zm-4.3 5a9.53 9.53 0 012.56-.32 8.83 8.83 0 013 .47c.66.24.87.55.84.64-.03.09-.28.49-1.17.74a9.53 9.53 0 01-2.56.32 8.83 8.83 0 01-3-.47c-.63-.23-.84-.52-.84-.62-.03-.09.28-.47 1.17-.71zm-8.22-2.89c0-.12.29-.49 1.18-.73a9.13 9.13 0 012.55-.32 9 9 0 013 .46c.67.25.87.55.85.65-.02.1-.28.49-1.17.74a9.53 9.53 0 01-2.56.32 9 9 0 01-3-.47c-.64-.24-.85-.52-.85-.63zm-5 2.6l4.43-.62v1.36c0 .56.5.91 1.22 1.19a9.22 9.22 0 003.26.51 10.08 10.08 0 002.58-.31v2.21c0 .56.49.91 1.21 1.2a9.55 9.55 0 003.26.5 9.77 9.77 0 002.73-.34c.93-.28 1.55-.65 1.59-1.3v-3.35a10.31 10.31 0 002.55-.3v2.2c0 .56.5.92 1.22 1.2a9.46 9.46 0 003.26.51 10.2 10.2 0 002.73-.35c.93-.28 1.54-.65 1.59-1.3v-1.48l5 2.72-23 3.22zm37.19 22.29c-.08.06-23.35 3.28-23.35 3.28v-17.58l23.36-3.25s-.05 17.49-.04 17.6z" fill="#237dba"/><path d="M101.228 80.983c0-.56-.5-.92-1.22-1.2a9.54 9.54 0 00-3.26-.51 9.74 9.74 0 00-2.72.35c-.93.28-1.54.65-1.59 1.29v1.38l-5.41.76h-.1a.19.19 0 010 .07v18.18a.27.27 0 000 .13l3.83 2.09 10.68 5.81a.28.28 0 00.13 0l24-3.36h.1a.11.11 0 000-.06v-18.24a.25.25 0 000-.12l-6-3.29v-1.13c0-.56-.5-.91-1.22-1.2a9.8 9.8 0 00-3.26-.5h-.72l-1.85-1v-.93c0-.56-.51-.91-1.22-1.2a9.79 9.79 0 00-3.26-.51 9.64 9.64 0 00-2.72.35c-.93.28-1.55.65-1.6 1.29v1.19l-2.54.36" fill="#33abe1"/><path d="M125.808 87.893a.25.25 0 000-.12l-6-3.29v-1.13c0-.56-.5-.91-1.22-1.2a9.8 9.8 0 00-3.26-.5h-.72l-1.85-1v.67l.83.45q-.43.07-.84.18v-2.23c0-.56-.51-.91-1.22-1.2a9.79 9.79 0 00-3.26-.51 9.64 9.64 0 00-2.72.35c-.93.28-1.55.65-1.6 1.29v1.19l-2.54.36v.6l2.54-.36v1.53a9.78 9.78 0 00-2.68.34h.13v-2.23c0-.56-.5-.92-1.22-1.2a9.54 9.54 0 00-3.26-.51 9.74 9.74 0 00-2.72.35c-.93.28-1.54.65-1.59 1.29v1.38l-5.41.76h-.1a.19.19 0 010 .07v18.18a.27.27 0 000 .13l3.83 2.09 10.68 5.81a.28.28 0 00.13 0l24-3.36h.1a.11.11 0 000-.06v-18.24zm-10.67-5.8a9.33 9.33 0 013 .46c.66.25.86.56.84.65-.02.09-.27.49-1.17.74a9.15 9.15 0 01-2.56.32 8.79 8.79 0 01-3-.47c-.64-.23-.84-.51-.84-.62 0-.12.28-.49 1.17-.74a9.51 9.51 0 012.56-.35zm-9.6-3.31a9.59 9.59 0 012.56-.32 9 9 0 013 .46c.67.25.87.56.85.65-.02.09-.28.49-1.17.74a9.66 9.66 0 01-2.57.32 8.83 8.83 0 01-3-.47c-.63-.23-.84-.52-.84-.62-.02-.14.26-.52 1.17-.76zm-4.3 5a9.59 9.59 0 012.56-.32 9 9 0 013 .47c.67.25.87.55.85.64-.02.09-.28.5-1.17.75a10.11 10.11 0 01-2.57.31 9.09 9.09 0 01-3-.46c-.63-.24-.84-.53-.84-.63-.03-.1.28-.46 1.17-.72zm-8.21-2.89c0-.11.28-.49 1.17-.74a9.53 9.53 0 012.55-.31 9.33 9.33 0 013.05.46c.66.25.86.55.84.65-.02.1-.28.49-1.17.74a9.53 9.53 0 01-2.56.32 9 9 0 01-3-.47c-.64-.24-.84-.51-.84-.62zm-5 2.61l4.43-.63v1.36c0 .56.5.91 1.22 1.19a9.26 9.26 0 003.26.51 10.08 10.08 0 002.58-.31v2.21c0 .56.5.92 1.21 1.2a9.55 9.55 0 003.26.5 10.17 10.17 0 002.73-.33c.94-.3 1.55-.66 1.59-1.31v-3.35a10.25 10.25 0 002.55-.3v2.2c0 .55.51.91 1.22 1.19a9.5 9.5 0 003.26.51 9.81 9.81 0 002.73-.35c.93-.28 1.55-.65 1.59-1.3v-1.55l5 2.72-23 3.22zm37.2 22.28c-.09.06-23.36 3.28-23.36 3.28v-17.58l23.35-3.28s-.05 17.51-.03 17.62z" fill="#237dba"/><path d="M101.228 62.733c0-.56-.5-.91-1.22-1.2a9.55 9.55 0 00-3.26-.5 10.13 10.13 0 00-2.72.34c-.93.28-1.54.66-1.59 1.3v1.41l-5.41.76a.19.19 0 00-.1 0 .14.14 0 010 .06v18.17a.27.27 0 000 .13v.05c0 .05 0 0 0 0l3.83 2.09 10.68 5.81a.5.5 0 00.13 0l24-3.36a.24.24 0 00.1 0 .19.19 0 000-.07v-18.22a.22.22 0 000-.12.21.21 0 000-.06l-6-3.29v-1.14c0-.56-.5-.92-1.22-1.2a9.54 9.54 0 00-3.26-.51h-.72l-1.85-1v-.94c0-.56-.51-.92-1.22-1.2a9.3 9.3 0 00-3.26-.51 10 10 0 00-2.72.34c-.93.29-1.55.65-1.6 1.3v1.19l-2.54.36" fill="#33abe1"/><path d="M125.808 69.643a.22.22 0 000-.12.21.21 0 000-.06l-6-3.29v-1.14c0-.56-.5-.92-1.22-1.2a9.54 9.54 0 00-3.26-.51h-.72l-1.85-1v.66l.83.46a7.34 7.34 0 00-.84.17v-2.23c0-.56-.51-.92-1.22-1.2a9.3 9.3 0 00-3.26-.51 10 10 0 00-2.72.34c-.93.29-1.55.65-1.6 1.3v1.19l-2.54.36v.6l2.54-.36v1.52a10.18 10.18 0 00-2.68.34h.13v-2.23c0-.56-.5-.91-1.22-1.2a9.55 9.55 0 00-3.26-.5 10.13 10.13 0 00-2.72.34c-.93.28-1.54.66-1.59 1.3v1.41l-5.41.76a.19.19 0 00-.1 0 .14.14 0 010 .06v18.17a.27.27 0 000 .13v.05c0 .05 0 0 0 0l3.83 2.09 10.68 5.81a.5.5 0 00.13 0l24-3.36a.24.24 0 00.1 0 .19.19 0 000-.07v-18.22zm-10.67-5.8a9.07 9.07 0 013 .46c.66.25.86.55.84.65-.02.1-.27.49-1.17.74a9.53 9.53 0 01-2.56.32 9 9 0 01-3-.47c-.64-.24-.84-.52-.84-.62 0-.11.28-.49 1.17-.73a9.13 9.13 0 012.56-.35zm-9.6-3.32a9.59 9.59 0 012.56-.32 9 9 0 013 .47c.67.25.87.55.85.65-.02.1-.28.49-1.17.74a10.11 10.11 0 01-2.57.31 8.84 8.84 0 01-3-.46c-.63-.24-.84-.52-.84-.63-.02-.14.26-.52 1.17-.76zm-4.3 5a10 10 0 012.56-.32 9 9 0 013 .47c.67.25.87.55.85.65-.02.1-.28.49-1.17.74a9.68 9.68 0 01-2.57.31 8.84 8.84 0 01-3-.46c-.63-.24-.84-.52-.84-.63-.03-.09.28-.47 1.17-.72zm-8.21-2.89c0-.12.28-.5 1.17-.74a9.51 9.51 0 012.55-.32 9.33 9.33 0 013.05.46c.66.25.86.56.84.65-.02.09-.28.49-1.17.74a9.15 9.15 0 01-2.56.32 9 9 0 01-3-.46c-.64-.24-.84-.52-.84-.63zm-5 2.61l4.43-.62v1.36c0 .55.5.91 1.22 1.19a9.5 9.5 0 003.26.51 10.54 10.54 0 002.58-.31v2.21c0 .55.5.91 1.21 1.2a9.8 9.8 0 003.26.5 10.15 10.15 0 002.73-.34c.94-.29 1.55-.66 1.59-1.31v-3.35a10.24 10.24 0 002.55-.31v2.2c0 .56.51.91 1.22 1.19a9.26 9.26 0 003.26.51 10.21 10.21 0 002.73-.34c.93-.28 1.55-.65 1.59-1.31v-1.54l5 2.71-23 3.23zm37.2 22.29c-.09 0-23.36 3.27-23.36 3.27v-17.57l23.35-3.29s-.05 17.52-.03 17.63z" fill="#237dba"/><path d="M101.228 44.473c0-.56-.5-.92-1.22-1.2a9.54 9.54 0 00-3.26-.51 9.74 9.74 0 00-2.72.35c-.93.28-1.54.65-1.59 1.29v1.38l-5.41.76h-.1v.05a.25.25 0 010 .07v18.18a.27.27 0 000 .13l3.83 2.09 10.68 5.8a.28.28 0 00.13 0l24-3.36h.1a.14.14 0 000-.06v-18.24a.25.25 0 000-.12l-6-3.28v-1.14c0-.56-.5-.91-1.22-1.2a9.55 9.55 0 00-3.26-.5h-.72l-1.85-1v-.88c0-.56-.51-.91-1.22-1.2a9.79 9.79 0 00-3.26-.51 10 10 0 00-2.72.34c-.93.29-1.55.66-1.6 1.3v1.19l-2.54.36" fill="#33abe1"/><path d="M125.808 51.383a.25.25 0 000-.12l-6-3.28v-1.14c0-.56-.5-.91-1.22-1.2a9.55 9.55 0 00-3.26-.5h-.72l-1.85-1v.67l.83.45q-.43.08-.84.18v-2.24c0-.56-.51-.91-1.22-1.2a9.79 9.79 0 00-3.26-.51 10 10 0 00-2.72.34c-.93.29-1.55.66-1.6 1.3v1.19l-2.54.36v.6l2.54-.35v1.52a9.78 9.78 0 00-2.68.34h.13v-2.23c0-.56-.5-.92-1.22-1.2a9.54 9.54 0 00-3.26-.51 9.74 9.74 0 00-2.72.35c-.93.28-1.54.65-1.59 1.29v1.38l-5.41.76h-.1v.05a.25.25 0 010 .07v18.18a.27.27 0 000 .13l3.83 2.09 10.68 5.8a.28.28 0 00.13 0l24-3.36h.1a.14.14 0 000-.06v-18.24zm-10.67-5.8a9.33 9.33 0 013 .46c.66.25.86.56.84.65-.02.09-.27.49-1.17.74a9.15 9.15 0 01-2.56.32 8.79 8.79 0 01-3-.47c-.64-.23-.84-.51-.84-.62 0-.12.28-.5 1.17-.74a9.51 9.51 0 012.56-.34zm-9.6-3.32a10 10 0 012.56-.31 9 9 0 013 .46c.67.25.87.56.85.65-.02.09-.28.49-1.17.74a9.66 9.66 0 01-2.57.32 9.07 9.07 0 01-3-.47c-.63-.23-.84-.52-.84-.63-.02-.13.26-.51 1.17-.76zm-4.3 5a9.59 9.59 0 012.56-.32 9 9 0 013 .46c.67.26.87.56.85.65-.02.09-.28.5-1.17.74a9.66 9.66 0 01-2.57.32 9.09 9.09 0 01-3-.46c-.63-.24-.84-.53-.84-.63-.03-.09.28-.47 1.17-.71zm-8.21-2.89c0-.11.28-.49 1.17-.73a10.33 10.33 0 015.6.14c.66.25.86.55.84.65-.02.1-.28.49-1.17.74a9.53 9.53 0 01-2.56.32 9 9 0 01-3-.47c-.64-.24-.84-.52-.84-.62zm-5 2.6l4.43-.62v1.36c0 .56.5.92 1.22 1.19a9.26 9.26 0 003.26.51 10.08 10.08 0 002.58-.31v2.21c0 .56.5.91 1.21 1.2a9.54 9.54 0 003.26.51 9.76 9.76 0 002.73-.35c.94-.28 1.55-.65 1.59-1.3v-3.35a10.25 10.25 0 002.55-.3v2.2c0 .55.51.91 1.22 1.19a9.5 9.5 0 003.26.51 10.21 10.21 0 002.73-.34c.93-.29 1.55-.66 1.59-1.31v-1.55l5 2.72-23 3.23zm37.2 22.29c-.09.06-23.36 3.28-23.36 3.28v-17.58l23.35-3.28s-.05 17.52-.03 17.63z" fill="#237dba"/><path d="M101.228 26.223c0-.56-.5-.91-1.22-1.2a9.55 9.55 0 00-3.26-.5 10.13 10.13 0 00-2.72.34c-.93.28-1.54.66-1.59 1.29v1.39l-5.41.76a.19.19 0 00-.1 0 .14.14 0 010 .06v18.17a.27.27 0 000 .13l3.83 2.09 10.68 5.81a.28.28 0 00.13 0l24-3.37a.21.21 0 00.1 0 .08.08 0 000-.06v-18.22a.25.25 0 000-.12v-.06l-6-3.29v-1.14c0-.56-.5-.92-1.22-1.2a9.54 9.54 0 00-3.26-.51h-.72l-1.85-1v-.94c0-.55-.51-.91-1.22-1.19a9.3 9.3 0 00-3.26-.51 10 10 0 00-2.72.34c-.93.29-1.55.65-1.6 1.29v1.19l-2.54.36" fill="#33abe1"/><path d="M125.808 33.083a.25.25 0 000-.12v-.06l-6-3.29v-1.14c0-.56-.5-.92-1.22-1.2a9.54 9.54 0 00-3.26-.51h-.72l-1.85-1v.66l.83.46a7.34 7.34 0 00-.84.17v-2.23c0-.55-.51-.91-1.22-1.19a9.3 9.3 0 00-3.26-.51 10 10 0 00-2.72.34c-.93.29-1.55.65-1.6 1.29v1.19l-2.54.36v.6l2.54-.36v1.54a9.78 9.78 0 00-2.68.34h.13v-2.23c0-.56-.5-.91-1.22-1.2a9.55 9.55 0 00-3.26-.5 10.13 10.13 0 00-2.72.34c-.93.28-1.54.66-1.59 1.29v1.39l-5.41.76a.19.19 0 00-.1 0 .14.14 0 010 .06v18.17a.27.27 0 000 .13l3.83 2.09 10.68 5.81a.5.5 0 00.13 0l24-3.37a.14.14 0 00.1 0 .14.14 0 000-.07v-18.22zm-10.67-5.79a9.07 9.07 0 013 .46c.66.25.86.55.84.65-.02.1-.27.49-1.17.74a9.53 9.53 0 01-2.56.32 9 9 0 01-3-.47c-.64-.24-.84-.52-.84-.62 0-.12.28-.49 1.17-.73a9.13 9.13 0 012.56-.31zm-9.6-3.32a9.59 9.59 0 012.56-.32 9 9 0 013 .47c.67.25.87.55.85.64-.02.09-.28.5-1.17.75a10.11 10.11 0 01-2.57.31 8.84 8.84 0 01-3-.46c-.63-.24-.84-.52-.84-.63-.02-.1.26-.48 1.17-.72zm-4.3 5a10 10 0 012.56-.32 9 9 0 013 .47c.67.25.87.55.85.65-.02.1-.28.49-1.17.74a9.68 9.68 0 01-2.57.31 8.84 8.84 0 01-3-.46c-.63-.24-.84-.52-.84-.63-.03-.05.28-.44 1.17-.65zm-8.21-2.89c0-.12.28-.5 1.17-.74a9.51 9.51 0 012.55-.32 9.33 9.33 0 013.05.46c.66.25.86.56.84.65-.02.09-.28.49-1.17.74a9.15 9.15 0 01-2.56.32 8.79 8.79 0 01-3-.47c-.64-.23-.84-.51-.84-.62zm-5 2.61l4.43-.63v1.37c0 .56.5.92 1.22 1.2a9.5 9.5 0 003.26.51 10.54 10.54 0 002.58-.31v2.25c0 .55.5.91 1.21 1.19a9.54 9.54 0 003.26.51 10.15 10.15 0 002.73-.34c.94-.29 1.55-.66 1.59-1.3v-3.36a10.25 10.25 0 002.55-.3v2.2c0 .56.51.91 1.22 1.19a9.26 9.26 0 003.26.51 10.21 10.21 0 002.73-.34c.93-.29 1.55-.65 1.59-1.31v-1.54l5 2.71-23 3.23zm37.2 22.29c-.09 0-23.36 3.27-23.36 3.27v-17.57l23.35-3.29s-.05 17.56-.03 17.69z" fill="#237dba"/><path d="M77.268 102.623c0-.56-.49-.91-1.22-1.2a9.47 9.47 0 00-3.26-.5 9.74 9.74 0 00-2.72.34c-.93.28-1.54.65-1.59 1.3v1.39l-5.4.76a.35.35 0 00-.11 0v18.23a.32.32 0 000 .14l3.82 2.1 10.69 5.8a.27.27 0 00.12 0l24-3.37a.25.25 0 00.11 0v-.05a.19.19 0 000-.07v-18.22a.2.2 0 000-.11.1.1 0 000-.05l-6-3.29v-1.14c0-.56-.49-.92-1.22-1.2a9.44 9.44 0 00-3.25-.51h-.73l-1.84-1v-.94c0-.56-.5-.92-1.22-1.2a9.26 9.26 0 00-3.26-.51 10.13 10.13 0 00-2.72.34c-.93.29-1.55.65-1.6 1.29v1.19l-2.55.36" fill="#33abe1"/><path d="M101.858 109.523a.2.2 0 000-.11.1.1 0 000-.05l-6-3.29v-1.14c0-.56-.49-.92-1.22-1.2a9.44 9.44 0 00-3.25-.51h-.73l-1.84-1v.66l.83.46a6.76 6.76 0 00-.83.17v-2.23c0-.56-.5-.92-1.22-1.2a9.26 9.26 0 00-3.26-.51 10.13 10.13 0 00-2.72.34c-.93.29-1.55.65-1.6 1.29v1.19l-2.55.36v.6l2.54-.36v1.53a10.18 10.18 0 00-2.68.34h.14v-2.23c0-.56-.49-.91-1.22-1.2a9.47 9.47 0 00-3.26-.5 9.74 9.74 0 00-2.72.34c-.93.28-1.54.65-1.59 1.3v1.39l-5.4.76a.35.35 0 00-.11 0v18.23a.32.32 0 000 .14l3.82 2.1 10.69 5.8a.27.27 0 00.12 0l24-3.37a.25.25 0 00.11 0v-.05a.19.19 0 000-.07v-18.22zm-10.67-5.79a9 9 0 013 .46c.66.25.86.55.84.65-.02.1-.27.49-1.16.74a9.59 9.59 0 01-2.56.32 9.05 9.05 0 01-3-.47c-.63-.24-.84-.51-.84-.62 0-.12.29-.49 1.17-.73a9.15 9.15 0 012.55-.35zm-9.6-3.32a9.87 9.87 0 012.55-.32 9.09 9.09 0 013 .47c.66.25.86.55.84.65-.02.1-.28.49-1.17.74a9.55 9.55 0 01-2.56.31 8.86 8.86 0 01-3.05-.46c-.62-.24-.84-.52-.83-.63.02-.09.33-.52 1.26-.76zm-4.31 5a10 10 0 012.56-.32 9 9 0 013 .47c.67.25.87.56.85.65-.02.09-.28.49-1.17.74a9.55 9.55 0 01-2.56.31 8.86 8.86 0 01-3-.46c-.63-.24-.84-.52-.83-.63-.04-.09.26-.47 1.15-.72zm-8.21-2.89c0-.12.28-.49 1.17-.74a9.51 9.51 0 012.55-.32 9.28 9.28 0 013 .46c.66.25.86.56.84.65-.02.09-.27.49-1.16.74a9.21 9.21 0 01-2.57.33 8.77 8.77 0 01-3-.48c-.63-.23-.84-.51-.84-.62zm-5 2.61l4.43-.62v1.36c0 .55.51.91 1.22 1.19a9.5 9.5 0 003.26.51 10.63 10.63 0 002.59-.31v2.21c0 .55.5.91 1.22 1.2a9.73 9.73 0 003.25.5 10.15 10.15 0 002.73-.34c.94-.29 1.56-.66 1.6-1.3v-3.35a9.8 9.8 0 002.55-.3v2.2c0 .56.51.91 1.23 1.19a9.4 9.4 0 003.25.51 10.21 10.21 0 002.73-.34c.93-.28 1.55-.65 1.59-1.31v-1.54l5 2.71-23 3.23zm37.2 22.29c-.09.05-23.35 3.27-23.35 3.27v-17.58l23.35-3.27s-.05 17.51-.04 17.62z" fill="#237dba"/><path d="M77.268 84.363c0-.56-.49-.92-1.22-1.2a9.46 9.46 0 00-3.26-.51 9.74 9.74 0 00-2.72.35c-.93.28-1.54.65-1.59 1.29v1.38l-5.4.76h-.11v18.25a.31.31 0 000 .13l3.82 2.09 10.69 5.81a.28.28 0 00.12 0l24-3.36h.11a.14.14 0 000-.06v-18.02a.27.27 0 000-.12v-.05l-6-3.29v-1.14c0-.56-.49-.91-1.22-1.2a9.45 9.45 0 00-3.25-.5h-.73l-1.84-1v-.93c0-.55-.5-.91-1.22-1.2a9.74 9.74 0 00-3.26-.51 10.12 10.12 0 00-2.72.35c-.93.28-1.55.65-1.6 1.29v1.11l-2.55.35" fill="#33abe1"/><path d="M101.858 91.273a.27.27 0 000-.12v-.05l-6-3.29v-1.14c0-.56-.49-.91-1.22-1.2a9.45 9.45 0 00-3.25-.5h-.73l-1.84-1v.67l.83.45a6.74 6.74 0 00-.83.18v-2.23c0-.55-.5-.91-1.22-1.2a9.74 9.74 0 00-3.26-.51 10.12 10.12 0 00-2.72.35c-.93.28-1.55.65-1.6 1.29v1.11l-2.55.35v.6l2.54-.35v1.54a9.78 9.78 0 00-2.68.34h.14v-2.24c0-.56-.49-.92-1.22-1.2a9.46 9.46 0 00-3.26-.51 9.74 9.74 0 00-2.72.35c-.93.28-1.54.65-1.59 1.29v1.38l-5.4.76h-.11v18.25a.31.31 0 000 .13l3.82 2.09 10.69 5.81a.28.28 0 00.12 0l24-3.36h.11a.14.14 0 000-.06v-17.98zm-10.67-5.8a9.26 9.26 0 013 .46c.66.25.86.56.84.65-.02.09-.27.49-1.16.74a9.2 9.2 0 01-2.56.32 8.81 8.81 0 01-3-.47c-.63-.24-.84-.51-.84-.62 0-.12.29-.49 1.17-.74a9.53 9.53 0 012.55-.34zm-9.6-3.32a9.87 9.87 0 012.55-.32 9.09 9.09 0 013 .47c.66.25.86.55.84.65-.02.1-.28.49-1.17.74a9.53 9.53 0 01-2.56.32 8.85 8.85 0 01-3.05-.47c-.62-.23-.84-.52-.83-.63.02-.13.33-.51 1.26-.76zm-4.31 5.05a9.59 9.59 0 012.56-.32 8.75 8.75 0 013 .47c.67.24.87.55.85.64-.02.09-.28.49-1.17.74a9.53 9.53 0 01-2.56.32 8.85 8.85 0 01-3-.47c-.63-.23-.84-.52-.83-.63-.04-.13.26-.51 1.15-.75zm-8.21-2.89c0-.12.28-.49 1.17-.73a9.13 9.13 0 012.55-.32 9 9 0 013 .46c.66.25.86.55.84.65-.02.1-.27.49-1.16.74a9.61 9.61 0 01-2.57.32 9 9 0 01-3-.47c-.63-.24-.84-.52-.84-.62zm-5 2.6l4.43-.62v1.37c0 .56.51.91 1.22 1.19a9.25 9.25 0 003.26.52 10.15 10.15 0 002.59-.32v2.21c0 .56.5.92 1.22 1.2a9.49 9.49 0 003.25.5 10.17 10.17 0 002.73-.33c.94-.3 1.56-.66 1.6-1.31v-3.35a10.25 10.25 0 002.55-.3v2.2c0 .56.51.92 1.23 1.2a9.4 9.4 0 003.25.51 10.2 10.2 0 002.73-.35c.93-.28 1.55-.65 1.59-1.3v-1.55l5 2.72-23 3.23zm37.2 22.29c-.09.06-23.35 3.27-23.35 3.27v-17.57l23.35-3.28s-.05 17.46-.04 17.58z" fill="#237dba"/><path d="M77.268 29.603c0-.56-.49-.91-1.22-1.2a9.47 9.47 0 00-3.26-.5 9.74 9.74 0 00-2.72.34c-.93.28-1.54.65-1.59 1.3v1.38l-5.4.77a.2.2 0 00-.11 0v18.24a.28.28 0 000 .13l3.82 2.09 10.69 5.81h.12l24-3.37a.25.25 0 00.11 0 .19.19 0 000-.07v-18.18a.27.27 0 000-.12l-6-3.29v-1.14c0-.55-.49-.91-1.22-1.19a9.44 9.44 0 00-3.25-.51h-.73l-1.84-1v-.94c0-.55-.5-.91-1.22-1.19a9.26 9.26 0 00-3.26-.51 10.13 10.13 0 00-2.72.34c-.93.28-1.55.65-1.6 1.29v1.21l-2.55.36" fill="#33abe1"/><path d="M101.858 36.503a.27.27 0 000-.12l-6-3.29v-1.14c0-.55-.49-.91-1.22-1.19a9.44 9.44 0 00-3.25-.51h-.73l-1.84-1v.66l.83.46a6.76 6.76 0 00-.83.17v-2.23c0-.55-.5-.91-1.22-1.19a9.26 9.26 0 00-3.26-.51 10.13 10.13 0 00-2.72.34c-.93.28-1.55.65-1.6 1.29v1.21l-2.55.36v.6l2.54-.36v1.54a10.18 10.18 0 00-2.68.34h.14v-2.23c0-.56-.49-.91-1.22-1.2a9.47 9.47 0 00-3.26-.5 9.74 9.74 0 00-2.72.34c-.93.28-1.54.65-1.59 1.3v1.38l-5.4.77a.2.2 0 00-.11 0v18.24a.28.28 0 000 .13l3.82 2.09 10.69 5.81h.12l24-3.37a.25.25 0 00.11 0 .19.19 0 000-.07v-18.18zm-10.67-5.8a9 9 0 013 .47c.66.25.86.55.84.64-.02.09-.27.5-1.16.74a9.18 9.18 0 01-2.56.33 9.05 9.05 0 01-3-.47c-.63-.24-.84-.52-.84-.62 0-.12.29-.49 1.17-.73a9.13 9.13 0 012.55-.36zm-9.6-3.31a9.46 9.46 0 012.55-.32 8.85 8.85 0 013 .47c.66.25.86.55.84.64-.02.09-.28.5-1.17.74a9.53 9.53 0 01-2.56.32 8.86 8.86 0 01-3.05-.46c-.62-.24-.84-.53-.83-.63.02-.14.33-.52 1.26-.76zm-4.31 5a9.59 9.59 0 012.56-.32 9 9 0 013 .47c.67.25.87.55.85.65-.02.1-.28.49-1.17.74a9.55 9.55 0 01-2.56.31 8.86 8.86 0 01-3-.46c-.63-.24-.84-.52-.83-.63-.04-.07.26-.47 1.15-.72zm-8.21-2.89c0-.12.28-.5 1.17-.74a9.51 9.51 0 012.55-.32 9.28 9.28 0 013 .46c.66.25.86.55.84.65-.02.1-.27.49-1.16.74a9.61 9.61 0 01-2.57.32 8.79 8.79 0 01-3-.47c-.63-.24-.84-.51-.84-.62zm-5 2.61l4.43-.63v1.37c0 .56.51.92 1.22 1.2a9.5 9.5 0 003.26.51 10.63 10.63 0 002.59-.31v2.21c0 .56.5.92 1.22 1.2a9.48 9.48 0 003.25.51 10.15 10.15 0 002.73-.34c.94-.29 1.56-.66 1.6-1.3v-3.36a.09.09 0 000-.05 10.25 10.25 0 002.55-.3v2.2c0 .56.51.91 1.23 1.19a9.4 9.4 0 003.25.51 10.21 10.21 0 002.73-.34c.93-.29 1.55-.65 1.59-1.31v-1.54l5 2.71-23 3.23zm37.2 22.29c-.09 0-23.35 3.27-23.35 3.27v-17.58l23.35-3.28s-.05 17.51-.04 17.63z" fill="#237dba"/><path d="M77.268 11.343c0-.56-.49-.92-1.22-1.2a9.46 9.46 0 00-3.26-.51 9.74 9.74 0 00-2.72.35c-.93.28-1.54.65-1.59 1.29v1.38l-5.4.76h-.11v18.25a.31.31 0 000 .13l3.82 2.08 10.69 5.82a.28.28 0 00.12 0l24-3.36h.11a.14.14 0 000-.06v-18.18a.24.24 0 000-.12l-6-3.29v-1.11c0-.56-.49-.91-1.22-1.2a9.45 9.45 0 00-3.25-.5h-.73l-1.84-1v-.93c0-.56-.5-.92-1.22-1.2a9.74 9.74 0 00-3.26-.51 10.13 10.13 0 00-2.72.34c-.93.29-1.55.66-1.6 1.3v1.21l-2.55.36" fill="#33abe1"/><path d="M101.858 18.253a.24.24 0 000-.12l-6-3.29v-1.27c0-.56-.49-.91-1.22-1.2a9.45 9.45 0 00-3.25-.5h-.73l-1.84-1v.67l.83.45c-.29 0-.57.1-.83.17v-2.22c0-.56-.5-.92-1.22-1.2a9.74 9.74 0 00-3.26-.51 10.13 10.13 0 00-2.72.34c-.93.29-1.55.66-1.6 1.3v1.21l-2.55.36v.64l2.54-.36v1.55a10.17 10.17 0 00-2.68.35h.14v-2.28c0-.56-.49-.92-1.22-1.2a9.46 9.46 0 00-3.26-.51 9.74 9.74 0 00-2.72.35c-.93.28-1.54.65-1.59 1.29v1.38l-5.4.76h-.11v18.25a.31.31 0 000 .13l3.82 2.08 10.69 5.82a.28.28 0 00.12 0l24-3.36h.11a.14.14 0 000-.06v-18.18zm-10.67-5.8a9 9 0 013 .46c.66.25.86.55.84.65-.02.1-.27.49-1.16.74a9.2 9.2 0 01-2.56.32 8.81 8.81 0 01-3-.47c-.63-.24-.84-.51-.84-.62 0-.12.29-.5 1.17-.74a9.53 9.53 0 012.55-.34zm-9.6-3.31a9.44 9.44 0 012.55-.33 9.09 9.09 0 013 .47c.66.25.86.55.84.65-.02.1-.28.49-1.17.74a9.55 9.55 0 01-2.56.31 8.63 8.63 0 01-3.05-.46c-.62-.23-.84-.52-.83-.63.02-.13.33-.51 1.26-.75zm-4.31 5a9.59 9.59 0 012.56-.32 8.75 8.75 0 013 .47c.67.24.87.55.85.64-.02.09-.28.49-1.17.74a9.53 9.53 0 01-2.56.32 8.85 8.85 0 01-3-.47c-.63-.23-.84-.52-.83-.62-.04-.1.26-.48 1.15-.72zm-8.21-2.89c0-.12.28-.49 1.17-.73a9.11 9.11 0 012.55-.33 9 9 0 013 .47c.66.25.86.55.84.65-.02.1-.27.49-1.16.74a9.61 9.61 0 01-2.57.32 9 9 0 01-3-.47c-.63-.24-.84-.52-.84-.62zm-5 2.6l4.43-.62v1.36c0 .56.51.91 1.22 1.19a9.5 9.5 0 003.26.51 10.16 10.16 0 002.59-.31v2.21c0 .56.5.91 1.22 1.2a9.49 9.49 0 003.25.5 10.15 10.15 0 002.73-.34c.94-.29 1.56-.65 1.6-1.3v-3.35a10.25 10.25 0 002.55-.3v2.2c0 .56.51.92 1.23 1.2a9.4 9.4 0 003.25.51 10.2 10.2 0 002.73-.35c.93-.28 1.55-.65 1.59-1.3v-1.49l5 2.72-23 3.22zm37.2 22.29c-.09.06-23.35 3.28-23.35 3.28v-17.58l23.35-3.28s-.05 17.52-.04 17.62z" fill="#237dba"/><path d="M53.338 105.993c0-.56-.5-.91-1.22-1.2a9.55 9.55 0 00-3.26-.5 9.74 9.74 0 00-2.72.34c-.94.28-1.55.66-1.59 1.3v1.39l-5.41.76a.23.23 0 00-.11 0v.06c0 .06 0 0 0 0v18.18a.25.25 0 000 .12l3.83 2.08 10.68 5.81a.27.27 0 00.12 0l24-3.37a.17.17 0 00.11 0v-18.3a.51.51 0 000-.13v-.06l-6-3.29v-1.14c0-.55-.5-.91-1.22-1.19a9.54 9.54 0 00-3.26-.51h-.72l-1.85-1v-.94c0-.56-.51-.92-1.23-1.2a9.48 9.48 0 00-3.25-.51 10.15 10.15 0 00-2.73.34c-.93.29-1.54.65-1.59 1.3v1.19l-2.54.36" fill="#33abe1"/><path d="M77.918 112.903a.51.51 0 000-.13v-.06l-6-3.29v-1.14c0-.55-.5-.91-1.22-1.19a9.54 9.54 0 00-3.26-.51h-.72l-1.85-1v.66l.84.46a7.34 7.34 0 00-.84.17v-2.23c0-.56-.51-.92-1.23-1.2a9.48 9.48 0 00-3.25-.51 10.15 10.15 0 00-2.73.34c-.93.29-1.54.65-1.59 1.3v1.19l-2.54.36v.6l2.55-.36v1.52a10.31 10.31 0 00-2.69.34h.14v-2.23c0-.56-.5-.91-1.22-1.2a9.55 9.55 0 00-3.26-.5 9.74 9.74 0 00-2.72.34c-.94.28-1.55.66-1.59 1.3v1.39l-5.41.76a.23.23 0 00-.11 0v.06c0 .06 0 0 0 0v18.18a.25.25 0 000 .12l3.83 2.08 10.68 5.81a.27.27 0 00.12 0l24-3.37a.17.17 0 00.11 0v-18.3zm-10.67-5.8a9 9 0 013 .46c.67.25.87.55.84.64-.03.09-.27.5-1.16.75a9.53 9.53 0 01-2.56.32 9 9 0 01-3-.47c-.64-.24-.85-.52-.85-.62 0-.11.29-.49 1.18-.73a9.08 9.08 0 012.55-.37zm-9.6-3.32a9.53 9.53 0 012.56-.32 9.07 9.07 0 013 .47c.66.25.87.55.84.65-.03.1-.28.49-1.17.74a9.55 9.55 0 01-2.56.31 8.8 8.8 0 01-3-.46c-.63-.24-.84-.52-.84-.63-.03-.14.28-.52 1.15-.76zm-4.3 5a9.93 9.93 0 012.55-.32 9.09 9.09 0 013 .47c.66.25.86.55.84.65-.02.1-.28.49-1.17.74a9.55 9.55 0 01-2.56.31 8.76 8.76 0 01-3-.46c-.63-.23-.85-.52-.84-.62-.02-.11.29-.47 1.18-.73zm-8.22-2.89c0-.12.29-.49 1.18-.74a9.46 9.46 0 012.55-.32 9.26 9.26 0 013 .46c.67.25.87.56.84.65-.03.09-.27.49-1.16.74a9.15 9.15 0 01-2.56.32 8.81 8.81 0 01-3.05-.47c-.63-.23-.84-.51-.84-.62zm-5 2.61l4.43-.62v1.36c0 .55.51.91 1.23 1.19a9.44 9.44 0 003.25.51 10.11 10.11 0 002.59-.31v2.21c0 .56.5.91 1.22 1.19a9.5 9.5 0 003.26.51 10.26 10.26 0 002.73-.34c.93-.29 1.55-.66 1.59-1.3v-3.36a10.16 10.16 0 002.54-.31v2.23c0 .56.5.91 1.22 1.19a9.22 9.22 0 003.26.51 10.13 10.13 0 002.72-.34c.94-.29 1.55-.65 1.59-1.31v-1.91.37l5 2.71-23 3.23zm37.2 22.29c-.08.06-23.35 3.27-23.35 3.27v-17.58l23.35-3.28s-.05 17.52-.04 17.63z" fill="#237dba"/><path d="M53.338 14.713c0-.55-.5-.91-1.22-1.19a9.54 9.54 0 00-3.26-.51 9.74 9.74 0 00-2.72.35c-.94.27-1.55.65-1.59 1.29v1.43l-5.41.76h-.11v18.25a.3.3 0 000 .13l3.83 2.09 10.68 5.81a.28.28 0 00.12 0l24-3.36h.11v-18.24a.37.37 0 000-.12v-.05l-6-3.29v-1.12c0-.56-.5-.91-1.22-1.2a9.55 9.55 0 00-3.26-.5h-.72l-1.85-1v-.93c0-.56-.51-.92-1.23-1.2a9.72 9.72 0 00-3.25-.51 10.15 10.15 0 00-2.73.34c-.93.29-1.54.66-1.59 1.3v1.19l-2.54.36" fill="#33abe1"/><path d="M77.918 21.623a.37.37 0 000-.12v-.05l-6-3.29v-1.22c0-.56-.5-.91-1.22-1.2a9.55 9.55 0 00-3.26-.5h-.72l-1.85-1v.67l.84.45a7.34 7.34 0 00-.84.18v-2.23c0-.56-.51-.92-1.23-1.2a9.72 9.72 0 00-3.25-.51 10.15 10.15 0 00-2.73.34c-.93.29-1.54.66-1.59 1.3v1.19l-2.54.36v.6l2.55-.36v1.53a10.3 10.3 0 00-2.69.35h.14v-2.23c0-.55-.5-.91-1.22-1.19a9.54 9.54 0 00-3.26-.51 9.74 9.74 0 00-2.72.35c-.94.27-1.55.65-1.59 1.29v1.46l-5.41.76h-.11v18.25a.3.3 0 000 .13l3.83 2.09 10.68 5.81a.28.28 0 00.12 0l24-3.36h.11v-18.24zm-10.67-5.8a9.26 9.26 0 013 .46c.67.25.87.56.84.65-.03.09-.27.49-1.16.74a9.53 9.53 0 01-2.56.32 8.71 8.71 0 01-3-.47c-.64-.24-.85-.51-.85-.62 0-.12.29-.5 1.18-.74a9.46 9.46 0 012.55-.34zm-9.6-3.31a10.08 10.08 0 015.6.14c.66.25.87.55.84.65-.03.1-.28.49-1.17.74a9.55 9.55 0 01-2.56.31 8.57 8.57 0 01-3-.46c-.63-.23-.84-.52-.84-.63-.07-.13.24-.51 1.11-.75zm-4.3 5a9.51 9.51 0 012.55-.32 8.85 8.85 0 013 .47c.66.25.86.55.84.64-.02.09-.28.49-1.17.74a9.53 9.53 0 01-2.56.32 8.52 8.52 0 01-3-.47c-.63-.23-.85-.52-.84-.63-.02-.09.29-.47 1.18-.71zm-8.22-2.89c0-.12.29-.49 1.18-.73a10 10 0 015.59.14c.67.25.87.55.84.64-.03.09-.27.5-1.16.75a9.53 9.53 0 01-2.56.32 9.05 9.05 0 01-3.05-.47c-.63-.24-.84-.52-.84-.62zm-5 2.6l4.43-.62v1.36c0 .56.51.91 1.23 1.19a9.44 9.44 0 003.25.51 10.11 10.11 0 002.59-.31v2.21c0 .56.5.91 1.22 1.2a9.51 9.51 0 003.26.5 10.26 10.26 0 002.73-.34c.93-.29 1.55-.66 1.59-1.3v-3.35a10.16 10.16 0 002.54-.31v2.24c0 .56.5.92 1.22 1.2a9.46 9.46 0 003.26.51 10.12 10.12 0 002.72-.35c.94-.28 1.55-.65 1.59-1.3v-1.92.37l5 2.72-23 3.22zm37.2 22.29c-.08.06-23.35 3.27-23.35 3.27v-17.57l23.35-3.28s-.05 17.51-.04 17.62z" fill="#237dba"/><path d="M29.388 109.343c0-.55-.5-.91-1.22-1.19a9.54 9.54 0 00-3.26-.51 9.74 9.74 0 00-2.72.35c-.93.28-1.55.65-1.59 1.29v1.38l-5.41.76h-.1a.1.1 0 000 .05v18.25a.27.27 0 000 .13v.05l3.83 2.09 10.68 5.81a.28.28 0 00.13 0l24-3.36h.1v-18.27a.5.5 0 000-.12v-.05l-6-3.3v-1.13c0-.56-.5-.91-1.22-1.2a9.55 9.55 0 00-3.26-.5h-.72l-1.85-1v-.93c0-.56-.51-.91-1.22-1.2a9.79 9.79 0 00-3.26-.51 9.64 9.64 0 00-2.72.35c-.93.28-1.55.65-1.6 1.29v1.21l-2.54.36" fill="#33abe1"/><path d="M53.968 116.253a.5.5 0 000-.12v-.05l-6-3.3v-1.13c0-.56-.5-.91-1.22-1.2a9.55 9.55 0 00-3.26-.5h-.72l-1.85-1v.67l.83.45q-.43.08-.84.18v-2.23c0-.56-.51-.91-1.22-1.2a9.79 9.79 0 00-3.26-.51 9.64 9.64 0 00-2.72.35c-.93.28-1.55.65-1.6 1.29v1.13l-2.54.36v.6l2.54-.36v1.53a10.3 10.3 0 00-2.69.35h.14v-2.23c0-.55-.5-.91-1.22-1.19a9.54 9.54 0 00-3.26-.51 9.74 9.74 0 00-2.72.35c-.93.28-1.55.65-1.59 1.29v1.38l-5.41.76h-.1a.1.1 0 000 .05v18.25a.27.27 0 000 .13v.05l3.83 2.09 10.68 5.81a.28.28 0 00.13 0l24-3.36h.1v-18.27zm-10.67-5.8a9.37 9.37 0 013 .46c.66.25.86.56.84.65-.02.09-.28.5-1.17.74a9.15 9.15 0 01-2.56.32 8.79 8.79 0 01-3-.47c-.64-.23-.84-.51-.84-.62 0-.12.28-.5 1.17-.74a9.51 9.51 0 012.56-.34zm-9.6-3.31a9.57 9.57 0 012.56-.33 8.73 8.73 0 013 .48c.67.24.87.54.85.64-.02.1-.28.49-1.17.74a9.66 9.66 0 01-2.57.32 8.83 8.83 0 01-3-.47c-.63-.24-.84-.52-.84-.63-.03-.13.28-.51 1.17-.75zm-4.3 5a9.59 9.59 0 012.56-.32 8.75 8.75 0 013 .47c.67.25.87.55.84.64-.03.09-.27.49-1.16.74a9.66 9.66 0 01-2.57.32 8.59 8.59 0 01-3-.47c-.63-.23-.84-.52-.84-.62-.03-.1.28-.48 1.17-.72zm-8.21-2.89c0-.12.28-.49 1.17-.73a9.13 9.13 0 012.55-.32 9 9 0 013 .46c.67.25.87.55.85.64-.02.09-.28.5-1.17.75a9.53 9.53 0 01-2.56.32 9 9 0 01-3-.47c-.64-.24-.84-.52-.84-.62zm-5 2.6l4.44-.62v1.37c0 .56.5.92 1.22 1.19a9.26 9.26 0 003.26.51 10.08 10.08 0 002.52-.22v2.21c0 .56.49.91 1.21 1.2a9.54 9.54 0 003.26.51 9.76 9.76 0 002.73-.35c.94-.29 1.55-.65 1.59-1.3v-3.35a9.66 9.66 0 002.54-.31v2.24c0 .56.5.92 1.22 1.2a9.46 9.46 0 003.26.51 10.21 10.21 0 002.73-.34c.93-.29 1.55-.66 1.59-1.31v-1.55l5 2.72-23 3.23zm37.2 22.29c-.08.06-23.35 3.28-23.35 3.28v-17.58l23.35-3.28s-.06 17.52-.05 17.62z" fill="#237dba"/><path d="M29.388 91.083c0-.56-.5-.91-1.22-1.2a9.55 9.55 0 00-3.26-.5 9.74 9.74 0 00-2.72.34c-.93.28-1.55.65-1.59 1.3v1.38l-5.41.76h-.1v.06c0 .06 0 0 0 0v18.17a.34.34 0 000 .14l3.83 2.09 10.68 5.81a.5.5 0 00.13 0l24-3.37a.14.14 0 00.1 0v-18.08a.36.36 0 000-.11v-.06l-6-3.29v-1.14c0-.55-.5-.91-1.22-1.19a9.54 9.54 0 00-3.26-.51h-.72l-1.85-1v-.94c0-.55-.51-.91-1.22-1.19a9.3 9.3 0 00-3.26-.51 10 10 0 00-2.72.34c-.93.29-1.55.65-1.6 1.29v1.21l-2.54.35" fill="#33abe1"/><path d="M53.968 97.993a.36.36 0 000-.11v-.06l-6-3.29v-1.14c0-.55-.5-.91-1.22-1.19a9.54 9.54 0 00-3.26-.51h-.72l-1.85-1v.66l.83.46a7.34 7.34 0 00-.84.17v-2.23c0-.55-.51-.91-1.22-1.19a9.3 9.3 0 00-3.26-.51 10 10 0 00-2.72.34c-.93.29-1.55.65-1.6 1.29v1.21l-2.54.35v.61l2.54-.36v1.52a9.91 9.91 0 00-2.69.34h.14v-2.23c0-.56-.5-.91-1.22-1.2a9.55 9.55 0 00-3.26-.5 9.74 9.74 0 00-2.72.34c-.93.28-1.55.65-1.59 1.3v1.38l-5.41.76h-.1v.06c0 .06 0 0 0 0v18.17a.34.34 0 000 .14l3.83 2.09 10.68 5.81a.5.5 0 00.13 0l24-3.37a.14.14 0 00.1 0v-18.12zm-10.67-5.8a9.09 9.09 0 013 .47c.66.25.86.55.84.64-.02.09-.28.49-1.17.75a9.53 9.53 0 01-2.56.32 9 9 0 01-3-.47c-.64-.24-.84-.52-.84-.62 0-.12.28-.49 1.17-.73a9.11 9.11 0 012.56-.36zm-9.6-3.31a9.59 9.59 0 012.56-.32 8.75 8.75 0 013 .47c.67.25.87.55.85.64-.02.09-.28.5-1.17.75a10.11 10.11 0 01-2.57.31 8.84 8.84 0 01-3-.46c-.63-.24-.84-.52-.84-.63-.03-.14.28-.56 1.17-.76zm-4.3 5a10 10 0 012.56-.32 9 9 0 013 .47c.67.25.87.55.84.65-.03.1-.27.49-1.16.74a9.68 9.68 0 01-2.57.31 8.84 8.84 0 01-3-.46c-.63-.24-.84-.52-.84-.63-.03-.09.28-.48 1.17-.72zm-8.21-2.89c0-.12.28-.5 1.17-.74a9.51 9.51 0 012.55-.32 9.26 9.26 0 013 .46c.67.25.87.56.85.65-.02.09-.28.49-1.17.74a9.15 9.15 0 01-2.56.32 9 9 0 01-3-.47c-.64-.24-.84-.51-.84-.62zm-5 2.61l4.44-.62v1.36c0 .56.5.92 1.22 1.2a9.5 9.5 0 003.26.51 10.54 10.54 0 002.58-.31v2.2c0 .55.49.91 1.21 1.19a9.54 9.54 0 003.26.51 10.15 10.15 0 002.73-.34c.94-.29 1.55-.66 1.59-1.31v-3.35a10.11 10.11 0 002.54-.3v2.23c0 .56.5.91 1.22 1.19a9.46 9.46 0 003.26.51 10.21 10.21 0 002.73-.34c.93-.29 1.55-.66 1.59-1.31v-1.54l5 2.71-23 3.23zm37.2 22.29c-.08.05-23.35 3.27-23.35 3.27v-17.58l23.35-3.28s-.06 17.52-.05 17.63z" fill="#237dba"/><path d="M29.388 72.833c0-.56-.5-.92-1.22-1.2a9.54 9.54 0 00-3.26-.51 9.74 9.74 0 00-2.72.35c-.93.28-1.55.65-1.59 1.29v1.38l-5.41.76h-.1v18.25a.3.3 0 000 .13l3.83 2.09 10.68 5.8a.28.28 0 00.13 0l24-3.36h.1a.64.64 0 000-.07v-18.24a.5.5 0 000-.12v-.05l-6-3.29v-.96c0-.56-.5-.91-1.22-1.2a9.55 9.55 0 00-3.26-.5h-.72l-1.85-1v-.93c0-.56-.51-.91-1.22-1.2a9.54 9.54 0 00-3.26-.51 10 10 0 00-2.72.34c-.93.29-1.55.66-1.6 1.3v1.19l-2.54.36" fill="#33abe1"/><path d="M53.968 79.743a.5.5 0 000-.12v-.05l-6-3.29v-1.2c0-.56-.5-.91-1.22-1.2a9.55 9.55 0 00-3.26-.5h-.72l-1.85-1v.7l.83.45a7.34 7.34 0 00-.84.18v-2.23c0-.56-.51-.91-1.22-1.2a9.54 9.54 0 00-3.26-.51 10 10 0 00-2.72.34c-.93.29-1.55.66-1.6 1.3v1.19l-2.54.36v.6l2.54-.35v1.52a10.3 10.3 0 00-2.69.35h.14v-2.23c0-.56-.5-.92-1.22-1.2a9.54 9.54 0 00-3.26-.51 9.74 9.74 0 00-2.72.35c-.93.28-1.55.65-1.59 1.29v1.38l-5.41.76h-.1v18.25a.3.3 0 000 .13l3.83 2.09 10.68 5.8a.28.28 0 00.13 0l24-3.36h.1a.64.64 0 000-.07v-18.24zm-10.67-5.8a9.37 9.37 0 013 .46c.66.25.86.56.84.65-.02.09-.28.49-1.17.74a9.15 9.15 0 01-2.56.32 8.79 8.79 0 01-3-.47c-.64-.24-.84-.51-.84-.62 0-.12.28-.5 1.17-.74a9.51 9.51 0 012.56-.34zm-9.6-3.32a10 10 0 012.56-.32 9 9 0 013 .47c.67.25.87.55.85.65-.02.1-.28.49-1.17.74a9.66 9.66 0 01-2.57.32 8.83 8.83 0 01-3-.47c-.63-.24-.84-.52-.84-.63-.03-.13.28-.51 1.17-.76zm-4.3 5a10 10 0 012.56-.31 8.75 8.75 0 013 .47c.67.24.87.55.84.64-.03.09-.27.5-1.16.74a9.66 9.66 0 01-2.57.32 9.09 9.09 0 01-3-.46c-.63-.24-.84-.53-.84-.64-.03-.09.28-.47 1.17-.72zm-8.21-2.88c0-.12.28-.49 1.17-.73a9.13 9.13 0 012.55-.32 9 9 0 013 .46c.67.25.87.55.85.65-.02.1-.28.49-1.17.74a9.53 9.53 0 01-2.56.32 9 9 0 01-3-.47c-.64-.24-.84-.52-.84-.62zm-5 2.6l4.44-.62v1.36c0 .56.5.91 1.22 1.19a9.26 9.26 0 003.26.51 10.08 10.08 0 002.58-.31v2.21c0 .56.49.91 1.21 1.2a9.55 9.55 0 003.26.5 10.17 10.17 0 002.73-.33c.94-.3 1.55-.66 1.59-1.31v-3.35a10.11 10.11 0 002.54-.3v2.23c0 .56.5.92 1.22 1.2a9.46 9.46 0 003.26.51 10.2 10.2 0 002.73-.35c.93-.28 1.55-.65 1.59-1.3v-1.55l5 2.72-23 3.23zm37.2 22.29c-.08.06-23.35 3.27-23.35 3.27v-17.57l23.35-3.28s-.06 17.51-.05 17.62z" fill="#237dba"/><path d="M29.388 54.573c0-.56-.5-.91-1.22-1.2a9.55 9.55 0 00-3.26-.5 9.74 9.74 0 00-2.72.34c-.93.28-1.55.65-1.59 1.3v1.38l-5.41.76h-.1v.11c0 .06 0 0 0 0v18.18a.25.25 0 000 .12v.05l3.83 2.09 10.68 5.81a.5.5 0 00.13 0l24-3.37a.21.21 0 00.1 0v-18.29a.5.5 0 000-.12.21.21 0 000-.06l-6-3.29v-1.14c0-.56-.5-.92-1.22-1.21a9.8 9.8 0 00-3.26-.5h-.72l-1.85-1v-.94c0-.55-.51-.91-1.22-1.19a9.53 9.53 0 00-3.26-.52 10 10 0 00-2.72.35c-.93.28-1.55.65-1.6 1.29v1.19l-2.54.36" fill="#33abe1"/><path d="M53.968 61.483a.5.5 0 000-.12.21.21 0 000-.06l-6-3.29v-1.14c0-.56-.5-.92-1.22-1.21a9.8 9.8 0 00-3.26-.5h-.72l-1.85-1v.66l.83.46a7.34 7.34 0 00-.84.17v-2.23c0-.55-.51-.91-1.22-1.19a9.53 9.53 0 00-3.26-.52 10 10 0 00-2.72.35c-.93.28-1.55.65-1.6 1.29v1.19l-2.54.36v.59l2.54-.35v1.52a9.91 9.91 0 00-2.69.34h.14v-2.24c0-.56-.5-.91-1.22-1.2a9.55 9.55 0 00-3.26-.5 9.74 9.74 0 00-2.72.34c-.93.28-1.55.65-1.59 1.3v1.38l-5.41.76h-.1v.11c0 .06 0 0 0 0v18.18a.25.25 0 000 .12v.05l3.83 2.08 10.68 5.81a.5.5 0 00.13 0l24-3.37a.21.21 0 00.1 0v-18.29zm-10.67-5.8a9.09 9.09 0 013 .47c.66.25.86.55.84.65-.02.1-.28.49-1.17.74a9.55 9.55 0 01-2.56.31 9 9 0 01-3-.46c-.64-.24-.84-.52-.84-.62 0-.12.28-.49 1.17-.73a9.11 9.11 0 012.56-.36zm-9.6-3.31a9.59 9.59 0 012.56-.32 8.75 8.75 0 013 .47c.67.25.87.55.85.64-.02.09-.28.5-1.17.74a9.66 9.66 0 01-2.57.32 8.84 8.84 0 01-3-.46c-.63-.24-.84-.52-.84-.63-.03-.14.28-.52 1.17-.76zm-4.3 5a9.59 9.59 0 012.56-.32 9 9 0 013 .47c.67.25.87.55.84.65-.03.1-.27.49-1.16.74a10.11 10.11 0 01-2.57.31 8.84 8.84 0 01-3-.46c-.63-.24-.84-.52-.84-.63-.03-.05.28-.47 1.17-.72zm-8.21-2.89c0-.12.28-.5 1.17-.74a9.51 9.51 0 012.55-.32 9.26 9.26 0 013 .46c.67.25.87.56.85.65-.02.09-.28.49-1.17.74a9.15 9.15 0 01-2.56.32 9 9 0 01-3-.47c-.64-.23-.84-.51-.84-.62zm-5 2.61l4.44-.63v1.37c0 .56.5.92 1.22 1.2a9.5 9.5 0 003.26.51 10.54 10.54 0 002.58-.31v2.21c0 .56.49.92 1.21 1.2a9.54 9.54 0 003.26.51 10.15 10.15 0 002.73-.34c.94-.29 1.55-.66 1.59-1.31v-3.35a10.58 10.58 0 002.54-.31v2.24c0 .56.5.91 1.22 1.19a9.46 9.46 0 003.26.51 10.21 10.21 0 002.73-.34c.93-.29 1.55-.66 1.59-1.31v-1.54l5 2.71-23 3.23zm37.2 22.29c-.08 0-23.35 3.27-23.35 3.27v-17.58l23.35-3.28s-.06 17.52-.05 17.63z" fill="#237dba"/><path d="M29.388 36.323c0-.55-.5-.91-1.22-1.2a10.82 10.82 0 00-6-.15c-.93.28-1.55.65-1.59 1.29v1.38l-5.41.76h-.1v18.24a.3.3 0 000 .13v.05c0 .05 0 0 0 0l3.83 2.09 10.68 5.8a.28.28 0 00.13 0l24-3.36h.1a.64.64 0 000-.07v-18.22a.43.43 0 000-.12l-6-3.29v-1.14c0-.56-.5-.91-1.22-1.2a9.55 9.55 0 00-3.26-.5h-.72l-1.85-1v-.94c0-.56-.51-.91-1.22-1.2a9.79 9.79 0 00-3.26-.51 10 10 0 00-2.72.34c-.93.29-1.55.66-1.6 1.3v1.28l-2.54.36" fill="#33abe1"/><path d="M53.968 43.233a.43.43 0 000-.12l-6-3.29v-1.14c0-.56-.5-.91-1.22-1.2a9.55 9.55 0 00-3.26-.5h-.72l-1.85-1v.67l.83.45a7.34 7.34 0 00-.84.18v-2.24c0-.56-.51-.91-1.22-1.2a9.79 9.79 0 00-3.26-.51 10 10 0 00-2.72.34c-.93.29-1.55.66-1.6 1.3v1.11l-2.54.36v.6l2.54-.36v1.53a10.3 10.3 0 00-2.69.35h.14v-2.23c0-.55-.5-.91-1.22-1.2a10.82 10.82 0 00-6-.15c-.93.28-1.55.65-1.59 1.29v1.38l-5.41.76h-.1v18.24a.3.3 0 000 .13v.05c0 .05 0 0 0 0l3.83 2.09 10.68 5.8a.28.28 0 00.13 0l24-3.36h.1a.64.64 0 000-.07v-18.22zm-10.67-5.8a9.37 9.37 0 013 .46c.66.25.86.55.84.65-.02.1-.28.49-1.17.74a9.53 9.53 0 01-2.56.32 9 9 0 01-3-.47c-.64-.24-.84-.51-.84-.62 0-.12.28-.5 1.17-.74a9.51 9.51 0 012.56-.34zm-9.6-3.32a10 10 0 012.56-.32 9 9 0 013 .47c.67.25.87.55.85.65-.02.1-.28.49-1.17.74a9.68 9.68 0 01-2.57.31 8.84 8.84 0 01-3-.46c-.63-.24-.84-.52-.84-.63-.03-.13.28-.51 1.17-.79zm-4.3 5a9.59 9.59 0 012.56-.32 9 9 0 013 .46c.67.25.87.56.84.65-.03.09-.27.49-1.16.74a9.66 9.66 0 01-2.57.32 8.83 8.83 0 01-3-.47c-.63-.23-.84-.52-.84-.62-.03-.09.28-.47 1.17-.71zm-8.21-2.89c0-.12.28-.49 1.17-.74a9.51 9.51 0 012.55-.32 9 9 0 013 .47c.67.25.87.55.85.64-.02.09-.28.5-1.17.75a9.53 9.53 0 01-2.56.32 9 9 0 01-3-.47c-.64-.24-.84-.52-.84-.63zm-5 2.6l4.44-.62v1.36c0 .56.5.91 1.22 1.19a9.26 9.26 0 003.26.51 10.08 10.08 0 002.58-.31v2.21c0 .56.49.91 1.21 1.2a9.55 9.55 0 003.26.5 10.15 10.15 0 002.73-.34c.94-.29 1.55-.66 1.59-1.3v-3.35a9.66 9.66 0 002.54-.31v2.24c0 .56.5.92 1.22 1.19a9.22 9.22 0 003.26.51 10.21 10.21 0 002.73-.34c.93-.28 1.55-.65 1.59-1.3v-1.55l5 2.72-23 3.23zm37.2 22.29c-.08.06-23.35 3.28-23.35 3.28v-17.58l23.35-3.28s-.06 17.55-.05 17.63z" fill="#237dba"/><path d="M29.388 18.083c0-.56-.5-.91-1.22-1.2a9.55 9.55 0 00-3.26-.5 9.74 9.74 0 00-2.72.34c-.93.28-1.55.65-1.59 1.29v1.38l-5.41.76h-.1v.07c0 .07 0 0 0 0v18.17a.27.27 0 000 .13l3.83 2.09 10.68 5.81a.5.5 0 00.13 0l24-3.36a.21.21 0 00.1 0v-18.08a.5.5 0 000-.12l-6-3.29v-1.28c0-.55-.5-.91-1.22-1.2a9.8 9.8 0 00-3.26-.5h-.72l-1.85-1v-.94c0-.55-.51-.91-1.22-1.19a9.53 9.53 0 00-3.26-.52 10 10 0 00-2.72.35c-.93.28-1.55.65-1.6 1.29v1.21l-2.54.35" fill="#33abe1"/><path d="M53.968 24.973a.5.5 0 000-.12l-6-3.29v-1.27c0-.55-.5-.91-1.22-1.2a9.8 9.8 0 00-3.26-.5h-.72l-1.85-1v.66l.83.46a7.34 7.34 0 00-.84.17v-2.23c0-.55-.51-.91-1.22-1.19a9.53 9.53 0 00-3.26-.52 10 10 0 00-2.72.35c-.93.28-1.55.65-1.6 1.29v1.21l-2.54.35v.61l2.54-.36v1.52a9.91 9.91 0 00-2.69.34h.14v-2.24c0-.56-.5-.91-1.22-1.2a9.55 9.55 0 00-3.26-.5 9.74 9.74 0 00-2.72.34c-.93.28-1.55.65-1.59 1.29v1.38l-5.41.76h-.1v.07c0 .07 0 0 0 0v18.17a.27.27 0 000 .13l3.83 2.09 10.68 5.81a.5.5 0 00.13 0l24-3.36a.21.21 0 00.1 0v-18.01zm-10.67-5.8a9.09 9.09 0 013 .47c.66.25.86.55.84.64-.02.09-.28.5-1.17.75a9.55 9.55 0 01-2.56.31 9 9 0 01-3-.46c-.64-.24-.84-.52-.84-.63 0-.12.28-.49 1.17-.74a9.51 9.51 0 012.56-.34zm-9.6-3.31a9.59 9.59 0 012.56-.32 9 9 0 013 .46c.67.26.87.56.85.65-.02.09-.28.5-1.17.74a9.66 9.66 0 01-2.57.32 9.09 9.09 0 01-3-.46c-.63-.24-.84-.53-.84-.63-.03-.14.28-.54 1.17-.76zm-4.3 5a9.59 9.59 0 012.56-.32 9 9 0 013 .47c.67.25.87.55.84.65-.03.1-.27.49-1.16.74a10.11 10.11 0 01-2.57.31 8.84 8.84 0 01-3-.46c-.63-.24-.84-.52-.84-.63-.03-.1.28-.48 1.17-.72zm-8.21-2.89c0-.12.28-.5 1.17-.74a9.51 9.51 0 012.55-.32 9.26 9.26 0 013 .46c.67.25.87.56.85.65-.02.09-.28.49-1.17.74a9.15 9.15 0 01-2.56.32 9 9 0 01-3-.47c-.64-.24-.84-.51-.84-.62zm-5 2.61l4.44-.63v1.37c0 .56.5.92 1.22 1.19a9.25 9.25 0 003.26.52 10.54 10.54 0 002.58-.31v2.2c0 .56.49.92 1.21 1.2a9.54 9.54 0 003.26.51 10.15 10.15 0 002.73-.34c.94-.29 1.55-.66 1.59-1.31v-3.4a10.11 10.11 0 002.54-.3v2.23c0 .55.5.91 1.22 1.19a9.22 9.22 0 003.26.51 10.21 10.21 0 002.73-.34c.93-.29 1.55-.66 1.59-1.31v-1.48l5 2.71-23 3.23zm37.2 22.29c-.08 0-23.35 3.27-23.35 3.27v-17.58l23.35-3.28s-.06 17.51-.05 17.63z" fill="#237dba"/></svg>