<svg xmlns="http://www.w3.org/2000/svg" viewBox="0 0 126.037 141.419"><path d="M86.317 94.613c0-.56-.5-.92-1.22-1.2a9.54 9.54 0 00-3.26-.51 9.76 9.76 0 00-2.73.35c-.93.28-1.54.65-1.59 1.29v1.38l-5.41.75h-.11v18.32a.51.51 0 000 .13v.05c0 .05 0 0 0 0l3.84 2.09 10.7 5.82a.38.38 0 00.13 0l24-3.37a.17.17 0 00.11 0v-18.32a.27.27 0 000-.12v-.05l-6-3.29v-1.14c0-.56-.5-.92-1.22-1.21a9.57 9.57 0 00-3.27-.5h-.72l-1.85-1v-.94c0-.56-.51-.92-1.23-1.2a9.5 9.5 0 00-3.26-.51 10 10 0 00-2.72.34c-.94.29-1.55.66-1.6 1.3v1.19l-2.55.36" fill="#33abe1"/><path d="M110.937 101.533a.27.27 0 000-.12v-.05l-6-3.29v-1.14c0-.56-.5-.92-1.22-1.21a9.57 9.57 0 00-3.27-.5h-.72l-1.85-1v.67l.83.45q-.43.07-.84.18v-2.24c0-.56-.51-.92-1.23-1.2a9.5 9.5 0 00-3.26-.51 10 10 0 00-2.72.34c-.94.29-1.55.66-1.6 1.3v1.19l-2.55.36v.6l2.54-.36v1.55a9.8 9.8 0 00-2.69.34h.14v-2.24c0-.56-.5-.92-1.22-1.2a9.54 9.54 0 00-3.26-.51 9.76 9.76 0 00-2.73.35c-.93.28-1.54.65-1.59 1.29v1.34l-5.41.75h-.11v18.32a.51.51 0 000 .13v.05c0 .05 0 0 0 0l3.84 2.09 10.7 5.82a.38.38 0 00.13 0l24-3.37a.17.17 0 00.11 0v-18.32zm-10.69-5.81a9 9 0 013 .47c.67.24.87.55.84.65-.03.1-.27.49-1.16.74a9.61 9.61 0 01-2.57.32 9.09 9.09 0 01-3.05-.47c-.63-.24-.84-.52-.84-.63 0-.12.29-.49 1.18-.74a9.51 9.51 0 012.6-.34zm-9.61-3.32a9.59 9.59 0 012.56-.32 9.09 9.09 0 013 .47c.67.25.87.55.84.65-.03.1-.28.49-1.17.74a9.53 9.53 0 01-2.56.32 9.09 9.09 0 01-3-.47c-.63-.24-.85-.52-.84-.63-.03-.13.29-.51 1.17-.76zm-4.31 5a10 10 0 012.56-.32 9.09 9.09 0 013 .47c.67.25.87.55.85.65-.02.1-.28.49-1.17.74a9.68 9.68 0 01-2.57.31 8.63 8.63 0 01-3-.46c-.63-.24-.84-.52-.84-.63-.03-.08.28-.46 1.17-.71zm-8.22-2.89c0-.11.28-.49 1.17-.73a10.37 10.37 0 015.61.14c.66.25.86.55.84.65-.02.1-.28.49-1.17.74a9.53 9.53 0 01-2.56.32 9.05 9.05 0 01-3-.47c-.64-.24-.84-.52-.84-.62zm-5 2.61l4.44-.63v1.43c0 .55.5.91 1.22 1.19a9.5 9.5 0 003.26.51 10.11 10.11 0 002.59-.31v2.21c0 .56.5.92 1.21 1.2a9.6 9.6 0 003.27.51 10.21 10.21 0 002.66-.31c.94-.29 1.55-.66 1.6-1.31v-3.41a9.8 9.8 0 002.55-.3v2.24c0 .56.5.92 1.22 1.2a9.5 9.5 0 003.26.51 9.81 9.81 0 002.73-.35c.93-.28 1.55-.65 1.6-1.3v-1.55l5 2.72-23 3.23zm37.25 22.32c-.08.05-23.38 3.27-23.38 3.27v-17.6l23.38-3.28s-.06 17.54-.05 17.66z" fill="#237dba"/><path d="M86.317 76.333c0-.56-.5-.92-1.22-1.2a9.54 9.54 0 00-3.26-.51 10.15 10.15 0 00-2.73.34c-.93.28-1.54.66-1.59 1.3v1.38l-5.41.76h-.11v18.32a.69.69 0 000 .13l3.84 2.09 10.7 5.81h.13l24-3.37a.25.25 0 00.11 0v-18.31a.24.24 0 000-.12v-.05l-6-3.29v-1.14c0-.55-.5-.91-1.22-1.2a9.57 9.57 0 00-3.27-.5h-.72l-1.85-1v-.85c0-.56-.51-.92-1.23-1.2a9.26 9.26 0 00-3.26-.51 10 10 0 00-2.72.34c-.94.29-1.55.65-1.6 1.3v1.19l-2.55.36" fill="#33abe1"/><path d="M110.937 83.253a.24.24 0 000-.12v-.05l-6-3.29v-1.14c0-.55-.5-.91-1.22-1.2a9.57 9.57 0 00-3.27-.5h-.72l-1.85-1v.67l.83.45q-.43.07-.84.18v-2.24c0-.56-.51-.92-1.23-1.2a9.26 9.26 0 00-3.26-.51 10 10 0 00-2.72.34c-.94.29-1.55.65-1.6 1.3v1.19l-2.55.36v.6l2.54-.35v1.54a9.8 9.8 0 00-2.69.34h.14v-2.24c0-.56-.5-.92-1.22-1.2a9.54 9.54 0 00-3.26-.51 10.15 10.15 0 00-2.73.34c-.93.28-1.54.66-1.59 1.3v1.38l-5.41.76h-.11v18.32a.69.69 0 000 .13l3.84 2.09 10.7 5.81h.13l24-3.37a.17.17 0 00.11 0v-18.32zm-10.69-5.81a9 9 0 013 .47c.67.24.87.55.84.64-.03.09-.27.5-1.16.75a9.61 9.61 0 01-2.57.32 9.09 9.09 0 01-3.05-.47c-.63-.24-.84-.52-.84-.63 0-.12.29-.49 1.18-.74a9.51 9.51 0 012.6-.34zm-9.61-3.32a10 10 0 012.56-.32 9.09 9.09 0 013 .47c.67.25.87.55.84.65-.03.1-.28.49-1.17.74a9.53 9.53 0 01-2.56.32 8.85 8.85 0 01-3-.47c-.63-.24-.85-.52-.84-.63-.03-.13.29-.51 1.17-.76zm-4.31 5.05a9.59 9.59 0 012.56-.32 9.09 9.09 0 013 .47c.67.25.87.55.85.65-.02.1-.28.49-1.17.74a9.68 9.68 0 01-2.57.31 8.86 8.86 0 01-3-.46c-.63-.24-.84-.52-.84-.63-.03-.13.28-.52 1.17-.76zm-8.22-2.89c0-.12.28-.49 1.17-.74a9.55 9.55 0 012.56-.31 9.11 9.11 0 013.05.46c.66.25.86.55.84.65-.02.1-.28.49-1.17.74a9.53 9.53 0 01-2.56.32 9.05 9.05 0 01-3-.47c-.64-.24-.84-.52-.84-.62zm-5 2.61l4.44-.63v1.37c0 .55.5.91 1.22 1.19a9.5 9.5 0 003.26.51 10.57 10.57 0 002.59-.31v2.21c0 .56.5.91 1.21 1.2a9.6 9.6 0 003.27.51 10.21 10.21 0 002.73-.34c.94-.29 1.55-.66 1.6-1.31v-3.41a10.25 10.25 0 002.55-.3v2.24c0 .56.5.92 1.22 1.19a9.25 9.25 0 003.26.52 10.2 10.2 0 002.73-.35c.93-.28 1.55-.65 1.6-1.3v-1.55l5 2.72-23 3.23zm37.25 22.31c-.08.06-23.38 3.29-23.38 3.29v-17.61l23.38-3.28s-.06 17.49-.05 17.6z" fill="#237dba"/><path d="M86.317 58.053c0-.56-.5-.92-1.22-1.21a10.85 10.85 0 00-6-.15c-.93.28-1.54.65-1.59 1.29v1.38l-5.41.76h-.11v18.31a.59.59 0 000 .13l3.84 2.09 10.7 5.81a.38.38 0 00.13 0l24-3.37h.11v-18.28a.27.27 0 000-.12v-.05l-6-3.29v-1.14c0-.55-.5-.91-1.22-1.2a9.81 9.81 0 00-3.27-.5h-.72l-1.85-1v-.94c0-.56-.51-.92-1.23-1.2a9.26 9.26 0 00-3.26-.51 10 10 0 00-2.72.34c-.94.29-1.55.66-1.6 1.3v1.19l-2.55.36" fill="#33abe1"/><path d="M110.937 64.973a.27.27 0 000-.12v-.05l-6-3.29v-1.14c0-.55-.5-.91-1.22-1.2a9.81 9.81 0 00-3.27-.5h-.72l-1.85-1v.67l.83.45q-.43.08-.84.18v-2.24c0-.56-.51-.92-1.23-1.2a9.26 9.26 0 00-3.26-.51 10 10 0 00-2.72.34c-.94.29-1.55.66-1.6 1.3v1.19l-2.55.36v.6l2.54-.36v1.47a9.8 9.8 0 00-2.69.34h.14v-2.24c0-.56-.5-.92-1.22-1.21a10.85 10.85 0 00-6-.15c-.93.28-1.54.65-1.59 1.29v1.38l-5.41.76h-.11v18.31a.59.59 0 000 .13l3.84 2.09 10.7 5.81a.38.38 0 00.13 0l24-3.37h.11v-18.28zm-10.69-5.81a9 9 0 013 .47c.67.25.87.55.84.64-.03.09-.27.5-1.16.75a9.61 9.61 0 01-2.57.32 9.09 9.09 0 01-3.05-.47c-.63-.24-.84-.52-.84-.63 0-.12.29-.49 1.18-.74a9.51 9.51 0 012.6-.34zm-9.61-3.32a9.59 9.59 0 012.56-.32 9.09 9.09 0 013 .47c.67.25.87.55.84.65-.03.1-.28.49-1.17.74a9.53 9.53 0 01-2.56.32 9.09 9.09 0 01-3-.47c-.63-.24-.85-.52-.84-.63-.03-.13.29-.52 1.17-.76zm-4.31 5.05a9.59 9.59 0 012.56-.32 9.09 9.09 0 013 .47c.67.25.87.55.85.65-.02.1-.28.49-1.17.74a9.66 9.66 0 01-2.57.32 9.09 9.09 0 01-3-.47c-.63-.24-.84-.52-.84-.63-.03-.13.28-.52 1.17-.73zm-8.22-2.89c0-.12.28-.49 1.17-.73a10.11 10.11 0 015.61.14c.66.25.86.55.84.65-.02.1-.28.49-1.17.74a9.53 9.53 0 01-2.56.32 9.05 9.05 0 01-3-.47c-.64-.24-.84-.52-.84-.62zm-5 2.61l4.44-.63v1.37c0 .56.5.92 1.22 1.2a9.5 9.5 0 003.26.51 10.57 10.57 0 002.59-.31v2.17c0 .56.5.91 1.21 1.2a9.6 9.6 0 003.27.51 10.21 10.21 0 002.73-.34c.94-.29 1.55-.66 1.6-1.31v-3.36a9.8 9.8 0 002.55-.3v2.24c0 .56.5.92 1.22 1.2a9.5 9.5 0 003.26.51 9.81 9.81 0 002.73-.35c.93-.28 1.55-.65 1.6-1.3v-1.55l5 2.72-23 3.23zm37.2 22.31c-.08.06-23.38 3.28-23.38 3.28v-17.6l23.38-3.28s-.01 17.49 0 17.6z" fill="#237dba"/><path d="M86.317 39.773c0-.56-.5-.92-1.22-1.21a10.85 10.85 0 00-6-.15c-.93.28-1.54.65-1.59 1.29v1.38l-5.41.76h-.11v18.32a.59.59 0 000 .13l3.84 2.09 10.7 5.81a.38.38 0 00.13 0l24-3.37a.25.25 0 00.11 0v-18.28a.27.27 0 000-.12v-.05l-6-3.29v-1.14c0-.55-.5-.91-1.22-1.2a9.81 9.81 0 00-3.27-.5h-.72l-1.85-1v-.94c0-.56-.51-.92-1.23-1.2a9.26 9.26 0 00-3.26-.51 10 10 0 00-2.72.34c-.94.29-1.55.66-1.6 1.3v1.19l-2.55.36" fill="#33abe1"/><path d="M110.937 46.693a.27.27 0 000-.12v-.05l-6-3.29v-1.14c0-.55-.5-.91-1.22-1.2a9.81 9.81 0 00-3.27-.5h-.72l-1.85-1v.67l.83.45q-.43.08-.84.18v-2.24c0-.56-.51-.92-1.23-1.2a9.26 9.26 0 00-3.26-.51 10 10 0 00-2.72.34c-.94.29-1.55.66-1.6 1.3v1.19l-2.55.36v.6l2.54-.36v1.55a9.8 9.8 0 00-2.69.34h.14v-2.24c0-.56-.5-.92-1.22-1.21a10.85 10.85 0 00-6-.15c-.93.28-1.54.65-1.59 1.29v1.38l-5.41.76h-.11v18.32a.59.59 0 000 .13l3.84 2.09 10.7 5.81a.38.38 0 00.13 0l24-3.37a.25.25 0 00.11 0v-18.28zm-10.69-5.77a9 9 0 013 .47c.67.24.87.55.84.64-.03.09-.27.5-1.16.75a9.61 9.61 0 01-2.57.32 9.09 9.09 0 01-3.05-.47c-.63-.24-.84-.52-.84-.63 0-.12.29-.49 1.18-.74a9.51 9.51 0 012.6-.34zm-9.61-3.32a9.59 9.59 0 012.56-.32 9.09 9.09 0 013 .47c.67.25.87.55.84.65-.03.1-.28.49-1.17.74a9.53 9.53 0 01-2.56.32 9.09 9.09 0 01-3-.47c-.63-.24-.85-.52-.84-.63-.03-.17.29-.56 1.17-.8zm-4.31 5.05a9.59 9.59 0 012.56-.32 9.09 9.09 0 013 .47c.67.25.87.55.85.65-.02.1-.28.49-1.17.74a9.66 9.66 0 01-2.57.32 9.09 9.09 0 01-3-.47c-.63-.24-.84-.52-.84-.63-.03-.17.28-.56 1.17-.8zm-8.22-2.89c0-.12.28-.49 1.17-.73a10.37 10.37 0 015.61.14c.66.25.86.55.84.65-.02.1-.28.49-1.17.74a9.53 9.53 0 01-2.56.32 9.05 9.05 0 01-3-.47c-.64-.24-.84-.52-.84-.62zm-5 2.61l4.44-.63v1.37c0 .56.5.92 1.22 1.2a9.5 9.5 0 003.26.51 10.57 10.57 0 002.59-.31v2.21c0 .56.5.91 1.21 1.2a9.6 9.6 0 003.27.51 10.21 10.21 0 002.73-.34c.94-.29 1.55-.66 1.6-1.31v-3.41a10.25 10.25 0 002.55-.3v2.24c0 .56.5.92 1.22 1.2a9.5 9.5 0 003.26.51 9.81 9.81 0 002.73-.35c.93-.28 1.55-.65 1.6-1.3v-1.55l5 2.72-23 3.23zm37.25 22.31c-.08.06-23.38 3.28-23.38 3.28v-17.6l23.38-3.28s-.06 17.45-.05 17.56z" fill="#237dba"/><path d="M86.317 21.493c0-.55-.5-.91-1.22-1.2a9.8 9.8 0 00-3.26-.5 10.15 10.15 0 00-2.73.34c-.93.28-1.54.66-1.59 1.3v1.38l-5.41.76h-.11v18.32a.51.51 0 000 .13v.05l3.84 2.09 10.7 5.81a.38.38 0 00.13 0l24-3.37h.11v-18.27a.21.21 0 000-.12v-.05l-6-3.29v-1.15c0-.55-.5-.91-1.22-1.2a9.57 9.57 0 00-3.27-.5h-.72l-1.85-1v-.94c0-.56-.51-.92-1.23-1.2a9.49 9.49 0 00-3.26-.52 10 10 0 00-2.72.35c-.94.29-1.55.65-1.6 1.3v1.19l-2.55.36" fill="#33abe1"/><path d="M110.937 28.413a.21.21 0 000-.12v-.05l-6-3.29v-1.23c0-.55-.5-.91-1.22-1.2a9.57 9.57 0 00-3.27-.5h-.72l-1.85-1v.67l.83.45a7.34 7.34 0 00-.84.18v-2.24c0-.56-.51-.92-1.23-1.2a9.49 9.49 0 00-3.26-.52 10 10 0 00-2.72.35c-.94.29-1.55.65-1.6 1.3v1.19l-2.55.36v.6l2.54-.36v1.55a9.8 9.8 0 00-2.69.34h.14v-2.24c0-.55-.5-.91-1.22-1.2a9.8 9.8 0 00-3.26-.5 10.15 10.15 0 00-2.73.34c-.93.28-1.54.66-1.59 1.3v1.38l-5.41.76h-.11v18.32a.51.51 0 000 .13v.05l3.84 2.09 10.7 5.81a.38.38 0 00.13 0l24-3.37a.25.25 0 00.11 0v-18.28zm-10.69-5.81a9 9 0 013 .47c.67.24.87.55.84.64-.03.09-.27.5-1.16.74a9.21 9.21 0 01-2.57.33 9.09 9.09 0 01-3.05-.47c-.63-.24-.84-.52-.84-.63 0-.12.29-.49 1.18-.74a9.51 9.51 0 012.6-.34zm-9.61-3.32a9.59 9.59 0 012.56-.32 9.09 9.09 0 013 .47c.67.25.87.55.84.65-.03.1-.28.49-1.17.74a9.53 9.53 0 01-2.56.32 9.09 9.09 0 01-3-.47c-.63-.24-.85-.52-.84-.63-.03-.12.29-.52 1.17-.76zm-4.31 5.05a9.59 9.59 0 012.56-.32 9.09 9.09 0 013 .47c.67.25.87.55.85.65-.02.1-.28.49-1.17.74a9.68 9.68 0 01-2.57.31 8.86 8.86 0 01-3-.46c-.63-.24-.84-.52-.84-.63-.03-.17.28-.52 1.17-.76zm-8.22-2.89c0-.12.28-.49 1.17-.74a9.55 9.55 0 012.56-.31 9.11 9.11 0 013.05.46c.66.25.86.55.84.64-.02.09-.28.5-1.17.75a9.53 9.53 0 01-2.56.32 9.05 9.05 0 01-3-.47c-.64-.24-.84-.52-.84-.62zm-5 2.61l4.44-.63v1.37c0 .56.5.92 1.22 1.2a9.5 9.5 0 003.26.51 10.11 10.11 0 002.59-.31v2.21c0 .56.5.91 1.21 1.2a9.6 9.6 0 003.27.51 10.21 10.21 0 002.73-.34c.94-.3 1.55-.66 1.6-1.31v-3.36a10.25 10.25 0 002.55-.3v2.24c0 .56.5.92 1.22 1.2a9.5 9.5 0 003.26.51 10.2 10.2 0 002.73-.35c.93-.28 1.55-.65 1.6-1.3v-1.55l5 2.72-23 3.23zm37.25 22.31c-.08.06-23.38 3.28-23.38 3.28v-17.6l23.38-3.28s-.06 17.49-.05 17.6z" fill="#237dba"/><path d="M86.317 3.213c0-.55-.5-.91-1.22-1.19a9.54 9.54 0 00-3.26-.51 10.15 10.15 0 00-2.73.34c-.93.28-1.54.66-1.59 1.3v1.38l-5.41.76h-.11v18.27a.59.59 0 000 .13l3.84 2.09 10.7 5.81a.38.38 0 00.13 0l24-3.37a.25.25 0 00.11 0V9.953a.24.24 0 000-.12v-.05l-6-3.29v-1.14c0-.55-.5-.91-1.22-1.2a9.81 9.81 0 00-3.27-.5h-.72l-1.85-1v-.94c0-.56-.51-.92-1.23-1.2a9.26 9.26 0 00-3.26-.51 10 10 0 00-2.72.34c-.94.29-1.55.65-1.6 1.3v1.28l-2.55.36" fill="#33abe1"/><path d="M110.937 10.133a.24.24 0 000-.12v-.05l-6-3.29v-1.14c0-.55-.5-.91-1.22-1.2a9.81 9.81 0 00-3.27-.5h-.72l-1.85-1v.67l.83.45q-.43.07-.84.18v-2.24c0-.56-.51-.92-1.23-1.2a9.26 9.26 0 00-3.26-.51 10 10 0 00-2.72.34c-.94.29-1.55.65-1.6 1.3v1.1l-2.55.36v.6l2.54-.36v1.55a9.8 9.8 0 00-2.69.34h.14v-2.24c0-.55-.5-.91-1.22-1.19a9.54 9.54 0 00-3.26-.51 10.15 10.15 0 00-2.73.34c-.93.28-1.54.66-1.59 1.3v1.38l-5.41.76h-.11v18.27a.59.59 0 000 .13l3.84 2.09 10.7 5.81a.38.38 0 00.13 0l24-3.37a.25.25 0 00.11 0V9.903zm-10.69-5.81a9 9 0 013 .47c.67.24.87.55.84.64-.03.09-.27.5-1.16.74a9.21 9.21 0 01-2.57.33 9.09 9.09 0 01-3.05-.47c-.63-.24-.84-.52-.84-.63 0-.12.29-.49 1.18-.74a9.51 9.51 0 012.6-.34zm-9.61-3.32a9.59 9.59 0 012.56-.32 9.09 9.09 0 013 .47c.67.25.87.55.84.65-.03.1-.28.49-1.17.74a9.53 9.53 0 01-2.56.32 9.09 9.09 0 01-3-.47c-.63-.24-.85-.52-.84-.63-.03-.13.29-.52 1.17-.76zm-4.31 5.05a9.59 9.59 0 012.56-.32 9.09 9.09 0 013 .47c.67.25.87.55.85.65-.02.1-.28.49-1.17.74a9.68 9.68 0 01-2.57.31 8.86 8.86 0 01-3-.46c-.63-.24-.84-.52-.84-.63-.03-.13.28-.52 1.17-.76zm-8.22-2.89c0-.12.28-.49 1.17-.73a10.11 10.11 0 015.61.14c.66.25.86.55.84.64-.02.09-.28.5-1.17.75a9.53 9.53 0 01-2.56.32 9.05 9.05 0 01-3-.47c-.64-.24-.84-.52-.84-.62zm-5 2.61l4.44-.63v1.37c0 .56.5.92 1.22 1.2a9.5 9.5 0 003.26.51 10.11 10.11 0 002.59-.31v2.21c0 .56.5.91 1.21 1.2a9.6 9.6 0 003.27.51 10.21 10.21 0 002.73-.34c.94-.3 1.55-.66 1.6-1.31v-3.41a10.25 10.25 0 002.55-.3v2.24c0 .56.5.92 1.22 1.19a9.25 9.25 0 003.26.52 10.2 10.2 0 002.73-.35c.93-.28 1.55-.65 1.6-1.3v-1.55l5 2.72-23 3.23zm37.25 22.31c-.08.06-23.38 3.29-23.38 3.29v-17.61l23.38-3.28s-.06 17.49-.05 17.6z" fill="#237dba"/><path d="M62.327 61.443c0-.56-.5-.92-1.22-1.2a9.5 9.5 0 00-3.26-.51 9.81 9.81 0 00-2.73.35c-.93.28-1.54.65-1.59 1.3v1.39l-5.41.76a.45.45 0 00-.11 0v18.26a.51.51 0 000 .13v.05l3.83 2.09 10.7 5.82a.38.38 0 00.13 0l24-3.37h.11v-18.31a.27.27 0 000-.12v-.05l-6-3.3v-1.14c0-.56-.5-.92-1.23-1.2a9.46 9.46 0 00-3.26-.51h-.72l-1.85-1v-.94c0-.56-.51-.91-1.23-1.2a9.74 9.74 0 00-3.26-.51 10.14 10.14 0 00-2.73.35c-.93.28-1.55.65-1.59 1.29v1.2l-2.55.36" fill="#33abe1"/><path d="M86.947 68.353a.27.27 0 000-.12v-.05l-6-3.3v-1.14c0-.56-.5-.92-1.23-1.2a9.46 9.46 0 00-3.26-.51h-.72l-1.85-1v.66l.83.46a7.34 7.34 0 00-.84.17v-2.23c0-.56-.51-.91-1.23-1.2a9.74 9.74 0 00-3.26-.51 10.14 10.14 0 00-2.73.35c-.93.28-1.55.65-1.59 1.29v1.2l-2.55.36v.6l2.54-.36v1.53a10.19 10.19 0 00-2.69.35h.14v-2.23c0-.56-.5-.92-1.22-1.2a9.5 9.5 0 00-3.26-.51 9.81 9.81 0 00-2.73.35c-.93.28-1.54.65-1.59 1.3v1.39l-5.41.76a.45.45 0 00-.11 0v18.26a.51.51 0 000 .13v.05l3.83 2.09 10.7 5.82a.38.38 0 00.13 0l24-3.37h.11v-18.31zm-10.69-5.81a9 9 0 013 .47c.67.25.87.55.85.65-.02.1-.28.49-1.17.74a9.61 9.61 0 01-2.57.32 8.79 8.79 0 01-3-.47c-.64-.24-.85-.52-.85-.62 0-.11.29-.49 1.18-.73a9.11 9.11 0 012.56-.36zm-9.61-3.31a9.57 9.57 0 012.56-.33 9.09 9.09 0 013 .47c.66.25.87.56.84.65-.03.09-.28.49-1.17.74a9.53 9.53 0 01-2.56.32 8.61 8.61 0 01-3-.47c-.63-.23-.84-.52-.84-.63-.03-.13.28-.51 1.17-.75zm-4.3 5.05a9.46 9.46 0 012.56-.33 8.77 8.77 0 013 .48c.67.24.87.55.85.64-.02.09-.28.49-1.18.74a9.53 9.53 0 01-2.56.32 8.85 8.85 0 01-3-.47c-.63-.23-.84-.52-.84-.63-.04-.11.27-.51 1.17-.75zm-8.23-2.9c0-.12.28-.5 1.17-.74a9.53 9.53 0 012.56-.32 9 9 0 013 .46c.67.25.87.55.85.65-.02.1-.27.49-1.17.74a9.15 9.15 0 01-2.56.32 8.81 8.81 0 01-3-.47c-.63-.23-.84-.51-.84-.62zm-5 2.61l4.44-.62v1.36c0 .56.51.91 1.22 1.19a9.27 9.27 0 003.27.52 10.07 10.07 0 002.58-.32v2.22c0 .56.5.92 1.21 1.2a9.6 9.6 0 003.27.51 10.21 10.21 0 002.73-.34c.94-.29 1.56-.66 1.6-1.31v-3.35a9.79 9.79 0 002.55-.31v2.21c0 .57.51.92 1.23 1.2a9.5 9.5 0 003.26.51 10.21 10.21 0 002.73-.34c.94-.29 1.55-.66 1.6-1.31v-1.55l5 2.72-23 3.23zm37.25 22.32c-.08.06-23.38 3.28-23.38 3.28v-17.6l23.38-3.29s-.06 17.5-.05 17.61z" fill="#237dba"/><path d="M38.357 64.813c0-.55-.49-.91-1.22-1.2a9.8 9.8 0 00-3.26-.5 10.21 10.21 0 00-2.73.34c-.93.28-1.54.66-1.59 1.3v1.38l-5.41.76h-.11v18.33a.35.35 0 000 .13v.05l3.83 2.09 10.7 5.81a.27.27 0 00.12 0l24-3.37a.25.25 0 00.11 0v-18.26a.43.43 0 000-.11v-.06h-.06l-6-3.29v-1.14c0-.56-.5-.91-1.22-1.2a9.57 9.57 0 00-3.27-.5h-.72l-1.85-1v-.94c0-.55-.51-.91-1.23-1.19a9.26 9.26 0 00-3.26-.51 10 10 0 00-2.72.34c-.94.28-1.55.65-1.6 1.3v1.19l-2.55.36" fill="#33abe1"/><path d="M62.977 71.723a.43.43 0 000-.11v-.06h-.06l-6-3.29v-1.14c0-.56-.5-.91-1.22-1.2a9.57 9.57 0 00-3.27-.5h-.72l-1.85-1v.67l.83.45a7.34 7.34 0 00-.84.18v-2.24c0-.55-.51-.91-1.23-1.19a9.26 9.26 0 00-3.26-.51 10 10 0 00-2.72.34c-.94.28-1.55.65-1.6 1.3v1.19l-2.55.36v.6l2.55-.36v1.53a10.25 10.25 0 00-2.69.35h.14v-2.23c0-.55-.49-.91-1.22-1.2a9.8 9.8 0 00-3.26-.5 10.21 10.21 0 00-2.73.34c-.93.28-1.54.66-1.59 1.3v1.38l-5.41.76h-.11v18.33a.35.35 0 000 .13v.05l3.83 2.09 10.7 5.81a.27.27 0 00.12 0l24-3.37a.25.25 0 00.11 0v-18.26zm-10.69-5.8a9.28 9.28 0 013 .46c.67.25.87.56.84.65-.03.09-.27.5-1.16.74a9.16 9.16 0 01-2.57.33 9 9 0 01-3-.47c-.64-.24-.85-.52-.85-.63 0-.12.29-.49 1.18-.74a9.51 9.51 0 012.56-.34zm-9.61-3.32a9.59 9.59 0 012.56-.32 9.09 9.09 0 013 .47c.67.25.87.55.84.64-.03.09-.28.5-1.17.75a9.55 9.55 0 01-2.56.31 8.86 8.86 0 01-3.05-.46c-.63-.24-.84-.52-.84-.63.02-.14.3-.52 1.22-.76zm-4.3 5.05a9.48 9.48 0 012.56-.32 8.79 8.79 0 013 .47c.67.25.87.55.85.65-.02.1-.28.49-1.17.74a10.11 10.11 0 01-2.57.31 8.86 8.86 0 01-3-.46c-.63-.24-.84-.52-.84-.63-.04-.14.28-.49 1.17-.76zm-8.23-2.89c0-.12.28-.49 1.17-.73a10.11 10.11 0 015.61.14c.66.25.86.55.84.64-.02.09-.27.5-1.16.75a9.66 9.66 0 01-2.57.32 9.05 9.05 0 01-3-.47c-.63-.24-.84-.52-.84-.62zm-5.05 2.61l4.44-.63v1.37c0 .56.5.92 1.22 1.2a9.52 9.52 0 003.27.51 10.54 10.54 0 002.58-.31v2.21c0 .56.5.91 1.22 1.2a9.51 9.51 0 003.26.5 10.22 10.22 0 002.73-.33c.94-.3 1.56-.67 1.6-1.31v-3.36a10.71 10.71 0 002.54-.31v2.24c0 .56.5.92 1.22 1.2a9.5 9.5 0 003.26.51 10.2 10.2 0 002.73-.35c.94-.29 1.56-.65 1.6-1.31v-1.54l5 2.72-23 3.23zm37.25 22.32c-.08.05-23.38 3.27-23.38 3.27v-17.6l23.38-3.28s-.01 17.49 0 17.61z" fill="#237dba"/><path d="M14.377 104.733c0-.56-.49-.91-1.22-1.2a9.55 9.55 0 00-3.26-.5 9.81 9.81 0 00-2.73.35c-.93.27-1.54.65-1.59 1.29v1.38l-5.41.76h-.11v18.32a.35.35 0 000 .14v.05l3.83 2.09 10.7 5.81h.12l24-3.37a.21.21 0 00.11 0v-18.26a.2.2 0 000-.11v-.06h-.05l-6.06-3.29v-1.21c0-.56-.5-.91-1.22-1.2a9.57 9.57 0 00-3.27-.5h-.72l-1.85-1v-.94c0-.55-.51-.91-1.23-1.19a9.26 9.26 0 00-3.26-.51 10 10 0 00-2.72.34c-.94.28-1.55.65-1.6 1.29v1.19l-2.55.36" fill="#33abe1"/><path d="M38.997 111.643a.2.2 0 000-.11v-.06h-.05l-6.06-3.29v-1.26c0-.56-.5-.91-1.22-1.2a9.57 9.57 0 00-3.27-.5h-.72l-1.85-1v.7l.83.45a7.34 7.34 0 00-.84.18v-2.24c0-.55-.51-.91-1.23-1.19a9.26 9.26 0 00-3.26-.51 10 10 0 00-2.72.34c-.94.28-1.55.65-1.6 1.29v1.19l-2.55.36v.6l2.55-.36v1.53a10.25 10.25 0 00-2.69.35h.14v-2.24c0-.56-.49-.91-1.22-1.2a9.55 9.55 0 00-3.26-.5 9.81 9.81 0 00-2.73.35c-.93.27-1.54.65-1.59 1.29v1.38l-5.41.76h-.11v18.32a.35.35 0 000 .14v.05l3.83 2.09 10.7 5.81h.12l24-3.37a.21.21 0 00.11 0v-18.26zm-10.69-5.8a9.28 9.28 0 013 .46c.67.25.87.56.85.65-.02.09-.28.5-1.17.74a10.11 10.11 0 01-5.61-.14c-.64-.24-.85-.52-.85-.63 0-.12.29-.49 1.18-.74a9.51 9.51 0 012.6-.34zm-9.61-3.32a9.59 9.59 0 012.56-.32 8.85 8.85 0 013 .47c.67.25.87.55.84.64-.03.09-.27.5-1.17.75a10 10 0 01-2.56.31 8.86 8.86 0 01-3.05-.46c-.63-.24-.84-.52-.84-.63.02-.14.33-.52 1.22-.76zm-4.3 5a9.53 9.53 0 012.56-.32 8.79 8.79 0 013 .47c.67.25.87.55.85.64-.02.09-.28.5-1.17.75a10.11 10.11 0 01-2.57.31 8.86 8.86 0 01-3-.46c-.63-.24-.84-.52-.83-.63-.05-.09.27-.47 1.16-.71zm-8.23-2.89c0-.12.28-.49 1.17-.74a9.53 9.53 0 012.56-.32 9.09 9.09 0 013 .47c.66.25.86.55.84.64-.02.09-.27.5-1.16.75a9.66 9.66 0 01-2.57.32 9.09 9.09 0 01-3-.47c-.63-.24-.84-.52-.84-.62zm-5.05 2.6l4.44-.62v1.37c0 .56.51.92 1.22 1.2a9.52 9.52 0 003.27.51 10.54 10.54 0 002.58-.31v2.21c0 .56.5.91 1.22 1.2a9.51 9.51 0 003.26.5 10.17 10.17 0 002.73-.33c.94-.3 1.56-.67 1.6-1.31v-3.36a10.23 10.23 0 002.54-.3v2.24c0 .56.5.92 1.22 1.2a9.51 9.51 0 003.26.5 10.21 10.21 0 002.73-.34c.94-.29 1.56-.65 1.6-1.31v-1.54l5 2.72-23 3.23zm37.25 22.33c-.08.05-23.38 3.27-23.38 3.27v-17.6l23.38-3.28s-.01 17.54 0 17.66z" fill="#237dba"/><path d="M14.377 86.453c0-.55-.49-.91-1.22-1.2a9.55 9.55 0 00-3.26-.5 10.21 10.21 0 00-2.73.34c-.93.28-1.54.66-1.59 1.3v1.38l-5.41.76h-.11v18.32a.35.35 0 000 .14l3.83 2.1 10.7 5.81a.28.28 0 00.12 0l24-3.37h.11v-18.26a.2.2 0 000-.11l-6.06-3.34v-1.14c0-.56-.5-.91-1.22-1.2a9.57 9.57 0 00-3.27-.5h-.72l-1.85-1v-.94c0-.55-.51-.91-1.23-1.19a9.49 9.49 0 00-3.26-.52 10 10 0 00-2.72.35c-.94.28-1.55.65-1.6 1.29v1.19l-2.55.36" fill="#33abe1"/><path d="M38.997 93.363a.2.2 0 000-.11l-6.24-3.43v-1.14c0-.56-.5-.91-1.22-1.2a9.57 9.57 0 00-3.27-.5h-.72l-1.85-1v.67l.83.45a7.34 7.34 0 00-.84.18v-2.24c0-.55-.51-.91-1.23-1.19a9.49 9.49 0 00-3.26-.52 10 10 0 00-2.72.35c-.94.28-1.55.65-1.6 1.29v1.19l-2.55.36v.6l2.55-.36v1.53a10.25 10.25 0 00-2.69.35h.14v-2.23c0-.55-.49-.91-1.22-1.2a9.55 9.55 0 00-3.26-.5 10.21 10.21 0 00-2.73.34c-.93.28-1.54.66-1.59 1.3v1.38l-5.41.76h-.11v18.32a.35.35 0 000 .14l3.83 2.09 10.7 5.81a.28.28 0 00.12 0l24-3.37h.11v-18.26zm-10.69-5.8a9.28 9.28 0 013 .46c.67.25.87.56.85.65-.02.09-.28.49-1.17.74a9.15 9.15 0 01-2.56.32 8.81 8.81 0 01-3-.47c-.64-.23-.85-.51-.85-.62 0-.12.29-.5 1.18-.74a9.51 9.51 0 012.55-.34zm-9.61-3.32a9.59 9.59 0 012.56-.32 8.85 8.85 0 013 .47c.67.25.87.55.84.64-.03.09-.27.5-1.17.75a9.55 9.55 0 01-2.56.31 8.86 8.86 0 01-3.05-.46c-.63-.24-.84-.52-.84-.63.02-.14.33-.52 1.22-.76zm-4.3 5.05a9.53 9.53 0 012.56-.32 8.79 8.79 0 013 .47c.67.25.87.55.85.64-.02.09-.28.5-1.17.75a10.11 10.11 0 01-2.57.31 8.86 8.86 0 01-3-.46c-.63-.24-.84-.52-.83-.63-.05-.13.27-.52 1.16-.76zm-8.23-2.89c0-.12.28-.49 1.17-.74a9.53 9.53 0 012.56-.32 9.09 9.09 0 013 .47c.66.24.86.55.84.64-.02.09-.27.49-1.16.75a9.66 9.66 0 01-2.57.32 9.09 9.09 0 01-3-.47c-.63-.24-.84-.52-.84-.63zm-5.05 2.6l4.44-.62v1.37c0 .56.51.92 1.22 1.2a9.52 9.52 0 003.27.51 10.54 10.54 0 002.58-.31v2.21c0 .56.5.91 1.22 1.2a9.51 9.51 0 003.26.5 10.15 10.15 0 002.73-.34c.94-.29 1.56-.66 1.6-1.3v-3.36a10.23 10.23 0 002.54-.3v2.24c0 .56.5.91 1.22 1.19a9.25 9.25 0 003.26.52 10.2 10.2 0 002.73-.35c.94-.29 1.56-.65 1.6-1.31v-1.54l5 2.72-23 3.22zm37.25 22.32c-.08.06-23.38 3.28-23.38 3.28v-17.6l23.38-3.28s-.01 17.49 0 17.6z" fill="#237dba"/><path d="M14.377 68.173c0-.55-.49-.91-1.22-1.2a9.55 9.55 0 00-3.26-.5 10.21 10.21 0 00-2.73.34c-.93.28-1.54.66-1.59 1.3v1.39l-5.41.76h-.11v18.37a.35.35 0 000 .14v.05l3.83 2.08 10.7 5.82h.12l24-3.37h.11v-18.31a.2.2 0 000-.11v-.06h-.05l-6.06-3.29v-1.14c0-.56-.5-.91-1.22-1.2a9.57 9.57 0 00-3.27-.5h-.72l-1.85-1v-.94c0-.56-.51-.92-1.23-1.2a9.49 9.49 0 00-3.26-.52 10 10 0 00-2.72.35c-.94.28-1.55.65-1.6 1.29v1.2l-2.55.36" fill="#33abe1"/><path d="M38.997 75.083a.2.2 0 000-.11v-.06h-.05l-6.06-3.29v-1.14c0-.56-.5-.91-1.22-1.2a9.57 9.57 0 00-3.27-.5h-.72l-1.85-1v.67l.83.45a7.34 7.34 0 00-.84.18v-2.24c0-.56-.51-.92-1.23-1.2a9.49 9.49 0 00-3.26-.52 10 10 0 00-2.72.35c-.94.28-1.55.65-1.6 1.29v1.16l-2.55.36v.6l2.55-.36v1.53a10.25 10.25 0 00-2.69.35h.14v-2.23c0-.55-.49-.91-1.22-1.2a9.55 9.55 0 00-3.26-.5 10.21 10.21 0 00-2.73.34c-.93.28-1.54.66-1.59 1.3v1.39l-5.41.76h-.11v18.37a.35.35 0 000 .14v.05l3.83 2.08 10.7 5.82h.12l24-3.37h.11v-18.31zm-10.69-5.8a9.28 9.28 0 013 .46c.67.25.87.56.85.65-.02.09-.28.49-1.17.74a9.15 9.15 0 01-2.56.32 8.81 8.81 0 01-3-.47c-.64-.23-.85-.51-.85-.62 0-.12.29-.5 1.18-.74a9.51 9.51 0 012.55-.34zm-9.61-3.32a9.59 9.59 0 012.56-.32 9.09 9.09 0 013 .47c.67.25.87.55.84.65-.03.1-.27.49-1.17.74a10 10 0 01-2.56.31 8.86 8.86 0 01-3.05-.46c-.63-.24-.84-.52-.84-.63.02-.14.33-.52 1.22-.8zm-4.3 5a9.53 9.53 0 012.56-.32 8.79 8.79 0 013 .47c.67.25.87.55.85.64-.02.09-.28.5-1.17.75a10.11 10.11 0 01-2.57.31 8.86 8.86 0 01-3-.46c-.63-.24-.84-.52-.83-.63-.05-.09.27-.47 1.16-.71zm-8.23-2.9c0-.12.28-.49 1.17-.74a9.53 9.53 0 012.56-.32 9.37 9.37 0 013 .46c.66.25.86.56.84.65-.02.09-.27.49-1.16.75a9.66 9.66 0 01-2.57.32 9.09 9.09 0 01-3-.47c-.63-.24-.84-.52-.84-.62zm-5.05 2.61l4.44-.62v1.37c0 .56.51.92 1.22 1.19a9.27 9.27 0 003.27.52 10.54 10.54 0 002.58-.31v2.21c0 .56.5.91 1.22 1.2a9.51 9.51 0 003.26.5 9.77 9.77 0 002.73-.34c.94-.29 1.56-.65 1.6-1.3v-3.36a10.23 10.23 0 002.54-.3v2.23c0 .56.5.92 1.22 1.19a9.25 9.25 0 003.26.52 10.2 10.2 0 002.73-.35c.94-.29 1.56-.65 1.6-1.31v-1.54l5 2.72-23 3.23zm37.25 22.32c-.08.06-23.38 3.28-23.38 3.28v-17.6l23.38-3.29s-.01 17.54 0 17.66z" fill="#237dba"/><path d="M14.377 49.923c0-.55-.49-.91-1.22-1.2a9.55 9.55 0 00-3.26-.5 10.21 10.21 0 00-2.73.34c-.93.28-1.54.66-1.59 1.3v1.38l-5.41.76h-.11v18.32a.35.35 0 000 .14l3.83 2.1 10.7 5.81h.12l24-3.37h.11v-18.2a.2.2 0 000-.11v-.06h-.05l-6.06-3.29v-1.22c0-.56-.5-.91-1.22-1.2a9.57 9.57 0 00-3.27-.5h-.72l-1.85-1v-.94c0-.55-.51-.91-1.23-1.19a9.49 9.49 0 00-3.26-.52 10 10 0 00-2.72.35c-.94.28-1.55.65-1.6 1.29v1.19l-2.55.36" fill="#33abe1"/><path d="M38.997 56.803a.2.2 0 000-.11v-.06h-.05l-6.06-3.29v-1.22c0-.56-.5-.91-1.22-1.2a9.57 9.57 0 00-3.27-.5h-.72l-1.85-1v.67l.83.45a7.34 7.34 0 00-.84.18v-2.24c0-.55-.51-.91-1.23-1.19a9.49 9.49 0 00-3.26-.52 10 10 0 00-2.72.35c-.94.28-1.55.65-1.6 1.29v1.19l-2.55.36v.6l2.55-.36v1.53a10.25 10.25 0 00-2.69.35h.14v-2.16c0-.55-.49-.91-1.22-1.2a9.55 9.55 0 00-3.26-.5 10.21 10.21 0 00-2.73.34c-.93.28-1.54.66-1.59 1.3v1.38l-5.41.76h-.11v18.32a.35.35 0 000 .14l3.83 2.09 10.7 5.81h.12l24-3.37h.11v-18.19zm-10.69-5.8a9.28 9.28 0 013 .46c.67.25.87.56.85.65-.02.09-.28.49-1.17.74a9.15 9.15 0 01-2.56.32 8.81 8.81 0 01-3-.47c-.64-.23-.85-.51-.85-.62 0-.12.29-.5 1.18-.74a9.51 9.51 0 012.55-.34zm-9.61-3.32a9.59 9.59 0 012.56-.32 8.85 8.85 0 013 .47c.67.25.87.55.84.64-.03.09-.27.5-1.17.75a10 10 0 01-2.56.31 8.86 8.86 0 01-3.05-.46c-.63-.24-.84-.52-.84-.63.02-.14.33-.52 1.22-.76zm-4.3 5.05a9.53 9.53 0 012.56-.32 8.79 8.79 0 013 .47c.67.25.87.55.85.64-.02.09-.28.5-1.17.75a10.11 10.11 0 01-2.57.31 8.86 8.86 0 01-3-.46c-.63-.24-.84-.52-.83-.63-.05-.14.27-.52 1.16-.76zm-8.23-2.89c0-.12.28-.49 1.17-.74a9.53 9.53 0 012.56-.32 9.09 9.09 0 013 .47c.66.24.86.55.84.64-.02.09-.27.49-1.16.75a9.66 9.66 0 01-2.57.32 9.09 9.09 0 01-3-.47c-.63-.24-.84-.52-.84-.63zm-5.05 2.6l4.44-.62v1.37c0 .56.51.92 1.22 1.19a9.27 9.27 0 003.27.52 10.54 10.54 0 002.58-.31v2.21c0 .56.5.91 1.22 1.2a9.51 9.51 0 003.26.5 9.77 9.77 0 002.73-.34c.94-.29 1.56-.66 1.6-1.3v-3.36a10.23 10.23 0 002.54-.3v2.23c0 .56.5.92 1.22 1.19a9.26 9.26 0 003.26.51 10.21 10.21 0 002.73-.34c.94-.29 1.56-.65 1.6-1.31v-1.56l5 2.72-23.03 3.28zm37.25 22.32c-.08.06-23.38 3.28-23.38 3.28v-17.6l23.38-3.28s-.01 17.49 0 17.6z" fill="#237dba"/><path d="M14.377 31.613c0-.55-.49-.91-1.22-1.2a9.55 9.55 0 00-3.26-.5 10.21 10.21 0 00-2.73.34c-.93.28-1.54.66-1.59 1.3v1.37l-5.41.76a.25.25 0 00-.11 0v18.37a.28.28 0 000 .13v.05l3.83 2.1 10.7 5.81a.28.28 0 00.12 0l24-3.37h.11v-18.26a.2.2 0 000-.11v-.06h-.05l-6.06-3.29v-1.15c0-.56-.5-.91-1.22-1.2a9.57 9.57 0 00-3.27-.5h-.72l-1.85-1v-.94c0-.55-.51-.91-1.23-1.19a9.49 9.49 0 00-3.26-.52 10 10 0 00-2.72.35c-.94.28-1.55.65-1.6 1.29v1.19l-2.55.36" fill="#33abe1"/><path d="M38.997 38.523a.2.2 0 000-.11v-.06h-.05l-6.06-3.29v-1.15c0-.56-.5-.91-1.22-1.2a9.57 9.57 0 00-3.27-.5h-.72l-1.85-1v.67l.83.45a5.69 5.69 0 00-.84.18v-2.24c0-.55-.51-.91-1.23-1.19a9.49 9.49 0 00-3.26-.52 10 10 0 00-2.72.35c-.94.28-1.55.65-1.6 1.29v1.19l-2.55.36v.6l2.55-.36v1.53a10.25 10.25 0 00-2.69.35h.14v-2.23c0-.55-.49-.91-1.22-1.2a9.55 9.55 0 00-3.26-.5 10.21 10.21 0 00-2.73.34c-.93.28-1.54.66-1.59 1.3v1.34l-5.41.76a.25.25 0 00-.11 0v18.37a.28.28 0 000 .13v.05l3.83 2.1 10.7 5.81a.28.28 0 00.12 0l24-3.37h.11v-18.26zm-10.69-5.8a9.28 9.28 0 013 .46c.67.25.87.56.85.65-.02.09-.28.49-1.17.74a9.15 9.15 0 01-2.56.32 8.81 8.81 0 01-3-.47c-.64-.23-.85-.51-.85-.62 0-.12.29-.5 1.18-.74a9.51 9.51 0 012.55-.34zm-9.61-3.32a9.59 9.59 0 012.56-.32 8.85 8.85 0 013 .47c.67.25.87.55.84.64-.03.09-.27.5-1.17.75a9.55 9.55 0 01-2.56.31 8.86 8.86 0 01-3.05-.46c-.63-.24-.84-.52-.84-.63.02-.14.33-.52 1.22-.76zm-4.3 5a9.53 9.53 0 012.56-.32 8.79 8.79 0 013 .47c.67.25.87.55.85.64-.02.09-.28.5-1.17.75a10.11 10.11 0 01-2.57.31 8.86 8.86 0 01-3-.46c-.63-.24-.84-.52-.83-.63-.05-.09.27-.47 1.16-.71zm-8.23-2.9c0-.12.28-.49 1.17-.74a9.53 9.53 0 012.56-.32 9.09 9.09 0 013 .47c.66.24.86.55.84.64-.02.09-.27.49-1.16.74a9.26 9.26 0 01-2.57.33 9.09 9.09 0 01-3-.47c-.63-.24-.84-.52-.84-.63zm-5.05 2.61l4.44-.62v1.43c0 .56.51.92 1.22 1.19a9.27 9.27 0 003.27.52 10.54 10.54 0 002.58-.31v2.21c0 .56.5.91 1.22 1.2a9.51 9.51 0 003.26.5 10.15 10.15 0 002.73-.34c.94-.29 1.56-.66 1.6-1.3v-3.36a10.23 10.23 0 002.54-.3v2.23c0 .56.5.91 1.22 1.19a9.26 9.26 0 003.26.51 10.21 10.21 0 002.73-.34c.94-.29 1.56-.65 1.6-1.31v-1.54l5 2.72-23 3.22zm37.25 22.32c-.08.06-23.38 3.28-23.38 3.28v-17.6l23.38-3.28s-.01 17.54 0 17.65z" fill="#237dba"/><path d="M14.377 13.333c0-.55-.49-.91-1.22-1.2a9.55 9.55 0 00-3.26-.5 10.21 10.21 0 00-2.73.34c-.93.28-1.54.66-1.59 1.3v1.38l-5.41.76h-.11v18.32a.28.28 0 000 .13v.05l3.83 2.1 10.7 5.81a.28.28 0 00.12 0l24-3.37h.11v-18.26a.2.2 0 000-.11v-.06h-.05l-6.06-3.29v-1.14c0-.56-.5-.91-1.22-1.2a9.57 9.57 0 00-3.27-.5h-.72l-1.85-1v-.97c0-.56-.51-.92-1.23-1.2a9.49 9.49 0 00-3.26-.52 10 10 0 00-2.72.35c-.94.28-1.55.65-1.6 1.29v1.19l-2.55.36" fill="#33abe1"/><path d="M38.997 20.243a.2.2 0 000-.11v-.06h-.05l-6.06-3.29v-1.14c0-.56-.5-.91-1.22-1.2a9.57 9.57 0 00-3.27-.5h-.72l-1.85-1v.67l.83.45a7.34 7.34 0 00-.84.17v-2.23c0-.56-.51-.92-1.23-1.2a9.49 9.49 0 00-3.26-.52 10 10 0 00-2.72.35c-.94.28-1.55.65-1.6 1.29v1.19l-2.55.36v.6l2.55-.36v1.53a10.25 10.25 0 00-2.69.35h.14v-2.23c0-.55-.49-.91-1.22-1.2a9.55 9.55 0 00-3.26-.5 10.21 10.21 0 00-2.73.34c-.93.28-1.54.66-1.59 1.3v1.38l-5.41.76h-.11v18.32a.28.28 0 000 .13v.05l3.83 2.09 10.7 5.81a.28.28 0 00.12 0l24-3.37h.11v-18.26zm-10.69-5.8a9.28 9.28 0 013 .46c.67.25.87.56.85.65-.02.09-.28.49-1.17.74a9.15 9.15 0 01-2.56.32 8.81 8.81 0 01-3-.47c-.64-.23-.85-.51-.85-.62 0-.12.29-.5 1.18-.74a9.51 9.51 0 012.55-.34zm-9.61-3.32a9.59 9.59 0 012.56-.32 8.85 8.85 0 013 .47c.67.25.87.55.84.65-.03.1-.27.49-1.17.74a9.55 9.55 0 01-2.56.31 8.86 8.86 0 01-3.05-.46c-.63-.24-.84-.52-.84-.63.02-.14.33-.52 1.22-.76zm-4.3 5.05a9.53 9.53 0 012.56-.32 8.79 8.79 0 013 .47c.67.25.87.55.85.64-.02.09-.28.5-1.17.75a10.11 10.11 0 01-2.57.31 8.86 8.86 0 01-3-.46c-.63-.24-.84-.53-.83-.63-.05-.14.27-.52 1.16-.76zm-8.23-2.89c0-.12.28-.5 1.17-.74a9.53 9.53 0 012.56-.32 9.09 9.09 0 013 .47c.66.24.86.55.84.64-.02.09-.27.49-1.16.75a9.66 9.66 0 01-2.57.32 9.09 9.09 0 01-3-.47c-.63-.24-.84-.52-.84-.63zm-5.05 2.6l4.44-.62v1.37c0 .56.51.92 1.22 1.19a9.27 9.27 0 003.27.52 10.54 10.54 0 002.58-.31v2.21c0 .56.5.91 1.22 1.2a9.51 9.51 0 003.26.5 9.77 9.77 0 002.73-.34c.94-.29 1.56-.66 1.6-1.3v-3.36a10.23 10.23 0 002.54-.3v2.23c0 .56.5.92 1.22 1.19a9.26 9.26 0 003.26.51 10.21 10.21 0 002.73-.34c.94-.28 1.56-.65 1.6-1.31v-1.54l5 2.72-23 3.22zm37.25 22.32c-.08.06-23.38 3.28-23.38 3.28v-17.6l23.38-3.28s-.01 17.49 0 17.6z" fill="#237dba"/><path d="M101.407 102.773c0-.56-.49-.91-1.22-1.2a9.54 9.54 0 00-3.26-.51 9.81 9.81 0 00-2.73.35c-.93.28-1.54.65-1.59 1.29v1.39l-5.41.76h-.11v18.26a.28.28 0 000 .13.13.13 0 000 .05l3.83 2.09 10.7 5.82h.13l24-3.36a.27.27 0 00.11 0v-18.14a.5.5 0 000-.12v-.06l-6-3.3v-1.14c0-.56-.5-.92-1.22-1.2a9.56 9.56 0 00-3.27-.51h-.72l-1.85-1v-.94c0-.56-.51-.91-1.22-1.2a9.85 9.85 0 00-3.27-.51 9.64 9.64 0 00-2.72.35c-.94.28-1.55.65-1.6 1.29v1.21l-2.55.36" fill="#33abe1"/><path d="M126.027 109.693a.5.5 0 000-.12v-.06l-6-3.3v-1.14c0-.56-.5-.92-1.22-1.2a9.56 9.56 0 00-3.27-.51h-.72l-1.85-1v.66l.83.46a7.34 7.34 0 00-.84.17v-2.23c0-.56-.51-.91-1.22-1.2a9.85 9.85 0 00-3.27-.51 9.64 9.64 0 00-2.72.35c-.94.28-1.55.65-1.6 1.29v1.21l-2.55.36v.6l2.54-.36v1.54a10.2 10.2 0 00-2.69.34h.14v-2.24c0-.56-.49-.91-1.22-1.2a9.54 9.54 0 00-3.26-.51 9.81 9.81 0 00-2.73.35c-.93.28-1.54.65-1.59 1.29v1.39l-5.41.76h-.11v18.26a.28.28 0 000 .13.13.13 0 000 .05l3.83 2.09 10.7 5.82h.13l24-3.36a.27.27 0 00.11 0v-18.17zm-10.69-5.8a9 9 0 013.05.46c.67.25.87.55.85.65-.02.1-.28.49-1.17.74a9.56 9.56 0 01-2.57.32 9 9 0 01-3-.47c-.64-.24-.85-.51-.85-.62 0-.12.29-.49 1.18-.73a9.13 9.13 0 012.51-.32zm-9.61-3.32a9.57 9.57 0 012.56-.33 9.09 9.09 0 013 .47c.67.26.87.56.84.65-.03.09-.28.5-1.17.74a9.53 9.53 0 01-2.56.32 8.61 8.61 0 01-3-.47c-.63-.23-.84-.52-.84-.63-.03-.13.28-.51 1.2-.75zm-4.3 5a10 10 0 012.56-.32 9 9 0 013 .47c.67.25.87.56.85.65-.02.09-.28.5-1.17.74a9.66 9.66 0 01-2.57.32 8.86 8.86 0 01-3.05-.46c-.63-.24-.84-.53-.83-.63.01-.1.31-.48 1.21-.73zm-8.23-2.89c0-.12.28-.5 1.17-.74a9.53 9.53 0 012.56-.32 9.37 9.37 0 013 .46c.66.25.86.56.84.65-.02.09-.27.49-1.16.74a9.27 9.27 0 01-2.57.32 9.37 9.37 0 01-3-.46c-.63-.24-.84-.52-.84-.63zm-5 2.61l4.44-.62v1.36c0 .56.51.91 1.22 1.19a9.28 9.28 0 003.27.51 10.08 10.08 0 002.58-.31v2.21c0 .56.5.92 1.22 1.21a9.51 9.51 0 003.26.5 10.21 10.21 0 002.73-.34c.94-.29 1.56-.66 1.6-1.31v-3.35a10.24 10.24 0 002.55-.31v2.24c0 .55.5.91 1.22 1.19a9.26 9.26 0 003.26.51 10.21 10.21 0 002.73-.34c.94-.29 1.55-.66 1.6-1.31v-1.55l5 2.72-23 3.23zm37.25 22.32c-.08.06-23.38 3.28-23.38 3.28v-17.61l23.38-3.28s-.06 17.54-.05 17.65z" fill="#237dba"/><path d="M101.407 84.493c0-.56-.49-.91-1.22-1.2a9.54 9.54 0 00-3.26-.51 9.81 9.81 0 00-2.73.35c-.93.28-1.54.65-1.59 1.29v1.39l-5.41.76a.23.23 0 00-.11 0v18.26a.28.28 0 000 .13.13.13 0 000 .05l3.83 2.09 10.7 5.82h.13l24-3.36h.11v-18.32a.5.5 0 000-.12v-.05l-6-3.29v-1.06c0-.56-.5-.92-1.22-1.2a9.56 9.56 0 00-3.27-.51h-.72l-1.85-1v-.94c0-.56-.51-.91-1.22-1.2a9.85 9.85 0 00-3.27-.51 10 10 0 00-2.72.34c-.94.29-1.55.66-1.6 1.3v1.2l-2.55.35" fill="#33abe1"/><path d="M126.027 91.413a.5.5 0 000-.12v-.05l-6-3.29v-1.23c0-.56-.5-.92-1.22-1.2a9.56 9.56 0 00-3.27-.51h-.72l-1.85-1v.66l.83.45q-.43.07-.84.18v-2.23c0-.56-.51-.91-1.22-1.2a9.85 9.85 0 00-3.27-.51 10 10 0 00-2.72.34c-.94.29-1.55.66-1.6 1.3v1.2l-2.55.35v.61l2.54-.36v1.54a10.2 10.2 0 00-2.69.34h.14v-2.24c0-.56-.49-.91-1.22-1.2a9.54 9.54 0 00-3.26-.51 9.81 9.81 0 00-2.73.35c-.93.28-1.54.65-1.59 1.29v1.39l-5.41.76a.23.23 0 00-.11 0v18.26a.28.28 0 000 .13.13.13 0 000 .05l3.83 2.09 10.7 5.82h.13l24-3.36h.11v-18.32zm-10.69-5.8a9 9 0 013.05.46c.67.25.87.55.85.65-.02.1-.28.49-1.17.74a9.56 9.56 0 01-2.57.32 9 9 0 01-3-.47c-.64-.24-.85-.52-.85-.62 0-.11.29-.49 1.18-.73a9.13 9.13 0 012.51-.35zm-9.61-3.33a10 10 0 012.56-.31 9.11 9.11 0 013 .46c.67.25.87.56.84.65-.03.09-.28.5-1.17.74a9.53 9.53 0 01-2.56.32 9.11 9.11 0 01-3-.46c-.63-.24-.84-.53-.84-.63-.03-.13.28-.52 1.2-.77zm-4.3 5.05a10 10 0 012.56-.32 9 9 0 013 .47c.67.25.87.56.85.65-.02.09-.28.5-1.17.74a9.66 9.66 0 01-2.57.32 8.85 8.85 0 01-3.05-.47c-.63-.23-.84-.52-.83-.63.01-.17.31-.51 1.21-.76zm-8.23-2.89c0-.11.28-.49 1.17-.73a9.53 9.53 0 012.56-.32 9.11 9.11 0 013 .46c.66.25.86.56.84.65-.02.09-.27.49-1.16.74a9.27 9.27 0 01-2.57.32 8.85 8.85 0 01-3-.47c-.63-.23-.84-.51-.84-.62zm-5 2.61l4.44-.62v1.36c0 .56.51.91 1.22 1.19a9.28 9.28 0 003.27.51 10.08 10.08 0 002.58-.31v2.21c0 .56.5.92 1.22 1.2a9.5 9.5 0 003.26.51 10.21 10.21 0 002.73-.34c.94-.29 1.56-.66 1.6-1.31v-3.35a10.74 10.74 0 002.55-.3v2.23c0 .56.5.92 1.22 1.2a9.5 9.5 0 003.26.51 10.21 10.21 0 002.73-.34c.94-.29 1.55-.66 1.6-1.31v-1.55l5 2.72-23 3.23zm37.25 22.32c-.08.05-23.38 3.28-23.38 3.28v-17.6l23.38-3.29s-.06 17.5-.05 17.61z" fill="#237dba"/><path d="M101.407 66.213c0-.56-.49-.91-1.22-1.2a9.54 9.54 0 00-3.26-.51 9.81 9.81 0 00-2.73.35c-.93.28-1.54.65-1.59 1.29v1.39l-5.41.76a.45.45 0 00-.11 0v18.26a.28.28 0 000 .13l3.83 2.09 10.7 5.82h.13l24-3.36a.27.27 0 00.11-.05v-18.27a.5.5 0 000-.12v-.05l-6-3.3v-1.14c0-.56-.5-.92-1.22-1.2a9.56 9.56 0 00-3.27-.51h-.72l-1.85-1v-.94c0-.56-.51-.91-1.22-1.2a9.85 9.85 0 00-3.27-.51 10 10 0 00-2.72.34c-.94.29-1.55.66-1.6 1.3v1.34l-2.55.35" fill="#33abe1"/><path d="M126.027 73.133a.5.5 0 000-.12v-.05l-6-3.3v-1.14c0-.56-.5-.92-1.22-1.2a9.56 9.56 0 00-3.27-.51h-.72l-1.85-1v.66l.83.45q-.43.07-.84.18v-2.23c0-.56-.51-.91-1.22-1.2a9.85 9.85 0 00-3.27-.51 10 10 0 00-2.72.34c-.94.29-1.55.66-1.6 1.3v1.12l-2.55.35v.65l2.54-.36v1.54a10.2 10.2 0 00-2.69.34h.14v-2.24c0-.56-.49-.91-1.22-1.2a9.54 9.54 0 00-3.26-.51 9.81 9.81 0 00-2.73.35c-.93.28-1.54.65-1.59 1.29v1.39l-5.41.76a.45.45 0 00-.11 0v18.26a.28.28 0 000 .13l3.83 2.09 10.7 5.82h.13l24-3.36a.27.27 0 00.11-.05v-18.27zm-10.69-5.8a9 9 0 013.05.46c.67.25.87.55.85.65-.02.1-.28.49-1.17.74a9.56 9.56 0 01-2.57.32 9 9 0 01-3-.47c-.64-.24-.85-.52-.85-.62 0-.11.29-.49 1.18-.73a9.13 9.13 0 012.51-.35zm-9.61-3.32a9.57 9.57 0 012.56-.33 9.09 9.09 0 013 .47c.67.25.87.56.84.65-.03.09-.28.5-1.17.74a9.53 9.53 0 01-2.56.32 9.11 9.11 0 01-3-.46c-.63-.24-.84-.53-.84-.63-.03-.14.28-.52 1.2-.76zm-4.3 5a10 10 0 012.56-.32 9 9 0 013 .47c.67.25.87.56.85.65-.02.09-.28.49-1.17.74a9.66 9.66 0 01-2.57.32 9.11 9.11 0 01-3.05-.46c-.63-.24-.84-.53-.83-.63.01-.1.31-.48 1.21-.73zm-8.23-2.89c0-.12.28-.5 1.17-.74a9.53 9.53 0 012.56-.32 9.11 9.11 0 013 .46c.66.25.86.55.84.65-.02.1-.27.49-1.16.74a9.27 9.27 0 01-2.57.32 8.85 8.85 0 01-3-.47c-.63-.23-.84-.51-.84-.62zm-5 2.61l4.44-.63v1.37c0 .56.51.92 1.22 1.19a9.28 9.28 0 003.27.51 10.08 10.08 0 002.58-.31v2.21c0 .56.5.92 1.22 1.2a9.5 9.5 0 003.26.51 10.21 10.21 0 002.73-.34c.94-.29 1.56-.66 1.6-1.31v-3.35a9.79 9.79 0 002.55-.31v2.24c0 .55.5.91 1.22 1.19a9.5 9.5 0 003.26.51 10.21 10.21 0 002.73-.34c.94-.29 1.55-.66 1.6-1.31v-1.55l5 2.72-23 3.23zm37.25 22.32c-.08.05-23.38 3.28-23.38 3.28v-17.6l23.38-3.29s-.06 17.54-.05 17.65z" fill="#237dba"/><path d="M101.407 47.923c0-.56-.49-.91-1.22-1.2a9.54 9.54 0 00-3.26-.51 9.81 9.81 0 00-2.73.35c-.93.28-1.54.65-1.59 1.29v1.39l-5.41.76a.45.45 0 00-.11 0v18.31a.28.28 0 000 .13l3.83 2.09 10.7 5.82a.38.38 0 00.13 0l24-3.36h.11v-18.32a.5.5 0 000-.12v-.05l-6-3.3v-1.14c0-.56-.5-.92-1.22-1.2a9.56 9.56 0 00-3.27-.51h-.72l-1.85-1v-.94c0-.56-.51-.91-1.22-1.2a9.85 9.85 0 00-3.27-.51 10 10 0 00-2.72.34c-.94.29-1.55.66-1.6 1.3v1.21l-2.55.35" fill="#33abe1"/><path d="M126.027 54.853a.5.5 0 000-.12v-.05l-6-3.3v-1.14c0-.56-.5-.92-1.22-1.2a9.56 9.56 0 00-3.27-.51h-.72l-1.85-1v.66l.83.46a7.34 7.34 0 00-.84.17v-2.23c0-.56-.51-.91-1.22-1.2a9.85 9.85 0 00-3.27-.51 10 10 0 00-2.72.34c-.94.29-1.55.66-1.6 1.3v1.21l-2.55.35v.61l2.54-.36v1.54a10.2 10.2 0 00-2.69.34h.14v-2.29c0-.56-.49-.91-1.22-1.2a9.54 9.54 0 00-3.26-.51 9.81 9.81 0 00-2.73.35c-.93.28-1.54.65-1.59 1.29v1.39l-5.41.76a.45.45 0 00-.11 0v18.31a.28.28 0 000 .13l3.83 2.09 10.7 5.82a.38.38 0 00.13 0l24-3.36h.11v-18.32zm-10.69-5.8a9 9 0 013.05.46c.67.25.87.55.85.65-.02.1-.28.49-1.17.74a9.56 9.56 0 01-2.57.32 9 9 0 01-3-.47c-.64-.24-.85-.52-.85-.62 0-.11.29-.49 1.18-.73a9.13 9.13 0 012.51-.35zm-9.61-3.32a9.57 9.57 0 012.56-.33 9.09 9.09 0 013 .47c.67.25.87.56.84.65-.03.09-.28.5-1.17.74a9.53 9.53 0 01-2.56.32 9.11 9.11 0 01-3-.46c-.63-.24-.84-.53-.84-.64-.03-.13.28-.51 1.2-.75zm-4.3 5a10 10 0 012.56-.32 9 9 0 013 .47c.67.25.87.56.85.65-.02.09-.28.49-1.17.74a9.66 9.66 0 01-2.57.32 8.85 8.85 0 01-3.05-.47c-.63-.23-.84-.52-.83-.63.01-.09.31-.47 1.21-.72zm-8.23-2.89c0-.12.28-.5 1.17-.74a9.53 9.53 0 012.56-.32 9.37 9.37 0 013 .46c.66.25.86.55.84.65-.02.1-.27.49-1.16.74a9.27 9.27 0 01-2.57.32 8.85 8.85 0 01-3-.47c-.63-.23-.84-.51-.84-.62zm-5 2.61l4.44-.62v1.36c0 .56.51.91 1.22 1.19a9.28 9.28 0 003.27.51 10.08 10.08 0 002.58-.31v2.21c0 .56.5.92 1.22 1.2a9.5 9.5 0 003.26.51 10.21 10.21 0 002.73-.34c.94-.29 1.56-.66 1.6-1.31v-3.35a10.24 10.24 0 002.55-.31v2.24c0 .55.5.91 1.22 1.19a9.26 9.26 0 003.26.51 10.21 10.21 0 002.73-.34c.94-.29 1.55-.66 1.6-1.31v-1.55l5 2.72-23 3.23zm37.25 22.32c-.08.05-23.38 3.28-23.38 3.28v-17.6l23.38-3.29s-.06 17.54-.05 17.65z" fill="#237dba"/><path d="M101.407 29.653c0-.56-.49-.92-1.22-1.2a9.54 9.54 0 00-3.26-.51 9.81 9.81 0 00-2.73.35c-.93.28-1.54.65-1.59 1.29v1.39l-5.41.76a.23.23 0 00-.11 0v18.26a.28.28 0 000 .13l3.83 2.09 10.7 5.82a.38.38 0 00.13 0l24-3.36a.27.27 0 00.11-.05v-18.32a.5.5 0 000-.12v-.05l-6-3.29v-.92c0-.56-.5-.92-1.22-1.2a9.56 9.56 0 00-3.27-.51h-.72l-1.85-1v-.94c0-.56-.51-.91-1.22-1.2a9.85 9.85 0 00-3.27-.51 10 10 0 00-2.72.34c-.94.29-1.55.66-1.6 1.3v1.2l-2.55.35" fill="#33abe1"/><path d="M126.027 36.573a.5.5 0 000-.12v-.05l-6-3.29v-1.19c0-.56-.5-.92-1.22-1.2a9.56 9.56 0 00-3.27-.51h-.72l-1.85-1v.66l.83.46a7.34 7.34 0 00-.84.17v-2.23c0-.56-.51-.91-1.22-1.2a9.85 9.85 0 00-3.27-.51 10 10 0 00-2.72.34c-.94.29-1.55.66-1.6 1.3v1.2l-2.55.35v.61l2.54-.36v1.54a9.8 9.8 0 00-2.69.34h.14v-2.24c0-.56-.49-.92-1.22-1.2a9.54 9.54 0 00-3.26-.51 9.81 9.81 0 00-2.73.35c-.93.28-1.54.65-1.59 1.29v1.39l-5.41.76a.23.23 0 00-.11 0v18.26a.28.28 0 000 .13l3.83 2.09 10.7 5.82h.13l24-3.36a.27.27 0 00.11-.05v-18.32zm-10.69-5.8a9 9 0 013.05.46c.67.25.87.55.85.65-.02.1-.28.49-1.17.74a9.56 9.56 0 01-2.57.32 9 9 0 01-3-.47c-.64-.24-.85-.52-.85-.62 0-.11.29-.49 1.18-.73a9.13 9.13 0 012.51-.35zm-9.61-3.33a10 10 0 012.56-.31 9.11 9.11 0 013 .46c.67.25.87.56.84.65-.03.09-.28.49-1.17.74a9.53 9.53 0 01-2.56.32 8.85 8.85 0 01-3-.47c-.63-.23-.84-.52-.84-.62-.03-.14.28-.52 1.2-.77zm-4.3 5.05a10 10 0 012.56-.32 9 9 0 013 .47c.67.25.87.56.85.65-.02.09-.28.5-1.17.74a9.66 9.66 0 01-2.57.32 8.85 8.85 0 01-3.05-.47c-.63-.23-.84-.52-.83-.62.01-.14.31-.52 1.21-.77zm-8.23-2.89c0-.12.28-.5 1.17-.74a9.53 9.53 0 012.56-.32 9.11 9.11 0 013 .46c.66.25.86.55.84.65-.02.1-.27.49-1.16.74a9.66 9.66 0 01-2.57.32 8.85 8.85 0 01-3-.47c-.63-.23-.84-.51-.84-.62zm-5 2.61l4.44-.62v1.33c0 .56.51.91 1.22 1.19a9.28 9.28 0 003.27.51 10.08 10.08 0 002.58-.31v2.21c0 .56.5.92 1.22 1.2a9.5 9.5 0 003.26.51 10.21 10.21 0 002.73-.34c.94-.29 1.56-.66 1.6-1.31v-3.35a10.24 10.24 0 002.55-.31v2.24c0 .55.5.91 1.22 1.19a9.26 9.26 0 003.26.51 10.21 10.21 0 002.73-.34c.94-.29 1.55-.66 1.6-1.31v-1.55l5 2.72-23 3.23zm37.25 22.32c-.08.05-23.38 3.28-23.38 3.28v-17.6l23.38-3.29s-.06 17.5-.05 17.61z" fill="#237dba"/><path d="M101.407 11.373c0-.56-.49-.91-1.22-1.2a9.54 9.54 0 00-3.26-.51 9.81 9.81 0 00-2.73.35c-.93.28-1.54.65-1.59 1.29v1.39l-5.41.76a.23.23 0 00-.11 0v18.26a.28.28 0 000 .13l3.83 2.09 10.7 5.82a.38.38 0 00.13 0l24-3.36a.27.27 0 00.11-.05v-18.05a.5.5 0 000-.12v-.05l-6-3.29v-1.14c0-.56-.5-.92-1.22-1.2a9.56 9.56 0 00-3.27-.51h-.72l-1.85-1v-.94c0-.56-.51-.91-1.22-1.2a9.85 9.85 0 00-3.27-.51 10 10 0 00-2.72.34c-.94.29-1.55.66-1.6 1.3v1.2l-2.55.35" fill="#33abe1"/><path d="M126.027 18.293a.5.5 0 000-.12v-.05l-6-3.29v-1.14c0-.56-.5-.92-1.22-1.2a9.56 9.56 0 00-3.27-.51h-.72l-1.85-1v.66l.83.45q-.43.07-.84.18v-2.23c0-.56-.51-.91-1.22-1.2a9.85 9.85 0 00-3.27-.51 10 10 0 00-2.72.34c-.94.29-1.55.66-1.6 1.3v1.2l-2.55.35v.61l2.54-.36v1.54a10.2 10.2 0 00-2.69.34h.14v-2.24c0-.56-.49-.91-1.22-1.2a9.54 9.54 0 00-3.26-.51 9.81 9.81 0 00-2.73.35c-.93.28-1.54.65-1.59 1.29v1.39l-5.41.76a.23.23 0 00-.11 0v18.26a.28.28 0 000 .13l3.83 2.09 10.7 5.82a.38.38 0 00.13 0l24-3.36a.27.27 0 00.11-.05v-18.09zm-10.69-5.8a9 9 0 013.05.46c.67.25.87.55.85.65-.02.1-.28.49-1.17.74a9.56 9.56 0 01-2.57.32 9 9 0 01-3-.47c-.64-.24-.85-.52-.85-.62 0-.11.29-.49 1.18-.73a9.13 9.13 0 012.51-.35zm-9.61-3.33a10 10 0 012.56-.32 9.09 9.09 0 013 .47c.67.25.87.56.84.65-.03.09-.28.5-1.17.74a9.53 9.53 0 01-2.56.32 9.11 9.11 0 01-3-.46c-.63-.24-.84-.53-.84-.63-.03-.14.28-.52 1.2-.77zm-4.3 5.05a10 10 0 012.56-.32 9 9 0 013 .47c.67.25.87.56.85.65-.02.09-.28.5-1.17.74a9.66 9.66 0 01-2.57.32 8.85 8.85 0 01-3.05-.47c-.63-.23-.84-.52-.83-.63.01-.13.31-.51 1.21-.76zm-8.23-2.89c0-.12.28-.5 1.17-.74a9.53 9.53 0 012.56-.32 9.11 9.11 0 013 .46c.66.25.86.55.84.65-.02.1-.27.49-1.16.74a9.66 9.66 0 01-2.57.32 8.85 8.85 0 01-3-.47c-.63-.23-.84-.51-.84-.62zm-5 2.61l4.44-.63v1.37c0 .56.51.91 1.22 1.19a9.28 9.28 0 003.27.51 10.08 10.08 0 002.58-.31v2.21c0 .56.5.92 1.22 1.2a9.5 9.5 0 003.26.51 10.21 10.21 0 002.73-.34c.94-.29 1.56-.66 1.6-1.31v-3.35a9.79 9.79 0 002.55-.31v2.25c0 .55.5.91 1.22 1.19a9.5 9.5 0 003.26.51 9.81 9.81 0 002.73-.35c.94-.28 1.55-.65 1.6-1.3v-1.55l5 2.72-23 3.23zm37.25 22.32c-.08.05-23.38 3.28-23.38 3.28v-17.6l23.38-3.29s-.06 17.5-.05 17.61z" fill="#237dba"/><path d="M77.417 69.603c0-.56-.5-.91-1.22-1.2a9.55 9.55 0 00-3.26-.5 9.82 9.82 0 00-2.73.34c-.93.28-1.54.66-1.59 1.3v1.38l-5.41.76h-.11v18.32a.35.35 0 000 .14v.05l3.83 2.09 10.7 5.81h.13l24-3.37h.11v-18.26a.21.21 0 000-.12.1.1 0 000-.05l-6-3.29v-1.14c0-.56-.5-.92-1.22-1.2a9.55 9.55 0 00-3.26-.5h-.73l-1.85-1v-.94c0-.56-.51-.92-1.22-1.21a9.85 9.85 0 00-3.27-.51 10.07 10.07 0 00-2.72.35c-.94.28-1.56.65-1.6 1.29v1.19l-2.55.36" fill="#33abe1"/><path d="M102.037 76.523a.21.21 0 000-.12.1.1 0 000-.05l-6-3.29v-1.14c0-.56-.5-.92-1.22-1.2a9.55 9.55 0 00-3.26-.5h-.73l-1.85-1v.66l.83.46c-.29.05-.57.1-.84.17v-2.23c0-.56-.51-.92-1.22-1.21a9.85 9.85 0 00-3.27-.51 10.07 10.07 0 00-2.72.35c-.94.28-1.56.65-1.6 1.29v1.19l-2.55.36v.6l2.55-.36v1.53a9.85 9.85 0 00-2.69.34h.14v-2.23c0-.56-.5-.91-1.22-1.2a9.55 9.55 0 00-3.26-.5 9.82 9.82 0 00-2.73.34c-.93.28-1.54.66-1.59 1.3v1.35l-5.41.76h-.11v18.32a.35.35 0 000 .14v.05l3.83 2.09 10.7 5.81h.13l24-3.37h.11v-18.26zm-10.68-5.81a9 9 0 013 .46c.67.25.87.55.85.65-.02.1-.28.49-1.17.74a9.17 9.17 0 01-2.57.32 8.79 8.79 0 01-3-.47c-.64-.23-.85-.51-.85-.62 0-.12.29-.5 1.18-.74a9.53 9.53 0 012.56-.34zm-9.62-3.32a9.59 9.59 0 012.56-.32 9.09 9.09 0 013 .47c.67.25.87.55.84.65-.03.1-.28.49-1.17.74a9.55 9.55 0 01-2.56.31 8.86 8.86 0 01-3-.46c-.63-.24-.84-.52-.84-.63-.03-.14.28-.52 1.19-.76zm-4.3 5a9.48 9.48 0 012.56-.32 9 9 0 013 .47c.67.25.87.55.85.65-.02.1-.28.49-1.17.74a9.68 9.68 0 01-2.57.31 8.86 8.86 0 01-3.05-.46c-.63-.24-.84-.52-.83-.63.01-.09.32-.47 1.21-.71zm-8.23-2.89c0-.12.28-.49 1.17-.74a9.53 9.53 0 012.56-.32 9.37 9.37 0 013 .46c.66.26.86.56.84.65-.02.09-.27.5-1.16.75a9.66 9.66 0 01-2.57.32 9.05 9.05 0 01-3-.47c-.63-.24-.84-.52-.84-.63zm-5 2.61l4.44-.63v1.44c0 .56.51.92 1.23 1.2a9.42 9.42 0 003.26.51 10.54 10.54 0 002.58-.31v2.21c0 .56.5.91 1.22 1.2a9.51 9.51 0 003.26.5 9.77 9.77 0 002.73-.34c.94-.29 1.56-.66 1.6-1.3v-3.36a.09.09 0 000-.05 10.25 10.25 0 002.55-.3v2.23c0 .56.5.92 1.22 1.19a9.26 9.26 0 003.26.51 10.21 10.21 0 002.73-.34c.94-.28 1.55-.65 1.6-1.31v-1.54l5 2.71-23 3.24zm37.25 22.31c-.08.06-23.38 3.28-23.38 3.28v-17.6l23.38-3.29s-.06 17.55-.05 17.66z" fill="#237dba"/><path d="M53.447 72.973c0-.56-.49-.92-1.22-1.2a9.5 9.5 0 00-3.26-.51 9.86 9.86 0 00-2.73.35c-.93.28-1.54.65-1.59 1.29v1.38l-5.42.77a.23.23 0 00-.11 0v18.26a.31.31 0 000 .13v.05l3.83 2.09 10.7 5.82a.28.28 0 00.12 0l24-3.37a.21.21 0 00.11 0v-18.13a.5.5 0 000-.12v-.05l-6.05-3.3v-1.14c0-.55-.5-.91-1.22-1.19a9.56 9.56 0 00-3.27-.51h-.72l-1.85-1v-.93c0-.56-.51-.92-1.22-1.2a9.6 9.6 0 00-3.27-.51 10 10 0 00-2.72.34c-.94.29-1.55.66-1.6 1.3v1.2l-2.55.35" fill="#33abe1"/><path d="M78.067 79.923a.5.5 0 000-.12v-.05l-6.05-3.3v-1.14c0-.55-.5-.91-1.22-1.19a9.56 9.56 0 00-3.27-.51h-.72l-1.85-1v.67l.83.45q-.44.07-.84.18v-2.23c0-.56-.51-.92-1.22-1.2a9.6 9.6 0 00-3.27-.51 10 10 0 00-2.72.34c-.94.29-1.55.66-1.6 1.3v1.2l-2.55.35v.61l2.55-.36v1.52a9.85 9.85 0 00-2.69.34h.14v-2.24c0-.56-.49-.92-1.22-1.2a9.5 9.5 0 00-3.26-.51 9.86 9.86 0 00-2.73.35c-.93.28-1.54.65-1.59 1.29v1.38l-5.42.77a.23.23 0 00-.11 0v18.26a.31.31 0 000 .13v.05l3.83 2.09 10.7 5.82a.28.28 0 00.12 0l24-3.37a.21.21 0 00.11 0v-18.19zm-10.69-5.8a9 9 0 013.05.46c.67.25.87.55.85.64-.02.09-.28.5-1.17.75a9.53 9.53 0 01-2.56.32 9.05 9.05 0 01-3-.47c-.64-.24-.85-.52-.85-.62 0-.12.29-.49 1.18-.73a9.13 9.13 0 012.5-.38zm-9.61-3.33a10 10 0 012.56-.32 9.09 9.09 0 013 .47c.67.25.87.55.85.65-.02.1-.28.49-1.17.74a9.66 9.66 0 01-2.57.32 9.11 9.11 0 01-3-.46c-.63-.24-.84-.53-.84-.63-.03-.17.28-.55 1.16-.8zm-4.3 5.06a9.52 9.52 0 012.56-.33 9 9 0 013 .47c.67.25.87.55.85.65-.02.1-.28.49-1.17.74a9.66 9.66 0 01-2.57.32 8.85 8.85 0 01-3.05-.47c-.63-.23-.84-.52-.83-.63.01-.16.32-.54 1.21-.78zm-8.23-2.9c0-.11.29-.49 1.18-.73a10.33 10.33 0 015.6.14c.66.25.86.55.84.65-.02.1-.27.49-1.16.74a9.66 9.66 0 01-2.57.32 8.85 8.85 0 01-3-.47c-.63-.24-.84-.51-.84-.62zm-5 2.61l4.44-.63v1.37c0 .55.51.91 1.22 1.19a9.52 9.52 0 003.27.51 10.22 10.22 0 002.59-.31v2.21c0 .56.5.92 1.22 1.2a9.5 9.5 0 003.26.51 10.15 10.15 0 002.73-.34c.94-.29 1.56-.66 1.6-1.31v-3.35a10.22 10.22 0 002.54-.31v2.24c0 .55.5.91 1.22 1.19a9.5 9.5 0 003.26.51 9.93 9.93 0 002.74-.35c.93-.28 1.55-.65 1.59-1.3v-1.55l5 2.72-23 3.23zm37.25 22.32c-.08.06-23.38 3.28-23.38 3.28v-17.61l23.39-3.28s-.07 17.47-.06 17.58z" fill="#237dba"/><path d="M29.477 112.923c0-.56-.5-.92-1.23-1.2a9.5 9.5 0 00-3.26-.51 9.81 9.81 0 00-2.73.35c-.93.27-1.54.65-1.59 1.29v1.38l-5.42.77a.23.23 0 00-.11 0v18.32a.31.31 0 000 .13v.05l3.83 2.09 10.7 5.82a.28.28 0 00.12 0l24-3.37a.21.21 0 00.1 0v-18.24a.5.5 0 000-.12v-.05l-6.05-3.3v-1.21c0-.55-.5-.91-1.22-1.2a9.81 9.81 0 00-3.27-.5h-.72l-1.85-1v-.93c0-.56-.51-.92-1.22-1.2a9.6 9.6 0 00-3.27-.51 10.08 10.08 0 00-2.72.34c-.94.29-1.55.66-1.6 1.3v1.19l-2.55.36" fill="#33abe1"/><path d="M54.087 119.813a.5.5 0 000-.12v-.05l-6.05-3.3v-1.22c0-.55-.5-.91-1.22-1.2a9.81 9.81 0 00-3.27-.5h-.72l-1.85-1v.67l.83.45q-.44.08-.84.18v-2.23c0-.56-.51-.92-1.22-1.2a9.6 9.6 0 00-3.27-.51 10.08 10.08 0 00-2.72.34c-.94.29-1.55.66-1.6 1.3v1.19l-2.55.36v.6l2.55-.35v1.52a9.85 9.85 0 00-2.69.34h.14v-2.24c0-.56-.5-.92-1.23-1.2a9.5 9.5 0 00-3.26-.51 9.81 9.81 0 00-2.73.35c-.93.27-1.54.65-1.59 1.29v1.38l-5.42.77a.23.23 0 00-.11 0v18.32a.31.31 0 000 .13v.05l3.83 2.09 10.7 5.82a.28.28 0 00.12 0l24-3.37a.21.21 0 00.1 0v-18.16zm-10.69-5.81a9 9 0 013 .47c.67.25.87.55.85.64-.02.09-.28.5-1.17.75a9.53 9.53 0 01-2.56.32 9.05 9.05 0 01-3-.47c-.64-.24-.85-.52-.85-.62 0-.12.29-.49 1.18-.74a9.51 9.51 0 012.55-.35zm-9.61-3.32a10 10 0 012.56-.32 9.09 9.09 0 013.05.47c.67.25.87.55.85.65-.02.1-.28.49-1.17.74a9.66 9.66 0 01-2.57.32 8.85 8.85 0 01-3-.47c-.63-.23-.84-.52-.84-.63-.08-.13.23-.52 1.09-.76zm-4.3 5.05a10 10 0 012.56-.32 9 9 0 013 .47c.67.25.87.55.85.65-.02.1-.28.49-1.17.74a9.66 9.66 0 01-2.57.32 8.85 8.85 0 01-3-.47c-.63-.23-.84-.52-.83-.63-.04-.13.27-.51 1.16-.76zm-8.23-2.89c0-.11.28-.49 1.18-.73a10.33 10.33 0 015.6.14c.66.25.86.55.84.65-.02.1-.27.49-1.16.74a9.66 9.66 0 01-2.57.32 9.09 9.09 0 01-3.05-.47c-.63-.24-.84-.52-.84-.62zm-5 2.61l4.44-.63v1.37c0 .57.51.92 1.23 1.2a9.42 9.42 0 003.26.51 10.54 10.54 0 002.58-.31v2.21c0 .56.5.92 1.22 1.2a9.5 9.5 0 003.26.51 10.15 10.15 0 002.73-.34c.94-.29 1.56-.66 1.6-1.31v-3.35a10.22 10.22 0 002.54-.31v2.24c0 .55.5.91 1.22 1.19a9.5 9.5 0 003.26.51 9.93 9.93 0 002.74-.35c.93-.28 1.55-.65 1.59-1.31v-1.56l5 2.72-23 3.23zm37.25 22.32c-.08.06-23.38 3.28-23.38 3.28v-17.61l23.39-3.28s-.07 17.5-.06 17.61z" fill="#237dba"/><path d="M29.477 94.613c0-.56-.5-.92-1.23-1.2a9.5 9.5 0 00-3.26-.51 9.81 9.81 0 00-2.73.35c-.93.28-1.54.65-1.59 1.29v1.38l-5.42.75h-.11v18.32a.28.28 0 000 .13.1.1 0 000 .05l3.83 2.09 10.7 5.82a.28.28 0 00.12 0l24-3.37a.14.14 0 00.1 0v-18.31a.5.5 0 000-.12.1.1 0 000-.05l-6.05-3.29v-1.14c0-.56-.5-.92-1.22-1.21a9.57 9.57 0 00-3.27-.5h-.72l-1.85-1v-.93c0-.56-.51-.92-1.22-1.2a9.6 9.6 0 00-3.27-.51 10.08 10.08 0 00-2.72.34c-.94.29-1.55.66-1.6 1.3v1.2l-2.55.36" fill="#33abe1"/><path d="M54.087 101.533a.5.5 0 000-.12.1.1 0 000-.05l-6.05-3.29v-1.14c0-.56-.5-.92-1.22-1.21a9.57 9.57 0 00-3.27-.5h-.72l-1.85-1v.67l.83.45q-.44.07-.84.18v-2.23c0-.56-.51-.92-1.22-1.2a9.6 9.6 0 00-3.27-.51 10.08 10.08 0 00-2.72.34c-.94.29-1.55.66-1.6 1.3v1.2l-2.55.36v.59l2.55-.35v1.52a9.85 9.85 0 00-2.69.34h.14v-2.24c0-.56-.5-.92-1.23-1.2a9.5 9.5 0 00-3.26-.51 9.81 9.81 0 00-2.73.35c-.93.28-1.54.65-1.59 1.29v1.35l-5.42.75h-.11v18.32a.28.28 0 000 .13.1.1 0 000 .05l3.83 2.09 10.7 5.82a.28.28 0 00.12 0l24-3.37a.14.14 0 00.1 0v-.07a.2.2 0 000-.05v-18.19zm-10.69-5.81a9 9 0 013 .47c.67.24.87.55.85.65-.02.1-.28.49-1.17.74a9.53 9.53 0 01-2.56.32 9.05 9.05 0 01-3-.47c-.64-.24-.85-.52-.85-.62 0-.12.29-.49 1.18-.73a9.11 9.11 0 012.55-.36zm-9.61-3.32a9.59 9.59 0 012.56-.32 9.09 9.09 0 013.05.47c.67.25.87.55.85.65-.02.1-.28.49-1.17.74a9.66 9.66 0 01-2.57.32 8.85 8.85 0 01-3-.47c-.63-.24-.84-.52-.84-.63-.08-.13.23-.51 1.09-.76zm-4.3 5a10 10 0 012.56-.32 9 9 0 013 .47c.67.25.87.55.85.65-.02.1-.28.49-1.17.74a9.68 9.68 0 01-2.57.31 8.63 8.63 0 01-3-.46c-.63-.24-.84-.52-.83-.63-.04-.08.27-.46 1.16-.71zm-8.23-2.89c0-.11.28-.49 1.18-.73a10.33 10.33 0 015.6.14c.66.25.86.55.84.65-.02.1-.27.49-1.16.74a9.66 9.66 0 01-2.57.32 9.09 9.09 0 01-3.05-.47c-.63-.24-.84-.52-.84-.62zm-5 2.61l4.44-.62v1.42c0 .55.51.91 1.23 1.19a9.42 9.42 0 003.26.51 10.08 10.08 0 002.58-.31v2.21c0 .56.5.92 1.22 1.2a9.5 9.5 0 003.26.51 10.15 10.15 0 002.73-.34c.94-.29 1.56-.66 1.6-1.31v-3.4a10.22 10.22 0 002.54-.31v2.24c0 .56.5.92 1.22 1.2a9.5 9.5 0 003.26.51 9.93 9.93 0 002.74-.35c.93-.28 1.55-.65 1.59-1.3v-1.55l5 2.72-23 3.23zm37.25 22.32c-.08.05-23.38 3.27-23.38 3.27v-17.6l23.39-3.28s-.07 17.54-.06 17.66z" fill="#237dba"/><path d="M29.477 76.333c0-.56-.5-.92-1.23-1.2a9.5 9.5 0 00-3.26-.51 9.81 9.81 0 00-2.73.35c-.93.28-1.54.65-1.59 1.29v1.38l-5.42.76h-.11v18.32a.35.35 0 000 .13l3.83 2.09 10.7 5.82a.28.28 0 00.12 0l24-3.37a.14.14 0 00.1 0v-18.31a.5.5 0 000-.12v-.05l-6.05-3.29v-1.14c0-.55-.5-.91-1.22-1.2a9.57 9.57 0 00-3.27-.5h-.72l-1.85-1v-.86c0-.56-.51-.92-1.22-1.2a9.36 9.36 0 00-3.27-.51 10.08 10.08 0 00-2.72.34c-.94.29-1.55.66-1.6 1.3v1.2l-2.55.35" fill="#33abe1"/><path d="M54.087 83.253a.5.5 0 000-.12v-.05l-6.05-3.29v-1.14c0-.55-.5-.91-1.22-1.2a9.57 9.57 0 00-3.27-.5h-.72l-1.85-1v.67l.83.45q-.44.07-.84.18v-2.23c0-.56-.51-.92-1.22-1.2a9.36 9.36 0 00-3.27-.51 10.08 10.08 0 00-2.72.34c-.94.29-1.55.66-1.6 1.3v1.2l-2.55.35v.61l2.55-.36v1.52a10.26 10.26 0 00-2.69.34h.14v-2.24c0-.56-.5-.92-1.23-1.2a9.5 9.5 0 00-3.26-.51 9.81 9.81 0 00-2.73.35c-.93.28-1.54.65-1.59 1.29v1.38l-5.42.76h-.11v18.32a.35.35 0 000 .13l3.83 2.09 10.7 5.82a.28.28 0 00.12 0l24-3.37a.14.14 0 00.1 0v-18.31zm-10.69-5.81a9 9 0 013 .47c.67.25.87.55.85.64-.02.09-.28.5-1.17.75a9.53 9.53 0 01-2.56.32 9.05 9.05 0 01-3-.47c-.64-.24-.85-.52-.85-.62 0-.12.29-.49 1.18-.73a9.11 9.11 0 012.55-.36zm-9.64-3.32a10 10 0 012.56-.32 9.09 9.09 0 013.05.47c.67.25.87.55.85.65-.02.1-.28.49-1.17.74a9.66 9.66 0 01-2.57.32 8.85 8.85 0 01-3-.47c-.63-.24-.84-.52-.84-.63-.05-.13.26-.51 1.12-.76zm-4.3 5.05a9.53 9.53 0 012.56-.32 9 9 0 013 .47c.67.25.87.55.85.65-.02.1-.28.49-1.17.74a9.68 9.68 0 01-2.57.31 8.63 8.63 0 01-3-.46c-.63-.24-.84-.52-.83-.63-.01-.13.3-.51 1.19-.76zm-8.23-2.89c0-.11.28-.49 1.18-.73a10.33 10.33 0 015.6.14c.66.25.86.55.84.65-.02.1-.27.49-1.16.74a9.66 9.66 0 01-2.57.32 9.09 9.09 0 01-3.05-.47c-.63-.24-.84-.52-.84-.62zm-5 2.61l4.44-.63v1.37c0 .55.51.91 1.23 1.19a9.42 9.42 0 003.26.51 10.54 10.54 0 002.58-.31v2.21c0 .56.5.91 1.22 1.2a9.5 9.5 0 003.26.51 10.15 10.15 0 002.73-.34c.94-.29 1.56-.66 1.6-1.31v-3.37a10.71 10.71 0 002.54-.31v2.24c0 .56.5.92 1.22 1.2a9.5 9.5 0 003.26.51 10.33 10.33 0 002.74-.35c.93-.28 1.55-.65 1.59-1.3v-1.55l5 2.72-23 3.23zm37.25 22.32c-.08 0-23.38 3.28-23.38 3.28v-17.61l23.39-3.28s-.04 17.49-.03 17.61z" fill="#237dba"/><path d="M29.477 58.053c0-.56-.5-.92-1.23-1.2a9.5 9.5 0 00-3.26-.51 9.81 9.81 0 00-2.73.35c-.93.28-1.54.65-1.59 1.29v1.38l-5.42.77a.23.23 0 00-.11 0v18.31a.31.31 0 000 .13l3.83 2.09 10.7 5.82a.28.28 0 00.12 0l24-3.37a.21.21 0 00.1 0v-18.31a.5.5 0 000-.12v-.05l-6.05-3.29v-1.14c0-.55-.5-.91-1.22-1.19a9.56 9.56 0 00-3.27-.51h-.72l-1.85-1v-.93c0-.56-.51-.92-1.22-1.2a9.36 9.36 0 00-3.27-.51 10.08 10.08 0 00-2.72.34c-.94.29-1.55.66-1.6 1.3v1.2l-2.55.35" fill="#33abe1"/><path d="M54.087 64.973a.5.5 0 000-.12v-.05l-6.05-3.29v-1.14c0-.55-.5-.91-1.22-1.19a9.56 9.56 0 00-3.27-.51h-.72l-1.85-1v.67l.83.45q-.44.08-.84.18v-2.23c0-.56-.51-.92-1.22-1.2a9.36 9.36 0 00-3.27-.51 10.08 10.08 0 00-2.72.34c-.94.29-1.55.66-1.6 1.3v1.2l-2.55.35v.61l2.55-.36v1.45a10.26 10.26 0 00-2.69.34h.14v-2.24c0-.56-.5-.92-1.23-1.2a9.5 9.5 0 00-3.26-.51 9.81 9.81 0 00-2.73.35c-.93.28-1.54.65-1.59 1.29v1.38l-5.42.77a.23.23 0 00-.11 0v18.31a.31.31 0 000 .13l3.83 2.09 10.7 5.82a.28.28 0 00.12 0l24-3.37a.21.21 0 00.1 0v-18.31zm-10.69-5.81a9 9 0 013 .47c.67.25.87.55.85.64-.02.09-.28.5-1.17.75a9.53 9.53 0 01-2.56.32 9.05 9.05 0 01-3-.47c-.64-.24-.85-.52-.85-.62 0-.12.29-.49 1.18-.73a9.11 9.11 0 012.55-.36zm-9.61-3.32a9.59 9.59 0 012.56-.32 9.09 9.09 0 013.05.47c.67.25.87.55.85.65-.02.1-.28.49-1.17.74a9.66 9.66 0 01-2.57.32 8.85 8.85 0 01-3-.47c-.63-.23-.84-.52-.84-.63-.08-.13.23-.51 1.09-.76zm-4.3 5.05a9.53 9.53 0 012.56-.32 9 9 0 013 .47c.67.25.87.55.85.65-.02.1-.28.49-1.17.74a9.66 9.66 0 01-2.57.32 8.85 8.85 0 01-3-.47c-.63-.23-.84-.52-.83-.63-.04-.13.27-.51 1.16-.73zm-8.23-2.89c0-.12.28-.49 1.18-.73a10.08 10.08 0 015.6.14c.66.25.86.55.84.65-.02.1-.27.49-1.16.74a9.66 9.66 0 01-2.57.32 9.09 9.09 0 01-3.05-.47c-.63-.24-.84-.52-.84-.62zm-5 2.61l4.44-.63v1.37c0 .57.51.92 1.23 1.2a9.42 9.42 0 003.26.51 10.54 10.54 0 002.58-.31v2.17c0 .56.5.92 1.22 1.2a9.5 9.5 0 003.26.51 10.15 10.15 0 002.73-.34c.94-.29 1.56-.66 1.6-1.31v-3.36a10.22 10.22 0 002.54-.31v2.24c0 .56.5.92 1.22 1.2a9.5 9.5 0 003.26.51 9.93 9.93 0 002.74-.35c.93-.28 1.55-.65 1.59-1.3v-1.55l5 2.72-23 3.23zm37.2 22.31c-.08.05-23.38 3.27-23.38 3.27v-17.6l23.39-3.28s-.02 17.5-.01 17.61z" fill="#237dba"/><path d="M29.477 39.773c0-.56-.5-.92-1.23-1.21a10.85 10.85 0 00-6-.15c-.93.28-1.54.65-1.59 1.29v1.38l-5.42.76h-.11v18.32a.31.31 0 000 .13l3.83 2.09 10.7 5.81a.28.28 0 00.12 0l24-3.37a.14.14 0 00.1 0v-18.28a.5.5 0 000-.12.1.1 0 000-.05l-6.05-3.29v-1.14c0-.55-.5-.91-1.22-1.2a9.81 9.81 0 00-3.27-.5h-.72l-1.85-1v-.93c0-.56-.51-.92-1.22-1.2a9.36 9.36 0 00-3.27-.51 10.08 10.08 0 00-2.72.34c-.94.29-1.55.66-1.6 1.3v1.19l-2.55.36" fill="#33abe1"/><path d="M54.087 46.693a.5.5 0 000-.12.1.1 0 000-.05l-6.05-3.29v-1.14c0-.55-.5-.91-1.22-1.2a9.81 9.81 0 00-3.27-.5h-.72l-1.85-1v.67l.83.45q-.44.08-.84.18v-2.23c0-.56-.51-.92-1.22-1.2a9.36 9.36 0 00-3.27-.51 10.08 10.08 0 00-2.72.34c-.94.29-1.55.66-1.6 1.3v1.19l-2.55.36v.6l2.55-.35v1.52a9.85 9.85 0 00-2.69.34h.14v-2.24c0-.56-.5-.92-1.23-1.21a10.85 10.85 0 00-6-.15c-.93.28-1.54.65-1.59 1.29v1.38l-5.42.76h-.11v18.32a.31.31 0 000 .13l3.83 2.09 10.7 5.81a.28.28 0 00.12 0l24-3.37a.14.14 0 00.1 0v-18.32zm-10.69-5.77a9 9 0 013 .47c.67.24.87.55.85.64-.02.09-.28.5-1.17.75a9.53 9.53 0 01-2.56.32 9.05 9.05 0 01-3-.47c-.64-.24-.85-.52-.85-.62 0-.12.29-.49 1.18-.74a9.51 9.51 0 012.55-.35zm-9.61-3.32a9.59 9.59 0 012.56-.32 9.09 9.09 0 013.05.47c.67.25.87.55.85.65-.02.1-.28.49-1.17.74a9.66 9.66 0 01-2.57.32 8.85 8.85 0 01-3-.47c-.63-.24-.84-.52-.84-.63-.08-.17.23-.55 1.09-.8zm-4.3 5.05a9.53 9.53 0 012.56-.32 9 9 0 013 .47c.67.25.87.55.85.65-.02.1-.28.49-1.17.74a9.66 9.66 0 01-2.57.32 9.09 9.09 0 01-3-.47c-.63-.24-.84-.52-.83-.63-.04-.17.27-.55 1.16-.8zm-8.23-2.89c0-.12.28-.49 1.18-.73a10.33 10.33 0 015.6.14c.66.25.86.55.84.65-.02.1-.27.49-1.16.74a9.66 9.66 0 01-2.57.32 9.09 9.09 0 01-3.05-.47c-.63-.24-.84-.52-.84-.62zm-5 2.61l4.44-.62v1.36c0 .56.51.92 1.23 1.2a9.42 9.42 0 003.26.51 10.54 10.54 0 002.58-.31v2.21c0 .56.5.91 1.22 1.2a9.5 9.5 0 003.26.51 10.15 10.15 0 002.73-.34c.94-.29 1.56-.66 1.6-1.31v-3.41a10.23 10.23 0 002.54-.3v2.24c0 .56.5.92 1.22 1.2a9.5 9.5 0 003.26.51 9.93 9.93 0 002.74-.35c.93-.28 1.55-.65 1.59-1.3v-1.55l5 2.72-23 3.23zm37.25 22.32c-.08 0-23.38 3.27-23.38 3.27v-17.6l23.39-3.28s-.07 17.45-.06 17.57z" fill="#237dba"/><path d="M29.477 21.493c0-.56-.5-.92-1.23-1.21a10.85 10.85 0 00-6-.15c-.93.28-1.54.65-1.59 1.29v1.38l-5.42.76h-.11v18.32a.28.28 0 000 .13.1.1 0 000 .05l3.83 2.09 10.7 5.81a.28.28 0 00.12 0l24-3.37a.14.14 0 00.1 0v-18.27a.5.5 0 000-.12v-.05l-6.05-3.29v-1.14c0-.55-.5-.91-1.22-1.2a9.57 9.57 0 00-3.27-.5h-.72l-1.85-1v-.93c0-.56-.51-.92-1.22-1.2a9.36 9.36 0 00-3.27-.51 10.08 10.08 0 00-2.72.34c-.94.29-1.55.66-1.6 1.3v1.2l-2.55.35" fill="#33abe1"/><path d="M54.087 28.413a.5.5 0 000-.12v-.05l-6.05-3.29v-1.23c0-.55-.5-.91-1.22-1.2a9.57 9.57 0 00-3.27-.5h-.72l-1.85-1v.67l.83.45q-.44.07-.84.18v-2.23c0-.56-.51-.92-1.22-1.2a9.36 9.36 0 00-3.27-.51 10.08 10.08 0 00-2.72.34c-.94.29-1.55.66-1.6 1.3v1.2l-2.55.35v.6l2.55-.35v1.52a9.85 9.85 0 00-2.69.34h.14v-2.24c0-.56-.5-.92-1.23-1.21a10.85 10.85 0 00-6-.15c-.93.28-1.54.65-1.59 1.29v1.38l-5.42.76h-.11v18.32a.28.28 0 000 .13.1.1 0 000 .05l3.83 2.09 10.7 5.81a.28.28 0 00.12 0l24-3.37a.14.14 0 00.1 0v-18.31zm-10.69-5.81a9 9 0 013 .47c.67.24.87.55.85.64-.02.09-.28.5-1.17.75a9.53 9.53 0 01-2.56.32 9.05 9.05 0 01-3-.47c-.64-.24-.85-.52-.85-.62 0-.12.29-.49 1.18-.74a9.51 9.51 0 012.55-.35zm-9.61-3.32a9.59 9.59 0 012.56-.32 9.09 9.09 0 013.05.47c.67.25.87.55.85.65-.02.1-.28.49-1.17.74a9.66 9.66 0 01-2.57.32 8.85 8.85 0 01-3-.47c-.63-.24-.84-.52-.84-.63-.08-.12.23-.51 1.09-.76zm-4.3 5.05a9.53 9.53 0 012.56-.32 9 9 0 013 .47c.67.25.87.55.85.65-.02.1-.28.49-1.17.74a9.68 9.68 0 01-2.57.31 8.63 8.63 0 01-3-.46c-.63-.24-.84-.52-.83-.63-.04-.17.27-.51 1.16-.76zm-8.23-2.89c0-.11.28-.49 1.18-.73a10.33 10.33 0 015.6.14c.66.25.86.55.84.65-.02.1-.27.49-1.16.74a9.66 9.66 0 01-2.57.32 9.09 9.09 0 01-3.05-.47c-.63-.24-.84-.52-.84-.62zm-5 2.61l4.44-.62v1.36c0 .56.51.92 1.23 1.2a9.42 9.42 0 003.26.51 10.08 10.08 0 002.58-.31v2.21c0 .56.5.91 1.22 1.2a9.5 9.5 0 003.26.51 10.15 10.15 0 002.73-.34c.94-.29 1.56-.66 1.6-1.31v-3.35a10.71 10.71 0 002.54-.31v2.24c0 .56.5.92 1.22 1.2a9.5 9.5 0 003.26.51 10.76 10.76 0 002.74-.34c.93-.29 1.55-.66 1.59-1.31v-1.55l5 2.72-23 3.23zm37.25 22.32c-.08.05-23.38 3.27-23.38 3.27v-17.6l23.39-3.28s-.07 17.49-.06 17.61z" fill="#237dba"/></svg>