<svg xmlns="http://www.w3.org/2000/svg" viewBox="0 0 102.026 137.959"><path d="M62.298 94.482c0-.56-.5-.91-1.22-1.2a9.56 9.56 0 00-3.27-.51 9.74 9.74 0 00-2.72.35c-.94.28-1.55.66-1.6 1.3v1.39l-5.42.76h-.11a.19.19 0 000 .07v18.21a.27.27 0 000 .13l3.83 2.09 10.7 5.82h.13l24-3.37h.11v-.05a.14.14 0 000-.06v-18.21a.2.2 0 000-.11v-.05l-6-3.29v-1.14c0-.56-.49-.91-1.22-1.2a9.54 9.54 0 00-3.26-.51h-.73l-1.85-1v-.78c0-.56-.5-.91-1.22-1.2a9.85 9.85 0 00-3.27-.51 9.64 9.64 0 00-2.72.35c-.94.28-1.55.65-1.6 1.29v1.21l-2.55.36" fill="#eb5859"/><path d="M86.928 101.392a.2.2 0 000-.11v-.05l-6-3.29v-1.14c0-.56-.49-.91-1.22-1.2a9.54 9.54 0 00-3.26-.51h-.73l-1.85-1v.66l.84.46c-.3.05-.58.1-.85.17v-2.23c0-.56-.5-.91-1.22-1.2a9.85 9.85 0 00-3.27-.51 9.64 9.64 0 00-2.72.35c-.94.28-1.55.65-1.6 1.29v1.21l-2.55.36v.6l2.54-.36v1.55a10.19 10.19 0 00-2.69.35h.14v-2.23c0-.56-.5-.91-1.22-1.2a9.56 9.56 0 00-3.27-.51 9.74 9.74 0 00-2.72.35c-.94.28-1.55.66-1.6 1.3v1.39l-5.42.76h-.11a.19.19 0 000 .07v18.21a.27.27 0 000 .13l3.83 2.09 10.7 5.82h.13l24-3.37h.11v-.05a.14.14 0 000-.06v-18.21zm-10.69-5.8a9.37 9.37 0 013 .46c.66.25.86.56.84.65-.02.09-.27.49-1.16.74a9.26 9.26 0 01-2.57.33 8.79 8.79 0 01-3.05-.48c-.64-.23-.85-.52-.85-.62 0-.12.29-.5 1.18-.74a9.15 9.15 0 012.61-.34zm-9.62-3.32a9.57 9.57 0 012.56-.33 8.83 8.83 0 013 .48c.67.24.87.55.85.64-.02.09-.28.5-1.17.75a10.11 10.11 0 01-2.57.31 8.86 8.86 0 01-3-.46c-.63-.24-.84-.53-.84-.64-.03-.13.28-.51 1.17-.75zm-4.31 5.05a9.66 9.66 0 012.57-.32 8.83 8.83 0 013 .47c.67.24.87.55.85.64-.02.09-.28.5-1.17.75a9.68 9.68 0 01-2.57.31 8.86 8.86 0 01-3-.46c-.63-.24-.84-.53-.84-.63-.04-.14.27-.52 1.16-.76zm-8.23-2.9c0-.12.29-.5 1.18-.74a9.51 9.51 0 012.55-.32 9 9 0 013.05.46c.67.25.87.55.85.65-.02.1-.28.5-1.17.74a9.17 9.17 0 01-2.57.32 9 9 0 01-3-.46c-.64-.24-.85-.52-.85-.63zm-5 2.61l4.45-.62v1.37c0 .56.5.92 1.22 1.2a9.5 9.5 0 003.26.51 10.57 10.57 0 002.59-.31v2.21c0 .56.5.91 1.22 1.2a9.61 9.61 0 003.27.5 10.22 10.22 0 002.73-.33c.94-.3 1.56-.67 1.6-1.31v-3.36a10.23 10.23 0 002.54-.3v2.23c0 .56.5.92 1.22 1.2a9.5 9.5 0 003.26.51 10.22 10.22 0 002.74-.35c.93-.29 1.55-.65 1.59-1.31v-1.55l5 2.71-23 3.24zm37.27 22.33c-.09.06-23.39 3.28-23.39 3.28v-17.61l23.39-3.28s-.06 17.5-.05 17.61z" fill="#c91a20"/><path d="M62.298 3.042c0-.56-.5-.92-1.22-1.21a10.85 10.85 0 00-6-.15c-.94.27-1.55.65-1.6 1.29v1.38l-5.42.76h-.11a.14.14 0 000 .06v18.2a.34.34 0 000 .14v.05l3.83 2.09 10.7 5.81a.38.38 0 00.13 0l24-3.37a.25.25 0 00.11 0 .14.14 0 000-.07V9.992a.27.27 0 000-.12.1.1 0 010-.05l-6-3.3v-1.14c0-.55-.49-.91-1.22-1.2a9.55 9.55 0 00-3.26-.5h-.73l-1.85-1v-.94c0-.56-.5-.92-1.22-1.2a9.36 9.36 0 00-3.27-.51 10 10 0 00-2.72.34c-.94.29-1.55.65-1.6 1.3v1.19l-2.55.36" fill="#eb5859"/><path d="M86.928 9.962a.27.27 0 000-.12.1.1 0 010-.05l-6-3.3v-1.14c0-.55-.49-.91-1.22-1.2a9.55 9.55 0 00-3.26-.5h-.73l-1.85-1v.67l.84.45c-.3.05-.58.11-.85.18v-2.24c0-.56-.5-.92-1.22-1.2a9.36 9.36 0 00-3.27-.51 10 10 0 00-2.72.34c-.94.29-1.55.65-1.6 1.3v1.19l-2.55.36v.6l2.54-.35v1.54a9.8 9.8 0 00-2.69.34h.14v-2.24c0-.56-.5-.92-1.22-1.21a10.85 10.85 0 00-6-.15c-.94.27-1.55.65-1.6 1.29v1.38l-5.42.76h-.11a.14.14 0 000 .06v18.2a.34.34 0 000 .14v.05l3.83 2.09 10.7 5.81a.38.38 0 00.13 0l24-3.37a.25.25 0 00.11 0 .14.14 0 000-.07.43.43 0 000-.05V9.992zm-10.69-5.84a9.09 9.09 0 013 .47c.66.24.86.55.84.64-.02.09-.27.5-1.16.75a9.66 9.66 0 01-2.57.32 9.05 9.05 0 01-3.05-.47c-.64-.24-.85-.52-.85-.62 0-.12.29-.49 1.18-.74a9.53 9.53 0 012.61-.35zm-9.62-3.32a9.59 9.59 0 012.56-.32 9.09 9.09 0 013 .47c.67.25.87.55.85.65-.02.1-.28.49-1.17.74a9.68 9.68 0 01-2.57.31 8.86 8.86 0 01-3-.46c-.63-.24-.84-.52-.84-.63-.03-.11.28-.44 1.17-.73zm-4.31 5.05a9.66 9.66 0 012.57-.32 9.07 9.07 0 013 .47c.67.25.87.55.85.65-.02.1-.28.49-1.17.74a9.66 9.66 0 01-2.57.32 9.09 9.09 0 01-3-.47c-.63-.24-.84-.52-.84-.63-.04-.1.27-.49 1.16-.73zm-8.23-2.89c0-.12.29-.49 1.18-.73a9.11 9.11 0 012.55-.33 9 9 0 013.05.47c.67.25.87.55.85.65-.02.1-.28.49-1.17.74a9.56 9.56 0 01-2.57.32 9 9 0 01-3-.47c-.64-.24-.85-.52-.85-.62zm-5 2.61l4.45-.63v1.37c0 .55.5.91 1.22 1.19a9.5 9.5 0 003.26.51 10.11 10.11 0 002.59-.31v2.21c0 .56.5.92 1.22 1.2a9.6 9.6 0 003.27.51 10.21 10.21 0 002.73-.34c.94-.29 1.56-.66 1.6-1.31v-3.41a9.78 9.78 0 002.54-.3v2.24c0 .56.5.92 1.22 1.2a9.5 9.5 0 003.26.51 10.23 10.23 0 002.74-.34c.93-.29 1.55-.66 1.59-1.31v-1.44l5 2.72-23 3.23zm37.27 22.33c-.09.05-23.39 3.28-23.39 3.28v-17.61l23.39-3.29s-.06 17.53-.05 17.65z" fill="#c91a20"/><path d="M38.318 97.852c0-.56-.5-.92-1.22-1.2a9.54 9.54 0 00-3.26-.51 9.76 9.76 0 00-2.73.35c-.94.28-1.55.65-1.59 1.29v1.38l-5.42.77h-.11v18.27a.32.32 0 000 .13.1.1 0 000 .05l3.83 2.09 10.71 5.82a.28.28 0 00.12 0l24-3.38a.17.17 0 00.11 0v-18.28a.27.27 0 000-.12v-.05l-6-3.3v-1.04c0-.55-.5-.91-1.23-1.2a9.51 9.51 0 00-3.26-.5h-.72l-1.85-1v-.94c0-.56-.5-.92-1.22-1.2a9.34 9.34 0 00-3.26-.51 10.1 10.1 0 00-2.73.34c-.94.29-1.55.66-1.6 1.29v1.2l-2.55.35" fill="#eb5859"/><path d="M62.948 104.772a.27.27 0 000-.12v-.05l-6-3.3v-1.18c0-.55-.5-.91-1.23-1.2a9.51 9.51 0 00-3.26-.5h-.72l-1.85-1v.67l.84.45q-.45.08-.84.18v-2.24c0-.56-.5-.92-1.22-1.2a9.34 9.34 0 00-3.26-.51 10.1 10.1 0 00-2.73.34c-.94.29-1.55.66-1.6 1.29v1.2l-2.55.35v.61l2.55-.36v1.52a9.85 9.85 0 00-2.69.34h.14v-2.24c0-.56-.5-.92-1.22-1.2a9.54 9.54 0 00-3.26-.51 9.76 9.76 0 00-2.73.35c-.94.28-1.55.65-1.59 1.29v1.38l-5.42.77h-.11v18.27a.32.32 0 000 .13.1.1 0 000 .05l3.83 2.09 10.71 5.82a.28.28 0 00.12 0l24-3.38a.17.17 0 00.11 0v-18.28zm-10.69-5.81a9.05 9.05 0 013 .47c.66.25.87.55.84.64-.03.09-.27.5-1.16.75a9.66 9.66 0 01-2.57.32 9.09 9.09 0 01-3-.47c-.64-.24-.84-.52-.84-.62 0-.12.28-.49 1.18-.73a9 9 0 012.55-.36zm-9.62-3.32a10 10 0 012.57-.32 9 9 0 013 .47c.67.25.87.55.85.65-.02.1-.28.49-1.17.74a9.66 9.66 0 01-2.57.32 8.85 8.85 0 01-3.05-.47c-.63-.24-.84-.52-.84-.63.01-.13.3-.51 1.21-.76zm-4.3 5.05a9.53 9.53 0 012.56-.32 9 9 0 013 .47c.67.25.87.55.85.65-.02.1-.28.49-1.17.74a9.66 9.66 0 01-2.57.32 8.85 8.85 0 01-3-.47c-.63-.23-.84-.52-.84-.63-.03-.13.27-.51 1.17-.76zm-8.24-2.89c0-.12.29-.49 1.18-.73a10.11 10.11 0 015.61.14c.66.25.86.55.84.65-.02.1-.28.49-1.17.74a9.15 9.15 0 01-2.56.32 9.05 9.05 0 01-3-.47c-.64-.24-.85-.52-.85-.62zm-5 2.61l4.44-.62v1.33c0 .56.5.91 1.22 1.19a9.5 9.5 0 003.26.51 10.11 10.11 0 002.59-.31v2.21c0 .56.49.92 1.22 1.2a9.5 9.5 0 003.26.51 10.15 10.15 0 002.64-.31c.94-.29 1.56-.66 1.6-1.31v-3.35a10.79 10.79 0 002.55-.31v2.21c0 .56.5.92 1.22 1.2a9.52 9.52 0 003.27.51 10.21 10.21 0 002.73-.34c.93-.29 1.55-.66 1.59-1.31v-1.92.37l5 2.72-23 3.23zm37.26 22.33c-.08.05-23.39 3.28-23.39 3.28v-17.61l23.39-3.29s-.05 17.5-.04 17.62z" fill="#c91a20"/><path d="M38.318 79.562c0-.56-.5-.91-1.22-1.2a9.54 9.54 0 00-3.26-.51 9.76 9.76 0 00-2.73.35c-.94.28-1.55.65-1.59 1.29v1.39l-5.42.76h-.11v18.32a.27.27 0 000 .13l3.83 2.09 10.71 5.82a.27.27 0 00.12 0l24-3.36a.27.27 0 00.11-.05v-18.28a.21.21 0 000-.12v-.06l-6-3.3v-1.13c0-.56-.5-.92-1.23-1.2a9.5 9.5 0 00-3.26-.51h-.72l-1.85-1v-.87c0-.56-.5-.91-1.22-1.2a9.83 9.83 0 00-3.26-.51 10.1 10.1 0 00-2.73.34c-.94.29-1.55.66-1.6 1.3v1.19l-2.55.37" fill="#eb5859"/><path d="M62.948 86.492a.21.21 0 000-.12v-.06l-6-3.3v-1.13c0-.56-.5-.92-1.23-1.2a9.5 9.5 0 00-3.26-.51h-.72l-1.85-1v.66l.84.46a6.56 6.56 0 00-.84.17v-2.34c0-.56-.5-.91-1.22-1.2a9.83 9.83 0 00-3.26-.51 10.1 10.1 0 00-2.73.34c-.94.29-1.55.66-1.6 1.3v1.19l-2.55.37v.6l2.55-.36v1.53a9.84 9.84 0 00-2.69.35h.14v-2.24c0-.56-.5-.91-1.22-1.2a9.54 9.54 0 00-3.26-.51 9.76 9.76 0 00-2.73.35c-.94.28-1.55.65-1.59 1.29v1.39l-5.42.76h-.11v18.32a.27.27 0 000 .13l3.83 2.09 10.71 5.82a.27.27 0 00.12 0l24-3.36a.27.27 0 00.11-.05v-18.28zm-10.69-5.81a9.07 9.07 0 013 .46c.66.25.87.55.84.65-.03.1-.27.49-1.16.74a9.66 9.66 0 01-2.57.32 8.85 8.85 0 01-3-.47c-.64-.24-.84-.51-.84-.62 0-.11.28-.49 1.18-.73a9 9 0 012.55-.35zm-9.62-3.33a10.05 10.05 0 012.57-.31 9 9 0 013 .46c.67.25.87.56.85.65-.02.09-.28.5-1.17.74a9.66 9.66 0 01-2.57.32 9.11 9.11 0 01-3.05-.46c-.63-.24-.84-.53-.84-.63.01-.14.3-.52 1.21-.77zm-4.3 5.06a9.53 9.53 0 012.56-.32 8.75 8.75 0 013 .47c.67.25.87.55.85.64-.02.09-.28.5-1.17.74a9.66 9.66 0 01-2.57.32 8.86 8.86 0 01-3-.46c-.63-.24-.84-.53-.84-.63-.03-.14.27-.52 1.17-.76zm-8.24-2.9c0-.12.29-.5 1.18-.74a9.53 9.53 0 012.56-.32 9.37 9.37 0 013.05.46c.66.25.86.55.84.65-.02.1-.28.49-1.17.74a10.37 10.37 0 01-5.61-.14c-.64-.24-.85-.52-.85-.63zm-5 2.61l4.44-.62v1.36c0 .56.5.92 1.22 1.19a9.25 9.25 0 003.26.52 10.57 10.57 0 002.59-.31v2.21c0 .56.49.91 1.22 1.2a9.51 9.51 0 003.26.5 9.77 9.77 0 002.73-.34c.94-.29 1.56-.66 1.6-1.3v-3.36a10.31 10.31 0 002.55-.3v2.2c0 .56.5.92 1.22 1.19a9.28 9.28 0 003.27.51 10.21 10.21 0 002.73-.34c.93-.29 1.55-.65 1.59-1.31v-1.92.38l5 2.72-23 3.23zm37.26 22.33c-.08.05-23.39 3.28-23.39 3.28v-17.61l23.39-3.28s-.05 17.5-.04 17.61z" fill="#c91a20"/><path d="M38.318 61.282c0-.56-.5-.91-1.22-1.2a9.55 9.55 0 00-3.26-.5 10.15 10.15 0 00-2.73.34c-.94.28-1.55.66-1.59 1.3v1.39l-5.42.76h-.11v18.33a.27.27 0 000 .13.1.1 0 000 .05l3.83 2.09 10.71 5.82a.28.28 0 00.12 0l24-3.37h.11v-18.27a.24.24 0 000-.12v-.05l-6-3.29v-1.14c0-.56-.5-.91-1.23-1.2a9.51 9.51 0 00-3.26-.5h-.72l-1.85-1v-.94c0-.55-.5-.91-1.22-1.19a9.57 9.57 0 00-3.26-.52 10.09 10.09 0 00-2.73.35c-.94.28-1.55.65-1.6 1.29v1.19l-2.55.36" fill="#eb5859"/><path d="M62.948 68.202a.24.24 0 000-.12v-.05l-6-3.29v-1.14c0-.56-.5-.91-1.23-1.2a9.51 9.51 0 00-3.26-.5h-.72l-1.85-1v.67l.84.45a5.18 5.18 0 00-.84.18v-2.24c0-.55-.5-.91-1.22-1.19a9.57 9.57 0 00-3.26-.52 10.09 10.09 0 00-2.73.35c-.94.28-1.55.65-1.6 1.29v1.19l-2.55.36v.6l2.55-.36v1.53a9.85 9.85 0 00-2.69.34h.14v-2.23c0-.56-.5-.91-1.22-1.2a9.55 9.55 0 00-3.26-.5 10.15 10.15 0 00-2.73.34c-.94.28-1.55.66-1.59 1.3v1.39l-5.42.76h-.11v18.33a.27.27 0 000 .13.1.1 0 000 .05l3.83 2.09 10.71 5.82a.28.28 0 00.12 0l24-3.37h.11v-18.27zm-10.69-5.81a9.33 9.33 0 013 .46c.66.25.87.56.84.65-.03.09-.27.49-1.16.74a9.27 9.27 0 01-2.57.32 9.11 9.11 0 01-3-.46c-.64-.24-.84-.52-.84-.63 0-.12.28-.5 1.18-.74a9.41 9.41 0 012.55-.34zm-9.62-3.32a9.61 9.61 0 012.57-.32 8.79 8.79 0 013 .47c.67.25.87.55.85.64-.02.09-.28.5-1.17.75a10.11 10.11 0 01-2.57.31 8.86 8.86 0 01-3.05-.46c-.63-.24-.84-.52-.84-.63.01-.14.3-.52 1.21-.71zm-4.3 5.05a9.53 9.53 0 012.56-.32 8.75 8.75 0 013 .47c.67.25.87.55.85.65-.02.1-.28.49-1.17.74a9.68 9.68 0 01-2.57.31 8.86 8.86 0 01-3-.46c-.63-.24-.84-.52-.84-.63-.03-.14.27-.51 1.17-.76zm-8.24-2.9c0-.12.29-.49 1.18-.74a9.53 9.53 0 012.56-.32 9.37 9.37 0 013.05.46c.66.25.86.56.84.65-.02.09-.28.5-1.17.75a9.53 9.53 0 01-2.56.32 9.05 9.05 0 01-3-.47c-.64-.24-.85-.52-.85-.63zm-5 2.61l4.44-.62v1.37c0 .56.5.92 1.22 1.2a9.5 9.5 0 003.26.51 10.57 10.57 0 002.59-.31v2.21c0 .56.49.91 1.22 1.2a9.5 9.5 0 003.26.51 10.15 10.15 0 002.73-.34c.94-.29 1.56-.66 1.6-1.31v-3.41a10.31 10.31 0 002.55-.3v2.2c0 .56.5.92 1.22 1.2a9.52 9.52 0 003.27.51 10.2 10.2 0 002.73-.35c.93-.28 1.55-.65 1.59-1.31v-1.91.37l5 2.72-23 3.23zm37.22 22.29c-.08.06-23.39 3.28-23.39 3.28v-17.61l23.39-3.28s-.01 17.54 0 17.61z" fill="#c91a20"/><path d="M38.318 42.992c0-.56-.5-.92-1.22-1.2a9.54 9.54 0 00-3.26-.51 9.76 9.76 0 00-2.73.35c-.94.28-1.55.65-1.59 1.29v1.38l-5.42.76h-.11v18.32a.34.34 0 000 .14.1.1 0 000 .05l3.83 2.1 10.71 5.82a.28.28 0 00.12 0l24-3.37a.25.25 0 00.11 0v-18.31a.27.27 0 000-.12v-.05l-6-3.3v-1.12c0-.55-.5-.91-1.23-1.2a9.75 9.75 0 00-3.26-.5h-.72l-1.85-1v-.94c0-.56-.5-.92-1.22-1.2a9.34 9.34 0 00-3.26-.51 10.1 10.1 0 00-2.73.34c-.94.29-1.55.65-1.6 1.29v1.19l-2.55.36" fill="#eb5859"/><path d="M62.948 49.912a.27.27 0 000-.12v-.05l-6-3.3v-1.22c0-.55-.5-.91-1.23-1.2a9.75 9.75 0 00-3.26-.5h-.72l-1.85-1v.67l.84.45q-.45.08-.84.18v-2.24c0-.56-.5-.92-1.22-1.2a9.34 9.34 0 00-3.26-.51 10.1 10.1 0 00-2.73.34c-.94.29-1.55.65-1.6 1.29v1.19l-2.55.36v.6l2.55-.35v1.52a9.85 9.85 0 00-2.69.34h.14v-2.24c0-.56-.5-.92-1.22-1.2a9.54 9.54 0 00-3.26-.51 9.76 9.76 0 00-2.73.35c-.94.28-1.55.65-1.59 1.29v1.38l-5.42.76h-.11v18.32a.34.34 0 000 .14.1.1 0 000 .05l3.83 2.09 10.71 5.82a.28.28 0 00.12 0l24-3.37a.25.25 0 00.11 0v-.06a.43.43 0 000-.05v-18.2zm-10.69-5.79a9.05 9.05 0 013 .47c.66.24.87.55.84.64-.03.09-.27.5-1.16.75a9.66 9.66 0 01-2.57.32 9.09 9.09 0 01-3-.47c-.64-.24-.84-.52-.84-.62 0-.12.28-.49 1.18-.73a9 9 0 012.55-.36zm-9.62-3.32a9.61 9.61 0 012.57-.32 9 9 0 013 .47c.67.25.87.55.85.65-.02.1-.28.49-1.17.74a9.68 9.68 0 01-2.57.31 8.63 8.63 0 01-3.05-.46c-.63-.24-.84-.52-.84-.63.01-.16.3-.53 1.21-.78zm-4.3 5a9.53 9.53 0 012.56-.32 9 9 0 013 .47c.67.25.87.55.85.65-.02.1-.28.49-1.17.74a9.66 9.66 0 01-2.57.32 8.85 8.85 0 01-3-.47c-.63-.24-.84-.52-.84-.63-.03-.1.27-.44 1.17-.73zm-8.24-2.89c0-.12.29-.49 1.18-.73a10.11 10.11 0 015.61.14c.66.25.86.55.84.65-.02.1-.28.49-1.17.74a9.53 9.53 0 01-2.56.32 9.05 9.05 0 01-3-.47c-.64-.24-.85-.52-.85-.62zm-5 2.61l4.44-.62v1.36c0 .55.5.91 1.22 1.19a9.5 9.5 0 003.26.51 10.11 10.11 0 002.59-.31v2.21c0 .56.49.92 1.22 1.2a9.5 9.5 0 003.26.51 10.15 10.15 0 002.73-.34c.94-.29 1.56-.66 1.6-1.31v-3.41a10.31 10.31 0 002.55-.3v2.21c0 .56.5.92 1.22 1.2a9.52 9.52 0 003.27.51 10.21 10.21 0 002.73-.34c.93-.29 1.55-.66 1.59-1.31v-1.92.37l5 2.72-23 3.23zm37.26 22.33c-.08.05-23.39 3.28-23.39 3.28v-17.61l23.39-3.29s-.05 17.53-.04 17.65z" fill="#c91a20"/><path d="M38.318 24.702c0-.56-.5-.92-1.22-1.2a9.54 9.54 0 00-3.26-.51 9.76 9.76 0 00-2.73.35c-.94.28-1.55.65-1.59 1.29v1.39l-5.42.76h-.11v18.32a.3.3 0 000 .13l3.83 2.09 10.71 5.82a.28.28 0 00.12 0l24-3.37a.17.17 0 00.11 0v-18.28a.27.27 0 000-.12v-.06l-6-3.3v-1.14c0-.56-.5-.92-1.23-1.2a9.5 9.5 0 00-3.26-.51h-.72l-1.85-1v-.94c0-.56-.5-.92-1.22-1.2a9.34 9.34 0 00-3.26-.51 10.1 10.1 0 00-2.73.34c-.94.29-1.55.66-1.6 1.3v1.19l-2.55.36" fill="#eb5859"/><path d="M62.948 31.622a.27.27 0 000-.12v-.06l-6-3.3v-1.14c0-.56-.5-.92-1.23-1.2a9.5 9.5 0 00-3.26-.51h-.72l-1.85-1v.66l.84.45q-.45.07-.84.18v-2.23c0-.56-.5-.92-1.22-1.2a9.34 9.34 0 00-3.26-.51 10.1 10.1 0 00-2.73.34c-.94.29-1.55.66-1.6 1.3v1.19l-2.55.36v.61l2.55-.36v1.52a9.85 9.85 0 00-2.69.34h.14v-2.24c0-.56-.5-.92-1.22-1.2a9.54 9.54 0 00-3.26-.51 9.76 9.76 0 00-2.73.35c-.94.28-1.55.65-1.59 1.29v1.39l-5.42.76h-.11v18.32a.3.3 0 000 .13l3.83 2.09 10.71 5.82a.28.28 0 00.12 0l24-3.37a.17.17 0 00.11 0v-18.28zm-10.69-5.8a9.07 9.07 0 013 .46c.66.25.87.55.84.65-.03.1-.27.49-1.16.74a9.27 9.27 0 01-2.57.32 9.09 9.09 0 01-3-.47c-.64-.24-.84-.52-.84-.62 0-.11.28-.49 1.18-.73a9 9 0 012.55-.35zm-9.62-3.33a10 10 0 012.57-.32 9 9 0 013 .47c.67.25.87.55.85.65-.02.1-.28.49-1.17.74a9.66 9.66 0 01-2.57.32 8.85 8.85 0 01-3.05-.47c-.63-.23-.84-.52-.84-.63.01-.13.3-.51 1.21-.76zm-4.3 5.05a10 10 0 012.56-.32 9 9 0 013 .47c.67.25.87.56.85.65-.02.09-.28.5-1.17.74a9.66 9.66 0 01-2.57.32 8.86 8.86 0 01-3-.46c-.63-.24-.84-.53-.84-.63-.03-.14.27-.52 1.17-.77zm-8.24-2.89c0-.12.29-.5 1.18-.74a10.37 10.37 0 015.61.14c.66.25.86.55.84.65-.02.1-.28.49-1.17.74a9.15 9.15 0 01-2.56.32 8.81 8.81 0 01-3-.47c-.64-.23-.85-.51-.85-.62zm-5 2.61l4.44-.62v1.36c0 .56.5.92 1.22 1.19a9.26 9.26 0 003.26.51 10.58 10.58 0 002.59-.3v2.2c0 .55.49.91 1.22 1.2a9.51 9.51 0 003.26.5 10.15 10.15 0 002.73-.34c.94-.29 1.56-.66 1.6-1.31v-3.35a9.85 9.85 0 002.55-.31v2.21c0 .56.5.91 1.22 1.19a9.28 9.28 0 003.27.51 10.21 10.21 0 002.73-.34c.93-.29 1.55-.66 1.59-1.31v-1.92.37l5 2.72-23 3.23zm37.26 22.33c-.08 0-23.39 3.28-23.39 3.28v-17.61l23.39-3.29s-.05 17.51-.04 17.62z" fill="#c91a20"/><path d="M38.318 6.422c0-.56-.5-.91-1.22-1.2a9.55 9.55 0 00-3.26-.5 9.77 9.77 0 00-2.73.34c-.94.28-1.55.65-1.59 1.3v1.39l-5.42.76h-.11v18.27a.27.27 0 000 .13l3.83 2.09 10.71 5.82a.27.27 0 00.12 0l24-3.37h.11v-18.28a.21.21 0 000-.12v-.05l-6-3.29v-1.14c0-.56-.5-.91-1.23-1.2a9.5 9.5 0 00-3.26-.51h-.72l-1.85-1v-.94c0-.56-.5-.91-1.22-1.2a9.83 9.83 0 00-3.26-.51 9.71 9.71 0 00-2.73.35c-.94.28-1.55.65-1.6 1.29v1.27l-2.55.36" fill="#eb5859"/><path d="M62.948 13.342a.21.21 0 000-.12v-.05l-6-3.29v-1.14c0-.56-.5-.91-1.23-1.2a9.5 9.5 0 00-3.26-.51h-.72l-1.85-1v.66l.84.46a6.56 6.56 0 00-.84.17v-2.23c0-.56-.5-.91-1.22-1.2a9.83 9.83 0 00-3.26-.51 9.71 9.71 0 00-2.73.35c-.94.28-1.55.65-1.6 1.29v1.1l-2.55.36v.6l2.55-.36v1.53a10.25 10.25 0 00-2.69.35h.14v-2.18c0-.56-.5-.91-1.22-1.2a9.55 9.55 0 00-3.26-.5 9.77 9.77 0 00-2.73.34c-.94.28-1.55.65-1.59 1.3v1.39l-5.42.76h-.11v18.27a.27.27 0 000 .13l3.83 2.09 10.71 5.82a.27.27 0 00.12 0l24-3.37h.11v-18.28zm-10.69-5.81a9.07 9.07 0 013 .46c.66.25.87.56.84.65-.03.09-.27.49-1.16.74a9.27 9.27 0 01-2.57.32 9.11 9.11 0 01-3-.46c-.64-.24-.84-.52-.84-.63 0-.12.28-.5 1.18-.74a9.41 9.41 0 012.55-.34zm-9.62-3.32a9.61 9.61 0 012.57-.32 9 9 0 013 .46c.67.26.87.56.85.65-.02.09-.28.5-1.17.75a10.11 10.11 0 01-2.57.31 8.86 8.86 0 01-3.05-.46c-.63-.24-.84-.53-.84-.63.01-.14.3-.52 1.21-.76zm-4.3 5.05a9.53 9.53 0 012.56-.32 8.75 8.75 0 013 .47c.67.25.87.55.85.65-.02.1-.28.49-1.17.74a10.11 10.11 0 01-2.57.31 8.86 8.86 0 01-3-.46c-.63-.24-.84-.52-.84-.63-.03-.14.27-.52 1.17-.76zm-8.24-2.9c0-.12.29-.5 1.18-.74a9.53 9.53 0 012.56-.32 9.37 9.37 0 013.05.46c.66.25.86.56.84.65-.02.09-.28.49-1.17.74a10.37 10.37 0 01-5.61-.14c-.64-.24-.85-.52-.85-.63zm-5 2.61l4.44-.62v1.37c0 .56.5.92 1.22 1.2a9.5 9.5 0 003.26.51 10.57 10.57 0 002.59-.31v2.21c0 .56.49.91 1.22 1.2a9.5 9.5 0 003.26.51 10.15 10.15 0 002.73-.34c.94-.3 1.56-.66 1.6-1.31v-3.41a10.31 10.31 0 002.55-.3v2.2c0 .56.5.92 1.22 1.19a9.27 9.27 0 003.27.52 10.2 10.2 0 002.73-.35c.93-.28 1.55-.65 1.59-1.31v-1.92.38l5 2.72-23 3.23zm37.26 22.33c-.08.06-23.39 3.28-23.39 3.28v-17.61l23.39-3.28s-.05 17.5-.04 17.61z" fill="#c91a20"/><path d="M14.328 101.212c0-.56-.5-.92-1.22-1.2a9.5 9.5 0 00-3.26-.51 9.76 9.76 0 00-2.73.35c-.93.28-1.55.65-1.59 1.29v1.38l-5.42.77a.19.19 0 00-.1 0v18.27a.3.3 0 000 .13.1.1 0 000 .05l3.83 2.09 10.71 5.82a.28.28 0 00.12 0l24-3.37a.25.25 0 00.11 0v-18.33a.5.5 0 000-.12.21.21 0 000-.06l-6-3.29v-1.14c0-.56-.5-.92-1.23-1.2a9.5 9.5 0 00-3.26-.51h-.72l-1.85-1v-.94c0-.56-.5-.92-1.22-1.2a9.34 9.34 0 00-3.26-.51 10.1 10.1 0 00-2.73.34c-.94.29-1.55.66-1.6 1.3v1.19l-2.55.36" fill="#eb5859"/><path d="M38.958 108.122a.5.5 0 000-.12.21.21 0 000-.06l-6-3.29v-1.14c0-.56-.5-.92-1.23-1.2a9.5 9.5 0 00-3.26-.51h-.72l-1.85-1v.67l.84.45c-.29.05-.58.11-.84.18v-2.24c0-.56-.5-.92-1.22-1.2a9.34 9.34 0 00-3.26-.51 10.1 10.1 0 00-2.73.34c-.94.29-1.55.66-1.6 1.3v1.19l-2.55.36v.6l2.55-.35v1.53a10.31 10.31 0 00-2.69.34h.14v-2.24c0-.56-.5-.92-1.22-1.2a9.5 9.5 0 00-3.26-.51 9.76 9.76 0 00-2.73.35c-.93.28-1.55.65-1.59 1.29v1.38l-5.42.77a.19.19 0 00-.1 0v18.27a.3.3 0 000 .13.1.1 0 000 .05l3.83 2.09 10.71 5.82a.28.28 0 00.12 0l24-3.37a.25.25 0 00.11 0v-18.33zm-10.69-5.81a9 9 0 013 .47c.67.24.87.55.84.65-.03.1-.27.49-1.16.74a9.66 9.66 0 01-2.57.32 9.09 9.09 0 01-3-.47c-.63-.24-.84-.52-.84-.62 0-.12.28-.49 1.18-.74a9.41 9.41 0 012.55-.34zm-9.61-3.32a9.53 9.53 0 012.56-.32 9 9 0 013 .47c.67.25.87.55.85.65-.02.1-.28.49-1.17.74a9.66 9.66 0 01-2.57.32 8.85 8.85 0 01-3.05-.47c-.63-.24-.84-.52-.84-.63.01-.12.29-.51 1.22-.75zm-4.31 5.05a10 10 0 012.56-.32 9.09 9.09 0 013 .47c.66.25.86.56.84.65-.02.09-.28.49-1.17.74a9.66 9.66 0 01-2.57.32 8.85 8.85 0 01-3-.47c-.63-.23-.84-.52-.84-.63-.02-.12.29-.5 1.18-.75zm-8.24-2.89c0-.11.29-.49 1.18-.73a10.37 10.37 0 015.61.14c.66.25.86.55.84.65-.02.1-.27.49-1.17.74a9.15 9.15 0 01-2.56.32 9.05 9.05 0 01-3-.47c-.64-.24-.85-.51-.85-.62zm-5 2.61l4.44-.63v1.37c0 .55.5.91 1.22 1.19a9.26 9.26 0 003.26.51 10.11 10.11 0 002.59-.31v2.23c0 .55.5.91 1.22 1.2a9.51 9.51 0 003.26.5 10.15 10.15 0 002.73-.34c.94-.29 1.56-.66 1.6-1.31v-3.35a10.24 10.24 0 002.55-.31v2.21c0 .56.5.91 1.22 1.19a9.52 9.52 0 003.27.51 10.21 10.21 0 002.73-.34c.93-.29 1.55-.66 1.59-1.31v-1.92.37l5 2.72-23 3.24zm37.22 22.36c-.08 0-23.39 3.28-23.39 3.28v-17.61l23.39-3.29s-.01 17.49 0 17.62z" fill="#c91a20"/><path d="M14.328 9.782c0-.56-.5-.91-1.22-1.2a9.51 9.51 0 00-3.26-.5 9.77 9.77 0 00-2.73.34c-.93.28-1.55.66-1.59 1.3v1.4l-5.42.76h-.1a.1.1 0 000 .05v18.28a.27.27 0 000 .13v.05l3.83 2.09 10.71 5.82a.53.53 0 00.12 0l24-3.37h.11v-18.27a.43.43 0 000-.12.1.1 0 000-.05l-6-3.29v-1.14c0-.56-.5-.92-1.23-1.2a9.51 9.51 0 00-3.26-.5h-.72l-1.85-1v-.94c0-.55-.5-.91-1.22-1.2a9.83 9.83 0 00-3.26-.51 10.09 10.09 0 00-2.73.35c-.94.28-1.55.65-1.6 1.29v1.19l-2.55.36" fill="#eb5859"/><path d="M38.958 16.702a.43.43 0 000-.12.1.1 0 000-.05l-6-3.29v-1.14c0-.56-.5-.92-1.23-1.2a9.51 9.51 0 00-3.26-.5h-.72l-1.85-1v.66l.84.46a6.93 6.93 0 00-.84.17v-2.23c0-.55-.5-.91-1.22-1.2a9.83 9.83 0 00-3.26-.51 10.09 10.09 0 00-2.73.35c-.94.28-1.55.65-1.6 1.29v1.19l-2.55.36v.6l2.55-.36v1.53a10.3 10.3 0 00-2.69.35h.14v-2.23c0-.56-.5-.91-1.22-1.2a9.51 9.51 0 00-3.26-.5 9.77 9.77 0 00-2.73.34c-.93.28-1.55.66-1.59 1.3v1.35l-5.42.76h-.1a.1.1 0 000 .05v18.28a.27.27 0 000 .13.1.1 0 000 .05l3.83 2.09 10.71 5.82a.53.53 0 00.12 0l24-3.37h.11v-18.27zm-10.69-5.81a9.28 9.28 0 013 .46c.67.25.87.56.84.65-.03.09-.27.49-1.16.74a9.27 9.27 0 01-2.57.32 8.85 8.85 0 01-3-.47c-.63-.23-.84-.51-.84-.62 0-.12.28-.5 1.18-.74a9.41 9.41 0 012.55-.34zm-9.61-3.32a9.53 9.53 0 012.56-.32 8.75 8.75 0 013 .47c.67.24.87.55.85.64-.02.09-.28.5-1.17.75a10.11 10.11 0 01-2.57.31 8.86 8.86 0 01-3.05-.46c-.63-.24-.84-.52-.84-.63.01-.14.29-.52 1.22-.76zm-4.31 5.05a9.53 9.53 0 012.56-.32 8.85 8.85 0 013 .47c.66.25.86.55.84.65-.02.1-.28.49-1.17.74a9.68 9.68 0 01-2.57.31 8.86 8.86 0 01-3-.46c-.63-.24-.84-.52-.84-.63-.02-.14.29-.52 1.18-.76zm-8.24-2.9c0-.12.29-.5 1.18-.74a9.53 9.53 0 012.56-.32 9.37 9.37 0 013.05.46c.66.25.86.56.84.65-.02.09-.27.49-1.17.75a9.53 9.53 0 01-2.56.32 9.05 9.05 0 01-3-.47c-.64-.24-.85-.52-.85-.63zm-5 2.61l4.44-.62v1.41c0 .56.5.92 1.22 1.2a9.5 9.5 0 003.26.51 10.57 10.57 0 002.59-.31v2.21c0 .56.5.91 1.22 1.2a9.5 9.5 0 003.26.51 10.15 10.15 0 002.63-.32c.94-.29 1.56-.66 1.6-1.31v-3.41a10.25 10.25 0 002.55-.3v2.21c0 .56.5.92 1.22 1.19a9.27 9.27 0 003.27.52 10.2 10.2 0 002.73-.35c.93-.28 1.55-.65 1.59-1.31v-1.92.38l5 2.72-23 3.23zm37.26 22.33c-.08.06-23.39 3.28-23.39 3.28v-17.61l23.39-3.28s-.05 17.5-.04 17.61z" fill="#c91a20"/><path d="M77.398 102.722c0-.56-.5-.92-1.23-1.2a9.47 9.47 0 00-3.26-.5 9.87 9.87 0 00-2.73.34c-.93.28-1.54.65-1.59 1.29v1.39l-5.42.76a.45.45 0 00-.11 0v18.53a.28.28 0 000 .13l3.83 2.09 10.7 5.82h.12l24-3.37a.24.24 0 00.1 0v-.05a.64.64 0 000-.07v-18.25a.2.2 0 000-.11.1.1 0 000-.05l-6.06-3.29v-1.15c0-.56-.5-.92-1.22-1.2a9.56 9.56 0 00-3.27-.51h-.72l-1.85-1v-.94c0-.56-.51-.92-1.23-1.2a9.74 9.74 0 00-3.26-.51 10.15 10.15 0 00-2.73.34c-.93.29-1.55.66-1.6 1.3v1.2l-2.54.36" fill="#eb5859"/><path d="M102.018 109.632a.2.2 0 000-.11.1.1 0 000-.05l-6.06-3.29v-1.15c0-.56-.5-.92-1.22-1.2a9.56 9.56 0 00-3.27-.51h-.72l-1.85-1v.66l.83.46a7.34 7.34 0 00-.84.17v-2.23c0-.56-.51-.92-1.23-1.2a9.74 9.74 0 00-3.26-.51 10.15 10.15 0 00-2.73.34c-.93.29-1.55.66-1.6 1.3v1.2l-2.54.36v.6l2.55-.36v1.53a10.34 10.34 0 00-2.7.34.58.58 0 00.14 0v-2.23c0-.56-.5-.92-1.23-1.2a9.47 9.47 0 00-3.26-.5 9.87 9.87 0 00-2.73.34c-.93.28-1.54.65-1.59 1.29v1.39l-5.42.76a.45.45 0 00-.11 0v18.5a.28.28 0 000 .13l3.83 2.09 10.7 5.82h.12l24-3.37a.24.24 0 00.1 0v-.05a.64.64 0 000-.07v-18.25zm-10.69-5.8a9 9 0 013.05.46c.67.25.87.55.85.65-.02.1-.28.49-1.17.74a9.17 9.17 0 01-2.57.32 8.75 8.75 0 01-3-.47c-.64-.24-.85-.51-.85-.62 0-.12.29-.49 1.18-.73a9.13 9.13 0 012.51-.35zm-9.61-3.32a9.52 9.52 0 012.56-.33 9.09 9.09 0 013 .47c.67.25.87.56.84.65-.03.09-.28.49-1.17.75a10 10 0 01-2.57.31 9 9 0 01-3-.46c-.63-.24-.85-.53-.84-.63-.02-.15.29-.52 1.19-.76zm-4.31 5.05a9.57 9.57 0 012.56-.33 8.83 8.83 0 013 .48c.67.24.87.55.84.65-.03.1-.27.49-1.17.74a9.55 9.55 0 01-2.56.31 8.86 8.86 0 01-3.05-.46c-.63-.24-.85-.53-.84-.63.02-.14.33-.52 1.22-.76zm-8.23-2.9c0-.12.29-.5 1.18-.74a9.13 9.13 0 012.55-.32 9 9 0 013 .46c.67.25.87.56.84.65-.03.09-.27.49-1.16.74a9.26 9.26 0 01-2.57.33 8.83 8.83 0 01-3-.48c-.63-.23-.84-.51-.84-.62zm-5 2.61l4.44-.62v1.36c0 .56.51.91 1.23 1.19a9.18 9.18 0 003.26.52 10.63 10.63 0 002.59-.31v2.21c0 .56.5.91 1.22 1.2a9.55 9.55 0 003.26.5 9.89 9.89 0 002.74-.34c.93-.29 1.55-.65 1.59-1.3v-3.36a.43.43 0 000-.05 10.25 10.25 0 002.55-.3v2.2c0 .56.51.91 1.23 1.19a9.49 9.49 0 003.26.52 10.33 10.33 0 002.74-.35c.93-.28 1.55-.65 1.59-1.31v-1.55l5 2.72-23 3.24zm37.26 22.33c-.08.06-23.39 3.28-23.39 3.28v-17.61l23.39-3.28-.05 17.61z" fill="#c91a20"/><path d="M77.398 11.282c0-.55-.5-.91-1.23-1.2a9.47 9.47 0 00-3.26-.5 10.26 10.26 0 00-2.73.34c-.93.28-1.54.66-1.59 1.3v1.38l-5.42.76h-.11v18.33a.28.28 0 000 .13v.05l3.83 2.09 10.7 5.83a.28.28 0 00.12 0l24-3.37h.1v-18.33a.25.25 0 000-.12v-.05l-6.06-3.29v-1.14c0-.56-.5-.91-1.22-1.2a9.57 9.57 0 00-3.27-.5h-.72l-1.85-1v-.94c0-.55-.51-.91-1.23-1.19a9.49 9.49 0 00-3.26-.52 10.14 10.14 0 00-2.73.35c-.93.28-1.55.65-1.6 1.3v1.19l-2.54.36" fill="#eb5859"/><path d="M102.018 18.202a.25.25 0 000-.12v-.05l-6.06-3.29v-1.14c0-.56-.5-.91-1.22-1.2a9.57 9.57 0 00-3.27-.5h-.72l-1.85-1v.67l.83.45q-.43.07-.84.18v-2.24c0-.55-.51-.91-1.23-1.19a9.49 9.49 0 00-3.26-.52 10.14 10.14 0 00-2.73.35c-.93.28-1.55.65-1.6 1.3v1.19l-2.54.36v.6l2.55-.35v1.42a9.93 9.93 0 00-2.7.34h.14v-2.24c0-.55-.5-.91-1.23-1.2a9.47 9.47 0 00-3.26-.5 10.26 10.26 0 00-2.73.34c-.93.28-1.54.66-1.59 1.3v1.38l-5.42.76h-.11v18.33a.28.28 0 000 .13v.05l3.83 2.09 10.7 5.83a.28.28 0 00.12 0l24-3.37h.1v-18.33zm-10.69-5.81a9.28 9.28 0 013.05.46c.67.26.87.56.85.65-.02.09-.28.5-1.17.74a9.16 9.16 0 01-2.57.33 9 9 0 01-3-.47c-.64-.24-.85-.52-.85-.63 0-.12.29-.49 1.18-.74a9.51 9.51 0 012.51-.34zm-9.6-3.27a9.53 9.53 0 012.56-.32 9.09 9.09 0 013 .47c.67.25.87.55.84.64-.03.09-.28.5-1.17.75a9.58 9.58 0 01-2.57.31 8.8 8.8 0 01-3-.46c-.63-.24-.85-.52-.84-.63-.03-.19.28-.57 1.18-.76zm-4.31 5.05a9.59 9.59 0 012.56-.32 9.09 9.09 0 013 .47c.67.25.87.55.84.65-.03.1-.27.49-1.17.74a9.55 9.55 0 01-2.56.31 8.63 8.63 0 01-3.05-.46c-.63-.23-.85-.52-.84-.63.01-.19.32-.56 1.21-.81zm-8.23-2.89c0-.12.29-.49 1.18-.74a9.51 9.51 0 012.55-.32 9.28 9.28 0 013 .46c.67.26.87.56.84.65-.03.09-.27.5-1.16.75a9.66 9.66 0 01-2.57.32 9.09 9.09 0 01-3-.47c-.63-.24-.84-.52-.84-.63zm-5 2.61l4.44-.63v1.37c0 .56.51.92 1.23 1.2a9.42 9.42 0 003.26.51 10.16 10.16 0 002.59-.31v2.21c0 .56.5.92 1.22 1.2a9.54 9.54 0 003.26.51 10.28 10.28 0 002.74-.34c.93-.29 1.55-.66 1.59-1.31v-3.41a10.25 10.25 0 002.55-.3v2.21c0 .56.51.92 1.23 1.2a9.5 9.5 0 003.26.51 9.93 9.93 0 002.74-.35c.93-.28 1.55-.65 1.59-1.3v-1.54l5 2.72-23 3.23zm37.2 22.23c-.08.06-23.39 3.28-23.39 3.28v-17.61l23.39-3.28z" fill="#c91a20"/><path d="M53.418 106.122c0-.56-.5-.92-1.23-1.21a9.71 9.71 0 00-3.26-.5 10.13 10.13 0 00-2.72.34c-.94.29-1.55.66-1.6 1.3v1.38l-5.42.76h-.11a.25.25 0 000 .07v18.22a.27.27 0 000 .12l3.83 2.09 10.7 5.82a.33.33 0 00.13 0l24-3.37a.18.18 0 00.1 0 .11.11 0 000-.06v-18.22a.25.25 0 000-.12.21.21 0 000-.06l-6.06-3.3v-1.06c0-.56-.5-.91-1.22-1.19a9.3 9.3 0 00-3.26-.51h-.73l-1.85-1v-.94c0-.56-.51-.92-1.23-1.2a9.49 9.49 0 00-3.26-.52 10.14 10.14 0 00-2.73.35c-.93.28-1.55.66-1.6 1.3v1.19l-2.55.36" fill="#eb5859"/><path d="M78.038 113.012a.25.25 0 000-.12.21.21 0 000-.06l-6.06-3.3v-1.21c0-.56-.5-.91-1.22-1.19a9.3 9.3 0 00-3.26-.51h-.73l-1.85-1v.67l.83.45q-.44.08-.84.18v-2.24c0-.56-.51-.92-1.23-1.2a9.49 9.49 0 00-3.26-.52 10.14 10.14 0 00-2.73.35c-.93.28-1.55.66-1.6 1.3v1.19l-2.55.36v.6l2.55-.35v1.54a9.93 9.93 0 00-2.7.34h.14v-2.24c0-.56-.5-.92-1.23-1.21a9.71 9.71 0 00-3.26-.5 10.13 10.13 0 00-2.72.34c-.94.29-1.55.66-1.6 1.3v1.38l-5.42.76h-.11a.25.25 0 000 .07v18.22a.27.27 0 000 .12l3.83 2.09 10.7 5.82a.33.33 0 00.13 0l24-3.37a.18.18 0 00.1 0 .11.11 0 000-.06v-18.22zm-10.68-5.81a9 9 0 013 .47c.67.25.87.55.85.64-.02.09-.28.5-1.17.75a9.53 9.53 0 01-2.56.32 9.05 9.05 0 01-3-.47c-.64-.24-.85-.52-.85-.63 0-.12.29-.49 1.18-.73a9.13 9.13 0 012.55-.35zm-9.62-3.32a9.53 9.53 0 012.56-.32 9.09 9.09 0 013 .47c.66.25.87.55.84.65-.03.1-.28.49-1.17.74a9.55 9.55 0 01-2.56.31 8.63 8.63 0 01-3-.46c-.63-.24-.85-.52-.84-.63-.03-.14.28-.52 1.16-.76zm-4.31 5.05a10 10 0 012.56-.32 9.09 9.09 0 013 .47c.67.25.87.55.85.65-.02.1-.28.49-1.18.74a9.53 9.53 0 01-2.56.32 8.85 8.85 0 01-3.05-.47c-.63-.23-.84-.52-.84-.62.02-.14.33-.52 1.22-.77zm-8.23-2.89c0-.12.29-.49 1.18-.74a9.53 9.53 0 012.55-.31 9 9 0 013 .46c.67.25.87.55.85.65-.02.1-.28.49-1.17.74a9.61 9.61 0 01-2.57.32 9 9 0 01-3-.47c-.64-.24-.85-.52-.85-.62zm-5 2.61l4.44-.63v1.37c0 .56.51.91 1.23 1.19a9.22 9.22 0 003.26.51 10.16 10.16 0 002.59-.31v2.21c0 .55.5.91 1.22 1.19a9.54 9.54 0 003.26.51 10.23 10.23 0 002.74-.34c.94-.29 1.55-.66 1.6-1.31v-3.35a10.24 10.24 0 002.55-.31v2.24c0 .56.5.92 1.22 1.2a9.5 9.5 0 003.26.51 10.33 10.33 0 002.74-.34c.93-.29 1.55-.66 1.59-1.31v-1.56l5 2.72-23 3.23zm37.27 22.33c-.09.05-23.4 3.27-23.4 3.27v-17.6l23.39-3.29s-.05 17.5-.04 17.62z" fill="#c91a20"/><path d="M53.418 87.812c0-.56-.5-.92-1.23-1.2a9.46 9.46 0 00-3.26-.51 9.74 9.74 0 00-2.72.35c-.94.28-1.55.65-1.6 1.29v1.38l-5.42.77h-.11v.05a.14.14 0 000 .06v18.21a.31.31 0 000 .13l3.83 2.09 10.7 5.82a.33.33 0 00.13 0l24-3.38a.13.13 0 00.1 0 .14.14 0 000-.07v-18.21a.25.25 0 000-.12.1.1 0 000-.05l-6.06-3.29v-1.15c0-.56-.5-.92-1.22-1.2a9.54 9.54 0 00-3.26-.51h-.73l-1.85-1v-.94c0-.56-.51-.91-1.23-1.2a9.5 9.5 0 00-3.26-.51 10.15 10.15 0 00-2.73.34c-.93.29-1.55.66-1.6 1.3v1.2l-2.55.36" fill="#eb5859"/><path d="M78.038 94.722a.25.25 0 000-.12.1.1 0 000-.05l-6.06-3.29v-1.15c0-.56-.5-.92-1.22-1.2a9.54 9.54 0 00-3.26-.51h-.73l-1.85-1v.66l.83.46a7.34 7.34 0 00-.84.17v-2.23c0-.56-.51-.91-1.23-1.2a9.5 9.5 0 00-3.26-.51 10.15 10.15 0 00-2.73.34c-.93.29-1.55.66-1.6 1.3v1.2l-2.55.36v.6l2.55-.36v1.53a10.34 10.34 0 00-2.7.34h.14v-2.23c0-.56-.5-.92-1.23-1.2a9.46 9.46 0 00-3.26-.51 9.74 9.74 0 00-2.72.35c-.94.28-1.55.65-1.6 1.29v1.36l-5.42.77h-.11v.05a.14.14 0 000 .06v18.21a.31.31 0 000 .13l3.83 2.09 10.7 5.82a.33.33 0 00.13 0l24-3.38a.13.13 0 00.1 0 .14.14 0 000-.07v-18.21zm-10.68-5.81a9 9 0 013 .47c.67.25.87.55.85.65-.02.1-.28.49-1.17.74a9.15 9.15 0 01-2.56.32 9.05 9.05 0 01-3-.47c-.64-.24-.85-.52-.85-.62 0-.11.29-.49 1.18-.73a9.13 9.13 0 012.55-.36zm-9.62-3.32a9.53 9.53 0 012.56-.32 9.09 9.09 0 013 .47c.66.25.87.56.84.65-.03.09-.28.49-1.17.74a9.53 9.53 0 01-2.56.32 8.61 8.61 0 01-3-.47c-.63-.23-.85-.52-.84-.63-.03-.13.28-.51 1.16-.76zm-4.31 5.06a9.18 9.18 0 012.56-.33 8.83 8.83 0 013 .48c.67.24.87.55.85.64-.02.09-.28.49-1.18.75a10 10 0 01-2.56.31 8.86 8.86 0 01-3.05-.46c-.63-.24-.84-.53-.84-.63.02-.14.33-.52 1.22-.76zm-8.23-2.9c0-.11.29-.49 1.18-.73a9.13 9.13 0 012.55-.32 9 9 0 013 .46c.67.25.87.55.85.65-.02.1-.28.49-1.17.74a9.61 9.61 0 01-2.57.32 8.75 8.75 0 01-3-.47c-.64-.24-.85-.52-.85-.62zm-5 2.61l4.44-.62v1.38c0 .56.51.92 1.23 1.2a9.71 9.71 0 003.26.5 10.16 10.16 0 002.59-.31v2.22c0 .56.5.92 1.22 1.21a9.8 9.8 0 003.26.5 10.23 10.23 0 002.74-.34c.94-.29 1.55-.66 1.6-1.3v-3.36a10.74 10.74 0 002.55-.3v2.23c0 .56.5.91 1.22 1.19a9.26 9.26 0 003.26.51 10.33 10.33 0 002.74-.34c.93-.29 1.55-.65 1.59-1.31v-1.55l5 2.72-23 3.23zm37.27 22.33c-.09.05-23.4 3.28-23.4 3.28v-17.61l23.39-3.29s-.05 17.51-.04 17.62z" fill="#c91a20"/><path d="M53.418 69.522c0-.56-.5-.91-1.23-1.2a9.47 9.47 0 00-3.26-.5 9.74 9.74 0 00-2.72.34c-.94.28-1.55.65-1.6 1.3v1.38l-5.42.76h-.11v.05a.14.14 0 000 .07v18.21a.28.28 0 000 .13v.05l3.83 2.09 10.7 5.82a.31.31 0 00.13 0l24-3.37h.1a.14.14 0 000-.06v-18.21a.22.22 0 000-.12l-6.06-3.29v-1.14c0-.56-.5-.92-1.22-1.2a9.54 9.54 0 00-3.26-.51h-.73l-1.85-1v-1c0-.55-.51-.91-1.23-1.2a9.74 9.74 0 00-3.26-.51 10.14 10.14 0 00-2.73.35c-.93.28-1.55.65-1.6 1.29v1.21l-2.55.36" fill="#eb5859"/><path d="M78.038 76.442a.22.22 0 000-.12l-6.06-3.29v-1.14c0-.56-.5-.92-1.22-1.2a9.54 9.54 0 00-3.26-.51h-.73l-1.85-1v.66l.83.46c-.29.05-.57.1-.84.17v-2.23c0-.55-.51-.91-1.23-1.2a9.74 9.74 0 00-3.26-.51 10.14 10.14 0 00-2.73.35c-.93.28-1.55.65-1.6 1.29v1.21l-2.55.36v.6l2.55-.36v1.55a9.93 9.93 0 00-2.7.34h.14v-2.24c0-.56-.5-.91-1.23-1.2a9.47 9.47 0 00-3.26-.5 9.74 9.74 0 00-2.72.34c-.94.28-1.55.65-1.6 1.3v1.38l-5.42.76h-.11v.05a.14.14 0 000 .07v18.21a.28.28 0 000 .13v.05l3.83 2.09 10.7 5.82a.31.31 0 00.13 0l24-3.37h.1a.14.14 0 000-.06v-18.21zm-10.68-5.81a9.26 9.26 0 013 .46c.67.25.87.55.85.65-.02.1-.28.5-1.17.74a9.13 9.13 0 01-2.56.33 8.79 8.79 0 01-3-.48c-.64-.24-.85-.51-.85-.62 0-.12.29-.5 1.18-.74a9.53 9.53 0 012.55-.34zm-9.62-3.32a9.53 9.53 0 012.56-.32 8.85 8.85 0 013 .47c.66.25.87.55.84.64-.03.09-.28.5-1.17.74a9.53 9.53 0 01-2.56.32 8.86 8.86 0 01-3-.46c-.63-.24-.85-.53-.84-.63-.03-.14.28-.52 1.16-.76zm-4.31 5.05a9.59 9.59 0 012.56-.32 8.85 8.85 0 013 .47c.67.25.87.55.85.64-.02.09-.28.5-1.18.75a9.55 9.55 0 01-2.56.31 8.86 8.86 0 01-3.05-.46c-.63-.24-.84-.53-.84-.63.02-.14.33-.52 1.22-.76zm-8.23-2.89c0-.12.29-.5 1.18-.74a9.51 9.51 0 012.55-.32 9.28 9.28 0 013 .46c.67.25.87.56.85.65-.02.09-.28.49-1.17.74a9.21 9.21 0 01-2.57.33 9 9 0 01-3-.47c-.64-.24-.85-.52-.85-.63zm-5 2.61l4.44-.63v1.37c0 .56.51.92 1.23 1.2a9.46 9.46 0 003.26.51 10.63 10.63 0 002.59-.31v2.21c0 .56.5.92 1.22 1.2a9.54 9.54 0 003.26.51 10.23 10.23 0 002.74-.34c.94-.3 1.55-.67 1.6-1.31v-3.36a10.25 10.25 0 002.55-.3v2.23c0 .56.5.92 1.22 1.2a9.5 9.5 0 003.26.51 10.33 10.33 0 002.74-.35c.93-.29 1.55-.65 1.59-1.31v-1.54l5 2.72-23 3.23zm37.27 22.32c-.09.06-23.4 3.28-23.4 3.28v-17.61l23.39-3.29s-.05 17.51-.04 17.62z" fill="#c91a20"/><path d="M53.418 51.232c0-.55-.5-.91-1.23-1.2a9.47 9.47 0 00-3.26-.5 10.13 10.13 0 00-2.72.34c-.94.28-1.55.66-1.6 1.3v1.38l-5.42.77a.23.23 0 00-.11 0 .19.19 0 000 .07v18.21a.35.35 0 000 .14v.05l3.83 2.09 10.7 5.82a.33.33 0 00.13 0l24-3.37a.18.18 0 00.1 0 .11.11 0 000-.06v-18.25a.25.25 0 000-.12v-.05l-6.06-3.29v-1.14c0-.56-.5-.91-1.22-1.2a9.55 9.55 0 00-3.26-.5h-.73l-1.85-1v-.94c0-.56-.51-.92-1.23-1.2a9.49 9.49 0 00-3.26-.52 10.14 10.14 0 00-2.73.35c-.93.28-1.55.65-1.6 1.29v1.19l-2.55.36" fill="#eb5859"/><path d="M78.038 58.122a.25.25 0 000-.12v-.05l-6.06-3.29v-1.14c0-.56-.5-.91-1.22-1.2a9.55 9.55 0 00-3.26-.5h-.73l-1.85-1v.67l.83.45a7.34 7.34 0 00-.84.18v-2.24c0-.56-.51-.92-1.23-1.2a9.49 9.49 0 00-3.26-.52 10.14 10.14 0 00-2.73.35c-.93.28-1.55.65-1.6 1.29v1.19l-2.55.36v.6l2.55-.36v1.53a9.93 9.93 0 00-2.7.34h.14v-2.24c0-.55-.5-.91-1.23-1.2a9.47 9.47 0 00-3.26-.5 10.13 10.13 0 00-2.72.34c-.94.28-1.55.66-1.6 1.3v1.38l-5.42.77a.23.23 0 00-.11 0 .19.19 0 000 .07v18.21a.35.35 0 000 .14v.05l3.83 2.09 10.7 5.82a.33.33 0 00.13 0l24-3.37a.18.18 0 00.1 0 .11.11 0 000-.06v-18.25zm-10.68-5.81a9 9 0 013 .47c.67.24.87.55.85.64-.02.09-.28.5-1.17.75a9.53 9.53 0 01-2.56.32 9.05 9.05 0 01-3-.47c-.64-.24-.85-.52-.85-.63 0-.12.29-.49 1.18-.73a9.13 9.13 0 012.55-.32zm-9.63-3.29a9.53 9.53 0 012.56-.32 8.85 8.85 0 013 .47c.66.25.87.55.84.65-.03.1-.28.49-1.17.74a9.55 9.55 0 01-2.56.31 8.86 8.86 0 01-3-.46c-.63-.24-.85-.52-.84-.63-.02-.14.29-.52 1.17-.76zm-4.3 5.1a10 10 0 012.56-.32 9.09 9.09 0 013 .47c.67.25.87.55.85.65-.02.1-.28.49-1.18.74a9.55 9.55 0 01-2.56.31 8.63 8.63 0 01-3.05-.46c-.63-.24-.84-.52-.84-.63.02-.19.33-.56 1.22-.76zm-8.23-2.89c0-.12.29-.49 1.18-.73a9.13 9.13 0 012.55-.32 9 9 0 013 .46c.67.25.87.55.85.64-.02.09-.28.5-1.17.75a9.61 9.61 0 01-2.57.32 9 9 0 01-3-.47c-.64-.24-.85-.52-.85-.62zm-5 2.61l4.44-.63v1.37c0 .56.51.92 1.23 1.2a9.46 9.46 0 003.26.51 10.16 10.16 0 002.59-.31v2.21c0 .56.5.92 1.22 1.2a9.54 9.54 0 003.26.51 10.23 10.23 0 002.74-.34c.94-.29 1.55-.66 1.6-1.31v-3.36a10.73 10.73 0 002.55-.31v2.24c0 .56.5.92 1.22 1.2a9.5 9.5 0 003.26.51 10.33 10.33 0 002.74-.34c.93-.29 1.55-.66 1.59-1.31v-1.55l5 2.72-23 3.23zm37.22 22.28c-.09.06-23.4 3.28-23.4 3.28v-17.61l23.39-3.28s0 17.49.01 17.61z" fill="#c91a20"/><path d="M53.418 32.942c0-.56-.5-.92-1.23-1.2a9.46 9.46 0 00-3.26-.51 9.74 9.74 0 00-2.72.35c-.94.28-1.55.65-1.6 1.29v1.38l-5.42.77a.23.23 0 00-.11 0v.05a.14.14 0 000 .06v18.21a.35.35 0 000 .13v.05l3.83 2.09 10.7 5.82a.33.33 0 00.13 0l24-3.37a.13.13 0 00.1 0 .14.14 0 000-.07v-18.21a.25.25 0 000-.12v-.05l-6.06-3.3v-1.14c0-.56-.5-.92-1.22-1.21a9.8 9.8 0 00-3.26-.5h-.73l-1.85-1v-.93c0-.56-.51-.92-1.23-1.2a9.26 9.26 0 00-3.26-.51 10.15 10.15 0 00-2.73.34c-.93.29-1.55.66-1.6 1.3v1.2l-2.55.35" fill="#eb5859"/><path d="M78.038 39.862a.25.25 0 000-.12v-.05l-6.06-3.3v-1.14c0-.56-.5-.92-1.22-1.21a9.8 9.8 0 00-3.26-.5h-.73l-1.85-1v.58l.83.45q-.44.07-.84.18v-2.23c0-.56-.51-.92-1.23-1.2a9.26 9.26 0 00-3.26-.51 10.15 10.15 0 00-2.73.34c-.93.29-1.55.66-1.6 1.3v1.2l-2.55.35v.61l2.55-.36v1.54a10.34 10.34 0 00-2.7.34h.14v-2.24c0-.56-.5-.92-1.23-1.2a9.46 9.46 0 00-3.26-.51 9.74 9.74 0 00-2.72.35c-.94.28-1.55.65-1.6 1.29v1.38l-5.42.77a.23.23 0 00-.11 0v.05a.14.14 0 000 .06v18.21a.35.35 0 000 .13v.05l3.83 2.09 10.7 5.82a.33.33 0 00.13 0l24-3.37a.13.13 0 00.1 0 .14.14 0 000-.07v-18.21zm-10.68-5.81a9 9 0 013 .47c.67.25.87.55.85.65-.02.1-.28.49-1.17.74a9.53 9.53 0 01-2.56.32 9.05 9.05 0 01-3-.47c-.64-.24-.85-.52-.85-.62 0-.12.29-.49 1.18-.73a9.13 9.13 0 012.55-.36zm-9.62-3.32a10 10 0 012.56-.32 9.09 9.09 0 013 .47c.66.25.87.55.84.65-.03.1-.28.49-1.17.74a9.53 9.53 0 01-2.56.32 8.85 8.85 0 01-3-.47c-.63-.24-.85-.52-.84-.63-.03-.13.28-.51 1.16-.76zm-4.31 5.05a9.59 9.59 0 012.56-.32 9.09 9.09 0 013 .47c.67.25.87.55.85.65-.02.1-.28.49-1.18.74a9.53 9.53 0 01-2.56.32 8.61 8.61 0 01-3.05-.47c-.63-.23-.84-.52-.84-.63.02-.13.33-.51 1.22-.76zm-8.23-2.89c0-.11.29-.49 1.18-.73a9.11 9.11 0 012.55-.33 9 9 0 013 .47c.67.25.87.55.85.65-.02.1-.28.49-1.17.74a9.22 9.22 0 01-2.57.32 9 9 0 01-3-.47c-.64-.24-.85-.52-.85-.62zm-5 2.61l4.44-.62v1.36c0 .56.51.91 1.23 1.19a9.22 9.22 0 003.26.51 10.16 10.16 0 002.59-.31v2.21c0 .56.5.92 1.22 1.2a9.54 9.54 0 003.26.51 10.23 10.23 0 002.74-.34c.94-.29 1.55-.66 1.6-1.31v-3.35a10.24 10.24 0 002.55-.31v2.24c0 .56.5.92 1.22 1.2a9.5 9.5 0 003.26.51 10.33 10.33 0 002.74-.34c.93-.29 1.55-.66 1.59-1.31v-1.55l5 2.72-23 3.24zm37.27 22.33c-.09.05-23.4 3.28-23.4 3.28v-17.61l23.39-3.29s-.05 17.5-.04 17.62z" fill="#c91a20"/><path d="M53.418 14.662c0-.56-.5-.91-1.23-1.2a9.46 9.46 0 00-3.26-.51 9.74 9.74 0 00-2.72.35c-.94.28-1.55.65-1.6 1.3v1.39l-5.42.76h-.11a.14.14 0 000 .07v18.21a.28.28 0 000 .13v.05l3.83 2.09 10.7 5.82h.13l24-3.37h.1a.14.14 0 000-.07v-18.21a.2.2 0 000-.11.1.1 0 000-.05l-6.06-3.29v-1.14c0-.56-.5-.92-1.22-1.2a9.54 9.54 0 00-3.26-.51h-.73l-1.85-1v-.94c0-.56-.51-.91-1.23-1.2a10.74 10.74 0 00-6-.16c-.93.28-1.55.65-1.6 1.29v1.2l-2.55.36" fill="#eb5859"/><path d="M78.038 21.572a.2.2 0 000-.11.1.1 0 000-.05l-6.06-3.29v-1.14c0-.56-.5-.92-1.22-1.2a9.54 9.54 0 00-3.26-.51h-.73l-1.85-1v.66l.83.46a7.34 7.34 0 00-.84.17v-2.23c0-.56-.51-.91-1.23-1.2a10.74 10.74 0 00-6-.16c-.93.28-1.55.65-1.6 1.29v1.2l-2.55.36v.6l2.55-.36v1.55a10.32 10.32 0 00-2.7.35h.14v-2.23c0-.56-.5-.91-1.23-1.2a9.46 9.46 0 00-3.26-.51 9.74 9.74 0 00-2.72.35c-.94.28-1.55.65-1.6 1.3v1.39l-5.42.76h-.11a.14.14 0 000 .07v18.21a.28.28 0 000 .13v.05l3.83 2.09 10.7 5.82h.13l24-3.37h.1a.14.14 0 000-.07v-18.21zm-10.68-5.8a9 9 0 013 .46c.67.25.87.55.85.65-.02.1-.28.49-1.17.74a9.15 9.15 0 01-2.56.32 8.81 8.81 0 01-3-.47c-.64-.24-.85-.51-.85-.62 0-.11.29-.49 1.18-.73a9.15 9.15 0 012.55-.35zm-9.62-3.32a9.52 9.52 0 012.56-.33 9.09 9.09 0 013 .47c.66.25.87.56.84.65-.03.09-.28.5-1.17.74a9.53 9.53 0 01-2.56.32 8.86 8.86 0 01-3-.46c-.63-.24-.85-.53-.84-.64-.03-.08.28-.51 1.16-.75zm-4.31 5.05a9.59 9.59 0 012.56-.32 8.85 8.85 0 013 .47c.67.25.87.55.85.64-.02.09-.28.5-1.18.75a10 10 0 01-2.56.31 8.86 8.86 0 01-3.05-.46c-.63-.24-.84-.53-.84-.63.02-.14.33-.52 1.22-.76zm-8.23-2.9c0-.12.29-.5 1.18-.74a9.51 9.51 0 012.55-.32 9.28 9.28 0 013 .46c.67.25.87.55.85.65-.02.1-.28.49-1.17.74a9.21 9.21 0 01-2.57.33 8.73 8.73 0 01-3-.48c-.64-.23-.85-.51-.85-.62zm-5 2.61l4.44-.62v1.36c0 .56.51.92 1.23 1.2a9.46 9.46 0 003.26.51 10.63 10.63 0 002.59-.31v2.21c0 .55.5.91 1.22 1.2a9.55 9.55 0 003.26.5 10.23 10.23 0 002.74-.34c.94-.29 1.55-.66 1.6-1.3v-3.36a10.74 10.74 0 002.55-.3v2.23c0 .56.5.91 1.22 1.19a9.26 9.26 0 003.26.51 10.33 10.33 0 002.74-.34c.93-.29 1.55-.65 1.59-1.31v-1.55l5 2.72-23 3.24zm37.27 22.33c-.09.06-23.4 3.28-23.4 3.28v-17.61l23.39-3.28s-.05 17.5-.04 17.61z" fill="#c91a20"/><path d="M29.428 109.452c0-.55-.5-.91-1.22-1.2a10.85 10.85 0 00-6-.15c-.94.27-1.55.65-1.59 1.29v1.38l-5.42.76h-.11v.05a.14.14 0 000 .06v18.21a.35.35 0 000 .13l3.83 2.09 10.7 5.82a.33.33 0 00.13 0l24-3.37a.25.25 0 00.11 0 .14.14 0 000-.07v-18.25a.27.27 0 000-.12v-.05l-6.05-3.3v-1.14c0-.55-.5-.91-1.22-1.2a9.55 9.55 0 00-3.26-.5h-.73l-1.85-1v-.95c0-.55-.5-.91-1.22-1.19a9.36 9.36 0 00-3.27-.51 10.15 10.15 0 00-2.73.34c-.93.29-1.55.65-1.59 1.3v1.19l-2.55.36" fill="#eb5859"/><path d="M54.058 116.372a.27.27 0 000-.12v-.05l-6.05-3.3v-1.14c0-.55-.5-.91-1.22-1.2a9.55 9.55 0 00-3.26-.5h-.73l-1.85-1v.67l.83.45q-.44.07-.84.18v-2.23c0-.55-.5-.91-1.22-1.19a9.36 9.36 0 00-3.27-.51 10.15 10.15 0 00-2.73.34c-.93.29-1.55.65-1.59 1.3v1.19l-2.55.36v.6l2.54-.36v1.55a9.8 9.8 0 00-2.69.34h.14v-2.24c0-.55-.5-.91-1.22-1.2a10.85 10.85 0 00-6-.15c-.94.27-1.55.65-1.59 1.29v1.38l-5.42.76h-.11v.05a.14.14 0 000 .06v18.21a.35.35 0 000 .13l3.83 2.09 10.7 5.82a.33.33 0 00.13 0l24-3.37a.25.25 0 00.11 0 .14.14 0 000-.07v-18.25zm-10.69-5.81a9.09 9.09 0 013 .47c.66.25.86.55.84.64-.02.09-.27.5-1.17.75a9.53 9.53 0 01-2.56.32 9.05 9.05 0 01-3-.47c-.64-.24-.84-.52-.84-.62 0-.12.28-.49 1.17-.74a9.53 9.53 0 012.56-.35zm-9.62-3.32a9.59 9.59 0 012.56-.32 9.09 9.09 0 013.05.47c.67.25.87.55.84.64-.03.09-.27.5-1.17.75a9.53 9.53 0 01-2.56.32 8.85 8.85 0 01-3-.47c-.63-.24-.85-.52-.84-.63-.08-.13.23-.51 1.1-.76zm-4.31 5.05a9.59 9.59 0 012.56-.32 9.05 9.05 0 013 .47c.67.25.87.55.85.65-.02.1-.28.49-1.17.74a9.66 9.66 0 01-2.57.32 8.85 8.85 0 01-3-.47c-.63-.24-.84-.52-.84-.63-.03-.13.28-.51 1.17-.76zm-8.23-2.89c0-.12.29-.49 1.18-.73a9.13 9.13 0 012.56-.33 9 9 0 013 .47c.67.25.87.55.85.64-.02.09-.28.5-1.17.75a9.56 9.56 0 01-2.57.32 9 9 0 01-3-.47c-.64-.24-.85-.52-.85-.62zm-5 2.61l4.44-.62v1.36c0 .56.51.91 1.23 1.19a9.5 9.5 0 003.26.51 10.11 10.11 0 002.59-.31v2.21c0 .56.51.92 1.22 1.2a9.58 9.58 0 003.26.51 10.23 10.23 0 002.74-.34c.94-.29 1.56-.66 1.6-1.3v-3.36a.09.09 0 000-.05 10.73 10.73 0 002.55-.31v2.24c0 .57.5.92 1.22 1.2a9.5 9.5 0 003.26.51 10.23 10.23 0 002.74-.34c.93-.29 1.55-.66 1.59-1.31v-1.55l5 2.72-23 3.23zm37.27 22.33c-.09 0-23.4 3.27-23.4 3.27v-17.6l23.39-3.29s-.05 17.5-.04 17.62z" fill="#c91a20"/><path d="M29.428 18.022c0-.56-.5-.91-1.22-1.2a9.54 9.54 0 00-3.26-.51 9.76 9.76 0 00-2.73.35c-.94.28-1.55.65-1.59 1.29v1.39l-5.42.76h-.11v.05a.14.14 0 000 .06v18.21a.28.28 0 000 .13v.05l3.83 2.09 10.7 5.82a.31.31 0 00.13 0l24-3.37h.11a.14.14 0 000-.07v-18.21a.21.21 0 000-.12v-.06l-6.05-3.3v-1.14c0-.56-.5-.92-1.22-1.2a9.54 9.54 0 00-3.26-.51h-.73l-1.85-1v-.94c0-.56-.5-.91-1.22-1.2a9.85 9.85 0 00-3.27-.51 10.15 10.15 0 00-2.73.34c-.93.29-1.55.66-1.59 1.3v1.21l-2.55.35" fill="#eb5859"/><path d="M54.058 24.942a.21.21 0 000-.12v-.06l-6.05-3.3v-1.14c0-.56-.5-.92-1.22-1.2a9.54 9.54 0 00-3.26-.51h-.73l-1.85-1v.66l.83.46a7.34 7.34 0 00-.84.17v-2.23c0-.56-.5-.91-1.22-1.2a9.85 9.85 0 00-3.27-.51 10.15 10.15 0 00-2.73.34c-.93.29-1.55.66-1.59 1.3v1.21l-2.55.35v.61l2.54-.36v1.53a9.79 9.79 0 00-2.69.35h.14v-2.27c0-.56-.5-.91-1.22-1.2a9.54 9.54 0 00-3.26-.51 9.76 9.76 0 00-2.73.35c-.94.28-1.55.65-1.59 1.29v1.39l-5.42.76h-.11v.05a.14.14 0 000 .06v18.21a.28.28 0 000 .13v.05l3.83 2.09 10.7 5.82a.31.31 0 00.13 0l24-3.37h.11a.14.14 0 000-.07v-18.21zm-10.69-5.82a9.11 9.11 0 013 .46c.66.25.86.55.84.65-.02.1-.27.49-1.17.74a9.15 9.15 0 01-2.56.32 8.81 8.81 0 01-3-.47c-.64-.23-.84-.51-.84-.62 0-.12.28-.5 1.17-.74a9.53 9.53 0 012.56-.34zm-9.62-3.32a9.57 9.57 0 012.56-.33 9.09 9.09 0 013.05.47c.67.25.87.56.84.65-.03.09-.27.5-1.17.74a9.53 9.53 0 01-2.56.32 9.11 9.11 0 01-3-.46c-.63-.24-.85-.53-.84-.63-.08-.13.23-.51 1.1-.75zm-4.31 5.05a9.59 9.59 0 012.56-.32 8.81 8.81 0 013 .47c.67.25.87.55.85.64-.02.09-.28.5-1.17.75a10.11 10.11 0 01-2.57.31 8.86 8.86 0 01-3-.46c-.63-.24-.84-.53-.84-.63-.03-.13.28-.49 1.17-.75zm-8.23-2.9c0-.12.29-.5 1.18-.74a9.53 9.53 0 012.56-.32 9.26 9.26 0 013 .46c.67.25.87.56.85.65-.02.09-.28.49-1.17.74a9.17 9.17 0 01-2.57.32 8.79 8.79 0 01-3-.47c-.64-.23-.85-.51-.85-.62zm-5 2.61l4.44-.62v1.37c0 .56.51.92 1.23 1.19a9.25 9.25 0 003.26.52 10.57 10.57 0 002.59-.31v2.21c0 .56.51.91 1.22 1.2a9.59 9.59 0 003.26.5 10.24 10.24 0 002.74-.33c.94-.3 1.56-.67 1.6-1.31v-3.36a10.25 10.25 0 002.55-.3v2.23c0 .56.5.92 1.22 1.19a9.25 9.25 0 003.26.52 10.22 10.22 0 002.74-.35c.93-.29 1.55-.65 1.59-1.31v-1.54l5 2.72-23 3.23zm37.27 22.33c-.09.06-23.4 3.28-23.4 3.28v-17.61l23.39-3.28s-.05 17.51-.04 17.62z" fill="#c91a20"/></svg>