<svg xmlns="http://www.w3.org/2000/svg" viewBox="0 0 125.946 124.141"><path d="M86.258 79.701c0-.53-.5-.86-1.22-1.13a11.38 11.38 0 00-6-.15c-.93.26-1.54.61-1.59 1.22v1.31l-5.41.72h-.11v.06l-.22 17.41a.22.22 0 000 .12l3.83 2 10.69 5.49a.28.28 0 00.13 0l24-3.18h.11v-17.25a.5.5 0 000-.12l-6-3.11v-1.07c0-.53-.49-.87-1.22-1.14a10 10 0 00-3.26-.48h-.72l-1.85-.95v-.88c0-.52-.51-.86-1.23-1.13a9.78 9.78 0 00-3.26-.48 10.52 10.52 0 00-2.72.32c-.93.27-1.55.62-1.6 1.23v1.12l-2.54.34" fill="#33abe1"/><path d="M110.858 86.231a.5.5 0 000-.12l-6-3.11v-1.07c0-.53-.49-.87-1.22-1.14a10 10 0 00-3.26-.48h-.72l-1.85-.95v.63l.83.43a7.34 7.34 0 00-.84.17v-2.11c0-.52-.51-.86-1.23-1.13a9.78 9.78 0 00-3.26-.48 10.52 10.52 0 00-2.72.32c-.93.27-1.55.62-1.6 1.23v1.12l-2.54.34v.57l2.54-.34v1.44a10.63 10.63 0 00-2.68.33h.13v-2.11c0-.53-.5-.86-1.22-1.13a11.38 11.38 0 00-6-.15c-.93.26-1.54.61-1.59 1.22v1.31l-5.41.72h-.11v.06l-.4 17.34a.22.22 0 000 .12l3.83 2 10.69 5.49a.28.28 0 00.13 0l24-3.18h.11v-17.25zm-10.68-5.48a9.62 9.62 0 013 .43c.66.24.87.53.84.62-.03.09-.27.46-1.16.7a10.13 10.13 0 01-2.57.3 9.57 9.57 0 01-3-.44c-.64-.23-.85-.49-.85-.59 0-.12.29-.47 1.18-.7a10 10 0 012.56-.32zm-9.6-3.14a9.91 9.91 0 012.55-.3 9.4 9.4 0 013.05.44c.66.24.87.52.84.61-.03.09-.28.47-1.17.7a10 10 0 01-2.56.3 9.14 9.14 0 01-3.05-.44c-.63-.22-.84-.49-.84-.59-.02-.13.31-.49 1.18-.72zm-4.31 4.77a10 10 0 012.56-.31 9.39 9.39 0 013 .45c.66.23.86.52.84.61-.02.09-.28.46-1.17.7a10 10 0 01-2.57.3 9.38 9.38 0 01-3-.44c-.63-.22-.84-.49-.84-.59-.02-.13.29-.49 1.18-.72zm-8.22-2.74c0-.11.28-.47 1.17-.7a10 10 0 012.56-.3 9.57 9.57 0 013 .44c.67.23.87.52.84.61-.03.09-.27.47-1.16.7a10 10 0 01-2.56.31 9.34 9.34 0 01-3.05-.45c-.63-.22-.84-.48-.84-.59zm-5.05 2.5l4.44-.59v1.29c0 .53.51.87 1.22 1.13a9.78 9.78 0 003.26.48 11.1 11.1 0 002.59-.29v2.09c0 .52.5.86 1.22 1.13a10 10 0 003.26.48 10.6 10.6 0 002.73-.32c.94-.28 1.56-.62 1.6-1.24v-3.17a10.73 10.73 0 002.54-.29v2.11c0 .52.5.86 1.22 1.13a10 10 0 003.26.48 10.64 10.64 0 002.73-.33c.93-.27 1.55-.62 1.59-1.23v-1.82.36l5 2.56-23 3.06zm37.23 21c-.08.05-23.37 3.1-23.37 3.1v-16.62l23.37-3.1s-.01 16.56 0 16.62z" fill="#237dba"/><path d="M62.278 82.891c0-.52-.5-.86-1.22-1.13a10 10 0 00-3.26-.48 10.69 10.69 0 00-2.73.33c-.93.26-1.54.62-1.59 1.23v1.3l-5.42.72a.19.19 0 00-.1 0v.05a.14.14 0 010 .06v17.19a.25.25 0 000 .12l3.83 2 10.7 5.5h.13l24-3.18a.21.21 0 00.1 0 .08.08 0 000-.06v-17.18a.2.2 0 000-.11l-6-3.11v-1.07c0-.53-.5-.86-1.22-1.13a10.08 10.08 0 00-3.26-.48h-.73l-1.85-1v-.89c0-.53-.5-.87-1.22-1.14a10.36 10.36 0 00-3.26-.48 10.58 10.58 0 00-2.73.33c-.93.27-1.55.61-1.59 1.22v1.13l-2.55.34" fill="#33abe1"/><path d="M86.878 89.421a.2.2 0 000-.11l-6-3.11v-1.07c0-.53-.5-.86-1.22-1.13a10.08 10.08 0 00-3.26-.48h-.73l-1.85-1v.63l.83.42c-.29 0-.57.1-.83.17v-2.11c0-.53-.5-.87-1.22-1.14a10.36 10.36 0 00-3.26-.48 10.58 10.58 0 00-2.73.33c-.93.27-1.55.61-1.59 1.22v1.13l-2.55.34v.57l2.54-.34v1.44a10.22 10.22 0 00-2.69.33h.14v-2.11c0-.52-.5-.86-1.22-1.13a10 10 0 00-3.26-.48 10.69 10.69 0 00-2.73.33c-.93.26-1.54.62-1.59 1.23v1.27l-5.42.72a.19.19 0 00-.1 0v.05a.14.14 0 010 .06v17.19a.25.25 0 000 .12l3.83 2 10.7 5.5h.13l24-3.18a.21.21 0 00.1 0 .08.08 0 000-.06v-17.18zm-10.67-5.48a9.57 9.57 0 013 .44c.67.23.87.52.85.61-.02.09-.28.47-1.17.7a10 10 0 01-2.56.31 9.34 9.34 0 01-3-.45c-.63-.23-.84-.49-.84-.59 0-.11.28-.47 1.17-.69a9.55 9.55 0 012.55-.33zm-9.61-3.13a10 10 0 012.56-.31 9.28 9.28 0 013 .45c.67.23.87.52.85.61-.02.09-.28.46-1.17.7a10.6 10.6 0 01-2.57.3 9.57 9.57 0 01-3-.44c-.63-.23-.85-.5-.84-.6-.03-.13.28-.48 1.17-.71zm-4.31 4.76a10.52 10.52 0 012.56-.3 9.69 9.69 0 013.05.44c.66.24.87.52.84.61-.03.09-.28.47-1.17.7a10 10 0 01-2.56.3 9.14 9.14 0 01-3-.44c-.63-.22-.84-.49-.83-.59-.08-.15.22-.49 1.11-.72zm-8.22-2.73c0-.11.29-.46 1.18-.69a9.91 9.91 0 012.55-.3 9.7 9.7 0 013 .43c.66.24.86.52.84.61-.02.09-.27.47-1.17.71a10 10 0 01-2.56.3 9.69 9.69 0 01-3-.44c-.63-.23-.84-.49-.84-.59zm-5 2.46l4.43-.58v1.28c0 .53.51.87 1.23 1.13a10 10 0 003.26.48 11.08 11.08 0 002.58-.29v2.08c0 .53.5.86 1.21 1.14a10.42 10.42 0 003.26.47 10.73 10.73 0 002.74-.32c.93-.27 1.55-.62 1.59-1.23v-3.17a10.77 10.77 0 002.55-.28v2.08c0 .53.5.87 1.22 1.13a10 10 0 003.26.48 10.65 10.65 0 002.73-.32c.93-.27 1.55-.62 1.59-1.24v-1.81.35l5 2.57-23 3zm37.23 21.08c-.09 0-23.37 3.09-23.37 3.09v-16.62l23.37-3.1s-.05 16.52-.04 16.63z" fill="#237dba"/><path d="M38.328 86.081c0-.53-.5-.86-1.23-1.13a10 10 0 00-3.26-.48 10.14 10.14 0 00-2.72.33c-.93.26-1.54.61-1.59 1.22v1.3l-5.41.72h-.11v17.25a.28.28 0 000 .13v.05l3.83 2 10.69 5.49h.12l24-3.18h.11v-17.25a.36.36 0 000-.1l-6-3.11v-1.18c0-.52-.5-.86-1.22-1.13a10 10 0 00-3.26-.48h-.72l-1.85-1v-.88c0-.53-.5-.86-1.22-1.13a10 10 0 00-3.26-.48 10.47 10.47 0 00-2.72.32c-.94.27-1.55.62-1.6 1.22v1.12l-2.54.34" fill="#33abe1"/><path d="M62.928 92.601a.36.36 0 000-.1l-6-3.11v-1.25c0-.52-.5-.86-1.22-1.13a10 10 0 00-3.26-.48h-.72l-1.85-1v.63l.84.43c-.29.05-.58.1-.84.17v-2.11c0-.53-.5-.86-1.22-1.13a10 10 0 00-3.26-.48 10.47 10.47 0 00-2.72.32c-.94.27-1.55.62-1.6 1.22v1.12l-2.54.34v.57l2.55-.34v1.44a10.77 10.77 0 00-2.69.33h.14v-2.11c0-.53-.5-.86-1.23-1.13a10 10 0 00-3.26-.48 10.14 10.14 0 00-2.72.33c-.93.26-1.54.61-1.59 1.22v1.3l-5.41.72h-.11v17.25a.28.28 0 000 .13v.05l3.83 2 10.69 5.49h.12l24-3.18h.11v-17.29zm-10.68-5.46a9.59 9.59 0 013 .43c.67.24.87.53.85.61-.02.08-.27.47-1.17.71a10 10 0 01-2.56.3 9.69 9.69 0 01-3.05-.44c-.63-.23-.84-.49-.84-.59 0-.12.29-.47 1.18-.7a9.86 9.86 0 012.59-.32zm-9.61-3.14a10.52 10.52 0 012.56-.3 9.4 9.4 0 013 .44c.66.24.86.52.84.61-.02.09-.28.47-1.17.7a10 10 0 01-2.56.3 9.14 9.14 0 01-3-.44c-.63-.22-.84-.49-.84-.59-.03-.14.24-.5 1.17-.73zm-4.3 4.77a10 10 0 012.56-.31 9.28 9.28 0 013 .45c.67.23.87.52.85.61-.02.09-.28.47-1.17.7a10.13 10.13 0 01-2.57.3 9.3 9.3 0 01-3-.44c-.63-.22-.85-.49-.84-.6-.03-.13.28-.49 1.17-.72zm-8.23-2.73c0-.11.29-.46 1.18-.7a10 10 0 012.55-.3 9.6 9.6 0 013 .44c.67.24.87.52.84.61-.03.09-.27.47-1.16.7a9.6 9.6 0 01-2.57.3 9.34 9.34 0 01-3-.44c-.64-.22-.85-.49-.85-.58zm-5 2.46l4.44-.59v1.29c0 .52.5.86 1.22 1.12a9.78 9.78 0 003.26.48 11.16 11.16 0 002.59-.29v2.09c0 .52.5.86 1.22 1.13a10 10 0 003.26.48 10.6 10.6 0 002.73-.32c.94-.28 1.56-.63 1.6-1.24v-3.16a11.3 11.3 0 002.55-.29v2.08c0 .52.51.86 1.23 1.13a10 10 0 003.26.48 10.64 10.64 0 002.73-.33c.93-.27 1.55-.61 1.59-1.23v-1.46l5 2.57-23 3zm37.23 21.07c-.08.05-23.37 3.1-23.37 3.1v-16.62l23.37-3.1s-.05 16.51-.04 16.61z" fill="#237dba"/><path d="M14.358 89.251c0-.52-.5-.86-1.22-1.13a11.38 11.38 0 00-6-.15c-.93.26-1.54.62-1.59 1.22v1.31l-5.41.71h-.11a.11.11 0 000 .06v17.18a.27.27 0 000 .13l3.83 2 10.69 5.49a.28.28 0 00.13 0l24-3.18h.1v-17.29a.36.36 0 000-.11v-.05l-6.05-3.11v-1.08c0-.53-.5-.87-1.23-1.14a10 10 0 00-3.26-.47h-.72l-1.85-1v-.89c0-.52-.51-.86-1.23-1.13a10 10 0 00-3.26-.48 10.52 10.52 0 00-2.72.32c-.93.27-1.55.62-1.6 1.23v1.12l-2.54.34" fill="#33abe1"/><path d="M38.958 95.781a.36.36 0 000-.11v-.05l-6.05-3.11v-1.08c0-.53-.5-.87-1.23-1.14a10 10 0 00-3.26-.47h-.72l-1.85-1v.62l.83.43c-.29 0-.57.1-.84.17v-2.11c0-.52-.51-.86-1.23-1.13a10 10 0 00-3.26-.48 10.52 10.52 0 00-2.72.32c-.93.27-1.55.62-1.6 1.23v1.12l-2.54.34v.57l2.54-.34v1.44a11.11 11.11 0 00-2.68.33h.13v-2.11c0-.52-.5-.86-1.22-1.13a11.38 11.38 0 00-6-.15c-.93.26-1.54.62-1.59 1.22v1.31l-5.41.71h-.11a.11.11 0 000 .06v17.18a.27.27 0 000 .13l3.83 2 10.69 5.49a.28.28 0 00.13 0l24-3.18h.1v-17.29zm-10.68-5.48a9.62 9.62 0 013 .43c.66.24.87.53.84.62-.03.09-.27.46-1.16.7a10.13 10.13 0 01-2.57.3 9.57 9.57 0 01-3-.44c-.64-.23-.85-.49-.85-.59 0-.12.29-.47 1.18-.7a10 10 0 012.56-.32zm-9.57-3.16a10.43 10.43 0 012.55-.3 9.4 9.4 0 013.05.44c.66.24.87.52.84.61-.03.09-.27.47-1.17.7a10 10 0 01-2.56.3 9.14 9.14 0 01-3-.44c-.62-.22-.84-.49-.83-.59-.11-.11.2-.47 1.12-.72zm-4.31 4.77a10.52 10.52 0 012.56-.3 9.4 9.4 0 013 .44c.66.24.86.52.84.61-.02.09-.28.47-1.17.7a10 10 0 01-2.56.3 9.4 9.4 0 01-3-.44c-.63-.22-.84-.49-.84-.59-.06-.11.25-.49 1.14-.7zm-8.22-2.73c0-.11.28-.47 1.17-.69a10 10 0 012.56-.31 9.57 9.57 0 013 .44c.67.24.87.52.85.61-.02.09-.28.47-1.17.7a9.55 9.55 0 01-2.56.31 9.34 9.34 0 01-3.05-.45c-.63-.22-.84-.48-.84-.58zm-5.05 2.46l4.44-.59v1.29c0 .52.51.86 1.23 1.12a9.66 9.66 0 003.25.49 10.58 10.58 0 002.59-.3v2.09c0 .53.5.86 1.22 1.13a10.08 10.08 0 003.26.48 10.6 10.6 0 002.73-.32c.94-.27 1.56-.62 1.6-1.24v-3.16a10.67 10.67 0 002.54-.29v2.11c0 .53.5.87 1.22 1.13a10 10 0 003.26.48 10.64 10.64 0 002.73-.33c.93-.27 1.55-.61 1.59-1.23v-1.81.35l5 2.57-23 3zm37.23 21.07c-.08.06-23.37 3.1-23.37 3.1v-16.62l23.37-3.1s-.04 16.54-.03 16.64z" fill="#237dba"/><path d="M14.358 71.991c0-.52-.5-.86-1.22-1.13a10.08 10.08 0 00-3.26-.48 10.58 10.58 0 00-2.73.33c-.93.26-1.54.62-1.59 1.22v1.31l-5.41.71h-.11a.14.14 0 000 .06v17.18a.27.27 0 000 .13l3.83 2 10.65 5.82a.28.28 0 00.13 0l24-3.18h.1v-17.29a.36.36 0 000-.11v-.05l-5.99-3.37v-1c0-.53-.5-.87-1.23-1.14a10 10 0 00-3.26-.47h-.72l-1.85-1v-.89c0-.52-.51-.86-1.23-1.13a10 10 0 00-3.26-.48 11 11 0 00-2.72.32c-.93.28-1.55.62-1.6 1.23v1.13l-2.54.33" fill="#33abe1"/><path d="M38.958 78.521a.36.36 0 000-.11v-.05l-6.2-3.22v-1c0-.53-.5-.87-1.23-1.14a10 10 0 00-3.26-.47h-.72l-1.85-1v.61l.83.43c-.29 0-.57.1-.84.17v-2.11c0-.52-.51-.86-1.23-1.13a10 10 0 00-3.26-.48 11 11 0 00-2.72.32c-.93.28-1.55.62-1.6 1.23v1.13l-2.54.33v.57l2.54-.34v1.44a10.64 10.64 0 00-2.68.32h.13v-2.11c0-.52-.5-.86-1.22-1.13a10.08 10.08 0 00-3.26-.48 10.58 10.58 0 00-2.73.33c-.93.26-1.54.62-1.59 1.22v1.31l-5.41.71h-.11a.14.14 0 000 .06v17.18a.27.27 0 000 .13l3.83 2 10.68 5.9a.28.28 0 00.13 0l24-3.18h.1v-17.29zm-10.68-5.48a9.6 9.6 0 013 .44c.66.23.87.52.84.61-.03.09-.27.46-1.16.7a10.13 10.13 0 01-2.57.3 9.57 9.57 0 01-3-.44c-.64-.23-.85-.49-.85-.59 0-.12.29-.47 1.18-.7a10 10 0 012.56-.32zm-9.6-3.14a10.43 10.43 0 012.55-.3 9.69 9.69 0 013.05.44c.66.24.87.53.84.61-.03.08-.27.47-1.17.71a10.48 10.48 0 01-2.56.29 9.14 9.14 0 01-3-.44c-.62-.22-.84-.49-.83-.59-.08-.13.23-.48 1.15-.72zm-4.31 4.77a10 10 0 012.56-.3 9.69 9.69 0 013 .44c.66.24.86.52.84.61-.02.09-.28.47-1.17.7a10 10 0 01-2.56.3 9.14 9.14 0 01-3-.44c-.63-.22-.84-.49-.84-.59-.03-.13.28-.49 1.17-.72zm-8.22-2.73c0-.11.28-.46 1.17-.69a10 10 0 012.56-.3 9.59 9.59 0 013 .43c.67.24.87.53.85.61-.02.08-.28.47-1.17.71a10 10 0 01-2.56.3 9.64 9.64 0 01-3.05-.44c-.63-.23-.84-.49-.84-.59zm-5.05 2.46l4.44-.59v1.33c0 .52.51.86 1.23 1.13a9.93 9.93 0 003.25.48 11.1 11.1 0 002.59-.29v2.08c0 .53.5.87 1.22 1.13a10.08 10.08 0 003.26.48 10.6 10.6 0 002.73-.32c.94-.27 1.56-.62 1.6-1.23v-3.17a10.69 10.69 0 002.54-.28v2.11c0 .53.5.86 1.22 1.13a10 10 0 003.26.48 10.64 10.64 0 002.73-.33c.93-.26 1.55-.61 1.59-1.23v-1.81.35l5 2.57-23 3zm37.23 21.07c-.08.06-23.37 3.1-23.37 3.1v-16.62l23.37-3.1s-.01 16.52 0 16.62z" fill="#237dba"/><path d="M14.358 54.731c0-.53-.5-.87-1.22-1.14a10.08 10.08 0 00-3.26-.48 10.58 10.58 0 00-2.73.33c-.93.27-1.54.62-1.59 1.22v1.31l-5.41.72h-.11a.1.1 0 000 .05.14.14 0 000 .06v17.19a.25.25 0 000 .12l3.83 2 10.69 5.49a.28.28 0 00.13 0l24-3.18h.1v-17.3a.36.36 0 000-.11v-.05l-6.05-3.11v-1.08c0-.53-.5-.87-1.23-1.14a10.29 10.29 0 00-3.26-.47h-.72l-1.85-1v-.89c0-.52-.51-.86-1.23-1.13a10 10 0 00-3.26-.48 11 11 0 00-2.72.32c-.93.27-1.55.62-1.6 1.23v1.13l-2.54.33" fill="#33abe1"/><path d="M38.958 61.261a.36.36 0 000-.11v-.05l-6.05-3.11v-1.08c0-.53-.5-.87-1.23-1.14a10.29 10.29 0 00-3.26-.47h-.72l-1.85-1v.62l.83.43c-.29 0-.57.1-.84.17v-2.11c0-.52-.51-.86-1.23-1.13a10 10 0 00-3.26-.48 11 11 0 00-2.72.32c-.93.27-1.55.62-1.6 1.23v1.13l-2.54.33v.57l2.54-.34v1.44a10.64 10.64 0 00-2.68.32h.13v-2.11c0-.53-.5-.87-1.22-1.14a10.08 10.08 0 00-3.26-.48 10.58 10.58 0 00-2.73.33c-.93.27-1.54.62-1.59 1.22v1.31l-5.41.72h-.11a.1.1 0 000 .05.14.14 0 000 .06v17.19a.25.25 0 000 .12l3.83 2 10.69 5.49a.28.28 0 00.13 0l24-3.18h.1v-17.3zm-10.68-5.48a9.6 9.6 0 013 .44c.66.23.87.52.84.61-.03.09-.27.46-1.16.7a10.13 10.13 0 01-2.57.3 9.57 9.57 0 01-3-.44c-.64-.23-.85-.49-.85-.59 0-.11.29-.47 1.18-.7a10 10 0 012.56-.32zm-9.57-3.14a10.43 10.43 0 012.55-.3 9.69 9.69 0 013.05.44c.66.24.87.53.84.61-.03.08-.27.47-1.17.71a10.48 10.48 0 01-2.56.29 9.42 9.42 0 01-3-.43c-.62-.23-.84-.5-.83-.6-.11-.13.2-.49 1.12-.72zm-4.31 4.77a10 10 0 012.56-.3 9.69 9.69 0 013 .44c.66.24.86.52.84.61-.02.09-.28.47-1.17.7a10 10 0 01-2.56.3 9.14 9.14 0 01-3-.44c-.63-.22-.84-.49-.84-.59-.06-.13.25-.49 1.14-.72zm-8.22-2.73c0-.12.28-.47 1.17-.7a10 10 0 012.56-.3 9.59 9.59 0 013 .43c.67.24.87.53.85.62-.02.09-.28.46-1.17.7a10 10 0 01-2.56.3 9.64 9.64 0 01-3.05-.44c-.63-.23-.84-.49-.84-.59zm-5.08 2.46l4.44-.59v1.29c0 .53.51.86 1.23 1.13a9.93 9.93 0 003.25.48 11.1 11.1 0 002.59-.29v2.08c0 .53.5.87 1.22 1.14a10.09 10.09 0 003.26.47 10.6 10.6 0 002.73-.32c.94-.27 1.56-.62 1.6-1.23v-3.17a10.69 10.69 0 002.54-.28v2.11c0 .53.5.86 1.22 1.13a10 10 0 003.26.48 10.65 10.65 0 002.73-.32c.93-.27 1.55-.62 1.59-1.24v-1.81.35l5 2.57-23 3zm37.23 21.08c-.08 0-23.37 3.09-23.37 3.09v-16.62l23.37-3.1s-.01 16.55 0 16.63z" fill="#237dba"/><path d="M14.358 37.471c0-.53-.5-.87-1.22-1.14a10.09 10.09 0 00-3.26-.47 10.6 10.6 0 00-2.73.32c-.93.27-1.54.62-1.59 1.22v1.31l-5.41.72h-.11a.1.1 0 000 .05.14.14 0 000 .06v17.18a.27.27 0 000 .13.1.1 0 000 .05l3.83 2 10.69 5.49a.28.28 0 00.13 0l24-3.18a.14.14 0 00.1 0v-17.28a.36.36 0 000-.11v-.05l-6.05-3.11v-1.08c0-.53-.5-.86-1.23-1.13a10 10 0 00-3.26-.48h-.72l-1.85-.95v-.88c0-.53-.51-.87-1.23-1.14a10.32 10.32 0 00-3.26-.48 11 11 0 00-2.72.32c-.93.27-1.55.62-1.6 1.23v1.13l-2.54.34" fill="#33abe1"/><path d="M38.958 44.001a.36.36 0 000-.11v-.05l-6.05-3.11v-1.08c0-.53-.5-.86-1.23-1.13a10 10 0 00-3.26-.48h-.72l-1.85-.95v.63l.83.42c-.29.05-.57.1-.84.17v-2.11c0-.53-.51-.87-1.23-1.14a10.32 10.32 0 00-3.26-.48 11 11 0 00-2.72.32c-.93.27-1.55.62-1.6 1.23v1.13l-2.54.34v.54l2.54-.33v1.44a10.64 10.64 0 00-2.68.32h.13v-2.11c0-.53-.5-.87-1.22-1.14a10.09 10.09 0 00-3.26-.47 10.6 10.6 0 00-2.73.32c-.93.27-1.54.62-1.59 1.22v1.31l-5.41.72h-.11a.1.1 0 000 .05.14.14 0 000 .06v17.18a.27.27 0 000 .13.1.1 0 000 .05l3.83 2 10.69 5.49a.28.28 0 00.13 0l24-3.18a.14.14 0 00.1 0v-17.28zm-10.68-5.48a9.6 9.6 0 013 .44c.66.23.87.52.84.61-.03.09-.27.46-1.16.7a10.13 10.13 0 01-2.57.3 9.3 9.3 0 01-3-.44c-.64-.23-.85-.49-.85-.59 0-.11.29-.47 1.18-.7a10 10 0 012.56-.32zm-9.6-3.14a10.43 10.43 0 012.55-.3 9.69 9.69 0 013.05.44c.66.24.87.53.84.62-.03.09-.27.46-1.17.7a10.48 10.48 0 01-2.56.29 9.42 9.42 0 01-3-.43c-.62-.23-.84-.5-.83-.6-.08-.13.23-.49 1.15-.72zm-4.31 4.76a10.52 10.52 0 012.56-.3 9.69 9.69 0 013 .44c.66.24.86.52.84.61-.02.09-.28.47-1.17.7a10 10 0 01-2.56.3 9.42 9.42 0 01-3-.43c-.63-.23-.84-.5-.84-.6-.03-.12.28-.48 1.17-.72zm-8.22-2.73c0-.11.28-.46 1.17-.69a10 10 0 012.56-.3 9.59 9.59 0 013 .43c.67.24.87.53.85.62-.02.09-.28.46-1.17.7a10 10 0 01-2.56.3 9.64 9.64 0 01-3.05-.44c-.63-.23-.84-.49-.84-.59zm-5.05 2.46l4.44-.59v1.29c0 .53.51.86 1.23 1.13a9.93 9.93 0 003.25.48 11.1 11.1 0 002.59-.29v2.08c0 .53.5.86 1.22 1.13a9.82 9.82 0 003.26.48 10.6 10.6 0 002.73-.32c.94-.27 1.56-.62 1.6-1.23v-3.17a10.69 10.69 0 002.54-.28v2.11c0 .53.5.87 1.22 1.13a9.78 9.78 0 003.26.48 10.65 10.65 0 002.73-.32c.93-.27 1.55-.62 1.59-1.24v-1.81.35l5 2.57-23 3.05zm37.23 21.08c-.08 0-23.37 3.09-23.37 3.09v-16.62l23.37-3.1s-.01 16.53 0 16.64z" fill="#237dba"/><path d="M14.358 20.211c0-.52-.5-.86-1.22-1.13a10.09 10.09 0 00-3.26-.47 10.6 10.6 0 00-2.73.32c-.93.26-1.54.62-1.59 1.22v1.31l-5.41.72h-.11a.1.1 0 000 .05.14.14 0 000 .06v17.19a.25.25 0 000 .12.1.1 0 000 .05l3.83 2 10.69 5.49a.28.28 0 00.13 0l24-3.18a.21.21 0 00.1 0v-17.28a.36.36 0 000-.11v-.05l-6.05-3.11v-1.07c0-.53-.5-.87-1.23-1.13a10 10 0 00-3.26-.48h-.72l-1.85-.95v-.89c0-.53-.51-.87-1.23-1.14a10.32 10.32 0 00-3.26-.48 10.51 10.51 0 00-2.72.33c-.93.27-1.55.61-1.6 1.22v1.13l-2.54.34" fill="#33abe1"/><path d="M38.958 26.741a.36.36 0 000-.11v-.05l-6.05-3.11v-1.07c0-.53-.5-.87-1.23-1.13a10 10 0 00-3.26-.48h-.72l-1.85-.95v.62l.83.44c-.29 0-.57.1-.84.16v-2.11c0-.53-.51-.87-1.23-1.14a10.32 10.32 0 00-3.26-.48 10.51 10.51 0 00-2.72.33c-.93.27-1.55.61-1.6 1.22v1.13l-2.54.34v.56l2.54-.33v1.44a10.64 10.64 0 00-2.68.32h.13v-2.11c0-.52-.5-.86-1.22-1.13a10.09 10.09 0 00-3.26-.47 10.6 10.6 0 00-2.73.32c-.93.26-1.54.62-1.59 1.22v1.31l-5.41.72h-.11a.1.1 0 000 .05.14.14 0 000 .06v17.19a.25.25 0 000 .12.1.1 0 000 .05l3.83 2 10.69 5.49a.5.5 0 00.13 0l24-3.18a.14.14 0 00.1 0v-17.29zm-10.68-5.48a9.6 9.6 0 013 .44c.66.23.87.52.84.61-.03.09-.27.46-1.16.7a10.13 10.13 0 01-2.57.3 9.3 9.3 0 01-3-.44c-.64-.22-.85-.49-.85-.59 0-.11.29-.47 1.18-.7a10 10 0 012.56-.32zm-9.57-3.12a10 10 0 012.55-.31 9.69 9.69 0 013.05.44c.66.24.87.53.84.62-.03.09-.27.46-1.17.7a10.46 10.46 0 01-2.56.3 9.69 9.69 0 01-3-.44c-.62-.23-.84-.5-.83-.6-.11-.13.2-.5 1.12-.71zm-4.31 4.76a10.52 10.52 0 012.56-.3 9.69 9.69 0 013 .44c.66.24.86.52.84.62-.02.1-.28.46-1.17.7a10.48 10.48 0 01-2.56.29 9.42 9.42 0 01-3-.43c-.63-.23-.84-.5-.84-.6-.06-.14.25-.48 1.14-.73zm-8.25-2.76c0-.12.28-.47 1.17-.7a10 10 0 012.56-.3 9.59 9.59 0 013 .43c.67.24.87.53.85.61-.02.08-.28.47-1.17.71a10 10 0 01-2.56.3 9.64 9.64 0 01-3.05-.44c-.63-.23-.84-.49-.84-.59zm-5.05 2.46l4.44-.59v1.3c0 .53.51.86 1.23 1.13a9.93 9.93 0 003.25.48 11.1 11.1 0 002.59-.29v2.08c0 .53.5.87 1.22 1.13a9.82 9.82 0 003.26.48 10.6 10.6 0 002.73-.32c.94-.27 1.56-.62 1.6-1.23v-3.22a10.69 10.69 0 002.54-.28v2.11c0 .53.5.87 1.22 1.13a9.78 9.78 0 003.26.48 11.11 11.11 0 002.73-.32c.93-.27 1.55-.62 1.59-1.24v-1.81.35l5 2.57-23 3.05zm37.23 21.08c-.08.05-23.37 3.09-23.37 3.09v-16.62l23.37-3.1s-.01 16.54 0 16.65z" fill="#237dba"/><path d="M14.358 2.951c0-.53-.5-.87-1.22-1.14a10.09 10.09 0 00-3.26-.47 10.6 10.6 0 00-2.73.32c-.93.26-1.54.62-1.59 1.23v1.31l-5.41.72h-.11a.1.1 0 000 .05.14.14 0 000 .06v17.19a.25.25 0 000 .12l3.83 2 10.65 5.8a.28.28 0 00.13 0l24-3.18a.21.21 0 00.1 0V9.681a.36.36 0 000-.11v-.05l-5.99-3.38v-1.07c0-.53-.5-.86-1.23-1.13a10 10 0 00-3.26-.48h-.72l-1.85-.95v-.89c0-.53-.51-.86-1.23-1.14a10.32 10.32 0 00-3.26-.48 10.51 10.51 0 00-2.72.33c-.93.27-1.55.62-1.6 1.22v1.13l-2.54.34" fill="#33abe1"/><path d="M38.958 9.481a.36.36 0 000-.11v-.05l-6.2-3.18v-1.07c0-.53-.5-.86-1.23-1.13a10 10 0 00-3.26-.48h-.72l-1.85-.95v.63l.83.43c-.29 0-.57.1-.84.16v-2.11c0-.53-.51-.86-1.23-1.14a10.32 10.32 0 00-3.26-.48 10.51 10.51 0 00-2.72.33c-.93.27-1.55.62-1.6 1.22v1.13l-2.54.34v.57l2.54-.34v1.44a10.64 10.64 0 00-2.68.32h.13v-2.11c0-.53-.5-.87-1.22-1.14a10.09 10.09 0 00-3.26-.47 10.6 10.6 0 00-2.73.32c-.93.26-1.54.62-1.59 1.23v1.31l-5.41.72h-.11a.1.1 0 000 .05.14.14 0 000 .06v17.19a.25.25 0 000 .12l3.83 2 10.68 5.85a.5.5 0 00.13 0l24-3.18a.14.14 0 00.1 0V9.671zm-10.68-5.48a9.6 9.6 0 013 .44c.66.23.87.52.84.61-.03.09-.27.46-1.16.7a10.13 10.13 0 01-2.57.3 9.3 9.3 0 01-3-.44c-.64-.22-.85-.49-.85-.59 0-.11.29-.47 1.18-.7a10 10 0 012.56-.32zm-9.6-3.13a10 10 0 012.55-.31 9.39 9.39 0 013.05.45c.66.23.87.52.84.61-.03.09-.27.46-1.17.7a10.46 10.46 0 01-2.56.3 9.69 9.69 0 01-3-.44c-.62-.23-.84-.49-.83-.6-.08-.12.23-.44 1.15-.71zm-4.31 4.76a10.52 10.52 0 012.56-.3 9.69 9.69 0 013 .44c.66.24.86.53.84.62-.02.09-.28.46-1.17.7a10.48 10.48 0 01-2.56.29 9.42 9.42 0 01-3-.43c-.63-.23-.84-.5-.84-.6-.03-.13.28-.49 1.17-.72zm-8.22-2.73c0-.12.28-.47 1.17-.7a10 10 0 012.56-.3 9.57 9.57 0 013 .44c.67.23.87.52.85.61-.02.09-.28.46-1.17.7a10 10 0 01-2.56.3 9.64 9.64 0 01-3.05-.44c-.63-.23-.84-.49-.84-.59zm-5.05 2.47l4.44-.59v1.29c0 .53.51.86 1.23 1.13a9.93 9.93 0 003.25.48 11.1 11.1 0 002.59-.29v2.08c0 .53.5.87 1.22 1.14a10.09 10.09 0 003.26.47 10.6 10.6 0 002.73-.32c.94-.27 1.56-.62 1.6-1.23v-3.22a10.69 10.69 0 002.54-.28v2.11c0 .53.5.87 1.22 1.13a9.76 9.76 0 003.26.49 10.64 10.64 0 002.73-.33c.93-.27 1.55-.62 1.59-1.24v-1.81.35l5 2.57-23 3.05zm37.23 21.07c-.08.05-23.37 3.09-23.37 3.09v-16.61l23.37-3.11s-.01 16.52 0 16.63z" fill="#237dba"/><path d="M101.338 87.471c0-.53-.5-.86-1.22-1.14a10.09 10.09 0 00-3.26-.47 10.65 10.65 0 00-2.73.32c-.93.27-1.54.62-1.59 1.22v1.31l-5.42.72a.19.19 0 00-.1 0v.05a.14.14 0 010 .06v17.19a.25.25 0 000 .12l3.83 2 10.69 5.49h.13l24-3.18a.21.21 0 00.1 0 .14.14 0 000-.07v-17.19a.2.2 0 000-.11v-.05h-.05l-6-3.11v-1.07c0-.53-.5-.86-1.23-1.14a10.29 10.29 0 00-3.26-.47h-.72l-1.85-1v-.81c0-.53-.51-.87-1.22-1.13a10.07 10.07 0 00-3.26-.49 11.05 11.05 0 00-2.73.32c-.93.28-1.55.62-1.6 1.23v1.13l-2.55.33" fill="#33abe1"/><path d="M125.938 94.001a.2.2 0 000-.11v-.05h-.05l-6-3.11v-1.07c0-.53-.5-.86-1.23-1.14a10.29 10.29 0 00-3.26-.47h-.72l-1.85-1v.63l.83.43a7.34 7.34 0 00-.84.16v-2.11c0-.53-.51-.87-1.22-1.13a10.07 10.07 0 00-3.26-.49 11.05 11.05 0 00-2.73.32c-.93.28-1.55.62-1.6 1.23v1.13l-2.55.33v.59l2.54-.34v1.44a10.67 10.67 0 00-2.69.32h.14v-2.11c0-.53-.5-.86-1.22-1.14a10.09 10.09 0 00-3.26-.47 10.65 10.65 0 00-2.73.32c-.93.27-1.54.62-1.59 1.22v1.31l-5.42.72a.19.19 0 00-.1 0v.05a.14.14 0 010 .06v17.19a.25.25 0 000 .12l3.83 2 10.69 5.49h.13l24-3.18a.21.21 0 00.1 0 .14.14 0 000-.07v-17.19zm-10.68-5.48a9.6 9.6 0 013.05.44c.67.23.87.52.84.61-.03.09-.27.46-1.16.7a10 10 0 01-2.57.3 9.34 9.34 0 01-3-.44c-.64-.22-.84-.49-.84-.59 0-.11.28-.47 1.17-.7a10 10 0 012.51-.32zm-9.6-3.14a10.46 10.46 0 012.56-.3 9.32 9.32 0 013 .45c.67.23.87.52.85.61-.02.09-.28.47-1.17.7a10.63 10.63 0 01-2.57.29 9.32 9.32 0 01-3-.43c-.63-.23-.85-.49-.84-.6-.03-.12.28-.49 1.22-.72zm-4.31 4.76a10.52 10.52 0 012.56-.3 9.69 9.69 0 013 .44c.66.24.87.53.84.62-.03.09-.28.46-1.17.69a10 10 0 01-2.56.3 9.42 9.42 0 01-3.05-.43c-.63-.23-.84-.5-.84-.6.02-.12.33-.48 1.22-.72zm-8.22-2.73c0-.12.29-.47 1.18-.7a9.91 9.91 0 012.55-.3 9.4 9.4 0 013.05.44c.66.23.86.52.84.61-.02.09-.27.46-1.17.7a10 10 0 01-2.56.3 9.69 9.69 0 01-3-.44c-.63-.23-.84-.49-.84-.59zm-5 2.46l4.43-.58v1.29c0 .53.51.86 1.23 1.13a10 10 0 003.26.48 11.08 11.08 0 002.58-.29v2.08c0 .53.5.87 1.21 1.13a9.82 9.82 0 003.26.48 10.6 10.6 0 002.73-.32c.94-.27 1.56-.62 1.6-1.23v-3.17a10.69 10.69 0 002.54-.28v2.11c0 .53.5.87 1.22 1.13a10 10 0 003.26.48 10.65 10.65 0 002.73-.32c.93-.27 1.55-.62 1.59-1.24v-1.81.35l5 2.57-23 3zm37.23 21.08c-.09 0-23.38 3.09-23.38 3.09v-16.62l23.37-3.1s-.04 16.53-.03 16.64z" fill="#237dba"/><path d="M77.368 90.671c0-.53-.5-.86-1.23-1.13a10 10 0 00-3.26-.48 10.14 10.14 0 00-2.72.33c-.94.26-1.55.61-1.59 1.22v1.3l-5.41.72h-.11v17.31a.28.28 0 000 .13l3.83 2 10.69 5.49a.27.27 0 00.12 0l24-3.18h.11v-17.34a.24.24 0 000-.12h-.05l-6.05-3.11v-1.08c0-.52-.5-.86-1.22-1.13a10.09 10.09 0 00-3.26-.47h-.72l-1.85-1v-.88c0-.52-.5-.86-1.22-1.13a10 10 0 00-3.26-.48 10.6 10.6 0 00-2.73.32c-.93.27-1.54.62-1.59 1.22v1.12l-2.55.34" fill="#33abe1"/><path d="M101.968 97.201a.24.24 0 000-.12h-.05l-6.05-3.11v-1.08c0-.52-.5-.86-1.22-1.13a10.09 10.09 0 00-3.26-.47h-.72l-1.85-1v.63l.84.43c-.3.05-.58.1-.84.17v-2.18c0-.52-.5-.86-1.22-1.13a10 10 0 00-3.26-.48 10.6 10.6 0 00-2.73.32c-.93.27-1.54.62-1.59 1.22v1.12l-2.55.34v.57l2.55-.34v1.44a10.28 10.28 0 00-2.69.32h.14v-2.11c0-.53-.5-.86-1.23-1.13a10 10 0 00-3.26-.48 10.14 10.14 0 00-2.72.33c-.94.26-1.55.61-1.59 1.22v1.3l-5.41.72h-.11v17.31a.28.28 0 000 .13l3.83 2 10.69 5.49a.27.27 0 00.12 0l24-3.18h.11v-17.34zm-10.68-5.48a9.59 9.59 0 013 .43c.67.24.87.52.85.61-.02.09-.28.47-1.17.7a9.55 9.55 0 01-2.56.31 9.34 9.34 0 01-3-.45c-.63-.22-.84-.48-.84-.58 0-.11.29-.46 1.18-.69a9.86 9.86 0 012.54-.33zm-9.58-3.14a10.52 10.52 0 012.56-.3 9.4 9.4 0 013.05.44c.66.24.86.52.84.61-.02.09-.28.47-1.17.7a10 10 0 01-2.56.3 9.14 9.14 0 01-3.05-.44c-.63-.22-.84-.49-.84-.59-.06-.16.25-.49 1.17-.72zm-4.3 4.77a10 10 0 012.56-.31 9.32 9.32 0 013 .45c.67.23.87.52.84.61-.03.09-.27.46-1.16.7a10.13 10.13 0 01-2.57.3 9.4 9.4 0 01-3-.44c-.62-.22-.84-.5-.83-.59-.07-.13.24-.49 1.13-.72zm-8.23-2.73c0-.11.29-.47 1.18-.7a10 10 0 012.55-.3 9.6 9.6 0 013.05.44c.66.23.86.52.84.61-.02.09-.27.46-1.16.7a10.11 10.11 0 01-2.57.31 9.32 9.32 0 01-3-.45c-.64-.22-.85-.49-.85-.59zm-5 2.46l4.44-.59v1.29c0 .52.5.86 1.22 1.12a9.76 9.76 0 003.26.49 10.64 10.64 0 002.59-.3v2.09c0 .53.5.86 1.22 1.13a10 10 0 003.26.48 10.6 10.6 0 002.73-.32c.94-.28 1.55-.62 1.6-1.24v-3.16a10.76 10.76 0 002.55-.29v2.08c0 .53.51.86 1.23 1.13a10 10 0 003.26.48 10.64 10.64 0 002.73-.33c.93-.27 1.55-.61 1.59-1.23v-1.46l5 2.56-23 3.06zm37.16 21.06c-.08 0-23.37 3.1-23.37 3.1v-16.62l23.37-3.1s-.01 16.53 0 16.62z" fill="#237dba"/><path d="M53.408 93.851c0-.53-.5-.86-1.22-1.14a10.09 10.09 0 00-3.26-.47 10.65 10.65 0 00-2.73.32c-.93.27-1.54.62-1.59 1.23v1.35l-5.41.72h-.11v.05a.14.14 0 000 .06v17.19a.27.27 0 000 .12l3.83 2 10.69 5.49a.28.28 0 00.12 0l24-3.19a.15.15 0 00.11 0v-17.29a.36.36 0 000-.11v-.06h-.05l-6-3.11v-1.07c0-.53-.49-.86-1.22-1.13a10 10 0 00-3.26-.48h-.72l-1.85-1v-.89c0-.53-.51-.87-1.23-1.13a10 10 0 00-3.26-.49 10.51 10.51 0 00-2.72.33c-.93.27-1.55.62-1.6 1.22v1.13l-2.54.34" fill="#33abe1"/><path d="M78.008 100.381a.36.36 0 000-.11v-.06h-.05l-6-3.11v-1.07c0-.53-.49-.86-1.22-1.13a10 10 0 00-3.26-.48h-.72l-1.85-1v.63l.83.43a7.34 7.34 0 00-.84.16v-2.11c0-.53-.51-.87-1.23-1.13a10 10 0 00-3.26-.49 10.51 10.51 0 00-2.72.33c-.93.27-1.55.62-1.6 1.22v1.13l-2.54.34v.56l2.55-.33v1.44a10.19 10.19 0 00-2.68.33h.13v-2.11c0-.53-.5-.86-1.22-1.14a10.09 10.09 0 00-3.26-.47 10.65 10.65 0 00-2.73.32c-.93.27-1.54.62-1.59 1.23v1.38l-5.41.72h-.11v.05a.14.14 0 000 .06v17.19a.27.27 0 000 .12l3.83 2 10.69 5.49a.28.28 0 00.12 0l24-3.19a.15.15 0 00.11 0v-17.29zm-10.68-5.48a9.6 9.6 0 013 .44c.66.24.87.52.84.61-.03.09-.27.47-1.16.7a10.11 10.11 0 01-2.57.31 9.32 9.32 0 01-3-.45c-.64-.22-.85-.49-.85-.59 0-.11.29-.47 1.18-.69a9.53 9.53 0 012.56-.33zm-9.6-3.13a9.89 9.89 0 012.55-.31 9.39 9.39 0 013 .45c.67.23.87.52.84.61-.03.09-.28.47-1.17.7a10 10 0 01-2.56.29 9.16 9.16 0 01-3.05-.43c-.63-.23-.84-.5-.83-.59.02-.14.33-.49 1.2-.72zm-4.31 4.77a10 10 0 012.56-.31 9.69 9.69 0 013.05.44c.66.24.86.52.84.62-.02.1-.28.46-1.17.7a10.57 10.57 0 01-2.57.29 9.4 9.4 0 01-3-.43c-.63-.23-.84-.5-.84-.6-.07-.11.24-.49 1.13-.71zm-8.22-2.74c0-.11.28-.46 1.17-.69a10 10 0 012.56-.3 9.59 9.59 0 013 .43c.67.24.87.53.85.62-.02.09-.28.46-1.17.7a10 10 0 01-2.56.3 9.64 9.64 0 01-3-.44c-.63-.22-.84-.49-.84-.59zm-5 2.47l4.44-.59v1.29c0 .53.51.87 1.22 1.13a10 10 0 003.26.48 11.1 11.1 0 002.59-.29v2.09c0 .52.5.86 1.22 1.13a10.09 10.09 0 003.26.47 10.6 10.6 0 002.73-.32c.94-.27 1.56-.62 1.6-1.23v-3.17a11.28 11.28 0 002.54-.29v2.11c0 .53.5.87 1.22 1.13a9.74 9.74 0 003.26.48 10.65 10.65 0 002.73-.32c.93-.27 1.55-.62 1.59-1.24v-1.46l5 2.57-23 3zm37.23 21.07c-.08 0-23.37 3.09-23.37 3.09v-16.61l23.37-3.11s-.06 16.52-.05 16.63z" fill="#237dba"/><path d="M29.438 97.021c0-.53-.5-.86-1.22-1.13a9.82 9.82 0 00-3.26-.48 10.71 10.71 0 00-2.73.32c-.93.27-1.54.62-1.59 1.23v1.3l-5.42.72h-.1a.14.14 0 010 .06v17.19a.5.5 0 000 .12l3.83 2 10.66 5.79h.13l24-3.18h.11a.14.14 0 000-.06v-17.19a.22.22 0 000-.11h-.05l-6-3.12v-1.34c0-.53-.5-.86-1.22-1.13a10.08 10.08 0 00-3.26-.48h-.73l-1.84-.95v-.88c0-.53-.5-.86-1.22-1.13a9.82 9.82 0 00-3.26-.48 10.6 10.6 0 00-2.73.32c-.93.27-1.55.62-1.6 1.22v1.14l-2.55.34" fill="#33abe1"/><path d="M54.038 103.551a.22.22 0 000-.11h-.05l-6-3.12v-1.18c0-.53-.5-.86-1.22-1.13a10.08 10.08 0 00-3.26-.48h-.73l-1.84-.95v.63l.83.43c-.29 0-.57.1-.84.16v-2.1c0-.53-.5-.86-1.22-1.13a9.82 9.82 0 00-3.26-.48 10.6 10.6 0 00-2.73.32c-.93.27-1.55.62-1.6 1.22v1.14l-2.55.34v.57l2.54-.34v1.46a10.22 10.22 0 00-2.69.33h.14v-2.11c0-.53-.5-.86-1.22-1.13a9.82 9.82 0 00-3.26-.48 10.71 10.71 0 00-2.73.32c-.93.27-1.54.62-1.59 1.23v1.3l-5.42.72h-.1a.14.14 0 010 .06v17.19a.5.5 0 000 .12l3.83 2 10.54 5.79h.13l24-3.18h.11a.14.14 0 000-.06v-17.19zm-10.67-5.48a9.57 9.57 0 013 .44c.67.24.87.52.84.61-.03.09-.27.47-1.16.7a9.55 9.55 0 01-2.56.31 9.34 9.34 0 01-3.05-.45c-.63-.22-.84-.49-.84-.59 0-.11.28-.46 1.17-.69a9.55 9.55 0 012.6-.33zm-9.61-3.13a10 10 0 012.56-.3 9.3 9.3 0 013 .44c.67.23.87.52.85.61-.02.09-.28.47-1.17.7a10.13 10.13 0 01-2.57.3 9.34 9.34 0 01-3-.44c-.63-.23-.85-.5-.84-.6-.03-.12.28-.51 1.17-.71zm-4.31 4.77a10.05 10.05 0 012.57-.31 9.37 9.37 0 013 .45c.66.23.87.52.84.61-.03.09-.28.46-1.17.7a10.48 10.48 0 01-2.56.29 9.42 9.42 0 01-3.05-.43c-.63-.23-.84-.5-.83-.6 0-.13.31-.48 1.2-.71zm-8.22-2.73c0-.11.29-.47 1.18-.7a10 10 0 012.55-.3 9.69 9.69 0 013 .44c.66.23.86.52.84.61-.02.09-.27.46-1.16.7a10.13 10.13 0 01-2.57.3 9.4 9.4 0 01-3-.44c-.63-.22-.84-.49-.84-.59zm-5 2.46l4.43-.59v1.29c0 .53.51.87 1.23 1.13a10 10 0 003.26.48 11.08 11.08 0 002.58-.29v2.09c0 .52.5.86 1.21 1.13a10.08 10.08 0 003.26.48 10.72 10.72 0 002.74-.33c.93-.27 1.55-.62 1.59-1.23v-3.17a11.37 11.37 0 002.55-.29v2.08c0 .54.5.87 1.22 1.13a9.78 9.78 0 003.26.48 10.65 10.65 0 002.73-.32c.94-.27 1.55-.62 1.6-1.23v-1.44l5 2.56-23 3zm37.23 21.07c-.09 0-23.37 3.09-23.37 3.09v-16.61l23.37-3.11s-.05 16.52-.04 16.63z" fill="#237dba"/><path d="M29.438 79.771c0-.53-.5-.87-1.22-1.14a10.37 10.37 0 00-3.26-.47 10.71 10.71 0 00-2.73.32c-.93.27-1.54.62-1.59 1.23v1.3l-5.42.72h-.1v.05a.14.14 0 010 .06v17.18a.43.43 0 000 .12l3.83 2 10.7 5.49h.13l24-3.18h.11a.14.14 0 000-.06v-17.19a.23.23 0 000-.11l-6-3.11v-1.07c0-.53-.5-.86-1.22-1.13a10.08 10.08 0 00-3.26-.48h-.73l-1.84-1v-.89c0-.53-.5-.86-1.22-1.13a9.82 9.82 0 00-3.26-.48 10.6 10.6 0 00-2.73.32c-.93.27-1.55.62-1.6 1.22v1.14l-2.55.34" fill="#33abe1"/><path d="M54.038 86.291a.23.23 0 000-.11l-6-3.11v-1.07c0-.53-.5-.86-1.22-1.13a10.08 10.08 0 00-3.26-.48h-.73l-1.84-1v.63l.83.43c-.29 0-.57.1-.84.16v-2.11c0-.53-.5-.86-1.22-1.13a9.82 9.82 0 00-3.26-.48 10.6 10.6 0 00-2.73.32c-.93.27-1.55.62-1.6 1.22v1.14l-2.55.34v.57l2.54-.34v1.46a10.22 10.22 0 00-2.69.33h.14v-2.1c0-.53-.5-.87-1.22-1.14a10.37 10.37 0 00-3.26-.47 10.71 10.71 0 00-2.73.32c-.93.27-1.54.62-1.59 1.23v1.3l-5.42.72h-.1v.05a.14.14 0 010 .06v17.18a.43.43 0 000 .12l3.83 2 10.7 5.49h.13l24-3.18h.11a.14.14 0 000-.06v-17.19zm-10.67-5.48a9.57 9.57 0 013 .44c.67.23.87.52.84.61-.03.09-.27.47-1.16.7a9.55 9.55 0 01-2.56.31 9.34 9.34 0 01-3.05-.45c-.63-.22-.84-.48-.84-.59 0-.11.28-.46 1.17-.69a10 10 0 012.6-.33zm-9.61-3.13a10 10 0 012.56-.31 9.28 9.28 0 013 .45c.67.24.87.52.85.61-.02.09-.28.46-1.17.7a10.13 10.13 0 01-2.57.3 9.34 9.34 0 01-3-.44c-.63-.22-.85-.49-.84-.59-.03-.13.28-.49 1.17-.72zm-4.31 4.76a10.54 10.54 0 012.57-.3 9.66 9.66 0 013 .44c.66.24.87.53.84.62-.03.09-.28.46-1.17.7a10.48 10.48 0 01-2.56.29 9.42 9.42 0 01-3.05-.43c-.63-.23-.84-.49-.83-.6 0-.12.31-.49 1.2-.72zm-8.22-2.72c0-.11.29-.47 1.18-.7a10 10 0 012.55-.3 9.69 9.69 0 013 .44c.66.23.86.52.84.61-.02.09-.27.46-1.16.7a10.13 10.13 0 01-2.57.3 9.69 9.69 0 01-3-.44c-.63-.23-.84-.49-.84-.59zm-5 2.45l4.43-.58v1.29c0 .53.51.87 1.23 1.13a9.7 9.7 0 003.26.48 11.08 11.08 0 002.58-.29v2.08c0 .52.5.86 1.21 1.13a10.09 10.09 0 003.26.47 11.21 11.21 0 002.74-.31c.93-.28 1.55-.63 1.59-1.24v-3.17a10.83 10.83 0 002.55-.28v2.08c0 .52.5.86 1.22 1.12a9.76 9.76 0 003.26.49 10.64 10.64 0 002.73-.33c.94-.27 1.55-.62 1.6-1.23v-1.46l5 2.56-23 3.06zm37.23 21.08c-.09 0-23.37 3.1-23.37 3.1v-16.62l23.37-3.1s-.05 16.51-.04 16.62z" fill="#237dba"/><path d="M29.438 62.501c0-.53-.5-.86-1.22-1.13a10.08 10.08 0 00-3.26-.48 10.27 10.27 0 00-2.73.33c-.93.26-1.54.61-1.59 1.22v1.3l-5.42.72h-.1a.14.14 0 010 .06v17.18a.5.5 0 000 .12l3.83 2 10.7 5.49h.13l24-3.18h.11a.14.14 0 000-.07v-17.19a.25.25 0 000-.12l-6-3.11v-1.07c0-.52-.5-.86-1.22-1.13a10.08 10.08 0 00-3.26-.48h-.73l-1.84-1v-.82c0-.53-.5-.86-1.22-1.13a10.07 10.07 0 00-3.26-.49 10.58 10.58 0 00-2.73.33c-.93.27-1.55.62-1.6 1.22v1.12l-2.55.34" fill="#33abe1"/><path d="M54.038 69.041a.25.25 0 000-.12l-6-3.11v-1.07c0-.52-.5-.86-1.22-1.13a10.08 10.08 0 00-3.26-.48h-.73l-1.84-1v.63l.83.43a7.34 7.34 0 00-.84.17v-2.11c0-.53-.5-.86-1.22-1.13a10.07 10.07 0 00-3.26-.49 10.58 10.58 0 00-2.73.33c-.93.27-1.55.62-1.6 1.22v1.12l-2.55.34v.5l2.54-.34v1.46a10.65 10.65 0 00-2.69.33h.14v-2.12c0-.53-.5-.86-1.22-1.13a10.08 10.08 0 00-3.26-.48 10.27 10.27 0 00-2.73.33c-.93.26-1.54.61-1.59 1.22v1.3l-5.42.72h-.1a.14.14 0 010 .06v17.18a.5.5 0 000 .12l3.83 2 10.7 5.49h.13l24-3.18h.11a.14.14 0 000-.07v-17.19zm-10.67-5.49a9.57 9.57 0 013 .44c.67.24.87.52.84.61-.03.09-.27.47-1.16.7a9.55 9.55 0 01-2.56.31 9.34 9.34 0 01-3.05-.45c-.63-.22-.84-.48-.84-.58 0-.11.28-.46 1.17-.69a10 10 0 012.6-.34zm-9.61-3.13a10 10 0 012.56-.3 9.3 9.3 0 013 .44c.67.23.87.52.85.61-.02.09-.28.47-1.17.7a10.13 10.13 0 01-2.57.3 9.08 9.08 0 01-3-.44c-.63-.22-.85-.49-.84-.59-.03-.13.28-.49 1.17-.72zm-4.31 4.72a10.54 10.54 0 012.57-.3 9.37 9.37 0 013 .45c.66.23.87.52.84.61-.03.09-.28.47-1.17.7a10.46 10.46 0 01-2.56.3 9.4 9.4 0 01-3.05-.44c-.63-.23-.84-.49-.83-.6 0-.08.31-.44 1.2-.72zm-8.22-2.72c0-.11.29-.47 1.18-.69a9.53 9.53 0 012.55-.31 9.69 9.69 0 013 .44c.66.23.86.52.84.61-.02.09-.27.46-1.16.7a9.7 9.7 0 01-2.57.3 9.4 9.4 0 01-3-.44c-.63-.22-.84-.49-.84-.59zm-5 2.46l4.43-.59v1.29c0 .53.51.87 1.23 1.13a9.68 9.68 0 003.26.49 10.55 10.55 0 002.58-.3v2.09c0 .52.5.86 1.21 1.13a10.08 10.08 0 003.26.48 10.73 10.73 0 002.74-.32c.93-.28 1.55-.63 1.59-1.24v-3.16a11.37 11.37 0 002.55-.29v2.08c0 .52.5.86 1.22 1.12a9.76 9.76 0 003.26.49 10.64 10.64 0 002.73-.33c.94-.27 1.55-.61 1.6-1.23v-1.46l5 2.57-23 3zm37.23 21.07c-.09 0-23.37 3.1-23.37 3.1v-16.62l23.37-3.1s-.05 16.56-.04 16.66z" fill="#237dba"/><path d="M29.438 45.251c0-.53-.5-.86-1.22-1.13a10.08 10.08 0 00-3.26-.48 10.27 10.27 0 00-2.73.33c-.93.26-1.54.61-1.59 1.22v1.3l-5.42.72h-.1a.25.25 0 010 .07v17.18a.51.51 0 000 .13l3.83 2 10.7 5.5h.13l24-3.18h.11a.14.14 0 000-.06v-17.19a.25.25 0 000-.12v-.05l-6-3.11v-1.08c0-.52-.5-.86-1.22-1.13a10.08 10.08 0 00-3.26-.48h-.73l-1.84-.95v-.88c0-.53-.5-.86-1.22-1.13a9.82 9.82 0 00-3.26-.48 10.6 10.6 0 00-2.73.32c-.93.27-1.55.62-1.6 1.22v1.12l-2.55.34" fill="#33abe1"/><path d="M54.038 51.781a.25.25 0 000-.12v-.05l-6-3.11v-1.08c0-.52-.5-.86-1.22-1.13a10.08 10.08 0 00-3.26-.48h-.73l-1.84-.95v.63l.83.43c-.29 0-.57.1-.84.17v-2.11c0-.53-.5-.86-1.22-1.13a9.82 9.82 0 00-3.26-.48 10.6 10.6 0 00-2.73.32c-.93.27-1.55.62-1.6 1.22v1.12l-2.55.34v.57l2.54-.34v1.46a10.65 10.65 0 00-2.69.33h.14v-2.11c0-.53-.5-.86-1.22-1.13a10.08 10.08 0 00-3.26-.48 10.27 10.27 0 00-2.73.33c-.93.26-1.54.61-1.59 1.22v1.3l-5.42.72h-.1a.25.25 0 010 .07v17.18a.51.51 0 000 .13l3.83 2 10.7 5.5h.13l24-3.18h.11a.14.14 0 000-.06v-17.19zm-10.67-5.49a9.57 9.57 0 013 .44c.67.24.87.53.84.61-.03.08-.27.47-1.16.71a10 10 0 01-2.56.3 9.34 9.34 0 01-3.05-.45c-.63-.22-.84-.48-.84-.58 0-.11.28-.46 1.17-.69a10 10 0 012.6-.34zm-9.61-3.15a10 10 0 012.56-.3 9.3 9.3 0 013 .44c.67.24.87.52.85.61-.02.09-.28.47-1.17.7a10.13 10.13 0 01-2.57.3 9.08 9.08 0 01-3-.44c-.63-.22-.85-.49-.84-.59-.03-.11.28-.47 1.17-.72zm-4.31 4.77a10.05 10.05 0 012.57-.31 9.37 9.37 0 013 .45c.66.23.87.52.84.61-.03.09-.28.47-1.17.7a10 10 0 01-2.56.3 9.4 9.4 0 01-3.05-.44c-.63-.23-.84-.49-.83-.59 0-.11.31-.49 1.2-.7zm-8.22-2.73c0-.11.29-.46 1.18-.69a9.53 9.53 0 012.55-.31 9.69 9.69 0 013 .44c.66.24.86.52.84.61-.02.09-.27.47-1.16.7a10.13 10.13 0 01-2.57.3 9.4 9.4 0 01-3-.44c-.63-.22-.84-.49-.84-.59zm-5 2.46l4.43-.59v1.29c0 .53.51.87 1.23 1.13a9.7 9.7 0 003.26.48 10.57 10.57 0 002.58-.29v2.09c0 .52.5.86 1.21 1.13a10.08 10.08 0 003.26.48 10.73 10.73 0 002.74-.32c.93-.28 1.55-.62 1.59-1.24v-3.16a11.37 11.37 0 002.55-.29v2.08c0 .52.5.86 1.22 1.12a9.76 9.76 0 003.26.49 10.64 10.64 0 002.73-.33c.94-.27 1.55-.62 1.6-1.23v-1.46l5 2.57-23 3zm37.23 21.07c-.09 0-23.37 3.1-23.37 3.1v-16.62l23.37-3.1s-.05 16.54-.04 16.64z" fill="#237dba"/><path d="M29.438 27.991c0-.53-.5-.86-1.22-1.13a10.08 10.08 0 00-3.26-.48 10.27 10.27 0 00-2.73.33c-.93.26-1.54.62-1.59 1.22v1.3l-5.42.72h-.1a.11.11 0 010 .06v17.18a.51.51 0 000 .13l3.83 2 10.66 5.82a.38.38 0 00.13 0l24-3.18h.11a.11.11 0 000-.06v-17.19a.2.2 0 000-.11v-.05l-6-3.1v-1.31c0-.52-.5-.86-1.22-1.13a10.08 10.08 0 00-3.26-.48h-.73l-1.84-1v-.88c0-.52-.5-.86-1.22-1.13a9.82 9.82 0 00-3.26-.48 10.6 10.6 0 00-2.73.32c-.93.27-1.55.62-1.6 1.22v1.12l-2.55.34" fill="#33abe1"/><path d="M54.038 34.521a.2.2 0 000-.11v-.05l-6-3.1v-1.12c0-.52-.5-.86-1.22-1.13a10.08 10.08 0 00-3.26-.48h-.73l-1.84-1v.61l.83.43a7.34 7.34 0 00-.84.17v-2.11c0-.52-.5-.86-1.22-1.13a9.82 9.82 0 00-3.26-.48 10.6 10.6 0 00-2.73.32c-.93.27-1.55.62-1.6 1.22v1.12l-2.55.34v.57l2.54-.34v1.46a10.23 10.23 0 00-2.69.32h.14v-2.11c0-.53-.5-.86-1.22-1.13a10.08 10.08 0 00-3.26-.48 10.27 10.27 0 00-2.73.33c-.93.26-1.54.62-1.59 1.22v1.3l-5.42.72h-.1a.11.11 0 010 .06v17.18a.51.51 0 000 .13l3.83 2 10.49 5.89a.38.38 0 00.13 0l24-3.18h.11a.11.11 0 000-.06v-17.19zm-10.67-5.48a9.59 9.59 0 013 .43c.67.24.87.53.84.61-.03.08-.27.47-1.16.71a10 10 0 01-2.56.3 9.64 9.64 0 01-3.05-.44c-.63-.23-.84-.49-.84-.59 0-.11.28-.46 1.17-.69a10 10 0 012.6-.33zm-9.61-3.14a10 10 0 012.56-.3 9.3 9.3 0 013 .44c.67.24.87.52.85.61-.02.09-.28.47-1.17.7a10.13 10.13 0 01-2.57.3 9.08 9.08 0 01-3-.44c-.63-.22-.85-.49-.84-.59-.03-.13.28-.48 1.17-.72zm-4.31 4.77a10.08 10.08 0 012.57-.3 9.38 9.38 0 013 .44c.66.23.87.52.84.61-.03.09-.28.47-1.17.7a10 10 0 01-2.56.3 9.4 9.4 0 01-3.05-.44c-.63-.22-.84-.49-.83-.59 0-.13.31-.49 1.2-.72zm-8.22-2.73c0-.11.29-.47 1.18-.7a10 10 0 012.55-.3 9.69 9.69 0 013 .44c.66.23.86.52.84.61-.02.09-.27.47-1.16.7a10.11 10.11 0 01-2.57.31 9.39 9.39 0 01-3-.45c-.63-.22-.84-.49-.84-.59zm-5 2.46l4.43-.59v1.33c0 .53.51.87 1.23 1.13a9.68 9.68 0 003.26.49 10.55 10.55 0 002.58-.3v2.09c0 .53.5.86 1.21 1.13a10.08 10.08 0 003.26.48 10.73 10.73 0 002.74-.32c.93-.28 1.55-.62 1.59-1.24v-3.17a10.82 10.82 0 002.55-.29v2.08c0 .53.5.86 1.22 1.13a10 10 0 003.26.48 10.64 10.64 0 002.73-.33c.94-.27 1.55-.61 1.6-1.23v-1.46l5 2.57-23 3zm37.23 21.07c-.09.06-23.37 3.1-23.37 3.1v-16.62l23.37-3.1s-.05 16.52-.04 16.62z" fill="#237dba"/><path d="M29.438 10.731c0-.52-.5-.86-1.22-1.13a10.08 10.08 0 00-3.26-.48 10.27 10.27 0 00-2.73.33c-.93.26-1.54.62-1.59 1.22v1.3l-5.42.72h-.1a.19.19 0 010 .07v17.18a.51.51 0 000 .13v.05l3.83 2 10.7 5.49a.38.38 0 00.13 0l24-3.18h.11a.14.14 0 000-.06v-17.19a.2.2 0 000-.11l-6-3.11v-1.08c0-.53-.5-.87-1.22-1.14a10.09 10.09 0 00-3.26-.47h-.73l-1.84-1v-.89c0-.52-.5-.86-1.22-1.13a9.82 9.82 0 00-3.26-.48 10.6 10.6 0 00-2.73.32c-.93.27-1.55.62-1.6 1.22v1.12l-2.55.34" fill="#33abe1"/><path d="M54.038 17.261a.2.2 0 000-.11l-6-3.11v-1.08c0-.53-.5-.87-1.22-1.14a10.09 10.09 0 00-3.26-.47h-.73l-1.84-1v.62l.83.43c-.29.05-.57.1-.84.17v-2.11c0-.52-.5-.86-1.22-1.13a9.82 9.82 0 00-3.26-.48 10.6 10.6 0 00-2.73.32c-.93.27-1.55.62-1.6 1.22v1.12l-2.55.34v.57l2.54-.34v1.46a10.23 10.23 0 00-2.69.32h.14v-2.11c0-.52-.5-.86-1.22-1.13a10.08 10.08 0 00-3.26-.48 10.27 10.27 0 00-2.73.33c-.93.26-1.54.62-1.59 1.22v1.3l-5.42.72h-.1a.19.19 0 010 .07v17.18a.51.51 0 000 .13v.05l3.83 2 10.7 5.49a.38.38 0 00.13 0l24-3.18h.11a.14.14 0 000-.06v-17.19zm-10.67-5.48a9.59 9.59 0 013 .43c.67.24.87.53.84.62-.03.09-.27.46-1.16.7a10 10 0 01-2.56.3 9.64 9.64 0 01-3.05-.44c-.63-.23-.84-.49-.84-.59 0-.12.28-.47 1.17-.7a10 10 0 012.6-.32zm-9.61-3.14a10.46 10.46 0 012.56-.3 9.57 9.57 0 013 .44c.67.24.87.52.85.61-.02.09-.28.47-1.17.7a10.13 10.13 0 01-2.57.3 9.08 9.08 0 01-3-.44c-.63-.22-.85-.49-.84-.59-.03-.13.28-.49 1.17-.72zm-4.31 4.77a10.08 10.08 0 012.57-.3 9.38 9.38 0 013 .44c.66.24.87.52.84.61-.03.09-.28.47-1.17.7a10 10 0 01-2.56.3 9.4 9.4 0 01-3.05-.44c-.63-.22-.84-.49-.83-.59 0-.13.31-.49 1.2-.72zm-8.22-2.73c0-.11.29-.46 1.18-.69a9.53 9.53 0 012.55-.31 9.69 9.69 0 013 .44c.66.23.86.52.84.61-.02.09-.27.47-1.16.7a9.68 9.68 0 01-2.57.31 9.39 9.39 0 01-3-.45c-.63-.22-.84-.49-.84-.59zm-5 2.46l4.43-.59v1.29c0 .52.51.86 1.23 1.12a9.68 9.68 0 003.26.49 10.55 10.55 0 002.56-.31v2.09c0 .53.5.86 1.21 1.13a10.08 10.08 0 003.26.48 10.73 10.73 0 002.74-.32c.93-.27 1.55-.62 1.59-1.24v-3.17a10.32 10.32 0 002.55-.29v2.09c0 .53.5.86 1.22 1.13a10 10 0 003.26.48 11.11 11.11 0 002.73-.32c.94-.28 1.55-.62 1.6-1.24v-1.42l5 2.57-23 3zm37.23 21.07c-.09.06-23.37 3.1-23.37 3.1v-16.62l23.37-3.1s-.05 16.55-.04 16.62z" fill="#237dba"/></svg>