<svg xmlns="http://www.w3.org/2000/svg" viewBox="0 0 146.406 141.429"><path d="M107.648 92.392c0-.55-.48-.9-1.19-1.18a10.6 10.6 0 00-5.85-.15c-.91.27-1.51.64-1.55 1.26v1.35l-5.29.75a.19.19 0 00-.1 0 .19.19 0 000 .07v17.77a.31.31 0 000 .13l3.74 2 10.44 5.67h.12l23.41-3.29a.25.25 0 00.11 0 .14.14 0 000-.06v-17.77a.2.2 0 000-.11l-5.91-3.22v-1.11c0-.54-.49-.89-1.19-1.17a9.38 9.38 0 00-3.19-.49h-.7l-1.81-1v-.92c0-.54-.5-.89-1.2-1.17a9.31 9.31 0 00-3.18-.5 9.58 9.58 0 00-2.66.34c-.91.28-1.52.64-1.56 1.26v1.18l-2.49.35" fill="#eb5859"/><path d="M131.678 99.132a.2.2 0 000-.11l-5.91-3.22v-1.11c0-.54-.49-.89-1.19-1.17a9.38 9.38 0 00-3.19-.49h-.7l-1.81-1v.64l.81.45a7 7 0 00-.82.17v-2.18c0-.54-.5-.89-1.2-1.17a9.31 9.31 0 00-3.18-.5 9.58 9.58 0 00-2.66.34c-.91.28-1.52.64-1.56 1.26v1.18l-2.49.35v.59l2.48-.35v1.51a9.85 9.85 0 00-2.63.34h.14v-2.18c0-.55-.48-.9-1.19-1.18a10.6 10.6 0 00-5.85-.15c-.91.27-1.51.64-1.55 1.26v1.35l-5.29.75a.19.19 0 00-.1 0 .19.19 0 000 .07v17.77a.31.31 0 000 .13l3.74 2 10.44 5.67h.12l23.41-3.29a.25.25 0 00.11 0 .14.14 0 000-.06v-17.77zm-10.43-5.66a8.94 8.94 0 013 .45c.65.24.84.54.82.63-.02.09-.27.48-1.13.73a9.22 9.22 0 01-2.51.31 8.68 8.68 0 01-3-.46c-.62-.23-.82-.5-.82-.61 0-.12.28-.48 1.15-.72a9.07 9.07 0 012.49-.33zm-9.38-3.24a9.13 9.13 0 012.5-.32 8.62 8.62 0 013 .46c.65.24.85.54.83.63-.02.09-.28.48-1.15.73a9.52 9.52 0 01-2.5.3 8.5 8.5 0 01-3-.45c-.61-.23-.82-.51-.81-.61-.04-.14.26-.51 1.13-.74zm-4.21 4.92a9.55 9.55 0 012.5-.31 8.68 8.68 0 013 .46c.65.24.85.54.82.63-.03.09-.27.48-1.14.73a9.65 9.65 0 01-2.51.3 8.44 8.44 0 01-3-.45c-.62-.23-.82-.51-.82-.61-.02-.14.29-.51 1.15-.75zm-8-2.82c0-.11.28-.48 1.15-.71a8.69 8.69 0 012.49-.32 8.9 8.9 0 013 .45c.65.25.85.54.82.64-.03.1-.26.48-1.13.72a9.21 9.21 0 01-2.51.32 8.87 8.87 0 01-3-.46c-.62-.23-.83-.51-.83-.61zm-4.93 2.55l4.34-.61v1.33c0 .54.49.89 1.19 1.16a9.09 9.09 0 003.19.5 10.06 10.06 0 002.52-.3v2.16c0 .54.49.89 1.19 1.17a9.32 9.32 0 003.18.49 9.72 9.72 0 002.67-.33c.92-.28 1.52-.64 1.56-1.28v-3.27a9.74 9.74 0 002.48-.3v2.19c0 .55.49.9 1.19 1.17a9.33 9.33 0 003.19.5 10.08 10.08 0 002.66-.34c.92-.28 1.52-.64 1.56-1.28v-1.51l4.87 2.66-22.45 3.15zm36.37 21.79c-.08 0-22.83 3.2-22.83 3.2v-17.19l22.82-3.2s-.03 17.08-.02 17.19z" fill="#c91a20"/><path d="M107.648 74.532c0-.55-.48-.89-1.19-1.17a9.37 9.37 0 00-3.19-.5 9.68 9.68 0 00-2.66.34c-.91.27-1.51.64-1.55 1.27v1.35l-5.29.75a.19.19 0 00-.1 0 .11.11 0 000 .06v17.77a.28.28 0 000 .13l3.74 2 10.44 5.68a.28.28 0 00.12 0l23.41-3.29a.25.25 0 00.11 0v-.05a.14.14 0 000-.06v-17.77a.25.25 0 000-.12.1.1 0 010-.05l-5.91-3.22v-1.11c0-.54-.49-.89-1.19-1.17a9.38 9.38 0 00-3.19-.49h-.7l-1.81-1v-.92c0-.55-.5-.9-1.2-1.18a9.32 9.32 0 00-3.18-.49 9.59 9.59 0 00-2.66.33c-.91.28-1.52.64-1.56 1.26v1.17l-2.49.34" fill="#eb5859"/><path d="M131.678 81.292a.25.25 0 000-.12.1.1 0 010-.05l-5.91-3.22v-1.11c0-.54-.49-.89-1.19-1.17a9.38 9.38 0 00-3.19-.49h-.7l-1.81-1v.65l.81.44c-.28 0-.56.1-.82.17v-2.18c0-.55-.5-.9-1.2-1.18a9.32 9.32 0 00-3.18-.49 9.59 9.59 0 00-2.66.33c-.91.28-1.52.64-1.56 1.26v1.17l-2.49.34v.59l2.48-.35v1.51a10.28 10.28 0 00-2.63.34h.14v-2.2c0-.55-.48-.89-1.19-1.17a9.37 9.37 0 00-3.19-.5 9.68 9.68 0 00-2.66.34c-.91.27-1.51.64-1.55 1.27v1.35l-5.29.75a.19.19 0 00-.1 0 .11.11 0 000 .06v17.77a.28.28 0 000 .13l3.74 2 10.44 5.68a.28.28 0 00.12 0l23.41-3.29a.25.25 0 00.11 0v-.05a.14.14 0 000-.06v-17.77zm-10.43-5.67a8.94 8.94 0 013 .45c.65.25.84.54.82.63-.02.09-.27.49-1.13.73a9.22 9.22 0 01-2.51.31 8.94 8.94 0 01-3-.45c-.62-.24-.82-.51-.82-.61 0-.11.28-.48 1.15-.72a9.07 9.07 0 012.49-.34zm-9.38-3.24a9.13 9.13 0 012.5-.32 8.87 8.87 0 013 .46c.65.25.85.54.83.64-.02.1-.28.48-1.15.72a9.5 9.5 0 01-2.5.31 8.48 8.48 0 01-3-.46c-.61-.23-.82-.51-.81-.61-.04-.13.26-.5 1.13-.74zm-4.21 4.93a9.13 9.13 0 012.5-.32 8.93 8.93 0 013 .46c.65.25.85.54.82.63-.03.09-.27.49-1.14.73a9.63 9.63 0 01-2.51.31 8.43 8.43 0 01-3-.46c-.62-.23-.82-.51-.82-.61-.02-.12.29-.5 1.15-.74zm-8-2.83c0-.12.28-.48 1.15-.72a9.06 9.06 0 012.49-.32 8.89 8.89 0 013 .46c.65.24.85.54.82.63-.03.09-.26.48-1.13.72a9.21 9.21 0 01-2.51.32 8.62 8.62 0 01-3-.46c-.62-.23-.83-.51-.83-.61zm-4.93 2.55l4.34-.61v1.34c0 .54.49.89 1.19 1.17a9.34 9.34 0 003.19.49 10.06 10.06 0 002.52-.3v2.16c0 .54.49.89 1.19 1.17a9.32 9.32 0 003.18.49 9.72 9.72 0 002.67-.33c.92-.28 1.52-.64 1.56-1.27v-3.28a10.21 10.21 0 002.48-.3v2.17c0 .54.49.89 1.19 1.16a9.09 9.09 0 003.19.5 9.68 9.68 0 002.66-.34c.92-.28 1.52-.63 1.56-1.27v-1.51l4.87 2.65-22.45 3.16zm36.37 21.79c-.08.06-22.83 3.2-22.83 3.2v-17.18l22.82-3.21s-.03 17.08-.02 17.19z" fill="#c91a20"/><path d="M107.648 56.692c0-.54-.48-.89-1.19-1.17a10.6 10.6 0 00-5.85-.15c-.91.27-1.51.63-1.55 1.26v1.35l-5.29.74h-.1a.14.14 0 000 .06v17.77a.27.27 0 000 .12v.05l3.74 2 10.44 5.68h.12l23.41-3.29h.11a.08.08 0 000-.06v-17.77a.25.25 0 000-.12v-.05l-5.91-3.21v-1.12c0-.55-.49-.89-1.19-1.17a9.13 9.13 0 00-3.19-.5h-.7l-1.81-1v-.92c0-.55-.5-.89-1.2-1.17a9.07 9.07 0 00-3.18-.5 9.58 9.58 0 00-2.66.34c-.91.27-1.52.63-1.56 1.26v1.17l-2.49.35" fill="#eb5859"/><path d="M131.678 63.442a.25.25 0 000-.12v-.05l-5.91-3.21v-1.12c0-.55-.49-.89-1.19-1.17a9.13 9.13 0 00-3.19-.5h-.7l-1.81-1v.66l.81.44c-.28.05-.56.11-.82.18v-2.19c0-.55-.5-.89-1.2-1.17a9.07 9.07 0 00-3.18-.5 9.58 9.58 0 00-2.66.34c-.91.27-1.52.63-1.56 1.26v1.17l-2.49.35v.59l2.48-.35v1.5a9.46 9.46 0 00-2.63.34h.14v-2.18c0-.54-.48-.89-1.19-1.17a10.6 10.6 0 00-5.85-.15c-.91.27-1.51.63-1.55 1.26v1.35l-5.29.74h-.1a.14.14 0 000 .06v17.77a.27.27 0 000 .12v.05l3.74 2 10.44 5.68h.12l23.41-3.29h.11a.08.08 0 000-.06v-17.77zm-10.43-5.67a8.68 8.68 0 013 .46c.65.24.84.53.82.63-.02.1-.27.48-1.13.72a9.21 9.21 0 01-2.51.32 8.93 8.93 0 01-3-.46c-.62-.23-.82-.51-.82-.61 0-.11.28-.47 1.15-.71a9.06 9.06 0 012.49-.35zm-9.38-3.24a9.55 9.55 0 012.5-.31 8.62 8.62 0 013 .46c.65.24.85.53.83.63-.02.1-.28.48-1.15.72a9.1 9.1 0 01-2.5.31 8.5 8.5 0 01-3-.45c-.61-.23-.82-.51-.81-.62-.04-.13.26-.5 1.13-.74zm-4.21 4.93a9.55 9.55 0 012.5-.31 8.68 8.68 0 013 .46c.65.24.85.54.82.63-.03.09-.27.48-1.14.72a9.22 9.22 0 01-2.51.31 8.44 8.44 0 01-3-.45c-.62-.23-.82-.51-.82-.62-.02-.13.29-.5 1.15-.74zm-8-2.82c0-.11.28-.48 1.15-.72a9.07 9.07 0 012.49-.31 8.9 8.9 0 013 .45c.65.25.85.54.82.63-.03.09-.26.48-1.13.73a9.22 9.22 0 01-2.51.31 8.62 8.62 0 01-3-.46c-.62-.23-.83-.5-.83-.61zm-4.93 2.54l4.34-.61v1.36c0 .55.49.9 1.19 1.17a9.33 9.33 0 003.19.5 10.55 10.55 0 002.52-.3v2.16c0 .55.49.9 1.19 1.18a9.57 9.57 0 003.18.49 10.12 10.12 0 002.67-.33c.92-.29 1.52-.65 1.56-1.28v-3.28a10.21 10.21 0 002.48-.3v2.18c0 .54.49.89 1.19 1.16a9.09 9.09 0 003.19.5 10.09 10.09 0 002.66-.33c.92-.28 1.52-.64 1.56-1.28v-1.54l4.87 2.65-22.45 3.16zm36.34 21.75c-.08.06-22.83 3.21-22.83 3.21v-17.19l22.82-3.21s0 17.12.01 17.19z" fill="#c91a20"/><path d="M107.648 38.842c0-.55-.48-.9-1.19-1.17a9.13 9.13 0 00-3.19-.5 9.68 9.68 0 00-2.66.34c-.91.27-1.51.64-1.55 1.26v1.35l-5.29.75a.19.19 0 00-.1 0 .19.19 0 000 .07v17.77a.28.28 0 000 .13v.05l3.74 2 10.44 5.68h.12l23.41-3.29a.25.25 0 00.11 0 .14.14 0 000-.06v-17.77a.2.2 0 000-.11.1.1 0 010-.05l-5.91-3.22v-1.11c0-.54-.49-.89-1.19-1.17a9.38 9.38 0 00-3.19-.49h-.7l-1.81-1v-.91c0-.54-.5-.89-1.2-1.17a9.31 9.31 0 00-3.18-.5 9.58 9.58 0 00-2.66.34c-.91.28-1.52.64-1.56 1.26v1.18l-2.49.35" fill="#eb5859"/><path d="M131.678 45.592a.2.2 0 000-.11.1.1 0 010-.05l-5.91-3.22v-1.11c0-.54-.49-.89-1.19-1.17a9.38 9.38 0 00-3.19-.49h-.7l-1.81-1v.65l.81.45a7 7 0 00-.82.17v-2.18c0-.54-.5-.89-1.2-1.17a9.31 9.31 0 00-3.18-.5 9.58 9.58 0 00-2.66.34c-.91.28-1.52.64-1.56 1.26v1.18l-2.49.35v.59l2.48-.35v1.51a10.28 10.28 0 00-2.63.34h.14v-2.18c0-.55-.48-.9-1.19-1.17a9.13 9.13 0 00-3.19-.5 9.68 9.68 0 00-2.66.34c-.91.27-1.51.64-1.55 1.26v1.35l-5.29.75a.19.19 0 00-.1 0 .19.19 0 000 .07v17.77a.28.28 0 000 .13v.05l3.74 2 10.44 5.68h.12l23.41-3.29a.25.25 0 00.11 0 .14.14 0 000-.06v-17.77zm-10.43-5.66a8.94 8.94 0 013 .45c.65.24.84.54.82.63-.02.09-.27.48-1.13.73a9.22 9.22 0 01-2.51.31 8.68 8.68 0 01-3-.46c-.62-.23-.82-.5-.82-.61 0-.12.28-.48 1.15-.72a9.07 9.07 0 012.49-.33zm-9.38-3.24a9.13 9.13 0 012.5-.32 8.62 8.62 0 013 .46c.65.24.85.54.83.63-.02.09-.28.48-1.15.73a9.52 9.52 0 01-2.5.3 8.5 8.5 0 01-3-.45c-.61-.23-.82-.51-.81-.61-.04-.14.26-.5 1.13-.74zm-4.21 4.93a9.13 9.13 0 012.5-.32 8.68 8.68 0 013 .46c.65.24.85.54.82.63-.03.09-.27.48-1.14.73a9.65 9.65 0 01-2.51.3 8.44 8.44 0 01-3-.45c-.62-.23-.82-.51-.82-.61-.02-.14.29-.51 1.15-.74zm-8-2.83c0-.11.28-.48 1.15-.71a9.06 9.06 0 012.49-.32 8.9 8.9 0 013 .45c.65.25.85.54.82.64-.03.1-.26.48-1.13.72a9.21 9.21 0 01-2.51.32 8.87 8.87 0 01-3-.46c-.62-.24-.83-.51-.83-.61zm-4.93 2.55l4.34-.61v1.33c0 .54.49.89 1.19 1.16a9.09 9.09 0 003.19.5 10.06 10.06 0 002.52-.3v2.16c0 .54.49.89 1.19 1.17a9.32 9.32 0 003.18.49 10.12 10.12 0 002.59-.31c.92-.29 1.52-.64 1.56-1.27v-3.28a9.74 9.74 0 002.48-.3v2.19c0 .55.49.9 1.19 1.17a9.33 9.33 0 003.19.5 9.68 9.68 0 002.66-.34c.92-.28 1.52-.64 1.56-1.28v-1.51l4.87 2.66-22.45 3.15zm36.37 21.79c-.08 0-22.83 3.2-22.83 3.2v-17.19l22.82-3.2s-.03 17.08-.02 17.19z" fill="#c91a20"/><path d="M107.648 20.992c0-.55-.48-.89-1.19-1.17a9.37 9.37 0 00-3.19-.5 9.68 9.68 0 00-2.66.34c-.91.27-1.51.64-1.55 1.27v1.35l-5.29.75a.19.19 0 00-.1 0v.05a.19.19 0 000 .07v17.77a.28.28 0 000 .13l3.74 2 10.44 5.67a.28.28 0 00.12 0l23.41-3.29a.17.17 0 00.11 0 .14.14 0 000-.06v-17.83a.25.25 0 000-.12l-5.91-3.22v-1.11c0-.54-.49-.89-1.19-1.17a9.38 9.38 0 00-3.19-.49h-.7l-1.81-1v-.92c0-.55-.5-.9-1.2-1.18a10.46 10.46 0 00-5.84-.16c-.91.28-1.52.64-1.56 1.26v1.16l-2.49.35" fill="#eb5859"/><path d="M131.678 27.752a.25.25 0 000-.12l-5.91-3.22v-1.11c0-.54-.49-.89-1.19-1.17a9.38 9.38 0 00-3.19-.49h-.7l-1.81-1v.65l.81.44a7 7 0 00-.82.17v-2.18c0-.55-.5-.9-1.2-1.18a10.46 10.46 0 00-5.84-.16c-.91.28-1.52.64-1.56 1.26v1.16l-2.49.35v.59l2.48-.35v1.51a10.28 10.28 0 00-2.63.34h.14v-2.19c0-.55-.48-.89-1.19-1.17a9.37 9.37 0 00-3.19-.5 9.68 9.68 0 00-2.66.34c-.91.27-1.51.64-1.55 1.27v1.35l-5.29.75a.19.19 0 00-.1 0v.05a.19.19 0 000 .07v17.77a.28.28 0 000 .13l3.74 2 10.44 5.67a.28.28 0 00.12 0l23.41-3.29a.17.17 0 00.11 0 .14.14 0 000-.06v-17.83zm-10.43-5.67a8.94 8.94 0 013 .45c.65.24.84.54.82.63-.02.09-.27.49-1.13.73a9.22 9.22 0 01-2.51.31 8.68 8.68 0 01-3-.46c-.62-.23-.82-.5-.82-.6 0-.11.28-.48 1.15-.72a9.07 9.07 0 012.49-.34zm-9.38-3.24a9.13 9.13 0 012.5-.32 8.87 8.87 0 013 .46c.65.25.85.54.83.64-.02.1-.28.48-1.15.72a9.5 9.5 0 01-2.5.31 8.72 8.72 0 01-3-.46c-.61-.23-.82-.51-.81-.61-.04-.13.26-.5 1.13-.74zm-4.21 4.93a9.13 9.13 0 012.5-.32 8.93 8.93 0 013 .46c.65.25.85.54.82.63-.03.09-.27.49-1.14.73a9.63 9.63 0 01-2.51.31 8.66 8.66 0 01-3-.46c-.62-.23-.82-.51-.82-.61-.02-.13.29-.5 1.15-.74zm-8-2.83c0-.12.28-.49 1.15-.72a9.06 9.06 0 012.49-.32 8.89 8.89 0 013 .46c.65.24.85.54.82.63-.03.09-.26.48-1.13.72a9.21 9.21 0 01-2.51.32 8.87 8.87 0 01-3-.46c-.62-.23-.83-.51-.83-.61zm-4.93 2.55l4.34-.61v1.33c0 .54.49.89 1.19 1.16a9.09 9.09 0 003.19.5 10.06 10.06 0 002.52-.3v2.16c0 .54.49.89 1.19 1.17a9.32 9.32 0 003.18.49 9.72 9.72 0 002.67-.33c.92-.28 1.52-.64 1.56-1.27v-3.28a10.22 10.22 0 002.48-.29v2.18c0 .55.49.9 1.19 1.17a9.09 9.09 0 003.19.5 9.68 9.68 0 002.66-.34c.92-.28 1.52-.64 1.56-1.27v-1.53l4.87 2.65-22.45 3.16zm36.37 21.79c-.08 0-22.83 3.2-22.83 3.2v-17.18l22.82-3.21s-.03 17.08-.02 17.19z" fill="#c91a20"/><path d="M107.648 3.152c0-.54-.48-.89-1.19-1.17a10.6 10.6 0 00-5.85-.15c-.91.27-1.51.63-1.55 1.26v1.35l-5.29.74h-.1a.14.14 0 000 .06v17.78a.27.27 0 000 .12v.05l3.74 2 10.44 5.68h.12l23.41-3.29h.11a.11.11 0 000-.06V9.752a.25.25 0 000-.12v-.05l-5.91-3.22v-1.11c0-.55-.49-.89-1.19-1.18a9.38 9.38 0 00-3.19-.49h-.7l-1.81-1v-.91c0-.55-.5-.89-1.2-1.17a9.07 9.07 0 00-3.18-.5 9.58 9.58 0 00-2.66.34c-.91.27-1.52.63-1.56 1.26v1.33l-2.49.35" fill="#eb5859"/><path d="M131.678 9.932a.25.25 0 000-.12v-.05l-5.91-3.22v-1.11c0-.55-.49-.89-1.19-1.18a9.38 9.38 0 00-3.19-.49h-.7l-1.81-1v.65l.81.44c-.28 0-.56.1-.82.17v-2.17c0-.55-.5-.89-1.2-1.17a9.07 9.07 0 00-3.18-.5 9.58 9.58 0 00-2.66.34c-.91.27-1.52.63-1.56 1.26v1.15l-2.49.35v.58l2.48-.34v1.41a9.46 9.46 0 00-2.63.34h.14v-2.18c0-.54-.48-.89-1.19-1.17a10.6 10.6 0 00-5.85-.15c-.91.27-1.51.63-1.55 1.26v1.35l-5.29.74h-.1a.14.14 0 000 .06v17.78a.27.27 0 000 .12v.05l3.74 2 10.44 5.68h.12l23.41-3.29h.11a.11.11 0 000-.06V9.692zm-10.43-5.67a8.68 8.68 0 013 .46c.65.24.84.53.82.63-.02.1-.27.48-1.13.72a9.22 9.22 0 01-2.51.31 8.94 8.94 0 01-3-.45c-.62-.23-.82-.51-.82-.61 0-.11.28-.47 1.15-.71a9.06 9.06 0 012.49-.38zm-9.38-3.24a9.55 9.55 0 012.5-.31 8.62 8.62 0 013 .46c.65.24.85.53.83.63-.02.1-.28.48-1.15.72a9.5 9.5 0 01-2.5.31 8.5 8.5 0 01-3-.45c-.61-.23-.82-.51-.81-.62-.04-.16.26-.53 1.13-.77zm-4.21 4.93a9.55 9.55 0 012.5-.31 8.94 8.94 0 013 .45c.65.25.85.54.82.64-.03.1-.27.48-1.14.72a9.63 9.63 0 01-2.51.31 8.67 8.67 0 01-3-.45c-.62-.23-.82-.51-.82-.62-.02-.16.29-.53 1.15-.76zm-8-2.82c0-.12.28-.48 1.15-.72a9.07 9.07 0 012.49-.31 8.9 8.9 0 013 .45c.65.25.85.54.82.63-.03.09-.26.48-1.13.73a9.22 9.22 0 01-2.51.31 8.62 8.62 0 01-3-.46c-.62-.23-.83-.5-.83-.61zm-4.93 2.54l4.34-.61v1.34c0 .55.49.9 1.19 1.17a9.33 9.33 0 003.19.5 10.55 10.55 0 002.52-.3v2.16c0 .55.49.9 1.19 1.18a9.57 9.57 0 003.18.49 10.12 10.12 0 002.67-.33c.92-.29 1.52-.65 1.56-1.28v-3.28a10.21 10.21 0 002.48-.3v2.18c0 .54.49.89 1.19 1.16a9.09 9.09 0 003.19.5 10.09 10.09 0 002.66-.33c.92-.28 1.52-.64 1.56-1.28v-1.51l4.87 2.65-22.48 3.15zm36.37 21.79c-.08.06-22.83 3.2-22.83 3.2v-17.18l22.82-3.21s-.03 17.05-.02 17.16z" fill="#c91a20"/><path d="M84.228 24.302c0-.54-.49-.89-1.19-1.17a9.38 9.38 0 00-3.19-.49 9.69 9.69 0 00-2.66.33c-.91.28-1.51.64-1.55 1.27v1.35l-5.29.74h-.1a.14.14 0 000 .06v17.77a.27.27 0 000 .12.13.13 0 000 .05l3.75 2 10.44 5.68h.12l23.42-3.28h.1a.11.11 0 000-.06v-17.77a.25.25 0 000-.12l-5.91-3.21v-1.12c0-.55-.49-.9-1.19-1.17a9.37 9.37 0 00-3.19-.5h-.7l-1.81-1v-.85c0-.55-.5-.9-1.2-1.17a9.07 9.07 0 00-3.18-.5 10 10 0 00-2.66.33c-.92.28-1.52.64-1.56 1.27v1.17l-2.49.35" fill="#eb5859"/><path d="M108.258 31.052a.25.25 0 000-.12l-5.91-3.21v-1.12c0-.55-.49-.9-1.19-1.17a9.37 9.37 0 00-3.19-.5h-.7l-1.81-1v.65l.81.44a7 7 0 00-.82.18v-2.19c0-.55-.5-.9-1.2-1.17a9.07 9.07 0 00-3.18-.5 10 10 0 00-2.66.33c-.92.28-1.52.64-1.56 1.27v1.17l-2.49.35v.47l2.48-.35v1.51a9.81 9.81 0 00-2.63.33h.14v-2.18c0-.54-.49-.89-1.19-1.17a9.38 9.38 0 00-3.19-.49 9.69 9.69 0 00-2.66.33c-.91.28-1.51.64-1.55 1.27v1.35l-5.29.74h-.1a.14.14 0 000 .06v17.77a.27.27 0 000 .12v.05l3.75 2 10.44 5.68h.12l23.42-3.28h.1a.19.19 0 000-.07v-17.77zm-10.43-5.67a8.93 8.93 0 013 .46c.65.24.84.53.82.63-.02.1-.27.48-1.14.72a9.08 9.08 0 01-2.5.32 8.93 8.93 0 01-3-.46c-.62-.23-.82-.51-.82-.61 0-.12.28-.49 1.15-.72a9.06 9.06 0 012.49-.34zm-9.38-3.24a9.55 9.55 0 012.5-.31 8.66 8.66 0 013 .46c.65.24.85.54.83.63-.02.09-.28.48-1.15.73a9.52 9.52 0 01-2.5.3 8.74 8.74 0 01-3-.45c-.61-.23-.82-.51-.82-.62-.03-.13.27-.5 1.14-.74zm-4.21 4.93a9.55 9.55 0 012.5-.31 8.68 8.68 0 013 .46c.65.24.84.54.82.63-.02.09-.27.48-1.14.72a9.22 9.22 0 01-2.51.31 8.67 8.67 0 01-3-.45c-.62-.23-.82-.51-.82-.62-.02-.13.28-.5 1.15-.74zm-8-2.82c0-.12.28-.48 1.15-.72a9.07 9.07 0 012.49-.31 8.94 8.94 0 013 .45c.65.24.84.54.82.63-.02.09-.27.48-1.14.73a9.1 9.1 0 01-2.5.31 8.68 8.68 0 01-3-.46c-.62-.23-.82-.5-.82-.61zm-4.93 2.54l4.34-.61v1.34c0 .55.49.9 1.19 1.17a9.09 9.09 0 003.19.5 10.06 10.06 0 002.52-.3v2.15c0 .55.49.9 1.19 1.17a9.07 9.07 0 003.18.5 10.12 10.12 0 002.67-.33c.92-.29 1.52-.65 1.56-1.28v-3.28a10.21 10.21 0 002.48-.3v2.18c0 .54.49.89 1.19 1.16a9.07 9.07 0 003.18.5 10.12 10.12 0 002.67-.33c.91-.28 1.52-.64 1.56-1.28v-1.51l4.87 2.65-22.45 3.16zm36.37 21.79c-.08.06-22.83 3.21-22.83 3.21v-17.19l22.83-3.21s-.04 17.09-.03 17.19z" fill="#c91a20"/><path d="M84.228 6.452c0-.54-.49-.89-1.19-1.17a10.6 10.6 0 00-5.85-.15c-.91.27-1.51.64-1.55 1.26v1.35l-5.29.74h-.1v.05a.14.14 0 000 .07v17.77a.28.28 0 000 .13l3.75 2.05 10.44 5.67h.12l23.42-3.29h.1a.14.14 0 000-.07v-17.77a.2.2 0 000-.11v-.05l-5.91-3.21v-1.09c0-.54-.49-.89-1.19-1.17a9.38 9.38 0 00-3.19-.49h-.7l-1.81-1v-.92c0-.54-.5-.89-1.2-1.17a9.31 9.31 0 00-3.18-.5 9.58 9.58 0 00-2.66.34c-.92.28-1.52.63-1.56 1.26v1.17l-2.49.35" fill="#eb5859"/><path d="M108.258 13.202a.2.2 0 000-.11v-.05l-5.91-3.21v-1.2c0-.54-.49-.89-1.19-1.17a9.38 9.38 0 00-3.19-.49h-.7l-1.81-1v.64l.81.45a7 7 0 00-.82.17v-2.18c0-.54-.5-.89-1.2-1.17a9.31 9.31 0 00-3.18-.5 9.58 9.58 0 00-2.66.34c-.92.28-1.52.63-1.56 1.26v1.17l-2.49.35v.59l2.48-.35v1.51a9.41 9.41 0 00-2.63.34.58.58 0 01.14 0v-2.19c0-.54-.49-.89-1.19-1.17a10.6 10.6 0 00-5.85-.15c-.91.27-1.51.64-1.55 1.26v1.35l-5.29.74h-.1v.05a.14.14 0 000 .07v17.77a.28.28 0 000 .13l3.75 2.05 10.44 5.67h.12l23.42-3.29h.1a.14.14 0 000-.07v-17.77zm-10.43-5.66a8.94 8.94 0 013 .45c.65.24.84.54.82.63-.02.09-.27.48-1.14.72a9.08 9.08 0 01-2.5.32 8.68 8.68 0 01-3-.46c-.62-.23-.82-.5-.82-.61 0-.12.28-.48 1.15-.72a9.07 9.07 0 012.49-.33zm-9.38-3.24a9.13 9.13 0 012.5-.32 8.66 8.66 0 013 .46c.65.24.85.54.83.63-.02.09-.28.48-1.15.73a9.5 9.5 0 01-2.5.31 8.72 8.72 0 01-3-.46c-.61-.23-.82-.51-.82-.61-.03-.11.27-.51 1.14-.74zm-4.21 4.92a9.55 9.55 0 012.5-.31 8.68 8.68 0 013 .46c.65.24.84.54.82.63-.02.09-.27.48-1.14.73a9.65 9.65 0 01-2.51.3 8.44 8.44 0 01-3-.45c-.62-.23-.82-.51-.82-.61-.02-.14.28-.51 1.15-.75zm-8-2.82c0-.11.28-.48 1.15-.72a9.48 9.48 0 012.49-.31 8.68 8.68 0 013 .46c.65.24.84.53.82.62-.02.09-.27.49-1.14.73a9.1 9.1 0 01-2.5.31 8.68 8.68 0 01-3-.46c-.62-.23-.82-.5-.82-.6zm-4.93 2.55l4.34-.61v1.33c0 .54.49.89 1.19 1.16a9.09 9.09 0 003.19.5 10.06 10.06 0 002.52-.3v2.16c0 .54.49.89 1.19 1.17a9.32 9.32 0 003.18.49 9.72 9.72 0 002.67-.33c.92-.29 1.52-.64 1.56-1.28v-3.27a10.22 10.22 0 002.48-.29v2.18c0 .55.49.9 1.19 1.17a9.31 9.31 0 003.18.5 10.1 10.1 0 002.67-.34c.91-.28 1.52-.64 1.56-1.28v-1.51l4.87 2.66-22.45 3.15zm36.37 21.79c-.08.05-22.83 3.2-22.83 3.2v-17.19l22.83-3.2s-.04 17.08-.03 17.19z" fill="#c91a20"/><path d="M60.828 81.132c0-.55-.49-.9-1.19-1.17a9.37 9.37 0 00-3.19-.5 9.68 9.68 0 00-2.66.34c-.91.27-1.51.64-1.55 1.26v1.35l-5.29.75a.19.19 0 00-.1 0v17.84a.28.28 0 000 .13l3.74 2 10.45 5.68h.12l23.41-3.29h.11a.14.14 0 000-.06v-17.83a.22.22 0 000-.12v-.06l-5.91-3.22v-1.11c0-.54-.49-.89-1.2-1.17a9.28 9.28 0 00-3.18-.49h-.7l-1.81-1v-.92c0-.54-.5-.89-1.2-1.17a9.56 9.56 0 00-3.18-.5 9.71 9.71 0 00-2.67.34c-.91.28-1.51.64-1.55 1.27v1.16l-2.49.35" fill="#eb5859"/><path d="M84.858 87.932a.22.22 0 000-.12v-.06l-5.91-3.22v-1.11c0-.54-.49-.89-1.2-1.17a9.28 9.28 0 00-3.18-.49h-.7l-1.81-1v.64l.82.45c-.28 0-.56.1-.82.17v-2.18c0-.54-.5-.89-1.2-1.17a9.56 9.56 0 00-3.18-.5 9.71 9.71 0 00-2.67.34c-.91.28-1.51.64-1.55 1.27v1.16l-2.49.35v.59l2.48-.35v1.4a10.22 10.22 0 00-2.63.34h.14v-2.14c0-.55-.49-.9-1.19-1.17a9.37 9.37 0 00-3.19-.5 9.68 9.68 0 00-2.66.34c-.91.27-1.51.64-1.55 1.26v1.35l-5.29.75a.19.19 0 00-.1 0v17.84a.28.28 0 000 .13l3.74 2 10.45 5.68h.12l23.41-3.29a.25.25 0 00.11 0 .14.14 0 000-.06v-17.83zm-10.43-5.67a8.94 8.94 0 013 .45c.65.24.84.54.82.63-.02.09-.27.48-1.14.73a9.1 9.1 0 01-2.5.31 8.68 8.68 0 01-3-.46c-.62-.23-.82-.5-.82-.61 0-.12.28-.48 1.15-.72a9.07 9.07 0 012.49-.37zm-9.38-3.24a9.48 9.48 0 012.5-.32 8.91 8.91 0 013 .46c.65.24.85.54.83.63-.02.09-.28.48-1.15.73a9.5 9.5 0 01-2.5.31 8.72 8.72 0 01-3-.46c-.61-.23-.82-.51-.82-.61.02-.17.27-.55 1.14-.78zm-4.21 4.93a9.13 9.13 0 012.5-.32 8.72 8.72 0 013 .46c.65.24.84.54.82.63-.02.09-.27.48-1.14.73a9.63 9.63 0 01-2.51.31 8.66 8.66 0 01-3-.46c-.62-.23-.83-.51-.82-.61-.02-.18.24-.55 1.15-.76zm-8-2.83c0-.12.28-.49 1.15-.72a9.06 9.06 0 012.49-.32 8.93 8.93 0 013 .46c.65.24.84.54.82.63-.02.09-.27.48-1.14.72a9.08 9.08 0 01-2.5.32 8.68 8.68 0 01-3-.46c-.62-.23-.82-.51-.82-.61zm-4.91 2.51l4.34-.61v1.33c0 .55.49.89 1.19 1.16a9.09 9.09 0 003.19.5 10.06 10.06 0 002.52-.3v2.22c0 .55.48.89 1.19 1.17a9.32 9.32 0 003.18.49 9.77 9.77 0 002.67-.33c.91-.28 1.52-.64 1.56-1.27v-3.28a10.25 10.25 0 002.49-.29v2.18c0 .55.49.9 1.19 1.17a9.09 9.09 0 003.19.5 9.73 9.73 0 002.66-.34c.91-.28 1.52-.64 1.56-1.27v-1.51l4.87 2.65-22.51 3.13zm36.37 21.79c-.08 0-22.83 3.2-22.83 3.2v-17.18l22.83-3.21s-.06 17.08-.05 17.19z" fill="#c91a20"/><path d="M60.828 45.442c0-.55-.49-.9-1.19-1.18a9.38 9.38 0 00-3.19-.49 10.09 10.09 0 00-2.66.33c-.91.28-1.51.65-1.55 1.27v1.35l-5.29.74h-.1v17.88a.27.27 0 000 .12v.05l3.74 2 10.45 5.67h.12l23.41-3.29h.11a.14.14 0 000-.07v-17.83a.2.2 0 000-.11.1.1 0 000-.05l-5.91-3.21v-1.11c0-.54-.49-.89-1.2-1.17a9.28 9.28 0 00-3.18-.49h-.7l-1.81-1v-.91c0-.54-.5-.89-1.2-1.17a9.31 9.31 0 00-3.18-.5 9.71 9.71 0 00-2.67.34c-.91.28-1.51.63-1.55 1.26v1.17l-2.49.35" fill="#eb5859"/><path d="M84.858 52.192a.2.2 0 000-.11.1.1 0 000-.05l-5.91-3.21v-1.11c0-.54-.49-.89-1.2-1.17a9.28 9.28 0 00-3.18-.49h-.7l-1.81-1v.65l.82.45a7 7 0 00-.82.17v-2.18c0-.54-.5-.89-1.2-1.17a9.31 9.31 0 00-3.18-.5 9.71 9.71 0 00-2.67.34c-.91.28-1.51.63-1.55 1.26v1.17l-2.49.35v.59l2.48-.35v1.49a9.41 9.41 0 00-2.63.34h.14v-2.18c0-.55-.49-.9-1.19-1.18a9.38 9.38 0 00-3.19-.49 10.09 10.09 0 00-2.66.33c-.91.28-1.51.65-1.55 1.27v1.35l-5.29.74h-.1v17.88a.27.27 0 000 .12v.05l3.74 2 10.45 5.67h.12l23.41-3.29h.11a.14.14 0 000-.07v-17.83zm-10.43-5.66a8.94 8.94 0 013 .45c.65.24.84.54.82.63-.02.09-.27.48-1.14.72a9.08 9.08 0 01-2.5.32 8.68 8.68 0 01-3-.46c-.62-.23-.82-.5-.82-.61 0-.12.28-.48 1.15-.72a9.07 9.07 0 012.49-.33zm-9.38-3.25a9.5 9.5 0 012.5-.31 8.66 8.66 0 013 .46c.65.24.85.54.83.63-.02.09-.28.48-1.15.73a9.52 9.52 0 01-2.5.3 8.5 8.5 0 01-3-.45c-.61-.23-.82-.51-.82-.61.02-.1.27-.51 1.14-.75zm-4.21 4.93a9.55 9.55 0 012.5-.31 8.72 8.72 0 013 .46c.65.24.84.54.82.63-.02.09-.27.48-1.14.73a9.65 9.65 0 01-2.51.3 8.44 8.44 0 01-3-.45c-.62-.23-.83-.51-.82-.61-.02-.14.24-.51 1.15-.75zm-8-2.82c0-.11.28-.48 1.15-.72a9.48 9.48 0 012.49-.31 8.94 8.94 0 013 .45c.65.25.84.54.82.64-.02.1-.27.48-1.14.72a9.1 9.1 0 01-2.5.31 8.94 8.94 0 01-3-.45c-.62-.24-.82-.51-.82-.61zm-4.91 2.54l4.34-.61v1.33c0 .54.49.89 1.19 1.16a9.09 9.09 0 003.19.5 10.06 10.06 0 002.52-.3v2.16c0 .54.48.89 1.19 1.17a9.32 9.32 0 003.18.49 9.77 9.77 0 002.67-.33c.91-.29 1.52-.64 1.56-1.28v-3.27a9.77 9.77 0 002.49-.3v2.19c0 .55.49.89 1.19 1.17a9.34 9.34 0 003.19.49 10.15 10.15 0 002.66-.33c.91-.28 1.52-.64 1.56-1.28v-1.51l4.87 2.65-22.45 3.16zm36.37 21.78c-.08.06-22.83 3.21-22.83 3.21v-17.19l22.83-3.2s-.06 17.09-.05 17.19z" fill="#c91a20"/><path d="M60.828 27.592c0-.55-.49-.9-1.19-1.17a9.13 9.13 0 00-3.19-.5 9.68 9.68 0 00-2.66.34c-.91.27-1.51.64-1.55 1.26v1.41l-5.29.75a.19.19 0 00-.1 0v17.84a.28.28 0 000 .13l3.74 2 10.45 5.67a.28.28 0 00.12 0l23.41-3.29h.11a.14.14 0 000-.06v-17.83a.22.22 0 000-.12v-.05l-5.91-3.22v-1.11c0-.54-.49-.89-1.2-1.17a9.28 9.28 0 00-3.18-.49h-.7l-1.81-1v-.92c0-.54-.5-.89-1.2-1.17a9.56 9.56 0 00-3.18-.5 9.71 9.71 0 00-2.67.34c-.91.28-1.51.64-1.55 1.26v1.16l-2.49.35" fill="#eb5859"/><path d="M84.858 34.352a.22.22 0 000-.12v-.05l-5.91-3.22v-1.11c0-.54-.49-.89-1.2-1.17a9.28 9.28 0 00-3.18-.49h-.7l-1.81-1v.64l.82.45a7 7 0 00-.82.17v-2.18c0-.54-.5-.89-1.2-1.17a9.56 9.56 0 00-3.18-.5 9.71 9.71 0 00-2.67.34c-.91.28-1.51.64-1.55 1.26v1.16l-2.49.35v.59l2.48-.35v1.49a10.22 10.22 0 00-2.63.34h.14v-2.19c0-.55-.49-.9-1.19-1.17a9.13 9.13 0 00-3.19-.5 9.68 9.68 0 00-2.66.34c-.91.27-1.51.64-1.55 1.26v1.41l-5.29.75a.19.19 0 00-.1 0v17.84a.28.28 0 000 .13l3.74 2 10.45 5.67a.28.28 0 00.12 0l23.41-3.29h.11a.14.14 0 000-.06v-17.83zm-10.43-5.67a8.94 8.94 0 013 .45c.65.24.84.54.82.63-.02.09-.27.48-1.14.73a9.1 9.1 0 01-2.5.31 8.68 8.68 0 01-3-.46c-.62-.23-.82-.5-.82-.61 0-.12.28-.48 1.15-.72a9.07 9.07 0 012.49-.33zm-9.38-3.24a9.08 9.08 0 012.5-.32 8.91 8.91 0 013 .46c.65.24.85.54.83.63-.02.09-.28.48-1.15.73a9.52 9.52 0 01-2.5.3 8.5 8.5 0 01-3-.45c-.61-.23-.82-.51-.82-.61.02-.14.27-.51 1.14-.74zm-4.21 4.93a9.13 9.13 0 012.5-.32 9 9 0 013 .46c.65.24.84.54.82.63-.02.09-.27.48-1.14.73a9.65 9.65 0 01-2.51.3 8.44 8.44 0 01-3-.45c-.62-.23-.83-.51-.82-.61-.02-.18.24-.51 1.15-.74zm-8-2.83c0-.11.28-.48 1.15-.71a9.06 9.06 0 012.49-.32 8.94 8.94 0 013 .45c.65.25.84.54.82.64-.02.1-.27.48-1.14.72a9.08 9.08 0 01-2.5.32 8.93 8.93 0 01-3-.46c-.62-.23-.82-.51-.82-.61zm-4.93 2.55l4.34-.61v1.33c0 .54.49.89 1.19 1.16a9.09 9.09 0 003.19.5 10.06 10.06 0 002.52-.3v2.16c0 .54.48.89 1.19 1.17a9.32 9.32 0 003.18.49 9.77 9.77 0 002.67-.33c.91-.28 1.52-.64 1.56-1.27v-3.28a10.25 10.25 0 002.49-.29v2.18c0 .55.49.9 1.19 1.17a9.33 9.33 0 003.19.5 9.73 9.73 0 002.66-.34c.91-.28 1.52-.64 1.56-1.28v-1.52l4.87 2.66-22.45 3.15zm36.34 21.84c-.08.05-22.83 3.2-22.83 3.2v-17.18l22.83-3.21s-.01 17.03 0 17.19z" fill="#c91a20"/><path d="M37.418 30.872c0-.55-.49-.9-1.2-1.17a9 9 0 00-3.18-.5 9.68 9.68 0 00-2.66.34c-.91.27-1.51.64-1.55 1.26v1.35l-5.29.75a.19.19 0 00-.1 0v17.89a.51.51 0 000 .13v.05l3.74 2 10.45 5.68a.28.28 0 00.12 0l23.41-3.29h.11a.14.14 0 000-.06v-17.83a.36.36 0 000-.11l-5.91-3.22v-1.11c0-.54-.49-.89-1.2-1.17a9.32 9.32 0 00-3.18-.49h-.71l-1.8-1v-.91c0-.54-.49-.89-1.19-1.17a9.35 9.35 0 00-3.18-.5 9.71 9.71 0 00-2.67.34c-.91.28-1.51.64-1.56 1.26v1.18l-2.49.35" fill="#eb5859"/><path d="M61.448 37.622a.36.36 0 000-.11l-5.91-3.22v-1.11c0-.54-.49-.89-1.2-1.17a9.32 9.32 0 00-3.18-.49h-.71l-1.8-1v.65l.81.45a6.6 6.6 0 00-.82.17v-2.18c0-.54-.49-.89-1.19-1.17a9.35 9.35 0 00-3.18-.5 9.71 9.71 0 00-2.67.34c-.91.28-1.51.64-1.56 1.26v1.18l-2.49.35v.59l2.49-.35v1.49a10.22 10.22 0 00-2.63.34h.13v-2.19c0-.55-.49-.9-1.2-1.17a9 9 0 00-3.18-.5 9.68 9.68 0 00-2.66.34c-.91.27-1.51.64-1.55 1.26v1.35l-5.29.75a.19.19 0 00-.1 0v17.89a.51.51 0 000 .13v.05l3.74 2 10.45 5.68a.28.28 0 00.12 0l23.41-3.29h.11a.14.14 0 000-.06v-17.83zm-10.43-5.69a8.94 8.94 0 013 .45c.64.24.84.54.82.63-.02.09-.27.48-1.14.73a9.15 9.15 0 01-2.5.31 8.68 8.68 0 01-3-.46c-.62-.23-.82-.5-.82-.61 0-.12.28-.48 1.15-.72a9.07 9.07 0 012.49-.33zm-9.38-3.24a9.08 9.08 0 012.5-.32 8.66 8.66 0 013 .46c.65.24.85.54.82.63-.03.09-.27.48-1.14.73a9.57 9.57 0 01-2.5.3 8.46 8.46 0 01-3-.45c-.61-.23-.82-.51-.82-.61-.03-.11.27-.5 1.14-.71zm-4.21 4.92a9.55 9.55 0 012.5-.31 8.72 8.72 0 013 .46c.65.24.84.54.82.63-.02.09-.27.48-1.14.73a9.65 9.65 0 01-2.51.3 8.44 8.44 0 01-3-.45c-.62-.23-.83-.51-.82-.61-.02-.11.28-.43 1.15-.72zm-8-2.82c0-.11.28-.48 1.15-.71a9.06 9.06 0 012.49-.32 8.84 8.84 0 013 .45c.66.25.85.54.83.64-.02.1-.27.48-1.14.72a9.08 9.08 0 01-2.5.32 8.93 8.93 0 01-3-.46c-.62-.24-.82-.51-.82-.61zm-4.93 2.55l4.33-.61v1.33c0 .54.5.89 1.2 1.16a9.07 9.07 0 003.18.5 10.09 10.09 0 002.53-.3v2.16c0 .54.48.89 1.19 1.17a9.32 9.32 0 003.18.49 9.82 9.82 0 002.67-.33c.91-.28 1.52-.64 1.56-1.27v-3.28a9.77 9.77 0 002.49-.3v2.16c0 .55.5.9 1.2 1.17a9.31 9.31 0 003.18.5 9.76 9.76 0 002.67-.34c.91-.28 1.51-.64 1.56-1.28v-1.51l4.87 2.66-22.45 3.15zm36.37 21.79c-.08 0-22.83 3.2-22.83 3.2v-17.19l22.83-3.2s-.04 17.11-.03 17.22z" fill="#c91a20"/><path d="M37.418 13.032c0-.54-.49-.89-1.2-1.17a9.28 9.28 0 00-3.18-.49 9.69 9.69 0 00-2.66.33c-.91.27-1.51.64-1.55 1.27v1.35l-5.29.75a.21.21 0 00-.1 0v17.84a.51.51 0 000 .13l3.74 2 10.45 5.68a.28.28 0 00.12 0l23.41-3.29a.17.17 0 00.11 0 .14.14 0 000-.06v-17.84a.5.5 0 000-.12v-.06l-5.91-3.22v-1.11c0-.54-.49-.89-1.2-1.17a9.32 9.32 0 00-3.18-.49h-.71l-1.8-1v-.92c0-.55-.49-.9-1.19-1.18a9.6 9.6 0 00-3.18-.5 10.1 10.1 0 00-2.67.34c-.91.28-1.51.64-1.56 1.27v1.17l-2.49.34" fill="#eb5859"/><path d="M61.448 19.782a.5.5 0 000-.12v-.06l-5.91-3.22v-1.11c0-.54-.49-.89-1.2-1.17a9.32 9.32 0 00-3.18-.49h-.71l-1.8-1v.65l.81.44c-.29 0-.56.1-.82.17v-2.18c0-.55-.49-.9-1.19-1.18a9.6 9.6 0 00-3.18-.5 10.1 10.1 0 00-2.67.34c-.91.28-1.51.64-1.56 1.27v1.17l-2.49.34v.59l2.49-.35v1.49a9.81 9.81 0 00-2.63.33h.13v-2.18c0-.54-.49-.89-1.2-1.17a9.28 9.28 0 00-3.18-.49 9.69 9.69 0 00-2.66.33c-.91.27-1.51.64-1.55 1.27v1.35l-5.29.75a.21.21 0 00-.1 0v17.84a.51.51 0 000 .13l3.74 2 10.45 5.68a.28.28 0 00.12 0l23.41-3.29a.17.17 0 00.11 0 .14.14 0 000-.06v-17.84zm-10.43-5.67a8.94 8.94 0 013 .45c.64.25.84.54.82.63-.02.09-.27.49-1.14.73a9.15 9.15 0 01-2.5.31 8.68 8.68 0 01-3-.46c-.62-.23-.82-.5-.82-.6 0-.11.28-.48 1.15-.71a8.69 8.69 0 012.49-.35zm-9.38-3.24a9.48 9.48 0 012.5-.32 8.91 8.91 0 013 .46c.65.25.85.54.82.64-.03.1-.27.48-1.14.72a9.55 9.55 0 01-2.5.31 8.7 8.7 0 01-3-.45c-.61-.24-.82-.52-.82-.62-.03-.13.27-.5 1.14-.74zm-4.21 4.93a9.54 9.54 0 012.5-.32 8.71 8.71 0 013 .47c.65.24.84.53.82.63-.02.1-.27.48-1.14.72a9.63 9.63 0 01-2.51.31 8.92 8.92 0 01-3-.45c-.62-.24-.83-.52-.82-.62-.02-.13.28-.5 1.15-.74zm-8-2.83c0-.12.28-.48 1.15-.72a9.07 9.07 0 012.49-.31 8.84 8.84 0 013 .45c.66.24.85.54.83.63-.02.09-.27.48-1.14.72a9.9 9.9 0 01-5.48-.14c-.62-.23-.82-.5-.82-.61zm-4.93 2.55l4.33-.61v1.33c0 .55.5.89 1.2 1.17a9.31 9.31 0 003.18.5 10.08 10.08 0 002.53-.31v2.16c0 .55.48.89 1.19 1.17a9.32 9.32 0 003.18.49 9.82 9.82 0 002.67-.33c.91-.28 1.52-.64 1.56-1.27v-3.28a10.25 10.25 0 002.49-.29v2.15c0 .55.5.9 1.2 1.17a9.07 9.07 0 003.18.5 9.76 9.76 0 002.67-.34c.91-.27 1.51-.63 1.56-1.27v-1.53l4.87 2.65-22.45 3.16zm36.37 21.79c-.08.06-22.83 3.2-22.83 3.2v-17.18l22.83-3.21s-.04 17.08-.03 17.19z" fill="#c91a20"/><path d="M14.008 105.552c0-.54-.49-.89-1.2-1.17a9.32 9.32 0 00-3.18-.49 9.69 9.69 0 00-2.66.33c-.92.28-1.51.64-1.56 1.27v1.35l-5.29.74h-.11v17.83a.34.34 0 000 .14l3.74 2 10.44 5.68a.5.5 0 00.13 0l23.41-3.29h.1v-17.84a.27.27 0 000-.12.1.1 0 000-.05l-5.91-3.21v-1.12c0-.55-.48-.9-1.19-1.17a9.07 9.07 0 00-3.18-.5h-.71l-1.81-1v-.92c0-.55-.49-.89-1.19-1.17a9.17 9.17 0 00-3.19-.5 10.09 10.09 0 00-2.66.33c-.91.28-1.51.64-1.56 1.27v1.17l-2.48.35" fill="#eb5859"/><path d="M38.038 112.302a.27.27 0 000-.12.1.1 0 000-.05l-5.91-3.21v-1.12c0-.55-.48-.9-1.19-1.17a9.07 9.07 0 00-3.18-.5h-.71l-1.81-1v.65l.81.45a5 5 0 00-.81.17v-2.19c0-.55-.49-.89-1.19-1.17a9.17 9.17 0 00-3.19-.5 10.09 10.09 0 00-2.66.33c-.91.28-1.51.64-1.56 1.27v1.17l-2.48.35v.58l2.49-.34v1.48a9.73 9.73 0 00-2.62.33h.13v-2.18c0-.54-.49-.89-1.2-1.17a9.32 9.32 0 00-3.18-.49 9.69 9.69 0 00-2.66.33c-.92.28-1.51.64-1.56 1.27v1.35l-5.29.74h-.11v17.83a.34.34 0 000 .14l3.74 2 10.44 5.68a.5.5 0 00.13 0l23.41-3.29h.1v-17.84zm-10.43-5.67a8.82 8.82 0 013 .46c.65.24.85.54.82.63-.03.09-.26.48-1.13.72a9.21 9.21 0 01-2.51.32 8.87 8.87 0 01-3-.46c-.62-.24-.83-.51-.83-.61 0-.12.28-.49 1.15-.72a9.08 9.08 0 012.5-.34zm-9.39-3.24a9.55 9.55 0 012.5-.31 8.72 8.72 0 013 .46c.65.24.84.54.82.63-.02.09-.27.48-1.14.72a9.22 9.22 0 01-2.51.31 8.67 8.67 0 01-3-.45c-.62-.24-.83-.51-.82-.62-.02-.13.28-.5 1.15-.74zm-4.2 4.93a9.55 9.55 0 012.5-.31 8.66 8.66 0 013 .46c.65.24.85.53.83.63-.02.1-.28.48-1.15.72a9.5 9.5 0 01-2.5.31 9 9 0 01-3-.45c-.61-.23-.82-.51-.82-.62-.03-.13.27-.5 1.14-.74zm-8-2.82c0-.12.28-.48 1.15-.72a9.15 9.15 0 012.5-.31 8.84 8.84 0 013 .45c.65.24.85.54.83.63-.02.09-.27.48-1.14.73a9.22 9.22 0 01-2.51.31 8.66 8.66 0 01-3-.46c-.62-.23-.83-.5-.83-.61zm-4.92 2.54l4.33-.6v1.33c0 .55.49.9 1.2 1.17a9 9 0 003.18.5 9.69 9.69 0 002.53-.31v2.16c0 .55.49.9 1.19 1.17a9.07 9.07 0 003.18.5 9.71 9.71 0 002.67-.34c.92-.28 1.52-.64 1.56-1.27v-3.28a9.83 9.83 0 002.49-.29v2.15c0 .54.49.89 1.2 1.16a9 9 0 003.18.5 10.22 10.22 0 002.67-.33c.91-.28 1.51-.64 1.55-1.28v-1.87.36l4.87 2.66-22.45 3.15zm36.36 21.8c-.08.05-22.82 3.19-22.82 3.19v-17.18l22.83-3.21s-.06 17.09-.05 17.2z" fill="#c91a20"/><path d="M14.008 87.702c0-.55-.49-.9-1.2-1.18a9.32 9.32 0 00-3.18-.49 9.68 9.68 0 00-2.66.34c-.92.27-1.51.64-1.56 1.26v1.35l-5.29.74h-.11v17.88a.3.3 0 000 .13.1.1 0 000 .05l3.74 2 10.44 5.67a.28.28 0 00.13 0l23.41-3.29h.1v-17.84a.2.2 0 000-.11v-.05l-5.91-3.21v-1.02c0-.54-.48-.89-1.19-1.17a9.32 9.32 0 00-3.18-.49h-.71l-1.81-1v-.92c0-.54-.49-.89-1.19-1.17a9.41 9.41 0 00-3.19-.5 9.68 9.68 0 00-2.66.34c-.91.28-1.51.64-1.56 1.26v1.17l-2.48.35" fill="#eb5859"/><path d="M38.038 94.452a.2.2 0 000-.11v-.05l-5.91-3.21v-1.15c0-.54-.48-.89-1.19-1.17a9.32 9.32 0 00-3.18-.49h-.71l-1.81-1v.66l.81.45a6.43 6.43 0 00-.81.17v-2.22c0-.54-.49-.89-1.19-1.17a9.41 9.41 0 00-3.19-.5 9.68 9.68 0 00-2.66.34c-.91.28-1.51.64-1.56 1.26v1.17l-2.48.35v.59l2.49-.35v1.49a10.6 10.6 0 00-2.62.33.61.61 0 00.13 0v-2.18c0-.55-.49-.9-1.2-1.18a9.32 9.32 0 00-3.18-.49 9.68 9.68 0 00-2.66.34c-.92.27-1.51.64-1.56 1.26v1.35l-5.29.74h-.11v17.88a.3.3 0 000 .13.1.1 0 000 .05l3.74 2 10.44 5.67a.28.28 0 00.13 0l23.41-3.29h.1v-17.84zm-10.43-5.67a8.82 8.82 0 013 .46c.65.24.85.54.82.63-.03.09-.26.48-1.13.73a9.63 9.63 0 01-2.51.31 8.87 8.87 0 01-3-.46c-.62-.23-.83-.5-.83-.61 0-.12.28-.48 1.15-.72a9.08 9.08 0 012.5-.34zm-9.39-3.24a9.55 9.55 0 012.5-.31 8.72 8.72 0 013 .46c.65.24.84.54.82.63-.02.09-.27.48-1.14.73a9.63 9.63 0 01-2.51.31 8.66 8.66 0 01-3-.46c-.62-.23-.83-.51-.82-.62-.02-.13.28-.5 1.15-.74zm-4.2 4.93a9.55 9.55 0 012.5-.31 8.66 8.66 0 013 .46c.65.24.85.54.83.63-.02.09-.28.49-1.15.73a9.52 9.52 0 01-2.5.3 8.5 8.5 0 01-3-.45c-.61-.23-.82-.51-.82-.61-.03-.14.27-.51 1.14-.75zm-8-2.82c0-.11.28-.48 1.15-.72a9.55 9.55 0 012.5-.31 8.84 8.84 0 013 .45c.65.24.85.54.83.64-.02.1-.27.48-1.14.72a9.22 9.22 0 01-2.51.31 8.92 8.92 0 01-3-.45c-.62-.24-.83-.51-.83-.61zm-4.92 2.55l4.33-.61v1.34c0 .54.49.89 1.2 1.16a9 9 0 003.18.5 10.14 10.14 0 002.53-.3v2.16c0 .54.49.89 1.19 1.17a9.32 9.32 0 003.18.49 9.72 9.72 0 002.67-.33c.92-.28 1.52-.64 1.56-1.27v-3.28a10.3 10.3 0 002.49-.3v2.16c0 .55.49.89 1.2 1.17a9.23 9.23 0 003.18.5 9.81 9.81 0 002.67-.34c.91-.28 1.51-.64 1.55-1.28v-1.87.36l4.87 2.66-22.45 3.15zm36.36 21.79c-.08.05-22.82 3.2-22.82 3.2v-17.19l22.83-3.2s-.06 17.13-.05 17.19z" fill="#c91a20"/><path d="M14.008 69.852c0-.55-.49-.89-1.2-1.17a9.32 9.32 0 00-3.18-.49 9.69 9.69 0 00-2.66.33c-.92.27-1.51.64-1.56 1.27v1.35l-5.29.75a.23.23 0 00-.11 0v17.88a.27.27 0 000 .13l3.74 2 10.44 5.67a.28.28 0 00.13 0l23.41-3.29a.14.14 0 00.1 0v-17.83a.27.27 0 000-.12l-5.91-3.22v-1.08c0-.54-.48-.89-1.19-1.17a9.32 9.32 0 00-3.18-.49h-.71l-1.81-1v-.92c0-.55-.49-.9-1.19-1.18a9.66 9.66 0 00-3.19-.5 10.08 10.08 0 00-2.66.34c-.91.28-1.51.64-1.56 1.26v1.16l-2.48.35" fill="#eb5859"/><path d="M38.038 76.612a.27.27 0 000-.12l-5.91-3.22v-1.24c0-.54-.48-.89-1.19-1.17a9.32 9.32 0 00-3.18-.49h-.71l-1.81-1v.65l.81.44a6.43 6.43 0 00-.81.17v-2.18c0-.55-.49-.9-1.19-1.18a9.66 9.66 0 00-3.19-.5 10.08 10.08 0 00-2.66.34c-.91.28-1.51.64-1.56 1.26v1.16l-2.48.35v.59l2.49-.35v1.49a10.14 10.14 0 00-2.62.34h.13v-2.19c0-.55-.49-.89-1.2-1.17a9.32 9.32 0 00-3.18-.49 9.69 9.69 0 00-2.66.33c-.92.27-1.51.64-1.56 1.27v1.35l-5.29.75a.23.23 0 00-.11 0v17.88a.27.27 0 000 .13l3.74 2 10.44 5.67a.28.28 0 00.13 0l23.41-3.29a.14.14 0 00.1 0v-17.83zm-10.43-5.68a8.84 8.84 0 013 .45c.65.24.85.54.82.63-.03.09-.26.48-1.13.73a9.22 9.22 0 01-2.51.31 8.62 8.62 0 01-3-.46c-.62-.23-.83-.5-.83-.61 0-.11.28-.48 1.15-.72a9.1 9.1 0 012.5-.33zm-9.39-3.24a9.13 9.13 0 012.5-.32 9 9 0 013 .46c.65.25.84.54.82.64-.02.1-.27.48-1.14.72a9.63 9.63 0 01-2.51.31 8.66 8.66 0 01-3-.46c-.62-.23-.83-.51-.82-.61-.02-.12.28-.5 1.15-.73zm-4.2 4.93a9.13 9.13 0 012.5-.32 8.91 8.91 0 013 .46c.65.25.85.54.83.63-.02.09-.28.49-1.15.73a9.5 9.5 0 01-2.5.31 8.72 8.72 0 01-3-.46c-.61-.23-.82-.51-.82-.61-.03-.12.27-.5 1.14-.73zm-8-2.83c0-.12.28-.48 1.15-.72a9.13 9.13 0 012.5-.32 8.82 8.82 0 013 .46c.65.24.85.54.83.63-.02.09-.27.48-1.14.72a9.21 9.21 0 01-2.51.32 8.91 8.91 0 01-3-.46c-.62-.23-.83-.51-.83-.61zm-4.92 2.55l4.33-.61v1.34c0 .54.49.89 1.2 1.16a9 9 0 003.18.51 10.14 10.14 0 002.53-.31v2.16c0 .54.49.89 1.19 1.17a9.31 9.31 0 003.18.5 9.71 9.71 0 002.67-.34c.92-.28 1.52-.64 1.56-1.27v-3.28a9.83 9.83 0 002.49-.29v2.15c0 .55.49.9 1.2 1.17a9 9 0 003.18.5 9.81 9.81 0 002.67-.34c.91-.28 1.51-.64 1.55-1.27v-1.88.37l4.87 2.65-22.45 3.16zm36.36 21.79c-.08 0-22.82 3.2-22.82 3.2v-17.18l22.83-3.21s-.06 17.09-.05 17.2z" fill="#c91a20"/><path d="M14.008 52.012c0-.54-.49-.89-1.2-1.17a10.57 10.57 0 00-5.84-.15c-.92.27-1.51.63-1.56 1.26v1.36l-5.29.74a.45.45 0 00-.11 0v.11c0 .06 0 0 0 0v17.76a.27.27 0 000 .13l3.74 2 10.44 5.68a.5.5 0 00.13 0l23.41-3.28h.1a.16.16 0 000-.06v-17.78a.27.27 0 000-.12v-.06l-5.91-3.22v-1.11c0-.55-.48-.89-1.19-1.17a9.07 9.07 0 00-3.18-.5h-.71l-1.81-1v-.92c0-.55-.49-.89-1.19-1.17a9.17 9.17 0 00-3.19-.5 10.09 10.09 0 00-2.66.33c-.91.28-1.51.64-1.56 1.27v1.16l-2.48.35" fill="#eb5859"/><path d="M38.038 58.762a.27.27 0 000-.12v-.06l-5.91-3.22v-1.11c0-.55-.48-.89-1.19-1.17a9.07 9.07 0 00-3.18-.5h-.71l-1.81-1v.65l.81.44-.81.17v-2.21c0-.55-.49-.89-1.19-1.17a9.17 9.17 0 00-3.19-.5 10.09 10.09 0 00-2.66.33c-.91.28-1.51.64-1.56 1.27v1.16l-2.48.35v.59l2.49-.35v1.49a9.73 9.73 0 00-2.62.33h.13v-2.18c0-.54-.49-.89-1.2-1.17a10.57 10.57 0 00-5.84-.15c-.92.27-1.51.63-1.56 1.26v1.36l-5.29.74a.45.45 0 00-.11 0v.11c0 .06 0 0 0 0v17.76a.27.27 0 000 .13l3.74 2 10.44 5.68a.5.5 0 00.13 0l23.41-3.28h.1a.16.16 0 000-.06v-17.78zm-10.43-5.67a8.82 8.82 0 013 .46c.65.24.85.53.82.63-.03.1-.26.48-1.13.72a9.22 9.22 0 01-2.51.31 8.88 8.88 0 01-3-.45c-.62-.23-.83-.51-.83-.61 0-.11.28-.48 1.15-.71a9.08 9.08 0 012.5-.35zm-9.39-3.24a9.55 9.55 0 012.5-.31 8.72 8.72 0 013 .46c.65.24.84.54.82.63-.02.09-.27.48-1.14.72a9.22 9.22 0 01-2.51.31 8.67 8.67 0 01-3-.45c-.62-.24-.83-.51-.82-.62-.02-.13.28-.5 1.15-.74zm-4.2 4.93a9.55 9.55 0 012.5-.31 8.92 8.92 0 013 .45c.65.25.85.55.83.64-.02.09-.28.48-1.15.72a9.1 9.1 0 01-2.5.31 9 9 0 01-3-.45c-.61-.23-.82-.51-.82-.62-.03-.13.27-.5 1.14-.74zm-8-2.83c0-.11.28-.48 1.15-.72a9.15 9.15 0 012.5-.31 8.84 8.84 0 013 .45c.65.24.85.54.83.63-.02.09-.27.48-1.14.73a9.22 9.22 0 01-2.51.31 8.66 8.66 0 01-3-.46c-.62-.23-.83-.5-.83-.61zm-4.92 2.55l4.33-.61v1.34c0 .55.49.9 1.2 1.17a9.27 9.27 0 003.18.5 9.69 9.69 0 002.53-.31v2.16c0 .55.49.89 1.19 1.18a9.57 9.57 0 003.18.49 10.12 10.12 0 002.67-.33c.92-.29 1.52-.65 1.56-1.28v-3.28a10.3 10.3 0 002.49-.3v2.15c0 .54.49.89 1.2 1.16a9 9 0 003.18.5 10.22 10.22 0 002.67-.33c.91-.28 1.51-.64 1.55-1.28v-1.87.37l4.87 2.66-22.45 3.15zm36.36 21.79c-.08.06-22.82 3.21-22.82 3.21v-17.19l22.83-3.21s-.06 17.08-.05 17.19z" fill="#c91a20"/><path d="M14.008 34.162c0-.55-.49-.9-1.2-1.18a9.32 9.32 0 00-3.18-.49 9.68 9.68 0 00-2.66.34c-.92.27-1.51.64-1.56 1.26v1.35l-5.29.74h-.11v17.88a.3.3 0 000 .13.1.1 0 000 .05l3.74 2.05 10.44 5.67a.5.5 0 00.13 0l23.41-3.29h.1v-17.84a.2.2 0 000-.11v-.05l-5.91-3.21v-1.11c0-.54-.48-.89-1.19-1.17a9.32 9.32 0 00-3.18-.49h-.71l-1.81-1v-.91c0-.54-.49-.89-1.19-1.17a9.41 9.41 0 00-3.19-.5 9.68 9.68 0 00-2.66.34c-.91.28-1.51.63-1.56 1.26v1.22l-2.48.35" fill="#eb5859"/><path d="M38.038 40.932a.2.2 0 000-.11v-.05l-5.91-3.21v-1.11c0-.54-.48-.89-1.19-1.17a9.32 9.32 0 00-3.18-.49h-.71l-1.81-1v.65l.81.45a6.43 6.43 0 00-.81.17v-2.18c0-.54-.49-.89-1.19-1.17a9.41 9.41 0 00-3.19-.5 9.68 9.68 0 00-2.66.34c-.91.28-1.51.63-1.56 1.26v1.12l-2.48.35v.59l2.49-.35v1.49a9.34 9.34 0 00-2.62.34h.13v-2.18c0-.55-.49-.9-1.2-1.18a9.32 9.32 0 00-3.18-.49 9.68 9.68 0 00-2.66.34c-.92.27-1.51.64-1.56 1.26v1.35l-5.29.74h-.11v17.88a.3.3 0 000 .13.1.1 0 000 .05l3.74 2.05 10.44 5.67a.5.5 0 00.13 0l23.41-3.29h.1v-17.84zm-10.43-5.66a8.84 8.84 0 013 .45c.65.24.85.54.82.63-.03.09-.26.48-1.13.73a9.63 9.63 0 01-2.51.31 8.62 8.62 0 01-3-.46c-.62-.23-.83-.5-.83-.61 0-.12.28-.48 1.15-.72a9.1 9.1 0 012.5-.35zm-9.39-3.25a9.55 9.55 0 012.5-.31 8.72 8.72 0 013 .46c.65.24.84.54.82.63-.02.09-.27.48-1.14.73a9.65 9.65 0 01-2.51.3 8.44 8.44 0 01-3-.45c-.62-.23-.83-.51-.82-.61-.02-.16.28-.53 1.15-.77zm-4.2 4.93a9.55 9.55 0 012.5-.31 8.66 8.66 0 013 .46c.65.24.85.54.83.63-.02.09-.28.48-1.15.73a9.52 9.52 0 01-2.5.3 8.5 8.5 0 01-3-.45c-.61-.23-.82-.51-.82-.61-.03-.16.27-.53 1.14-.77zm-8-2.82c0-.11.28-.48 1.15-.72a9.55 9.55 0 012.5-.31 8.84 8.84 0 013 .45c.65.25.85.54.83.64-.02.1-.27.48-1.14.72a9.22 9.22 0 01-2.51.31 8.92 8.92 0 01-3-.45c-.62-.24-.83-.51-.83-.61zm-4.92 2.55l4.33-.61v1.33c0 .54.49.89 1.2 1.16a9 9 0 003.18.5 10.14 10.14 0 002.53-.3v2.16c0 .54.49.89 1.19 1.17a9.32 9.32 0 003.18.49 9.72 9.72 0 002.67-.33c.92-.28 1.52-.64 1.56-1.28v-3.27a9.82 9.82 0 002.49-.3v2.16c0 .55.49.89 1.2 1.17a9.23 9.23 0 003.18.5 9.81 9.81 0 002.67-.34c.91-.28 1.51-.64 1.55-1.28v-1.87.36l4.87 2.66-22.51 3.17zm36.36 21.79c-.08.05-22.82 3.2-22.82 3.2v-17.19l22.83-3.2s-.06 17.06-.05 17.17z" fill="#c91a20"/><path d="M14.008 16.312c0-.55-.49-.89-1.2-1.17a9.31 9.31 0 00-3.18-.5 9.68 9.68 0 00-2.66.34c-.92.27-1.51.64-1.56 1.26v1.35l-5.29.75a.23.23 0 00-.11 0v17.89a.27.27 0 000 .13l3.74 2 10.44 5.68a.28.28 0 00.13 0l23.41-3.29a.14.14 0 00.1 0v-17.65a.27.27 0 000-.12v-.05l-5.91-3.22v-1.11c0-.54-.48-.89-1.19-1.17a9.32 9.32 0 00-3.18-.49h-.71l-1.81-1v-1.01c0-.54-.49-.89-1.19-1.17a10.49 10.49 0 00-5.85-.16c-.91.28-1.51.64-1.56 1.26v1.16l-2.48.35" fill="#eb5859"/><path d="M38.038 23.072a.27.27 0 000-.12v-.05l-5.91-3.22v-1.11c0-.54-.48-.89-1.19-1.17a9.32 9.32 0 00-3.18-.49h-.71l-1.81-1v.64l.81.45a6.43 6.43 0 00-.81.17v-2.24c0-.54-.49-.89-1.19-1.17a10.49 10.49 0 00-5.85-.16c-.91.28-1.51.64-1.56 1.26v1.16l-2.48.35v.59l2.49-.35v1.49a9.73 9.73 0 00-2.62.33h.13v-2.19c0-.55-.49-.89-1.2-1.17a9.31 9.31 0 00-3.18-.5 9.68 9.68 0 00-2.66.34c-.92.27-1.51.64-1.56 1.26v1.35l-5.29.75a.23.23 0 00-.11 0v17.89a.27.27 0 000 .13l3.74 2 10.44 5.68a.28.28 0 00.13 0l23.41-3.29a.14.14 0 00.1 0v-17.58zm-10.43-5.67a8.84 8.84 0 013 .45c.65.24.85.54.82.63-.03.09-.26.48-1.13.73a9.22 9.22 0 01-2.51.31 8.62 8.62 0 01-3-.46c-.62-.23-.83-.5-.83-.61 0-.11.28-.48 1.15-.72a9.1 9.1 0 012.5-.33zm-9.39-3.24a9.54 9.54 0 012.5-.32 9 9 0 013 .46c.65.25.84.54.82.63-.02.09-.27.49-1.14.73a9.63 9.63 0 01-2.51.31 8.66 8.66 0 01-3-.46c-.62-.23-.83-.51-.82-.61-.02-.13.28-.51 1.15-.74zm-4.2 4.93a9.13 9.13 0 012.5-.32 8.91 8.91 0 013 .46c.65.25.85.54.83.63-.02.09-.28.49-1.15.73a9.5 9.5 0 01-2.5.31 8.72 8.72 0 01-3-.46c-.61-.23-.82-.51-.82-.61-.03-.13.27-.51 1.14-.74zm-8-2.83c0-.12.28-.49 1.15-.72a9.13 9.13 0 012.5-.32 8.82 8.82 0 013 .46c.65.24.85.54.83.63-.02.09-.27.48-1.14.72a9.21 9.21 0 01-2.51.32 8.91 8.91 0 01-3-.46c-.62-.23-.83-.51-.83-.61zm-4.92 2.55l4.33-.61v1.33c0 .54.49.89 1.2 1.16a9 9 0 003.18.5 10.14 10.14 0 002.53-.3v2.16c0 .54.49.89 1.19 1.17a9.32 9.32 0 003.18.49 9.72 9.72 0 002.67-.33c.92-.28 1.52-.64 1.56-1.27v-3.28a10.31 10.31 0 002.49-.29v2.15c0 .55.49.9 1.2 1.17a9 9 0 003.18.5 9.81 9.81 0 002.67-.34c.91-.28 1.51-.64 1.55-1.27v-1.88.37l4.87 2.65-22.45 3.15zm36.36 21.79c-.08.05-22.82 3.2-22.82 3.2v-17.18l22.83-3.21s-.06 17.08-.05 17.19z" fill="#c91a20"/><path d="M122.368 100.422c0-.54-.49-.89-1.19-1.17a9.38 9.38 0 00-3.19-.49 9.69 9.69 0 00-2.66.33c-.91.28-1.51.64-1.55 1.27v1.34l-5.29.75h-.1v17.82a.28.28 0 000 .13l3.74 2 10.45 5.68a.28.28 0 00.12 0l23.41-3.28a.27.27 0 00.11 0 .11.11 0 000-.06v-17.84a.25.25 0 000-.12.1.1 0 000-.05l-5.91-3.22v-1.11c0-.55-.49-.9-1.2-1.17a9.27 9.27 0 00-3.18-.5h-.7l-1.81-1v-.92c0-.55-.49-.9-1.19-1.17a9.3 9.3 0 00-3.18-.51 10.1 10.1 0 00-2.67.34c-.91.28-1.51.64-1.56 1.27v1.16l-2.49.35" fill="#eb5859"/><path d="M146.398 107.172a.25.25 0 000-.12.1.1 0 000-.05l-5.91-3.22v-1.11c0-.55-.49-.9-1.2-1.17a9.27 9.27 0 00-3.18-.5h-.7l-1.81-1v.65l.82.44a7 7 0 00-.82.18v-2.19c0-.55-.49-.9-1.19-1.17a9.3 9.3 0 00-3.18-.51 10.1 10.1 0 00-2.67.34c-.91.28-1.51.64-1.56 1.27v1.16l-2.49.35v.59l2.48-.35v1.51a9.81 9.81 0 00-2.63.33h.14v-2.18c0-.54-.49-.89-1.19-1.17a9.38 9.38 0 00-3.19-.49 9.69 9.69 0 00-2.66.33c-.91.28-1.51.64-1.55 1.27v1.34l-5.29.75h-.1v17.82a.28.28 0 000 .13l3.74 2 10.45 5.68a.28.28 0 00.12 0l23.41-3.28a.27.27 0 00.11 0 .19.19 0 000-.07v-17.84zm-10.47-5.67a8.68 8.68 0 013 .46c.65.24.84.53.82.63-.02.1-.27.48-1.14.72a9.13 9.13 0 01-2.5.32 8.93 8.93 0 01-3-.46c-.62-.23-.82-.51-.82-.61 0-.12.28-.49 1.15-.72a9.06 9.06 0 012.49-.34zm-9.38-3.24a9.5 9.5 0 012.5-.31 8.66 8.66 0 013 .46c.65.24.85.53.82.63-.03.1-.27.48-1.14.72a9.1 9.1 0 01-2.5.31 8.94 8.94 0 01-3-.45c-.61-.23-.82-.51-.82-.62.01-.13.31-.5 1.18-.74zm-4.21 4.93a9.54 9.54 0 012.5-.32 9 9 0 013 .46c.65.25.84.55.82.64-.02.09-.27.48-1.14.72a9.22 9.22 0 01-2.51.31 8.92 8.92 0 01-3-.45c-.62-.23-.83-.51-.82-.62.02-.13.32-.5 1.19-.74zm-8-2.82c0-.12.28-.48 1.15-.72a9.07 9.07 0 012.49-.31 8.94 8.94 0 013 .45c.65.24.84.54.82.63-.02.09-.27.48-1.14.73a9.1 9.1 0 01-2.5.31 8.68 8.68 0 01-3-.46c-.62-.23-.82-.5-.82-.61zm-4.93 2.54l4.34-.61v1.33c0 .55.49.9 1.19 1.17a9.09 9.09 0 003.19.5 9.61 9.61 0 002.52-.31v2.16c0 .55.49.9 1.19 1.17a9.07 9.07 0 003.18.5 10.22 10.22 0 002.67-.33c.91-.29 1.52-.65 1.56-1.28v-3.28a10.24 10.24 0 002.49-.3v2.15c0 .54.5.89 1.2 1.16a9.09 9.09 0 003.19.5 10.15 10.15 0 002.66-.33c.91-.28 1.52-.64 1.56-1.28v-1.51l4.87 2.65-22.46 3.16zm36.37 21.79c-.08.06-22.83 3.2-22.83 3.2v-17.18l22.82-3.21s.01 17.08.02 17.19z" fill="#c91a20"/><path d="M122.368 82.572c0-.54-.49-.89-1.19-1.17a9.38 9.38 0 00-3.19-.49 9.68 9.68 0 00-2.66.34c-.91.27-1.51.63-1.55 1.26v1.35l-5.29.74h-.1v17.88a.24.24 0 000 .12v.05l3.74 2 10.45 5.68h.12l23.41-3.29h.11a.14.14 0 000-.07v-17.83a.2.2 0 000-.11v-.05l-5.91-3.21v-1.11c0-.55-.49-.89-1.2-1.17a9.28 9.28 0 00-3.18-.49h-.7l-1.81-1v-.91c0-.54-.49-.89-1.19-1.17a9.31 9.31 0 00-3.18-.5 9.71 9.71 0 00-2.67.34c-.91.27-1.51.64-1.56 1.26v1.17l-2.49.35" fill="#eb5859"/><path d="M146.398 89.322a.2.2 0 000-.11v-.05l-5.91-3.21v-1.11c0-.55-.49-.89-1.2-1.17a9.28 9.28 0 00-3.18-.49h-.7l-1.81-1v.65l.82.45a7 7 0 00-.82.17v-2.18c0-.54-.49-.89-1.19-1.17a9.31 9.31 0 00-3.18-.5 9.71 9.71 0 00-2.67.34c-.91.27-1.51.64-1.56 1.26v1.17l-2.49.35v.59l2.48-.35v1.49a9.41 9.41 0 00-2.63.34h.14v-2.18c0-.54-.49-.89-1.19-1.17a9.38 9.38 0 00-3.19-.49 9.68 9.68 0 00-2.66.34c-.91.27-1.51.63-1.55 1.26v1.35l-5.29.74h-.1v17.88a.24.24 0 000 .12v.05l3.74 2 10.45 5.68h.12l23.41-3.29h.11a.14.14 0 000-.07v-17.83zm-10.47-5.66a8.94 8.94 0 013 .45c.65.24.84.54.82.63-.02.09-.27.48-1.14.72a9.13 9.13 0 01-2.5.32 8.68 8.68 0 01-3-.46c-.62-.23-.82-.5-.82-.61 0-.12.28-.48 1.15-.72a9.07 9.07 0 012.49-.33zm-9.38-3.24a9.08 9.08 0 012.5-.32 8.66 8.66 0 013 .46c.65.24.85.54.82.63-.03.09-.27.48-1.14.73a9.52 9.52 0 01-2.5.3 8.46 8.46 0 01-3-.45c-.61-.23-.82-.51-.82-.61.01-.14.31-.51 1.18-.74zm-4.21 4.92a9.55 9.55 0 012.5-.31 8.72 8.72 0 013 .46c.65.24.84.54.82.63-.02.09-.27.48-1.14.73a9.65 9.65 0 01-2.51.3 8.44 8.44 0 01-3-.45c-.62-.23-.83-.51-.82-.61.02-.16.32-.51 1.19-.75zm-8-2.82c0-.11.28-.48 1.15-.72a9.07 9.07 0 012.49-.31 8.94 8.94 0 013 .45c.65.25.84.54.82.63-.02.09-.27.49-1.14.73a9.1 9.1 0 01-2.5.31 8.68 8.68 0 01-3-.46c-.62-.23-.82-.5-.82-.6zm-4.93 2.55l4.34-.61v1.33c0 .54.49.89 1.19 1.16a9.09 9.09 0 003.19.5 10.06 10.06 0 002.52-.3v2.16c0 .54.49.89 1.19 1.17a9.32 9.32 0 003.18.49 9.82 9.82 0 002.67-.33c.91-.29 1.52-.64 1.56-1.28v-3.27a9.77 9.77 0 002.49-.3v2.16c0 .55.5.89 1.2 1.17a9.33 9.33 0 003.19.5 10.14 10.14 0 002.66-.34c.91-.28 1.52-.64 1.56-1.28v-1.51l4.87 2.66-22.46 3.15zm36.37 21.79c-.08.05-22.83 3.2-22.83 3.2v-17.19l22.82-3.2s.01 17.07.02 17.19z" fill="#c91a20"/><path d="M122.368 64.722c0-.55-.49-.9-1.19-1.17a9.13 9.13 0 00-3.19-.5 9.68 9.68 0 00-2.66.34c-.91.27-1.51.64-1.55 1.26v1.35l-5.29.75h-.1v17.89a.28.28 0 000 .13l3.74 2 10.45 5.68a.28.28 0 00.12 0l23.41-3.29h.11a.14.14 0 000-.06v-17.84a.23.23 0 000-.12l-5.91-3.22v-.99c0-.54-.49-.89-1.2-1.17a9.28 9.28 0 00-3.18-.49h-.7l-1.81-1v-.91c0-.55-.49-.9-1.19-1.18a9.56 9.56 0 00-3.18-.5 10.1 10.1 0 00-2.67.34c-.91.28-1.51.64-1.56 1.26v1.16l-2.49.35" fill="#eb5859"/><path d="M146.398 71.482a.23.23 0 000-.12l-5.91-3.22v-1.21c0-.54-.49-.89-1.2-1.17a9.28 9.28 0 00-3.18-.49h-.7l-1.81-1v.66l.82.45a7 7 0 00-.82.17v-2.18c0-.55-.49-.9-1.19-1.18a9.56 9.56 0 00-3.18-.5 10.1 10.1 0 00-2.67.34c-.91.28-1.51.64-1.56 1.26v1.16l-2.49.35v.59l2.48-.35v1.51a10.22 10.22 0 00-2.63.34h.14v-2.19c0-.55-.49-.9-1.19-1.17a9.13 9.13 0 00-3.19-.5 9.68 9.68 0 00-2.66.34c-.91.27-1.51.64-1.55 1.26v1.35l-5.29.75h-.1v17.89a.28.28 0 000 .13l3.74 2 10.45 5.68a.28.28 0 00.12 0l23.41-3.29h.11a.14.14 0 000-.06v-17.84zm-10.47-5.67a8.94 8.94 0 013 .45c.65.24.84.54.82.63-.02.09-.27.48-1.14.73a9.15 9.15 0 01-2.5.31 8.68 8.68 0 01-3-.46c-.62-.23-.82-.5-.82-.6 0-.11.28-.48 1.15-.72a9.07 9.07 0 012.49-.34zm-9.38-3.24a9.48 9.48 0 012.5-.32 8.91 8.91 0 013 .46c.65.25.85.54.82.64-.03.1-.27.47-1.14.72a9.52 9.52 0 01-2.5.3 8.46 8.46 0 01-3-.45c-.61-.23-.82-.51-.82-.61.01-.14.31-.51 1.18-.74zm-4.21 4.93a9.54 9.54 0 012.5-.32 9 9 0 013 .46c.65.24.84.54.82.64-.02.1-.27.47-1.14.72a9.65 9.65 0 01-2.51.3 8.69 8.69 0 01-3-.44c-.62-.24-.83-.52-.82-.62.02-.13.32-.51 1.19-.74zm-8-2.83c0-.11.28-.48 1.15-.71a9.07 9.07 0 012.49-.31 9.23 9.23 0 013 .44c.65.25.84.55.82.64-.02.09-.27.48-1.14.72a9.08 9.08 0 01-2.5.32 8.93 8.93 0 01-3-.46c-.62-.23-.82-.5-.82-.61zm-4.93 2.55l4.34-.61v1.32c0 .54.49.89 1.19 1.16a9.09 9.09 0 003.19.5 10.06 10.06 0 002.52-.3v2.16c0 .54.49.89 1.19 1.17a9.32 9.32 0 003.18.49 9.82 9.82 0 002.67-.33c.91-.28 1.52-.64 1.56-1.27v-3.28a.07.07 0 000-.05 10.25 10.25 0 002.49-.29v2.15c0 .55.5.9 1.2 1.17a9.09 9.09 0 003.19.5 9.73 9.73 0 002.66-.34c.91-.28 1.52-.64 1.56-1.28v-1.51l4.87 2.66-22.46 3.16zm36.37 21.79c-.08 0-22.83 3.2-22.83 3.2v-17.18l22.82-3.21s.01 17.11.02 17.19z" fill="#c91a20"/><path d="M122.368 46.932c0-.54-.49-.89-1.19-1.17a9.38 9.38 0 00-3.19-.49 9.69 9.69 0 00-2.66.33c-.91.28-1.51.64-1.55 1.27v1.35l-5.29.74h-.1v17.84a.27.27 0 000 .12l3.74 2 10.4 6.01a.28.28 0 00.12 0l23.41-3.28a.27.27 0 00.11 0 .14.14 0 000-.06v-17.83a.25.25 0 000-.12.1.1 0 000-.05l-5.91-3.21v-1.12c0-.55-.49-.9-1.2-1.17a9 9 0 00-3.18-.5h-.7l-1.81-1v-.92c0-.55-.49-.9-1.19-1.17a9.07 9.07 0 00-3.18-.5 10.12 10.12 0 00-2.67.33c-.91.28-1.51.64-1.56 1.27v1.17l-2.49.34" fill="#eb5859"/><path d="M146.398 53.632a.25.25 0 000-.12.1.1 0 000-.05l-5.91-3.21v-1.12c0-.55-.49-.9-1.2-1.17a9 9 0 00-3.18-.5h-.7l-1.81-1v.65l.82.44c-.28.05-.56.1-.82.17v-2.18c0-.55-.49-.9-1.19-1.17a9.07 9.07 0 00-3.18-.5 10.12 10.12 0 00-2.67.33c-.91.28-1.51.64-1.56 1.27v1.17l-2.49.34v.59l2.48-.35v1.51a9.81 9.81 0 00-2.63.33h.14v-2.13c0-.54-.49-.89-1.19-1.17a9.38 9.38 0 00-3.19-.49 9.69 9.69 0 00-2.66.33c-.91.28-1.51.64-1.55 1.27v1.35l-5.29.74h-.1v17.84a.27.27 0 000 .12l3.74 2 10.27 6.01a.28.28 0 00.12 0l23.41-3.28a.27.27 0 00.11 0 .14.14 0 000-.06v-17.83zm-10.47-5.7a8.94 8.94 0 013 .45c.65.25.84.54.82.64-.02.1-.27.48-1.14.72a9.13 9.13 0 01-2.5.32 8.93 8.93 0 01-3-.46c-.62-.23-.82-.51-.82-.61 0-.11.28-.48 1.15-.71a9.06 9.06 0 012.49-.35zm-9.38-3.24a9.5 9.5 0 012.5-.31 8.66 8.66 0 013 .46c.65.24.85.53.82.63-.03.1-.27.48-1.14.72a9.1 9.1 0 01-2.5.31 8.7 8.7 0 01-3-.45c-.61-.23-.82-.51-.82-.62.01-.1.31-.5 1.18-.71zm-4.21 4.93a9.55 9.55 0 012.5-.31 8.72 8.72 0 013 .46c.65.24.84.53.82.63-.02.1-.27.48-1.14.72a9.22 9.22 0 01-2.51.31 8.92 8.92 0 01-3-.45c-.62-.23-.83-.51-.82-.62.02-.1.32-.43 1.19-.71zm-8-2.82c0-.12.28-.48 1.15-.72a9.07 9.07 0 012.49-.31 8.94 8.94 0 013 .45c.65.24.84.54.82.63-.02.09-.27.48-1.14.73a9.1 9.1 0 01-2.5.31 8.68 8.68 0 01-3-.46c-.62-.23-.82-.5-.82-.61zm-4.93 2.54l4.34-.61v1.34c0 .55.49.89 1.19 1.17a9.33 9.33 0 003.19.5 9.61 9.61 0 002.52-.31v2.16c0 .55.49.9 1.19 1.17a9.32 9.32 0 003.18.49 9.82 9.82 0 002.67-.33c.91-.28 1.52-.64 1.56-1.27v-3.28a10.24 10.24 0 002.49-.3v2.15c0 .54.5.89 1.2 1.16a9.09 9.09 0 003.19.5 10.15 10.15 0 002.66-.33c.91-.28 1.52-.64 1.56-1.28v-1.51l4.87 2.65-22.46 3.16zm36.37 21.79c-.08.06-22.83 3.21-22.83 3.21v-17.19l22.82-3.21s.01 17.11.02 17.22z" fill="#c91a20"/><path d="M122.368 29.032c0-.54-.49-.89-1.19-1.17a10.6 10.6 0 00-5.85-.15c-.91.27-1.51.63-1.55 1.26v1.35l-5.29.74h-.1v17.83a.31.31 0 000 .13v.05l3.74 2 10.45 5.68h.12l23.41-3.29h.11a.19.19 0 000-.07v-17.83a.2.2 0 000-.11v-.05l-5.91-3.21v-1.11c0-.55-.49-.89-1.2-1.17a9.27 9.27 0 00-3.18-.5h-.7l-1.81-1v-.91c0-.54-.49-.89-1.19-1.17a9.31 9.31 0 00-3.18-.5 9.71 9.71 0 00-2.67.34c-.91.27-1.51.63-1.56 1.26v1.17l-2.49.35" fill="#eb5859"/><path d="M146.398 35.782a.2.2 0 000-.11v-.05l-5.91-3.21v-1.11c0-.55-.49-.89-1.2-1.17a9.27 9.27 0 00-3.18-.5h-.7l-1.81-1v.65l.82.45a7 7 0 00-.82.17v-2.18c0-.54-.49-.89-1.19-1.17a9.31 9.31 0 00-3.18-.5 9.71 9.71 0 00-2.67.34c-.91.27-1.51.63-1.56 1.26v1.17l-2.49.35v.59l2.48-.35v1.49a9.41 9.41 0 00-2.63.34h.14v-2.21c0-.54-.49-.89-1.19-1.17a10.6 10.6 0 00-5.85-.15c-.91.27-1.51.63-1.55 1.26v1.35l-5.29.74h-.1v17.83a.31.31 0 000 .13v.05l3.74 2 10.45 5.68h.12l23.41-3.29h.11a.19.19 0 000-.07v-17.83zm-10.47-5.67a8.93 8.93 0 013 .46c.65.24.84.54.82.63-.02.09-.27.48-1.14.72a9.13 9.13 0 01-2.5.32 8.68 8.68 0 01-3-.46c-.62-.23-.82-.51-.82-.61 0-.12.28-.48 1.15-.72a9.06 9.06 0 012.49-.34zm-9.38-3.24a9.5 9.5 0 012.5-.31 8.66 8.66 0 013 .46c.65.24.85.54.82.63-.03.09-.27.48-1.14.72a9.1 9.1 0 01-2.5.31 8.46 8.46 0 01-3-.45c-.61-.23-.82-.51-.82-.62.01-.13.31-.5 1.18-.74zm-4.21 4.93a9.55 9.55 0 012.5-.31 8.72 8.72 0 013 .46c.65.24.84.54.82.63-.02.09-.27.48-1.14.72a9.22 9.22 0 01-2.51.31 8.44 8.44 0 01-3-.45c-.62-.23-.83-.51-.82-.62.02-.13.32-.5 1.19-.74zm-8-2.82c0-.11.28-.48 1.15-.72a9.07 9.07 0 012.49-.31 8.94 8.94 0 013 .45c.65.25.84.54.82.63-.02.09-.27.49-1.14.73a9.1 9.1 0 01-2.5.31 8.68 8.68 0 01-3-.46c-.62-.23-.82-.5-.82-.6zm-4.93 2.55l4.34-.61v1.33c0 .55.49.9 1.19 1.17a9.09 9.09 0 003.19.5 10.06 10.06 0 002.52-.3v2.16c0 .54.49.89 1.19 1.17a9.32 9.32 0 003.18.49 10.22 10.22 0 002.67-.33c.91-.29 1.52-.65 1.56-1.28v-3.27a9.77 9.77 0 002.49-.3v2.16c0 .55.5.89 1.2 1.17a9.33 9.33 0 003.19.5 10.14 10.14 0 002.66-.34c.91-.28 1.52-.64 1.56-1.28v-1.54l4.87 2.66-22.46 3.15zm36.37 21.79c-.08.05-22.83 3.2-22.83 3.2v-17.19l22.82-3.21s.01 17.09.02 17.2z" fill="#c91a20"/><path d="M122.368 11.182c0-.55-.49-.9-1.19-1.17a9.14 9.14 0 00-3.19-.49 9.69 9.69 0 00-2.66.33c-.91.27-1.51.64-1.55 1.26v1.35l-5.29.75a.19.19 0 00-.1 0v17.89a.28.28 0 000 .13l3.74 2 10.45 5.68a.28.28 0 00.12 0l23.41-3.29a.25.25 0 00.11 0 .14.14 0 000-.06v-17.83a.2.2 0 000-.11l-5.91-3.22v-1.11c0-.54-.49-.89-1.2-1.17a9.28 9.28 0 00-3.18-.49h-.7l-1.81-1v-.91c0-.54-.49-.89-1.19-1.17a9.31 9.31 0 00-3.18-.5 10.1 10.1 0 00-2.67.34c-.91.28-1.51.64-1.56 1.26v1.28l-2.49.35" fill="#eb5859"/><path d="M146.398 17.932a.2.2 0 000-.11l-5.91-3.22v-1.11c0-.54-.49-.89-1.2-1.17a9.28 9.28 0 00-3.18-.49h-.7l-1.81-1v.65l.82.45a7 7 0 00-.82.17v-2.18c0-.54-.49-.89-1.19-1.17a9.31 9.31 0 00-3.18-.5 10.1 10.1 0 00-2.67.34c-.91.28-1.51.64-1.56 1.26v1.08l-2.49.35v.59l2.48-.35v1.51a10.22 10.22 0 00-2.63.34h.14v-2.19c0-.55-.49-.9-1.19-1.17a9.14 9.14 0 00-3.19-.49 9.69 9.69 0 00-2.66.33c-.91.27-1.51.64-1.55 1.26v1.35l-5.29.75a.19.19 0 00-.1 0v17.89a.28.28 0 000 .13l3.74 2 10.45 5.68a.28.28 0 00.12 0l23.41-3.29a.25.25 0 00.11 0 .14.14 0 000-.06v-17.83zm-10.47-5.66a8.94 8.94 0 013 .45c.65.24.84.54.82.63-.02.09-.27.48-1.14.73a9.15 9.15 0 01-2.5.31 8.68 8.68 0 01-3-.46c-.62-.23-.82-.5-.82-.61 0-.12.28-.48 1.15-.72a9.07 9.07 0 012.49-.33zm-9.38-3.24a9.48 9.48 0 012.5-.32 8.66 8.66 0 013 .46c.65.24.85.54.82.63-.03.09-.27.48-1.14.73a9.5 9.5 0 01-2.5.31 8.68 8.68 0 01-3-.46c-.61-.23-.82-.51-.82-.61.01-.14.31-.51 1.18-.74zm-4.21 4.93a9.13 9.13 0 012.5-.32 8.72 8.72 0 013 .46c.65.24.84.54.82.64-.02.1-.27.47-1.14.72a9.65 9.65 0 01-2.51.3 8.44 8.44 0 01-3-.45c-.62-.23-.83-.51-.82-.61.02-.13.32-.51 1.19-.77zm-8-2.83c0-.11.28-.48 1.15-.71a9.06 9.06 0 012.49-.32 8.94 8.94 0 013 .45c.65.25.84.55.82.64-.02.09-.27.48-1.14.72a9.08 9.08 0 01-2.5.32 8.93 8.93 0 01-3-.46c-.62-.23-.82-.51-.82-.61zm-4.93 2.55l4.34-.61v1.33c0 .54.49.89 1.19 1.16a9.09 9.09 0 003.19.5 10.06 10.06 0 002.52-.3v2.17c0 .54.49.89 1.19 1.17a9.32 9.32 0 003.18.49 9.82 9.82 0 002.67-.33c.91-.28 1.52-.64 1.56-1.27v-3.28a.07.07 0 000-.05 9.77 9.77 0 002.49-.3v2.16c0 .55.5.9 1.2 1.17a9.33 9.33 0 003.19.5 9.73 9.73 0 002.66-.34c.91-.28 1.52-.64 1.56-1.28v-1.5l4.87 2.65-22.47 3.21zm36.37 21.79c-.08 0-22.83 3.2-22.83 3.2v-17.19l22.82-3.2s.01 17.08.02 17.19z" fill="#c91a20"/><path d="M98.928 32.332c0-.55-.49-.89-1.19-1.17a9.37 9.37 0 00-3.19-.5 9.68 9.68 0 00-2.66.34c-.91.27-1.51.64-1.55 1.26v1.35l-5.29.75h-.11v17.94a.51.51 0 000 .13l3.74 2 10.45 5.68a.28.28 0 00.12 0l23.41-3.29a.25.25 0 00.11 0 .64.64 0 000-.07v-17.83a.25.25 0 000-.12v-.05l-5.91-3.22v-1.11c0-.54-.49-.89-1.2-1.17a9.28 9.28 0 00-3.18-.49h-.71l-1.8-1v-.83c0-.54-.49-.89-1.19-1.17a9.6 9.6 0 00-3.18-.5 9.71 9.71 0 00-2.67.34c-.91.28-1.51.64-1.56 1.26v1.16l-2.48.35" fill="#eb5859"/><path d="M122.978 39.092a.25.25 0 000-.12v-.05l-5.91-3.22v-1.11c0-.54-.49-.89-1.2-1.17a9.28 9.28 0 00-3.18-.49h-.71l-1.8-1v.64l.82.45a6.6 6.6 0 00-.82.17v-2.26c0-.54-.49-.89-1.19-1.17a9.6 9.6 0 00-3.18-.5 9.71 9.71 0 00-2.67.34c-.91.28-1.51.64-1.56 1.26v1.16l-2.48.35v.59l2.48-.35v1.49a10.22 10.22 0 00-2.63.34h.13v-2.19c0-.55-.49-.89-1.19-1.17a9.37 9.37 0 00-3.19-.5 9.68 9.68 0 00-2.66.34c-.91.27-1.51.64-1.55 1.26v1.35l-5.29.75h-.11v17.94a.51.51 0 000 .13l3.74 2 10.45 5.68a.28.28 0 00.12 0l23.41-3.29a.25.25 0 00.11 0 .64.64 0 000-.07v-17.83zm-10.43-5.67a8.94 8.94 0 013 .45c.64.24.84.54.82.63-.02.09-.27.48-1.14.73a9.15 9.15 0 01-2.5.31 8.68 8.68 0 01-3-.46c-.62-.23-.82-.5-.82-.61 0-.11.28-.48 1.15-.72a9.07 9.07 0 012.49-.33zm-9.38-3.24a9.08 9.08 0 012.5-.32 8.91 8.91 0 013 .46c.65.25.85.54.83.63-.02.09-.28.49-1.15.73a9.5 9.5 0 01-2.5.31 8.72 8.72 0 01-3-.46c-.61-.23-.82-.51-.82-.61-.04-.13.27-.51 1.14-.74zm-4.21 4.93a9.13 9.13 0 012.5-.32 9 9 0 013 .46c.64.25.84.54.82.63-.02.09-.27.49-1.14.73a9.63 9.63 0 01-2.51.31 8.66 8.66 0 01-3-.46c-.62-.23-.83-.51-.82-.61-.02-.13.28-.51 1.12-.74zm-8-2.83c0-.12.28-.49 1.15-.72a9.06 9.06 0 012.49-.32 8.93 8.93 0 013 .46c.65.24.84.54.82.63-.02.09-.27.48-1.14.72a9.08 9.08 0 01-2.5.32 8.93 8.93 0 01-3-.46c-.62-.23-.82-.51-.82-.61zm-4.93 2.55l4.33-.61v1.33c0 .54.49.89 1.19 1.16a9.07 9.07 0 003.18.5 10.09 10.09 0 002.53-.3v2.16c0 .54.48.89 1.18 1.17a9.42 9.42 0 003.19.49 9.82 9.82 0 002.67-.33c.91-.28 1.52-.64 1.56-1.27v-3.28a10.22 10.22 0 002.48-.29v2.15c0 .55.5.9 1.2 1.17a9.07 9.07 0 003.18.5 9.76 9.76 0 002.67-.34c.91-.28 1.52-.64 1.56-1.27v-1.51l4.87 2.65-22.45 3.15zm36.37 21.79c-.08.05-22.83 3.2-22.83 3.2v-17.18l22.83-3.21s-.04 17.08-.03 17.19z" fill="#c91a20"/><path d="M98.928 14.492c0-.54-.49-.89-1.19-1.17a9.38 9.38 0 00-3.19-.49 9.69 9.69 0 00-2.66.33c-.91.28-1.51.64-1.55 1.27v1.36l-5.29.74h-.11v17.82a.51.51 0 000 .13l3.74 2 10.45 5.68h.12l23.41-3.28h.11v-17.9a.25.25 0 000-.12v-.06l-5.91-3.22v-1.11c0-.55-.49-.9-1.2-1.18a9.28 9.28 0 00-3.18-.49h-.71l-1.8-1v-.92c0-.55-.49-.9-1.19-1.17a9.11 9.11 0 00-3.18-.5 10.12 10.12 0 00-2.67.33c-.91.28-1.51.64-1.56 1.27v1.16l-2.48.35" fill="#eb5859"/><path d="M122.978 21.242a.25.25 0 000-.12v-.06l-5.91-3.22v-1.11c0-.55-.49-.9-1.2-1.18a9.28 9.28 0 00-3.18-.49h-.71l-1.8-1v.65l.82.44c-.29.05-.56.1-.82.17v-2.18c0-.55-.49-.9-1.19-1.17a9.11 9.11 0 00-3.18-.5 10.12 10.12 0 00-2.67.33c-.91.28-1.51.64-1.56 1.27v1.16l-2.48.35v.59l2.48-.35v1.49a9.81 9.81 0 00-2.63.33h.13v-2.18c0-.54-.49-.89-1.19-1.17a9.38 9.38 0 00-3.19-.49 9.69 9.69 0 00-2.66.33c-.91.28-1.51.64-1.55 1.27v1.36l-5.29.74h-.11v17.82a.51.51 0 000 .13l3.74 2 10.45 5.68h.12l23.41-3.28h.11v-17.9zm-10.43-5.67a8.94 8.94 0 013 .45c.64.25.84.54.82.64-.02.1-.27.48-1.14.72a9.15 9.15 0 01-2.5.31 8.94 8.94 0 01-3-.45c-.62-.24-.82-.51-.82-.61 0-.11.28-.48 1.15-.72a9.48 9.48 0 012.49-.34zm-9.38-3.24a9.5 9.5 0 012.5-.31 8.66 8.66 0 013 .46c.65.24.85.53.83.63-.02.1-.28.48-1.15.72a9.5 9.5 0 01-2.5.31 9 9 0 01-3-.45c-.61-.24-.82-.51-.82-.62-.04-.14.27-.5 1.14-.74zm-4.21 4.93a9.55 9.55 0 012.5-.31 9 9 0 013 .45c.64.25.84.54.82.64-.02.1-.27.48-1.14.72a9.63 9.63 0 01-2.51.31 8.92 8.92 0 01-3-.45c-.62-.23-.83-.51-.82-.62-.02-.13.28-.5 1.12-.74zm-8-2.83c0-.12.28-.48 1.15-.72a9.07 9.07 0 012.49-.31 8.94 8.94 0 013 .45c.65.24.84.54.82.63-.02.09-.27.48-1.14.73a9.1 9.1 0 01-2.5.31 8.68 8.68 0 01-3-.46c-.62-.23-.82-.5-.82-.61zm-4.93 2.55l4.33-.61v1.34c0 .55.49.9 1.19 1.17a9.31 9.31 0 003.18.5 10.08 10.08 0 002.53-.31v2.16c0 .55.48.89 1.18 1.17a9.41 9.41 0 003.19.5 9.81 9.81 0 002.67-.34c.91-.28 1.52-.64 1.56-1.27v-3.33a9.75 9.75 0 002.48-.29v2.15c0 .54.5.89 1.2 1.16a9.07 9.07 0 003.18.5 10.17 10.17 0 002.67-.33c.91-.28 1.52-.64 1.56-1.28v-1.44l4.87 2.65-22.45 3.16zm36.37 21.79c-.08.06-22.83 3.2-22.83 3.2v-17.18l22.83-3.21s-.04 17.08-.03 17.19z" fill="#c91a20"/><path d="M75.548 89.172c0-.54-.49-.89-1.2-1.17a10.57 10.57 0 00-5.84-.15c-.91.27-1.51.63-1.56 1.26v1.35l-5.29.74h-.1a.14.14 0 010 .06v17.77a.5.5 0 000 .12l3.74 2 10.45 5.68a.28.28 0 00.12 0l23.41-3.29h.1a.64.64 0 000-.07v-17.83a.36.36 0 000-.11.1.1 0 000-.05l-5.91-3.21v-1.12c0-.54-.49-.89-1.2-1.17a9.31 9.31 0 00-3.18-.5h-.71l-1.8-1v-.91c0-.54-.49-.89-1.19-1.17a9.15 9.15 0 00-3.18-.5 10.12 10.12 0 00-2.67.33c-.91.28-1.51.64-1.56 1.27v1.43l-2.48.35" fill="#eb5859"/><path d="M99.578 95.932a.36.36 0 000-.11.1.1 0 000-.05l-5.91-3.21v-1.12c0-.54-.49-.89-1.2-1.17a9.31 9.31 0 00-3.18-.5h-.71l-1.8-1v.65l.82.44c-.29 0-.56.11-.82.18v-2.18c0-.54-.49-.89-1.19-1.17a9.15 9.15 0 00-3.18-.5 10.12 10.12 0 00-2.67.33c-.91.28-1.51.64-1.56 1.27v1.14l-2.48.35v.58l2.49-.35v1.5a9.79 9.79 0 00-2.62.33h.13v-2.18c0-.54-.49-.89-1.2-1.17a10.57 10.57 0 00-5.84-.15c-.91.27-1.51.63-1.56 1.26v1.35l-5.29.74h-.1a.14.14 0 010 .06v17.77a.5.5 0 000 .12l3.74 2 10.45 5.68h.12l23.41-3.29h.1a.64.64 0 000-.07v-17.83zm-10.43-5.67a8.82 8.82 0 013 .46c.65.24.85.54.83.63-.02.09-.27.48-1.14.72a9.13 9.13 0 01-2.5.32 8.93 8.93 0 01-3-.46c-.62-.23-.82-.51-.82-.61 0-.12.27-.49 1.14-.73a9.61 9.61 0 012.49-.34zm-9.38-3.24a9.5 9.5 0 012.5-.31 8.66 8.66 0 013 .46c.65.24.85.54.82.63-.03.09-.27.48-1.14.72a9.15 9.15 0 01-2.5.31 8.7 8.7 0 01-3-.45c-.62-.23-.82-.51-.82-.62-.04-.14.3-.51 1.14-.75zm-4.21 4.93a9.55 9.55 0 012.5-.31 8.62 8.62 0 013 .46c.65.24.85.54.83.63-.02.09-.27.48-1.14.72a9.22 9.22 0 01-2.51.31 8.67 8.67 0 01-3-.45c-.62-.23-.83-.51-.82-.62-.03-.14.27-.51 1.14-.76zm-8-2.82c0-.11.27-.48 1.15-.72a9.48 9.48 0 012.49-.31 8.84 8.84 0 013 .45c.65.24.85.54.83.63-.02.09-.27.48-1.14.73a9.15 9.15 0 01-2.5.31 8.68 8.68 0 01-3-.46c-.62-.23-.82-.5-.82-.61zm-4.93 2.54l4.33-.61v1.34c0 .55.5.9 1.2 1.17a9.09 9.09 0 003.19.5 10.12 10.12 0 002.52-.3v2.15c0 .55.49.89 1.19 1.18a9.67 9.67 0 003.19.49 10.22 10.22 0 002.67-.33c.91-.29 1.52-.65 1.56-1.28v-3.28a10.24 10.24 0 002.49-.3v2.16c0 .54.5.89 1.2 1.16a9.07 9.07 0 003.18.5 10.17 10.17 0 002.58-.29c.91-.28 1.51-.64 1.55-1.28v-1.87.36l4.87 2.65-22.42 3.14zm36.3 21.78c-.08.06-22.83 3.21-22.83 3.21v-17.19l22.83-3.21z" fill="#c91a20"/><path d="M75.548 71.322c0-.55-.49-.9-1.2-1.17a9 9 0 00-3.18-.5 9.68 9.68 0 00-2.66.34c-.91.27-1.51.64-1.56 1.26v1.35l-5.29.74h-.1v.05a.14.14 0 010 .06v17.77a.59.59 0 000 .13v.05l3.74 2 10.45 5.67a.28.28 0 00.12 0l23.41-3.29h.1a.64.64 0 000-.07v-17.61a.43.43 0 000-.12v-.05l-5.91-3.22v-1.11c0-.54-.49-.89-1.2-1.17a9.32 9.32 0 00-3.18-.49h-.71l-1.8-1v-1.01c0-.54-.49-.89-1.19-1.17a9.39 9.39 0 00-3.18-.5 9.71 9.71 0 00-2.67.34c-.91.28-1.51.64-1.56 1.26v1.17l-2.48.35" fill="#eb5859"/><path d="M99.578 78.082a.43.43 0 000-.12v-.05l-5.91-3.22v-1.11c0-.54-.49-.89-1.2-1.17a9.32 9.32 0 00-3.18-.49h-.71l-1.8-1v.65l.82.45a6.6 6.6 0 00-.82.17v-2.26c0-.54-.49-.89-1.19-1.17a9.39 9.39 0 00-3.18-.5 9.71 9.71 0 00-2.67.34c-.91.28-1.51.64-1.56 1.26v1.17l-2.48.35v.59l2.49-.35v1.49a9.39 9.39 0 00-2.62.34h.13v-2.18c0-.55-.49-.9-1.2-1.17a9 9 0 00-3.18-.5 9.68 9.68 0 00-2.66.34c-.91.27-1.51.64-1.56 1.26v1.35l-5.29.74h-.1v.05a.14.14 0 010 .06v17.77a.59.59 0 000 .13v.05l3.74 2 10.45 5.67a.28.28 0 00.12 0l23.41-3.29h.1a.64.64 0 000-.07v-17.56zm-10.43-5.67a8.84 8.84 0 013 .45c.65.24.85.54.83.63-.02.09-.27.48-1.14.73a9.15 9.15 0 01-2.5.31 8.68 8.68 0 01-3-.46c-.62-.23-.82-.5-.82-.61 0-.12.27-.48 1.14-.72a9.2 9.2 0 012.49-.33zm-9.38-3.24a9.08 9.08 0 012.5-.32 8.91 8.91 0 013 .46c.65.25.85.54.82.63-.03.09-.27.48-1.14.73a9.57 9.57 0 01-2.5.3 8.46 8.46 0 01-3-.45c-.62-.23-.82-.51-.82-.61-.04-.14.3-.51 1.14-.74zm-4.21 4.93a9.13 9.13 0 012.5-.32 8.62 8.62 0 013 .46c.65.24.85.54.83.63-.02.09-.27.48-1.14.73a9.65 9.65 0 01-2.51.3 8.44 8.44 0 01-3-.45c-.62-.23-.83-.51-.82-.61-.03-.14.27-.51 1.14-.74zm-8-2.83c0-.12.27-.49 1.15-.72a9.06 9.06 0 012.49-.32 8.84 8.84 0 013 .45c.65.25.85.54.83.64-.02.1-.27.48-1.14.72a9.15 9.15 0 01-2.5.31 8.94 8.94 0 01-3-.45c-.62-.24-.82-.51-.82-.61zm-4.93 2.55l4.33-.61v1.33c0 .54.5.89 1.2 1.16a9.09 9.09 0 003.19.5 10.12 10.12 0 002.52-.3v2.16c0 .54.49.89 1.19 1.17a9.42 9.42 0 003.19.49 9.82 9.82 0 002.67-.33c.91-.28 1.52-.64 1.56-1.28v-3.27a9.77 9.77 0 002.49-.3v2.16c0 .55.5.9 1.2 1.17a9.31 9.31 0 003.18.5 9.76 9.76 0 002.67-.34c.91-.28 1.51-.64 1.55-1.28v-1.87.36l4.87 2.66-22.51 3.17zm36.3 21.79c-.08.05-22.83 3.2-22.83 3.2v-17.18l22.83-3.21z" fill="#c91a20"/><path d="M75.548 53.482c0-.54-.49-.89-1.2-1.17a9.28 9.28 0 00-3.18-.49 9.69 9.69 0 00-2.66.33c-.91.28-1.51.64-1.56 1.27v1.35l-5.29.75a.29.29 0 00-.1 0v17.83a.51.51 0 000 .13l3.74 2 10.45 5.68a.28.28 0 00.12 0l23.41-3.28a.19.19 0 00.1 0v-17.83a.5.5 0 000-.12v-.06l-5.91-3.22v-1.11c0-.54-.49-.89-1.2-1.17a9.32 9.32 0 00-3.18-.49h-.71l-1.8-1v-.92c0-.54-.49-.89-1.19-1.16a9.38 9.38 0 00-3.18-.51 10.1 10.1 0 00-2.67.34c-.91.28-1.51.64-1.56 1.27v1.16l-2.48.35" fill="#eb5859"/><path d="M99.578 60.232a.5.5 0 000-.12v-.06l-5.91-3.22v-1.11c0-.54-.49-.89-1.2-1.17a9.32 9.32 0 00-3.18-.49h-.71l-1.8-1v.65l.82.44a6.6 6.6 0 00-.82.17v-2.18c0-.54-.49-.89-1.19-1.16a9.38 9.38 0 00-3.18-.51 10.1 10.1 0 00-2.67.34c-.91.28-1.51.64-1.56 1.27v1.16l-2.48.35v.59l2.49-.35v1.49a9.79 9.79 0 00-2.62.33h.13v-2.18c0-.54-.49-.89-1.2-1.17a9.28 9.28 0 00-3.18-.49 9.69 9.69 0 00-2.66.33c-.91.28-1.51.64-1.56 1.27v1.35l-5.29.75a.29.29 0 00-.1 0v17.83a.51.51 0 000 .13l3.74 2 10.45 5.68a.28.28 0 00.12 0l23.41-3.28a.19.19 0 00.1 0v-17.83zm-10.43-5.67a8.84 8.84 0 013 .45c.65.24.85.54.83.63-.02.09-.27.49-1.14.73a9.15 9.15 0 01-2.5.31 8.68 8.68 0 01-3-.46c-.62-.23-.82-.5-.82-.6 0-.11.27-.48 1.14-.72a9.2 9.2 0 012.49-.34zm-9.38-3.24a9.5 9.5 0 012.5-.31 8.92 8.92 0 013 .45c.65.25.85.54.82.63-.03.09-.27.49-1.14.73a9.55 9.55 0 01-2.5.31 8.68 8.68 0 01-3-.46c-.62-.23-.82-.5-.82-.61-.04-.13.3-.5 1.14-.74zm-4.21 4.93a9.13 9.13 0 012.5-.32 8.87 8.87 0 013 .46c.65.25.85.54.83.64-.02.1-.27.48-1.14.72a9.63 9.63 0 01-2.51.31 8.92 8.92 0 01-3-.45c-.62-.24-.83-.51-.82-.62-.03-.13.27-.5 1.14-.74zm-8-2.83c0-.12.27-.48 1.15-.72a9.07 9.07 0 012.49-.31 8.84 8.84 0 013 .45c.65.24.85.54.83.63-.02.09-.27.48-1.14.73a9.15 9.15 0 01-2.5.31 8.93 8.93 0 01-3-.46c-.62-.23-.82-.5-.82-.61zm-4.93 2.55l4.33-.61v1.34c0 .54.5.89 1.2 1.16a9.08 9.08 0 003.19.51 10.11 10.11 0 002.52-.31v2.16c0 .54.49.89 1.19 1.17a9.41 9.41 0 003.19.5 9.81 9.81 0 002.67-.34c.91-.28 1.52-.64 1.56-1.27v-3.33a9.78 9.78 0 002.49-.29v2.15c0 .54.5.89 1.2 1.16a9.07 9.07 0 003.18.5 9.76 9.76 0 002.67-.34c.91-.28 1.51-.63 1.55-1.27v-1.88.37l4.87 2.65-22.51 3.23zm36.3 21.79c-.08 0-22.83 3.2-22.83 3.2v-17.18l22.83-3.21z" fill="#c91a20"/><path d="M75.548 35.632c0-.54-.49-.89-1.2-1.17a9.28 9.28 0 00-3.18-.49 9.69 9.69 0 00-2.66.33c-.91.28-1.51.64-1.56 1.27v1.36l-5.29.74h-.1a.14.14 0 010 .06v17.76a.51.51 0 000 .13l3.74 2 10.45 5.68a.28.28 0 00.12 0l23.41-3.29h.1v-17.83a.5.5 0 000-.12.1.1 0 000-.05l-5.91-3.21v-1.12c0-.55-.49-.9-1.2-1.17a9.31 9.31 0 00-3.18-.5h-.71l-1.8-1v-.92c0-.55-.49-.89-1.19-1.17a9.15 9.15 0 00-3.18-.5 10.12 10.12 0 00-2.67.33c-.91.28-1.51.64-1.56 1.27v1.17l-2.48.35" fill="#eb5859"/><path d="M99.578 42.382a.5.5 0 000-.12.1.1 0 000-.05l-5.91-3.21v-1.12c0-.55-.49-.9-1.2-1.17a9.31 9.31 0 00-3.18-.5h-.71l-1.8-1v.65l.82.44c-.29.05-.56.11-.82.18v-2.19c0-.55-.49-.89-1.19-1.17a9.15 9.15 0 00-3.18-.5 10.12 10.12 0 00-2.67.33c-.91.28-1.51.64-1.56 1.27v1.17l-2.48.35v.58l2.49-.35v1.49a9.79 9.79 0 00-2.62.33h.13v-2.18c0-.54-.49-.89-1.2-1.17a9.28 9.28 0 00-3.18-.49 9.69 9.69 0 00-2.66.33c-.91.28-1.51.64-1.56 1.27v1.38l-5.29.74h-.1a.14.14 0 010 .06v17.76a.51.51 0 000 .13l3.74 2 10.45 5.68h.12l23.41-3.29h.1v-17.83zm-10.43-5.67a8.82 8.82 0 013 .46c.65.24.85.54.83.63-.02.09-.27.48-1.14.72a9.13 9.13 0 01-2.5.32 8.93 8.93 0 01-3-.46c-.62-.23-.82-.51-.82-.61 0-.12.27-.49 1.14-.72a9.19 9.19 0 012.49-.34zm-9.38-3.24a9.5 9.5 0 012.5-.31 8.66 8.66 0 013 .46c.65.24.85.54.82.63-.03.09-.27.48-1.14.72a9.15 9.15 0 01-2.5.31 8.7 8.7 0 01-3-.45c-.62-.23-.82-.51-.82-.62-.04-.13.3-.5 1.14-.74zm-4.21 4.93a9.55 9.55 0 012.5-.31 8.62 8.62 0 013 .46c.65.24.85.54.83.63-.02.09-.27.48-1.14.72a9.22 9.22 0 01-2.51.31 8.67 8.67 0 01-3-.45c-.62-.23-.83-.51-.82-.62-.03-.13.27-.5 1.14-.74zm-8-2.82c0-.12.27-.48 1.15-.72a9.07 9.07 0 012.49-.31 8.84 8.84 0 013 .45c.65.24.85.54.83.63-.02.09-.27.48-1.14.73a9.15 9.15 0 01-2.5.31 8.68 8.68 0 01-3-.46c-.62-.23-.82-.5-.82-.61zm-4.93 2.54l4.33-.61v1.34c0 .55.5.9 1.2 1.17a9.09 9.09 0 003.19.5 10.12 10.12 0 002.52-.3v2.15c0 .55.49.9 1.19 1.17a9.17 9.17 0 003.19.5 10.22 10.22 0 002.67-.33c.91-.29 1.52-.65 1.56-1.28v-3.28a10.24 10.24 0 002.49-.3v2.15c0 .54.5.89 1.2 1.16a9.07 9.07 0 003.18.5 10.17 10.17 0 002.67-.33c.91-.28 1.51-.64 1.55-1.28v-1.87.36l4.87 2.65-22.51 3.19zm36.3 21.81c-.08.06-22.83 3.21-22.83 3.21v-17.19l22.83-3.21z" fill="#c91a20"/><path d="M52.138 38.932c0-.54-.49-.89-1.2-1.17a9.32 9.32 0 00-3.18-.49 9.69 9.69 0 00-2.66.33c-.92.28-1.51.64-1.56 1.27v1.35l-5.29.74h-.11a.14.14 0 010 .06v17.77a.51.51 0 000 .13l3.74 2 10.45 5.68a.61.61 0 00.13 0l23.47-2.87a.19.19 0 00.1 0v-17.83a.5.5 0 000-.12.1.1 0 000-.05l-5.91-3.21v-1.12c0-.55-.49-.9-1.2-1.17a9.31 9.31 0 00-3.18-.5h-.71l-1.8-1v-.92c0-.55-.49-.9-1.19-1.17a9.17 9.17 0 00-3.19-.5 10.09 10.09 0 00-2.66.33c-.91.28-1.51.64-1.56 1.27v1.17l-2.48.35" fill="#eb5859"/><path d="M76.168 45.662a.5.5 0 000-.12.1.1 0 000-.05l-5.91-3.21v-1.12c0-.55-.49-.9-1.2-1.17a9.31 9.31 0 00-3.18-.5h-.71l-1.8-1v.65l.82.44c-.29.05-.56.1-.82.17v-2.22c0-.55-.49-.9-1.19-1.17a9.17 9.17 0 00-3.19-.5 10.09 10.09 0 00-2.66.33c-.91.28-1.51.64-1.56 1.27v1.17l-2.48.35v.58l2.49-.35v1.49a9.73 9.73 0 00-2.62.33h.13v-2.18c0-.54-.49-.89-1.2-1.17a9.32 9.32 0 00-3.18-.49 9.69 9.69 0 00-2.66.33c-.92.28-1.51.64-1.56 1.27v1.35l-5.29.74h-.11a.14.14 0 010 .06v17.77a.51.51 0 000 .13l3.74 2 10.45 5.68a.61.61 0 00.13 0l23.32-2.79a.19.19 0 00.1 0v-17.83zm-10.43-5.67a8.84 8.84 0 013 .45c.65.25.85.54.83.64-.02.1-.27.48-1.14.72a9.21 9.21 0 01-2.51.32 8.91 8.91 0 01-3-.46c-.62-.23-.82-.51-.82-.61 0-.11.27-.48 1.14-.71a9.13 9.13 0 012.5-.35zm-9.39-3.24a9.55 9.55 0 012.5-.31 8.68 8.68 0 013 .46c.65.24.85.54.82.63-.03.09-.27.48-1.14.72a9.2 9.2 0 01-2.5.31 8.7 8.7 0 01-3-.45c-.61-.23-.82-.51-.82-.62-.03-.13.27-.5 1.14-.74zm-4.2 4.93a9.55 9.55 0 012.5-.31 8.66 8.66 0 013 .46c.65.24.85.54.83.63-.02.09-.28.48-1.15.72a9.1 9.1 0 01-2.5.31 8.74 8.74 0 01-3-.45c-.61-.23-.82-.51-.81-.62-.04-.13.26-.49 1.13-.74zm-8-2.82c0-.12.27-.48 1.15-.72a9.07 9.07 0 012.49-.31 8.84 8.84 0 013 .45c.65.24.85.54.83.63-.02.09-.27.48-1.14.73a9.22 9.22 0 01-2.51.31 8.66 8.66 0 01-3-.46c-.62-.23-.82-.5-.82-.61zm-4.93 2.54l4.33-.61v1.34c0 .55.5.9 1.2 1.17a9.31 9.31 0 003.18.5 10.14 10.14 0 002.53-.3v2.15c0 .55.49.9 1.19 1.17a9.17 9.17 0 003.19.5 10.09 10.09 0 002.66-.33c.92-.29 1.52-.65 1.57-1.28v-3.28a10.3 10.3 0 002.49-.3v2.15c0 .54.5.89 1.2 1.16a9.07 9.07 0 003.18.5 10.17 10.17 0 002.67-.33c.91-.28 1.51-.64 1.55-1.28v-1.87.36l4.87 2.65-22.45 3.16zm36.36 21.79c-.08.06-22.82 3.2-22.82 3.2v-17.18l22.83-3.21-.04 17.19z" fill="#c91a20"/><path d="M52.138 21.062c0-.54-.49-.89-1.2-1.17a10.57 10.57 0 00-5.84-.15c-.92.27-1.51.63-1.56 1.26v1.35l-5.29.74h-.11v.05a.14.14 0 010 .06v17.77a.51.51 0 000 .13v.05l3.74 2 10.45 5.67a.31.31 0 00.13 0l23.47-2.89h.1v-17.84a.36.36 0 000-.11v-.05l-5.91-3.21v-1.11c0-.55-.49-.89-1.2-1.17a9.32 9.32 0 00-3.18-.49h-.71l-1.8-1v-.91c0-.54-.49-.89-1.19-1.17a9.41 9.41 0 00-3.19-.5 9.68 9.68 0 00-2.66.34c-.91.27-1.51.63-1.56 1.26v1.18l-2.48.35" fill="#eb5859"/><path d="M76.168 27.812a.36.36 0 000-.11v-.05l-5.91-3.21v-1.11c0-.55-.49-.89-1.2-1.17a9.32 9.32 0 00-3.18-.49h-.71l-1.8-1v.65l.82.45a6.6 6.6 0 00-.82.17v-2.18c0-.54-.49-.89-1.19-1.17a9.41 9.41 0 00-3.19-.5 9.68 9.68 0 00-2.66.34c-.91.27-1.51.63-1.56 1.26v1.18l-2.48.35v.59l2.49-.35v1.47a9.34 9.34 0 00-2.62.34h.13v-2.18c0-.54-.49-.89-1.2-1.17a10.57 10.57 0 00-5.84-.15c-.92.27-1.51.63-1.56 1.26v1.35l-5.29.74h-.11v.05a.14.14 0 010 .06v17.77a.51.51 0 000 .13v.05l3.74 2 10.45 5.67a.31.31 0 00.13 0l23.32-2.92h.1v-17.84zm-10.43-5.66a8.84 8.84 0 013 .45c.65.24.85.54.83.63-.02.09-.27.48-1.14.72a9.21 9.21 0 01-2.51.32 8.66 8.66 0 01-3-.46c-.62-.23-.82-.5-.82-.61 0-.12.27-.48 1.14-.72a9.15 9.15 0 012.5-.33zm-9.39-3.25a9.55 9.55 0 012.5-.31 8.68 8.68 0 013 .46c.65.24.85.54.82.63-.03.09-.27.48-1.14.73a9.63 9.63 0 01-2.5.3 8.46 8.46 0 01-3-.45c-.61-.23-.82-.51-.82-.61-.03-.14.27-.51 1.14-.72zm-4.2 4.93a9.55 9.55 0 012.5-.31 8.66 8.66 0 013 .46c.65.24.85.54.83.63-.02.09-.28.48-1.15.73a9.52 9.52 0 01-2.5.3 8.5 8.5 0 01-3-.45c-.61-.23-.82-.51-.81-.61-.04-.14.26-.51 1.13-.75zm-8-2.82c0-.11.27-.48 1.15-.72a9.07 9.07 0 012.49-.31 8.84 8.84 0 013 .45c.65.25.85.54.83.63-.02.09-.27.49-1.14.73a9.22 9.22 0 01-2.51.31 8.66 8.66 0 01-3-.46c-.62-.23-.82-.5-.82-.6zm-4.93 2.55l4.33-.61v1.33c0 .54.5.89 1.2 1.16a9.07 9.07 0 003.18.5 10.14 10.14 0 002.53-.3v2.16c0 .54.49.89 1.19 1.17a9.42 9.42 0 003.19.49 9.69 9.69 0 002.66-.33c.92-.29 1.52-.64 1.57-1.28v-3.27a9.82 9.82 0 002.49-.3v2.16c0 .55.5.89 1.2 1.17a9.31 9.31 0 003.18.5 10.16 10.16 0 002.67-.34c.91-.28 1.51-.64 1.55-1.28v-1.87.36l4.87 2.66-22.45 3.15zm36.36 21.79c-.08.05-22.82 3.2-22.82 3.2v-17.19l22.83-3.2-.04 17.19z" fill="#c91a20"/><path d="M28.718 113.582c0-.55-.48-.89-1.19-1.17a9.09 9.09 0 00-3.19-.5 9.79 9.79 0 00-2.66.34c-.91.27-1.51.64-1.55 1.27v1.41l-5.29.74h-.1v.05a.19.19 0 000 .07v17.77a.27.27 0 000 .13.1.1 0 000 .05l3.74 2 10.44 5.68a.28.28 0 00.12 0l23.42-3.29a.21.21 0 00.1 0 .14.14 0 000-.06v-17.77a.22.22 0 000-.11l-5.9-3.22v-1.11c0-.54-.49-.89-1.19-1.17a9.38 9.38 0 00-3.19-.49h-.7l-1.81-1v-.91c0-.54-.49-.89-1.2-1.17a9.31 9.31 0 00-3.18-.5 9.58 9.58 0 00-2.66.34c-.91.28-1.52.64-1.56 1.27v1.16l-2.49.35" fill="#eb5859"/><path d="M52.748 120.332a.22.22 0 000-.11l-5.9-3.22v-1.11c0-.54-.49-.89-1.19-1.17a9.38 9.38 0 00-3.19-.49h-.7l-1.81-1v.65l.81.45c-.28.05-.56.1-.82.17v-2.18c0-.54-.49-.89-1.2-1.17a9.31 9.31 0 00-3.18-.5 9.58 9.58 0 00-2.66.34c-.91.28-1.52.64-1.56 1.27v1.16l-2.49.35v.59l2.48-.35v1.49a10.28 10.28 0 00-2.63.34h.14v-2.19c0-.55-.48-.89-1.19-1.17a9.09 9.09 0 00-3.19-.5 9.79 9.79 0 00-2.66.34c-.91.27-1.51.64-1.55 1.27v1.34l-5.29.74h-.1v.05a.19.19 0 000 .07v17.77a.27.27 0 000 .13.1.1 0 000 .05l3.74 2 10.44 5.68a.28.28 0 00.12 0l23.42-3.29a.21.21 0 00.1 0 .14.14 0 000-.06v-17.77zm-10.43-5.66a8.94 8.94 0 013 .45c.65.24.85.54.82.63-.03.09-.26.49-1.13.73a9.22 9.22 0 01-2.51.31 8.62 8.62 0 01-3-.46c-.62-.23-.83-.5-.83-.61 0-.11.28-.48 1.15-.72a9.07 9.07 0 012.5-.33zm-9.39-3.24a9.13 9.13 0 012.5-.32 9 9 0 013 .46c.64.25.84.54.82.63-.02.09-.27.49-1.14.73a9.63 9.63 0 01-2.51.31 8.66 8.66 0 01-3-.46c-.62-.23-.83-.51-.82-.61-.01-.13.29-.5 1.15-.74zm-4.2 4.93a9.06 9.06 0 012.49-.32 8.93 8.93 0 013 .46c.65.24.85.54.82.63-.03.09-.27.48-1.14.73a9.61 9.61 0 01-2.5.31 8.68 8.68 0 01-3-.46c-.61-.23-.82-.51-.82-.61-.02-.17.29-.51 1.16-.74zm-8-2.83c0-.12.28-.49 1.15-.72a9.06 9.06 0 012.49-.32 8.89 8.89 0 013 .46c.65.24.85.54.82.63-.03.09-.26.48-1.13.72a9.21 9.21 0 01-2.51.32 8.62 8.62 0 01-3-.46c-.62-.23-.83-.51-.83-.61zm-4.92 2.55l4.33-.61v1.33c0 .55.49.89 1.19 1.17a9.34 9.34 0 003.19.49 10.06 10.06 0 002.52-.3v2.16c0 .54.49.89 1.19 1.17a9.32 9.32 0 003.18.49 9.72 9.72 0 002.67-.33c.92-.28 1.52-.64 1.56-1.27v-3.28a9.74 9.74 0 002.48-.3v2.19c0 .55.49.9 1.19 1.17a9.33 9.33 0 003.19.5 9.81 9.81 0 002.67-.34c.91-.28 1.51-.64 1.55-1.28v-1.51l4.87 2.66-22.45 3.15zm36.36 21.79c-.08.06-22.83 3.2-22.83 3.2v-17.18l22.83-3.21s-.04 17.08-.03 17.19z" fill="#c91a20"/><path d="M28.718 95.742c0-.54-.48-.89-1.19-1.17a9.34 9.34 0 00-3.19-.49 9.79 9.79 0 00-2.66.33c-.91.28-1.51.64-1.55 1.27v1.35l-5.29.74h-.1a.14.14 0 000 .06v17.77a.27.27 0 000 .13l3.74 2 10.44 5.68a.28.28 0 00.12 0l23.42-3.28a.24.24 0 00.1 0 .14.14 0 000-.06v-17.83a.25.25 0 000-.12v-.06l-5.9-3.22v-.91c0-.54-.49-.89-1.19-1.17a9.38 9.38 0 00-3.19-.49h-.7l-1.81-1v-.92c0-.55-.49-.9-1.2-1.17a9.07 9.07 0 00-3.18-.5 10 10 0 00-2.66.33c-.91.28-1.52.64-1.56 1.27v1.17l-2.49.34" fill="#eb5859"/><path d="M52.748 102.492a.25.25 0 000-.12v-.06l-5.9-3.22v-1.16c0-.54-.49-.89-1.19-1.17a9.38 9.38 0 00-3.19-.49h-.7l-1.81-1v.66l.81.44c-.28 0-.56.1-.82.17v-2.18c0-.55-.49-.9-1.2-1.17a9.07 9.07 0 00-3.18-.5 10 10 0 00-2.66.33c-.91.28-1.52.64-1.56 1.27v1.17l-2.49.34v.59l2.48-.35v1.49a9.86 9.86 0 00-2.63.33h.14v-2.18c0-.54-.48-.89-1.19-1.17a9.34 9.34 0 00-3.19-.49 9.79 9.79 0 00-2.66.33c-.91.28-1.51.64-1.55 1.27v1.35l-5.29.74h-.1a.14.14 0 000 .06v17.77a.27.27 0 000 .13l3.74 2 10.44 5.68a.28.28 0 00.12 0l23.42-3.28a.24.24 0 00.1 0 .14.14 0 000-.06v-17.83zm-10.43-5.67a8.94 8.94 0 013 .45c.65.25.85.54.82.63-.03.09-.26.48-1.13.73a9.22 9.22 0 01-2.51.31 8.88 8.88 0 01-3-.45c-.62-.24-.83-.51-.83-.61 0-.11.28-.48 1.15-.71a9.06 9.06 0 012.5-.35zm-9.38-3.24a9.55 9.55 0 012.5-.31 9 9 0 013 .45c.64.25.84.54.82.64-.02.1-.27.48-1.14.72a9.63 9.63 0 01-2.51.31 8.67 8.67 0 01-3-.45c-.62-.24-.83-.51-.82-.62-.02-.13.28-.5 1.14-.74zm-4.2 4.93a9.46 9.46 0 012.49-.32 8.93 8.93 0 013 .46c.65.25.85.54.82.64-.03.1-.27.48-1.14.72a9.61 9.61 0 01-2.5.31 8.94 8.94 0 01-3-.45c-.61-.24-.82-.51-.82-.62-.03-.13.28-.5 1.15-.74zm-8-2.82c0-.12.28-.48 1.15-.72a9.07 9.07 0 012.49-.31 8.9 8.9 0 013 .45c.65.24.85.54.82.63-.03.09-.26.48-1.13.73a9.63 9.63 0 01-2.51.31 8.62 8.62 0 01-3-.46c-.62-.23-.83-.5-.83-.61zm-4.92 2.54l4.33-.61v1.31c0 .55.49.9 1.19 1.17a9.33 9.33 0 003.19.5 10.05 10.05 0 002.52-.31v2.16c0 .55.49.89 1.19 1.17a9.32 9.32 0 003.18.49 10.13 10.13 0 002.67-.32c.92-.29 1.52-.65 1.56-1.28v-3.33a10.22 10.22 0 002.48-.29v2.18c0 .54.49.89 1.19 1.16a9.09 9.09 0 003.19.5 10.22 10.22 0 002.67-.33c.91-.28 1.51-.65 1.55-1.28v-1.51l4.87 2.65-22.45 3.16zm36.36 21.79c-.08.06-22.83 3.2-22.83 3.2v-17.18l22.83-3.21s-.05 17.1-.04 17.19z" fill="#c91a20"/><path d="M28.718 77.932c0-.55-.48-.9-1.19-1.18a10.6 10.6 0 00-5.85-.15c-.91.27-1.51.63-1.55 1.26v1.35l-5.29.74h-.1a.14.14 0 000 .06v17.77a.25.25 0 000 .12l3.74 2 10.45 6.03h.12l23.42-3.29a.21.21 0 00.1 0 .14.14 0 000-.07v-17.77a.2.2 0 000-.11l-5.9-3.21v-1.12c0-.55-.49-.89-1.19-1.17a9.38 9.38 0 00-3.19-.49h-.7l-1.81-1v-.91c0-.55-.49-.89-1.2-1.17a9.07 9.07 0 00-3.18-.5 10 10 0 00-2.66.33c-.91.28-1.52.64-1.56 1.27v1.18l-2.49.35" fill="#eb5859"/><path d="M52.748 84.642a.2.2 0 000-.11l-5.9-3.21v-1.12c0-.55-.49-.89-1.19-1.17a9.38 9.38 0 00-3.19-.49h-.7l-1.81-1v.65l.81.45a7 7 0 00-.82.17v-2.18c0-.55-.49-.89-1.2-1.17a9.07 9.07 0 00-3.18-.5 10 10 0 00-2.66.33c-.91.28-1.52.64-1.56 1.27v1.18l-2.49.35v.58l2.48-.34v1.49a9.86 9.86 0 00-2.63.33h.14v-2.22c0-.55-.48-.9-1.19-1.18a10.6 10.6 0 00-5.85-.15c-.91.27-1.51.63-1.55 1.26v1.35l-5.29.74h-.1a.14.14 0 000 .06v17.77a.25.25 0 000 .12l3.74 2 10.32 6.03h.12l23.42-3.29a.21.21 0 00.1 0 .14.14 0 000-.07v-17.77zm-10.43-5.71a8.93 8.93 0 013 .46c.65.24.85.54.82.63-.03.09-.26.48-1.13.72a9.21 9.21 0 01-2.51.32 8.87 8.87 0 01-3-.46c-.62-.23-.83-.51-.83-.61 0-.12.28-.48 1.15-.72a9.06 9.06 0 012.5-.34zm-9.39-3.2a9.55 9.55 0 012.5-.31 8.72 8.72 0 013 .46c.64.24.84.54.82.63-.02.09-.27.48-1.14.72a9.22 9.22 0 01-2.51.31 8.44 8.44 0 01-3-.45c-.62-.23-.83-.51-.82-.62-.01-.13.29-.54 1.15-.74zm-4.2 4.93a9.48 9.48 0 012.49-.31 8.68 8.68 0 013 .46c.65.24.85.54.82.63-.03.09-.27.48-1.14.72a9.2 9.2 0 01-2.5.31 8.46 8.46 0 01-3-.45c-.61-.23-.82-.51-.82-.62-.02-.13.29-.47 1.16-.74zm-8-2.82c0-.11.28-.48 1.15-.72a9.07 9.07 0 012.49-.31 8.9 8.9 0 013 .45c.65.24.85.54.82.64-.03.1-.26.47-1.13.72a9.22 9.22 0 01-2.51.31 8.62 8.62 0 01-3-.46c-.62-.23-.83-.5-.83-.6zm-4.92 2.54l4.33-.6v1.33c0 .54.49.89 1.19 1.16a9.09 9.09 0 003.19.5 10.06 10.06 0 002.52-.3v2.16c0 .54.49.89 1.19 1.17a9.32 9.32 0 003.18.49 9.72 9.72 0 002.67-.33c.92-.29 1.52-.65 1.56-1.28v-3.27a10.21 10.21 0 002.48-.3v2.18c0 .54.49.89 1.19 1.16a9.09 9.09 0 003.19.5 10.22 10.22 0 002.67-.33c.91-.28 1.51-.64 1.55-1.28v-1.51l4.87 2.66-22.45 3.15zm36.36 21.8c-.08 0-22.83 3.19-22.83 3.19v-17.18l22.83-3.21s-.04 17.09-.03 17.2z" fill="#c91a20"/><path d="M28.718 60.042c0-.55-.48-.89-1.19-1.18a9.59 9.59 0 00-3.19-.49 9.79 9.79 0 00-2.66.34c-.91.27-1.51.64-1.55 1.27v1.35l-5.29.74h-.1a.14.14 0 000 .07v17.77a.27.27 0 000 .13l3.74 2 10.44 5.68a.28.28 0 00.12 0l23.42-3.29a.21.21 0 00.1 0 .14.14 0 000-.06v-17.57a.2.2 0 000-.11v-.05l-5.9-3.22v-1.11c0-.54-.49-.89-1.19-1.17a9.38 9.38 0 00-3.19-.49h-.7l-1.81-1v-.91c0-.54-.49-.89-1.2-1.17a10.46 10.46 0 00-5.84-.16c-.91.28-1.52.64-1.56 1.26v1.16l-2.49.35" fill="#eb5859"/><path d="M52.748 66.792a.2.2 0 000-.11v-.05l-5.9-3.22v-1.11c0-.54-.49-.89-1.19-1.17a9.38 9.38 0 00-3.19-.49h-.7l-1.81-1v.65l.81.45c-.28 0-.56.1-.82.17v-2.18c0-.54-.49-.89-1.2-1.17a10.46 10.46 0 00-5.84-.16c-.91.28-1.52.64-1.56 1.26v1.16l-2.49.35v.59l2.48-.35v1.49a10.28 10.28 0 00-2.63.34h.14v-2.19c0-.55-.48-.89-1.19-1.18a9.59 9.59 0 00-3.19-.49 9.79 9.79 0 00-2.66.34c-.91.27-1.51.64-1.55 1.27v1.35l-5.29.74h-.1a.14.14 0 000 .07v17.77a.27.27 0 000 .13l3.74 2 10.44 5.68a.28.28 0 00.12 0l23.42-3.29a.21.21 0 00.1 0 .14.14 0 000-.06v-17.58zm-10.43-5.66a8.94 8.94 0 013 .45c.65.25.85.54.82.63-.03.09-.26.49-1.13.73a9.22 9.22 0 01-2.51.31 8.62 8.62 0 01-3-.46c-.62-.23-.83-.5-.83-.6 0-.12.28-.48 1.15-.72a9.07 9.07 0 012.5-.34zm-9.39-3.2a9.13 9.13 0 012.5-.32 8.72 8.72 0 013 .46c.64.24.84.54.82.63-.02.09-.27.49-1.14.73a9.65 9.65 0 01-2.51.3 8.44 8.44 0 01-3-.45c-.62-.23-.83-.51-.82-.61-.01-.18.29-.54 1.15-.74zm-4.2 4.92a9.48 9.48 0 012.49-.31 8.68 8.68 0 013 .46c.65.25.85.54.82.63-.03.09-.27.48-1.14.73a9.61 9.61 0 01-2.5.31 8.68 8.68 0 01-3-.46c-.61-.23-.82-.51-.82-.61-.02-.17.29-.55 1.16-.79zm-8-2.82c0-.12.28-.49 1.15-.72a9.06 9.06 0 012.49-.32 8.64 8.64 0 013 .46c.65.24.85.54.82.63-.03.09-.26.48-1.13.72a9.22 9.22 0 01-2.51.31 8.88 8.88 0 01-3-.45c-.62-.23-.83-.51-.83-.61zm-4.92 2.55l4.33-.61v1.33c0 .54.49.89 1.19 1.17a9.34 9.34 0 003.19.49 10.06 10.06 0 002.52-.3v2.16c0 .54.49.89 1.19 1.17a9.32 9.32 0 003.18.49 9.72 9.72 0 002.67-.33c.92-.28 1.52-.64 1.56-1.28v-3.27a9.74 9.74 0 002.48-.3v2.19c0 .55.49.9 1.19 1.17a9.33 9.33 0 003.19.5 9.81 9.81 0 002.67-.34c.91-.28 1.51-.64 1.55-1.27v-1.51l4.87 2.65-22.45 3.15zm36.36 21.79c-.08.05-22.83 3.2-22.83 3.2v-17.19l22.83-3.2s-.04 17.04-.03 17.15z" fill="#c91a20"/><path d="M28.718 42.202c0-.54-.48-.89-1.19-1.17a9.34 9.34 0 00-3.19-.49 9.79 9.79 0 00-2.66.33c-.91.28-1.51.64-1.55 1.27v1.36l-5.29.74h-.1a.14.14 0 000 .06v17.77a.27.27 0 000 .13l3.74 2 10.44 5.68a.28.28 0 00.12 0l23.42-3.29a.19.19 0 00.1 0 .11.11 0 000-.06v-17.84a.25.25 0 000-.12v-.06l-5.9-3.22v-1.11c0-.55-.49-.9-1.19-1.18a9.38 9.38 0 00-3.19-.49h-.7l-1.81-1v-.92c0-.55-.49-.9-1.2-1.17a9.07 9.07 0 00-3.18-.5 10 10 0 00-2.66.33c-.91.28-1.52.64-1.56 1.27v1.41l-2.49.35" fill="#eb5859"/><path d="M52.748 48.932a.25.25 0 000-.12v-.06l-5.9-3.22v-1.11c0-.55-.49-.9-1.19-1.18a9.38 9.38 0 00-3.19-.49h-.7l-1.81-1v.65l.81.44c-.28.05-.56.1-.82.17v-2.18c0-.55-.49-.9-1.2-1.17a9.07 9.07 0 00-3.18-.5 10 10 0 00-2.66.33c-.91.28-1.52.64-1.56 1.27v1.17l-2.49.35v.59l2.48-.35v1.49a9.86 9.86 0 00-2.63.33h.14v-2.18c0-.54-.48-.89-1.19-1.17a9.34 9.34 0 00-3.19-.49 9.79 9.79 0 00-2.66.33c-.91.28-1.51.64-1.55 1.27v1.36l-5.29.74h-.1a.14.14 0 000 .06v17.77a.27.27 0 000 .13l3.74 2 10.44 5.68a.28.28 0 00.12 0l23.42-3.29a.19.19 0 00.1 0 .11.11 0 000-.06v-17.84zm-10.43-5.67a8.94 8.94 0 013 .45c.65.25.85.54.82.64-.03.1-.26.48-1.13.72a9.22 9.22 0 01-2.51.31 8.88 8.88 0 01-3-.45c-.62-.24-.83-.51-.83-.61 0-.11.28-.48 1.15-.72a9.48 9.48 0 012.5-.32zm-9.38-3.24a9.55 9.55 0 012.5-.31 9 9 0 013 .45c.64.25.84.54.82.64-.02.1-.27.48-1.14.72a9.63 9.63 0 01-2.51.31 8.92 8.92 0 01-3-.45c-.62-.24-.83-.51-.82-.62-.02-.11.28-.48 1.14-.72zm-4.2 4.93a9.48 9.48 0 012.49-.31 8.94 8.94 0 013 .45c.65.25.85.54.82.64-.03.1-.27.48-1.14.72a9.61 9.61 0 01-2.5.31 8.94 8.94 0 01-3-.45c-.61-.24-.82-.51-.82-.62-.03-.11.28-.48 1.15-.76zm-8-2.83c0-.12.28-.48 1.15-.72a9.07 9.07 0 012.49-.31 8.9 8.9 0 013 .45c.65.24.85.54.82.63-.03.09-.26.48-1.13.73a9.63 9.63 0 01-2.51.31 8.62 8.62 0 01-3-.46c-.62-.23-.83-.5-.83-.61zm-4.92 2.55l4.33-.61v1.34c0 .55.49.9 1.19 1.17a9.33 9.33 0 003.19.5 10.05 10.05 0 002.52-.31v2.17c0 .55.49.89 1.19 1.17a9.31 9.31 0 003.18.5 9.71 9.71 0 002.67-.34c.92-.28 1.52-.64 1.56-1.27v-3.33a9.75 9.75 0 002.48-.29v2.18c0 .54.49.89 1.19 1.16a9.09 9.09 0 003.19.5 10.22 10.22 0 002.67-.33c.91-.28 1.51-.64 1.55-1.28v-1.51l4.87 2.65-22.49 3.19zm36.36 21.79c-.08.06-22.83 3.2-22.83 3.2v-17.18l22.83-3.21s-.05 17.1-.04 17.21z" fill="#c91a20"/><path d="M28.718 24.352c0-.54-.48-.89-1.19-1.17a10.6 10.6 0 00-5.85-.15c-.91.27-1.51.63-1.55 1.26v1.35l-5.29.74h-.1v.05a.14.14 0 000 .06v17.77a.32.32 0 000 .13.1.1 0 000 .05l3.74 2 10.44 5.68h.12l23.42-3.29h.1a.08.08 0 000-.06v-17.67a.2.2 0 000-.11v-.05l-5.9-3.21v-1.12c0-.55-.49-.89-1.19-1.17a9.37 9.37 0 00-3.19-.5h-.7l-1.81-1v-1.01c0-.55-.49-.89-1.2-1.17a9.07 9.07 0 00-3.18-.5 10 10 0 00-2.66.33c-.91.28-1.52.64-1.56 1.27v1.17l-2.49.35" fill="#eb5859"/><path d="M52.748 31.102a.2.2 0 000-.11v-.05l-5.9-3.21v-1.12c0-.55-.49-.89-1.19-1.17a9.37 9.37 0 00-3.19-.5h-.7l-1.81-1v.65l.81.45a7 7 0 00-.82.17v-2.19c0-.55-.49-.89-1.2-1.17a9.07 9.07 0 00-3.18-.5 10 10 0 00-2.66.33c-.91.28-1.52.64-1.56 1.27v1.17l-2.49.35v.58l2.48-.34v1.48a9.86 9.86 0 00-2.63.33h.14v-2.18c0-.54-.48-.89-1.19-1.17a10.6 10.6 0 00-5.85-.15c-.91.27-1.51.63-1.55 1.26v1.35l-5.29.74h-.1v.05a.14.14 0 000 .06v17.77a.32.32 0 000 .13.1.1 0 000 .05l3.74 2 10.44 5.68h.12l23.42-3.29h.1a.08.08 0 000-.06v-17.66zm-10.43-5.67a8.93 8.93 0 013 .46c.65.24.85.54.82.63-.03.09-.26.48-1.13.72a9.21 9.21 0 01-2.51.32 8.87 8.87 0 01-3-.46c-.62-.23-.83-.51-.83-.61 0-.12.28-.49 1.15-.72a9.06 9.06 0 012.5-.34zm-9.38-3.24a9.55 9.55 0 012.5-.31 8.72 8.72 0 013 .46c.64.24.84.54.82.63-.02.09-.27.48-1.14.72a9.22 9.22 0 01-2.51.31 8.67 8.67 0 01-3-.45c-.62-.23-.83-.51-.82-.62-.02-.13.28-.5 1.14-.74zm-4.2 4.93a9.48 9.48 0 012.49-.31 8.68 8.68 0 013 .46c.65.24.85.54.82.63-.03.09-.27.48-1.14.72a9.2 9.2 0 01-2.5.31 8.7 8.7 0 01-3-.45c-.61-.23-.82-.51-.82-.62-.03-.13.28-.5 1.15-.74zm-8-2.82c0-.11.28-.48 1.15-.72a9.07 9.07 0 012.49-.31 8.9 8.9 0 013 .45c.65.24.85.54.82.63-.03.09-.26.48-1.13.73a9.22 9.22 0 01-2.51.31 8.62 8.62 0 01-3-.46c-.62-.23-.83-.5-.83-.61zm-4.92 2.54l4.33-.6v1.33c0 .55.49.9 1.19 1.17a9.09 9.09 0 003.19.5 10.06 10.06 0 002.52-.3v2.15c0 .55.49.9 1.19 1.18a9.32 9.32 0 003.18.49 10.12 10.12 0 002.67-.33c.92-.29 1.52-.65 1.56-1.28v-3.28a10.21 10.21 0 002.48-.3v2.18c0 .54.49.89 1.19 1.16a9.09 9.09 0 003.19.5 10.22 10.22 0 002.67-.33c.91-.28 1.51-.64 1.55-1.28v-1.51l4.87 2.66-22.45 3.15zm36.36 21.8c-.08.05-22.83 3.2-22.83 3.2v-17.19l22.83-3.21s-.05 17.09-.04 17.2z" fill="#c91a20"/></svg>