<svg xmlns="http://www.w3.org/2000/svg" viewBox="0 0 125.942 134.55"><path d="M86.228 72.822c0-.55-.5-.91-1.22-1.2a9.8 9.8 0 00-3.26-.5 10.21 10.21 0 00-2.73.34c-.93.28-1.54.66-1.59 1.3v1.38l-5.42.76h-.1a.1.1 0 000 .05v18.26a.34.34 0 000 .14l3.83 2.09 10.69 5.82a.33.33 0 00.13 0l24-3.36a.24.24 0 00.1 0v-18.25a.25.25 0 000-.12v-.05l-6-3.29v-1.14c0-.56-.5-.92-1.23-1.2a9.44 9.44 0 00-3.25-.51h-.73l-1.85-1v-.88c0-.56-.5-.92-1.22-1.2a9.34 9.34 0 00-3.26-.51 10.15 10.15 0 00-2.73.34c-.93.29-1.55.65-1.6 1.3v1.19l-2.54.36" fill="#ffdc5a"/><path d="M110.828 79.732a.25.25 0 000-.12v-.05l-6-3.29v-1.14c0-.56-.5-.92-1.23-1.2a9.44 9.44 0 00-3.25-.51h-.73l-1.85-1v.66l.83.46c-.29 0-.57.1-.84.17v-2.23c0-.56-.5-.92-1.22-1.2a9.34 9.34 0 00-3.26-.51 10.15 10.15 0 00-2.73.34c-.93.29-1.55.65-1.6 1.3v1.19l-2.54.36v.6l2.54-.36v1.55a9.78 9.78 0 00-2.68.34h.13v-2.23c0-.55-.5-.91-1.22-1.2a9.8 9.8 0 00-3.26-.5 10.21 10.21 0 00-2.73.34c-.93.28-1.54.66-1.59 1.3v1.38l-5.42.76h-.1a.1.1 0 000 .05v18.26a.34.34 0 000 .14l3.83 2.09 10.69 5.82a.33.33 0 00.13 0l24-3.36a.24.24 0 00.1 0v-18.25zm-10.67-5.8a9 9 0 013 .46c.67.25.87.55.84.65-.03.1-.27.49-1.16.74a9.27 9.27 0 01-2.57.32 8.79 8.79 0 01-3-.47c-.64-.23-.85-.51-.85-.62 0-.12.29-.5 1.18-.74a9.53 9.53 0 012.56-.34zm-9.61-3.32a9.53 9.53 0 012.56-.32 9.07 9.07 0 013 .47c.67.25.87.55.85.65-.02.1-.28.49-1.18.74a9.55 9.55 0 01-2.56.31 8.86 8.86 0 01-3-.46c-.63-.24-.84-.52-.83-.63-.04-.14.29-.52 1.16-.76zm-4.31 5.05a9.53 9.53 0 012.56-.32 8.85 8.85 0 013.05.47c.66.24.86.55.84.64-.02.09-.28.5-1.17.74a9.15 9.15 0 01-2.56.32 8.86 8.86 0 01-3-.46c-.63-.24-.84-.53-.84-.64-.08-.13.23-.51 1.12-.75zm-8.22-2.89c0-.12.28-.49 1.17-.74a9.53 9.53 0 012.56-.32 9.26 9.26 0 013 .46c.67.26.87.56.85.65-.02.09-.28.5-1.17.75a9.53 9.53 0 01-2.56.32 9.09 9.09 0 01-3-.47c-.63-.24-.84-.52-.84-.62zm-5 2.61l4.43-.63v1.36c0 .56.51.92 1.22 1.19a9.25 9.25 0 003.26.52 10.57 10.57 0 002.59-.31v2.2c0 .55.49.91 1.21 1.19a9.54 9.54 0 003.26.51 10.15 10.15 0 002.73-.34c.94-.29 1.56-.66 1.6-1.31v-3.35a10.17 10.17 0 002.54-.3v2.23c0 .57.5.92 1.22 1.2a9.5 9.5 0 003.26.51 10.21 10.21 0 002.73-.34c.93-.29 1.55-.66 1.59-1.31v-1.92.38l5 2.71-23 3.23zm37.22 22.3c-.08.06-23.37 3.28-23.37 3.28v-17.6l23.37-3.28-.04 17.6z" fill="#f3aa00"/><path d="M86.228 54.552c0-.56-.5-.91-1.22-1.19a9.3 9.3 0 00-3.26-.51 10.21 10.21 0 00-2.73.34c-.93.28-1.54.66-1.59 1.3v1.38l-5.42.76h-.1a.1.1 0 000 .05v18.26a.27.27 0 000 .13l3.77 2.39 10.69 5.82a.33.33 0 00.13 0l24-3.36h.1a.64.64 0 000-.07v-18.19a.25.25 0 000-.12v-.06l-6-3.29v-1.14c0-.56-.5-.91-1.23-1.2a9.45 9.45 0 00-3.25-.5h-.73l-1.85-1v-.94c0-.56-.5-.92-1.22-1.2a9.34 9.34 0 00-3.26-.51 10.15 10.15 0 00-2.73.34c-.93.29-1.55.65-1.6 1.3v1.19l-2.54.36" fill="#ffdc5a"/><path d="M110.828 61.462a.25.25 0 000-.12v-.06l-6-3.29v-1.14c0-.56-.5-.91-1.23-1.2a9.45 9.45 0 00-3.25-.5h-.73l-1.85-1v.66l.83.46c-.29 0-.57.1-.84.17v-2.23c0-.56-.5-.92-1.22-1.2a9.34 9.34 0 00-3.26-.51 10.15 10.15 0 00-2.73.34c-.93.29-1.55.65-1.6 1.3v1.19l-2.54.36v.6l2.54-.36v1.53a9.78 9.78 0 00-2.68.34h.13v-2.23c0-.56-.5-.91-1.22-1.19a9.3 9.3 0 00-3.26-.51 10.21 10.21 0 00-2.73.34c-.93.28-1.54.66-1.59 1.3v1.38l-5.42.76h-.1a.1.1 0 000 .05v18.26a.27.27 0 000 .13l3.6 2.37 10.69 5.82a.33.33 0 00.13 0l24-3.36h.1a.64.64 0 000-.07v-18.19zm-10.67-5.8a9.26 9.26 0 013 .46c.67.25.87.55.84.65-.03.1-.27.49-1.16.74a9.27 9.27 0 01-2.57.32 8.79 8.79 0 01-3-.47c-.64-.23-.85-.51-.85-.62 0-.12.29-.5 1.18-.74a9.53 9.53 0 012.56-.34zm-9.61-3.32a9.53 9.53 0 012.56-.32 9.07 9.07 0 013 .47c.67.25.87.55.85.65-.02.1-.28.49-1.18.74a9.55 9.55 0 01-2.56.31 8.86 8.86 0 01-3-.46c-.63-.24-.84-.52-.83-.63-.04-.14.29-.52 1.16-.76zm-4.31 5a9.53 9.53 0 012.56-.32 8.85 8.85 0 013.05.47c.66.25.86.55.84.64-.02.09-.28.49-1.17.75a10 10 0 01-2.56.31 8.86 8.86 0 01-3-.46c-.63-.24-.84-.53-.84-.63-.08-.09.23-.47 1.12-.71zm-8.22-2.89c0-.12.28-.49 1.17-.74a9.53 9.53 0 012.56-.32 9.26 9.26 0 013 .46c.67.26.87.56.85.65-.02.09-.28.5-1.17.74a10.11 10.11 0 01-5.61-.14c-.63-.24-.84-.52-.84-.63zm-5 2.6l4.43-.62v1.36c0 .56.51.92 1.22 1.19a9.25 9.25 0 003.26.52 10.57 10.57 0 002.59-.31v2.27c0 .55.49.91 1.21 1.19a9.54 9.54 0 003.26.51 10.15 10.15 0 002.73-.34c.94-.29 1.56-.66 1.6-1.31v-3.35a10.17 10.17 0 002.54-.3v2.23c0 .56.5.91 1.22 1.19a9.5 9.5 0 003.26.51 10.21 10.21 0 002.73-.34c.93-.29 1.55-.66 1.59-1.31v-1.92.37l5 2.72-23 3.23zm37.18 22.41c-.08.06-23.37 3.28-23.37 3.28v-17.6l23.37-3.28z" fill="#f3aa00"/><path d="M86.228 36.282c0-.56-.5-.91-1.22-1.2a9.55 9.55 0 00-3.26-.5 9.82 9.82 0 00-2.73.34c-.93.28-1.54.66-1.59 1.3v1.38l-5.42.76h-.1a.1.1 0 000 .05v18.26a.27.27 0 000 .13l3.83 2.08 10.69 5.82a.33.33 0 00.13 0l24-3.37a.14.14 0 00.1 0 .64.64 0 000-.07v-18.19a.25.25 0 000-.12v-.06l-6-3.3v-1.13c0-.56-.5-.91-1.23-1.2a9.45 9.45 0 00-3.25-.5h-.73l-1.85-1v-.94c0-.56-.5-.92-1.22-1.2a9.57 9.57 0 00-3.26-.52 10.14 10.14 0 00-2.73.35c-.93.28-1.55.65-1.6 1.29v1.19l-2.54.36" fill="#ffdc5a"/><path d="M110.828 43.192a.25.25 0 000-.12v-.06l-6-3.3v-1.13c0-.56-.5-.91-1.23-1.2a9.45 9.45 0 00-3.25-.5h-.73l-1.85-1v.58l.83.46c-.29 0-.57.1-.84.17v-2.23c0-.56-.5-.92-1.22-1.2a9.57 9.57 0 00-3.26-.52 10.14 10.14 0 00-2.73.35c-.93.28-1.55.65-1.6 1.29v1.19l-2.54.36v.6l2.54-.36v1.55a10.17 10.17 0 00-2.68.35h.13v-2.23c0-.56-.5-.91-1.22-1.2a9.55 9.55 0 00-3.26-.5 9.82 9.82 0 00-2.73.34c-.93.28-1.54.66-1.59 1.3v1.38l-5.42.76h-.1a.1.1 0 000 .05v18.26a.27.27 0 000 .13l3.83 2.08 10.69 5.82a.33.33 0 00.13 0l24-3.37a.14.14 0 00.1 0 .64.64 0 000-.07v-18.19zm-10.67-5.8a9 9 0 013 .46c.67.25.87.55.84.65-.03.1-.27.49-1.16.74a9.27 9.27 0 01-2.57.32 8.79 8.79 0 01-3-.47c-.64-.23-.85-.51-.85-.62 0-.11.29-.49 1.18-.73a9.15 9.15 0 012.56-.35zm-9.61-3.32a9.53 9.53 0 012.56-.32 9.07 9.07 0 013 .47c.67.25.87.55.85.65-.02.1-.28.49-1.18.74a9.55 9.55 0 01-2.56.31 8.86 8.86 0 01-3-.46c-.63-.24-.84-.52-.83-.63-.04-.14.29-.52 1.16-.76zm-4.31 5.05a9.53 9.53 0 012.56-.32 8.85 8.85 0 013.05.47c.66.25.86.55.84.64-.02.09-.28.5-1.17.75a10 10 0 01-2.56.31 8.86 8.86 0 01-3-.46c-.63-.24-.84-.53-.84-.63-.08-.14.23-.52 1.12-.76zm-8.22-2.89c0-.12.28-.49 1.17-.74a9.53 9.53 0 012.56-.32 9.26 9.26 0 013 .46c.67.26.87.56.85.65-.02.09-.28.5-1.17.74a10.11 10.11 0 01-5.61-.14c-.63-.24-.84-.52-.84-.63zm-5 2.6l4.43-.62v1.36c0 .56.51.91 1.22 1.19a9.25 9.25 0 003.26.52 10.57 10.57 0 002.59-.31v2.21c0 .55.49.91 1.21 1.19a9.54 9.54 0 003.26.51 10.15 10.15 0 002.73-.34c.94-.29 1.56-.66 1.6-1.31v-3.35a10.17 10.17 0 002.54-.3v2.23c0 .56.5.91 1.22 1.19a9.5 9.5 0 003.26.51 10.21 10.21 0 002.73-.34c.93-.29 1.55-.66 1.59-1.31v-1.92.37l5 2.72-23 3.23zm37.22 22.31c-.08.06-23.37 3.28-23.37 3.28v-17.6l23.37-3.28-.04 17.6z" fill="#f3aa00"/><path d="M86.228 18.012c0-.56-.5-.91-1.22-1.2a9.55 9.55 0 00-3.26-.5 9.82 9.82 0 00-2.73.34c-.93.28-1.54.66-1.59 1.3v1.38l-5.42.76h-.1v18.26a.27.27 0 000 .13v.05l3.83 2.09 10.69 5.82a.33.33 0 00.13 0l24-3.37a.14.14 0 00.1 0v-18.3a.25.25 0 000-.12v-.05l-6-3.29v-1.14c0-.56-.5-.92-1.23-1.2a9.44 9.44 0 00-3.25-.51h-.73l-1.85-1v-.94c0-.55-.5-.91-1.22-1.19a9.57 9.57 0 00-3.26-.52 10.14 10.14 0 00-2.73.35c-.93.28-1.55.65-1.6 1.3v1.19l-2.54.36" fill="#ffdc5a"/><path d="M110.828 24.922a.25.25 0 000-.12v-.05l-6-3.29v-1.14c0-.56-.5-.92-1.23-1.2a9.44 9.44 0 00-3.25-.51h-.73l-1.85-1v.66l.83.46c-.29.05-.57.1-.84.17v-2.23c0-.55-.5-.91-1.22-1.19a9.57 9.57 0 00-3.26-.52 10.14 10.14 0 00-2.73.35c-.93.28-1.55.65-1.6 1.3v1.19l-2.54.36v.6l2.54-.36v1.55a10.17 10.17 0 00-2.68.35h.13v-2.23c0-.56-.5-.91-1.22-1.2a9.55 9.55 0 00-3.26-.5 9.82 9.82 0 00-2.73.34c-.93.28-1.54.66-1.59 1.3v1.38l-5.42.76h-.1v18.26a.27.27 0 000 .13v.05l3.83 2.09 10.69 5.82a.33.33 0 00.13 0l24-3.37a.14.14 0 00.1 0v-18.3zm-10.67-5.8a9 9 0 013 .46c.67.25.87.55.84.65-.03.1-.27.49-1.16.74a9.27 9.27 0 01-2.57.32 8.79 8.79 0 01-3-.47c-.64-.24-.85-.52-.85-.62 0-.12.29-.5 1.18-.74a9.53 9.53 0 012.56-.34zm-9.61-3.32a9.53 9.53 0 012.56-.32 9.07 9.07 0 013 .47c.67.25.87.55.85.64-.02.09-.28.5-1.18.75a9.55 9.55 0 01-2.56.31 8.86 8.86 0 01-3-.46c-.63-.24-.84-.52-.83-.63-.04-.1.29-.52 1.16-.76zm-4.31 5.05a9.53 9.53 0 012.56-.32 8.85 8.85 0 013.05.47c.66.25.86.55.84.64-.02.09-.28.5-1.17.74a9.53 9.53 0 01-2.56.32 8.86 8.86 0 01-3-.46c-.63-.24-.84-.53-.84-.63-.08-.15.23-.52 1.12-.76zm-8.22-2.89c0-.12.28-.49 1.17-.74a9.53 9.53 0 012.56-.32 9.26 9.26 0 013 .46c.67.25.87.56.85.65-.02.09-.28.5-1.17.74a10.11 10.11 0 01-5.61-.14c-.63-.24-.84-.52-.84-.63zm-5 2.6l4.43-.62v1.36c0 .56.51.92 1.22 1.19a9.26 9.26 0 003.26.51 10.11 10.11 0 002.59-.31v2.21c0 .56.49.92 1.21 1.2a9.54 9.54 0 003.26.51 10.15 10.15 0 002.73-.34c.94-.29 1.56-.66 1.6-1.31v-3.35a10.17 10.17 0 002.54-.3v2.23c0 .56.5.91 1.22 1.19a9.5 9.5 0 003.26.51 10.21 10.21 0 002.73-.34c.93-.29 1.55-.66 1.59-1.31v-1.92.37l5 2.72-23 3.23zm37.22 22.31c-.08.06-23.37 3.28-23.37 3.28v-17.6l23.37-3.28-.04 17.6z" fill="#f3aa00"/><path d="M62.248 94.462c0-.56-.49-.92-1.22-1.2a9.5 9.5 0 00-3.26-.51 9.74 9.74 0 00-2.72.35c-.94.27-1.55.65-1.59 1.29v1.38l-5.42.76h-.1v18.26a.68.68 0 000 .14l3.83 2.09 10.7 5.81h.12l24-3.36h.11a.14.14 0 000-.06v-18.06a.2.2 0 000-.11v-.06l-6-3.29v-1.14c0-.55-.5-.91-1.22-1.2a9.57 9.57 0 00-3.27-.5h-.72l-1.85-1v-.94c0-.56-.5-.91-1.22-1.2a9.58 9.58 0 00-3.26-.51 10.15 10.15 0 00-2.73.34c-.93.29-1.55.66-1.59 1.3v1.19l-2.55.36" fill="#ffdc5a"/><path d="M86.858 101.382a.2.2 0 000-.11v-.06l-6-3.29v-1.14c0-.55-.5-.91-1.22-1.2a9.57 9.57 0 00-3.27-.5h-.72l-1.85-1v.67l.84.45a6.52 6.52 0 00-.84.18v-2.32c0-.56-.5-.91-1.22-1.2a9.58 9.58 0 00-3.26-.51 10.15 10.15 0 00-2.73.34c-.93.29-1.55.66-1.59 1.3v1.19l-2.55.36v.6l2.54-.35v1.54a9.85 9.85 0 00-2.69.34h.14v-2.21c0-.56-.49-.92-1.22-1.2a9.5 9.5 0 00-3.26-.51 9.74 9.74 0 00-2.72.35c-.94.27-1.55.65-1.59 1.29v1.38l-5.42.76h-.1v18.26a.68.68 0 000 .14l3.83 2.09 10.7 5.81h.12l24-3.36h.11a.14.14 0 000-.06v-18.06zm-10.69-5.8a9.28 9.28 0 013 .46c.67.26.87.56.85.65-.02.09-.28.49-1.17.75a9.55 9.55 0 01-2.56.31 9.07 9.07 0 01-3.05-.46c-.63-.24-.84-.52-.84-.62 0-.12.29-.49 1.17-.74a9.51 9.51 0 012.6-.35zm-9.6-3.32a9.53 9.53 0 012.56-.32 9 9 0 013 .47c.67.25.87.55.85.65-.02.1-.28.49-1.17.74a9.61 9.61 0 01-2.57.32 9 9 0 01-3-.47c-.63-.24-.85-.52-.84-.63-.03-.13.28-.51 1.17-.76zm-4.3 5.05a9.46 9.46 0 012.55-.32 9.09 9.09 0 013 .47c.67.25.87.55.84.65-.03.1-.27.49-1.17.74a9.55 9.55 0 01-2.56.31 8.86 8.86 0 01-3-.46c-.63-.24-.84-.52-.84-.63-.02-.14.29-.52 1.18-.76zm-8.23-2.89c0-.12.29-.49 1.18-.74a9.48 9.48 0 012.55-.31 9.11 9.11 0 013.05.46c.66.25.86.55.84.65-.02.1-.27.49-1.16.74a9.66 9.66 0 01-2.57.32 9 9 0 01-3-.47c-.64-.24-.85-.52-.85-.62zm-5 2.61l4.43-.63v1.37c0 .56.51.92 1.23 1.2a9.46 9.46 0 003.26.51 10.48 10.48 0 002.58-.31v2.21c0 .56.5.92 1.22 1.21a9.49 9.49 0 003.25.5 10.28 10.28 0 002.74-.34c.93-.29 1.55-.66 1.59-1.3v-3.36a10.25 10.25 0 002.55-.3v2.2c0 .55.5.92 1.22 1.19a9.26 9.26 0 003.26.51 10.33 10.33 0 002.74-.34c.93-.29 1.54-.65 1.58-1.31v-1.91.37l5 2.72-23.01 3.24zm37.23 22.3c-.08.06-23.38 3.28-23.38 3.28v-17.59l23.37-3.29s-.04 17.49-.03 17.6z" fill="#f3aa00"/><path d="M62.248 3.122c0-.55-.49-.91-1.22-1.2a10.82 10.82 0 00-6-.15c-.94.28-1.55.65-1.59 1.29v1.4l-5.42.76h-.1v18.31a.51.51 0 000 .13l3.83 2.1 10.7 5.81a.28.28 0 00.12 0l24-3.36h.11a.14.14 0 000-.06V9.962a.27.27 0 000-.12v-.06l-6-3.29v-1.14c0-.56-.5-.91-1.22-1.2a9.57 9.57 0 00-3.27-.5h-.72l-1.85-1v-.94c0-.56-.5-.92-1.22-1.2a9.34 9.34 0 00-3.26-.51 10.15 10.15 0 00-2.73.34c-.93.29-1.55.66-1.59 1.3v1.19l-2.55.36" fill="#ffdc5a"/><path d="M86.858 10.032a.27.27 0 000-.12v-.06l-6-3.29v-1.14c0-.56-.5-.91-1.22-1.2a9.57 9.57 0 00-3.27-.5h-.72l-1.85-1v.66l.84.46q-.45.07-.84.18v-2.24c0-.56-.5-.92-1.22-1.2a9.34 9.34 0 00-3.26-.51 10.15 10.15 0 00-2.73.34c-.93.29-1.55.66-1.59 1.3v1.19l-2.55.36v.6l2.54-.36v1.55a10.25 10.25 0 00-2.69.35h.14v-2.24c0-.55-.49-.91-1.22-1.2a10.82 10.82 0 00-6-.15c-.94.28-1.55.65-1.59 1.29v1.36l-5.42.76h-.1v18.31a.51.51 0 000 .13l3.83 2.1 10.7 5.81a.53.53 0 00.12 0l24-3.36h.11a.14.14 0 000-.06V9.962zm-10.69-5.8a9.28 9.28 0 013 .46c.67.25.87.56.85.65-.02.09-.28.49-1.17.74a10.37 10.37 0 01-5.61-.14c-.63-.24-.84-.52-.84-.63 0-.12.29-.5 1.17-.74a9.51 9.51 0 012.6-.34zm-9.6-3.32a9.53 9.53 0 012.56-.32 9 9 0 013 .47c.67.25.87.55.85.65-.02.1-.28.49-1.17.74a9.61 9.61 0 01-2.57.32 9 9 0 01-3-.47c-.63-.24-.85-.52-.84-.63-.03-.13.28-.51 1.17-.76zm-4.3 5.05a9.46 9.46 0 012.55-.32 9.09 9.09 0 013 .47c.67.25.87.55.84.64-.03.09-.27.5-1.17.75a10 10 0 01-2.56.31 8.86 8.86 0 01-3-.46c-.63-.24-.84-.52-.84-.63-.02-.14.29-.52 1.18-.76zm-8.23-2.89c0-.12.29-.49 1.18-.74a9.46 9.46 0 012.55-.32 9.09 9.09 0 013.05.47c.66.25.86.55.84.64-.02.09-.27.5-1.16.75a9.66 9.66 0 01-2.57.32 9 9 0 01-3-.47c-.64-.24-.85-.52-.85-.63zm-5 2.6l4.43-.62v1.41c0 .56.51.91 1.23 1.19a9.22 9.22 0 003.26.52 10.48 10.48 0 002.58-.31v2.2c0 .55.5.91 1.22 1.2a9.73 9.73 0 003.25.5 10.28 10.28 0 002.67-.3c.93-.29 1.55-.66 1.59-1.31v-3.35a10.25 10.25 0 002.55-.3v2.2c0 .56.5.91 1.22 1.19a9.26 9.26 0 003.26.51 10.33 10.33 0 002.74-.34c.93-.29 1.54-.66 1.58-1.31v-1.92.38l5 2.71-23 3.23zm37.23 22.31c-.08.06-23.38 3.28-23.38 3.28v-17.59l23.37-3.29s-.04 17.49-.03 17.6z" fill="#f3aa00"/><path d="M38.298 97.852c0-.56-.5-.92-1.23-1.2a9.47 9.47 0 00-3.26-.5 9.74 9.74 0 00-2.72.34c-.93.28-1.54.66-1.59 1.29v1.39l-5.41.76a.23.23 0 00-.11 0v18.25a.28.28 0 000 .13l3.83 2.09 10.69 5.81h.12l24-3.37h.11v-18.32a.43.43 0 000-.12l-6-3.29v-1.14c0-.56-.49-.92-1.22-1.2a9.54 9.54 0 00-3.26-.51h-.72l-1.85-1v-.8c0-.56-.51-.91-1.23-1.2a9.74 9.74 0 00-3.26-.51 9.64 9.64 0 00-2.72.35c-.94.28-1.55.65-1.6 1.29v1.2l-2.54.35" fill="#ffdc5a"/><path d="M62.898 104.762a.43.43 0 000-.12l-6-3.29v-1.14c0-.56-.49-.92-1.22-1.2a9.54 9.54 0 00-3.26-.51h-.72l-1.85-1v.66l.84.45c-.29.05-.58.11-.84.18v-2.23c0-.56-.51-.91-1.23-1.2a9.74 9.74 0 00-3.26-.51 9.64 9.64 0 00-2.72.35c-.94.28-1.55.65-1.6 1.29v1.2l-2.54.35v.6l2.55-.35v1.52a9.91 9.91 0 00-2.69.34h.14v-2.23c0-.56-.5-.92-1.23-1.2a9.47 9.47 0 00-3.26-.5 9.74 9.74 0 00-2.72.34c-.93.28-1.54.66-1.59 1.29v1.39l-5.41.76a.23.23 0 00-.11 0v18.25a.28.28 0 000 .13l3.83 2.09 10.69 5.81h.12l24-3.37h.11v-18.32zm-10.68-5.8a9 9 0 013 .46c.67.24.87.55.85.65-.02.1-.28.48-1.17.74a9.53 9.53 0 01-2.56.32 9 9 0 01-3-.47c-.64-.24-.85-.52-.85-.63 0-.12.29-.49 1.18-.74a9.48 9.48 0 012.55-.33zm-9.61-3.32a9.59 9.59 0 012.56-.32 9.11 9.11 0 013 .46c.66.26.86.55.84.65-.02.1-.28.49-1.17.74a9.53 9.53 0 01-2.56.32 9.11 9.11 0 01-3.05-.46c-.63-.24-.84-.53-.83-.63.01-.14.28-.52 1.21-.76zm-4.3 5a10 10 0 012.56-.32 9 9 0 013 .47c.67.25.87.55.85.65-.02.1-.28.49-1.17.74a9.66 9.66 0 01-2.57.32 9 9 0 01-3-.47c-.63-.23-.85-.52-.84-.63-.03-.09.28-.48 1.17-.72zm-8.23-2.89c0-.11.29-.49 1.18-.73a9.51 9.51 0 012.55-.32 9 9 0 013 .46c.66.25.87.55.84.65-.03.1-.27.49-1.16.74a9.17 9.17 0 01-2.57.32 8.79 8.79 0 01-3-.47c-.64-.24-.85-.51-.85-.62zm-5 2.61l4.44-.63v1.37c0 .56.5.92 1.22 1.2a9.22 9.22 0 003.26.51 10.11 10.11 0 002.59-.31v2.21c0 .56.5.91 1.22 1.2a9.51 9.51 0 003.26.5 9.77 9.77 0 002.73-.34c.94-.28 1.56-.65 1.6-1.3v-3.36a10.23 10.23 0 002.54-.3v2.21c0 .56.51.92 1.23 1.2a9.42 9.42 0 003.26.51 10.2 10.2 0 002.73-.35c.93-.28 1.55-.65 1.59-1.3v-1.55l5 2.72-23 3.23zm37.23 22.31c-.08 0-23.37 3.27-23.37 3.27v-17.59l23.37-3.28s-.05 17.53-.04 17.64z" fill="#f3aa00"/><path d="M38.298 6.462c0-.56-.5-.92-1.23-1.2a9.46 9.46 0 00-3.26-.51 9.74 9.74 0 00-2.72.35c-.93.27-1.54.65-1.59 1.29v1.38l-5.41.76h-.11v18.31a.31.31 0 000 .13l3.83 2.09 10.69 5.81h.12l24-3.37h.11v-18.3a.43.43 0 000-.12v-.06l-6-3.29v-1.14c0-.55-.49-.91-1.22-1.2a9.8 9.8 0 00-3.26-.5h-.72l-1.85-1v-.93c0-.56-.51-.91-1.23-1.2a9.74 9.74 0 00-3.26-.51 10 10 0 00-2.72.34c-.94.29-1.55.66-1.6 1.3v1.19l-2.54.36" fill="#ffdc5a"/><path d="M62.898 13.462a.43.43 0 000-.12v-.06l-6-3.29v-1.14c0-.55-.49-.91-1.22-1.2a9.8 9.8 0 00-3.26-.5h-.72l-1.85-1v.67l.84.45c-.29.05-.58.11-.84.18v-2.23c0-.56-.51-.91-1.23-1.2a9.74 9.74 0 00-3.26-.51 10 10 0 00-2.72.34c-.94.29-1.55.66-1.6 1.3v1.19l-2.54.36v.61l2.55-.36v1.52a9.91 9.91 0 00-2.69.34h.14v-2.24c0-.56-.5-.92-1.23-1.2a9.46 9.46 0 00-3.26-.51 9.74 9.74 0 00-2.72.35c-.93.27-1.54.65-1.59 1.29v1.38l-5.41.76h-.11v18.31a.31.31 0 000 .13l3.83 2.09 10.69 5.81h.12l24-3.37h.11v-18.3zm-10.68-5.81a9 9 0 013 .47c.67.25.87.55.85.64-.02.09-.28.5-1.17.75a9.53 9.53 0 01-2.56.32 9 9 0 01-3-.47c-.64-.24-.85-.52-.85-.63 0-.12.29-.49 1.18-.74a9.46 9.46 0 012.55-.39zm-9.61-3.32a10 10 0 012.56-.32 9.09 9.09 0 013 .47c.66.25.86.56.84.65-.02.09-.28.49-1.17.74a9.53 9.53 0 01-2.56.32 8.85 8.85 0 01-3.05-.47c-.63-.23-.84-.52-.83-.63.01-.18.28-.56 1.21-.81zm-4.3 5.05a9.53 9.53 0 012.56-.32 9 9 0 013 .47c.67.25.87.55.85.65-.02.1-.28.49-1.17.74a9.68 9.68 0 01-2.57.31 8.8 8.8 0 01-3-.46c-.63-.24-.85-.52-.84-.63-.03-.18.28-.57 1.17-.81zm-8.23-2.92c0-.12.29-.5 1.18-.74a9.51 9.51 0 012.55-.32 9 9 0 013 .46c.66.25.87.55.84.65-.03.1-.27.49-1.16.74a9.56 9.56 0 01-2.57.32 9 9 0 01-3-.47c-.64-.24-.85-.51-.85-.62zm-5 2.61l4.44-.63v1.37c0 .56.5.92 1.22 1.2a9.46 9.46 0 003.26.51 10.57 10.57 0 002.59-.31v2.21c0 .56.5.91 1.22 1.2a9.51 9.51 0 003.26.5 9.77 9.77 0 002.73-.34c.94-.29 1.56-.65 1.6-1.3v-3.41a10.23 10.23 0 002.54-.3v2.21c0 .56.51.91 1.23 1.19a9.18 9.18 0 003.26.52 10.2 10.2 0 002.73-.35c.93-.28 1.55-.65 1.59-1.31v-1.54l5 2.72-23.07 3.25zm37.23 22.3c-.08.06-23.37 3.28-23.37 3.28v-17.59l23.37-3.28s-.05 17.46-.04 17.57z" fill="#f3aa00"/><path d="M14.328 82.652c0-.56-.5-.92-1.22-1.2a9.55 9.55 0 00-3.26-.5 9.82 9.82 0 00-2.73.34c-.93.28-1.54.65-1.59 1.29v1.38l-5.42.77a.17.17 0 00-.1 0 .14.14 0 000 .06v18.19a.27.27 0 000 .13l3.83 2.09 10.69 5.81a.28.28 0 00.13 0l24-3.37a.21.21 0 00.1 0v-18.31a.22.22 0 000-.12l-6-3.29v-1.14c0-.55-.5-.91-1.23-1.19a9.46 9.46 0 00-3.26-.51h-.72l-1.85-1v-.94c0-.56-.51-.91-1.23-1.2a10.71 10.71 0 00-6-.16c-.93.28-1.55.65-1.6 1.29v1.2l-2.54.35" fill="#ffdc5a"/><path d="M38.928 89.562a.22.22 0 000-.12l-6-3.29v-1.14c0-.55-.5-.91-1.23-1.19a9.46 9.46 0 00-3.26-.51h-.72l-1.85-1v.66l.83.45q-.43.07-.84.18v-2.23c0-.56-.51-.91-1.23-1.2a10.71 10.71 0 00-6-.16c-.93.28-1.55.65-1.6 1.29v1.2l-2.54.35v.6l2.54-.35v1.36a10.18 10.18 0 00-2.68.34h.13v-2.23c0-.56-.5-.92-1.22-1.2a9.55 9.55 0 00-3.26-.5 9.82 9.82 0 00-2.73.34c-.93.28-1.54.65-1.59 1.29v1.38l-5.42.77a.17.17 0 00-.1 0 .14.14 0 000 .06v18.19a.27.27 0 000 .13l3.83 2.09 10.69 5.81a.28.28 0 00.13 0l24-3.37a.21.21 0 00.1 0v-18.31zm-10.68-5.8a9 9 0 013 .46c.66.25.87.55.84.64-.03.09-.27.5-1.16.75a9.66 9.66 0 01-2.57.32 9 9 0 01-3-.47c-.64-.24-.85-.52-.85-.62 0-.12.29-.49 1.18-.74a9.53 9.53 0 012.56-.34zm-9.57-3.3a9.52 9.52 0 012.56-.33 8.81 8.81 0 013 .48c.67.24.87.55.84.64-.03.09-.27.49-1.17.75a10 10 0 01-2.56.31 9 9 0 01-3-.46c-.63-.24-.85-.53-.84-.63-.06-.16.25-.54 1.17-.76zm-4.31 5a10 10 0 012.56-.32 9.09 9.09 0 013 .47c.66.25.86.55.84.65-.02.1-.28.49-1.17.74a9.59 9.59 0 01-2.56.32 8.85 8.85 0 01-3.05-.47c-.63-.24-.84-.52-.84-.63-.01-.11.3-.49 1.19-.76zm-8.22-2.89c0-.12.28-.5 1.18-.74a9 9 0 012.55-.32 9.37 9.37 0 013 .46c.66.25.86.56.84.65-.02.09-.28.49-1.17.74a9.53 9.53 0 01-2.56.32 8.81 8.81 0 01-3-.47c-.63-.24-.84-.51-.84-.62zm-5 2.61l4.43-.63v1.37c0 .55.51.91 1.22 1.19a9.26 9.26 0 003.26.51 10.11 10.11 0 002.59-.31v2.21c0 .56.5.91 1.22 1.2a9.59 9.59 0 003.26.5 9.77 9.77 0 002.73-.34c.94-.29 1.56-.65 1.6-1.3v-3.36a10.16 10.16 0 002.54-.31v2.24c0 .56.5.92 1.22 1.2a9.5 9.5 0 003.26.51 10.2 10.2 0 002.73-.35c.93-.28 1.55-.65 1.59-1.3v-1.92.37l5 2.72-23 3.23zm37.22 22.31c-.08.05-23.37 3.27-23.37 3.27v-17.59l23.37-3.28s-.08 17.51-.07 17.62z" fill="#f3aa00"/><path d="M14.328 64.662c0-.55-.5-.91-1.22-1.19a9.54 9.54 0 00-3.26-.51 10.21 10.21 0 00-2.73.34c-.93.28-1.54.66-1.59 1.3v1.38l-5.42.76h-.1a.19.19 0 000 .07v18.2a.23.23 0 000 .12l3.83 2.09 10.69 5.81a.28.28 0 00.13 0l24-3.37a.24.24 0 00.1-.05v-18.29a.25.25 0 000-.12.21.21 0 000-.06l-6-3.29v-1.14c0-.56-.5-.91-1.23-1.2a9.71 9.71 0 00-3.26-.5h-.72l-1.85-1v-.93c0-.56-.51-.92-1.23-1.2a9.44 9.44 0 00-3.25-.51 10.15 10.15 0 00-2.73.34c-.93.29-1.55.66-1.6 1.3v1.19l-2.54.36" fill="#ffdc5a"/><path d="M38.928 71.572a.25.25 0 000-.12.21.21 0 000-.06l-6-3.29v-1.14c0-.56-.5-.91-1.23-1.2a9.71 9.71 0 00-3.26-.5h-.72l-1.85-1v.67l.83.45a7.34 7.34 0 00-.84.18v-2.23c0-.56-.51-.92-1.23-1.2a9.44 9.44 0 00-3.25-.51 10.15 10.15 0 00-2.73.34c-.93.29-1.55.66-1.6 1.3v1.19l-2.54.36v.6l2.54-.36v1.53a9.78 9.78 0 00-2.68.34h.13v-2.24c0-.55-.5-.91-1.22-1.19a9.54 9.54 0 00-3.26-.51 10.21 10.21 0 00-2.73.34c-.93.28-1.54.66-1.59 1.3v1.38l-5.42.76h-.1a.19.19 0 000 .07v18.2a.23.23 0 000 .12l3.83 2.09 10.69 5.81a.28.28 0 00.13 0l24-3.37a.24.24 0 00.1-.05v-18.29zm-10.68-5.8a9 9 0 013 .47c.66.24.87.55.84.64-.03.09-.27.49-1.16.74a9.26 9.26 0 01-2.57.33 8.77 8.77 0 01-3-.48c-.64-.23-.85-.51-.85-.62 0-.12.29-.49 1.18-.74a9.51 9.51 0 012.56-.34zm-9.57-3.31a10 10 0 012.56-.32 9.07 9.07 0 013 .47c.67.25.87.55.84.65-.03.1-.27.49-1.17.74a9.53 9.53 0 01-2.56.32 9 9 0 01-3-.47c-.63-.24-.85-.52-.84-.63-.06-.14.25-.52 1.17-.76zm-4.31 5a9.59 9.59 0 012.56-.32 9.09 9.09 0 013 .47c.66.25.86.55.84.65-.02.1-.28.49-1.17.74a10 10 0 01-2.56.31 8.86 8.86 0 01-3.05-.46c-.63-.24-.84-.53-.84-.63-.01-.09.3-.48 1.19-.76zm-8.22-2.89c0-.12.28-.49 1.18-.73a10.33 10.33 0 015.6.14c.66.25.86.55.84.64-.02.09-.28.5-1.17.75a9.53 9.53 0 01-2.56.32 9.05 9.05 0 01-3-.47c-.63-.24-.84-.52-.84-.63zm-5 2.6l4.43-.62v1.37c0 .56.51.92 1.22 1.2a9.5 9.5 0 003.26.51 10.57 10.57 0 002.59-.31v2.21c0 .56.5.91 1.22 1.19a9.58 9.58 0 003.26.51 10.15 10.15 0 002.73-.34c.94-.29 1.56-.66 1.6-1.3v-3.41a10.17 10.17 0 002.54-.3v2.23c0 .56.5.91 1.22 1.19a9.26 9.26 0 003.26.51 10.21 10.21 0 002.73-.34c.93-.28 1.55-.65 1.59-1.31v-1.92.38l5 2.71-23 3.23zm37.22 22.31c-.08.06-23.37 3.28-23.37 3.28v-17.59l23.37-3.28s-.08 17.57-.07 17.63z" fill="#f3aa00"/><path d="M14.328 46.392c0-.55-.5-.91-1.22-1.19a9.54 9.54 0 00-3.26-.51 10.21 10.21 0 00-2.73.34c-.93.28-1.54.66-1.59 1.3v1.38l-5.42.76h-.1v.05a.19.19 0 000 .07v18.19a.34.34 0 000 .14v.05l3.83 2.09 10.69 5.81a.28.28 0 00.13 0l24-3.36h.1v-18.16a.25.25 0 000-.12v-.06l-6-3.29v-1.14c0-.55-.5-.91-1.23-1.2a9.47 9.47 0 00-3.26-.5h-.72l-1.85-1v-.94c0-.56-.51-.92-1.23-1.2a9.2 9.2 0 00-3.25-.51 10.15 10.15 0 00-2.73.34c-.93.29-1.55.65-1.6 1.3v1.19l-2.54.36" fill="#ffdc5a"/><path d="M38.928 53.302a.25.25 0 000-.12v-.06l-6-3.29v-1.14c0-.55-.5-.91-1.23-1.2a9.47 9.47 0 00-3.26-.5h-.72l-1.85-1v.67l.83.45a7.34 7.34 0 00-.84.18v-2.24c0-.56-.51-.92-1.23-1.2a9.2 9.2 0 00-3.25-.51 10.15 10.15 0 00-2.73.34c-.93.29-1.55.65-1.6 1.3v1.19l-2.54.36v.6l2.54-.36v1.53a9.78 9.78 0 00-2.68.34h.13v-2.23c0-.55-.5-.91-1.22-1.19a9.54 9.54 0 00-3.26-.51 10.21 10.21 0 00-2.73.34c-.93.28-1.54.66-1.59 1.3v1.38l-5.42.76h-.1v.05a.19.19 0 000 .07v18.19a.34.34 0 000 .14v.05l3.83 2.09 10.69 5.81a.5.5 0 00.13 0l24-3.36h.1v-18.18zm-10.68-5.8a9 9 0 013 .47c.66.24.87.55.84.64-.03.09-.27.49-1.16.74a9.26 9.26 0 01-2.57.33 8.77 8.77 0 01-3-.48c-.64-.23-.85-.51-.85-.62 0-.12.29-.49 1.18-.74a9.51 9.51 0 012.56-.38zm-9.6-3.32a10 10 0 012.56-.32 9.07 9.07 0 013 .47c.67.25.87.55.84.65-.03.1-.27.49-1.17.74a9.55 9.55 0 01-2.56.31 8.76 8.76 0 01-3-.46c-.63-.24-.85-.52-.84-.63-.03-.13.28-.48 1.2-.76zm-4.31 5a9.59 9.59 0 012.56-.32 9.09 9.09 0 013 .47c.66.25.86.55.84.65-.02.1-.28.49-1.17.74a10 10 0 01-2.56.31 8.86 8.86 0 01-3.05-.46c-.63-.24-.84-.52-.84-.63.02-.09.33-.48 1.22-.71zm-8.22-2.89c0-.12.28-.49 1.18-.73a10.08 10.08 0 015.6.14c.66.25.86.55.84.64-.02.09-.28.5-1.17.75a9.53 9.53 0 01-2.56.32 9.05 9.05 0 01-3-.47c-.63-.24-.84-.52-.84-.62zm-5 2.61l4.43-.63v1.37c0 .56.51.92 1.22 1.2a9.5 9.5 0 003.26.51 10.57 10.57 0 002.59-.31v2.21c0 .56.5.91 1.22 1.19a9.34 9.34 0 003.26.51 10.15 10.15 0 002.73-.34c.94-.29 1.56-.66 1.6-1.3v-3.41a10.17 10.17 0 002.54-.3v2.23c0 .56.5.91 1.22 1.19a9.26 9.26 0 003.26.51 10.21 10.21 0 002.73-.34c.93-.29 1.55-.65 1.59-1.31v-1.92.5l5 2.71-23 3.23zm37.22 22.3c-.08.06-23.37 3.28-23.37 3.28v-17.59l23.37-3.29s-.05 17.54-.04 17.65z" fill="#f3aa00"/><path d="M14.328 28.122c0-.55-.5-.91-1.22-1.19a9.54 9.54 0 00-3.26-.51 10.21 10.21 0 00-2.73.34c-.93.28-1.54.66-1.59 1.3v1.4l-5.42.76h-.1v.05a.19.19 0 000 .07v18.2a.3.3 0 000 .13l3.83 2.09 10.69 5.81a.28.28 0 00.13 0l24-3.36h.1v-18.29a.25.25 0 000-.12v-.06l-6-3.29v-1.14c0-.56-.5-.91-1.23-1.2a9.47 9.47 0 00-3.26-.5h-.72l-1.85-1v-.94c0-.56-.51-.92-1.23-1.2a9.44 9.44 0 00-3.25-.51 10.15 10.15 0 00-2.73.34c-.93.29-1.55.65-1.6 1.3v1.19l-2.54.36" fill="#ffdc5a"/><path d="M38.928 35.032a.25.25 0 000-.12v-.06l-6-3.29v-1.14c0-.56-.5-.91-1.23-1.2a9.47 9.47 0 00-3.26-.5h-.72l-1.85-1v.67l.83.45c-.29.05-.57.1-.84.17v-2.23c0-.56-.51-.92-1.23-1.2a9.44 9.44 0 00-3.25-.51 10.15 10.15 0 00-2.73.34c-.93.29-1.55.65-1.6 1.3v1.19l-2.54.36v.6l2.54-.36v1.53a9.78 9.78 0 00-2.68.34h.13v-2.23c0-.55-.5-.91-1.22-1.19a9.54 9.54 0 00-3.26-.51 10.21 10.21 0 00-2.73.34c-.93.28-1.54.66-1.59 1.3v1.38l-5.42.76h-.1v.05a.19.19 0 000 .07v18.2a.3.3 0 000 .13l3.83 2.09 10.69 5.81a.28.28 0 00.13 0l24-3.36h.1v-18.29zm-10.68-5.8a9.28 9.28 0 013 .46c.66.25.87.56.84.65-.03.09-.27.49-1.16.74a9.26 9.26 0 01-2.57.33 8.77 8.77 0 01-3-.48c-.64-.23-.85-.51-.85-.62 0-.12.29-.5 1.18-.74a9.51 9.51 0 012.56-.34zm-9.6-3.32a10 10 0 012.56-.32 9.07 9.07 0 013 .47c.67.25.87.55.84.65-.03.1-.27.49-1.17.74a9.55 9.55 0 01-2.56.31 8.76 8.76 0 01-3-.46c-.63-.24-.85-.52-.84-.63-.03-.14.28-.51 1.2-.76zm-4.31 5.05a9.59 9.59 0 012.56-.32 9.09 9.09 0 013 .47c.66.25.86.55.84.64-.02.09-.28.5-1.17.75a10 10 0 01-2.56.31 8.86 8.86 0 01-3.05-.46c-.63-.24-.84-.53-.84-.63.02-.14.33-.52 1.22-.76zm-8.22-2.89c0-.12.28-.49 1.18-.73a10.33 10.33 0 015.6.14c.66.25.86.55.84.64-.02.09-.28.5-1.17.74a10.11 10.11 0 01-5.61-.14c-.63-.24-.84-.52-.84-.63zm-5 2.61l4.43-.63v1.41c0 .56.51.92 1.22 1.2a9.5 9.5 0 003.26.51 10.57 10.57 0 002.59-.31v2.21c0 .55.5.91 1.22 1.19a9.58 9.58 0 003.26.51 10.15 10.15 0 002.73-.34c.94-.29 1.56-.66 1.6-1.3v-3.36a10.17 10.17 0 002.54-.3v2.23c0 .56.5.91 1.22 1.19a9.5 9.5 0 003.26.51 10.21 10.21 0 002.73-.34c.93-.29 1.55-.65 1.59-1.31v-1.92.37l5 2.72-23 3.23zm37.22 22.3c-.08.06-23.37 3.28-23.37 3.28v-17.59l23.37-3.29s-.05 17.49-.04 17.6z" fill="#f3aa00"/><path d="M101.308 81.052c0-.56-.5-.91-1.22-1.19a9.5 9.5 0 00-3.26-.51 9.74 9.74 0 00-2.72.34c-.94.28-1.55.66-1.6 1.3v1.38l-5.42.76h-.1v18.31a.25.25 0 000 .13l3.83 2.1 10.7 5.81a.38.38 0 00.13 0l24-3.36h.11a.14.14 0 000-.06v-18.19a.25.25 0 000-.12v-.06l-6-3.29v-1.14c0-.56-.5-.91-1.22-1.2a9.55 9.55 0 00-3.26-.5h-.73l-1.85-1v-.94c0-.56-.5-.92-1.22-1.2a9.3 9.3 0 00-3.26-.51 10.15 10.15 0 00-2.73.34c-.93.29-1.55.66-1.59 1.3v1.19l-2.55.36" fill="#ffdc5a"/><path d="M125.908 87.962a.25.25 0 000-.12v-.06l-6-3.29v-1.14c0-.56-.5-.91-1.22-1.2a9.55 9.55 0 00-3.26-.5h-.73l-1.85-1v.67l.84.45a6.52 6.52 0 00-.84.18v-2.24c0-.56-.5-.92-1.22-1.2a9.3 9.3 0 00-3.26-.51 10.15 10.15 0 00-2.73.34c-.93.29-1.55.66-1.59 1.3v1.19l-2.55.36v.6l2.54-.36v1.53a9.85 9.85 0 00-2.69.34h.14v-2.24c0-.56-.5-.91-1.22-1.19a9.5 9.5 0 00-3.26-.51 9.74 9.74 0 00-2.72.34c-.94.28-1.55.66-1.6 1.3v1.38l-5.42.76h-.1v18.31a.25.25 0 000 .13l3.83 2.1 10.7 5.81a.38.38 0 00.13 0l24-3.36h.11a.14.14 0 000-.06v-18.19zm-10.67-5.8a9.26 9.26 0 013 .46c.67.25.87.56.84.65-.03.09-.27.5-1.16.74a9.15 9.15 0 01-2.56.32 8.81 8.81 0 01-3-.47c-.63-.23-.84-.51-.84-.62 0-.12.28-.5 1.17-.74a9.53 9.53 0 012.55-.34zm-9.61-3.32a9.53 9.53 0 012.56-.32 9 9 0 013 .47c.67.25.87.55.85.65-.02.1-.28.49-1.17.74a9.66 9.66 0 01-2.57.32 9 9 0 01-3-.47c-.63-.23-.85-.52-.84-.63-.03-.14.28-.51 1.22-.76zm-4.3 5a9.46 9.46 0 012.55-.32 8.85 8.85 0 013 .47c.67.24.86.55.84.65-.02.1-.28.48-1.17.74a10 10 0 01-2.56.31 8.86 8.86 0 01-3-.46c-.63-.24-.84-.52-.83-.63-.04-.09.28-.47 1.17-.71zm-8.23-2.89c0-.12.29-.49 1.18-.73a10.33 10.33 0 015.6.14c.66.25.86.55.84.64-.02.09-.27.5-1.17.75a9.53 9.53 0 01-2.56.32 9 9 0 01-3-.47c-.64-.24-.85-.52-.85-.62zm-5 2.61l4.43-.63v1.37c0 .56.51.92 1.23 1.19a9.22 9.22 0 003.26.52 10.54 10.54 0 002.58-.31v2.2c0 .55.49.91 1.21 1.19a9.36 9.36 0 003.27.51 10.26 10.26 0 002.73-.34c.94-.29 1.55-.66 1.59-1.3v-3.41a10.31 10.31 0 002.55-.3v2.2c0 .56.51.91 1.22 1.19a9.26 9.26 0 003.26.51 10.21 10.21 0 002.73-.34c.94-.29 1.56-.66 1.6-1.31v-1.54l5 2.71-23 3.23zm37.23 22.3c-.09.06-23.37 3.28-23.37 3.28v-17.59l23.37-3.29s-.05 17.54-.04 17.65z" fill="#f3aa00"/><path d="M101.308 62.782c0-.55-.5-.91-1.22-1.19a9.5 9.5 0 00-3.26-.51 10.13 10.13 0 00-2.72.34c-.94.28-1.55.66-1.6 1.3v1.38l-5.42.76h-.1v18.26a.27.27 0 000 .13l3.83 2.09 10.7 5.81a.38.38 0 00.13 0l24-3.36a.34.34 0 00.11-.05.14.14 0 000-.07v-18.19a.25.25 0 000-.12v-.06l-6-3.29v-1.14c0-.56-.5-.91-1.22-1.2a9.55 9.55 0 00-3.26-.5h-.73l-1.85-1v-.94c0-.56-.5-.92-1.22-1.2a9.3 9.3 0 00-3.26-.51 10.15 10.15 0 00-2.73.34c-.93.29-1.55.65-1.59 1.3v1.19l-2.55.36" fill="#ffdc5a"/><path d="M125.908 69.692a.25.25 0 000-.12v-.06l-6-3.29v-1.14c0-.56-.5-.91-1.22-1.2a9.55 9.55 0 00-3.26-.5h-.73l-1.85-1v.66l.84.46a6.52 6.52 0 00-.84.18v-2.24c0-.56-.5-.92-1.22-1.2a9.3 9.3 0 00-3.26-.51 10.15 10.15 0 00-2.73.34c-.93.29-1.55.65-1.59 1.3v1.19l-2.55.36v.6l2.54-.36v1.53a9.85 9.85 0 00-2.69.34h.14v-2.23c0-.55-.5-.91-1.22-1.19a9.5 9.5 0 00-3.26-.51 10.13 10.13 0 00-2.72.34c-.94.28-1.55.66-1.6 1.3v1.38l-5.42.76h-.1v18.26a.27.27 0 000 .13l3.83 2.09 10.7 5.81h.13l24-3.36a.34.34 0 00.11-.05.14.14 0 000-.07v-18.19zm-10.67-5.8a9.26 9.26 0 013 .46c.67.25.87.56.84.65-.03.09-.27.49-1.16.74a9.15 9.15 0 01-2.56.32 8.81 8.81 0 01-3-.47c-.63-.23-.84-.51-.84-.62 0-.12.28-.5 1.17-.74a9.53 9.53 0 012.55-.34zm-9.61-3.32a9.53 9.53 0 012.56-.32 9 9 0 013 .47c.67.25.87.55.85.65-.02.1-.28.49-1.17.74a9.66 9.66 0 01-2.57.32 9 9 0 01-3-.47c-.63-.24-.85-.52-.84-.63-.03-.13.28-.51 1.22-.76zm-4.3 5a9.46 9.46 0 012.55-.32 9.09 9.09 0 013 .47c.67.24.86.55.84.65-.02.1-.28.49-1.17.74a10 10 0 01-2.56.31 8.86 8.86 0 01-3-.46c-.63-.24-.84-.53-.83-.63-.04-.09.28-.47 1.17-.71zm-8.23-2.89c0-.12.29-.49 1.18-.74a9.48 9.48 0 012.55-.31 9.07 9.07 0 013 .46c.66.25.86.55.84.64-.02.09-.27.5-1.17.75a9.53 9.53 0 01-2.56.32 9 9 0 01-3-.47c-.64-.24-.85-.52-.85-.63zm-5 2.6l4.43-.62v1.37c0 .56.51.92 1.23 1.19a9.22 9.22 0 003.26.52 10.54 10.54 0 002.58-.31v2.21c0 .55.49.91 1.21 1.19a9.6 9.6 0 003.27.51 10.26 10.26 0 002.73-.34c.94-.29 1.55-.66 1.59-1.3v-3.41a10.31 10.31 0 002.55-.3v2.2c0 .56.51.91 1.22 1.19a9.26 9.26 0 003.26.51 10.21 10.21 0 002.73-.34c.94-.29 1.56-.65 1.6-1.31v-1.54l5 2.71-23 3.23zm37.23 22.31c-.09.06-23.37 3.28-23.37 3.28v-17.59l23.37-3.29s-.05 17.54-.04 17.65z" fill="#f3aa00"/><path d="M101.308 44.512c0-.55-.5-.91-1.22-1.19a9.5 9.5 0 00-3.26-.51 10.13 10.13 0 00-2.72.34c-.94.28-1.55.66-1.6 1.3v1.38l-5.42.76h-.1v18.26a.34.34 0 000 .14v.05l3.83 2.08 10.7 5.82a.38.38 0 00.13 0l24-3.36a.34.34 0 00.11-.05.14.14 0 000-.06v-18.25a.25.25 0 000-.12v-.06l-6-3.29v-1.14c0-.56-.5-.91-1.22-1.2a9.55 9.55 0 00-3.26-.5h-.73l-1.85-1v-.94c0-.56-.5-.92-1.22-1.2a9.3 9.3 0 00-3.26-.51 10.15 10.15 0 00-2.73.34c-.93.29-1.55.65-1.59 1.3v1.19l-2.55.36" fill="#ffdc5a"/><path d="M125.908 51.462a.25.25 0 000-.12v-.06l-6-3.29v-1.14c0-.56-.5-.91-1.22-1.2a9.55 9.55 0 00-3.26-.5h-.73l-1.85-1v.67l.84.45a6.52 6.52 0 00-.84.18v-2.24c0-.56-.5-.92-1.22-1.2a9.3 9.3 0 00-3.26-.51 10.15 10.15 0 00-2.73.34c-.93.29-1.55.65-1.59 1.3v1.19l-2.55.36v.6l2.54-.36v1.53a9.85 9.85 0 00-2.69.34h.14v-2.23c0-.55-.5-.91-1.22-1.19a9.5 9.5 0 00-3.26-.51 10.13 10.13 0 00-2.72.34c-.94.28-1.55.66-1.6 1.3v1.38l-5.42.76h-.1v18.26a.34.34 0 000 .14v.05l3.83 2.08 10.7 5.82h.13l24-3.36a.34.34 0 00.11-.05.14.14 0 000-.06v-18.25zm-10.67-5.8a9.26 9.26 0 013 .46c.67.25.87.56.84.65-.03.09-.27.49-1.16.74a9.15 9.15 0 01-2.56.32 8.81 8.81 0 01-3-.47c-.63-.23-.84-.51-.84-.62 0-.12.28-.5 1.17-.74a9.53 9.53 0 012.55-.38zm-9.61-3.32a9.53 9.53 0 012.56-.32 9 9 0 013 .47c.67.25.87.55.85.65-.02.1-.28.49-1.17.74a9.68 9.68 0 01-2.57.31 8.8 8.8 0 01-3-.46c-.63-.24-.85-.52-.84-.63-.03-.17.28-.56 1.22-.8zm-4.3 5.05a9.46 9.46 0 012.55-.32 8.85 8.85 0 013 .47c.67.25.86.55.84.64-.02.09-.28.5-1.17.75a10 10 0 01-2.56.31 8.86 8.86 0 01-3-.46c-.63-.24-.84-.53-.83-.63-.04-.18.28-.56 1.17-.8zm-8.23-2.89c0-.12.29-.49 1.18-.73a10.08 10.08 0 015.6.14c.66.25.86.55.84.64-.02.09-.27.5-1.17.74a9.13 9.13 0 01-2.56.33 9 9 0 01-3-.47c-.64-.24-.85-.52-.85-.63zm-5 2.6l4.43-.62v1.37c0 .56.51.92 1.23 1.19a9.22 9.22 0 003.26.52 10.54 10.54 0 002.58-.31v2.21c0 .55.49.91 1.21 1.19a9.6 9.6 0 003.27.51 10.26 10.26 0 002.73-.34c.94-.29 1.55-.66 1.59-1.31v-3.35a10.31 10.31 0 002.55-.3v2.2c0 .56.51.91 1.22 1.19a9.26 9.26 0 003.26.51 10.21 10.21 0 002.73-.34c.94-.29 1.56-.66 1.6-1.31v-1.54l5 2.71-23.08 3.18zm37.23 22.31c-.09.06-23.37 3.28-23.37 3.28v-17.59l23.37-3.29s-.05 17.45-.04 17.56z" fill="#f3aa00"/><path d="M101.308 26.242c0-.56-.5-.91-1.22-1.2a9.51 9.51 0 00-3.26-.5 10.13 10.13 0 00-2.72.34c-.94.28-1.55.66-1.6 1.3v1.38l-5.42.76h-.1v18.31a.27.27 0 000 .13v.05c0 .05 0 0 0 0l3.83 2.1 10.7 5.81a.38.38 0 00.13 0l24-3.36a.34.34 0 00.11-.05.14.14 0 000-.06v-18.19a.25.25 0 000-.12v-.06l-6-3.3v-1.12c0-.56-.5-.91-1.22-1.2a9.55 9.55 0 00-3.26-.5h-.73l-1.85-1v-.94c0-.56-.5-.92-1.22-1.2a9.3 9.3 0 00-3.26-.51 10.15 10.15 0 00-2.73.34c-.93.29-1.55.65-1.59 1.3v1.19l-2.55.36" fill="#ffdc5a"/><path d="M125.908 33.152a.25.25 0 000-.12v-.06l-6-3.3v-1.21c0-.56-.5-.91-1.22-1.2a9.55 9.55 0 00-3.26-.5h-.73l-1.85-1v.7l.84.46c-.3.05-.58.1-.84.17v-2.23c0-.56-.5-.92-1.22-1.2a9.3 9.3 0 00-3.26-.51 10.15 10.15 0 00-2.73.34c-.93.29-1.55.65-1.59 1.3v1.19l-2.55.36v.6l2.54-.36v1.53a9.85 9.85 0 00-2.69.34h.14v-2.23c0-.56-.5-.91-1.22-1.2a9.51 9.51 0 00-3.26-.5 10.13 10.13 0 00-2.72.34c-.94.28-1.55.66-1.6 1.3v1.38l-5.42.76h-.1v18.31a.27.27 0 000 .13v.05c0 .05 0 0 0 0l3.83 2.1 10.7 5.81a.38.38 0 00.13 0l24-3.36a.34.34 0 00.11-.05.14.14 0 000-.06v-18.19zm-10.67-5.8a9 9 0 013 .46c.67.25.87.55.84.65-.03.1-.27.49-1.16.74a9.15 9.15 0 01-2.56.32 8.81 8.81 0 01-3-.47c-.63-.23-.84-.51-.84-.62 0-.12.28-.5 1.17-.74a9.53 9.53 0 012.55-.34zm-9.61-3.32a9.53 9.53 0 012.56-.32 9 9 0 013 .47c.67.25.87.55.85.65-.02.1-.28.49-1.17.74a9.68 9.68 0 01-2.57.31 8.8 8.8 0 01-3-.46c-.63-.24-.85-.52-.84-.63-.03-.14.28-.52 1.22-.76zm-4.3 5.05a9.46 9.46 0 012.55-.32 9.09 9.09 0 013 .47c.67.25.86.55.84.64-.02.09-.28.5-1.17.75a10 10 0 01-2.56.31 8.86 8.86 0 01-3-.46c-.63-.24-.84-.53-.83-.63-.04-.14.28-.52 1.17-.76zm-8.23-2.89c0-.12.29-.49 1.18-.74a9.46 9.46 0 012.55-.32 9.05 9.05 0 013 .47c.66.25.86.55.84.64-.02.09-.27.5-1.17.74a9.13 9.13 0 01-2.56.33 9 9 0 01-3-.47c-.64-.24-.85-.52-.85-.63zm-5 2.61l4.43-.63v1.36c0 .56.51.92 1.23 1.19a9.22 9.22 0 003.26.52 10.54 10.54 0 002.58-.31v2.2c0 .55.49.91 1.21 1.19a9.6 9.6 0 003.27.51 10.26 10.26 0 002.73-.34c.94-.29 1.55-.66 1.59-1.3v-3.36a10.31 10.31 0 002.55-.3v2.2c0 .56.51.91 1.22 1.19a9.5 9.5 0 003.26.51 10.21 10.21 0 002.73-.34c.94-.29 1.56-.66 1.6-1.31v-1.55l5 2.72-23 3.23zm37.23 22.3c-.09.06-23.37 3.28-23.37 3.28v-17.59l23.37-3.29s-.05 17.49-.04 17.6z" fill="#f3aa00"/><path d="M77.338 102.702c0-.56-.5-.92-1.23-1.2a9.46 9.46 0 00-3.26-.51 9.74 9.74 0 00-2.72.35c-.93.28-1.54.65-1.59 1.29v1.38l-5.41.77a.23.23 0 00-.11 0v18.31a.59.59 0 000 .13l3.83 2.09 10.69 5.81h.12l24-3.37h.11v-18.25a.2.2 0 000-.11l-6-3.29v-1.14c0-.55-.5-.91-1.22-1.19a9.3 9.3 0 00-3.26-.51h-.72l-1.85-1v-.93c0-.56-.5-.92-1.22-1.2a9.74 9.74 0 00-3.26-.51 10.08 10.08 0 00-2.72.34c-.93.29-1.56.66-1.6 1.3v1.2l-2.54.36" fill="#ffdc5a"/><path d="M101.938 109.612a.2.2 0 000-.11l-6-3.29v-1.14c0-.55-.5-.91-1.22-1.19a9.3 9.3 0 00-3.26-.51h-.72l-1.85-1v.67l.84.46a6.93 6.93 0 00-.84.17v-2.23c0-.56-.5-.92-1.22-1.2a9.74 9.74 0 00-3.26-.51 10.08 10.08 0 00-2.72.34c-.93.29-1.56.66-1.6 1.3v1.09l-2.54.36v.6l2.55-.35v1.52a9.85 9.85 0 00-2.69.34h.14v-2.24c0-.56-.5-.92-1.23-1.2a9.46 9.46 0 00-3.26-.51 9.74 9.74 0 00-2.72.35c-.93.28-1.54.65-1.59 1.29v1.38l-5.41.77a.23.23 0 00-.11 0v18.31a.59.59 0 000 .13l3.83 2.09 10.69 5.81h.12l24-3.37h.11v-18.25zm-10.68-5.8a9.33 9.33 0 013.05.46c.66.26.86.56.84.65-.02.09-.27.5-1.16.75a9.66 9.66 0 01-2.57.32 9.09 9.09 0 01-3-.47c-.63-.24-.84-.52-.84-.62 0-.12.28-.49 1.18-.74a9.51 9.51 0 012.5-.35zm-9.58-3.35a10 10 0 012.56-.32 9.09 9.09 0 013 .47c.66.25.87.55.84.65-.03.1-.28.49-1.17.74a9.64 9.64 0 01-2.56.32 8.85 8.85 0 01-3-.47c-.63-.23-.84-.52-.84-.63-.06-.1.25-.48 1.17-.76zm-4.3 5.05a10 10 0 012.56-.32 9 9 0 013 .47c.67.25.87.55.85.65-.02.1-.28.49-1.17.74a9.68 9.68 0 01-2.57.31 8.76 8.76 0 01-3-.46c-.63-.24-.85-.52-.84-.63-.06-.11.25-.48 1.14-.73zm-8.22-2.89c0-.11.28-.49 1.17-.73a9.11 9.11 0 012.55-.33 9 9 0 013 .47c.66.25.87.55.84.65-.03.1-.27.49-1.16.74a9.56 9.56 0 01-2.57.32 8.79 8.79 0 01-3-.47c-.64-.24-.84-.52-.84-.62zm-5 2.61l4.44-.63v1.37c0 .56.5.92 1.22 1.2a9.5 9.5 0 003.26.51 10.63 10.63 0 002.59-.31v2.21c0 .55.5.91 1.22 1.2a9.51 9.51 0 003.26.5 10.21 10.21 0 002.73-.34c.94-.29 1.55-.66 1.6-1.3v-3.36a10.73 10.73 0 002.55-.31v2.21c0 .56.51.92 1.22 1.19a9.27 9.27 0 003.27.52 10.2 10.2 0 002.73-.35c.93-.28 1.55-.65 1.59-1.31v-1.54l5 2.72-23 3.22zm37.23 22.3c-.08.06-23.37 3.28-23.37 3.28v-17.59l23.36-3.28s-.08 17.52-.07 17.62z" fill="#f3aa00"/><path d="M77.338 11.352c0-.55-.5-.91-1.23-1.2a10.82 10.82 0 00-6-.15c-.93.28-1.54.65-1.59 1.29v1.38l-5.41.76h-.11v18.32a.69.69 0 000 .13v.05l3.83 2.09 10.69 5.81h.12l24-3.37h.11v-18.25a.2.2 0 000-.11v-.06l-6-3.29v-1.14c0-.56-.5-.91-1.22-1.2a9.55 9.55 0 00-3.26-.5h-.72l-1.85-1v-.93c0-.56-.5-.92-1.22-1.2a9.26 9.26 0 00-3.26-.51 10.08 10.08 0 00-2.72.34c-.93.29-1.56.66-1.6 1.3v1.19l-2.54.36" fill="#ffdc5a"/><path d="M101.938 18.262a.2.2 0 000-.11v-.06l-6-3.29v-1.14c0-.56-.5-.91-1.22-1.2a9.55 9.55 0 00-3.26-.5h-.72l-1.85-1v.67l.84.45c-.29 0-.58.11-.84.18v-2.23c0-.56-.5-.92-1.22-1.2a9.26 9.26 0 00-3.26-.51 10.08 10.08 0 00-2.72.34c-.93.29-1.56.66-1.6 1.3v1.19l-2.54.36v.6l2.55-.35v1.52a10.25 10.25 0 00-2.69.35h.14v-2.24c0-.55-.5-.91-1.23-1.2a10.82 10.82 0 00-6-.15c-.93.28-1.54.65-1.59 1.29v1.38l-5.41.76h-.11v18.32a.69.69 0 000 .13v.05l3.83 2.09 10.69 5.81h.12l24-3.37h.11v-18.25zm-10.68-5.8a9.33 9.33 0 013.05.46c.66.25.86.56.84.65-.02.09-.27.49-1.16.74a9.27 9.27 0 01-2.57.32 9.11 9.11 0 01-3-.46c-.63-.24-.84-.52-.84-.63 0-.12.28-.5 1.18-.74a9.51 9.51 0 012.5-.34zm-9.61-3.32a9.59 9.59 0 012.56-.32 9.09 9.09 0 013 .47c.66.25.87.55.84.65-.03.1-.28.49-1.17.74a9.64 9.64 0 01-2.56.32 8.85 8.85 0 01-3-.47c-.63-.24-.84-.52-.84-.63-.03-.13.28-.51 1.2-.76zm-4.3 5.05a9.53 9.53 0 012.56-.32 9 9 0 013 .47c.67.25.87.55.85.65-.02.1-.28.49-1.17.74a10.11 10.11 0 01-2.57.31 8.76 8.76 0 01-3-.46c-.63-.24-.85-.52-.84-.63-.03-.14.28-.49 1.17-.76zm-8.22-2.89c0-.12.28-.49 1.17-.73a9.11 9.11 0 012.55-.33 9 9 0 013 .47c.66.25.87.55.84.64-.03.09-.27.5-1.16.75a9.56 9.56 0 01-2.57.32 9 9 0 01-3-.47c-.64-.24-.84-.52-.84-.62zm-5 2.6l4.44-.62v1.37c0 .56.5.92 1.22 1.19a9.25 9.25 0 003.26.52 10.63 10.63 0 002.59-.31v2.21c0 .55.5.91 1.22 1.2a9.75 9.75 0 003.26.5 10.21 10.21 0 002.73-.34c.94-.29 1.55-.66 1.6-1.3v-3.36a10.25 10.25 0 002.55-.3v2.2c0 .56.51.91 1.22 1.19a9.28 9.28 0 003.27.51 10.21 10.21 0 002.73-.34c.93-.29 1.55-.66 1.59-1.31v-1.54l5 2.71-23 3.23zm37.23 22.31c-.08.06-23.37 3.28-23.37 3.28v-17.59l23.36-3.29s-.05 17.49-.04 17.6z" fill="#f3aa00"/><path d="M53.378 106.082c0-.56-.5-.91-1.22-1.2a9.55 9.55 0 00-3.26-.5 9.82 9.82 0 00-2.73.34c-.93.28-1.54.65-1.59 1.3v1.44l-5.42.75h-.11a.11.11 0 000 .05v18.25a.28.28 0 000 .13l3.83 2.09 10.69 5.81a.28.28 0 00.13 0l24-3.37a.21.21 0 00.1 0 .64.64 0 000-.07v-18.23a.25.25 0 000-.12v-.05l-6.05-3.3v-1.13c0-.56-.49-.92-1.22-1.2a9.5 9.5 0 00-3.26-.51h-.72l-1.85-1v-.94c0-.56-.51-.91-1.22-1.19a9.57 9.57 0 00-3.26-.52 9.71 9.71 0 00-2.73.35c-.93.28-1.55.65-1.6 1.29v1.21l-2.54.36" fill="#ffdc5a"/><path d="M77.978 112.992a.25.25 0 000-.12v-.05l-6.05-3.3v-1.13c0-.56-.49-.92-1.22-1.2a9.5 9.5 0 00-3.26-.51h-.72l-1.85-1v.66l.83.46a7.34 7.34 0 00-.84.17v-2.23c0-.56-.51-.91-1.22-1.19a9.57 9.57 0 00-3.26-.52 9.71 9.71 0 00-2.73.35c-.93.28-1.55.65-1.6 1.29v1.21l-2.54.36v.6l2.54-.36v1.53a10.34 10.34 0 00-2.7.34h.14v-2.23c0-.56-.5-.91-1.22-1.2a9.55 9.55 0 00-3.26-.5 9.82 9.82 0 00-2.73.34c-.93.28-1.54.65-1.59 1.3v1.4l-5.42.75h-.11a.11.11 0 000 .05v18.25a.28.28 0 000 .13l3.83 2.09 10.69 5.81a.28.28 0 00.13 0l24-3.37a.21.21 0 00.1 0 .64.64 0 000-.07v-18.23zm-10.68-5.8a9 9 0 013.05.46c.66.25.87.55.84.65-.03.1-.27.49-1.16.74a9.61 9.61 0 01-2.57.32 9 9 0 01-3-.47c-.64-.24-.85-.52-.85-.62 0-.12.29-.49 1.18-.73a9.13 9.13 0 012.51-.35zm-9.6-3.32a9.48 9.48 0 012.56-.32 8.83 8.83 0 013 .47c.67.25.87.55.84.64-.03.09-.27.5-1.17.74a9.53 9.53 0 01-2.56.32 8.86 8.86 0 01-3-.46c-.63-.24-.84-.53-.83-.63-.04-.17.27-.52 1.14-.76zm-4.31 5.05a9.57 9.57 0 012.56-.33 9.09 9.09 0 013 .47c.66.25.86.55.84.65-.02.1-.28.49-1.17.74a9.56 9.56 0 01-2.57.32 8.83 8.83 0 01-3-.47c-.63-.24-.84-.52-.84-.63-.02-.13.29-.51 1.18-.75zm-8.22-2.9c0-.12.28-.5 1.17-.74a9.53 9.53 0 012.56-.32 9.26 9.26 0 013 .46c.67.25.87.56.85.65-.02.09-.28.49-1.17.74a9.15 9.15 0 01-2.56.32 8.81 8.81 0 01-3.05-.47c-.63-.23-.84-.51-.84-.62zm-5 2.61l4.44-.62v1.36c0 .56.51.91 1.23 1.19a9.4 9.4 0 003.25.51 10.11 10.11 0 002.59-.31v2.23c0 .56.5.91 1.21 1.2a9.54 9.54 0 003.26.51 9.76 9.76 0 002.73-.35c.94-.29 1.56-.65 1.6-1.3v-3.35a10.71 10.71 0 002.54-.31v2.24c0 .56.5.92 1.22 1.2a9.5 9.5 0 003.26.51 9.81 9.81 0 002.73-.35c.93-.28 1.55-.65 1.59-1.3v-1.92.37l5 2.72-23 3.23zm37.23 22.31c-.08.06-23.37 3.27-23.37 3.27v-17.59l23.37-3.28-.05 17.6z" fill="#f3aa00"/><path d="M53.378 14.722c0-.56-.5-.92-1.22-1.2a9.54 9.54 0 00-3.26-.51 9.81 9.81 0 00-2.73.35c-.93.28-1.54.65-1.59 1.29v1.38l-5.42.77h-.11v.11c0 .06 0 0 0 0v18.19a.28.28 0 000 .13v.05l3.83 2.09 10.69 5.81a.28.28 0 00.13 0l24-3.37a.21.21 0 00.1 0v-18.3a.23.23 0 000-.12.1.1 0 000-.05l-6.05-3.29v-1.14c0-.55-.49-.91-1.22-1.2a9.75 9.75 0 00-3.26-.5h-.72l-1.85-1v-.94c0-.56-.51-.91-1.22-1.2a9.83 9.83 0 00-3.26-.51 10.1 10.1 0 00-2.73.34c-.93.29-1.55.66-1.6 1.3v1.26l-2.54.35" fill="#ffdc5a"/><path d="M77.978 21.642a.23.23 0 000-.12.1.1 0 000-.05l-6.05-3.29v-1.14c0-.55-.49-.91-1.22-1.2a9.75 9.75 0 00-3.26-.5h-.72l-1.85-1v.66l.83.46a7.34 7.34 0 00-.84.17v-2.23c0-.56-.51-.91-1.22-1.2a9.83 9.83 0 00-3.26-.51 10.1 10.1 0 00-2.73.34c-.93.29-1.55.66-1.6 1.3v1.13l-2.54.35v.65l2.54-.36v1.54a9.93 9.93 0 00-2.7.34h.14v-2.24c0-.56-.5-.92-1.22-1.2a9.54 9.54 0 00-3.26-.51 9.81 9.81 0 00-2.73.35c-.93.28-1.54.65-1.59 1.29v1.38l-5.42.77h-.11v.11c0 .06 0 0 0 0v18.19a.28.28 0 000 .13v.05l3.83 2.09 10.69 5.81a.28.28 0 00.13 0l24-3.37a.21.21 0 00.1 0v-18.3zm-10.68-5.81a9 9 0 013.05.47c.66.25.87.55.84.64-.03.09-.27.5-1.16.75a9.61 9.61 0 01-2.57.32 9 9 0 01-3-.47c-.64-.24-.85-.52-.85-.63 0-.12.29-.49 1.18-.74a9.51 9.51 0 012.51-.34zm-9.6-3.31a9.46 9.46 0 012.56-.33 9.07 9.07 0 013 .47c.67.25.87.56.84.65-.03.09-.27.49-1.17.74a9.53 9.53 0 01-2.56.32 8.85 8.85 0 01-3-.47c-.63-.23-.84-.52-.83-.63-.04-.13.27-.51 1.14-.75zm-4.31 5a9.59 9.59 0 012.56-.32 9.09 9.09 0 013 .47c.66.25.86.55.84.65-.02.1-.28.49-1.17.74a9.58 9.58 0 01-2.57.31 8.84 8.84 0 01-3-.46c-.63-.24-.84-.52-.84-.63-.02-.09.29-.47 1.18-.72zm-8.22-2.89c0-.12.28-.5 1.17-.74a9.53 9.53 0 012.56-.32 9 9 0 013 .46c.67.25.87.55.85.65-.02.1-.28.49-1.17.74a9.15 9.15 0 01-2.56.32 9.05 9.05 0 01-3.05-.47c-.63-.24-.84-.51-.84-.62zm-5 2.61l4.44-.62v1.36c0 .55.51.91 1.23 1.19a9.4 9.4 0 003.25.51 10.57 10.57 0 002.59-.31v2.23c0 .56.5.91 1.21 1.2a9.55 9.55 0 003.26.5 10.17 10.17 0 002.73-.33c.94-.29 1.56-.66 1.6-1.31v-3.36a10.23 10.23 0 002.54-.3v2.24c0 .56.5.92 1.22 1.19a9.25 9.25 0 003.26.52 10.2 10.2 0 002.73-.35c.93-.28 1.55-.65 1.59-1.31v-1.91.37l5 2.72-23 3.23zm37.23 22.31c-.08.05-23.37 3.27-23.37 3.27v-17.59l23.37-3.28-.05 17.64z" fill="#f3aa00"/><path d="M29.408 91.162c0-.56-.49-.92-1.22-1.2a9.5 9.5 0 00-3.26-.51 9.74 9.74 0 00-2.72.35c-.94.28-1.55.65-1.59 1.29v1.37l-5.42.76h-.1v18.26a.59.59 0 000 .13l3.82 2.09 10.69 5.81h.13l24-3.37h.11a.11.11 0 000-.06v-18.19a.2.2 0 000-.11.21.21 0 000-.06l-6-3.29v-1.14c0-.55-.5-.91-1.22-1.2a9.8 9.8 0 00-3.26-.5h-.73l-1.85-1v-.94c0-.56-.5-.91-1.22-1.2a9.79 9.79 0 00-3.26-.51 10.15 10.15 0 00-2.73.34c-.93.29-1.55.66-1.59 1.3v1.19l-2.55.36" fill="#ffdc5a"/><path d="M54.018 98.072a.2.2 0 000-.11.21.21 0 000-.06l-6-3.29v-1.14c0-.55-.5-.91-1.22-1.2a9.8 9.8 0 00-3.26-.5h-.73l-1.85-1v.67l.84.45q-.45.07-.84.18v-2.24c0-.56-.5-.91-1.22-1.2a9.79 9.79 0 00-3.26-.51 10.15 10.15 0 00-2.73.34c-.93.29-1.55.66-1.59 1.3v1.19l-2.55.36v.6l2.54-.36v1.55a9.8 9.8 0 00-2.69.34h.14v-2.28c0-.56-.49-.92-1.22-1.2a9.5 9.5 0 00-3.26-.51 9.74 9.74 0 00-2.72.35c-.94.28-1.55.65-1.59 1.29v1.37l-5.42.76h-.1v18.26a.59.59 0 000 .13l3.82 2.09 10.69 5.81h.13l24-3.37h.11a.11.11 0 000-.06v-18.19zm-10.68-5.8a9 9 0 013 .47c.67.24.87.55.85.64-.02.09-.28.49-1.17.75a9.53 9.53 0 01-2.56.32 9.05 9.05 0 01-3-.47c-.64-.24-.84-.52-.84-.63 0-.12.28-.5 1.17-.74a9.53 9.53 0 012.55-.34zm-9.61-3.32a10 10 0 012.56-.32 9 9 0 013 .47c.67.25.87.55.85.65-.02.1-.28.49-1.17.74a9.61 9.61 0 01-2.57.32 9.31 9.31 0 01-3-.46c-.63-.24-.85-.53-.84-.63-.03-.14.28-.52 1.17-.77zm-4.31 5a9.64 9.64 0 012.56-.32 9.09 9.09 0 013 .47c.67.25.87.55.84.65-.03.1-.27.49-1.17.74a9.55 9.55 0 01-2.56.31 8.86 8.86 0 01-3-.46c-.63-.24-.84-.52-.83-.63-.03-.08.27-.47 1.16-.71zm-8.22-2.89c0-.12.29-.49 1.18-.73a9.13 9.13 0 012.55-.32 9 9 0 013 .46c.67.25.87.55.85.65-.02.1-.27.49-1.16.74a9.66 9.66 0 01-2.57.32 9.09 9.09 0 01-3.05-.47c-.63-.24-.84-.52-.84-.62zm-5 2.61l4.43-.63v1.42c0 .56.51.92 1.23 1.2a9.46 9.46 0 003.26.51 10.48 10.48 0 002.58-.31v2.21c0 .56.5.91 1.22 1.2a9.45 9.45 0 003.25.5 10.15 10.15 0 002.73-.34c.94-.29 1.56-.66 1.6-1.3v-3.41a10.25 10.25 0 002.55-.3v2.21c0 .56.5.91 1.22 1.19a9.25 9.25 0 003.26.52 10.33 10.33 0 002.74-.35c.93-.28 1.54-.65 1.59-1.31v-1.54l5 2.72-23 3.22zm37.23 22.3c-.08.06-23.38 3.28-23.38 3.28v-17.59l23.37-3.28s-.04 17.53-.03 17.64z" fill="#f3aa00"/><path d="M29.408 72.892c0-.56-.49-.92-1.22-1.2a9.5 9.5 0 00-3.26-.51 9.74 9.74 0 00-2.72.35c-.94.28-1.55.65-1.59 1.29v1.38l-5.42.76h-.1v18.26a.59.59 0 000 .14v.05c0 .05 0 0 0 0l3.82 2.09 10.69 5.81a.38.38 0 00.13 0l24-3.36h.11a.11.11 0 000-.06v-18.19a.21.21 0 000-.12v-.06l-6-3.29v-1.14c0-.56-.5-.92-1.22-1.21a9.55 9.55 0 00-3.26-.5h-.73l-1.85-1v-.92c0-.56-.5-.91-1.22-1.2a9.79 9.79 0 00-3.26-.51 10.15 10.15 0 00-2.73.34c-.93.29-1.55.66-1.59 1.3v1.19l-2.55.36" fill="#ffdc5a"/><path d="M54.018 79.812a.21.21 0 000-.12v-.06l-6-3.29v-1.14c0-.56-.5-.92-1.22-1.21a9.55 9.55 0 00-3.26-.5h-.73l-1.85-1v.67l.84.45q-.45.07-.84.18v-2.33c0-.56-.5-.91-1.22-1.2a9.79 9.79 0 00-3.26-.51 10.15 10.15 0 00-2.73.34c-.93.29-1.55.66-1.59 1.3v1.19l-2.55.36v.6l2.54-.36v1.55a9.8 9.8 0 00-2.69.34h.14v-2.24c0-.56-.49-.92-1.22-1.2a9.5 9.5 0 00-3.26-.51 9.74 9.74 0 00-2.72.35c-.94.28-1.55.65-1.59 1.29v1.38l-5.42.76h-.1v18.26a.59.59 0 000 .14v.05c0 .05 0 0 0 0l3.82 2.09 10.69 5.81h.13l24-3.36h.11a.11.11 0 000-.06v-18.19zm-10.68-5.81a9 9 0 013 .47c.67.24.87.55.85.65-.02.1-.28.48-1.17.74a9.53 9.53 0 01-2.56.32 9.05 9.05 0 01-3-.47c-.64-.24-.84-.52-.84-.63 0-.12.28-.49 1.17-.74a9.53 9.53 0 012.55-.34zm-9.61-3.32a10 10 0 012.56-.32 9 9 0 013 .47c.67.25.87.56.85.65-.02.09-.28.49-1.17.74a9.61 9.61 0 01-2.57.32 8.79 8.79 0 01-3-.47c-.63-.24-.85-.52-.84-.63-.03-.13.28-.51 1.17-.76zm-4.31 5a9.64 9.64 0 012.56-.32 9.09 9.09 0 013 .47c.67.25.87.55.84.65-.03.1-.27.49-1.17.74a9.55 9.55 0 01-2.56.31 8.86 8.86 0 01-3-.46c-.63-.24-.84-.52-.83-.63-.03-.08.27-.47 1.16-.71zm-8.22-2.89c0-.11.29-.49 1.18-.74a9.53 9.53 0 012.55-.31 9 9 0 013 .46c.67.25.87.55.85.65-.02.1-.27.49-1.16.74a9.66 9.66 0 01-2.57.32 9.09 9.09 0 01-3.05-.47c-.63-.24-.84-.52-.84-.62zm-5 2.61l4.43-.63v1.37c0 .56.51.92 1.23 1.2a9.46 9.46 0 003.26.51 10.48 10.48 0 002.58-.31v2.21c0 .56.5.91 1.22 1.2a9.45 9.45 0 003.25.5 9.77 9.77 0 002.73-.34c.94-.29 1.56-.66 1.6-1.3v-3.41a10.25 10.25 0 002.55-.3v2.2c0 .56.5.91 1.22 1.19a9.26 9.26 0 003.26.51 10.33 10.33 0 002.74-.34c.93-.28 1.54-.65 1.59-1.31v-1.54l5 2.72-23 3.22zm37.23 22.3c-.08.06-23.38 3.28-23.38 3.28v-17.59l23.37-3.28s-.04 17.53-.03 17.64z" fill="#f3aa00"/><path d="M29.408 54.622c0-.56-.49-.92-1.22-1.2a9.5 9.5 0 00-3.26-.51 9.74 9.74 0 00-2.72.35c-.94.28-1.55.65-1.59 1.29v1.38l-5.42.76h-.1v18.27a.69.69 0 000 .13l3.82 2.09 10.69 5.81h.13l24-3.37h.11a.11.11 0 000-.06v-18.24a.2.2 0 000-.11v-.06l-6-3.29v-1.14c0-.56-.5-.91-1.22-1.2a9.8 9.8 0 00-3.26-.5h-.73l-1.85-1v-.94c0-.56-.5-.91-1.22-1.2a9.54 9.54 0 00-3.26-.51 10.15 10.15 0 00-2.73.34c-.93.29-1.55.66-1.59 1.3v1.19l-2.55.36" fill="#ffdc5a"/><path d="M54.018 61.532a.2.2 0 000-.11v-.06l-6-3.29v-1.14c0-.56-.5-.91-1.22-1.2a9.8 9.8 0 00-3.26-.5h-.73l-1.85-1v.67l.84.45q-.45.08-.84.18v-2.24c0-.56-.5-.91-1.22-1.2a9.54 9.54 0 00-3.26-.51 10.15 10.15 0 00-2.73.34c-.93.29-1.55.66-1.59 1.3v1.19l-2.55.36v.6l2.54-.36v1.45a9.8 9.8 0 00-2.69.34h.14v-2.24c0-.56-.49-.92-1.22-1.2a9.5 9.5 0 00-3.26-.51 9.74 9.74 0 00-2.72.35c-.94.28-1.55.65-1.59 1.29v1.38l-5.42.76h-.1v18.27a.69.69 0 000 .13l3.82 2.09 10.69 5.81h.13l24-3.37h.11a.11.11 0 000-.06v-18.24zm-10.68-5.8a9 9 0 013 .47c.67.24.87.55.85.64-.02.09-.28.5-1.17.74a10.37 10.37 0 01-5.61-.14c-.64-.24-.84-.52-.84-.63 0-.12.28-.49 1.17-.74a9.53 9.53 0 012.6-.34zm-9.61-3.32a10 10 0 012.56-.32 9 9 0 013 .47c.67.25.87.55.85.65-.02.1-.28.49-1.17.74a9.61 9.61 0 01-2.57.32 9 9 0 01-3-.47c-.63-.23-.85-.52-.84-.63-.03-.13.28-.51 1.17-.71zm-4.31 5.05a9.64 9.64 0 012.56-.32 9.09 9.09 0 013 .47c.67.25.87.55.84.65-.03.1-.27.49-1.17.74a10 10 0 01-2.56.31 8.86 8.86 0 01-3-.46c-.63-.24-.84-.52-.83-.63-.03-.14.27-.52 1.16-.76zm-8.22-2.89c0-.12.29-.49 1.18-.73a9.11 9.11 0 012.55-.33 9 9 0 013 .47c.67.25.87.55.85.65-.02.1-.27.49-1.16.74a9.66 9.66 0 01-2.57.32 9.09 9.09 0 01-3.05-.47c-.63-.24-.84-.52-.84-.62zm-5 2.61l4.43-.63v1.37c0 .56.51.92 1.23 1.2a9.46 9.46 0 003.26.51 10.48 10.48 0 002.58-.31v2.21c0 .55.5.91 1.22 1.2a9.69 9.69 0 003.25.5 10.15 10.15 0 002.73-.34c.94-.29 1.56-.66 1.6-1.3v-3.36a10.25 10.25 0 002.55-.3v2.2c0 .56.5.92 1.22 1.19a9.26 9.26 0 003.26.51 10.33 10.33 0 002.74-.34c.93-.28 1.54-.65 1.59-1.31v-1.52l5 2.71-23 3.23zm37.23 22.3c-.08.06-23.38 3.28-23.38 3.28v-17.59l23.37-3.28s-.04 17.48-.03 17.57z" fill="#f3aa00"/><path d="M29.408 36.352c0-.56-.49-.92-1.22-1.2a9.5 9.5 0 00-3.26-.51 9.74 9.74 0 00-2.72.35c-.94.27-1.55.65-1.59 1.29v1.38l-5.42.76h-.1v18.32a.5.5 0 000 .12v.05l3.82 2.09 10.69 5.81a.38.38 0 00.13 0l24-3.36h.11a.11.11 0 000-.06v-18.19a.27.27 0 000-.12v-.06l-6-3.29v-1.14c0-.55-.5-.91-1.22-1.2a9.55 9.55 0 00-3.26-.5h-.73l-1.85-1v-.94c0-.56-.5-.92-1.22-1.2a9.79 9.79 0 00-3.26-.51 10.15 10.15 0 00-2.73.34c-.93.29-1.55.66-1.59 1.3v1.19l-2.55.36" fill="#ffdc5a"/><path d="M54.018 43.262a.27.27 0 000-.12v-.06l-6-3.29v-1.14c0-.55-.5-.91-1.22-1.2a9.55 9.55 0 00-3.26-.5h-.73l-1.85-1v.67l.84.45q-.45.07-.84.18v-2.24c0-.56-.5-.92-1.22-1.2a9.79 9.79 0 00-3.26-.51 10.15 10.15 0 00-2.73.34c-.93.29-1.55.66-1.59 1.3v1.19l-2.55.36v.6l2.54-.36v1.55a9.8 9.8 0 00-2.69.34h.14v-2.24c0-.56-.49-.92-1.22-1.2a9.5 9.5 0 00-3.26-.51 9.74 9.74 0 00-2.72.35c-.94.27-1.55.65-1.59 1.29v1.38l-5.42.76h-.1v18.32a.5.5 0 000 .12v.05l3.82 2.09 10.69 5.81h.13l24-3.36h.11a.11.11 0 000-.06v-18.19zm-10.68-5.8a9 9 0 013 .47c.67.24.87.55.85.64-.02.09-.28.49-1.17.75a9.53 9.53 0 01-2.56.32 9.05 9.05 0 01-3-.47c-.64-.24-.84-.52-.84-.63 0-.12.28-.49 1.17-.74a9.53 9.53 0 012.55-.34zm-9.61-3.32a10 10 0 012.56-.32 9 9 0 013 .47c.67.25.87.55.85.65-.02.1-.28.49-1.17.74a9.61 9.61 0 01-2.57.32 8.79 8.79 0 01-3-.47c-.63-.24-.85-.52-.84-.63-.03-.13.28-.51 1.17-.76zm-4.31 5.05a9.64 9.64 0 012.56-.32 9.09 9.09 0 013 .47c.67.25.87.55.84.64-.03.09-.27.5-1.17.75a9.55 9.55 0 01-2.56.31 8.86 8.86 0 01-3-.46c-.63-.24-.84-.52-.83-.63-.03-.14.27-.49 1.16-.76zm-8.22-2.89c0-.12.29-.49 1.18-.73a9.13 9.13 0 012.55-.32 9 9 0 013 .46c.67.25.87.55.85.65-.02.1-.27.49-1.16.74a9.66 9.66 0 01-2.57.32 9.09 9.09 0 01-3.05-.47c-.63-.24-.84-.52-.84-.62zm-5 2.61l4.43-.63v1.37c0 .56.51.92 1.23 1.2a9.46 9.46 0 003.26.51 10.48 10.48 0 002.58-.31v2.21c0 .56.5.91 1.22 1.2a9.45 9.45 0 003.25.5 10.15 10.15 0 002.73-.34c.94-.29 1.56-.66 1.6-1.3v-3.36a10.25 10.25 0 002.55-.3v2.2c0 .56.5.91 1.22 1.19a9.26 9.26 0 003.26.51 10.33 10.33 0 002.74-.34c.93-.29 1.54-.65 1.59-1.31v-1.54l5 2.71-23 3.23zm37.23 22.3c-.08.06-23.38 3.28-23.38 3.28v-17.59l23.37-3.29s-.04 17.49-.03 17.6z" fill="#f3aa00"/></svg>