<svg xmlns="http://www.w3.org/2000/svg" viewBox="0 0 126.022 141.457"><path d="M86.298 58.061c0-.55-.5-.91-1.22-1.19a9.56 9.56 0 00-3.27-.51 9.74 9.74 0 00-2.72.34c-.94.28-1.55.66-1.6 1.3v1.38l-5.42.77a.23.23 0 00-.11 0v18.32a.28.28 0 000 .13l3.77 2.37 10.7 5.81a.33.33 0 00.13 0l24-3.37a.25.25 0 00.11 0 .11.11 0 000-.06v-18.2a.24.24 0 000-.12v-.05l-6-3.29v-1.14c0-.56-.5-.91-1.22-1.2a9.55 9.55 0 00-3.26-.5h-.73l-1.85-1v-.94c0-.56-.51-.92-1.22-1.2a9.59 9.59 0 00-3.27-.52 10.14 10.14 0 00-2.73.35c-.93.28-1.55.65-1.59 1.3v1.19l-2.55.36" fill="#33abe1"/><path d="M110.928 64.971a.24.24 0 000-.12v-.05l-6-3.29v-1.14c0-.56-.5-.91-1.22-1.2a9.55 9.55 0 00-3.26-.5h-.73l-1.85-1v.67l.83.45a7.34 7.34 0 00-.84.18v-2.24c0-.56-.51-.92-1.22-1.2a9.59 9.59 0 00-3.27-.52 10.14 10.14 0 00-2.73.35c-.93.28-1.55.65-1.59 1.3v1.19l-2.55.36v.6l2.54-.36v1.52a9.93 9.93 0 00-2.7.34h.15v-2.24c0-.55-.5-.91-1.22-1.19a9.56 9.56 0 00-3.27-.51 9.74 9.74 0 00-2.72.34c-.94.28-1.55.66-1.6 1.3v1.38l-5.42.77a.23.23 0 00-.11 0v18.32a.28.28 0 000 .13l3.58 2.36 10.7 5.81a.33.33 0 00.13 0l24-3.37a.25.25 0 00.11 0 .19.19 0 000-.07v-18.2zm-10.69-5.81a9.09 9.09 0 013 .47c.66.25.87.55.84.64-.03.09-.27.5-1.16.74a9.26 9.26 0 01-2.57.33 9.05 9.05 0 01-3.05-.47c-.64-.24-.84-.52-.84-.63 0-.12.28-.49 1.17-.74a9.53 9.53 0 012.61-.33zm-9.62-3.32a9.59 9.59 0 012.56-.32 9.09 9.09 0 013 .47c.67.25.87.55.84.65-.03.1-.28.49-1.17.74a9.53 9.53 0 01-2.56.32 9.09 9.09 0 01-3-.47c-.63-.24-.85-.52-.84-.63-.03-.13.28-.51 1.17-.75zm-4.31 5a9.59 9.59 0 012.56-.32 9.09 9.09 0 013 .47c.67.25.87.55.85.65-.02.1-.28.49-1.18.74a9.53 9.53 0 01-2.56.32 8.85 8.85 0 01-3-.47c-.63-.23-.84-.52-.84-.63-.03-.08.28-.45 1.17-.7zm-8.23-2.89c0-.12.29-.49 1.18-.73a9.11 9.11 0 012.55-.33 9 9 0 013.05.47c.67.25.87.55.84.64-.03.09-.27.5-1.16.75a9.56 9.56 0 01-2.57.32 9.09 9.09 0 01-3-.47c-.63-.24-.84-.52-.84-.63zm-5 2.61l4.44-.63v1.37c0 .55.51.91 1.23 1.19a9.5 9.5 0 003.26.51 10.11 10.11 0 002.59-.31v2.28c0 .56.49.92 1.21 1.2a9.6 9.6 0 003.27.51 10.21 10.21 0 002.73-.34c.94-.29 1.56-.66 1.6-1.31v-3.36a10.22 10.22 0 002.54-.31v2.24c0 .56.5.92 1.22 1.2a9.5 9.5 0 003.26.51 9.88 9.88 0 002.74-.35c.93-.28 1.55-.65 1.59-1.3v-1.55l5 2.72-23 3.23zm37.22 22.41c-.09 0-23.4 3.27-23.4 3.27v-17.6l23.39-3.29s0 17.48.01 17.62z" fill="#237dba"/><path d="M86.298 39.771c0-.56-.5-.92-1.22-1.2a9.56 9.56 0 00-3.27-.51 9.74 9.74 0 00-2.72.35c-.94.28-1.55.65-1.6 1.29v1.38l-5.42.77a.45.45 0 00-.11 0v18.27a.28.28 0 000 .13l3.83 2.09 10.7 5.82a.33.33 0 00.13 0l24-3.36a.27.27 0 00.11 0 .14.14 0 000-.07v-18.25a.27.27 0 000-.12v-.06l-6-3.3v-1.03c0-.55-.5-.91-1.22-1.19a9.54 9.54 0 00-3.26-.51h-.73l-1.85-1v-.94c0-.56-.51-.91-1.22-1.2a9.6 9.6 0 00-3.27-.51 10.15 10.15 0 00-2.73.34c-.93.29-1.55.66-1.59 1.3v1.2l-2.55.35" fill="#33abe1"/><path d="M110.928 46.691a.27.27 0 000-.12v-.06l-6-3.3v-1.24c0-.55-.5-.91-1.22-1.19a9.54 9.54 0 00-3.26-.51h-.73l-1.85-1v.7l.83.45q-.43.07-.84.18v-2.24c0-.56-.51-.91-1.22-1.2a9.6 9.6 0 00-3.27-.51 10.15 10.15 0 00-2.73.34c-.93.29-1.55.66-1.59 1.3v1.2l-2.55.35v.61l2.54-.36v1.54a10.34 10.34 0 00-2.7.34h.15v-2.2c0-.56-.5-.92-1.22-1.2a9.56 9.56 0 00-3.27-.51 9.74 9.74 0 00-2.72.35c-.94.28-1.55.65-1.6 1.29v1.38l-5.42.77a.45.45 0 00-.11 0v18.27a.28.28 0 000 .13l3.83 2.09 10.7 5.82a.33.33 0 00.13 0l24-3.36a.27.27 0 00.11 0 .14.14 0 000-.07v-18.25zm-10.69-5.8a9.11 9.11 0 013 .46c.66.25.87.55.84.64-.03.09-.27.5-1.16.75a9.66 9.66 0 01-2.57.32 9.05 9.05 0 01-3.05-.47c-.64-.24-.84-.52-.84-.62 0-.12.28-.49 1.17-.73a9.15 9.15 0 012.61-.35zm-9.62-3.33a10 10 0 012.56-.32 9.09 9.09 0 013 .47c.67.25.87.55.84.65-.03.1-.28.49-1.17.74a9.53 9.53 0 01-2.56.32 8.85 8.85 0 01-3-.47c-.63-.23-.85-.52-.84-.63-.03-.13.28-.51 1.17-.76zm-4.31 5.05a10 10 0 012.56-.32 9.09 9.09 0 013 .47c.67.25.87.56.85.65-.02.09-.28.49-1.18.74a9.53 9.53 0 01-2.56.32 8.86 8.86 0 01-3-.46c-.63-.24-.84-.53-.84-.63-.03-.14.28-.52 1.17-.77zm-8.23-2.89c0-.12.29-.5 1.18-.74a9.13 9.13 0 012.55-.32 9 9 0 013.05.46c.67.25.87.55.84.65-.03.1-.27.49-1.16.74a9.56 9.56 0 01-2.57.32 8.85 8.85 0 01-3-.47c-.63-.23-.84-.51-.84-.62zm-5 2.61l4.44-.62v1.36c0 .56.51.91 1.23 1.19a9.25 9.25 0 003.26.52 10.57 10.57 0 002.59-.31v2.21c0 .55.49.91 1.21 1.19a9.36 9.36 0 003.27.51 10.21 10.21 0 002.73-.34c.94-.29 1.56-.66 1.6-1.3v-3.36a10.23 10.23 0 002.54-.3v2.23c0 .55.5.91 1.22 1.19a9.26 9.26 0 003.26.51 10.28 10.28 0 002.74-.34c.93-.29 1.55-.66 1.59-1.31v-1.55l5 2.72-23 3.23zm37.27 22.33c-.09 0-23.4 3.28-23.4 3.28v-17.61l23.39-3.29s-.05 17.51-.04 17.62z" fill="#237dba"/><path d="M86.298 21.491c0-.56-.5-.92-1.22-1.2a9.57 9.57 0 00-3.27-.5 9.74 9.74 0 00-2.72.34c-.94.28-1.55.65-1.6 1.29v1.39l-5.42.76a.25.25 0 00-.11 0v18.33a.28.28 0 000 .13l3.83 2.09 10.7 5.82h.13l24-3.37h.11v-.05a.14.14 0 000-.06v-18.21a.21.21 0 000-.12l-6-3.29v-1.14c0-.56-.5-.92-1.22-1.2a9.54 9.54 0 00-3.26-.51h-.73l-1.85-1v-.94c0-.55-.51-.91-1.22-1.2a9.85 9.85 0 00-3.27-.51 10.15 10.15 0 00-2.73.34c-.93.29-1.55.66-1.59 1.3v1.21l-2.55.36" fill="#33abe1"/><path d="M110.928 28.411a.21.21 0 000-.12l-6-3.29v-1.14c0-.56-.5-.92-1.22-1.2a9.54 9.54 0 00-3.26-.51h-.73l-1.85-1v.66l.83.46a7.34 7.34 0 00-.84.17v-2.23c0-.55-.51-.91-1.22-1.2a9.85 9.85 0 00-3.27-.51 10.15 10.15 0 00-2.73.34c-.93.29-1.55.66-1.59 1.3v1.21l-2.55.36v.6l2.54-.36v1.53a10.32 10.32 0 00-2.7.35h.15v-2.23c0-.56-.5-.92-1.22-1.2a9.57 9.57 0 00-3.27-.5 9.74 9.74 0 00-2.72.34c-.94.28-1.55.65-1.6 1.29v1.39l-5.42.76a.25.25 0 00-.11 0v18.33a.28.28 0 000 .13l3.83 2.09 10.7 5.82h.13l24-3.37h.11v-.05a.14.14 0 000-.06v-18.21zm-10.69-5.81a9.11 9.11 0 013 .46c.66.25.87.55.84.65-.03.1-.27.49-1.16.74a9.27 9.27 0 01-2.57.32 8.81 8.81 0 01-3.05-.47c-.64-.23-.84-.51-.84-.62 0-.11.28-.49 1.17-.73a9.15 9.15 0 012.61-.35zm-9.62-3.32a9.57 9.57 0 012.56-.33 8.83 8.83 0 013 .48c.67.24.87.55.84.64-.03.09-.28.49-1.17.75a10 10 0 01-2.56.31 8.86 8.86 0 01-3-.46c-.63-.24-.85-.53-.84-.63-.03-.14.28-.52 1.17-.76zm-4.31 5.05a9.59 9.59 0 012.56-.32 8.85 8.85 0 013 .47c.67.24.87.55.85.65-.02.1-.28.49-1.18.74a10 10 0 01-2.56.31 8.86 8.86 0 01-3-.46c-.63-.24-.84-.53-.84-.63-.03-.12.28-.52 1.17-.76zm-8.23-2.9c0-.12.29-.5 1.18-.74a9.51 9.51 0 012.55-.32 9 9 0 013.05.46c.67.25.87.56.84.65-.03.09-.27.49-1.16.74a9.16 9.16 0 01-2.57.33 8.83 8.83 0 01-3-.48c-.63-.23-.84-.51-.84-.62zm-5 2.61l4.44-.62v1.36c0 .56.51.92 1.23 1.2a9.5 9.5 0 003.26.51 10.57 10.57 0 002.59-.31v2.21c0 .56.49.91 1.21 1.2a9.61 9.61 0 003.27.5 9.82 9.82 0 002.73-.34c.94-.29 1.56-.65 1.6-1.3v-3.41a10.23 10.23 0 002.54-.3v2.23c0 .56.5.91 1.22 1.19a9.25 9.25 0 003.26.52 10.27 10.27 0 002.74-.35c.93-.28 1.55-.65 1.59-1.31v-1.55l5 2.72-23 3.24zm37.27 22.33c-.09.06-23.4 3.28-23.4 3.28v-17.61l23.39-3.29s-.05 17.51-.04 17.62z" fill="#237dba"/><path d="M86.298 3.201c0-.56-.5-.91-1.22-1.2a11 11 0 00-6-.16c-.94.28-1.55.66-1.6 1.3v1.38l-5.42.76h-.11v18.28a.28.28 0 000 .13v.05l3.83 2.1 10.7 5.81a.31.31 0 00.13 0l24-3.37h.11a.14.14 0 000-.06V9.961a.21.21 0 000-.12v-.05l-6-3.29v-1.14c0-.56-.5-.91-1.22-1.2a9.55 9.55 0 00-3.26-.5h-.73l-1.85-1v-.94c0-.56-.51-.92-1.22-1.21a9.85 9.85 0 00-3.27-.51 10.14 10.14 0 00-2.73.35c-.93.28-1.55.65-1.59 1.29v1.33l-2.55.36" fill="#33abe1"/><path d="M110.928 10.121a.21.21 0 000-.12v-.05l-6-3.29v-1.14c0-.56-.5-.91-1.22-1.2a9.55 9.55 0 00-3.26-.5h-.73l-1.85-1v.67l.83.45a7.34 7.34 0 00-.84.18v-2.24c0-.56-.51-.92-1.22-1.21a9.85 9.85 0 00-3.27-.51 10.14 10.14 0 00-2.73.35c-.93.28-1.55.65-1.59 1.29v1.17l-2.55.36v.6l2.54-.36v1.55a9.93 9.93 0 00-2.7.34h.15v-2.24c0-.56-.5-.91-1.22-1.2a11 11 0 00-6-.16c-.94.28-1.55.66-1.6 1.3v1.38l-5.42.76h-.11v18.28a.28.28 0 000 .13v.05l3.83 2.1 10.7 5.81a.31.31 0 00.13 0l24-3.37h.11a.14.14 0 000-.06V9.981zm-10.69-5.81a9.09 9.09 0 013 .47c.66.25.87.55.84.64-.03.09-.27.5-1.16.74a9.26 9.26 0 01-2.57.33 9.05 9.05 0 01-3.05-.47c-.64-.24-.84-.52-.84-.63 0-.12.28-.49 1.17-.74a9.53 9.53 0 012.61-.34zm-9.62-3.32a9.59 9.59 0 012.56-.32 9.09 9.09 0 013 .47c.67.25.87.55.84.65-.03.1-.28.49-1.17.74a9.55 9.55 0 01-2.56.31 8.86 8.86 0 01-3-.46c-.63-.24-.85-.52-.84-.63-.03-.14.28-.52 1.17-.78zm-4.31 5.05a9.59 9.59 0 012.56-.32 9.09 9.09 0 013 .47c.67.25.87.55.85.65-.02.1-.28.49-1.18.74a9.55 9.55 0 01-2.56.31 8.86 8.86 0 01-3-.46c-.63-.24-.84-.52-.84-.63-.03-.14.28-.52 1.17-.76zm-8.23-2.89c0-.12.29-.49 1.18-.74a9.51 9.51 0 012.55-.32 9 9 0 013.05.47c.67.24.87.55.84.64-.03.09-.27.5-1.16.75a9.56 9.56 0 01-2.57.32 9.09 9.09 0 01-3-.47c-.63-.24-.84-.52-.84-.63zm-5 2.61l4.44-.63v1.37c0 .56.51.92 1.23 1.2a9.5 9.5 0 003.26.51 10.11 10.11 0 002.59-.31v2.21c0 .56.49.92 1.21 1.2a9.6 9.6 0 003.27.51 10.21 10.21 0 002.73-.34c.94-.29 1.56-.66 1.6-1.31v-3.41a10.23 10.23 0 002.54-.3v2.24c0 .56.5.92 1.22 1.2a9.5 9.5 0 003.26.51 10.27 10.27 0 002.74-.35c.93-.28 1.55-.65 1.59-1.3v-1.55l5 2.72-23 3.23zm37.27 22.32c-.09.06-23.4 3.28-23.4 3.28v-17.6l23.39-3.29s-.05 17.5-.04 17.61z" fill="#237dba"/><path d="M62.298 61.441c0-.56-.5-.91-1.22-1.2a9.54 9.54 0 00-3.26-.51 9.76 9.76 0 00-2.73.35c-.94.28-1.55.65-1.6 1.3v1.38l-5.42.76h-.11v.05a.14.14 0 000 .07v18.21a.27.27 0 000 .13l3.83 2.09 10.7 5.82h.13l24-3.37a.27.27 0 00.11 0 .14.14 0 000-.07v-18.21a.2.2 0 000-.11l-.05-.06-6.06-3.3v-1.14c0-.56-.5-.92-1.23-1.2a9.5 9.5 0 00-3.26-.51h-.73l-1.85-1v-.94c0-.56-.5-.91-1.22-1.2a10.74 10.74 0 00-6-.16c-.94.28-1.56.65-1.6 1.29v1.2l-2.55.36" fill="#33abe1"/><path d="M86.928 68.361a.2.2 0 000-.11l-.05-.06-6.06-3.3v-1.14c0-.56-.5-.92-1.23-1.2a9.5 9.5 0 00-3.26-.51h-.73l-1.85-1v.66l.84.46c-.3 0-.58.1-.84.17v-2.23c0-.56-.5-.91-1.22-1.2a10.74 10.74 0 00-6-.16c-.94.28-1.56.65-1.6 1.29v1.2l-2.55.36v.6l2.54-.36v1.55a10.19 10.19 0 00-2.69.35h.14v-2.24c0-.56-.5-.91-1.22-1.2a9.54 9.54 0 00-3.26-.51 9.76 9.76 0 00-2.73.35c-.94.28-1.55.65-1.6 1.3v1.38l-5.42.76h-.11v.05a.14.14 0 000 .07v18.21a.27.27 0 000 .13l3.83 2.09 10.7 5.82h.13l24-3.37a.27.27 0 00.11 0 .14.14 0 000-.07v-18.21zm-10.69-5.8a9.11 9.11 0 013 .46c.66.25.87.55.84.65-.03.1-.27.49-1.16.74a9.27 9.27 0 01-2.57.32 8.81 8.81 0 01-3.05-.47c-.64-.24-.84-.51-.84-.62 0-.11.28-.49 1.17-.73a9.15 9.15 0 012.61-.35zm-9.62-3.33a10 10 0 012.56-.32 9.09 9.09 0 013 .47c.67.25.87.56.85.65-.02.09-.28.5-1.17.74a9.66 9.66 0 01-2.57.32 8.86 8.86 0 01-3-.46c-.63-.24-.84-.53-.84-.64-.03-.13.28-.51 1.17-.76zm-4.31 5.06a9.66 9.66 0 012.57-.32 9.09 9.09 0 013 .46c.67.26.87.56.85.65-.02.09-.28.5-1.17.74a9.66 9.66 0 01-2.57.32 8.86 8.86 0 01-3-.46c-.63-.24-.84-.53-.84-.63-.04-.14.27-.52 1.16-.76zm-8.23-2.89c0-.12.29-.5 1.18-.74a9.53 9.53 0 012.56-.32 9.26 9.26 0 013 .46c.67.25.87.56.85.65-.02.09-.28.49-1.17.74a9.15 9.15 0 01-2.56.32 8.87 8.87 0 01-3.06-.47c-.63-.23-.84-.51-.84-.62zm-5 2.6l4.44-.62v1.36c0 .56.5.92 1.22 1.2a9.5 9.5 0 003.26.51 10.57 10.57 0 002.59-.31v2.21c0 .55.5.91 1.22 1.2a9.51 9.51 0 003.26.5 10.22 10.22 0 002.73-.33c.94-.3 1.56-.67 1.6-1.31v-3.36a10.23 10.23 0 002.54-.3v2.22c0 .56.5.92 1.22 1.19a9.26 9.26 0 003.26.51 10.23 10.23 0 002.74-.34c.93-.29 1.55-.66 1.59-1.31v-1.54l5 2.72-23 3.23zm37.27 22.33c-.08 0-23.39 3.28-23.39 3.28v-17.61l23.39-3.29s-.06 17.51-.05 17.62z" fill="#237dba"/><path d="M62.298 6.581c0-.56-.5-.92-1.22-1.2a9.54 9.54 0 00-3.26-.51 9.76 9.76 0 00-2.73.35c-.94.28-1.55.65-1.6 1.29v1.46l-5.42.76a.23.23 0 00-.11 0 .14.14 0 000 .06v18.21a.27.27 0 000 .13v.05l3.83 2.09 10.7 5.82h.13l24-3.36a.27.27 0 00.11-.05.14.14 0 000-.07v-18.21a.27.27 0 000-.12l-.05-.06-5.95-3.25v-1.14c0-.56-.5-.92-1.23-1.2a9.5 9.5 0 00-3.26-.51h-.73l-1.85-1v-.95c0-.56-.5-.91-1.22-1.2a9.6 9.6 0 00-3.27-.51 10 10 0 00-2.72.34c-.94.29-1.56.66-1.6 1.3v1.19l-2.55.36" fill="#33abe1"/><path d="M86.928 13.501a.27.27 0 000-.12l-.05-.06-6.15-3.35v-1.14c0-.56-.5-.92-1.23-1.2a9.5 9.5 0 00-3.26-.51h-.73l-1.85-1v.66l.84.46a6.56 6.56 0 00-.84.17v-2.24c0-.56-.5-.91-1.22-1.2a9.6 9.6 0 00-3.27-.51 10 10 0 00-2.72.34c-.94.29-1.56.66-1.6 1.3v1.19l-2.55.36v.61l2.54-.36v1.54a10.2 10.2 0 00-2.69.34h.14v-2.24c0-.56-.5-.92-1.22-1.2a9.54 9.54 0 00-3.26-.51 9.76 9.76 0 00-2.73.35c-.94.28-1.55.65-1.6 1.29v1.5l-5.42.76a.23.23 0 00-.11 0 .14.14 0 000 .06v18.21a.27.27 0 000 .13v.05l3.83 2.09 10.7 5.82h.13l24-3.36a.27.27 0 00.11-.05.14.14 0 000-.07v-18.21zm-10.69-5.8a9.11 9.11 0 013 .46c.66.25.87.55.84.65-.03.1-.27.49-1.16.74a9.27 9.27 0 01-2.57.32 9.05 9.05 0 01-3.05-.47c-.64-.24-.84-.52-.84-.62 0-.11.28-.49 1.17-.73a9.15 9.15 0 012.61-.35zm-9.62-3.33a10 10 0 012.56-.32 9.09 9.09 0 013 .47c.67.25.87.56.85.65-.02.09-.28.49-1.17.74a9.66 9.66 0 01-2.57.32 8.61 8.61 0 01-3-.47c-.63-.23-.84-.52-.84-.63-.03-.16.28-.51 1.17-.76zm-4.31 5.05a10.11 10.11 0 012.57-.31 9.09 9.09 0 013 .46c.67.25.87.56.85.65-.02.09-.28.5-1.17.74a9.66 9.66 0 01-2.57.32 8.86 8.86 0 01-3-.46c-.63-.24-.84-.53-.84-.63-.04-.14.27-.52 1.16-.77zm-8.23-2.89c0-.12.29-.5 1.18-.74a9.15 9.15 0 012.56-.32 9 9 0 013 .46c.67.25.87.55.85.65-.02.1-.28.49-1.17.74a9.15 9.15 0 01-2.56.32 8.87 8.87 0 01-3.06-.47c-.63-.23-.84-.51-.84-.62zm-5 2.61l4.44-.62v1.36c0 .56.5.92 1.22 1.19a9.26 9.26 0 003.26.51 10.11 10.11 0 002.59-.31v2.22c0 .55.5.91 1.22 1.2a9.51 9.51 0 003.26.5 10.21 10.21 0 002.73-.34c.94-.29 1.56-.66 1.6-1.31v-3.35a10.72 10.72 0 002.54-.3v2.23c0 .56.5.91 1.22 1.19a9.26 9.26 0 003.26.51 10.23 10.23 0 002.74-.34c.93-.29 1.55-.66 1.59-1.31v-1.55l5 2.72-23 3.24zm37.27 22.33c-.08.05-23.39 3.28-23.39 3.28v-17.61l23.39-3.29s-.06 17.51-.05 17.62z" fill="#237dba"/><path d="M38.318 64.821c0-.56-.5-.92-1.22-1.21a10.85 10.85 0 00-6-.15c-.94.28-1.55.65-1.59 1.29v1.38l-5.42.76h-.1v.12c0 .07 0 0 0 0v18.2a.34.34 0 000 .14l3.83 2.1 10.71 5.81a.28.28 0 00.12 0l24-3.37a.17.17 0 00.11 0v-18.14a.27.27 0 000-.12l-.05-.05-6-3.29v-1.14c0-.55-.5-.91-1.23-1.2a9.75 9.75 0 00-3.26-.5h-.72l-1.86-1v-.94c0-.56-.5-.92-1.22-1.2a9.34 9.34 0 00-3.26-.51 10.1 10.1 0 00-2.73.34c-.93.29-1.55.65-1.6 1.3v1.19l-2.55.36" fill="#33abe1"/><path d="M62.948 71.741a.27.27 0 000-.12l-.05-.05-6-3.29v-1.14c0-.55-.5-.91-1.23-1.2a9.75 9.75 0 00-3.26-.5h-.72l-1.86-1v.67l.84.45c-.29 0-.58.11-.84.18v-2.24c0-.56-.5-.92-1.22-1.2a9.34 9.34 0 00-3.26-.51 10.1 10.1 0 00-2.73.34c-.93.29-1.55.65-1.6 1.3v1.19l-2.55.36v.6l2.54-.35v1.52a9.8 9.8 0 00-2.69.34h.14v-2.24c0-.56-.5-.92-1.22-1.21a10.85 10.85 0 00-6-.15c-.94.28-1.55.65-1.59 1.29v1.38l-5.42.76h-.1v.12c0 .07 0 0 0 0v18.2a.34.34 0 000 .14l3.83 2.09 10.71 5.81a.28.28 0 00.12 0l24-3.37a.17.17 0 00.11 0v-18.16zm-10.69-5.77a9 9 0 013 .47c.66.25.87.55.84.64-.03.09-.27.5-1.16.75a9.66 9.66 0 01-2.57.32 9.05 9.05 0 01-3-.47c-.64-.24-.84-.52-.84-.62 0-.12.28-.49 1.18-.74a9.41 9.41 0 012.55-.35zm-9.62-3.32a9.61 9.61 0 012.57-.32 9 9 0 013 .47c.67.25.87.55.85.65-.02.1-.28.49-1.17.74a9.68 9.68 0 01-2.57.31 8.86 8.86 0 01-3.05-.46c-.63-.24-.84-.52-.84-.63.01-.17.3-.55 1.21-.8zm-4.31 5.05a10.09 10.09 0 012.57-.32 9 9 0 013 .47c.67.25.87.55.85.65-.02.1-.28.49-1.17.74a9.66 9.66 0 01-2.57.32 9.09 9.09 0 01-3-.47c-.63-.23-.84-.52-.84-.63-.03-.17.27-.55 1.16-.8zm-8.22-2.89c0-.12.28-.49 1.17-.74a9.53 9.53 0 012.56-.32 9 9 0 013 .47c.67.25.87.55.85.65-.02.1-.28.49-1.17.74a9.53 9.53 0 01-2.56.32 9.05 9.05 0 01-3-.47c-.64-.24-.84-.52-.84-.62zm-5.06 2.61l4.45-.62v1.36c0 .55.5.91 1.22 1.19a9.28 9.28 0 003.27.51 10.08 10.08 0 002.58-.31v2.21c0 .56.5.92 1.22 1.2a9.5 9.5 0 003.26.51 10.15 10.15 0 002.73-.34c.94-.29 1.56-.66 1.6-1.31v-3.36a9.72 9.72 0 002.54-.3v2.24c0 .55.5.91 1.22 1.19a9.52 9.52 0 003.27.51 10.21 10.21 0 002.73-.34c.93-.29 1.55-.66 1.59-1.31v-1.92.37l5 2.72-23 3.24zm37.27 22.33c-.09 0-23.39 3.27-23.39 3.27v-17.6l23.39-3.29s-.01 17.46 0 17.58z" fill="#237dba"/><path d="M38.318 9.971c0-.55-.5-.91-1.22-1.2a10.85 10.85 0 00-6-.15c-.94.27-1.55.65-1.59 1.29v1.38l-5.42.76h-.1v18.32a.34.34 0 000 .14v.05l3.83 2.1 10.71 5.81a.28.28 0 00.12 0l24-3.37h.11v-18.26a.27.27 0 000-.12l-.05-.05-6-3.29v-1.14c0-.55-.5-.91-1.23-1.2a9.51 9.51 0 00-3.26-.5h-.72l-1.86-1v-.94c0-.56-.5-.92-1.22-1.2a9.57 9.57 0 00-3.26-.52 10.09 10.09 0 00-2.73.35c-.93.28-1.55.65-1.6 1.3v1.19l-2.55.36" fill="#33abe1"/><path d="M62.948 16.881a.27.27 0 000-.12l-.05-.05-6-3.29v-1.14c0-.55-.5-.91-1.23-1.2a9.51 9.51 0 00-3.26-.5h-.72l-1.86-1v.67l.84.45c-.29.05-.58.11-.84.18v-2.24c0-.56-.5-.92-1.22-1.2a9.57 9.57 0 00-3.26-.52 10.09 10.09 0 00-2.73.35c-.93.28-1.55.65-1.6 1.3v1.19l-2.55.36v.6l2.54-.35v1.52a9.8 9.8 0 00-2.69.34h.14v-2.26c0-.55-.5-.91-1.22-1.2a10.85 10.85 0 00-6-.15c-.94.27-1.55.65-1.59 1.29v1.38l-5.42.76h-.1v18.32a.34.34 0 000 .14v.05l3.83 2.09 10.71 5.81a.28.28 0 00.12 0l24-3.37h.11v-.07a.43.43 0 000-.05v-18.13zm-10.69-5.81a9.28 9.28 0 013 .46c.66.25.87.56.84.65-.03.09-.27.5-1.16.75a9.66 9.66 0 01-2.57.32 9.05 9.05 0 01-3-.47c-.64-.24-.84-.52-.84-.63 0-.12.28-.49 1.18-.74a9.41 9.41 0 012.55-.34zm-9.62-3.32a9.61 9.61 0 012.57-.32 9 9 0 013 .47c.67.25.87.55.85.65-.02.1-.28.49-1.17.74a9.68 9.68 0 01-2.57.31 8.86 8.86 0 01-3.05-.46c-.63-.24-.84-.52-.84-.63.01-.13.3-.54 1.21-.76zm-4.31 5.05a9.66 9.66 0 012.57-.32 9 9 0 013 .47c.67.25.87.55.85.65-.02.1-.28.49-1.17.74a9.66 9.66 0 01-2.57.32 9.09 9.09 0 01-3-.47c-.63-.24-.84-.52-.84-.63-.03-.13.27-.52 1.16-.76zm-8.22-2.89c0-.12.28-.49 1.17-.74a9.53 9.53 0 012.56-.32 9 9 0 013 .47c.67.25.87.55.85.64-.02.09-.28.5-1.17.75a9.53 9.53 0 01-2.56.32 9.05 9.05 0 01-3-.47c-.64-.24-.84-.52-.84-.63zm-5.06 2.61l4.45-.63v1.37c0 .56.5.92 1.22 1.2a9.52 9.52 0 003.27.51 10.08 10.08 0 002.58-.31v2.21c0 .56.5.92 1.22 1.2a9.5 9.5 0 003.26.51 10.15 10.15 0 002.73-.34c.94-.29 1.56-.66 1.6-1.31v-3.41a10.17 10.17 0 002.54-.3v2.24c0 .56.5.92 1.22 1.2a9.52 9.52 0 003.27.51 10.21 10.21 0 002.73-.34c.93-.29 1.55-.66 1.59-1.31v-1.92.37l5 2.72-23 3.28zm37.27 22.33c-.09.05-23.39 3.27-23.39 3.27v-17.6l23.39-3.29s-.01 17.5 0 17.62z" fill="#237dba"/><path d="M14.328 104.761c0-.56-.49-.91-1.22-1.2a9.51 9.51 0 00-3.26-.5 9.77 9.77 0 00-2.73.34c-.93.28-1.55.66-1.59 1.29v1.39l-5.42.76a.21.21 0 00-.1 0v18.34a.27.27 0 000 .13l3.83 2.09 10.71 5.82a.27.27 0 00.12 0l24-3.36h.11v-18.28a.36.36 0 000-.11l-6-3.3v-1.2c0-.56-.5-.92-1.23-1.2a9.5 9.5 0 00-3.26-.51h-.72l-1.86-1v-.94c0-.56-.5-.91-1.22-1.2a9.83 9.83 0 00-3.26-.51 10.1 10.1 0 00-2.73.34c-.94.29-1.55.66-1.6 1.3v1.2l-2.55.36" fill="#33abe1"/><path d="M38.958 111.671a.36.36 0 000-.11l-6-3.3v-1.29c0-.56-.5-.92-1.23-1.2a9.5 9.5 0 00-3.26-.51h-.72l-1.86-1v.71l.84.46a6.93 6.93 0 00-.84.17v-2.23c0-.56-.5-.91-1.22-1.2a9.83 9.83 0 00-3.26-.51 10.1 10.1 0 00-2.73.34c-.94.29-1.55.66-1.6 1.3v1.2l-2.55.36v.6l2.55-.36v1.53a9.9 9.9 0 00-2.69.35h.14v-2.23c0-.56-.49-.91-1.22-1.2a9.51 9.51 0 00-3.26-.5 9.77 9.77 0 00-2.73.34c-.93.28-1.55.66-1.59 1.29v1.39l-5.42.76a.21.21 0 00-.1 0v18.34a.27.27 0 000 .13l3.83 2.09 10.71 5.82a.27.27 0 00.12 0l24-3.36h.11v-18.28zm-10.69-5.8a9 9 0 013 .46c.66.25.87.56.84.65-.03.09-.27.49-1.16.74a9.27 9.27 0 01-2.57.32 8.85 8.85 0 01-3-.47c-.63-.23-.84-.51-.84-.62 0-.12.28-.5 1.18-.74a9.46 9.46 0 012.55-.34zm-9.61-3.32a9.48 9.48 0 012.56-.32 9.11 9.11 0 013 .46c.66.26.86.56.84.65-.02.09-.28.5-1.17.74a9.66 9.66 0 01-2.57.32 8.86 8.86 0 01-3.05-.46c-.63-.24-.84-.53-.84-.63.02-.14.3-.52 1.23-.76zm-4.31 5a9.53 9.53 0 012.56-.32 8.85 8.85 0 013 .47c.66.25.86.55.84.64-.02.09-.28.5-1.17.75a10.11 10.11 0 01-2.57.31 8.76 8.76 0 01-3-.46c-.63-.24-.85-.53-.84-.63-.02-.09.29-.47 1.18-.71zm-8.24-2.9c0-.12.29-.5 1.18-.74a9.53 9.53 0 012.56-.32 9.37 9.37 0 013.05.46c.66.25.86.56.84.65-.02.09-.27.49-1.16.74a9.27 9.27 0 01-2.57.32 9.11 9.11 0 01-3-.46c-.64-.24-.85-.52-.85-.63zm-5 2.61l4.44-.62v1.36c0 .56.5.92 1.22 1.19a9.27 9.27 0 003.27.52 10.54 10.54 0 002.58-.31v2.21c0 .55.5.91 1.22 1.2a9.51 9.51 0 003.26.5 9.77 9.77 0 002.73-.34c.94-.29 1.56-.66 1.6-1.3v-3.36a10.31 10.31 0 002.55-.3v2.2c0 .56.51.92 1.23 1.19a9.19 9.19 0 003.26.51 10.21 10.21 0 002.73-.34c.93-.29 1.55-.65 1.59-1.31v-1.92.38l5 2.72-23 3.23zm37.26 22.33c-.08.06-23.39 3.28-23.39 3.28v-17.61l23.39-3.29s-.05 17.56-.04 17.67z" fill="#237dba"/><path d="M14.328 86.471c0-.55-.49-.91-1.22-1.2a9.51 9.51 0 00-3.26-.5 10.15 10.15 0 00-2.73.34c-.93.28-1.55.66-1.59 1.3v1.39l-5.42.76h-.1a.1.1 0 000 .05v18.28a.27.27 0 000 .13v.05l3.83 2.1 10.71 5.81h.12l24-3.37h.11v-18.27a.43.43 0 000-.12l-6-3.29v-1.14c0-.55-.5-.92-1.23-1.2a9.51 9.51 0 00-3.26-.5h-.72l-1.86-1v-.94c0-.56-.5-.92-1.22-1.21a9.83 9.83 0 00-3.26-.51 10.09 10.09 0 00-2.73.35c-.94.28-1.55.65-1.6 1.29v1.19l-2.55.36" fill="#33abe1"/><path d="M38.958 93.391a.43.43 0 000-.12l-6-3.29v-1.14c0-.55-.5-.92-1.23-1.2a9.51 9.51 0 00-3.26-.5h-.72l-1.86-1v.67l.84.45c-.29.05-.58.11-.84.18v-2.24c0-.56-.5-.92-1.22-1.21a9.83 9.83 0 00-3.26-.51 10.09 10.09 0 00-2.73.35c-.94.28-1.55.65-1.6 1.29v1.19l-2.55.36v.6l2.55-.36v1.53a9.91 9.91 0 00-2.69.34h.14v-2.31c0-.55-.49-.91-1.22-1.2a9.51 9.51 0 00-3.26-.5 10.15 10.15 0 00-2.73.34c-.93.28-1.55.66-1.59 1.3v1.39l-5.42.76h-.1a.1.1 0 000 .05v18.28a.27.27 0 000 .13v.05l3.83 2.1 10.71 5.81h.12l24-3.37h.11v-18.27zm-10.69-5.81a9.28 9.28 0 013 .46c.66.25.87.56.84.65-.03.09-.27.5-1.16.75a9.66 9.66 0 01-2.57.32 9.09 9.09 0 01-3-.47c-.63-.24-.84-.52-.84-.63 0-.12.28-.5 1.18-.74a9.46 9.46 0 012.55-.34zm-9.61-3.32a9.48 9.48 0 012.56-.32 9.09 9.09 0 013 .47c.66.25.86.55.84.65-.02.1-.28.49-1.17.74a9.68 9.68 0 01-2.57.31 8.86 8.86 0 01-3.05-.46c-.63-.24-.84-.52-.84-.63.02-.14.3-.52 1.23-.76zm-4.31 5.05a9.53 9.53 0 012.56-.32 9.09 9.09 0 013 .47c.66.25.86.55.84.65-.02.1-.28.49-1.17.74a9.68 9.68 0 01-2.57.31 8.76 8.76 0 01-3-.46c-.63-.24-.85-.52-.84-.63-.02-.1.29-.52 1.18-.76zm-8.24-2.9c0-.12.29-.49 1.18-.74a9.53 9.53 0 012.56-.32 9.09 9.09 0 013.05.47c.66.24.86.55.84.64-.02.09-.27.5-1.16.75a9.66 9.66 0 01-2.57.32 9.09 9.09 0 01-3-.47c-.64-.24-.85-.52-.85-.63zm-5 2.62l4.44-.63v1.37c0 .56.5.92 1.22 1.2a9.52 9.52 0 003.27.51 10.54 10.54 0 002.58-.31v2.21c0 .56.5.92 1.22 1.2a9.5 9.5 0 003.26.51 9.76 9.76 0 002.73-.35c.94-.28 1.56-.65 1.6-1.3v-3.36a10.31 10.31 0 002.55-.3v2.21c0 .56.51.92 1.23 1.2a9.42 9.42 0 003.26.51 10.2 10.2 0 002.73-.35c.93-.28 1.55-.65 1.59-1.3v-1.92.37l5 2.72-23 3.23zm37.26 22.32c-.08.06-23.39 3.28-23.39 3.28v-17.61l23.39-3.28s-.05 17.5-.04 17.61z" fill="#237dba"/><path d="M14.328 68.181c0-.56-.49-.92-1.22-1.2a9.5 9.5 0 00-3.26-.51 9.76 9.76 0 00-2.73.35c-.93.28-1.55.65-1.59 1.29v1.38l-5.42.77a.19.19 0 00-.1 0v18.31a.34.34 0 000 .14l3.83 2.09 10.71 5.82a.28.28 0 00.12 0l24-3.37a.21.21 0 00.11 0v-18.27a.5.5 0 000-.12.21.21 0 000-.06l-6-3.29v-1.14c0-.55-.5-.91-1.23-1.2a9.75 9.75 0 00-3.26-.5h-.72l-1.86-1v-.94c0-.56-.5-.92-1.22-1.2a9.34 9.34 0 00-3.26-.51 10.1 10.1 0 00-2.73.34c-.94.29-1.55.65-1.6 1.3v1.19l-2.55.36" fill="#33abe1"/><path d="M38.958 75.101a.5.5 0 000-.12.21.21 0 000-.06l-6-3.29v-1.14c0-.55-.5-.91-1.23-1.2a9.75 9.75 0 00-3.26-.5h-.72l-1.86-1v.67l.84.45c-.29 0-.58.11-.84.18v-2.32c0-.56-.5-.92-1.22-1.2a9.34 9.34 0 00-3.26-.51 10.1 10.1 0 00-2.73.34c-.94.29-1.55.65-1.6 1.3v1.19l-2.55.36v.6l2.55-.36v1.53a9.91 9.91 0 00-2.69.34h.14v-2.24c0-.56-.49-.92-1.22-1.2a9.5 9.5 0 00-3.26-.51 9.76 9.76 0 00-2.73.35c-.93.28-1.55.65-1.59 1.29v1.38l-5.42.77a.19.19 0 00-.1 0v18.31a.34.34 0 000 .14l3.83 2.09 10.71 5.82a.28.28 0 00.12 0l24-3.37a.21.21 0 00.11 0v-18.27zm-10.69-5.81a9 9 0 013 .47c.66.25.87.55.84.64-.03.09-.27.5-1.16.75a9.66 9.66 0 01-2.57.32 9.09 9.09 0 01-3-.47c-.63-.24-.84-.52-.84-.62 0-.12.28-.49 1.18-.74a9.46 9.46 0 012.55-.35zm-9.61-3.32a9.48 9.48 0 012.56-.32 9.09 9.09 0 013 .47c.66.25.86.55.84.65-.02.1-.28.49-1.17.74a9.66 9.66 0 01-2.57.32 9.09 9.09 0 01-3.05-.47c-.63-.24-.84-.52-.84-.63.02-.13.3-.52 1.23-.76zm-4.31 5a9.53 9.53 0 012.56-.32 9.09 9.09 0 013 .47c.66.25.86.55.84.65-.02.1-.28.49-1.17.74a9.66 9.66 0 01-2.57.32 8.75 8.75 0 01-3-.47c-.63-.23-.85-.52-.84-.63-.02-.08.29-.46 1.18-.71zm-8.24-2.89c0-.12.29-.49 1.18-.73a10.11 10.11 0 015.61.14c.66.25.86.55.84.65-.02.1-.27.49-1.16.74a9.66 9.66 0 01-2.57.32 9.09 9.09 0 01-3-.47c-.64-.24-.85-.52-.85-.62zm-5 2.61l4.44-.63v1.37c0 .56.5.91 1.22 1.19a9.28 9.28 0 003.27.51 10.08 10.08 0 002.58-.31v2.21c0 .56.5.92 1.22 1.2a9.5 9.5 0 003.26.51 10.15 10.15 0 002.73-.34c.94-.29 1.56-.66 1.6-1.31v-3.36a10.3 10.3 0 002.55-.31v2.21c0 .56.51.92 1.23 1.2a9.42 9.42 0 003.26.51 10.21 10.21 0 002.73-.34c.93-.29 1.55-.66 1.59-1.31v-1.92.37l5 2.72-23 3.23zm37.26 22.33c-.08 0-23.39 3.28-23.39 3.28v-17.61l23.39-3.29s-.05 17.57-.04 17.67z" fill="#237dba"/><path d="M14.328 49.891c0-.56-.49-.91-1.22-1.2a9.5 9.5 0 00-3.26-.51 9.76 9.76 0 00-2.73.35c-.93.28-1.55.65-1.59 1.29v1.39l-5.42.76h-.1a.1.1 0 000 .05v18.27a.27.27 0 000 .13l3.83 2.09 10.71 5.82h.12l24-3.36a.22.22 0 00.11-.05v-18.07a.36.36 0 000-.11v-.06l-6-3.3v-1.14c0-.56-.5-.92-1.23-1.2a9.5 9.5 0 00-3.26-.51h-.72l-1.86-1v-.94c0-.56-.5-.91-1.22-1.2a9.83 9.83 0 00-3.26-.51 10.1 10.1 0 00-2.73.34c-.94.29-1.55.66-1.6 1.3v1.2l-2.55.36" fill="#33abe1"/><path d="M38.958 56.811a.36.36 0 000-.11v-.06l-6-3.3v-1.14c0-.56-.5-.92-1.23-1.2a9.5 9.5 0 00-3.26-.51h-.72l-1.86-1v.66l.84.46a6.93 6.93 0 00-.84.17v-2.23c0-.56-.5-.91-1.22-1.2a9.83 9.83 0 00-3.26-.51 10.1 10.1 0 00-2.73.34c-.94.29-1.55.66-1.6 1.3v1.2l-2.55.36v.6l2.55-.36v1.53a10.31 10.31 0 00-2.69.34h.14v-2.24c0-.56-.49-.91-1.22-1.2a9.5 9.5 0 00-3.26-.51 9.76 9.76 0 00-2.73.35c-.93.28-1.55.65-1.59 1.29v1.39l-5.42.76h-.1a.1.1 0 000 .05v18.27a.27.27 0 000 .13l3.83 2.09 10.71 5.82h.12l24-3.36a.22.22 0 00.11-.05v-18.09zm-10.69-5.8a9 9 0 013 .46c.66.25.87.55.84.65-.03.1-.27.49-1.16.74a9.27 9.27 0 01-2.57.32 8.85 8.85 0 01-3-.47c-.63-.24-.84-.51-.84-.62 0-.11.28-.49 1.18-.73a9.08 9.08 0 012.55-.39zm-9.61-3.33a9.9 9.9 0 012.56-.32 9.09 9.09 0 013 .47c.66.25.86.56.84.65-.02.09-.28.5-1.17.74a9.66 9.66 0 01-2.57.32 9.11 9.11 0 01-3.05-.46c-.63-.24-.84-.53-.84-.63.02-.14.3-.48 1.23-.77zm-4.31 5.06a9.53 9.53 0 012.56-.32 9.11 9.11 0 013 .46c.66.26.86.56.84.65-.02.09-.28.5-1.17.74a9.66 9.66 0 01-2.57.32 8.76 8.76 0 01-3-.46c-.63-.24-.85-.53-.84-.63-.02-.14.29-.53 1.18-.76zm-8.24-2.9c0-.12.29-.5 1.18-.74a9.53 9.53 0 012.56-.32 9.11 9.11 0 013.05.46c.66.25.86.55.84.65-.02.1-.27.49-1.16.74a9.27 9.27 0 01-2.57.32 8.85 8.85 0 01-3-.47c-.64-.23-.85-.51-.85-.62zm-5 2.61l4.44-.62v1.36c0 .56.5.92 1.22 1.19a9.27 9.27 0 003.27.52 10.54 10.54 0 002.58-.31v2.21c0 .55.5.91 1.22 1.2a9.51 9.51 0 003.26.5 9.77 9.77 0 002.73-.34c.94-.29 1.56-.66 1.6-1.3v-3.36a10.31 10.31 0 002.55-.3v2.2c0 .56.51.92 1.23 1.19a9.19 9.19 0 003.26.51 10.21 10.21 0 002.73-.34c.93-.29 1.55-.65 1.59-1.31v-1.92.44l5 2.71-23 3.24zm37.26 22.33c-.08.05-23.39 3.28-23.39 3.28v-17.61l23.39-3.29s-.05 17.51-.04 17.62z" fill="#237dba"/><path d="M14.328 31.611c0-.56-.49-.91-1.22-1.2a9.51 9.51 0 00-3.26-.5 9.77 9.77 0 00-2.73.34c-.93.28-1.55.66-1.59 1.3v1.42l-5.42.76h-.1a.1.1 0 000 .05v18.28a.27.27 0 000 .13l3.83 2.09 10.71 5.82a.27.27 0 00.12 0l24-3.37h.11v-18.27a.43.43 0 000-.12.1.1 0 000-.05l-6-3.29v-1.14c0-.56-.5-.92-1.23-1.2a9.5 9.5 0 00-3.26-.51h-.72l-1.86-1v-.94c0-.55-.5-.91-1.22-1.2a9.83 9.83 0 00-3.26-.51 10.09 10.09 0 00-2.73.35c-.94.28-1.55.65-1.6 1.29v1.21l-2.55.36" fill="#33abe1"/><path d="M38.958 38.531a.43.43 0 000-.12.1.1 0 000-.05l-6-3.29v-1.14c0-.56-.5-.92-1.23-1.2a9.5 9.5 0 00-3.26-.51h-.72l-1.86-1v.66l.84.46a6.91 6.91 0 00-.84.18v-2.24c0-.55-.5-.91-1.22-1.2a9.83 9.83 0 00-3.26-.51 10.09 10.09 0 00-2.73.35c-.94.28-1.55.65-1.6 1.29v1.21l-2.55.36v.6l2.55-.36v1.53a10.3 10.3 0 00-2.69.35h.14v-2.23c0-.56-.49-.91-1.22-1.2a9.51 9.51 0 00-3.26-.5 9.77 9.77 0 00-2.73.34c-.93.28-1.55.66-1.59 1.3v1.36l-5.42.76h-.1a.1.1 0 000 .05v18.28a.27.27 0 000 .13l3.83 2.09 10.71 5.82a.27.27 0 00.12 0l24-3.37h.11v-18.27zm-10.69-5.81a9.28 9.28 0 013 .46c.66.25.87.56.84.65-.03.09-.27.49-1.16.74a9.27 9.27 0 01-2.57.32 8.85 8.85 0 01-3-.47c-.63-.23-.84-.51-.84-.62 0-.12.28-.5 1.18-.74a9.46 9.46 0 012.55-.34zm-9.61-3.32a9.48 9.48 0 012.56-.32 8.85 8.85 0 013 .47c.66.24.86.55.84.64-.02.09-.28.5-1.17.75a10.11 10.11 0 01-2.57.31 8.86 8.86 0 01-3.05-.46c-.63-.24-.84-.53-.84-.63.02-.14.3-.52 1.23-.76zm-4.31 5.05a9.53 9.53 0 012.56-.32 9.09 9.09 0 013 .47c.66.25.86.55.84.65-.02.1-.28.49-1.17.74a9.68 9.68 0 01-2.57.31 8.76 8.76 0 01-3-.46c-.63-.24-.85-.52-.84-.63-.02-.14.29-.52 1.18-.76zm-8.24-2.9c0-.12.29-.5 1.18-.74a9.53 9.53 0 012.56-.32 9.37 9.37 0 013.05.46c.66.25.86.56.84.65-.02.09-.27.5-1.16.74a9.26 9.26 0 01-2.57.33 9.09 9.09 0 01-3-.47c-.64-.24-.85-.52-.85-.63zm-5 2.61l4.44-.62v1.37c0 .56.5.92 1.22 1.2a9.52 9.52 0 003.27.51 10.54 10.54 0 002.58-.31v2.21c0 .56.5.91 1.22 1.2a9.5 9.5 0 003.26.51 10.15 10.15 0 002.63-.26c.94-.3 1.56-.66 1.6-1.31v-3.36a10.31 10.31 0 002.55-.3v2.21c0 .56.51.92 1.23 1.19a9.18 9.18 0 003.26.52 10.2 10.2 0 002.73-.35c.93-.28 1.55-.65 1.59-1.31v-1.92.38l5 2.71-23 3.24zm37.26 22.33c-.08.06-23.39 3.28-23.39 3.28v-17.61l23.39-3.28s-.05 17.5-.04 17.61z" fill="#237dba"/><path d="M14.328 13.321c0-.56-.49-.92-1.22-1.21a9.75 9.75 0 00-3.26-.5 10.15 10.15 0 00-2.73.34c-.93.28-1.55.66-1.59 1.3v1.38l-5.42.76h-.1a.1.1 0 000 .05v18.27a.27.27 0 000 .13v.05l3.83 2.1 10.71 5.81a.28.28 0 00.12 0l24-3.37h.11v-18.18a.5.5 0 000-.12v-.05l-6-3.29v-1.14c0-.55-.5-.91-1.23-1.2a9.75 9.75 0 00-3.26-.5h-.72l-1.86-1v-.94c0-.56-.5-.92-1.22-1.2a9.34 9.34 0 00-3.26-.51 10.1 10.1 0 00-2.73.34c-.94.29-1.55.65-1.6 1.29v1.19l-2.55.36" fill="#33abe1"/><path d="M38.958 20.241a.5.5 0 000-.12v-.05l-6-3.29v-1.14c0-.55-.5-.91-1.23-1.2a9.75 9.75 0 00-3.26-.5h-.72l-1.86-1v.67l.84.45c-.29.05-.58.11-.84.18v-2.24c0-.56-.5-.92-1.22-1.2a9.34 9.34 0 00-3.26-.51 10.1 10.1 0 00-2.73.34c-.94.29-1.55.65-1.6 1.29v1.19l-2.55.36v.6l2.55-.36v1.53a9.91 9.91 0 00-2.69.34h.14v-2.24c0-.56-.49-.92-1.22-1.21a9.75 9.75 0 00-3.26-.5 10.15 10.15 0 00-2.73.34c-.93.28-1.55.66-1.59 1.3v1.38l-5.42.76h-.1a.1.1 0 000 .05v18.27a.27.27 0 000 .13v.05l3.83 2.1 10.71 5.81a.28.28 0 00.12 0l24-3.37h.11v-18.2zm-10.69-5.81a9 9 0 013 .47c.66.24.87.55.84.64-.03.09-.27.5-1.16.75a9.66 9.66 0 01-2.57.32 9.09 9.09 0 01-3-.47c-.63-.24-.84-.52-.84-.63 0-.12.28-.49 1.18-.74a9.46 9.46 0 012.55-.34zm-9.61-3.32a9.48 9.48 0 012.56-.32 9.09 9.09 0 013 .47c.66.25.86.55.84.65-.02.1-.28.49-1.17.74a9.66 9.66 0 01-2.57.32 9.09 9.09 0 01-3.05-.47c-.63-.24-.84-.52-.84-.63.02-.13.3-.52 1.23-.76zm-4.31 5.05a9.53 9.53 0 012.56-.32 9.09 9.09 0 013 .47c.66.25.86.55.84.65-.02.1-.28.49-1.17.74a9.66 9.66 0 01-2.57.32 9 9 0 01-3-.47c-.63-.24-.85-.52-.84-.63-.02-.13.29-.51 1.18-.76zm-8.24-2.89c0-.12.29-.49 1.18-.73a10.11 10.11 0 015.61.14c.66.25.86.55.84.65-.02.1-.27.49-1.16.74a9.66 9.66 0 01-2.57.32 9.09 9.09 0 01-3-.47c-.64-.24-.85-.52-.85-.62zm-5 2.61l4.44-.63v1.37c0 .55.5.91 1.22 1.19a9.52 9.52 0 003.27.51 10.08 10.08 0 002.58-.31v2.21c0 .56.5.92 1.22 1.2a9.5 9.5 0 003.26.51 10.15 10.15 0 002.73-.34c.94-.29 1.56-.66 1.6-1.31v-3.41a9.85 9.85 0 002.55-.3v2.21c0 .56.51.92 1.23 1.2a9.42 9.42 0 003.26.51 9.81 9.81 0 002.73-.35c.93-.28 1.55-.65 1.59-1.3v-1.92.37l5 2.72-23 3.23zm37.26 22.32c-.08.06-23.39 3.29-23.39 3.29v-17.61l23.39-3.29s-.05 17.5-.04 17.61z" fill="#237dba"/><path d="M101.398 66.301c0-.55-.5-.91-1.23-1.2a9.47 9.47 0 00-3.26-.5 10.26 10.26 0 00-2.73.34c-.93.28-1.54.66-1.59 1.3v1.38l-5.41.76h-.11v18.28a.27.27 0 000 .13l3.84 2.1 10.7 5.82a.28.28 0 00.12 0l24-3.37h.1v-18.33a.5.5 0 000-.12v-.05l-6.06-3.29v-1.14c0-.56-.5-.91-1.22-1.2a9.57 9.57 0 00-3.27-.5h-.72l-1.85-1v-.94c0-.56-.51-.92-1.23-1.2a9.49 9.49 0 00-3.26-.52 10.14 10.14 0 00-2.73.35c-.93.28-1.55.65-1.6 1.29v1.19l-2.54.36" fill="#33abe1"/><path d="M126.018 73.221a.5.5 0 000-.12v-.05l-6.06-3.29v-1.14c0-.56-.5-.91-1.22-1.2a9.57 9.57 0 00-3.27-.5h-.72l-1.85-1v.67l.84.45q-.43.07-.84.18v-2.24c0-.56-.51-.92-1.23-1.2a9.49 9.49 0 00-3.26-.52 10.14 10.14 0 00-2.73.35c-.93.28-1.55.65-1.6 1.29v1.19l-2.54.36v.6l2.55-.36v1.53a10.3 10.3 0 00-2.69.35h.14v-2.24c0-.55-.5-.91-1.23-1.2a9.47 9.47 0 00-3.26-.5 10.26 10.26 0 00-2.73.34c-.93.28-1.54.66-1.59 1.3v1.38l-5.41.76h-.11v18.28a.27.27 0 000 .13l3.84 2.1 10.7 5.82a.28.28 0 00.12 0l24-3.37h.1v-18.33zm-10.69-5.81a9 9 0 013.05.47c.67.24.87.55.85.64-.02.09-.28.49-1.17.75a9.56 9.56 0 01-2.57.32 9.14 9.14 0 01-3-.47c-.63-.24-.84-.52-.84-.63 0-.12.29-.5 1.18-.74a9.51 9.51 0 012.5-.34zm-9.61-3.32a9.53 9.53 0 012.56-.32 9.09 9.09 0 013 .47c.66.25.87.55.84.65-.03.1-.28.49-1.17.74a9.68 9.68 0 01-2.57.31 8.84 8.84 0 01-3-.46c-.63-.24-.85-.52-.85-.63-.01-.14.3-.52 1.2-.76zm-4.31 5a9.59 9.59 0 012.56-.32 9.09 9.09 0 013 .47c.66.25.87.55.84.65-.03.1-.28.49-1.17.74a9.53 9.53 0 01-2.56.32 9.09 9.09 0 01-3.05-.47c-.63-.24-.85-.52-.84-.63.02-.09.33-.47 1.22-.71zm-8.23-2.89c0-.12.29-.49 1.18-.74a9.41 9.41 0 012.55-.32 9.05 9.05 0 013 .47c.66.25.87.55.84.64-.03.09-.27.5-1.16.75a9.66 9.66 0 01-2.57.32 9.09 9.09 0 01-3-.47c-.63-.24-.84-.52-.84-.63zm-5 2.61l4.44-.63v1.37c0 .56.5.92 1.23 1.2a9.42 9.42 0 003.26.51 10.69 10.69 0 002.59-.31v2.21c0 .56.5.92 1.22 1.2a9.5 9.5 0 003.26.51 10.28 10.28 0 002.74-.34c.93-.29 1.55-.66 1.59-1.31v-3.41a10.25 10.25 0 002.55-.3v2.21c0 .56.51.92 1.23 1.2a9.42 9.42 0 003.26.51 9.81 9.81 0 002.73-.35c.94-.28 1.55-.65 1.6-1.3v-1.55l5 2.72-23 3.23zm37.26 22.32c-.08.06-23.39 3.28-23.39 3.28v-17.6l23.39-3.29s-.06 17.55-.05 17.66z" fill="#237dba"/><path d="M101.398 47.971c0-.56-.5-.92-1.23-1.2a9.46 9.46 0 00-3.26-.51 9.86 9.86 0 00-2.73.35c-.93.28-1.54.65-1.59 1.29v1.38l-5.41.77a.2.2 0 00-.11 0v18.26a.34.34 0 000 .14v.05c0 .05 0 0 0 0l3.84 2.09 10.7 5.81a.28.28 0 00.12 0l24-3.37a.14.14 0 00.1 0 .64.64 0 000-.07v-18.25a.5.5 0 000-.12v-.05l-6.06-3.29v-1.14c0-.56-.5-.92-1.22-1.21a9.81 9.81 0 00-3.27-.5h-.72l-1.85-1v-.94c0-.56-.51-.92-1.23-1.2a9.26 9.26 0 00-3.26-.51 10.15 10.15 0 00-2.73.34c-.93.29-1.55.66-1.6 1.3v1.19l-2.54.36" fill="#33abe1"/><path d="M126.018 54.971a.5.5 0 000-.12v-.05l-6.06-3.29v-1.14c0-.56-.5-.92-1.22-1.21a9.81 9.81 0 00-3.27-.5h-.72l-1.85-1v.67l.84.45q-.43.07-.84.18v-2.24c0-.56-.51-.92-1.23-1.2a9.26 9.26 0 00-3.26-.51 10.15 10.15 0 00-2.73.34c-.93.29-1.55.66-1.6 1.3v1.19l-2.54.36v.6l2.55-.35v1.52a9.91 9.91 0 00-2.69.34h.14v-2.24c0-.56-.5-.92-1.23-1.2a9.46 9.46 0 00-3.26-.51 9.86 9.86 0 00-2.73.35c-.93.28-1.54.65-1.59 1.29v1.38l-5.41.77a.2.2 0 00-.11 0v18.26a.34.34 0 000 .14v.05c0 .05 0 0 0 0l3.84 2.09 10.7 5.81a.28.28 0 00.12 0l24-3.37a.14.14 0 00.1 0 .64.64 0 000-.07v-18.25zm-10.69-5.81a9 9 0 013.05.47c.67.25.87.55.85.65-.02.1-.28.49-1.17.74a9.56 9.56 0 01-2.57.32 9.14 9.14 0 01-3-.47c-.63-.24-.84-.52-.84-.62 0-.12.29-.49 1.18-.73a9.11 9.11 0 012.5-.4zm-9.61-3.32a9.53 9.53 0 012.56-.32 9.09 9.09 0 013 .47c.66.25.87.55.84.65-.03.1-.28.49-1.17.74a9.66 9.66 0 01-2.57.32 9.07 9.07 0 01-3-.47c-.63-.24-.85-.52-.85-.63-.01-.17.3-.55 1.2-.8zm-4.31 5.05a10 10 0 012.56-.32 9.09 9.09 0 013 .47c.66.25.87.56.84.65-.03.09-.28.49-1.17.74a9.53 9.53 0 01-2.56.32 8.85 8.85 0 01-3.05-.47c-.63-.23-.85-.52-.84-.63.02-.17.33-.55 1.22-.8zm-8.23-2.89c0-.11.29-.49 1.18-.73a10.33 10.33 0 015.6.14c.66.25.87.55.84.65-.03.1-.27.49-1.16.74a9.27 9.27 0 01-2.57.32 9.09 9.09 0 01-3-.47c-.63-.24-.84-.52-.84-.62zm-5 2.61l4.44-.63v1.37c0 .55.5.91 1.23 1.19a9.19 9.19 0 003.26.51 10.22 10.22 0 002.59-.31v2.21c0 .56.5.92 1.22 1.21a9.75 9.75 0 003.26.5 10.28 10.28 0 002.74-.34c.93-.29 1.55-.66 1.59-1.31v-3.36a10.24 10.24 0 002.55-.31v2.21c0 .55.51.91 1.23 1.19a9.42 9.42 0 003.26.51 10.21 10.21 0 002.73-.34c.94-.29 1.55-.66 1.6-1.31v-1.55l5 2.72-23 3.23zm37.26 22.33c-.08.05-23.39 3.28-23.39 3.28v-17.61l23.39-3.29s-.06 17.46-.05 17.58z" fill="#237dba"/><path d="M101.398 29.731c0-.56-.5-.92-1.23-1.2a9.46 9.46 0 00-3.26-.51 9.86 9.86 0 00-2.73.35c-.93.28-1.54.65-1.59 1.29v1.39l-5.41.76a.35.35 0 00-.11 0v18.27a.27.27 0 000 .13l3.84 2.09 10.7 5.82a.28.28 0 00.12 0l24-3.37a.24.24 0 00.1-.05.64.64 0 000-.07v-17.98a.5.5 0 000-.12v-.06l-6.06-3.3v-1.2c0-.56-.5-.92-1.22-1.2a9.56 9.56 0 00-3.27-.51h-.72l-1.85-1v-.94c0-.56-.51-.91-1.23-1.2a9.74 9.74 0 00-3.26-.51 10.15 10.15 0 00-2.73.34c-.93.29-1.55.66-1.6 1.3v1.2l-2.54.35" fill="#33abe1"/><path d="M126.018 36.641a.5.5 0 000-.12v-.06l-6.06-3.3v-1.19c0-.56-.5-.92-1.22-1.2a9.56 9.56 0 00-3.27-.51h-.72l-1.85-1v.71l.84.46a7.34 7.34 0 00-.84.17v-2.23c0-.56-.51-.91-1.23-1.2a9.74 9.74 0 00-3.26-.51 10.15 10.15 0 00-2.73.34c-.93.29-1.55.66-1.6 1.3v1.2l-2.54.35v.61l2.55-.36v1.52a10.31 10.31 0 00-2.69.34h.14v-2.23c0-.56-.5-.92-1.23-1.2a9.46 9.46 0 00-3.26-.51 9.86 9.86 0 00-2.73.35c-.93.28-1.54.65-1.59 1.29v1.39l-5.41.76a.35.35 0 00-.11 0v18.27a.27.27 0 000 .13l3.84 2.09 10.7 5.82h.12l24-3.37a.24.24 0 00.1-.05.64.64 0 000-.07v-17.98zm-10.69-5.8a9 9 0 013.05.46c.67.25.87.55.85.65-.02.1-.28.49-1.17.74a9.56 9.56 0 01-2.57.32 8.89 8.89 0 01-3-.47c-.63-.23-.84-.51-.84-.62 0-.12.29-.5 1.18-.74a9.13 9.13 0 012.5-.34zm-9.61-3.33a10 10 0 012.56-.32 9.09 9.09 0 013 .47c.66.25.87.56.84.65-.03.09-.28.49-1.17.74a9.66 9.66 0 01-2.57.32 9.09 9.09 0 01-3-.46c-.63-.24-.85-.53-.85-.63-.01-.14.3-.52 1.2-.77zm-4.31 5.06a9.59 9.59 0 012.56-.32 9.11 9.11 0 013 .46c.66.25.87.56.84.65-.03.09-.28.49-1.17.75a10 10 0 01-2.56.31 8.86 8.86 0 01-3.05-.46c-.63-.24-.85-.53-.84-.63.02-.14.33-.52 1.22-.76zm-8.23-2.9c0-.12.29-.5 1.18-.74a9.41 9.41 0 012.55-.32 9.07 9.07 0 013 .46c.66.25.87.56.84.65-.03.09-.27.49-1.16.74a9.27 9.27 0 01-2.57.32 8.85 8.85 0 01-3-.47c-.63-.23-.84-.51-.84-.62zm-5 2.61l4.44-.62v1.36c0 .56.5.91 1.23 1.19a9.18 9.18 0 003.26.52 10.69 10.69 0 002.59-.31v2.21c0 .56.5.91 1.22 1.2a9.51 9.51 0 003.26.5 10.28 10.28 0 002.74-.34c.93-.29 1.55-.66 1.59-1.3v-3.36a10.25 10.25 0 002.55-.3v2.2c0 .56.51.91 1.23 1.19a9.19 9.19 0 003.26.51 10.21 10.21 0 002.73-.34c.94-.29 1.55-.66 1.6-1.31v-1.51l5 2.71-23 3.24zm37.26 22.33c-.08.06-23.39 3.28-23.39 3.28v-17.61l23.38-3.31s-.05 17.53-.04 17.64z" fill="#237dba"/><path d="M101.398 11.441c0-.56-.5-.91-1.23-1.2a9.47 9.47 0 00-3.26-.5 9.87 9.87 0 00-2.73.34c-.93.28-1.54.66-1.59 1.3v1.39l-5.41.76h-.11v18.33a.27.27 0 000 .13v.05l3.84 2.09 10.7 5.82h.12l24-3.37h.1v-18.33a.43.43 0 000-.12.1.1 0 000-.05l-6.06-3.29v-1.12c0-.56-.5-.91-1.22-1.2a9.56 9.56 0 00-3.27-.51h-.72l-1.85-1v-.94c0-.55-.51-.91-1.23-1.2a9.74 9.74 0 00-3.26-.51 10.14 10.14 0 00-2.73.35c-.93.28-1.55.65-1.6 1.29v1.21l-2.54.36" fill="#33abe1"/><path d="M126.018 18.361a.43.43 0 000-.12.1.1 0 000-.05l-6.06-3.29v-1.23c0-.56-.5-.91-1.22-1.2a9.56 9.56 0 00-3.27-.51h-.72l-1.85-1v.66l.84.46a5.69 5.69 0 00-.84.18v-2.24c0-.55-.51-.91-1.23-1.2a9.74 9.74 0 00-3.26-.51 10.14 10.14 0 00-2.73.35c-.93.28-1.55.65-1.6 1.29v1.21l-2.54.36v.6l2.55-.36v1.53a10.3 10.3 0 00-2.69.35h.14v-2.23c0-.56-.5-.91-1.23-1.2a9.47 9.47 0 00-3.26-.5 9.87 9.87 0 00-2.73.34c-.93.28-1.54.66-1.59 1.3v1.39l-5.41.76h-.11v18.33a.27.27 0 000 .13v.05l3.84 2.09 10.7 5.82h.12l24-3.37h.1v-18.33zm-10.69-5.81a9.28 9.28 0 013.05.46c.67.25.87.56.85.65-.02.09-.28.49-1.17.74a10.4 10.4 0 01-5.62-.14c-.63-.24-.84-.52-.84-.63 0-.12.29-.5 1.18-.74a9.51 9.51 0 012.55-.34zm-9.61-3.32a9.53 9.53 0 012.56-.32 8.85 8.85 0 013 .47c.66.25.87.55.84.64-.03.09-.28.5-1.17.75a10.11 10.11 0 01-2.57.31 8.84 8.84 0 01-3-.46c-.63-.24-.85-.52-.85-.63-.01-.14.3-.52 1.2-.76zm-4.31 5.05a9.59 9.59 0 012.56-.32 9.09 9.09 0 013 .47c.66.25.87.55.84.65-.03.1-.28.49-1.17.74a9.55 9.55 0 01-2.56.31 8.86 8.86 0 01-3.05-.46c-.63-.24-.85-.52-.84-.63.02-.14.33-.52 1.22-.76zm-8.23-2.9c0-.12.29-.49 1.18-.74a10.33 10.33 0 015.6.14c.66.25.87.56.84.65-.03.09-.27.5-1.16.75a9.66 9.66 0 01-2.57.32 9.09 9.09 0 01-3-.47c-.63-.24-.84-.52-.84-.63zm-5 2.61l4.44-.62v1.37c0 .56.5.92 1.23 1.2a9.42 9.42 0 003.26.51 10.69 10.69 0 002.59-.31v2.21c0 .56.5.91 1.22 1.2a9.5 9.5 0 003.26.51 10.28 10.28 0 002.74-.34c.93-.29 1.55-.66 1.59-1.31v-3.41a10.25 10.25 0 002.55-.3v2.21c0 .56.51.92 1.23 1.19a9.18 9.18 0 003.26.52 10.2 10.2 0 002.73-.35c.94-.28 1.55-.65 1.6-1.31v-1.54l5 2.72-23 3.23zm37.26 22.33c-.08.06-23.39 3.28-23.39 3.28v-17.6l23.39-3.29s-.06 17.5-.05 17.61z" fill="#237dba"/><path d="M77.398 69.691c0-.56-.5-.92-1.23-1.2a9.46 9.46 0 00-3.26-.51 9.86 9.86 0 00-2.73.35c-.93.28-1.54.65-1.59 1.29v1.39l-5.41.76a.35.35 0 00-.11 0 .14.14 0 010 .06v18.21a.59.59 0 000 .13l3.83 2.09 10.7 5.82a.28.28 0 00.12 0l24-3.38a.14.14 0 00.1 0v-18.31a.25.25 0 000-.12.21.21 0 000-.06l-6.06-3.3v-1.14c0-.56-.5-.92-1.22-1.2a9.54 9.54 0 00-3.26-.51h-.73l-1.85-1v-.93c0-.56-.51-.92-1.23-1.2a9.5 9.5 0 00-3.26-.51 10.15 10.15 0 00-2.73.34c-.93.29-1.55.66-1.6 1.3v1.2l-2.54.35" fill="#33abe1"/><path d="M102.018 76.601a.25.25 0 000-.12.21.21 0 000-.06l-6.06-3.3v-1.14c0-.56-.5-.92-1.22-1.2a9.54 9.54 0 00-3.26-.51h-.73l-1.85-1v.67l.83.46a7.34 7.34 0 00-.84.17v-2.23c0-.56-.51-.92-1.23-1.2a9.5 9.5 0 00-3.26-.51 10.15 10.15 0 00-2.73.34c-.93.29-1.55.66-1.6 1.3v1.2l-2.54.35v.61l2.55-.36v1.52a9.77 9.77 0 00-2.68.35h.13v-2.23c0-.56-.5-.92-1.23-1.2a9.46 9.46 0 00-3.26-.51 9.86 9.86 0 00-2.73.35c-.93.28-1.54.65-1.59 1.29v1.39l-5.41.76a.35.35 0 00-.11 0 .14.14 0 010 .06v18.21a.59.59 0 000 .13l3.83 2.09 10.7 5.82a.28.28 0 00.12 0l24-3.38a.14.14 0 00.1 0v-18.31zm-10.68-5.8a9 9 0 013 .46c.67.25.87.55.85.65-.02.1-.28.49-1.17.74a9.56 9.56 0 01-2.57.32 9 9 0 01-3-.47c-.64-.23-.85-.51-.85-.62 0-.12.29-.49 1.18-.73a9.15 9.15 0 012.56-.35zm-9.61-3.33a10 10 0 012.56-.32 9.09 9.09 0 013 .47c.67.25.87.55.84.65-.03.1-.28.49-1.17.74a9.56 9.56 0 01-2.57.32 9 9 0 01-3-.46c-.63-.24-.85-.53-.84-.63-.03-.14.28-.52 1.18-.77zm-4.31 5.06a9.57 9.57 0 012.56-.33 9.09 9.09 0 013 .47c.67.25.87.56.84.65-.03.09-.28.49-1.17.75a10 10 0 01-2.57.31 8.84 8.84 0 01-3-.46c-.63-.24-.85-.53-.84-.63-.03-.14.28-.52 1.17-.76zm-8.23-2.9c0-.11.29-.49 1.18-.73a9.13 9.13 0 012.55-.32 9 9 0 013 .46c.67.25.87.55.85.65-.02.1-.28.49-1.17.74a9.27 9.27 0 01-2.57.32 8.85 8.85 0 01-3-.47c-.63-.23-.84-.51-.84-.62zm-5 2.61l4.44-.62v1.35c0 .56.51.92 1.23 1.19a9.25 9.25 0 003.26.52 10.63 10.63 0 002.59-.31v2.21c0 .56.5.91 1.22 1.2a11 11 0 006 .16c.94-.29 1.56-.65 1.59-1.3v-3.36a10.25 10.25 0 002.55-.3v2.2c0 .56.51.92 1.23 1.19a9.26 9.26 0 003.26.51 10.15 10.15 0 002.73-.34c.94-.29 1.56-.66 1.6-1.31v-1.55l5 2.72-23 3.23zm37.26 22.33c-.08 0-23.39 3.28-23.39 3.28v-17.61l23.37-3.27s-.05 17.49-.04 17.6z" fill="#237dba"/><path d="M77.398 14.821c0-.56-.5-.92-1.23-1.2a9.46 9.46 0 00-3.26-.51 9.86 9.86 0 00-2.73.35c-.93.28-1.54.65-1.59 1.29v1.38l-5.41.77a.35.35 0 00-.11 0 .1.1 0 010 .05.14.14 0 010 .06v18.21a.59.59 0 000 .13v.05c0 .05 0 0 0 0l3.83 2.09 10.7 5.82a.28.28 0 00.12 0l24-3.37a.14.14 0 00.1 0 .64.64 0 000-.07v-18.12a.25.25 0 000-.12v-.05l-6.06-3.3v-1.14c0-.56-.5-.92-1.22-1.2a9.54 9.54 0 00-3.26-.51h-.73l-1.85-1v-.93c0-.56-.51-.92-1.23-1.2a9.26 9.26 0 00-3.26-.51 10.15 10.15 0 00-2.73.34c-.93.29-1.55.66-1.6 1.3v1.2l-2.54.35" fill="#33abe1"/><path d="M102.018 21.741a.25.25 0 000-.12v-.05l-6.06-3.3v-1.14c0-.56-.5-.92-1.22-1.2a9.54 9.54 0 00-3.26-.51h-.73l-1.85-1v.67l.83.45q-.43.08-.84.18v-2.23c0-.56-.51-.92-1.23-1.2a9.26 9.26 0 00-3.26-.51 10.15 10.15 0 00-2.73.34c-.93.29-1.55.66-1.6 1.3v1.2l-2.54.35v.61l2.55-.36v1.52a10.18 10.18 0 00-2.68.34h.13v-2.24c0-.56-.5-.92-1.23-1.2a9.46 9.46 0 00-3.26-.51 9.86 9.86 0 00-2.73.35c-.93.28-1.54.65-1.59 1.29v1.38l-5.41.77a.35.35 0 00-.11 0 .1.1 0 010 .05.14.14 0 010 .06v18.21a.59.59 0 000 .13v.05c0 .05 0 0 0 0l3.83 2.09 10.7 5.82a.28.28 0 00.12 0l24-3.37a.14.14 0 00.1 0 .64.64 0 000-.07v-18.14zm-10.68-5.77a9 9 0 013 .47c.67.25.87.55.85.65-.02.1-.28.49-1.17.74a9.56 9.56 0 01-2.57.32 9 9 0 01-3-.47c-.64-.24-.85-.52-.85-.62 0-.12.29-.49 1.18-.73a9.13 9.13 0 012.56-.36zm-9.62-3.32a10 10 0 012.56-.32 9.09 9.09 0 013 .47c.67.25.87.55.84.65-.03.1-.28.49-1.17.74a9.56 9.56 0 01-2.57.32 8.79 8.79 0 01-3-.47c-.63-.23-.85-.52-.84-.63-.02-.17.29-.55 1.19-.8zm-4.31 5.06a9.57 9.57 0 012.56-.33 9.09 9.09 0 013 .47c.67.25.87.55.84.65-.03.1-.28.49-1.17.74a9.56 9.56 0 01-2.57.32 8.83 8.83 0 01-3-.47c-.63-.23-.85-.52-.84-.63-.02-.17.29-.55 1.18-.79zm-8.23-2.9c0-.12.29-.49 1.18-.73a9.11 9.11 0 012.55-.33 9 9 0 013 .47c.67.25.87.55.85.65-.02.1-.28.49-1.17.74a9.27 9.27 0 01-2.57.32 8.85 8.85 0 01-3-.47c-.63-.24-.84-.52-.84-.62zm-5 2.61l4.44-.62v1.36c0 .56.51.91 1.23 1.19a9.26 9.26 0 003.26.51 10.16 10.16 0 002.59-.31v2.22c0 .55.5.91 1.22 1.2a9.8 9.8 0 003.26.5 10.28 10.28 0 002.74-.34c.94-.29 1.56-.66 1.59-1.31v-3.35a9.79 9.79 0 002.55-.31v2.21c0 .56.51.91 1.23 1.19a9.26 9.26 0 003.26.51 10.15 10.15 0 002.73-.34c.94-.29 1.56-.66 1.6-1.31v-1.55l5 2.72-23 3.23zm37.26 22.33c-.08.05-23.39 3.28-23.39 3.28v-17.61l23.39-3.29s-.06 17.47-.05 17.58z" fill="#237dba"/><path d="M53.418 73.061c0-.55-.5-.91-1.22-1.19a9.56 9.56 0 00-3.27-.51 10.13 10.13 0 00-2.72.34c-.94.28-1.55.66-1.6 1.3v1.38l-5.42.76h-.11v18.33a.35.35 0 000 .14l3.83 2.1 10.7 5.82a.33.33 0 00.13 0l24-3.37a.3.3 0 00.11 0 .19.19 0 000-.07v-18.26a.25.25 0 000-.12v-.05l-6.06-3.3v-1.14c0-.55-.5-.91-1.22-1.2a9.55 9.55 0 00-3.26-.5h-.73l-1.85-1v-.94c0-.55-.51-.91-1.22-1.19a9.59 9.59 0 00-3.27-.52 10.07 10.07 0 00-2.72.35c-.94.28-1.56.65-1.6 1.3v1.19l-2.55.36" fill="#33abe1"/><path d="M78.038 79.971a.25.25 0 000-.12v-.05l-6.06-3.3v-1.14c0-.55-.5-.91-1.22-1.2a9.55 9.55 0 00-3.26-.5h-.73l-1.85-1v.67l.83.45a7.34 7.34 0 00-.84.18v-2.24c0-.55-.51-.91-1.22-1.19a9.59 9.59 0 00-3.27-.52 10.07 10.07 0 00-2.72.35c-.94.28-1.56.65-1.6 1.3v1.19l-2.55.36v.6l2.55-.35v1.51a9.8 9.8 0 00-2.69.34h.13v-2.24c0-.55-.5-.91-1.22-1.19a9.56 9.56 0 00-3.27-.51 10.13 10.13 0 00-2.72.34c-.94.28-1.55.66-1.6 1.3v1.38l-5.42.76h-.11v18.33a.35.35 0 000 .14l3.83 2.1 10.7 5.82a.33.33 0 00.13 0l24-3.37a.3.3 0 00.11 0 .19.19 0 000-.07v-18.26zm-10.68-5.81a9 9 0 013 .47c.67.25.87.55.85.64-.02.09-.27.5-1.16.74a9.26 9.26 0 01-2.57.33 9.05 9.05 0 01-3-.47c-.64-.24-.85-.52-.85-.63 0-.12.29-.49 1.18-.74a9.53 9.53 0 012.55-.33zm-9.62-3.32a9.53 9.53 0 012.56-.32 9.09 9.09 0 013 .47c.67.25.87.55.84.64-.03.09-.28.5-1.17.75a9.55 9.55 0 01-2.56.31 8.86 8.86 0 01-3-.46c-.63-.24-.84-.52-.84-.63-.03-.13.28-.51 1.16-.75zm-4.31 5a9.59 9.59 0 012.56-.32 9.09 9.09 0 013 .47c.67.25.87.55.84.65-.03.1-.27.49-1.17.74a9.55 9.55 0 01-2.56.31 8.63 8.63 0 01-3.05-.46c-.63-.23-.84-.52-.84-.63.02-.08.33-.45 1.22-.7zm-8.23-2.89c0-.12.29-.49 1.18-.73a9.11 9.11 0 012.55-.33 9 9 0 013 .47c.67.25.87.55.84.64-.03.09-.27.5-1.16.75a9.61 9.61 0 01-2.57.32 9 9 0 01-3-.47c-.64-.24-.85-.52-.85-.62zm-5 2.61l4.44-.63v1.37c0 .56.51.92 1.23 1.2a9.46 9.46 0 003.26.51 10.57 10.57 0 002.59-.31v2.27c0 .56.49.92 1.21 1.2a9.58 9.58 0 003.26.51 10.23 10.23 0 002.74-.34c.94-.29 1.55-.66 1.6-1.31v-3.36a10.24 10.24 0 002.55-.31v2.24c0 .56.5.92 1.22 1.2a9.5 9.5 0 003.26.51 10.28 10.28 0 002.74-.34c.93-.29 1.55-.66 1.59-1.31v-1.55l5 2.72-23 3.23zm37.22 22.41c-.09 0-23.4 3.27-23.4 3.27v-17.6l23.39-3.29s-.01 17.48.01 17.62z" fill="#237dba"/><path d="M53.418 18.201c0-.56-.5-.91-1.22-1.2a9.57 9.57 0 00-3.27-.5 9.74 9.74 0 00-2.72.34c-.94.28-1.55.66-1.6 1.3v1.38l-5.42.76h-.11v18.28a.28.28 0 000 .13v.05l3.83 2.1 10.7 5.81a.33.33 0 00.13 0l24-3.37h.11a.11.11 0 000-.06v-18.26a.23.23 0 000-.12v-.05l-6.06-3.29v-1.14c0-.56-.5-.91-1.22-1.2a9.55 9.55 0 00-3.26-.5h-.73l-1.85-1v-.94c0-.55-.51-.91-1.22-1.19a9.59 9.59 0 00-3.27-.52 10.07 10.07 0 00-2.72.35c-.94.28-1.56.65-1.6 1.29v1.32l-2.55.36" fill="#33abe1"/><path d="M78.038 25.121a.23.23 0 000-.12v-.05l-6.06-3.29v-1.14c0-.56-.5-.91-1.22-1.2a9.55 9.55 0 00-3.26-.5h-.73l-1.85-1v.67l.83.45a7.34 7.34 0 00-.84.18v-2.24c0-.55-.51-.91-1.22-1.19a9.59 9.59 0 00-3.27-.52 10.07 10.07 0 00-2.72.35c-.94.28-1.56.65-1.6 1.29v1.16l-2.55.36v.6l2.55-.36v1.53a9.8 9.8 0 00-2.69.34h.13v-2.23c0-.56-.5-.91-1.22-1.2a9.57 9.57 0 00-3.27-.5 9.74 9.74 0 00-2.72.34c-.94.28-1.55.66-1.6 1.3v1.38l-5.42.76h-.11v18.28a.28.28 0 000 .13v.05l3.83 2.1 10.7 5.81a.33.33 0 00.13 0l24-3.37h.11a.11.11 0 000-.06v-18.26zm-10.68-5.81a9.26 9.26 0 013 .46c.67.26.87.56.85.65-.02.09-.27.5-1.16.74a9.26 9.26 0 01-2.57.33 9.05 9.05 0 01-3-.47c-.64-.24-.85-.52-.85-.63 0-.12.29-.49 1.18-.74a9.53 9.53 0 012.55-.34zm-9.63-3.34a9.53 9.53 0 012.56-.32 8.85 8.85 0 013 .47c.67.25.87.55.84.64-.03.09-.28.5-1.17.75a9.55 9.55 0 01-2.56.31 8.86 8.86 0 01-3-.46c-.63-.24-.84-.52-.84-.63-.02-.12.29-.5 1.17-.76zm-4.31 5.05a9.59 9.59 0 012.56-.32 9.09 9.09 0 013 .47c.67.25.87.55.84.65-.03.1-.27.49-1.17.74a9.55 9.55 0 01-2.56.31 8.63 8.63 0 01-3.05-.46c-.63-.24-.84-.52-.84-.63.03-.12.34-.5 1.23-.74zm-8.23-2.89c0-.12.29-.49 1.18-.74a9.51 9.51 0 012.55-.32 9 9 0 013 .47c.67.25.87.55.84.64-.03.09-.27.5-1.16.75a9.61 9.61 0 01-2.57.32 9 9 0 01-3-.47c-.64-.24-.85-.52-.85-.63zm-5 2.61l4.44-.63v1.37c0 .56.51.92 1.23 1.2a9.46 9.46 0 003.26.51 10.57 10.57 0 002.59-.31v2.21c0 .56.49.92 1.21 1.2a9.58 9.58 0 003.26.51 10.23 10.23 0 002.74-.34c.94-.29 1.55-.66 1.6-1.31v-3.41a10.73 10.73 0 002.55-.31v2.24c0 .56.5.92 1.22 1.2a9.5 9.5 0 003.26.51 10.27 10.27 0 002.74-.35c.93-.28 1.55-.65 1.59-1.3v-1.55l5 2.72-23 3.23zm37.27 22.32c-.09.06-23.4 3.28-23.4 3.28v-17.61l23.39-3.28s-.05 17.52-.03 17.63z" fill="#237dba"/><path d="M29.428 112.971c0-.56-.5-.91-1.22-1.2a9.54 9.54 0 00-3.26-.51 9.76 9.76 0 00-2.73.35c-.94.28-1.55.65-1.6 1.29v1.39l-5.42.76a.25.25 0 00-.11 0 .14.14 0 000 .07v18.21a.3.3 0 000 .13l3.83 2.09 10.7 5.82a.33.33 0 00.13 0l24-3.37h.11a.14.14 0 000-.06v-18.21a.25.25 0 000-.12v-.06l-6.06-3.3v-1.13c0-.56-.5-.92-1.22-1.2a9.5 9.5 0 00-3.26-.51h-.73l-1.85-1v-.93c0-.56-.51-.91-1.22-1.2a9.85 9.85 0 00-3.27-.51 9.64 9.64 0 00-2.72.35c-.94.28-1.56.65-1.6 1.29v1.21l-2.55.36" fill="#33abe1"/><path d="M54.048 119.911a.25.25 0 000-.12v-.06l-6.06-3.3v-1.13c0-.56-.5-.92-1.22-1.2a9.5 9.5 0 00-3.26-.51h-.73l-1.85-1v.67l.83.46a7.34 7.34 0 00-.84.17v-2.23c0-.56-.51-.91-1.22-1.2a9.85 9.85 0 00-3.27-.51 9.64 9.64 0 00-2.72.35c-.94.28-1.56.65-1.6 1.29v1.21l-2.55.36v.6l2.54-.36v1.53a9.79 9.79 0 00-2.69.35h.13v-2.23c0-.56-.5-.91-1.22-1.2a9.54 9.54 0 00-3.26-.51 9.76 9.76 0 00-2.73.35c-.94.28-1.55.65-1.6 1.29v1.39l-5.42.76a.25.25 0 00-.11 0 .14.14 0 000 .07v18.21a.3.3 0 000 .13l3.83 2.09 10.7 5.82a.33.33 0 00.13 0l24-3.37h.11a.14.14 0 000-.06v-18.21zm-10.68-5.8a9.11 9.11 0 013 .46c.66.25.87.55.84.65-.03.1-.27.49-1.16.74a9.27 9.27 0 01-2.57.32 8.81 8.81 0 01-3-.47c-.64-.24-.84-.52-.84-.62 0-.11.28-.49 1.17-.73a9.15 9.15 0 012.56-.35zm-9.62-3.32a9.57 9.57 0 012.56-.33 8.83 8.83 0 013.05.48c.67.24.87.54.84.64-.03.1-.28.5-1.17.74a9.53 9.53 0 01-2.56.32 8.61 8.61 0 01-3-.47c-.63-.23-.84-.52-.84-.63-.08-.13.23-.51 1.1-.75zm-4.31 5a9.57 9.57 0 012.56-.33 8.83 8.83 0 013 .48c.67.24.87.55.84.64-.03.09-.27.49-1.16.74a9.66 9.66 0 01-2.57.32 8.86 8.86 0 01-3-.46c-.63-.24-.84-.53-.84-.63-.03-.09.28-.47 1.17-.71zm-8.23-2.9c0-.12.29-.5 1.18-.74a9.53 9.53 0 012.56-.32 9 9 0 013 .46c.67.25.87.55.85.65-.02.1-.28.49-1.17.74a9.17 9.17 0 01-2.57.32 8.75 8.75 0 01-3-.47c-.64-.23-.85-.51-.85-.62zm-5 2.61l4.44-.62v1.37c0 .56.51.92 1.23 1.2a9.5 9.5 0 003.26.51 10.1 10.1 0 002.59-.32v2.22c0 .56.5.91 1.21 1.2a9.86 9.86 0 003.27.5 10.21 10.21 0 002.73-.34c.94-.29 1.55-.66 1.6-1.3v-3.36a9.77 9.77 0 002.54-.31v2.24c0 .56.5.92 1.22 1.19a9.26 9.26 0 003.26.51 10.23 10.23 0 002.74-.34c.93-.29 1.55-.65 1.59-1.31v-1.55l5 2.72-23 3.24zm37.27 22.33c-.09.06-23.39 3.28-23.39 3.28v-17.61l23.39-3.29s-.06 17.56-.05 17.67z" fill="#237dba"/><path d="M29.428 94.711c0-.56-.5-.91-1.22-1.2a9.55 9.55 0 00-3.26-.5 9.77 9.77 0 00-2.73.34c-.94.28-1.55.65-1.6 1.3v1.38l-5.42.76h-.11v18.32a.27.27 0 000 .13l3.83 2.09 10.7 5.82a.31.31 0 00.13 0l24-3.37h.11a.14.14 0 000-.07v-18.21a.23.23 0 000-.12l-6.06-3.3v-1.11c0-.56-.5-.92-1.22-1.2a9.5 9.5 0 00-3.26-.51h-.73l-1.85-1v-.94c0-.55-.51-.91-1.22-1.2a9.85 9.85 0 00-3.27-.51 10.44 10.44 0 00-2.72.34c-.94.29-1.56.66-1.6 1.3v1.21l-2.55.36" fill="#33abe1"/><path d="M54.048 101.631a.23.23 0 000-.12l-6.06-3.3v-1.24c0-.56-.5-.92-1.22-1.2a9.5 9.5 0 00-3.26-.51h-.73l-1.85-1v.66l.83.46a7.34 7.34 0 00-.84.17v-2.23c0-.55-.51-.91-1.22-1.2a9.85 9.85 0 00-3.27-.51 10.44 10.44 0 00-2.72.34c-.94.29-1.56.66-1.6 1.3v1.21l-2.55.36v.6l2.54-.36v1.55a10.19 10.19 0 00-2.69.35h.13v-2.23c0-.56-.5-.91-1.22-1.2a9.55 9.55 0 00-3.26-.5 9.77 9.77 0 00-2.73.34c-.94.28-1.55.65-1.6 1.3v1.38l-5.42.76h-.11v18.32a.27.27 0 000 .13l3.83 2.09 10.7 5.82a.31.31 0 00.13 0l24-3.37h.11a.14.14 0 000-.07v-18.21zm-10.68-5.81a9.11 9.11 0 013 .46c.66.25.87.56.84.65-.03.09-.27.49-1.16.74a9.27 9.27 0 01-2.57.32 8.81 8.81 0 01-3-.47c-.64-.23-.84-.51-.84-.62 0-.12.28-.5 1.17-.74a9.53 9.53 0 012.56-.34zm-9.62-3.32a9.59 9.59 0 012.56-.32 9.11 9.11 0 013.05.46c.67.26.87.56.84.65-.03.09-.28.5-1.17.75a10 10 0 01-2.56.31 8.86 8.86 0 01-3-.46c-.63-.24-.84-.52-.84-.63-.08-.14.23-.52 1.1-.76zm-4.31 5.05a9.59 9.59 0 012.56-.32 9.09 9.09 0 013 .47c.67.25.87.55.84.64-.03.09-.27.5-1.16.75a9.68 9.68 0 01-2.57.31 8.86 8.86 0 01-3-.46c-.63-.24-.84-.52-.84-.63-.03-.14.28-.52 1.17-.76zm-8.23-2.89c0-.12.29-.5 1.18-.74a9.53 9.53 0 012.56-.32 9.26 9.26 0 013 .46c.67.25.87.56.85.65-.02.09-.28.49-1.17.75a9.56 9.56 0 01-2.57.32 9 9 0 01-3-.47c-.64-.24-.85-.52-.85-.63zm-5 2.6l4.44-.62v1.33c0 .56.51.92 1.23 1.19a9.25 9.25 0 003.26.52 10.57 10.57 0 002.59-.31v2.21c0 .56.5.91 1.21 1.2a9.61 9.61 0 003.27.5 10.22 10.22 0 002.73-.33c.94-.3 1.55-.67 1.6-1.31v-3.36a10.23 10.23 0 002.54-.3v2.24c0 .56.5.92 1.22 1.19a9.25 9.25 0 003.26.52 10.22 10.22 0 002.74-.35c.93-.28 1.55-.65 1.59-1.31v-1.54l5 2.72-23 3.23zm37.27 22.33c-.09.06-23.39 3.28-23.39 3.28v-17.61l23.39-3.28s-.06 17.5-.05 17.61z" fill="#237dba"/><path d="M29.428 76.421c0-.56-.5-.92-1.22-1.21a9.8 9.8 0 00-3.26-.5 10.15 10.15 0 00-2.73.34c-.94.28-1.55.66-1.6 1.3v1.38l-5.42.76h-.11a.25.25 0 000 .07v18.21a.27.27 0 000 .13l3.83 2.1 10.7 5.81a.33.33 0 00.13 0l24-3.37a.25.25 0 00.11 0 .11.11 0 000-.06v-18.04a.25.25 0 000-.12v-.05l-6.06-3.29v-1.14c0-.55-.5-.91-1.22-1.2a9.51 9.51 0 00-3.26-.5h-.73l-1.85-1v-1.07c0-.56-.51-.92-1.22-1.2a9.59 9.59 0 00-3.27-.52 10 10 0 00-2.72.35c-.94.28-1.56.65-1.6 1.3v1.19l-2.55.36" fill="#33abe1"/><path d="M54.048 83.341a.25.25 0 000-.12v-.05l-6.06-3.29v-1.14c0-.55-.5-.91-1.22-1.2a9.51 9.51 0 00-3.26-.5h-.73l-1.85-1v.67l.83.45q-.44.07-.84.18v-2.24c0-.56-.51-.92-1.22-1.2a9.59 9.59 0 00-3.27-.52 10 10 0 00-2.72.35c-.94.28-1.56.65-1.6 1.3v1.19l-2.55.36v.6l2.54-.35v1.54a9.8 9.8 0 00-2.69.34h.13v-2.24c0-.56-.5-.92-1.22-1.21a9.8 9.8 0 00-3.26-.5 10.15 10.15 0 00-2.73.34c-.94.28-1.55.66-1.6 1.3v1.38l-5.42.76h-.11a.25.25 0 000 .07v18.21a.27.27 0 000 .13l3.83 2.09 10.7 5.81a.33.33 0 00.13 0l24-3.37a.25.25 0 00.11 0 .11.11 0 000-.06v-18.08zm-10.68-5.81a9.09 9.09 0 013 .47c.66.24.87.55.84.64-.03.09-.27.5-1.16.75a9.66 9.66 0 01-2.57.32 9.05 9.05 0 01-3-.47c-.64-.24-.84-.52-.84-.63 0-.12.28-.49 1.17-.73a9.13 9.13 0 012.56-.35zm-9.62-3.32a9.59 9.59 0 012.56-.32 9.09 9.09 0 013.05.47c.67.25.87.55.84.65-.03.1-.28.49-1.17.74a9.55 9.55 0 01-2.56.31 8.63 8.63 0 01-3-.46c-.63-.24-.84-.52-.84-.63-.08-.14.23-.51 1.1-.76zm-4.31 5a9.59 9.59 0 012.56-.32 9.09 9.09 0 013 .47c.67.25.87.55.84.65-.03.1-.27.49-1.16.74a9.66 9.66 0 01-2.57.32 8.85 8.85 0 01-3-.47c-.63-.24-.84-.52-.84-.63-.03-.08.28-.46 1.17-.71zm-8.23-2.89c0-.12.29-.49 1.18-.73a9.13 9.13 0 012.56-.33 9 9 0 013 .47c.67.25.87.55.85.65-.02.1-.28.49-1.17.74a9.56 9.56 0 01-2.57.32 9 9 0 01-3-.47c-.64-.24-.85-.52-.85-.62zm-5 2.61l4.44-.63v1.37c0 .55.51.91 1.23 1.19a9.26 9.26 0 003.26.51 10.11 10.11 0 002.59-.31v2.21c0 .56.5.92 1.21 1.2a9.6 9.6 0 003.27.51 10.21 10.21 0 002.73-.34c.94-.29 1.55-.66 1.6-1.31v-3.36a9.78 9.78 0 002.54-.3v2.3c0 .56.5.92 1.22 1.2a9.5 9.5 0 003.26.51 10.23 10.23 0 002.74-.34c.93-.29 1.55-.66 1.59-1.31v-1.55l5 2.72-23 3.23zm37.27 22.33c-.09 0-23.39 3.27-23.39 3.27v-17.6l23.39-3.29s-.06 17.55-.05 17.67z" fill="#237dba"/><path d="M29.428 58.131c0-.56-.5-.92-1.22-1.2a9.54 9.54 0 00-3.26-.51 9.76 9.76 0 00-2.73.35c-.94.28-1.55.65-1.6 1.29v1.38l-5.42.77a.23.23 0 00-.11 0 .14.14 0 000 .06v18.21a.3.3 0 000 .13.1.1 0 000 .05l3.83 2.09 10.7 5.82a.33.33 0 00.13 0l24-3.38a.17.17 0 00.11 0 .14.14 0 000-.07v-18.25a.25.25 0 000-.12v-.06l-6.06-3.3v-1.14c0-.56-.5-.92-1.22-1.21a9.75 9.75 0 00-3.26-.5h-.73l-1.85-1v-.93c0-.56-.51-.91-1.22-1.2a9.36 9.36 0 00-3.27-.51 10 10 0 00-2.72.34c-.94.29-1.56.66-1.6 1.3v1.2l-2.55.36" fill="#33abe1"/><path d="M54.048 65.051a.25.25 0 000-.12v-.06l-6.06-3.3v-1.14c0-.56-.5-.92-1.22-1.21a9.75 9.75 0 00-3.26-.5h-.73l-1.85-1v.67l.83.46a7.34 7.34 0 00-.84.17v-2.23c0-.56-.51-.91-1.22-1.2a9.36 9.36 0 00-3.27-.51 10 10 0 00-2.72.34c-.94.29-1.56.66-1.6 1.3v1.2l-2.55.36v.59l2.54-.35v1.45a10.2 10.2 0 00-2.69.34h.13v-2.24c0-.56-.5-.92-1.22-1.2a9.54 9.54 0 00-3.26-.51 9.76 9.76 0 00-2.73.35c-.94.28-1.55.65-1.6 1.29v1.38l-5.42.77a.23.23 0 00-.11 0 .14.14 0 000 .06v18.21a.3.3 0 000 .13.1.1 0 000 .05l3.83 2.09 10.7 5.82a.33.33 0 00.13 0l24-3.38a.17.17 0 00.11 0 .14.14 0 000-.07v-18.25zm-10.68-5.81a9.09 9.09 0 013 .47c.66.25.87.55.84.65-.03.1-.27.49-1.16.74a9.27 9.27 0 01-2.57.32 9.05 9.05 0 01-3-.47c-.64-.24-.84-.52-.84-.62 0-.12.28-.49 1.17-.73a9.13 9.13 0 012.56-.36zm-9.64-3.27a10 10 0 012.56-.32 9.09 9.09 0 013.05.47c.67.25.87.55.84.65-.03.1-.28.49-1.17.74a9.53 9.53 0 01-2.56.32 8.85 8.85 0 01-3-.47c-.63-.24-.84-.52-.84-.63-.06-.18.25-.56 1.12-.76zm-4.31 5.05a10 10 0 012.56-.32 9.09 9.09 0 013 .47c.67.25.87.56.84.65-.03.09-.27.49-1.16.74a9.66 9.66 0 01-2.57.32 8.86 8.86 0 01-3-.46c-.63-.24-.84-.53-.84-.63-.01-.19.3-.57 1.19-.82zm-8.23-2.89c0-.11.29-.49 1.18-.73a9.15 9.15 0 012.56-.32 9 9 0 013 .46c.67.25.87.55.85.65-.02.1-.28.49-1.17.74a9.17 9.17 0 01-2.57.32 9 9 0 01-3-.47c-.64-.24-.85-.52-.85-.62zm-5 2.61l4.44-.62v1.36c0 .56.51.91 1.23 1.2a9.51 9.51 0 003.26.5 10.11 10.11 0 002.59-.31v2.22c0 .56.5.92 1.21 1.21a9.86 9.86 0 003.27.5 10.21 10.21 0 002.73-.34c.94-.29 1.55-.66 1.6-1.31v-3.35a10.22 10.22 0 002.54-.31v2.24c0 .55.5.91 1.22 1.19a9.26 9.26 0 003.26.51 10.23 10.23 0 002.74-.34c.93-.29 1.55-.66 1.59-1.31v-1.61l5 2.72-23 3.24zm37.27 22.33c-.09.05-23.39 3.28-23.39 3.28v-17.61l23.39-3.29s-.04 17.46-.03 17.57z" fill="#237dba"/><path d="M29.428 39.851c0-.56-.5-.91-1.22-1.2a9.55 9.55 0 00-3.26-.5 9.77 9.77 0 00-2.73.34c-.94.28-1.55.65-1.6 1.29v1.39l-5.42.76a.45.45 0 00-.11 0v.05a.14.14 0 000 .06v18.21a.27.27 0 000 .13l3.83 2.09 10.7 5.82a.31.31 0 00.13 0l24-3.37h.11a.14.14 0 000-.07v-18.21a.2.2 0 000-.11v-.06l-6.06-3.3v-1.1c0-.56-.5-.92-1.22-1.2a9.5 9.5 0 00-3.26-.51h-.73l-1.85-1v-.94c0-.56-.51-.91-1.22-1.2a9.85 9.85 0 00-3.27-.51 10 10 0 00-2.72.34c-.94.29-1.56.66-1.6 1.3v1.21l-2.55.36" fill="#33abe1"/><path d="M54.048 46.761a.2.2 0 000-.11v-.06l-6.06-3.3v-1.22c0-.56-.5-.92-1.22-1.2a9.5 9.5 0 00-3.26-.51h-.73l-1.85-1v.66l.83.46a7.34 7.34 0 00-.84.17v-2.23c0-.56-.51-.91-1.22-1.2a9.85 9.85 0 00-3.27-.51 10 10 0 00-2.72.34c-.94.29-1.56.66-1.6 1.3v1.21l-2.55.36v.6l2.54-.36v1.53a10.19 10.19 0 00-2.69.35h.13v-2.23c0-.56-.5-.91-1.22-1.2a9.55 9.55 0 00-3.26-.5 9.77 9.77 0 00-2.73.34c-.94.28-1.55.65-1.6 1.29v1.39l-5.42.76a.45.45 0 00-.11 0v.05a.14.14 0 000 .06v18.21a.27.27 0 000 .13l3.83 2.09 10.7 5.82a.31.31 0 00.13 0l24-3.37h.11a.14.14 0 000-.07v-18.21zm-10.68-5.8a9.11 9.11 0 013 .46c.66.25.87.55.84.65-.03.1-.27.49-1.16.74a9.27 9.27 0 01-2.57.32 8.81 8.81 0 01-3-.47c-.64-.23-.84-.51-.84-.62 0-.12.28-.5 1.17-.74a9.53 9.53 0 012.56-.33zm-9.62-3.32a9.57 9.57 0 012.56-.33 9.09 9.09 0 013.05.47c.67.26.87.56.84.65-.03.09-.28.5-1.17.75a10 10 0 01-2.56.31 8.86 8.86 0 01-3-.46c-.63-.24-.84-.53-.84-.63-.08-.14.23-.52 1.1-.76zm-4.31 5.05a9.59 9.59 0 012.56-.32 9.11 9.11 0 013 .46c.67.26.87.56.84.65-.03.09-.27.5-1.16.75a10.11 10.11 0 01-2.57.31 8.86 8.86 0 01-3-.46c-.63-.24-.84-.53-.84-.63-.03-.14.28-.48 1.17-.76zm-8.23-2.9c0-.12.29-.5 1.18-.74a9.53 9.53 0 012.56-.32 9.26 9.26 0 013 .46c.67.25.87.56.85.65-.02.09-.28.49-1.17.74a9.17 9.17 0 01-2.57.32 9 9 0 01-3-.46c-.64-.24-.85-.52-.85-.63zm-5 2.61l4.44-.62v1.37c0 .56.51.92 1.23 1.19a9.25 9.25 0 003.26.52 10.57 10.57 0 002.59-.31v2.21c0 .56.5.91 1.21 1.2a9.61 9.61 0 003.27.5 9.82 9.82 0 002.73-.34c.94-.29 1.55-.66 1.6-1.3v-3.36a10.23 10.23 0 002.54-.3v2.23c0 .56.5.92 1.22 1.19a9.26 9.26 0 003.26.51 10.23 10.23 0 002.74-.34c.93-.29 1.55-.65 1.59-1.31v-1.54l5 2.72-23 3.23zm37.27 22.33c-.09.06-23.39 3.28-23.39 3.28v-17.61l23.39-3.28s-.06 17.5-.05 17.61z" fill="#237dba"/><path d="M29.428 21.561c0-.55-.5-.91-1.22-1.2a9.55 9.55 0 00-3.26-.5 9.77 9.77 0 00-2.73.34c-.94.28-1.55.66-1.6 1.3v1.38l-5.42.76h-.11v.05a.19.19 0 000 .07v18.21a.27.27 0 000 .13.1.1 0 000 .05l3.83 2.1 10.7 5.81a.33.33 0 00.13 0l24-3.37h.11a.11.11 0 000-.06v-18.21a.25.25 0 000-.12l-6.06-3.29v-1.14c0-.56-.5-.91-1.22-1.2a9.51 9.51 0 00-3.26-.5h-.73l-1.85-1v-.94c0-.55-.51-.91-1.22-1.19a9.59 9.59 0 00-3.27-.52 10 10 0 00-2.72.35c-.94.28-1.56.65-1.6 1.29v1.19l-2.55.36" fill="#33abe1"/><path d="M54.048 28.481a.25.25 0 000-.12l-6.06-3.29v-1.14c0-.56-.5-.91-1.22-1.2a9.51 9.51 0 00-3.26-.5h-.73l-1.85-1v.67l.83.45a7.34 7.34 0 00-.84.18v-2.24c0-.55-.51-.91-1.22-1.19a9.59 9.59 0 00-3.27-.52 10 10 0 00-2.72.35c-.94.28-1.56.65-1.6 1.29v1.19l-2.55.36v.6l2.54-.35v1.54a9.8 9.8 0 00-2.69.34h.13v-2.24c0-.55-.5-.91-1.22-1.2a9.55 9.55 0 00-3.26-.5 9.77 9.77 0 00-2.73.34c-.94.28-1.55.66-1.6 1.3v1.38l-5.42.76h-.11v.05a.19.19 0 000 .07v18.21a.27.27 0 000 .13.1.1 0 000 .05l3.83 2.1 10.7 5.81a.33.33 0 00.13 0l24-3.37h.11a.11.11 0 000-.06v-18.21zm-10.68-5.81a9.37 9.37 0 013 .46c.66.25.87.56.84.65-.03.09-.27.49-1.16.75a9.68 9.68 0 01-2.57.31 9.07 9.07 0 01-3-.46c-.64-.24-.84-.52-.84-.63 0-.12.28-.5 1.17-.74a9.53 9.53 0 012.56-.34zm-9.62-3.32a9.59 9.59 0 012.56-.32 8.85 8.85 0 013.05.47c.67.25.87.55.84.64-.03.09-.28.5-1.17.75a9.55 9.55 0 01-2.56.31 8.86 8.86 0 01-3-.46c-.63-.24-.84-.52-.84-.63-.08-.14.23-.52 1.1-.76zm-4.31 5.05a9.59 9.59 0 012.56-.32 9.09 9.09 0 013 .47c.67.25.87.55.84.65-.03.1-.27.49-1.16.74a9.68 9.68 0 01-2.57.31 8.86 8.86 0 01-3-.46c-.63-.24-.84-.52-.84-.63-.03-.13.28-.52 1.17-.76zm-8.23-2.89c0-.12.29-.49 1.18-.74a9.53 9.53 0 012.56-.32 9 9 0 013 .47c.67.24.87.55.85.64-.02.09-.28.49-1.17.75a9.56 9.56 0 01-2.57.32 9 9 0 01-3-.47c-.64-.24-.85-.52-.85-.63zm-5 2.61l4.44-.63v1.37c0 .56.51.92 1.23 1.2a9.5 9.5 0 003.26.51 10.57 10.57 0 002.59-.31v2.21c0 .56.5.92 1.21 1.2a9.6 9.6 0 003.27.51 10.21 10.21 0 002.73-.34c.94-.29 1.55-.66 1.6-1.31v-3.41a10.23 10.23 0 002.54-.3v2.24c0 .56.5.92 1.22 1.2a9.5 9.5 0 003.26.51 9.83 9.83 0 002.74-.35c.93-.28 1.55-.65 1.59-1.3v-1.55l5 2.72-23 3.23zm37.27 22.32c-.09.06-23.39 3.28-23.39 3.28v-17.6l23.39-3.29s-.06 17.5-.05 17.61z" fill="#237dba"/></svg>