<svg xmlns="http://www.w3.org/2000/svg" viewBox="0 0 147.432 132.121"><path d="M108.427 86.211c0-.55-.49-.9-1.2-1.18a9.45 9.45 0 00-3.21-.5 9.88 9.88 0 00-2.68.34c-.91.28-1.52.65-1.56 1.27v1.36l-5.35.78h-.11a.14.14 0 000 .06v17.89a.27.27 0 000 .13l3.77 2.05 10.51 5.72h.12l23.58-3.31a.19.19 0 00.1 0 .14.14 0 000-.06v-17.91a.2.2 0 000-.11.1.1 0 000-.05l-6-3.23v-1.13c0-.55-.5-.9-1.21-1.18a9.43 9.43 0 00-3.2-.5h-.71l-1.82-1v-.93c0-.55-.49-.9-1.2-1.18a9.23 9.23 0 00-3.2-.5 9.74 9.74 0 00-2.68.33c-.92.28-1.53.64-1.58 1.28v1.17l-2.37.46" fill="#eb5859"/><path d="M132.587 93.011a.2.2 0 000-.11.1.1 0 000-.05l-6-3.23v-1.13c0-.55-.5-.9-1.21-1.18a9.43 9.43 0 00-3.2-.5h-.71l-1.82-1v.65l.82.45a7 7 0 00-.82.17v-2.2c0-.55-.49-.9-1.2-1.18a9.23 9.23 0 00-3.2-.5 9.74 9.74 0 00-2.68.33c-.92.28-1.53.64-1.58 1.28v1.17l-2.56.3v.59l2.5-.35v1.5a9.49 9.49 0 00-2.64.34h.14v-2.2c0-.55-.49-.9-1.2-1.18a9.45 9.45 0 00-3.21-.5 9.88 9.88 0 00-2.68.34c-.91.28-1.52.65-1.56 1.27v1.36l-5.35.83h-.11a.14.14 0 000 .06v17.89a.27.27 0 000 .13l3.77 2.05 10.51 5.72h.12l23.58-3.31a.19.19 0 00.1 0 .14.14 0 000-.06v-17.91zm-10.5-5.7a9 9 0 013 .45c.66.25.85.55.83.64-.02.09-.27.49-1.14.73a9.35 9.35 0 01-2.52.31 8.76 8.76 0 01-3-.46c-.63-.23-.83-.5-.83-.61 0-.12.28-.49 1.16-.73a9.17 9.17 0 012.5-.36zm-9.45-3.27a9.66 9.66 0 012.52-.31 8.74 8.74 0 013 .46c.66.24.86.54.83.64-.03.1-.28.48-1.15.73a9.71 9.71 0 01-2.52.31 8.84 8.84 0 01-3-.46c-.62-.23-.83-.51-.82-.62-.07-.13.26-.51 1.14-.75zm-4.24 5a9.34 9.34 0 012.52-.32 9.1 9.1 0 013 .46c.65.25.85.55.83.64-.02.09-.28.48-1.16.73a9.66 9.66 0 01-2.52.31 8.74 8.74 0 01-3-.46c-.62-.23-.83-.51-.83-.62-.02-.16.29-.5 1.19-.77zm-8.08-2.85c0-.12.28-.49 1.15-.73a9.22 9.22 0 012.51-.31 9 9 0 013 .45c.65.25.85.55.83.64-.02.09-.27.48-1.15.73a9.25 9.25 0 01-2.52.31 8.84 8.84 0 01-3-.46c-.62-.23-.82-.5-.82-.61zm-5 2.57l4.37-.62v1.35c0 .55.5.9 1.2 1.18a9.45 9.45 0 003.21.5 9.77 9.77 0 002.54-.31v2.18c0 .55.5.9 1.2 1.18a9.49 9.49 0 003.21.5 9.78 9.78 0 002.68-.34c.93-.28 1.54-.65 1.58-1.29v-3.3a9.93 9.93 0 002.51-.3v2.17c0 .55.5.9 1.2 1.18a9.25 9.25 0 003.21.5 9.91 9.91 0 002.69-.34c.91-.28 1.52-.64 1.56-1.29v-1.88.36l4.9 2.68-22.61 3.17zm36.62 21.94c-.08.05-23 3.22-23 3.22v-17.3l23-3.23s.02 17.17.03 17.28z" fill="#c91a20"/><path d="M84.807 71.571c0-.55-.49-.91-1.2-1.19a9.54 9.54 0 00-3.21-.49 9.41 9.41 0 00-2.68.34c-.92.27-1.52.64-1.57 1.27v1.36l-5.33.75a.19.19 0 00-.1 0v.05c0 .05 0 0 0 0a.33.33 0 000 .06v17.9a.69.69 0 000 .13l3.77 2.06 10.52 5.72a.28.28 0 00.12 0l23.58-3.31a.21.21 0 00.1 0 .14.14 0 000-.07v-17.91a.27.27 0 000-.12v-.06l-5.95-3.24v-1.12c0-.54-.49-.89-1.2-1.18a9.46 9.46 0 00-3.21-.49h-.71l-1.82-1v-.92c0-.55-.5-.9-1.2-1.18a9.25 9.25 0 00-3.21-.5 9.78 9.78 0 00-2.68.34c-.92.28-1.52.64-1.57 1.27v1.24l-2.5.35" fill="#eb5859"/><path d="M109.007 78.371a.27.27 0 000-.12v-.06l-5.95-3.24v-1.12c0-.54-.49-.89-1.2-1.18a9.46 9.46 0 00-3.21-.49h-.71l-1.82-1v.65l.82.45a7.17 7.17 0 00-.83.17v-2.19c0-.55-.5-.9-1.2-1.18a9.25 9.25 0 00-3.21-.5 9.78 9.78 0 00-2.68.34c-.92.28-1.52.64-1.57 1.27v1.11l-2.5.35v.65l2.51-.35v1.5a10.3 10.3 0 00-2.64.34h.13v-2.2c0-.55-.49-.91-1.2-1.19a9.54 9.54 0 00-3.21-.49 9.41 9.41 0 00-2.68.34c-.92.27-1.52.64-1.57 1.27v1.36l-5.33.75a.19.19 0 00-.1 0v.05c0 .05 0 0 0 0a.33.33 0 000 .06v17.9a.69.69 0 000 .13l3.77 2.06 10.52 5.72a.28.28 0 00.12 0l23.58-3.31a.21.21 0 00.1 0 .14.14 0 000-.07v-17.91zm-10.51-5.71a9 9 0 013 .46c.65.24.85.54.83.63-.02.09-.27.49-1.15.74a9.25 9.25 0 01-2.52.31 8.8 8.8 0 01-3-.46c-.62-.24-.82-.51-.82-.61 0-.11.27-.48 1.15-.72a9.21 9.21 0 012.51-.35zm-9.45-3.26a9.69 9.69 0 012.52-.32 9.1 9.1 0 013 .46c.65.25.85.55.83.64-.02.09-.28.48-1.15.73a9.79 9.79 0 01-2.53.31 8.28 8.28 0 01-3-.46c-.62-.23-.83-.51-.83-.62-.02-.13.29-.5 1.16-.74zm-4.23 5a9.66 9.66 0 012.52-.31 8.74 8.74 0 013 .46c.66.25.86.54.83.63-.03.09-.27.49-1.15.73a9.23 9.23 0 01-2.52.32 8.84 8.84 0 01-3-.46c-.62-.24-.83-.51-.82-.62-.04-.18.26-.55 1.14-.79zm-8.09-2.84c0-.12.28-.48 1.16-.72a9.16 9.16 0 012.51-.32 8.74 8.74 0 013 .46c.66.24.86.54.84.64-.02.1-.27.48-1.15.73a9.3 9.3 0 01-2.52.31 8.8 8.8 0 01-3-.46c-.63-.23-.83-.51-.83-.61zm-5 2.56l4.36-.61v1.34c0 .55.5.9 1.21 1.17a9.15 9.15 0 003.2.5 10.31 10.31 0 002.55-.3v2.17c0 .55.49.9 1.2 1.18a9.25 9.25 0 003.21.5 10.25 10.25 0 002.68-.33c.93-.29 1.53-.65 1.57-1.29v-3.3a9.9 9.9 0 002.5-.3v2.2c0 .55.49.9 1.2 1.17a9.25 9.25 0 003.21.5 10.3 10.3 0 002.68-.33c.92-.29 1.53-.65 1.57-1.29v-1.52l4.9 2.67-22.6 3.18zm36.62 22c-.08 0-23 3.22-23 3.22v-17.31l23-3.23.08 17.23z" fill="#c91a20"/><path d="M84.807 53.601c0-.55-.49-.9-1.2-1.18a9.54 9.54 0 00-3.21-.49 9.41 9.41 0 00-2.68.34c-.92.27-1.52.64-1.57 1.27v1.36l-5.33.75a.19.19 0 00-.1 0v17.97a.69.69 0 000 .13l3.77 2.06 10.52 5.72a.28.28 0 00.12 0l23.58-3.31a.21.21 0 00.1 0 .14.14 0 000-.07v-17.91a.27.27 0 000-.12v-.05l-5.95-3.24v-1.12c0-.54-.49-.89-1.2-1.18a9.46 9.46 0 00-3.21-.49h-.71l-1.82-1v-.92c0-.55-.5-.9-1.2-1.18a9.25 9.25 0 00-3.21-.5 9.78 9.78 0 00-2.68.34c-.92.28-1.52.64-1.57 1.27v1.18l-2.5.35" fill="#eb5859"/><path d="M109.007 60.401a.27.27 0 000-.12v-.05l-5.95-3.24v-1.12c0-.54-.49-.89-1.2-1.18a9.46 9.46 0 00-3.21-.49h-.71l-1.82-1v.65l.82.45c-.29 0-.56.1-.83.17v-2.19c0-.55-.5-.9-1.2-1.18a9.25 9.25 0 00-3.21-.5 9.78 9.78 0 00-2.68.34c-.92.28-1.52.64-1.57 1.27v1.18l-2.5.35v.54l2.51-.35v1.5a10.3 10.3 0 00-2.64.34h.13v-2.2c0-.55-.49-.9-1.2-1.18a9.54 9.54 0 00-3.21-.49 9.41 9.41 0 00-2.68.34c-.92.27-1.52.64-1.57 1.27v1.36l-5.33.75a.19.19 0 00-.1 0v17.97a.69.69 0 000 .13l3.77 2.06 10.52 5.72a.28.28 0 00.12 0l23.58-3.31a.21.21 0 00.1 0 .14.14 0 000-.07v-17.91zm-10.51-5.71a9 9 0 013 .46c.65.24.85.54.83.63-.02.09-.27.49-1.15.73a10 10 0 01-5.52-.14c-.62-.24-.82-.51-.82-.61 0-.11.27-.48 1.15-.72a9.21 9.21 0 012.51-.35zm-9.45-3.26a9.28 9.28 0 012.52-.32 8.84 8.84 0 013 .46c.65.25.85.55.83.64-.02.09-.28.48-1.15.73a9.79 9.79 0 01-2.53.31 8.5 8.5 0 01-3-.46c-.62-.23-.83-.51-.83-.62-.02-.13.29-.5 1.16-.74zm-4.23 5a9.66 9.66 0 012.52-.31 8.74 8.74 0 013 .46c.66.24.86.54.83.63-.03.09-.27.49-1.15.73a9.25 9.25 0 01-2.52.31 8.62 8.62 0 01-3-.45c-.62-.24-.83-.52-.82-.62-.04-.18.26-.55 1.14-.79zm-8.09-2.84c0-.11.28-.48 1.16-.72a9.16 9.16 0 012.51-.32 8.74 8.74 0 013 .46c.66.24.86.54.84.63-.02.09-.27.49-1.15.73a8.91 8.91 0 01-2.52.32 9.05 9.05 0 01-3-.46c-.63-.24-.83-.51-.83-.61zm-5 2.56l4.36-.61v1.34c0 .54.5.9 1.21 1.17a9.15 9.15 0 003.2.5 10.31 10.31 0 002.55-.3v2.17c0 .55.49.9 1.2 1.18a9.49 9.49 0 003.21.5 9.83 9.83 0 002.68-.34c.93-.28 1.53-.64 1.57-1.28v-3.3a9.9 9.9 0 002.5-.3v2.2c0 .54.49.9 1.2 1.17a9.25 9.25 0 003.21.5 10.3 10.3 0 002.68-.33c.92-.29 1.53-.65 1.57-1.29v-1.52l4.9 2.67-22.6 3.18zm36.7 21.9c-.08.06-23 3.23-23 3.23v-17.31l23-3.23z" fill="#c91a20"/><path d="M84.807 35.631c0-.55-.49-.9-1.2-1.18a9.54 9.54 0 00-3.21-.49 9.41 9.41 0 00-2.68.34c-.92.27-1.52.64-1.57 1.27v1.36l-5.33.75a.19.19 0 00-.1 0v17.97a.69.69 0 000 .13l3.71 2.4 10.52 5.72a.28.28 0 00.12 0l23.58-3.31h.1a.14.14 0 000-.07v-17.92a.27.27 0 000-.12v-.05l-5.95-3.24v-1.12c0-.55-.49-.9-1.2-1.17a9.21 9.21 0 00-3.21-.5h-.71l-1.82-1v-1.12c0-.55-.5-.9-1.2-1.18a9.25 9.25 0 00-3.21-.5 9.78 9.78 0 00-2.68.34c-.92.28-1.52.64-1.57 1.27v1.18l-2.5.35" fill="#eb5859"/><path d="M109.007 42.431a.27.27 0 000-.12v-.05l-5.95-3.24v-1.12c0-.55-.49-.9-1.2-1.17a9.21 9.21 0 00-3.21-.5h-.71l-1.82-1v.65l.82.45a7.17 7.17 0 00-.83.17v-2.19c0-.55-.5-.9-1.2-1.18a9.25 9.25 0 00-3.21-.5 9.78 9.78 0 00-2.68.34c-.92.28-1.52.64-1.57 1.27v1.18l-2.5.35v.51l2.51-.35v1.5a9.87 9.87 0 00-2.64.34h.13v-2.2c0-.55-.49-.9-1.2-1.18a9.54 9.54 0 00-3.21-.49 9.41 9.41 0 00-2.68.34c-.92.27-1.52.64-1.57 1.27v1.36l-5.33.75a.19.19 0 00-.1 0v17.97a.69.69 0 000 .13l3.57 2.46 10.52 5.72a.28.28 0 00.12 0l23.58-3.31h.1a.14.14 0 000-.07v-17.92zm-10.51-5.71a8.76 8.76 0 013 .46c.65.24.85.54.83.63-.02.09-.27.49-1.15.73a9.23 9.23 0 01-2.52.32 9.05 9.05 0 01-3-.46c-.62-.24-.82-.51-.82-.61 0-.12.27-.48 1.15-.72a9.21 9.21 0 012.51-.35zm-9.45-3.26a9.28 9.28 0 012.52-.32 8.84 8.84 0 013 .46c.65.25.85.55.83.64-.02.09-.28.48-1.15.73a9.79 9.79 0 01-2.53.31 8.5 8.5 0 01-3-.46c-.62-.23-.83-.51-.83-.62-.02-.13.29-.5 1.16-.74zm-4.23 5a9.64 9.64 0 012.52-.32 8.73 8.73 0 013 .47c.66.24.86.54.83.63-.03.09-.27.49-1.15.73a9.25 9.25 0 01-2.52.31 8.62 8.62 0 01-3-.45c-.62-.24-.83-.52-.82-.62-.04-.18.26-.55 1.14-.79zm-8.09-2.84c0-.12.28-.48 1.16-.72a9.16 9.16 0 012.51-.32 8.74 8.74 0 013 .46c.66.24.86.54.84.63-.02.09-.27.49-1.15.73a9.28 9.28 0 01-2.52.32 8.8 8.8 0 01-3-.46c-.63-.24-.83-.51-.83-.61zm-5 2.56l4.36-.61v1.34c0 .54.5.9 1.21 1.17a9.15 9.15 0 003.2.5 10.31 10.31 0 002.55-.3v2.17c0 .55.49.9 1.2 1.18a9.49 9.49 0 003.21.5 9.83 9.83 0 002.68-.34c.93-.28 1.53-.65 1.57-1.28v-3.3a9.9 9.9 0 002.5-.3v2.2c0 .55.49.91 1.2 1.18a9.25 9.25 0 003.21.5 9.88 9.88 0 002.68-.34c.92-.28 1.53-.64 1.57-1.28v-1.52l4.9 2.67-22.6 3.18zm36.7 21.9c-.08.06-23 3.23-23 3.23v-17.31l23-3.23z" fill="#c91a20"/><path d="M84.807 17.661c0-.55-.49-.9-1.2-1.18a9.53 9.53 0 00-3.21-.5 9.4 9.4 0 00-2.68.35c-.92.27-1.52.64-1.57 1.27v1.37l-5.33.74h-.1a.09.09 0 000 .05v17.95a.51.51 0 000 .13v.05l3.77 2.06 10.52 5.71a.28.28 0 00.12 0l23.58-3.31h.1a.19.19 0 000-.07v-17.92a.27.27 0 000-.12l-5.95-3.23v-1.12c0-.55-.49-.9-1.2-1.18a9.46 9.46 0 00-3.21-.49h-.71l-1.82-1v-.94c0-.55-.5-.9-1.2-1.18a9.25 9.25 0 00-3.21-.5 10.19 10.19 0 00-2.68.33c-.92.28-1.52.65-1.57 1.28v1.17l-2.5.35" fill="#eb5859"/><path d="M109.007 24.461a.27.27 0 000-.12l-5.95-3.23v-1.12c0-.55-.49-.9-1.2-1.18a9.46 9.46 0 00-3.21-.49h-.71l-1.82-1v.65l.82.45a7.17 7.17 0 00-.83.17v-2.2c0-.55-.5-.9-1.2-1.18a9.25 9.25 0 00-3.21-.5 10.19 10.19 0 00-2.68.33c-.92.28-1.52.65-1.57 1.28v1.17l-2.5.35v.6l2.51-.35v1.49a9.49 9.49 0 00-2.64.34h.13v-2.19c0-.55-.49-.9-1.2-1.18a9.53 9.53 0 00-3.21-.5 9.4 9.4 0 00-2.68.35c-.92.27-1.52.64-1.57 1.27v1.37l-5.33.74h-.1a.09.09 0 000 .05v17.95a.51.51 0 000 .13v.05l3.77 2.06 10.52 5.71a.28.28 0 00.12 0l23.58-3.31h.1a.19.19 0 000-.07v-17.92zm-10.51-5.71a9 9 0 013 .45c.65.25.85.55.83.64-.02.09-.27.48-1.15.73a9.23 9.23 0 01-2.52.32 9.05 9.05 0 01-3-.46c-.62-.24-.82-.51-.82-.62 0-.12.27-.49 1.15-.73a9.63 9.63 0 012.51-.33zm-9.45-3.27a9.71 9.71 0 012.52-.31 8.84 8.84 0 013 .46c.65.25.85.54.83.64-.02.1-.28.48-1.15.73a9.79 9.79 0 01-2.53.31 8.74 8.74 0 01-3-.46c-.62-.23-.83-.51-.83-.62-.02-.13.29-.5 1.16-.75zm-4.23 5a9.23 9.23 0 012.52-.32 9 9 0 013 .46c.66.25.86.55.83.64-.03.09-.27.49-1.15.73a9.66 9.66 0 01-2.52.31 8.86 8.86 0 01-3-.45c-.62-.24-.83-.52-.82-.62-.04-.17.26-.54 1.14-.78zm-8.09-2.85c0-.12.28-.49 1.16-.73a9.17 9.17 0 012.51-.31 9 9 0 013 .45c.66.25.86.55.84.64-.02.09-.27.48-1.15.73a9.28 9.28 0 01-2.52.32 9.05 9.05 0 01-3-.46c-.63-.24-.83-.51-.83-.62zm-5 2.57l4.36-.61v1.34c0 .55.5.91 1.21 1.18a9.15 9.15 0 003.2.5 10.31 10.31 0 002.55-.3v2.17c0 .55.49.9 1.2 1.18a9.49 9.49 0 003.21.5 9.83 9.83 0 002.68-.34c.93-.28 1.53-.65 1.57-1.28v-3.3a9.9 9.9 0 002.5-.3v2.2c0 .55.49.91 1.2 1.18a9.25 9.25 0 003.21.5 9.88 9.88 0 002.68-.34c.92-.28 1.53-.64 1.57-1.28v-1.52l4.9 2.67-22.6 3.18zm36.7 21.91c-.08 0-23 3.22-23 3.22v-17.3l23-3.23z" fill="#c91a20"/><path d="M61.247 92.861c0-.55-.49-.9-1.21-1.18a10.75 10.75 0 00-5.89-.15c-.91.27-1.51.64-1.56 1.27v1.36l-5.32.75a.45.45 0 00-.11 0 .14.14 0 010 .07v17.9a.69.69 0 000 .13l3.77 2 10.5 6.12a.33.33 0 00.13 0l23.58-3.31h.11a.14.14 0 000-.06v-17.92a.25.25 0 000-.12v-.05l-6-3.24v-1.12c0-.54-.49-.89-1.2-1.17a9.25 9.25 0 00-3.21-.5h-.71l-1.82-1v-.92c0-.55-.5-.9-1.21-1.18a9.19 9.19 0 00-3.2-.5 9.78 9.78 0 00-2.68.34c-.92.28-1.53.64-1.58 1.27v1.18l-2.51.35" fill="#eb5859"/><path d="M85.427 99.661a.25.25 0 000-.12v-.05l-6-3.24v-1.12c0-.54-.49-.89-1.2-1.17a9.25 9.25 0 00-3.21-.5h-.71l-1.82-1v.65l.83.45c-.29 0-.57.1-.83.17v-2.19c0-.55-.5-.9-1.21-1.18a9.19 9.19 0 00-3.2-.5 9.78 9.78 0 00-2.68.34c-.92.28-1.53.64-1.58 1.27v1.18l-2.51.35v.59l2.5-.35v1.52a10.43 10.43 0 00-2.65.34h.14v-2.2c0-.55-.49-.9-1.21-1.18a10.75 10.75 0 00-5.89-.15c-.91.27-1.51.64-1.56 1.27v1.36l-5.32.75a.45.45 0 00-.11 0 .14.14 0 010 .07v17.9a.69.69 0 000 .13l3.77 2 10.45 6.08a.33.33 0 00.13 0l23.58-3.31h.11a.14.14 0 000-.06v-17.92zm-10.5-5.71a8.7 8.7 0 013 .46c.66.24.86.54.84.63-.02.09-.27.49-1.15.73a9.28 9.28 0 01-2.52.32 8.76 8.76 0 01-3-.46c-.63-.24-.83-.51-.83-.61 0-.12.28-.48 1.16-.72a9.16 9.16 0 012.51-.35zm-9.45-3.26a9.23 9.23 0 012.52-.32 8.74 8.74 0 013 .46c.66.25.86.55.83.64-.03.09-.27.48-1.15.73a9.71 9.71 0 01-2.52.31 8.6 8.6 0 01-3-.46c-.62-.23-.83-.51-.82-.62-.03-.15.27-.5 1.15-.74zm-4.24 5a9.75 9.75 0 012.52-.32 8.83 8.83 0 013 .47c.65.24.85.54.83.63-.02.09-.28.49-1.15.73a9.32 9.32 0 01-2.53.31 8.56 8.56 0 01-3-.45c-.62-.24-.83-.52-.83-.62 0-.16.35-.55 1.17-.79zm-8.08-2.84c0-.12.28-.48 1.15-.72a9.26 9.26 0 012.51-.32 8.76 8.76 0 013 .46c.66.24.85.54.83.63-.02.09-.27.49-1.14.73a9.36 9.36 0 01-2.53.32 8.74 8.74 0 01-3-.46c-.63-.24-.83-.51-.83-.61zm-5 2.56l4.37-.61v1.34c0 .55.5.9 1.2 1.17a9.21 9.21 0 003.21.5 10.23 10.23 0 002.54-.3v2.17c0 .55.49.9 1.2 1.18a9.39 9.39 0 003.2.5 9.91 9.91 0 002.69-.34c.92-.28 1.53-.64 1.57-1.28v-3.3a9.93 9.93 0 002.51-.3v2.17c0 .54.5.9 1.21 1.17a9.15 9.15 0 003.2.5 9.91 9.91 0 002.69-.34c.92-.28 1.52-.64 1.57-1.28v-1.52l4.9 2.67-22.59 3.17zm36.67 21.87c-.09.06-23 3.23-23 3.23v-17.31l23-3.23s-.01 17.23 0 17.31z" fill="#c91a20"/><path d="M61.247 56.921c0-.55-.49-.9-1.21-1.18a9.46 9.46 0 00-3.21-.49 9.89 9.89 0 00-2.68.33c-.91.28-1.51.65-1.56 1.28v1.35l-5.32.75h-.11a.1.1 0 000 .05.14.14 0 010 .06v17.89a.51.51 0 000 .13v.05l3.77 2.06 10.5 5.98a.33.33 0 00.13 0l23.58-3.31h.11a.11.11 0 000-.06v-17.91a.23.23 0 000-.12l-6-3.24v-1.12c0-.55-.49-.9-1.2-1.18a9.49 9.49 0 00-3.21-.5h-.71l-1.82-1v-.93c0-.55-.5-.9-1.21-1.18a9.19 9.19 0 00-3.2-.5 10.19 10.19 0 00-2.68.33c-.92.28-1.53.65-1.58 1.28v1.17l-2.51.35" fill="#eb5859"/><path d="M85.427 63.721a.23.23 0 000-.12l-6-3.24v-1.12c0-.55-.49-.9-1.2-1.18a9.49 9.49 0 00-3.21-.5h-.71l-1.82-1v.65l.83.45a6.76 6.76 0 00-.83.17v-2.2c0-.55-.5-.9-1.21-1.18a9.19 9.19 0 00-3.2-.5 10.19 10.19 0 00-2.68.33c-.92.28-1.53.65-1.58 1.28v1.17l-2.51.35v.6l2.5-.35v1.5a9.61 9.61 0 00-2.65.34h.14v-2.19c0-.55-.49-.9-1.21-1.18a9.46 9.46 0 00-3.21-.49 9.89 9.89 0 00-2.68.33c-.91.28-1.51.65-1.56 1.28v1.35l-5.32.75h-.11a.1.1 0 000 .05.14.14 0 010 .06v17.89a.51.51 0 000 .13v.05l3.77 2.06 10.45 5.92a.33.33 0 00.13 0l23.58-3.31h.11a.11.11 0 000-.06v-17.91zm-10.5-5.71a9 9 0 013 .45c.66.25.86.55.84.64-.02.09-.27.48-1.15.73a9.28 9.28 0 01-2.52.32 8.75 8.75 0 01-3-.47c-.63-.23-.83-.5-.83-.61 0-.12.28-.49 1.16-.72a8.79 8.79 0 012.51-.34zm-9.45-3.27a9.66 9.66 0 012.52-.31 8.74 8.74 0 013 .46c.66.25.86.54.83.64-.03.1-.27.48-1.15.73a9.71 9.71 0 01-2.52.31 8.84 8.84 0 01-3-.46c-.62-.23-.83-.51-.82-.62-.03-.13.27-.5 1.15-.75zm-4.24 5a9.75 9.75 0 012.52-.32 8.83 8.83 0 013 .47c.65.24.85.54.83.63-.02.09-.28.49-1.15.73a9.32 9.32 0 01-2.53.31 8.54 8.54 0 01-3-.46c-.62-.23-.83-.51-.83-.61 0-.21.35-.54 1.17-.78zm-8.08-2.84c0-.12.28-.49 1.15-.72a8.88 8.88 0 012.51-.32 9 9 0 013 .45c.66.25.85.55.83.64-.02.09-.27.48-1.14.73a9.36 9.36 0 01-2.53.32 9 9 0 01-3-.46c-.63-.24-.83-.51-.83-.62zm-5 2.56l4.37-.61v1.34c0 .55.5.9 1.2 1.18a9.21 9.21 0 003.21.5 9.77 9.77 0 002.54-.31v2.18c0 .55.49.9 1.2 1.18a9.4 9.4 0 003.2.49 9.92 9.92 0 002.69-.33c.92-.28 1.53-.65 1.57-1.28v-3.3a9.93 9.93 0 002.51-.3v2.17c0 .55.5.91 1.21 1.18a9.15 9.15 0 003.2.5 9.91 9.91 0 002.69-.34c.92-.28 1.52-.64 1.57-1.28v-1.52l4.9 2.67-22.61 3.18zm36.63 21.94c-.09.06-23 3.22-23 3.22v-17.3l23-3.23s.03 17.19.04 17.28z" fill="#c91a20"/><path d="M61.247 3.001c0-.55-.49-.9-1.21-1.18a9.45 9.45 0 00-3.21-.5 9.88 9.88 0 00-2.68.34c-.91.28-1.51.64-1.56 1.27v1.35l-5.32.75h-.11a.14.14 0 010 .06v17.89a.51.51 0 000 .13l3.77 2 10.5 6.17a.31.31 0 00.13 0l23.58-3.32a.17.17 0 00.11 0 .14.14 0 000-.06V9.931a.2.2 0 000-.11.1.1 0 000-.05l-6-3.24v-1.12c0-.55-.49-.9-1.2-1.18a9.25 9.25 0 00-3.21-.5h-.71l-1.82-1v-.92c0-.54-.5-.89-1.21-1.17a9.42 9.42 0 00-3.2-.51 9.78 9.78 0 00-2.68.34c-.92.28-1.53.64-1.58 1.27v1.17l-2.51.35" fill="#eb5859"/><path d="M85.427 9.801a.2.2 0 000-.11.1.1 0 000-.05l-6-3.24v-1.12c0-.55-.49-.9-1.2-1.18a9.25 9.25 0 00-3.21-.5h-.71l-1.82-1v.66l.83.44c-.29 0-.57.11-.83.18v-2.2c0-.54-.5-.89-1.21-1.17a9.42 9.42 0 00-3.2-.51 9.78 9.78 0 00-2.68.34c-.92.28-1.53.64-1.58 1.27v1.17l-2.51.35v.59l2.5-.35v1.52a10 10 0 00-2.65.33h.14v-2.2c0-.55-.49-.9-1.21-1.18a9.45 9.45 0 00-3.21-.5 9.88 9.88 0 00-2.68.34c-.91.28-1.51.64-1.56 1.27v1.33l-5.32.75h-.11a.14.14 0 010 .06v17.89a.51.51 0 000 .13l3.77 2 10.45 6.17a.31.31 0 00.13 0l23.58-3.32a.17.17 0 00.11 0 .14.14 0 000-.06V9.931zm-10.5-5.7a9 9 0 013 .45c.66.25.86.55.84.64-.02.09-.27.48-1.15.73a9.3 9.3 0 01-2.52.31 8.76 8.76 0 01-3-.46c-.63-.23-.83-.51-.83-.61 0-.12.28-.49 1.16-.73a9.17 9.17 0 012.51-.33zm-9.45-3.27a9.66 9.66 0 012.52-.31 8.74 8.74 0 013 .46c.66.24.86.54.83.63-.03.09-.27.49-1.15.73a9.3 9.3 0 01-2.52.31 8.62 8.62 0 01-3-.45c-.62-.24-.83-.52-.82-.62-.03-.14.27-.51 1.15-.75zm-4.24 5a9.34 9.34 0 012.52-.32 8.84 8.84 0 013 .46c.65.25.85.54.83.64-.02.1-.28.48-1.15.73a9.73 9.73 0 01-2.53.31 8.78 8.78 0 01-3-.46c-.62-.23-.83-.51-.83-.62 0-.16.35-.54 1.17-.77zm-8.08-2.85c0-.12.28-.49 1.15-.73a9.27 9.27 0 012.51-.31 9 9 0 013 .45c.66.25.85.55.83.64-.02.09-.27.48-1.14.73a9.38 9.38 0 01-2.53.31 8.74 8.74 0 01-3-.46c-.63-.23-.83-.51-.83-.61zm-5 2.57l4.37-.62v1.35c0 .55.5.9 1.2 1.17a9.2 9.2 0 003.21.51 10.22 10.22 0 002.54-.31v2.18c0 .54.49.89 1.2 1.18a9.4 9.4 0 003.2.49 9.92 9.92 0 002.69-.33c.92-.29 1.53-.65 1.57-1.29v-3.3a10.4 10.4 0 002.51-.3v2.17c0 .55.5.9 1.21 1.17a9.14 9.14 0 003.2.51 9.91 9.91 0 002.69-.34c.92-.28 1.52-.64 1.57-1.29v-1.52l4.9 2.68-22.61 3.17zm36.63 21.94c-.09.05-23 3.22-23 3.22v-17.3l23-3.23s.03 17.17.04 17.28z" fill="#c91a20"/><path d="M37.667 96.161c0-.55-.49-.9-1.2-1.18a9.25 9.25 0 00-3.21-.5 9.83 9.83 0 00-2.68.34c-.92.28-1.52.64-1.56 1.27v1.36l-5.33.75a.38.38 0 00-.1 0v17.97a.27.27 0 000 .13v.05l3.76 2 10.52 5.72h.12l23.58-3.31a.21.21 0 00.1 0v-17.98a.27.27 0 000-.12v-.06h-.05l-6-3.24v-1.12c0-.55-.5-.9-1.21-1.18a9.21 9.21 0 00-3.21-.5h-.71l-1.82-1v-.92c0-.55-.49-.9-1.2-1.18a9.25 9.25 0 00-3.21-.5 9.83 9.83 0 00-2.68.34c-.92.28-1.52.64-1.57 1.27v1.17l-2.5.35" fill="#eb5859"/><path d="M61.867 102.961a.27.27 0 000-.12v-.06h-.05l-6-3.24v-1.12c0-.55-.5-.9-1.21-1.18a9.21 9.21 0 00-3.21-.5h-.71l-1.82-1v.66l.82.44c-.28.05-.56.1-.82.17v-2.23c0-.55-.49-.9-1.2-1.18a9.25 9.25 0 00-3.21-.5 9.83 9.83 0 00-2.68.34c-.92.28-1.52.64-1.57 1.27v1.17l-2.5.35v.59l2.51-.35v1.5a9.87 9.87 0 00-2.64.34h.14v-2.2c0-.55-.49-.9-1.2-1.18a9.25 9.25 0 00-3.21-.5 9.83 9.83 0 00-2.68.34c-.92.28-1.52.64-1.56 1.27v1.36l-5.33.75a.38.38 0 00-.1 0v17.97a.27.27 0 000 .13v.05l3.76 2 10.52 5.72h.12l23.58-3.31a.21.21 0 00.1 0v-17.98zm-10.51-5.68a9 9 0 013 .46c.65.24.85.54.83.64-.02.1-.27.48-1.14.73a9.38 9.38 0 01-2.53.31 8.74 8.74 0 01-3-.46c-.63-.23-.83-.51-.83-.61 0-.11.28-.48 1.15-.72a9.26 9.26 0 012.52-.35zm-9.44-3.26a9.21 9.21 0 012.51-.32 9.05 9.05 0 013 .46c.65.25.85.55.83.64-.02.09-.28.49-1.15.73a9.32 9.32 0 01-2.53.31 8.76 8.76 0 01-3-.45c-.62-.24-.83-.52-.82-.62-.02-.17.28-.49 1.16-.78zm-4.24 5a9.66 9.66 0 012.52-.31 8.84 8.84 0 013 .46c.65.24.85.54.83.64-.02.1-.28.48-1.16.73a9.68 9.68 0 01-2.52.3 8.62 8.62 0 01-3-.45c-.61-.23-.83-.51-.82-.62-.03-.2.28-.58 1.15-.82zm-8.09-2.84c0-.11.28-.48 1.16-.72a9.21 9.21 0 012.51-.32 9.05 9.05 0 013 .46c.65.24.85.54.83.64-.02.1-.27.48-1.15.73a9.3 9.3 0 01-2.52.31 8.8 8.8 0 01-3-.46c-.62-.24-.83-.51-.83-.61zm-5 2.56l4.37-.61v1.34c0 .55.49.9 1.2 1.17a9.14 9.14 0 003.2.51 10.24 10.24 0 002.55-.31v2.17c0 .55.49.9 1.2 1.18a9.25 9.25 0 003.21.5 9.91 9.91 0 002.69-.34c.92-.28 1.52-.64 1.56-1.28v-3.35a9.94 9.94 0 002.51-.29v2.16c0 .55.5.9 1.2 1.17a9.24 9.24 0 003.21.51 10.37 10.37 0 002.69-.34c.91-.29 1.52-.65 1.56-1.29v-1.52l4.91 2.67-22.61 3.18zm36.62 22c-.08 0-23 3.22-23 3.22v-17.3l23-3.24s.03 17.09.04 17.2z" fill="#c91a20"/><path d="M37.667 42.281c0-.55-.49-.9-1.2-1.18a10.75 10.75 0 00-5.89-.15c-.92.27-1.52.64-1.56 1.27v1.37l-5.33.74h-.1v17.96a.27.27 0 000 .13l3.76 2.06 10.52 5.71a.28.28 0 00.12 0l23.6-2.91h.1v-17.99a.27.27 0 000-.12v-.05l-6-3.24v-1.12c0-.55-.5-.9-1.21-1.18a9.46 9.46 0 00-3.21-.49h-.71l-1.82-1v-.93c0-.55-.49-.9-1.2-1.18a9.25 9.25 0 00-3.21-.5 10.25 10.25 0 00-2.68.33c-.92.29-1.52.65-1.57 1.28v1.17l-2.5.36" fill="#eb5859"/><path d="M61.867 49.051a.27.27 0 000-.12v-.05l-6-3.24v-1.12c0-.55-.5-.9-1.21-1.18a9.46 9.46 0 00-3.21-.49h-.71l-1.82-1v.65l.82.45a7 7 0 00-.82.17v-2.2c0-.55-.49-.9-1.2-1.18a9.25 9.25 0 00-3.21-.5 10.25 10.25 0 00-2.68.33c-.92.29-1.52.65-1.57 1.28v1.17l-2.5.36v.59l2.51-.36v1.51a9.87 9.87 0 00-2.64.34h.14v-2.18c0-.55-.49-.9-1.2-1.18a10.75 10.75 0 00-5.89-.15c-.92.27-1.52.64-1.56 1.27v1.37l-5.33.74h-.1v17.96a.27.27 0 000 .13l3.76 2.06 10.52 5.71a.28.28 0 00.12 0l23.5-2.91h.1v-17.99zm-10.51-5.71a8.76 8.76 0 013 .46c.65.24.85.54.83.63-.02.09-.27.49-1.14.73a9.36 9.36 0 01-2.53.32 9 9 0 01-3-.46c-.63-.24-.83-.51-.83-.62 0-.12.28-.49 1.15-.72a9.26 9.26 0 012.52-.34zm-9.44-3.26a9.21 9.21 0 012.51-.32 8.8 8.8 0 013 .46c.65.25.85.55.83.64-.02.09-.28.48-1.15.73a9.73 9.73 0 01-2.53.31 8.74 8.74 0 01-3-.46c-.62-.23-.83-.51-.82-.62-.02-.13.28-.54 1.16-.74zm-4.24 5a9.66 9.66 0 012.52-.31 8.84 8.84 0 013 .46c.65.24.85.54.83.63-.02.09-.28.49-1.16.73a9.25 9.25 0 01-2.52.31 8.86 8.86 0 01-3-.45c-.61-.24-.83-.52-.82-.62-.03-.18.28-.55 1.15-.79zm-8.09-2.85c0-.12.28-.49 1.16-.73a9.63 9.63 0 012.51-.31 8.8 8.8 0 013 .46c.65.24.85.54.83.63-.02.09-.27.49-1.15.73a9.28 9.28 0 01-2.51.27 9.05 9.05 0 01-3-.46c-.62-.24-.83-.51-.83-.62zm-5 2.57l4.37-.61v1.34c0 .55.49.91 1.2 1.18a9.15 9.15 0 003.2.5 10.25 10.25 0 002.55-.3v2.17c0 .55.49.9 1.2 1.18a9.49 9.49 0 003.21.5 9.91 9.91 0 002.69-.34c.92-.28 1.52-.65 1.56-1.28v-3.3a9.93 9.93 0 002.51-.3v2.17c0 .55.5.9 1.2 1.17a9.25 9.25 0 003.21.5 10.38 10.38 0 002.69-.33c.91-.29 1.52-.65 1.56-1.29v-1.52l4.91 2.67-22.61 3.18zm36.62 21.94c-.08.06-23 3.23-23 3.23v-17.31l23-3.23s.03 17.16.04 17.27z" fill="#c91a20"/><path d="M37.667 6.281c0-.55-.49-.9-1.2-1.18a9.49 9.49 0 00-3.21-.5 9.83 9.83 0 00-2.68.34c-.92.28-1.52.65-1.56 1.28v1.36l-5.33.75h-.1v18.07a.27.27 0 000 .13l3.76 2.06 10.52 5.71a.27.27 0 00.12 0l23.6-3.02a.24.24 0 00.1 0v-17.98a.24.24 0 000-.12l-6-3.23v-1.12c0-.55-.5-.9-1.21-1.18a9.45 9.45 0 00-3.21-.5h-.71l-1.82-1v-.93c0-.55-.49-.9-1.2-1.18a9.48 9.48 0 00-3.11-.76 10.24 10.24 0 00-2.68.34c-.92.28-1.52.65-1.57 1.28v1.17l-2.5.35" fill="#eb5859"/><path d="M61.867 13.111a.24.24 0 000-.12l-6-3.23v-1.12c0-.55-.5-.9-1.21-1.18a9.45 9.45 0 00-3.21-.5h-.71l-1.82-1v.65l.82.45a7 7 0 00-.82.17v-2.2c0-.55-.49-.9-1.2-1.18a9.48 9.48 0 00-3.29-.57 10.24 10.24 0 00-2.68.34c-.92.28-1.52.65-1.57 1.28v1.17l-2.5.35v.6l2.51-.36v1.5a9.49 9.49 0 00-2.64.34h.14v-2.22c0-.55-.49-.9-1.2-1.18a9.49 9.49 0 00-3.21-.5 9.83 9.83 0 00-2.68.34c-.92.28-1.52.65-1.56 1.28v1.36l-5.33.75h-.1v18.07a.27.27 0 000 .13l3.76 2.06 10.52 5.71a.27.27 0 00.12 0l23.58-3.02a.24.24 0 00.1 0v-17.98zm-10.51-5.71a9 9 0 013 .45c.65.25.85.55.83.64-.02.09-.27.48-1.14.73a9.36 9.36 0 01-2.53.32 9 9 0 01-3-.46c-.63-.24-.83-.51-.83-.62 0-.12.28-.49 1.15-.73a9.27 9.27 0 012.52-.33zm-9.44-3.27a9.63 9.63 0 012.51-.31 8.8 8.8 0 013 .46c.65.25.85.54.83.64-.02.1-.28.48-1.15.73a9.73 9.73 0 01-2.53.31 8.74 8.74 0 01-3-.46c-.62-.23-.83-.51-.82-.62-.02-.13.28-.51 1.16-.75zm-4.24 5a9.23 9.23 0 012.52-.32 9.1 9.1 0 013 .46c.65.25.85.55.83.64-.02.09-.28.49-1.16.73a9.66 9.66 0 01-2.52.31 8.86 8.86 0 01-3-.45c-.61-.24-.83-.52-.82-.62-.03-.17.28-.54 1.15-.78zm-8.09-2.85c0-.12.28-.49 1.16-.73a9.22 9.22 0 012.51-.31 9.07 9.07 0 013 .45c.65.25.85.55.83.64-.02.09-.27.48-1.15.73a9.28 9.28 0 01-2.52.32 8.79 8.79 0 01-3-.47c-.62-.23-.83-.5-.83-.61zm-5 2.57l4.37-.62v1.35c0 .55.49.9 1.2 1.18a9.15 9.15 0 003.2.5 10.25 10.25 0 002.55-.3v2.17c0 .55.49.9 1.2 1.18a9.49 9.49 0 003.21.5 9.91 9.91 0 002.69-.34c.92-.28 1.52-.65 1.56-1.28v-3.3a9.93 9.93 0 002.51-.3v2.17c0 .55.5.9 1.2 1.18a9.25 9.25 0 003.21.5 10 10 0 002.69-.34c.91-.28 1.52-.64 1.56-1.28v-1.54l4.91 2.67-22.61 3.17zm36.62 21.94c-.08 0-23 3.22-23 3.22v-17.3l23-3.23s.03 17.17.04 17.28z" fill="#c91a20"/><path d="M14.087 81.501c0-.55-.49-.9-1.2-1.18a9.21 9.21 0 00-3.21-.5 9.88 9.88 0 00-2.68.34c-.91.27-1.51.64-1.56 1.27v1.36l-5.32.75h-.11v17.96a.3.3 0 000 .13l3.77 2 10.51 5.72a.28.28 0 00.12 0l23.57-3.31a.17.17 0 00.11 0v-17.97a.5.5 0 000-.12v-.05l-6-3.24v-1.12c0-.54-.49-.89-1.2-1.17a9.25 9.25 0 00-3.21-.5h-.71l-1.82-1v-.92c0-.55-.5-.9-1.21-1.18a9.49 9.49 0 00-3.21-.5 9.71 9.71 0 00-2.67.34c-.92.28-1.53.64-1.58 1.27v1.4l-2.51.35" fill="#eb5859"/><path d="M38.287 88.281a.5.5 0 000-.12v-.05l-6-3.24v-1.12c0-.54-.49-.89-1.2-1.17a9.25 9.25 0 00-3.21-.5h-.71l-1.82-1v.65l.83.45c-.29 0-.57.1-.83.17v-2.19c0-.55-.5-.9-1.21-1.18a9.49 9.49 0 00-3.21-.5 9.71 9.71 0 00-2.67.34c-.92.28-1.53.64-1.58 1.27v1.19l-2.51.35v.59l2.5-.35v1.52a10.43 10.43 0 00-2.65.34h.14v-2.2c0-.55-.49-.9-1.2-1.18a9.21 9.21 0 00-3.21-.5 9.88 9.88 0 00-2.68.34c-.91.27-1.51.64-1.56 1.27v1.36l-5.32.75h-.11v17.96a.3.3 0 000 .13l3.77 2 10.51 5.72a.28.28 0 00.12 0l23.57-3.31a.17.17 0 00.11 0v-17.97zm-10.5-5.71a9 9 0 013 .46c.66.25.86.54.83.63-.03.09-.27.49-1.14.74a9.3 9.3 0 01-2.52.31 8.8 8.8 0 01-3-.46c-.62-.24-.83-.51-.83-.61 0-.11.28-.48 1.16-.72a9.16 9.16 0 012.5-.33zm-9.45-3.26a9.21 9.21 0 012.51-.32 8.79 8.79 0 013 .47c.66.24.85.54.83.63-.02.09-.27.49-1.15.73a9.3 9.3 0 01-2.52.31 8.86 8.86 0 01-3-.45c-.62-.24-.83-.52-.82-.62-.03-.12.24-.49 1.15-.73zm-4.23 5a9.21 9.21 0 012.51-.32 8.84 8.84 0 013 .46c.65.24.85.54.83.64-.02.1-.28.48-1.15.73a9.76 9.76 0 01-2.53.3 8.52 8.52 0 01-3-.45c-.62-.23-.83-.51-.83-.62-.01-.14.29-.52 1.17-.77zm-8.1-2.85c0-.11.29-.48 1.16-.72a9.21 9.21 0 012.51-.32 9 9 0 013 .46c.65.25.85.54.83.64-.02.1-.27.48-1.15.72a8.86 8.86 0 01-2.52.32 8.74 8.74 0 01-3-.46c-.63-.24-.84-.51-.84-.61zm-5 2.57l4.37-.62v1.34c0 .55.5.9 1.2 1.17a9.17 9.17 0 003.21.5 10.23 10.23 0 002.54-.3v2.16c0 .55.49.9 1.19 1.18a9.25 9.25 0 003.21.5 10.32 10.32 0 002.69-.33c.92-.29 1.53-.65 1.57-1.29v-3.3a9.94 9.94 0 002.51-.29v2.19c0 .55.49.9 1.2 1.17a9.15 9.15 0 003.2.5 10.32 10.32 0 002.69-.33c.92-.29 1.52-.65 1.56-1.29v-1.88.36l4.9 2.67-22.57 3.14zm36.62 21.93c-.08.06-23 3.23-23 3.23v-17.31l23-3.23s.03 17.19.04 17.3z" fill="#c91a20"/><path d="M14.087 63.531c0-.54-.49-.89-1.2-1.17a9.21 9.21 0 00-3.21-.5 9.5 9.5 0 00-2.68.34c-.91.27-1.51.64-1.56 1.27v1.36l-5.32.75a.25.25 0 00-.11 0v18.02a.3.3 0 000 .13v.05c0 .05 0 0 0 0l3.77 2 10.51 5.72a.28.28 0 00.12 0l23.57-3.31h.11a.64.64 0 000-.07v-17.91a.5.5 0 000-.12l-6-3.24v-1.12c0-.54-.49-.89-1.2-1.17a9.25 9.25 0 00-3.21-.5h-.71l-1.82-1v-.92c0-.55-.5-.9-1.21-1.18a9.49 9.49 0 00-3.21-.5 9.71 9.71 0 00-2.67.34c-.92.28-1.53.64-1.58 1.27v1.21l-2.51.35" fill="#eb5859"/><path d="M38.287 70.331a.5.5 0 000-.12l-6-3.24v-1.12c0-.54-.49-.89-1.2-1.17a9.25 9.25 0 00-3.21-.5h-.71l-1.82-1v.65l.83.45c-.29.05-.57.1-.83.17v-2.19c0-.55-.5-.9-1.21-1.18a9.49 9.49 0 00-3.21-.5 9.71 9.71 0 00-2.67.34c-.92.28-1.53.64-1.58 1.27v1.09l-2.51.35v.59l2.5-.35v1.52a10 10 0 00-2.65.33h.14v-2.2c0-.54-.49-.89-1.2-1.17a9.21 9.21 0 00-3.21-.5 9.5 9.5 0 00-2.68.34c-.91.27-1.51.64-1.56 1.27v1.36l-5.32.75a.25.25 0 00-.11 0v18.02a.3.3 0 000 .13v.05c0 .05 0 0 0 0l3.77 2 10.51 5.72a.28.28 0 00.12 0l23.57-3.31h.11a.64.64 0 000-.07v-17.91zm-10.5-5.71a9 9 0 013 .46c.66.24.86.54.83.63-.03.09-.27.49-1.14.74a9.3 9.3 0 01-2.52.31 8.8 8.8 0 01-3-.46c-.62-.23-.83-.51-.83-.62 0-.11.28-.48 1.16-.72a9.16 9.16 0 012.5-.34zm-9.45-3.26a9.21 9.21 0 012.51-.32 8.79 8.79 0 013 .47c.66.24.85.54.83.63-.02.09-.27.49-1.15.73a9.3 9.3 0 01-2.52.31 8.6 8.6 0 01-3-.46c-.62-.23-.83-.51-.82-.62-.03-.13.24-.5 1.15-.74zm-4.23 5a9.63 9.63 0 012.51-.31 8.84 8.84 0 013 .46c.65.24.85.54.83.63-.02.09-.28.49-1.15.73a9.32 9.32 0 01-2.53.31 8.52 8.52 0 01-3-.45c-.62-.23-.83-.52-.83-.62-.01-.17.29-.55 1.17-.83zm-8.1-2.84c0-.11.29-.48 1.16-.72a9.21 9.21 0 012.51-.32 9 9 0 013 .46c.65.25.85.54.83.63-.02.09-.27.49-1.15.73a8.86 8.86 0 01-2.52.32 8.74 8.74 0 01-3-.46c-.63-.24-.84-.51-.84-.61zm-5 2.56l4.37-.61v1.34c0 .55.5.9 1.2 1.17a9.17 9.17 0 003.21.5 10.23 10.23 0 002.54-.3v2.1c0 .55.49.9 1.19 1.18a9.49 9.49 0 003.21.5 10.32 10.32 0 002.69-.33c.92-.29 1.53-.65 1.57-1.29v-3.3a10.42 10.42 0 002.51-.29v2.19c0 .55.49.9 1.2 1.17a9.15 9.15 0 003.2.5 10.32 10.32 0 002.69-.33c.92-.29 1.52-.65 1.56-1.29v-1.89.37l4.9 2.67-22.61 3.18zm36.62 22c-.08 0-23 3.22-23 3.22v-17.31l23-3.23s.03 17.11.04 17.23z" fill="#c91a20"/><path d="M14.087 45.561c0-.55-.49-.9-1.2-1.17a9.21 9.21 0 00-3.21-.5 9.5 9.5 0 00-2.68.34c-.91.27-1.51.64-1.56 1.27v1.36l-5.32.75a.45.45 0 00-.11 0v17.97a.3.3 0 000 .13l3.77 2.06 10.51 5.72a.28.28 0 00.12 0l23.57-3.31h.11a.64.64 0 000-.07v-17.91a.5.5 0 000-.12l-6-3.24v-1.12c0-.55-.49-.9-1.2-1.17a9.25 9.25 0 00-3.21-.5h-.71l-1.82-1v-.92c0-.55-.5-.9-1.21-1.18a9.25 9.25 0 00-3.21-.5 9.71 9.71 0 00-2.67.34c-.92.28-1.53.64-1.58 1.27v1.22l-2.51.35" fill="#eb5859"/><path d="M38.287 52.361a.5.5 0 000-.12l-6-3.24v-1.12c0-.55-.49-.9-1.2-1.17a9.25 9.25 0 00-3.21-.5h-.71l-1.82-1v.65l.83.45c-.29.05-.57.1-.83.17v-2.19c0-.55-.5-.9-1.21-1.18a9.25 9.25 0 00-3.21-.5 9.71 9.71 0 00-2.67.34c-.92.28-1.53.64-1.58 1.27v1.06l-2.51.35v.65l2.5-.35v1.52a10.43 10.43 0 00-2.65.34h.14v-2.2c0-.55-.49-.9-1.2-1.17a9.21 9.21 0 00-3.21-.5 9.5 9.5 0 00-2.68.34c-.91.27-1.51.64-1.56 1.27v1.36l-5.32.75a.45.45 0 00-.11 0v17.97a.3.3 0 000 .13l3.77 2.06 10.51 5.72a.28.28 0 00.12 0l23.57-3.31h.11a.64.64 0 000-.07v-17.91zm-10.5-5.71a8.7 8.7 0 013 .46c.66.24.86.54.83.63-.03.09-.27.49-1.14.73a9.28 9.28 0 01-2.52.32 8.8 8.8 0 01-3-.46c-.62-.24-.83-.51-.83-.61 0-.12.28-.48 1.16-.72a9.16 9.16 0 012.5-.35zm-9.45-3.26a9.21 9.21 0 012.51-.32 8.8 8.8 0 013 .46c.66.25.85.55.83.64-.02.09-.27.48-1.15.73a9.3 9.3 0 01-2.52.31 8.86 8.86 0 01-3-.45c-.62-.24-.83-.52-.82-.63-.03-.13.24-.5 1.15-.74zm-4.23 5a9.63 9.63 0 012.51-.31 8.84 8.84 0 013 .46c.65.24.85.54.83.64-.02.1-.28.48-1.15.73a9.76 9.76 0 01-2.53.3 8.52 8.52 0 01-3-.45c-.62-.23-.83-.52-.83-.62-.01-.18.29-.55 1.17-.79zm-8.1-2.84c0-.12.29-.48 1.16-.72a9.21 9.21 0 012.51-.32 8.76 8.76 0 013 .46c.65.24.85.54.83.63-.02.09-.27.49-1.15.73a9.23 9.23 0 01-2.52.32 8.74 8.74 0 01-3-.46c-.63-.24-.84-.51-.84-.61zm-5 2.56l4.37-.61v1.34c0 .56.5.91 1.2 1.18a9.16 9.16 0 003.21.51 10.22 10.22 0 002.54-.31v2.17c0 .55.49.9 1.19 1.18a9.49 9.49 0 003.21.5 9.91 9.91 0 002.69-.34c.92-.28 1.53-.64 1.57-1.28v-3.3a.07.07 0 000-.05 9.93 9.93 0 002.51-.3v2.2c0 .56.49.91 1.2 1.18a9.14 9.14 0 003.2.51 10.31 10.31 0 002.69-.34c.92-.28 1.52-.65 1.56-1.29v-1.89.37l4.9 2.67-22.61 3.18zm36.62 22c-.08 0-23 3.22-23 3.22v-17.31l23-3.23s.03 17.11.04 17.23z" fill="#c91a20"/><path d="M14.087 27.591c0-.55-.49-.9-1.2-1.18a10.75 10.75 0 00-5.89-.15c-.91.27-1.51.64-1.56 1.27v1.36l-5.32.74h-.11v17.97a.25.25 0 000 .12l3.77 2.06 10.51 5.72a.28.28 0 00.12 0l23.57-3.31h.11v-17.99a.5.5 0 000-.12v-.05l-6-3.24v-1.01c0-.55-.49-.9-1.2-1.18a9.5 9.5 0 00-3.21-.49h-.71l-1.82-1v-.92c0-.55-.5-.9-1.21-1.18a9.25 9.25 0 00-3.21-.5 9.71 9.71 0 00-2.67.34c-.92.28-1.53.64-1.58 1.27v1.18l-2.51.35" fill="#eb5859"/><path d="M38.287 34.391a.5.5 0 000-.12v-.05l-6-3.24v-1.2c0-.55-.49-.9-1.2-1.18a9.5 9.5 0 00-3.21-.49h-.71l-1.82-1v.65l.83.45c-.29 0-.57.1-.83.17v-2.19c0-.55-.5-.9-1.21-1.18a9.25 9.25 0 00-3.21-.5 9.71 9.71 0 00-2.67.34c-.92.28-1.53.64-1.58 1.27v1.18l-2.51.35v.63l2.5-.35v1.5a10.43 10.43 0 00-2.65.34h.14v-2.2c0-.55-.49-.9-1.2-1.18a10.75 10.75 0 00-5.89-.15c-.91.27-1.51.64-1.56 1.27v1.36l-5.32.74h-.11v17.97a.25.25 0 000 .12l3.77 2.06 10.51 5.72a.28.28 0 00.12 0l23.57-3.31h.11v-17.99zm-10.5-5.71a9 9 0 013 .45c.66.25.86.55.83.64-.03.09-.27.49-1.14.73a9.28 9.28 0 01-2.52.32 9.05 9.05 0 01-3-.46c-.62-.24-.83-.51-.83-.61 0-.12.28-.48 1.16-.72a9.16 9.16 0 012.5-.35zm-9.45-3.26a9.21 9.21 0 012.51-.32 8.8 8.8 0 013 .46c.66.25.85.54.83.64-.02.1-.27.48-1.15.73a9.71 9.71 0 01-2.52.31 8.6 8.6 0 01-3-.46c-.62-.23-.83-.51-.82-.62-.03-.13.24-.5 1.15-.74zm-4.23 5a9.21 9.21 0 012.51-.32 9.1 9.1 0 013 .46c.65.25.85.55.83.64-.02.09-.28.49-1.15.73a9.32 9.32 0 01-2.53.31 8.52 8.52 0 01-3-.45c-.62-.24-.83-.52-.83-.62-.01-.18.29-.55 1.17-.79zm-8.1-2.84c0-.12.29-.48 1.16-.72a9.21 9.21 0 012.51-.32 8.76 8.76 0 013 .46c.65.24.85.54.83.63-.02.09-.27.49-1.15.73a9.23 9.23 0 01-2.52.32 9 9 0 01-3-.46c-.63-.24-.84-.51-.84-.62zm-5 2.56l4.37-.61v1.34c0 .55.5.91 1.2 1.18a9.17 9.17 0 003.21.5 10.23 10.23 0 002.54-.3v2.17c0 .55.49.9 1.19 1.18a9.49 9.49 0 003.21.5 9.91 9.91 0 002.69-.34c.92-.28 1.53-.65 1.57-1.28v-3.3a9.93 9.93 0 002.51-.3v2.2c0 .55.49.91 1.2 1.18a9.15 9.15 0 003.2.5 9.91 9.91 0 002.69-.34c.92-.28 1.52-.64 1.56-1.28v-1.89.37l4.9 2.67-22.61 3.18zm36.62 21.94c-.08.06-23 3.23-23 3.23v-17.31l23-3.23s.03 17.16.04 17.27z" fill="#c91a20"/><path d="M123.217 94.281c0-.55-.5-.9-1.21-1.18a9.5 9.5 0 00-3.21-.49 9.89 9.89 0 00-2.68.33c-.91.28-1.52.65-1.56 1.27v1.36l-5.32.75h-.11v18a.27.27 0 000 .13l3.77 2.05 10.51 5.72a.28.28 0 00.12 0l23.6-2.94h.11v-17.99a.43.43 0 000-.12l-5.95-3.23v-1.12c0-.55-.49-.9-1.21-1.18a9.43 9.43 0 00-3.2-.5h-.71l-1.82-1v-.92c0-.55-.49-.9-1.2-1.18a9.25 9.25 0 00-3.21-.5 10.25 10.25 0 00-2.68.33c-.91.28-1.52.65-1.57 1.28v1.17l-2.51.35" fill="#eb5859"/><path d="M147.427 101.111a.43.43 0 000-.12l-5.95-3.23v-1.12c0-.55-.49-.9-1.21-1.18a9.43 9.43 0 00-3.2-.5h-.71l-1.82-1v.66l.82.45a6.6 6.6 0 00-.82.17v-2.2c0-.55-.49-.9-1.2-1.18a9.25 9.25 0 00-3.21-.5 10.25 10.25 0 00-2.68.33c-.91.28-1.52.65-1.57 1.28v1.17l-2.51.35v.6l2.5-.36v1.52a9.54 9.54 0 00-2.64.34h.14v-2.19c0-.55-.5-.9-1.21-1.18a9.5 9.5 0 00-3.21-.49 9.89 9.89 0 00-2.68.33c-.91.28-1.52.65-1.56 1.27v1.36l-5.32.75h-.11v18a.27.27 0 000 .13l3.77 2.05 10.51 5.72a.28.28 0 00.12 0l23.45-3.06h.11v-17.99zm-10.5-5.71a8.7 8.7 0 013 .46c.66.24.86.54.84.63-.02.09-.27.48-1.15.73a9.31 9.31 0 01-2.53.32 8.73 8.73 0 01-3-.47c-.63-.23-.83-.51-.83-.61 0-.12.28-.49 1.16-.73a9.58 9.58 0 012.49-.33zm-9.45-3.27a9.63 9.63 0 012.51-.31 8.8 8.8 0 013 .46c.65.25.85.54.83.64-.02.1-.27.48-1.15.73a9.71 9.71 0 01-2.52.31 8.8 8.8 0 01-3-.46c-.62-.23-.83-.51-.82-.62-.05-.13.25-.51 1.1-.75zm-4.24 5a9.34 9.34 0 012.52-.32 8.84 8.84 0 013 .46c.65.25.85.55.83.64-.02.09-.28.49-1.15.73a9.79 9.79 0 01-2.53.31 8.5 8.5 0 01-3-.46c-.62-.23-.83-.51-.83-.61-.03-.17.27-.54 1.14-.78zm-8.11-2.85c0-.12.28-.49 1.16-.73a9.27 9.27 0 012.51-.31 9 9 0 013 .45c.65.25.85.55.83.64-.02.09-.27.48-1.15.73a9.25 9.25 0 01-2.52.31 8.74 8.74 0 01-3-.46c-.63-.23-.84-.5-.84-.61zm-5 2.57l4.37-.61v1.34c0 .55.5.9 1.2 1.18a9.17 9.17 0 003.21.5 10.23 10.23 0 002.54-.3v2.17c0 .55.49.9 1.2 1.18a9.4 9.4 0 003.2.49 9.79 9.79 0 002.68-.33c.93-.29 1.54-.65 1.58-1.29v-3.29a9.93 9.93 0 002.51-.3v2.17c0 .55.5.91 1.21 1.18a9.39 9.39 0 003.2.5 9.91 9.91 0 002.69-.34c.92-.28 1.52-.64 1.56-1.28v-1.89.35l4.9 2.67-22.61 3.18zm36.62 21.94c-.08 0-23 3.22-23 3.22v-17.3l23-3.23.04 17.28z" fill="#c91a20"/><path d="M99.627 79.661c0-.55-.49-.9-1.2-1.18a9.25 9.25 0 00-3.21-.5 9.83 9.83 0 00-2.68.34c-.92.27-1.52.64-1.57 1.27v1.36l-5.33.75h-.1v17.96a.31.31 0 000 .13v.05l3.76 2 10.52 5.72a.28.28 0 00.12 0l23.57-3.32a.21.21 0 00.11 0v-17.97a.2.2 0 000-.11l-6-3.24v-1.12c0-.54-.49-.89-1.2-1.17a9.21 9.21 0 00-3.21-.5h-.71l-1.82-1v-.85c0-.54-.5-.9-1.2-1.18a9.49 9.49 0 00-3.21-.5 9.78 9.78 0 00-2.68.34c-.92.28-1.52.64-1.57 1.27v1.19l-2.5.35" fill="#eb5859"/><path d="M123.827 86.461a.2.2 0 000-.11l-6-3.24v-1.12c0-.54-.49-.89-1.2-1.17a9.21 9.21 0 00-3.21-.5h-.71l-1.82-1v.65l.82.45c-.28.05-.56.1-.83.17v-2.19c0-.54-.5-.9-1.2-1.18a9.49 9.49 0 00-3.21-.5 9.78 9.78 0 00-2.68.34c-.92.28-1.52.64-1.57 1.27v1.19l-2.5.35v.59l2.51-.35v1.52a9.89 9.89 0 00-2.64.33h.13v-2.2c0-.55-.49-.9-1.2-1.18a9.25 9.25 0 00-3.21-.5 9.83 9.83 0 00-2.68.34c-.92.27-1.52.64-1.57 1.27v1.36l-5.33.75h-.1v17.96a.31.31 0 000 .13v.05l3.76 2 10.52 5.72a.28.28 0 00.12 0l23.57-3.32a.21.21 0 00.11 0v-17.97zm-10.51-5.71a9 9 0 013 .46c.65.25.85.54.83.63-.02.09-.27.49-1.14.73a9 9 0 01-2.53.32 8.7 8.7 0 01-3-.46c-.63-.24-.83-.51-.83-.61 0-.11.28-.48 1.15-.72a9.26 9.26 0 012.52-.35zm-9.45-3.26a9.75 9.75 0 012.52-.32 8.83 8.83 0 013 .47c.65.24.85.54.83.63-.02.09-.28.49-1.16.73a9.25 9.25 0 01-2.52.31 8.5 8.5 0 01-3-.46c-.62-.23-.83-.51-.83-.61-.02-.14.29-.51 1.16-.75zm-4.23 5a9.66 9.66 0 012.52-.31 8.74 8.74 0 013 .46c.65.24.85.54.83.63-.02.09-.27.49-1.15.74a9.73 9.73 0 01-2.52.3 8.62 8.62 0 01-3-.45c-.61-.23-.83-.52-.82-.62-.07-.17.26-.55 1.14-.79zm-8.09-2.84c0-.11.29-.48 1.16-.72a9.21 9.21 0 012.51-.32 9.05 9.05 0 013 .46c.65.24.85.54.83.64-.02.1-.27.48-1.15.73a9.3 9.3 0 01-2.52.31 8.8 8.8 0 01-3-.46c-.62-.23-.83-.51-.83-.61zm-5 2.56l4.37-.61v1.31c0 .55.5.9 1.21 1.17a9.14 9.14 0 003.2.51 10.24 10.24 0 002.55-.31v2.18c0 .54.49.89 1.2 1.17a9.47 9.47 0 003.2.5 10.27 10.27 0 002.69-.33c.93-.29 1.53-.65 1.57-1.29v-3.3a9.91 9.91 0 002.5-.29v2.19c0 .55.49.9 1.2 1.17a9.16 9.16 0 003.21.51 10.24 10.24 0 002.68-.34c.92-.28 1.53-.65 1.57-1.29v-1.52l4.9 2.67-22.6 3.18zm36.62 22c-.08 0-23 3.22-23 3.22v-17.31l23-3.23s.03 17.12.04 17.23z" fill="#c91a20"/><path d="M99.627 61.691c0-.54-.49-.89-1.2-1.17a9.25 9.25 0 00-3.21-.5 9.46 9.46 0 00-2.68.34c-.92.27-1.52.64-1.57 1.27v1.36l-5.33.75h-.1v17.97a.31.31 0 000 .13l3.76 2.05 10.52 5.72a.28.28 0 00.12 0l23.57-3.31a.21.21 0 00.11 0v-17.97a.27.27 0 000-.12.21.21 0 000-.06h-.06l-6-3.24v-1.03c0-.54-.49-.89-1.2-1.17a9.21 9.21 0 00-3.21-.5h-.71l-1.82-1v-.93c0-.55-.5-.9-1.2-1.18a9.49 9.49 0 00-3.21-.5 9.78 9.78 0 00-2.68.34c-.92.28-1.52.64-1.57 1.27v1.18l-2.5.35" fill="#eb5859"/><path d="M123.827 68.491a.27.27 0 000-.12.21.21 0 000-.06h-.06l-6-3.24v-1.19c0-.54-.49-.89-1.2-1.17a9.21 9.21 0 00-3.21-.5h-.71l-1.82-1v.65l.82.45c-.28.05-.56.1-.83.17v-2.19c0-.55-.5-.9-1.2-1.18a9.49 9.49 0 00-3.21-.5 9.78 9.78 0 00-2.68.34c-.92.28-1.52.64-1.57 1.27v1.18l-2.5.35v.59l2.51-.35v1.52a10.3 10.3 0 00-2.64.34h.13v-2.2c0-.54-.49-.89-1.2-1.17a9.25 9.25 0 00-3.21-.5 9.46 9.46 0 00-2.68.34c-.92.27-1.52.64-1.57 1.27v1.36l-5.33.75h-.1v17.97a.31.31 0 000 .13l3.76 2.05 10.52 5.72a.28.28 0 00.12 0l23.57-3.31a.21.21 0 00.11 0v-17.97zm-10.51-5.71a8.76 8.76 0 013 .46c.65.25.85.54.83.63-.02.09-.27.49-1.14.73a9 9 0 01-2.53.32 8.7 8.7 0 01-3-.46c-.63-.23-.83-.51-.83-.61 0-.11.28-.48 1.15-.72a9.26 9.26 0 012.52-.35zm-9.45-3.26a9.34 9.34 0 012.52-.32 8.83 8.83 0 013 .47c.65.24.85.54.83.63-.02.09-.28.49-1.16.73a9.25 9.25 0 01-2.52.31 8.76 8.76 0 01-3-.45c-.62-.24-.83-.52-.83-.62-.02-.14.29-.51 1.16-.75zm-4.23 5a9.23 9.23 0 012.52-.32 8.74 8.74 0 013 .46c.65.24.85.54.83.64-.02.1-.27.48-1.15.73a9.73 9.73 0 01-2.52.3 8.62 8.62 0 01-3-.45c-.61-.23-.83-.52-.82-.62-.07-.16.26-.54 1.14-.77zm-8.09-2.85c0-.12.29-.48 1.16-.72a9.21 9.21 0 012.51-.32 9.05 9.05 0 013 .46c.65.25.85.54.83.63-.02.09-.27.49-1.15.73a8.91 8.91 0 01-2.52.32 8.8 8.8 0 01-3-.46c-.62-.23-.83-.51-.83-.61zm-5 2.56l4.37-.61v1.31c0 .55.5.9 1.21 1.17a9.14 9.14 0 003.2.51 10.24 10.24 0 002.55-.31v2.17c0 .55.49.9 1.2 1.18a9.47 9.47 0 003.2.5 9.87 9.87 0 002.69-.33c.93-.29 1.53-.65 1.57-1.29v-3.3a10.39 10.39 0 002.5-.29v2.19c0 .55.49.9 1.2 1.17a9.16 9.16 0 003.21.51 10.24 10.24 0 002.68-.34c.92-.28 1.53-.65 1.57-1.29v-1.52l4.9 2.67-22.6 3.18zm36.62 21.94c-.08.06-23 3.23-23 3.23v-17.31l23-3.23s.03 17.17.04 17.28z" fill="#c91a20"/><path d="M99.627 43.721c0-.55-.49-.9-1.2-1.17a9.25 9.25 0 00-3.21-.5 9.46 9.46 0 00-2.68.34c-.92.27-1.52.64-1.57 1.27v1.36l-5.33.75a.19.19 0 00-.1 0v17.97a.31.31 0 000 .13l3.76 2.06 10.52 5.72a.28.28 0 00.12 0l23.57-3.31h.11v-17.98a.27.27 0 000-.12.21.21 0 000-.06l-6-3.24v-1.12c0-.55-.49-.9-1.2-1.17a9.21 9.21 0 00-3.21-.5h-.71l-1.82-1v-.92c0-.55-.5-.9-1.2-1.18a9.25 9.25 0 00-3.21-.5 9.78 9.78 0 00-2.68.34c-.92.28-1.52.64-1.57 1.27v1.18l-2.5.35" fill="#eb5859"/><path d="M123.827 50.521a.27.27 0 000-.12.21.21 0 000-.06l-6-3.24v-1.12c0-.55-.49-.9-1.2-1.17a9.21 9.21 0 00-3.21-.5h-.71l-1.82-1v.65l.82.45c-.28 0-.56.1-.83.17v-2.19c0-.55-.5-.9-1.2-1.18a9.25 9.25 0 00-3.21-.5 9.78 9.78 0 00-2.68.34c-.92.28-1.52.64-1.57 1.27v1.18l-2.5.35v.59l2.51-.35v1.52a10.3 10.3 0 00-2.64.34h.13v-2.2c0-.55-.49-.9-1.2-1.17a9.25 9.25 0 00-3.21-.5 9.46 9.46 0 00-2.68.34c-.92.27-1.52.64-1.57 1.27v1.36l-5.33.75a.19.19 0 00-.1 0v17.97a.31.31 0 000 .13l3.76 2.06 10.52 5.72a.28.28 0 00.12 0l23.57-3.31h.11v-17.98zm-10.51-5.71a8.76 8.76 0 013 .46c.65.24.85.54.83.63-.02.09-.27.49-1.14.73a9.36 9.36 0 01-2.53.32 8.7 8.7 0 01-3-.46c-.63-.23-.83-.51-.83-.62 0-.12.28-.48 1.15-.72a9.26 9.26 0 012.52-.34zm-9.45-3.26a9.34 9.34 0 012.56-.27 9.1 9.1 0 013 .46c.65.25.85.55.83.64-.02.09-.28.48-1.16.73a9.25 9.25 0 01-2.52.31 8.76 8.76 0 01-3-.45c-.62-.24-.83-.52-.83-.62-.06-.19.25-.56 1.12-.8zm-4.23 5a9.64 9.64 0 012.52-.32 8.73 8.73 0 013 .47c.65.24.85.54.83.64-.02.1-.27.48-1.15.72a9.3 9.3 0 01-2.52.31 8.62 8.62 0 01-3-.45c-.61-.23-.83-.52-.82-.62-.07-.18.26-.55 1.14-.79zm-8.09-2.84c0-.11.29-.48 1.16-.72a9.21 9.21 0 012.51-.32 8.8 8.8 0 013 .46c.65.24.85.54.83.63-.02.09-.27.49-1.15.73a9.28 9.28 0 01-2.52.32 8.8 8.8 0 01-3-.46c-.62-.23-.83-.51-.83-.62zm-5 2.56l4.37-.61v1.31c0 .55.5.9 1.21 1.17a9.15 9.15 0 003.2.5 10.25 10.25 0 002.55-.3v2.17c0 .55.49.9 1.2 1.18a9.23 9.23 0 003.2.5 9.85 9.85 0 002.69-.34c.93-.28 1.53-.64 1.57-1.28v-3.3a10.39 10.39 0 002.5-.29v2.19c0 .55.49.9 1.2 1.17a9.17 9.17 0 003.21.5 10.25 10.25 0 002.68-.33c.92-.28 1.53-.65 1.57-1.29v-1.52l4.9 2.67-22.6 3.18zm36.62 21.94c-.08.06-23 3.23-23 3.23v-17.31l23-3.23s.03 17.17.04 17.27z" fill="#c91a20"/><path d="M99.627 25.751c0-.55-.49-.9-1.2-1.18a10.75 10.75 0 00-5.89-.15c-.92.27-1.52.64-1.57 1.27v1.36l-5.33.75a.19.19 0 00-.1 0v17.97a.24.24 0 000 .12l3.76 2.06 10.52 5.72a.28.28 0 00.12 0l23.57-3.31h.11v-17.99a.27.27 0 000-.12v-.05l-6-3.24v-1.12c0-.55-.49-.9-1.2-1.18a9.46 9.46 0 00-3.21-.49h-.71l-1.82-1v-.93c0-.55-.5-.9-1.2-1.18a9.25 9.25 0 00-3.21-.5 9.78 9.78 0 00-2.68.34c-.92.28-1.52.64-1.57 1.27v1.18l-2.5.35" fill="#eb5859"/><path d="M123.827 32.551a.27.27 0 000-.12v-.05l-6-3.24v-1.12c0-.55-.49-.9-1.2-1.18a9.46 9.46 0 00-3.21-.49h-.71l-1.82-1v.65l.82.45a7.63 7.63 0 00-.83.17v-2.2c0-.55-.5-.9-1.2-1.18a9.25 9.25 0 00-3.21-.5 9.78 9.78 0 00-2.68.34c-.92.28-1.52.64-1.57 1.27v1.18l-2.5.35v.59l2.51-.35v1.5a10.3 10.3 0 00-2.64.34h.13v-2.2c0-.55-.49-.9-1.2-1.18a10.75 10.75 0 00-5.89-.15c-.92.27-1.52.64-1.57 1.27v1.36l-5.33.75a.19.19 0 00-.1 0v17.97a.24.24 0 000 .12l3.76 2.06 10.52 5.72a.28.28 0 00.12 0l23.57-3.31h.11v-17.99zm-10.51-5.71a8.76 8.76 0 013 .46c.65.24.85.54.83.63-.02.09-.27.49-1.14.73a9.36 9.36 0 01-2.53.32 8.7 8.7 0 01-3-.46c-.63-.24-.83-.51-.83-.62 0-.12.28-.48 1.15-.72a9.26 9.26 0 012.52-.34zm-9.45-3.26a9.34 9.34 0 012.56-.3 8.84 8.84 0 013 .46c.65.25.85.54.83.64-.02.1-.28.48-1.16.73a9.66 9.66 0 01-2.52.31 8.5 8.5 0 01-3-.46c-.62-.23-.83-.51-.83-.62-.06-.15.25-.52 1.12-.76zm-4.23 5a9.64 9.64 0 012.52-.32 8.73 8.73 0 013 .47c.65.24.85.54.83.63-.02.09-.27.49-1.15.73a9.3 9.3 0 01-2.52.31 8.62 8.62 0 01-3-.45c-.61-.24-.83-.52-.82-.62-.07-.18.26-.55 1.14-.79zm-8.09-2.84c0-.12.29-.48 1.16-.72a9.21 9.21 0 012.51-.32 8.8 8.8 0 013 .46c.65.24.85.54.83.63-.02.09-.27.49-1.15.73a9.28 9.28 0 01-2.52.32 8.8 8.8 0 01-3-.46c-.62-.24-.83-.51-.83-.62zm-5 2.56l4.37-.61v1.31c0 .56.5.91 1.21 1.18a9.15 9.15 0 003.2.5 10.25 10.25 0 002.55-.3v2.17c0 .55.49.9 1.2 1.18a9.47 9.47 0 003.2.5 9.85 9.85 0 002.69-.34c.93-.28 1.53-.65 1.57-1.28v-3.3a9.9 9.9 0 002.5-.3v2.2c0 .56.49.91 1.2 1.18a9.17 9.17 0 003.21.5 9.83 9.83 0 002.68-.34c.92-.28 1.53-.64 1.57-1.28v-1.52l4.9 2.67-22.6 3.18zm36.62 21.94c-.08.06-23 3.23-23 3.23v-17.31l23-3.23s.03 17.16.04 17.27z" fill="#c91a20"/><path d="M76.067 100.951c0-.56-.5-.9-1.21-1.19a10.71 10.71 0 00-5.88-.15c-.92.27-1.52.64-1.57 1.27v1.4l-5.33.75a.45.45 0 00-.11 0v17.97a.3.3 0 000 .13l3.77 2.05 10.51 5.72a.28.28 0 00.13 0l23.57-3.31a.25.25 0 00.11 0v-.05a.64.64 0 000-.07v-17.92a.5.5 0 000-.12v-.06h-.05l-5.85-3.09v-1.12c0-.55-.49-.89-1.2-1.17a9.29 9.29 0 00-3.21-.5h-.71l-1.82-1v-.92c0-.55-.5-.9-1.21-1.18a9.43 9.43 0 00-3.2-.5 9.73 9.73 0 00-2.68.34c-.92.28-1.53.64-1.57 1.27v1.19l-2.5.35" fill="#eb5859"/><path d="M100.257 107.751a.5.5 0 000-.12v-.06h-.05l-6.05-3.29v-1.12c0-.55-.49-.89-1.2-1.17a9.29 9.29 0 00-3.21-.5h-.71l-1.82-1v.65l.82.45a6.76 6.76 0 00-.83.17v-2.19c0-.55-.5-.9-1.21-1.18a9.43 9.43 0 00-3.2-.5 9.73 9.73 0 00-2.68.34c-.92.28-1.53.64-1.57 1.27v1.19l-2.5.35v.59l2.5-.35v1.52a10.43 10.43 0 00-2.65.34h.14v-2.2c0-.56-.5-.9-1.21-1.19a10.71 10.71 0 00-5.88-.15c-.92.27-1.52.64-1.57 1.27v1.41l-5.33.75a.45.45 0 00-.11 0v17.97a.3.3 0 000 .13l3.77 2.05 10.51 5.72a.28.28 0 00.13 0l23.57-3.31a.25.25 0 00.11 0v-.05a.64.64 0 000-.07v-17.92zm-10.5-5.71a8.76 8.76 0 013 .46c.65.24.85.54.83.63-.02.09-.27.49-1.15.73a8.91 8.91 0 01-2.52.32 8.8 8.8 0 01-3-.46c-.62-.23-.83-.51-.83-.61 0-.11.28-.48 1.16-.72a9.21 9.21 0 012.51-.35zm-9.45-3.26a9.64 9.64 0 012.52-.32 8.77 8.77 0 013 .47c.66.24.85.54.83.63-.02.09-.27.49-1.15.73a9.3 9.3 0 01-2.52.31 8.62 8.62 0 01-3-.45c-.62-.24-.83-.52-.82-.62-.04-.14.26-.51 1.14-.75zm-4.23 5a9.63 9.63 0 012.51-.31 8.8 8.8 0 013 .46c.66.24.85.54.83.64-.02.1-.28.48-1.15.73a9.73 9.73 0 01-2.52.3 8.58 8.58 0 01-3-.45c-.62-.23-.83-.51-.82-.62-.03-.18.27-.55 1.15-.79zm-8.09-2.84c0-.12.28-.48 1.15-.72a9.21 9.21 0 012.51-.32 8.76 8.76 0 013 .46c.65.24.85.54.83.64-.02.1-.27.48-1.15.73a9.25 9.25 0 01-2.52.31 8.74 8.74 0 01-3-.46c-.63-.23-.83-.51-.83-.61zm-5 2.57l4.36-.62v1.34c0 .55.5.9 1.2 1.17a9.24 9.24 0 003.21.51 10.22 10.22 0 002.54-.31v2.17c0 .55.49.9 1.19 1.18a9.53 9.53 0 003.21.5 10.32 10.32 0 002.69-.33c.92-.29 1.53-.65 1.57-1.29v-3.3a9.9 9.9 0 002.5-.3v2.17c0 .55.5.9 1.21 1.17a9.15 9.15 0 003.2.5 10.32 10.32 0 002.69-.33c.92-.28 1.52-.65 1.57-1.29v-1.52l4.9 2.67-22.6 3.17zm36.62 21.94c-.09 0-23 3.22-23 3.22v-17.31l23-3.23s.03 17.15.04 17.28z" fill="#c91a20"/><path d="M76.067 65.011c0-.55-.5-.9-1.21-1.18a10.71 10.71 0 00-5.88-.15c-.92.27-1.52.64-1.57 1.27v1.33l-5.33.75a.23.23 0 00-.11 0v17.97a.32.32 0 000 .13v.05l3.77 2.06 10.48 6.04a.28.28 0 00.13 0l23.57-3.31h.11v-17.99a.5.5 0 000-.12v-.05l-5.87-3.53v-1.12c0-.55-.49-.9-1.2-1.18a9.53 9.53 0 00-3.21-.5h-.71l-1.82-1v-.91c0-.55-.5-.9-1.21-1.18a9.19 9.19 0 00-3.2-.5 9.73 9.73 0 00-2.68.34c-.92.27-1.53.64-1.57 1.27v1.17l-2.5.36" fill="#eb5859"/><path d="M100.257 71.811a.5.5 0 000-.12v-.05l-6.1-3.36v-1.12c0-.55-.49-.9-1.2-1.18a9.53 9.53 0 00-3.21-.5h-.71l-1.82-1v.66l.82.45a6.76 6.76 0 00-.83.17v-2.19c0-.55-.5-.9-1.21-1.18a9.19 9.19 0 00-3.2-.5 9.73 9.73 0 00-2.68.34c-.92.27-1.53.64-1.57 1.27v1.17l-2.5.36v.59l2.5-.35v1.52a10 10 0 00-2.65.34h.14v-2.2c0-.55-.5-.9-1.21-1.18a10.71 10.71 0 00-5.88-.15c-.92.27-1.52.64-1.57 1.27v1.41l-5.33.75a.23.23 0 00-.11 0v17.97a.32.32 0 000 .13v.05l3.77 2.06 10.51 6.04a.28.28 0 00.13 0l23.57-3.31h.11v-17.99zm-10.5-5.71a8.76 8.76 0 013 .46c.65.24.85.54.83.63-.02.09-.27.49-1.15.73a9.28 9.28 0 01-2.52.32 8.8 8.8 0 01-3-.46c-.62-.24-.83-.51-.83-.62 0-.12.28-.48 1.16-.72a9.21 9.21 0 012.51-.34zm-9.45-3.26a9.23 9.23 0 012.52-.32 8.78 8.78 0 013 .46c.66.25.85.54.83.64-.02.1-.27.48-1.15.73a9.71 9.71 0 01-2.52.31 8.84 8.84 0 01-3-.46c-.62-.23-.83-.51-.82-.62-.04-.13.26-.5 1.14-.74zm-4.23 5a9.61 9.61 0 012.51-.32 8.79 8.79 0 013 .47c.66.24.85.54.83.63-.02.09-.28.49-1.15.73a9.3 9.3 0 01-2.52.31 8.58 8.58 0 01-3-.45c-.62-.24-.83-.52-.82-.62-.03-.18.27-.55 1.15-.79zm-8.09-2.84c0-.11.28-.48 1.15-.72a9.21 9.21 0 012.51-.32 8.76 8.76 0 013 .46c.65.24.85.54.83.63-.02.09-.27.49-1.15.73a9.23 9.23 0 01-2.52.32 8.74 8.74 0 01-3-.46c-.63-.24-.83-.51-.83-.61zm-5 2.56l4.36-.61v1.33c0 .55.5.9 1.2 1.17a9.25 9.25 0 003.21.5 10.23 10.23 0 002.54-.3v2.17c0 .55.49.9 1.19 1.18a9.53 9.53 0 003.21.5 9.91 9.91 0 002.69-.34c.92-.29 1.53-.65 1.57-1.28v-3.3a9.9 9.9 0 002.5-.3v2.17c0 .56.5.91 1.21 1.18a9.15 9.15 0 003.2.5 9.91 9.91 0 002.69-.34c.92-.28 1.52-.64 1.57-1.28v-1.53l4.9 2.67-22.6 3.18zm36.62 21.94c-.09.06-23 3.22-23 3.22v-17.3l23-3.23s.03 17.16.04 17.27z" fill="#c91a20"/><path d="M76.067 11.101c0-.55-.5-.9-1.21-1.18a9.45 9.45 0 00-3.21-.5 9.76 9.76 0 00-2.67.34c-.92.28-1.52.64-1.57 1.28v1.36l-5.33.75h-.11v17.95a.27.27 0 000 .13l3.77 2.05 10.51 5.72a.28.28 0 00.13 0l23.57-3.31h.11v-18.03a.36.36 0 000-.11v-.05l-5.95-3.23v-.99c0-.55-.49-.9-1.2-1.18a9.53 9.53 0 00-3.21-.5h-.71l-1.82-1v-.92c0-.54-.5-.89-1.21-1.17a9.42 9.42 0 00-3.2-.51 9.73 9.73 0 00-2.68.34c-.92.28-1.53.64-1.57 1.28v1.17l-2.5.36" fill="#eb5859"/><path d="M100.257 17.891a.36.36 0 000-.11v-.05l-5.95-3.23v-1.22c0-.55-.49-.9-1.2-1.18a9.53 9.53 0 00-3.21-.5h-.71l-1.82-1v.68l.82.45a6.76 6.76 0 00-.83.17v-2.2c0-.54-.5-.89-1.21-1.17a9.42 9.42 0 00-3.2-.51 9.73 9.73 0 00-2.68.34c-.92.28-1.53.64-1.57 1.28v1.17l-2.5.36v.59l2.5-.36v1.52a9.61 9.61 0 00-2.65.34h.14v-2.19c0-.55-.5-.9-1.21-1.18a9.45 9.45 0 00-3.21-.5 9.76 9.76 0 00-2.67.34c-.92.28-1.52.64-1.57 1.28v1.36l-5.33.75h-.11v17.95a.27.27 0 000 .13l3.77 2.05 10.51 5.72a.28.28 0 00.13 0l23.57-3.31h.11v-18.03zm-10.5-5.7a9 9 0 013 .45c.65.25.85.55.83.64-.02.09-.27.49-1.15.73a9.28 9.28 0 01-2.52.32 8.79 8.79 0 01-3-.47c-.62-.23-.83-.51-.83-.61 0-.12.28-.49 1.16-.73a9.22 9.22 0 012.51-.33zm-9.45-3.27a9.66 9.66 0 012.52-.31 8.78 8.78 0 013 .46c.66.24.85.54.83.63-.02.09-.27.49-1.15.73a9.3 9.3 0 01-2.52.31 8.62 8.62 0 01-3-.45c-.62-.23-.83-.52-.82-.62-.04-.13.26-.51 1.14-.75zm-4.23 5a9.21 9.21 0 012.51-.32 8.8 8.8 0 013 .46c.66.25.85.55.83.64-.02.09-.28.48-1.15.73a9.71 9.71 0 01-2.52.31 8.56 8.56 0 01-3-.46c-.62-.23-.83-.51-.82-.62-.03-.16.27-.53 1.15-.77zm-8.09-2.85c0-.12.28-.49 1.15-.73a9.22 9.22 0 012.51-.31 9 9 0 013 .45c.65.25.85.55.83.64-.02.09-.27.48-1.15.73a9.23 9.23 0 01-2.52.32 8.73 8.73 0 01-3-.47c-.63-.23-.83-.51-.83-.61zm-5 2.57l4.36-.62v1.35c0 .55.5.9 1.2 1.18a9.49 9.49 0 003.21.5 10.22 10.22 0 002.54-.31v2.18c0 .55.49.91 1.19 1.19a9.54 9.54 0 003.21.49 9.92 9.92 0 002.73-.32c.92-.29 1.53-.65 1.57-1.28v-3.3a10.38 10.38 0 002.5-.3v2.17c0 .55.5.9 1.21 1.18a9.39 9.39 0 003.2.5 9.91 9.91 0 002.69-.34c.92-.28 1.52-.64 1.57-1.29v-1.52l4.9 2.68-22.64 3.13zm36.62 21.94c-.09.05-23 3.22-23 3.22v-17.3l23-3.23s.03 17.17.04 17.28z" fill="#c91a20"/><path d="M52.487 104.281c0-.55-.49-.9-1.2-1.18a9.21 9.21 0 00-3.21-.5 9.83 9.83 0 00-2.68.34c-.92.27-1.52.64-1.57 1.27v1.36l-5.33.75a.21.21 0 00-.1 0 .14.14 0 000 .06v17.89a.27.27 0 000 .13l3.77 2 10.51 5.72h.12l23.63-2.84.1-.05v-17.97a.27.27 0 000-.12v-.06l-6-3.24v-1.11c0-.55-.49-.9-1.2-1.18a9.21 9.21 0 00-3.21-.5h-.71l-1.81-1v-.92c0-.55-.49-.9-1.2-1.18a9.49 9.49 0 00-3.21-.5 9.83 9.83 0 00-2.68.34c-.91.28-1.52.64-1.57 1.27v1.19l-2.5.35" fill="#eb5859"/><path d="M76.687 111.051a.27.27 0 000-.12v-.06l-6-3.24v-1.11c0-.55-.49-.9-1.2-1.18a9.21 9.21 0 00-3.21-.5h-.71l-1.81-1v.65l.82.45c-.28 0-.56.1-.82.17v-2.19c0-.55-.49-.9-1.2-1.18a9.49 9.49 0 00-3.21-.5 9.83 9.83 0 00-2.68.34c-.91.28-1.52.64-1.57 1.27v1.19l-2.5.35v.59l2.51-.35v1.5a10.3 10.3 0 00-2.64.34h.13v-2.2c0-.55-.49-.9-1.2-1.18a9.21 9.21 0 00-3.21-.5 9.83 9.83 0 00-2.68.34c-.92.27-1.52.64-1.57 1.27v1.36l-5.33.75a.21.21 0 00-.1 0 .14.14 0 000 .06v17.89a.27.27 0 000 .13l3.77 2 10.51 5.72h.12l23.52-2.83.1-.05v-17.97zm-10.51-5.71a9 9 0 013 .46c.66.24.85.54.83.64-.02.1-.27.48-1.14.73a9.38 9.38 0 01-2.53.31 8.74 8.74 0 01-3-.46c-.63-.23-.83-.51-.83-.61 0-.11.28-.48 1.15-.72a9.26 9.26 0 012.52-.35zm-9.44-3.26a9.63 9.63 0 012.51-.31 8.84 8.84 0 013 .46c.65.24.85.54.83.63-.02.09-.28.49-1.15.73a9.35 9.35 0 01-2.52.31 8.58 8.58 0 01-3-.45c-.62-.24-.83-.52-.82-.62-.03-.14.27-.55 1.15-.75zm-4.24 5a9.23 9.23 0 012.52-.32 8.84 8.84 0 013 .46c.65.25.85.54.82.64-.03.1-.27.48-1.15.73a9.66 9.66 0 01-2.52.31 8.74 8.74 0 01-3-.46c-.63-.23-.83-.51-.83-.62-.02-.16.29-.54 1.16-.77zm-8.07-2.88c0-.12.28-.49 1.16-.73a9.21 9.21 0 012.51-.32 9 9 0 013 .46c.65.25.85.54.83.64-.02.1-.27.48-1.15.73a9.25 9.25 0 01-2.52.31 8.8 8.8 0 01-3-.46c-.62-.23-.83-.51-.83-.61zm-5 2.57l4.36-.62v1.35c0 .55.49.9 1.2 1.18a9.41 9.41 0 003.21.5 10.22 10.22 0 002.54-.31v2.18c0 .54.49.89 1.2 1.17a9.25 9.25 0 003.21.5 10.19 10.19 0 002.68-.33c.93-.29 1.53-.65 1.58-1.28v-3.31a10.39 10.39 0 002.51-.31v2.18c0 .55.5.9 1.2 1.17a9.2 9.2 0 003.21.51 9.78 9.78 0 002.68-.34c.92-.28 1.53-.64 1.57-1.29v-1.52l4.9 2.68-22.6 3.17zm36.62 21.94c-.08.05-23 3.22-23 3.22v-17.3l23-3.23s.01 17.2.02 17.31z" fill="#c91a20"/><path d="M52.487 50.341c0-.54-.49-.89-1.2-1.18a10.75 10.75 0 00-5.89-.15c-.92.27-1.52.64-1.57 1.27v1.36l-5.33.75a.19.19 0 00-.1 0 .19.19 0 000 .07v17.9a.32.32 0 000 .13l3.77 2.06 10.51 5.72a.28.28 0 00.12 0l23.63-2.94a.21.21 0 00.1 0v-17.98a.27.27 0 000-.12v-.05l-6-3.24v-1.12c0-.55-.49-.89-1.2-1.18a9.46 9.46 0 00-3.21-.49h-.71l-1.81-1v-.92c0-.55-.49-.9-1.2-1.18a9.25 9.25 0 00-3.21-.5 9.83 9.83 0 00-2.68.34c-.91.28-1.52.64-1.57 1.27v1.18l-2.5.35" fill="#eb5859"/><path d="M76.687 57.141a.27.27 0 000-.12v-.05l-6-3.24v-1.12c0-.55-.49-.89-1.2-1.18a9.46 9.46 0 00-3.21-.49h-.71l-1.81-1v.65l.82.45c-.28 0-.56.1-.82.17v-2.19c0-.55-.49-.9-1.2-1.18a9.25 9.25 0 00-3.21-.5 9.83 9.83 0 00-2.68.34c-.91.28-1.52.64-1.57 1.27v1.18l-2.5.35v.59l2.51-.35v1.5a10.3 10.3 0 00-2.64.34h.13v-2.2c0-.54-.49-.89-1.2-1.18a10.75 10.75 0 00-5.89-.15c-.92.27-1.52.64-1.57 1.27v1.36l-5.33.75a.19.19 0 00-.1 0 .19.19 0 000 .07v17.9a.32.32 0 000 .13l3.77 2.05 10.51 5.72a.28.28 0 00.12 0l23.52-2.95a.21.21 0 00.1 0v-17.98zm-10.51-5.71a9 9 0 013 .46c.66.24.85.54.83.63-.02.09-.27.49-1.14.73a9 9 0 01-2.53.32 8.74 8.74 0 01-3-.46c-.63-.24-.83-.51-.83-.61 0-.12.28-.48 1.15-.72a9.26 9.26 0 012.52-.35zm-9.44-3.26a9.21 9.21 0 012.51-.32 8.84 8.84 0 013 .46c.65.25.85.55.83.64-.02.09-.28.49-1.15.73a9.77 9.77 0 01-2.52.31 8.56 8.56 0 01-3-.46c-.62-.23-.83-.51-.82-.61-.03-.14.27-.51 1.15-.75zm-4.24 5a9.66 9.66 0 012.52-.31 8.84 8.84 0 013 .46c.65.24.85.54.82.63-.03.09-.27.49-1.15.73a9.25 9.25 0 01-2.52.31 8.52 8.52 0 01-3-.45c-.63-.24-.83-.52-.83-.62-.02-.18.29-.55 1.16-.79zm-8.07-2.89c0-.11.28-.48 1.16-.72a9.21 9.21 0 012.51-.32 8.76 8.76 0 013 .46c.65.24.85.54.83.63-.02.09-.27.49-1.15.73a9.23 9.23 0 01-2.52.32 9.05 9.05 0 01-3-.46c-.62-.24-.83-.51-.83-.61zm-5 2.56l4.36-.61v1.34c0 .54.49.9 1.2 1.17a9.17 9.17 0 003.21.5 10.23 10.23 0 002.54-.3v2.17c0 .55.49.9 1.2 1.18a9.49 9.49 0 003.21.5 9.78 9.78 0 002.68-.34c.93-.28 1.53-.64 1.58-1.28v-3.3a9.93 9.93 0 002.51-.3v2.17c0 .54.5.9 1.2 1.17a9.21 9.21 0 003.21.5 9.78 9.78 0 002.68-.34c.92-.28 1.53-.64 1.57-1.28v-1.51l4.9 2.67-22.6 3.18zm36.62 21.94c-.08.06-23 3.23-23 3.23v-17.31l23-3.23s.01 17.21.02 17.32z" fill="#c91a20"/><path d="M52.487 14.401c0-.55-.49-.9-1.2-1.18a9.46 9.46 0 00-3.21-.49 9.84 9.84 0 00-2.68.33c-.92.28-1.52.65-1.57 1.28v1.37l-5.33.74h-.1v17.95a.27.27 0 000 .13.13.13 0 000 .05l3.77 2.06 10.51 5.71a.28.28 0 00.12 0l23.63-2.96h.1v-17.98a.27.27 0 000-.12l-6-3.24v-1.12c0-.55-.49-.9-1.2-1.18a9.46 9.46 0 00-3.21-.49h-.71l-1.81-1v-.93c0-.55-.49-.9-1.2-1.18a9.25 9.25 0 00-3.21-.5 10.25 10.25 0 00-2.68.33c-.91.28-1.52.65-1.57 1.28v1.17l-2.5.35" fill="#eb5859"/><path d="M76.687 21.201a.27.27 0 000-.12l-6-3.24v-1.12c0-.55-.49-.9-1.2-1.18a9.46 9.46 0 00-3.21-.49h-.71l-1.81-1v.65l.82.45a7 7 0 00-.82.17v-2.2c0-.55-.49-.9-1.2-1.18a9.25 9.25 0 00-3.21-.5 10.25 10.25 0 00-2.68.33c-.91.28-1.52.65-1.57 1.28v1.17l-2.5.35v.6l2.51-.35v1.49a9.49 9.49 0 00-2.64.34h.13v-2.19c0-.55-.49-.9-1.2-1.18a9.46 9.46 0 00-3.21-.49 9.84 9.84 0 00-2.68.33c-.92.28-1.52.65-1.57 1.28v1.37l-5.33.74h-.1v17.95a.27.27 0 000 .13.13.13 0 000 .05l3.77 2.06 10.51 5.71a.28.28 0 00.12 0l23.52-3.02h.1v-17.98zm-10.51-5.71a8.76 8.76 0 013 .46c.66.24.85.54.83.63-.02.09-.27.49-1.14.73a9.36 9.36 0 01-2.53.32 9 9 0 01-3-.46c-.63-.24-.83-.51-.83-.62 0-.12.28-.49 1.15-.73a9.69 9.69 0 012.52-.33zm-9.44-3.27a9.63 9.63 0 012.51-.31 8.84 8.84 0 013 .46c.65.25.85.54.83.64-.02.1-.28.48-1.15.73a9.77 9.77 0 01-2.52.31 8.8 8.8 0 01-3-.46c-.62-.23-.83-.51-.82-.62-.03-.13.27-.51 1.15-.75zm-4.24 5a9.23 9.23 0 012.52-.32 9.1 9.1 0 013 .46c.65.25.85.55.82.64-.03.09-.27.49-1.15.73a9.66 9.66 0 01-2.52.31 9 9 0 01-3-.45c-.63-.24-.83-.52-.83-.62-.02-.17.29-.54 1.16-.78zm-8.07-2.88c0-.12.28-.49 1.16-.73a9.22 9.22 0 012.51-.31 9 9 0 013 .45c.65.25.85.55.83.64-.02.09-.27.48-1.15.73a9.23 9.23 0 01-2.52.32 9.05 9.05 0 01-3-.46c-.62-.24-.83-.51-.83-.62zm-5 2.57l4.36-.61v1.34c0 .55.49.91 1.2 1.18a9.17 9.17 0 003.21.5 9.77 9.77 0 002.54-.31v2.18c0 .55.49.9 1.2 1.18a9.49 9.49 0 003.21.5 9.78 9.78 0 002.68-.34c.93-.28 1.53-.65 1.58-1.28v-3.3a9.93 9.93 0 002.51-.3v2.17c0 .55.5.9 1.2 1.18a9.21 9.21 0 003.21.5 9.78 9.78 0 002.68-.34c.92-.28 1.53-.64 1.57-1.28v-1.52l4.9 2.67-22.6 3.18zm36.62 21.94c-.08.06-23 3.22-23 3.22v-17.3l23-3.23s.01 17.2.02 17.31z" fill="#c91a20"/><path d="M28.907 89.591c0-.55-.49-.9-1.2-1.18a9.19 9.19 0 00-3.2-.5 9.53 9.53 0 00-2.69.34c-.91.27-1.51.64-1.56 1.27v1.36l-5.32.75h-.11a.14.14 0 000 .06v17.89a.27.27 0 000 .13l3.77 2.05 10.51 5.72h.17l23.57-3.32a.18.18 0 00.1 0v-18.02a.25.25 0 000-.12v-.05l-5.95-3.24v-.95c0-.55-.49-.9-1.21-1.18a9.15 9.15 0 00-3.2-.5h-.71l-1.82-1v-.92c0-.54-.5-.9-1.21-1.18a10.6 10.6 0 00-5.88-.16c-.92.28-1.53.64-1.57 1.27v1.19l-2.51.35" fill="#eb5859"/><path d="M53.107 96.391a.25.25 0 000-.12v-.05l-5.95-3.24v-1.2c0-.55-.49-.9-1.21-1.18a9.15 9.15 0 00-3.2-.5h-.71l-1.82-1v.65l.83.45a6.74 6.74 0 00-.83.18v-2.2c0-.54-.5-.9-1.21-1.18a10.6 10.6 0 00-5.88-.16c-.92.28-1.53.64-1.57 1.27v1.19l-2.51.35v.63l2.5-.35v1.52a10 10 0 00-2.65.33h.14v-2.2c0-.55-.49-.9-1.2-1.18a9.19 9.19 0 00-3.2-.5 9.53 9.53 0 00-2.69.34c-.91.27-1.51.64-1.56 1.27v1.36l-5.32.75h-.11a.14.14 0 000 .06v17.89a.27.27 0 000 .13l3.77 2.05 10.51 5.72h.17l23.57-3.32a.18.18 0 00.1 0v-18.02zm-10.5-5.7a9.07 9.07 0 013 .45c.65.25.85.54.82.64-.03.1-.26.48-1.14.73a9.3 9.3 0 01-2.52.31 8.76 8.76 0 01-3-.46c-.62-.23-.83-.51-.83-.61 0-.11.28-.48 1.16-.72a9.17 9.17 0 012.51-.34zm-9.45-3.27a9.66 9.66 0 012.52-.31 8.74 8.74 0 013 .46c.66.24.86.54.83.63-.03.09-.27.49-1.15.73a9.3 9.3 0 01-2.52.31 8.62 8.62 0 01-3-.45c-.62-.24-.83-.52-.82-.62-.04-.14.26-.51 1.14-.75zm-4.23 5a9.21 9.21 0 012.51-.32 8.84 8.84 0 013 .46c.65.25.85.54.83.64-.02.1-.28.48-1.15.73a9.79 9.79 0 01-2.53.31 8.74 8.74 0 01-3-.46c-.62-.23-.83-.51-.82-.62-.03-.17.28-.53 1.16-.77zm-8.09-2.85c0-.11.28-.48 1.15-.72a9.25 9.25 0 012.52-.31 9 9 0 013 .45c.65.25.85.54.83.64-.02.1-.27.48-1.14.73a9.38 9.38 0 01-2.53.31 8.74 8.74 0 01-3-.46c-.63-.23-.83-.51-.83-.61zm-5 2.57l4.36-.62v1.34c0 .55.5.9 1.2 1.17a9.24 9.24 0 003.21.51 10.22 10.22 0 002.54-.31v2.17c0 .56.49.91 1.19 1.18a9.29 9.29 0 003.21.5 9.92 9.92 0 002.69-.33c.92-.29 1.53-.65 1.57-1.29v-3.3a10.38 10.38 0 002.5-.3v2.17c0 .55.5.9 1.21 1.18a9.39 9.39 0 003.2.5 10.31 10.31 0 002.69-.34c.92-.28 1.52-.64 1.57-1.29v-1.52l4.91 2.68-22.61 3.17zm36.62 21.94c-.09.05-23 3.22-23 3.22v-17.31l23-3.22s.02 17.17.04 17.28z" fill="#c91a20"/><path d="M28.907 71.621c0-.55-.49-.9-1.2-1.18a9.19 9.19 0 00-3.2-.5 9.91 9.91 0 00-2.69.34c-.91.27-1.51.64-1.56 1.27v1.36l-5.32.75h-.11a.14.14 0 000 .06v17.89a.27.27 0 000 .13l3.77 2 10.51 5.72h.17l23.57-3.32a.18.18 0 00.1 0 .64.64 0 000-.07v-17.91a.25.25 0 000-.12v-.05l-5.95-3.24v-1.12c0-.55-.49-.9-1.21-1.18a9.15 9.15 0 00-3.2-.5h-.71l-1.82-1v-.67c0-.54-.5-.9-1.21-1.18a10.6 10.6 0 00-5.88-.16c-.92.28-1.53.64-1.57 1.27v1.19l-2.51.35" fill="#eb5859"/><path d="M53.107 78.421a.25.25 0 000-.12v-.05l-5.95-3.24v-1.12c0-.55-.49-.9-1.21-1.18a9.15 9.15 0 00-3.2-.5h-.71l-1.82-1v.65l.83.45c-.29 0-.57.1-.83.17v-2.19c0-.54-.5-.9-1.21-1.18a10.6 10.6 0 00-5.88-.16c-.92.28-1.53.64-1.57 1.27v1.19l-2.51.35v.52l2.5-.35v1.52a10 10 0 00-2.65.33h.14v-2.2c0-.55-.49-.9-1.2-1.18a9.19 9.19 0 00-3.2-.5 9.91 9.91 0 00-2.69.34c-.91.27-1.51.64-1.56 1.27v1.36l-5.32.75h-.11a.14.14 0 000 .06v17.89a.27.27 0 000 .13l3.77 2 10.51 5.72h.17l23.57-3.32a.18.18 0 00.1 0 .64.64 0 000-.07v-17.91zm-10.5-5.71a9.05 9.05 0 013 .46c.65.24.85.54.82.64-.03.1-.26.48-1.14.73a9.3 9.3 0 01-2.52.31 8.76 8.76 0 01-3-.46c-.62-.23-.83-.51-.83-.61 0-.11.28-.48 1.16-.72a9.16 9.16 0 012.51-.35zm-9.45-3.26a9.64 9.64 0 012.52-.32 8.73 8.73 0 013 .47c.66.24.86.54.83.63-.03.09-.27.49-1.15.73a9.3 9.3 0 01-2.52.31 8.86 8.86 0 01-3-.45c-.62-.24-.83-.52-.82-.62-.04-.14.26-.51 1.14-.75zm-4.23 5a9.63 9.63 0 012.51-.31 8.84 8.84 0 013 .46c.65.24.85.54.83.64-.02.1-.28.48-1.15.73a9.79 9.79 0 01-2.53.31 8.74 8.74 0 01-3-.46c-.62-.23-.83-.52-.82-.62-.03-.17.28-.55 1.16-.79zm-8.09-2.84c0-.11.28-.48 1.15-.72a9.23 9.23 0 012.52-.32 9 9 0 013 .46c.65.24.85.54.83.64-.02.1-.27.48-1.14.72a9 9 0 01-2.53.32 8.74 8.74 0 01-3-.46c-.63-.23-.83-.51-.83-.61zm-5 2.57l4.36-.62v1.34c0 .55.5.9 1.2 1.18a9.49 9.49 0 003.21.5 10.22 10.22 0 002.54-.31v2.18c0 .55.49.9 1.19 1.18a9.29 9.29 0 003.21.5 9.92 9.92 0 002.69-.33c.92-.29 1.53-.65 1.57-1.29v-3.3a10.39 10.39 0 002.5-.29v2.16c0 .55.5.9 1.21 1.17a9.14 9.14 0 003.2.51 10.31 10.31 0 002.69-.34c.92-.28 1.52-.65 1.57-1.29v-1.52l4.91 2.67-22.61 3.18zm36.62 21.93c-.09.06-23 3.23-23 3.23v-17.3l23-3.23s.02 17.16.04 17.26z" fill="#c91a20"/><path d="M28.907 53.651c0-.54-.49-.89-1.2-1.17a9.19 9.19 0 00-3.2-.5 9.53 9.53 0 00-2.69.34c-.91.27-1.51.64-1.56 1.27v1.36l-5.32.75h-.11a.14.14 0 000 .06v17.89a.27.27 0 000 .13.1.1 0 000 .05l3.77 2.06 10.51 5.72h.17l23.57-3.32a.18.18 0 00.1 0v-17.97a.25.25 0 000-.12v-.06l-5.95-3.24v-1.12c0-.55-.49-.89-1.21-1.17a9.15 9.15 0 00-3.2-.5h-.71l-1.82-1v-.83c0-.55-.5-.9-1.21-1.18a9.43 9.43 0 00-3.2-.5 9.73 9.73 0 00-2.68.34c-.92.28-1.53.64-1.57 1.27v1.18l-2.51.35" fill="#eb5859"/><path d="M53.107 60.451a.25.25 0 000-.12v-.06l-5.95-3.24v-1.12c0-.55-.49-.89-1.21-1.17a9.15 9.15 0 00-3.2-.5h-.71l-1.82-1v.65l.83.45a6.76 6.76 0 00-.83.17v-2.19c0-.55-.5-.9-1.21-1.18a9.43 9.43 0 00-3.2-.5 9.73 9.73 0 00-2.68.34c-.92.28-1.53.64-1.57 1.27v1.18l-2.51.35v.59l2.5-.35v1.52a10.38 10.38 0 00-2.65.34h.14v-2.2c0-.54-.49-.89-1.2-1.17a9.19 9.19 0 00-3.2-.5 9.53 9.53 0 00-2.69.34c-.91.27-1.51.64-1.56 1.27v1.36l-5.32.75h-.11a.14.14 0 000 .06v17.89a.27.27 0 000 .13.1.1 0 000 .05l3.77 2.06 10.51 5.72h.17l23.57-3.32a.18.18 0 00.1 0v-17.97zm-10.5-5.71a9.05 9.05 0 013 .46c.65.24.85.54.82.63-.03.09-.26.49-1.14.73a8.91 8.91 0 01-2.52.32 8.76 8.76 0 01-3-.46c-.62-.23-.83-.51-.83-.61 0-.11.28-.48 1.16-.72a9.16 9.16 0 012.51-.35zm-9.45-3.26a9.23 9.23 0 012.52-.32 8.73 8.73 0 013 .47c.66.24.86.54.83.63-.03.09-.27.49-1.15.73a9.3 9.3 0 01-2.52.31 8.86 8.86 0 01-3-.45c-.62-.24-.83-.52-.82-.62-.04-.14.26-.51 1.14-.75zm-4.23 5a9.63 9.63 0 012.51-.31 8.84 8.84 0 013 .46c.65.24.85.54.83.64-.02.1-.28.48-1.15.73a9.81 9.81 0 01-2.53.3 8.52 8.52 0 01-3-.45c-.62-.23-.83-.52-.82-.62-.03-.17.28-.55 1.16-.79zm-8.09-2.84c0-.11.28-.48 1.15-.72a9.23 9.23 0 012.52-.32 9 9 0 013 .46c.65.24.85.54.83.63-.02.09-.27.49-1.14.73a9 9 0 01-2.53.32 8.74 8.74 0 01-3-.46c-.63-.23-.83-.51-.83-.61zm-5 2.56l4.36-.61v1.34c0 .55.5.9 1.2 1.17a9.25 9.25 0 003.21.5 10.23 10.23 0 002.54-.3v2.17c0 .55.49.9 1.19 1.18a9.29 9.29 0 003.21.5 10.32 10.32 0 002.69-.33c.92-.29 1.53-.65 1.57-1.29v-3.35a10.39 10.39 0 002.5-.29v2.16c0 .55.5.9 1.21 1.17a9.14 9.14 0 003.2.51 10.31 10.31 0 002.69-.34c.92-.28 1.52-.65 1.57-1.29v-1.52l4.91 2.67-22.61 3.18zm36.62 22c-.09 0-23 3.22-23 3.22v-17.31l23-3.22s.02 17.11.04 17.22z" fill="#c91a20"/><path d="M28.907 35.681c0-.55-.49-.9-1.2-1.17a9.19 9.19 0 00-3.2-.5 9.53 9.53 0 00-2.69.34c-.91.27-1.51.64-1.56 1.27v1.36l-5.32.75h-.11a.19.19 0 000 .07v17.9a.32.32 0 000 .13.1.1 0 000 .05l3.77 2.06 10.51 5.72h.17l23.57-3.31h.1a.64.64 0 000-.07v-17.91a.25.25 0 000-.12l-5.95-3.24v-1.12c0-.55-.49-.9-1.21-1.18a9.4 9.4 0 00-3.2-.49h-.71l-1.82-1v-.94c0-.55-.5-.9-1.21-1.18a9.19 9.19 0 00-3.2-.5 9.73 9.73 0 00-2.68.34c-.92.28-1.53.64-1.57 1.27v1.18l-2.51.35" fill="#eb5859"/><path d="M53.107 42.481a.25.25 0 000-.12l-5.95-3.24v-1.12c0-.55-.49-.9-1.21-1.18a9.4 9.4 0 00-3.2-.49h-.71l-1.82-1v.65l.83.45c-.29.05-.57.1-.83.17v-2.19c0-.55-.5-.9-1.21-1.18a9.19 9.19 0 00-3.2-.5 9.73 9.73 0 00-2.68.34c-.92.28-1.53.64-1.57 1.27v1.18l-2.51.35v.59l2.5-.35v1.5a10.38 10.38 0 00-2.65.34h.14v-2.2c0-.55-.49-.9-1.2-1.17a9.19 9.19 0 00-3.2-.5 9.53 9.53 0 00-2.69.34c-.91.27-1.51.64-1.56 1.27v1.36l-5.32.75h-.11a.19.19 0 000 .07v17.9a.32.32 0 000 .13.1.1 0 000 .05l3.77 2.06 10.51 5.72h.17l23.57-3.31h.1a.64.64 0 000-.07v-17.91zm-10.5-5.71a8.8 8.8 0 013 .46c.65.24.85.54.82.63-.03.09-.26.49-1.14.73a9.28 9.28 0 01-2.52.32 8.76 8.76 0 01-3-.46c-.62-.23-.83-.51-.83-.62 0-.12.28-.48 1.16-.72a9.16 9.16 0 012.51-.34zm-9.45-3.26a9.23 9.23 0 012.52-.32 8.74 8.74 0 013 .46c.66.25.86.55.83.64-.03.09-.27.48-1.15.73a9.3 9.3 0 01-2.52.31 8.86 8.86 0 01-3-.45c-.62-.24-.83-.52-.82-.63-.04-.13.26-.5 1.14-.74zm-4.23 5a9.63 9.63 0 012.51-.31 8.84 8.84 0 013 .46c.65.24.85.54.83.64-.02.1-.28.48-1.15.72a9.38 9.38 0 01-2.53.31 8.52 8.52 0 01-3-.45c-.62-.23-.83-.52-.82-.62-.03-.18.28-.55 1.16-.79zm-8.09-2.84c0-.12.28-.48 1.15-.72a9.23 9.23 0 012.52-.32 8.74 8.74 0 013 .46c.65.24.85.54.83.63-.02.09-.27.49-1.14.73a9.36 9.36 0 01-2.53.32 8.74 8.74 0 01-3-.46c-.63-.24-.83-.51-.83-.61zm-5 2.56l4.36-.61v1.34c0 .55.5.9 1.2 1.17a9.25 9.25 0 003.21.5 10.23 10.23 0 002.54-.3v2.17c0 .55.49.9 1.19 1.18a9.53 9.53 0 003.21.5 9.91 9.91 0 002.69-.34c.92-.28 1.53-.64 1.57-1.28v-3.35a9.9 9.9 0 002.5-.3v2.17c0 .55.5.9 1.21 1.17a9.14 9.14 0 003.2.51 9.9 9.9 0 002.69-.35c.92-.27 1.52-.64 1.57-1.28v-1.52l4.91 2.67-22.61 3.18zm36.62 21.94c-.09.06-23 3.23-23 3.23v-17.31l23-3.23s.02 17.16.04 17.27z" fill="#c91a20"/></svg>