<svg xmlns="http://www.w3.org/2000/svg" viewBox="0 0 126.041 138.089"><path d="M86.314 91.322c0-.56-.5-.92-1.22-1.21a9.81 9.81 0 00-3.27-.5 10.13 10.13 0 00-2.72.34c-.94.28-1.55.66-1.6 1.3v1.38l-5.42.76h-.11a.14.14 0 000 .06v18.2a.27.27 0 000 .13l3.83 2.1 10.71 5.82a.33.33 0 00.13 0l24-3.37h.11a.11.11 0 000-.06v-18.22a.27.27 0 000-.12l-.05-.06-6-3.29v-1.06c0-.56-.51-.92-1.23-1.2a9.56 9.56 0 00-3.27-.51h-.72l-1.85-1v-.94c0-.56-.5-.92-1.23-1.2a9.26 9.26 0 00-3.26-.51 10 10 0 00-2.72.34c-.94.29-1.56.66-1.6 1.3v1.19l-2.55.36" fill="#1ea551"/><path d="M110.944 98.212a.27.27 0 000-.12l-.05-.06-6-3.29v-1.22c0-.56-.51-.92-1.23-1.2a9.56 9.56 0 00-3.27-.51h-.72l-1.85-1v.67l.83.45q-.43.07-.84.18v-2.24c0-.56-.5-.92-1.23-1.2a9.26 9.26 0 00-3.26-.51 10 10 0 00-2.72.34c-.94.29-1.56.66-1.6 1.3v1.19l-2.55.36v.6l2.54-.35v1.52a9.8 9.8 0 00-2.69.34h.14v-2.14c0-.56-.5-.92-1.22-1.21a9.81 9.81 0 00-3.27-.5 10.13 10.13 0 00-2.72.34c-.94.28-1.55.66-1.6 1.3v1.38l-5.42.76h-.11a.14.14 0 000 .06v18.2a.27.27 0 000 .13l3.83 2.1 10.71 5.82a.33.33 0 00.13 0l24-3.37a.3.3 0 00.11 0 .19.19 0 000-.07v-18.22zm-10.7-5.81a9 9 0 013 .47c.67.24.87.55.85.65-.02.1-.27.49-1.17.74a9.53 9.53 0 01-2.56.32 9.05 9.05 0 01-3.05-.47c-.64-.24-.85-.52-.85-.63 0-.12.29-.49 1.18-.74a9.51 9.51 0 012.6-.34zm-9.61-3.32a9.59 9.59 0 012.56-.32 9.05 9.05 0 013 .47c.66.25.87.55.85.65-.02.1-.28.49-1.17.74a9.68 9.68 0 01-2.57.31 8.63 8.63 0 01-3-.46c-.63-.24-.85-.52-.84-.63-.03-.13.28-.52 1.17-.76zm-4.31 5a10 10 0 012.56-.32 9.05 9.05 0 013 .47c.67.25.87.55.85.65-.02.1-.28.49-1.17.74a9.66 9.66 0 01-2.57.32 8.85 8.85 0 01-3-.47c-.63-.23-.85-.52-.84-.63-.03-.08.28-.46 1.17-.71zm-8.23-2.89c0-.12.29-.49 1.18-.74a9.53 9.53 0 012.55-.31 9 9 0 013.05.46c.67.25.87.55.85.65-.02.1-.28.49-1.17.74a9.53 9.53 0 01-2.56.32 9.05 9.05 0 01-3-.47c-.64-.24-.85-.51-.85-.62zm-5 2.61l4.44-.63v1.37c0 .56.51.91 1.23 1.19a9.26 9.26 0 003.26.51 10.16 10.16 0 002.59-.31v2.21c0 .56.5.92 1.22 1.2a9.54 9.54 0 003.26.51 10.23 10.23 0 002.74-.34c.94-.29 1.56-.66 1.6-1.31v-3.36a.09.09 0 000-.05 9.75 9.75 0 002.55-.3v2.24c0 .56.5.92 1.22 1.2a9.5 9.5 0 003.26.51 9.93 9.93 0 002.74-.35c.93-.28 1.55-.65 1.59-1.3v-1.47l5 2.72-23.05 3.28zm37.26 22.32c-.08.06-23.39 3.29-23.39 3.29v-17.61l23.39-3.29-.05 17.66z" fill="#02743b"/><path d="M86.314 73.012c0-.56-.5-.92-1.22-1.2a9.56 9.56 0 00-3.27-.51 9.74 9.74 0 00-2.72.35c-.94.28-1.55.65-1.6 1.29v1.38l-5.42.77h-.11a.14.14 0 000 .06v18.21a.3.3 0 000 .13l3.83 2.09 10.71 5.82a.33.33 0 00.13 0l24-3.38a.19.19 0 00.11 0 .14.14 0 000-.07v-18.21a.27.27 0 000-.12l-.05-.06-6-3.3v-1.14c0-.56-.51-.92-1.23-1.2a9.56 9.56 0 00-3.27-.51h-.72l-1.85-1v-.94c0-.56-.5-.92-1.23-1.2a9.5 9.5 0 00-3.26-.51 10 10 0 00-2.72.34c-.94.29-1.56.65-1.6 1.3v1.2l-2.55.35" fill="#1ea551"/><path d="M110.944 79.922a.27.27 0 000-.12l-.05-.06-6-3.3v-1.14c0-.56-.51-.92-1.23-1.2a9.56 9.56 0 00-3.27-.51h-.72l-1.85-1v.66l.83.46a7.34 7.34 0 00-.84.17v-2.23c0-.56-.5-.92-1.23-1.2a9.5 9.5 0 00-3.26-.51 10 10 0 00-2.72.34c-.94.29-1.56.65-1.6 1.3v1.2l-2.55.35v.61l2.54-.36v1.53a10.2 10.2 0 00-2.69.34h.14v-2.23c0-.56-.5-.92-1.22-1.2a9.56 9.56 0 00-3.27-.51 9.74 9.74 0 00-2.72.35c-.94.28-1.55.65-1.6 1.29v1.37l-5.42.77h-.11a.14.14 0 000 .06v18.21a.3.3 0 000 .13l3.83 2.09 10.71 5.82a.33.33 0 00.13 0l24-3.38a.19.19 0 00.11 0 .14.14 0 000-.07v-18.21zm-10.7-5.8a9 9 0 013 .46c.67.25.87.55.85.65-.02.1-.27.49-1.17.74a9.53 9.53 0 01-2.56.32 9.05 9.05 0 01-3.05-.47c-.64-.23-.85-.52-.85-.62 0-.12.29-.49 1.18-.73a9.13 9.13 0 012.6-.35zm-9.61-3.33a10 10 0 012.56-.32 9.05 9.05 0 013 .47c.66.25.87.56.85.65-.02.09-.28.49-1.17.74a9.66 9.66 0 01-2.57.32 8.85 8.85 0 01-3-.47c-.63-.23-.85-.52-.84-.62-.03-.14.28-.52 1.17-.77zm-4.31 5.06a9.57 9.57 0 012.56-.33 8.79 8.79 0 013 .48c.67.24.87.55.85.64-.02.09-.28.49-1.17.75a10.11 10.11 0 01-2.57.31 8.86 8.86 0 01-3-.46c-.63-.24-.85-.53-.84-.63-.03-.14.28-.52 1.17-.76zm-8.23-2.9c0-.13.29-.5 1.18-.74a9.13 9.13 0 012.55-.32 9 9 0 013.05.46c.67.25.87.55.85.65-.02.1-.28.49-1.17.74a9.53 9.53 0 01-2.56.32 8.81 8.81 0 01-3-.47c-.64-.23-.85-.51-.85-.62zm-5 2.61l4.44-.62v1.38c0 .56.51.92 1.23 1.2a9.5 9.5 0 003.26.51 10.63 10.63 0 002.59-.31v2.21c0 .56.5.91 1.22 1.2a9.55 9.55 0 003.26.5 9.84 9.84 0 002.65-.31c.94-.29 1.56-.66 1.6-1.3v-3.36a10.19 10.19 0 002.55-.3v2.23c0 .56.5.91 1.22 1.19a9.26 9.26 0 003.26.51 10.33 10.33 0 002.74-.34c.93-.29 1.55-.65 1.59-1.31v-1.55l5 2.72-23 3.23zm37.26 22.33c-.08 0-23.39 3.28-23.39 3.28v-17.61l23.38-3.24-.04 17.57z" fill="#02743b"/><path d="M86.314 36.432c0-.55-.5-.91-1.22-1.2a11 11 0 00-6-.16c-.94.28-1.55.66-1.6 1.3v1.38l-5.42.76h-.11v.05a.14.14 0 000 .06v18.2a.27.27 0 000 .13l3.83 2.1 10.71 5.82a.33.33 0 00.13 0l24-3.37h.11a.11.11 0 000-.06v-18.21a.27.27 0 000-.12l-.05-.05-6-3.29v-1.14c0-.56-.51-.91-1.23-1.2a9.57 9.57 0 00-3.27-.5h-.72l-1.85-1v-.94c0-.56-.5-.92-1.23-1.2a9.49 9.49 0 00-3.26-.52 10 10 0 00-2.72.35c-.94.28-1.56.65-1.6 1.29v1.19l-2.55.36" fill="#1ea551"/><path d="M110.944 43.322a.27.27 0 000-.12l-.05-.05-6-3.29v-1.14c0-.56-.51-.91-1.23-1.2a9.57 9.57 0 00-3.27-.5h-.72l-1.85-1v.67l.83.45a7.34 7.34 0 00-.84.18v-2.24c0-.56-.5-.92-1.23-1.2a9.49 9.49 0 00-3.26-.52 10 10 0 00-2.72.35c-.94.28-1.56.65-1.6 1.29v1.19l-2.55.36v.6l2.54-.36v1.53a9.8 9.8 0 00-2.69.34h.14v-2.24c0-.55-.5-.91-1.22-1.2a11 11 0 00-6-.16c-.94.28-1.55.66-1.6 1.3v1.38l-5.42.76h-.11v.05a.14.14 0 000 .06v18.2a.27.27 0 000 .13l3.83 2.1 10.71 5.82a.33.33 0 00.13 0l24-3.37h.11a.19.19 0 000-.07v-18.21zm-10.7-5.81a9 9 0 013 .47c.67.24.87.55.85.64-.02.09-.27.5-1.17.74a10.11 10.11 0 01-5.61-.14c-.64-.24-.85-.52-.85-.63 0-.12.29-.49 1.18-.74a9.51 9.51 0 012.6-.31zm-9.61-3.32a9.59 9.59 0 012.56-.32 9.05 9.05 0 013 .47c.66.25.87.55.85.65-.02.1-.28.49-1.17.74a9.68 9.68 0 01-2.57.31 8.86 8.86 0 01-3-.46c-.63-.24-.85-.52-.84-.63-.03-.1.28-.49 1.17-.73zm-4.31 5.05a9.59 9.59 0 012.56-.32 9.05 9.05 0 013 .47c.67.25.87.55.85.65-.02.1-.28.49-1.17.74a9.66 9.66 0 01-2.57.32 8.85 8.85 0 01-3-.47c-.63-.24-.85-.52-.84-.63-.03-.1.28-.49 1.17-.68zm-8.23-2.89c0-.12.29-.49 1.18-.74a9.51 9.51 0 012.55-.32 9 9 0 013.05.47c.67.25.87.55.85.64-.02.09-.28.5-1.17.75a9.53 9.53 0 01-2.56.32 9.05 9.05 0 01-3-.47c-.64-.24-.85-.52-.85-.62zm-5 2.61l4.44-.63v1.37c0 .55.51.91 1.23 1.19a9.26 9.26 0 003.26.51 10.16 10.16 0 002.59-.31v2.21c0 .56.5.92 1.22 1.2a9.54 9.54 0 003.26.51 10.23 10.23 0 002.74-.34c.94-.29 1.56-.66 1.6-1.31v-3.36a10.19 10.19 0 002.55-.3v2.24c0 .56.5.92 1.22 1.2a9.5 9.5 0 003.26.51 10.33 10.33 0 002.74-.35c.93-.28 1.55-.65 1.59-1.3v-1.55l5 2.72-23 3.23zm37.21 22.36c-.08.06-23.39 3.29-23.39 3.29v-17.61l23.39-3.29z" fill="#02743b"/><path d="M86.314 18.142c0-.56-.5-.92-1.22-1.2a9.56 9.56 0 00-3.27-.51 9.74 9.74 0 00-2.72.35c-.94.28-1.55.65-1.6 1.29v1.38l-5.42.77a.23.23 0 00-.11 0 .14.14 0 000 .06v18.21a.3.3 0 000 .13l3.83 2.09 10.71 5.82a.33.33 0 00.13 0l24-3.37a.3.3 0 00.11 0 .14.14 0 000-.07v-18.21a.27.27 0 000-.12l-.05-.06-6-3.3v-1.14c0-.56-.51-.92-1.23-1.2a9.56 9.56 0 00-3.27-.51h-.72l-1.85-1v-.93c0-.56-.5-.92-1.23-1.2a9.5 9.5 0 00-3.26-.51 10 10 0 00-2.72.34c-.94.29-1.56.66-1.6 1.3v1.2l-2.55.35" fill="#1ea551"/><path d="M110.944 25.062a.27.27 0 000-.12l-.05-.06-6-3.3v-1.14c0-.56-.51-.92-1.23-1.2a9.56 9.56 0 00-3.27-.51h-.72l-1.85-1v.59l.83.45q-.43.07-.84.18v-2.23c0-.56-.5-.92-1.23-1.2a9.5 9.5 0 00-3.26-.51 10 10 0 00-2.72.34c-.94.29-1.56.66-1.6 1.3v1.2l-2.55.35v.61l2.54-.36v1.52a10.2 10.2 0 00-2.69.34h.14v-2.24c0-.56-.5-.92-1.22-1.2a9.56 9.56 0 00-3.27-.51 9.74 9.74 0 00-2.72.35c-.94.28-1.55.65-1.6 1.29v1.38l-5.42.77a.23.23 0 00-.11 0 .14.14 0 000 .06v18.21a.3.3 0 000 .13l3.83 2.09 10.71 5.82a.33.33 0 00.13 0l24-3.37a.3.3 0 00.11 0 .14.14 0 000-.07v-18.21zm-10.7-5.8a9 9 0 013 .46c.67.25.87.55.85.65-.02.1-.27.49-1.17.74a9.53 9.53 0 01-2.56.32 9.05 9.05 0 01-3.05-.47c-.64-.24-.85-.52-.85-.62 0-.12.29-.49 1.18-.73a9.13 9.13 0 012.6-.35zm-9.61-3.33a10 10 0 012.56-.32 9.05 9.05 0 013 .47c.66.25.87.55.85.65-.02.1-.28.49-1.17.74a9.68 9.68 0 01-2.57.31 8.63 8.63 0 01-3-.46c-.63-.23-.85-.52-.84-.63-.03-.13.28-.51 1.17-.76zm-4.31 5.06a9.57 9.57 0 012.56-.33 9.05 9.05 0 013 .47c.67.25.87.55.85.65-.02.1-.28.49-1.17.74a9.66 9.66 0 01-2.57.32 9.11 9.11 0 01-3-.46c-.63-.24-.85-.53-.84-.63-.03-.14.28-.52 1.17-.76zm-8.23-2.9c0-.12.29-.49 1.18-.73a9.13 9.13 0 012.55-.32 9 9 0 013.05.46c.67.25.87.55.85.65-.02.1-.28.49-1.17.74a9.53 9.53 0 01-2.56.32 8.81 8.81 0 01-3-.47c-.64-.24-.85-.51-.85-.62zm-5 2.61l4.44-.62v1.36c0 .56.51.91 1.23 1.19a9.26 9.26 0 003.26.51 10.16 10.16 0 002.59-.31v2.21c0 .55.5.91 1.22 1.19a9.54 9.54 0 003.26.51 10.23 10.23 0 002.74-.34c.94-.29 1.56-.66 1.6-1.31v-3.35a10.19 10.19 0 002.55-.3v2.23c0 .56.5.91 1.22 1.19a9.5 9.5 0 003.26.51 10.33 10.33 0 002.74-.34c.93-.29 1.55-.66 1.59-1.31v-1.55l5 2.72-23 3.23zm37.26 22.33c-.08 0-23.39 3.28-23.39 3.28v-17.61l23.39-3.29-.05 17.62z" fill="#02743b"/><path d="M62.314 58.102c0-.56-.5-.92-1.22-1.2a9.54 9.54 0 00-3.26-.51 9.76 9.76 0 00-2.73.35c-.94.28-1.55.65-1.59 1.29v1.38l-5.42.76h-.11a.14.14 0 000 .06v18.2a.34.34 0 000 .14.1.1 0 000 .05l3.84 2.09 10.7 5.82h.13l24-3.37a.17.17 0 00.11 0 .14.14 0 000-.07v-18.21a.27.27 0 000-.12v-.06l-6.06-3.3v-1.08c0-.56-.49-.92-1.22-1.21a9.75 9.75 0 00-3.26-.5h-.73l-1.84-1v-.94c0-.56-.5-.92-1.22-1.2a9.34 9.34 0 00-3.26-.51 10.1 10.1 0 00-2.73.34c-.94.29-1.55.66-1.6 1.3v1.2l-2.55.35" fill="#1ea551"/><path d="M86.944 65.022a.27.27 0 000-.12v-.06l-6.06-3.3v-1.22c0-.56-.49-.92-1.22-1.21a9.75 9.75 0 00-3.26-.5h-.73l-1.84-1v.71l.83.46a7.34 7.34 0 00-.84.17v-2.24c0-.56-.5-.92-1.22-1.2a9.34 9.34 0 00-3.26-.51 10.1 10.1 0 00-2.73.34c-.94.29-1.55.66-1.6 1.3v1.2l-2.55.35v.61l2.54-.36v1.54a9.8 9.8 0 00-2.69.34h.14v-2.24c0-.56-.5-.92-1.22-1.2a9.54 9.54 0 00-3.26-.51 9.76 9.76 0 00-2.73.35c-.94.28-1.55.65-1.59 1.29v1.38l-5.42.76h-.11a.14.14 0 000 .06v18.2a.34.34 0 000 .14.1.1 0 000 .05l3.84 2.09 10.7 5.82h.13l24-3.37a.17.17 0 00.11 0 .14.14 0 000-.07v-18.21zm-10.69-5.81a9.05 9.05 0 013 .47c.66.25.86.55.84.65-.02.1-.27.49-1.16.74a9.66 9.66 0 01-2.57.32 9.05 9.05 0 01-3.05-.47c-.64-.24-.85-.52-.85-.62 0-.12.29-.49 1.18-.73a9.13 9.13 0 012.61-.36zm-9.62-3.32a9.61 9.61 0 012.57-.32 9.07 9.07 0 013 .47c.67.25.87.55.85.65-.02.1-.28.49-1.17.74a9.68 9.68 0 01-2.57.31 8.63 8.63 0 01-3-.46c-.63-.24-.84-.52-.84-.63-.04-.13.27-.51 1.16-.76zm-4.31 5a10 10 0 012.57-.32 9.09 9.09 0 013 .47c.66.25.86.55.84.65-.02.1-.28.49-1.17.74a9.66 9.66 0 01-2.57.32 8.61 8.61 0 01-3-.47c-.63-.24-.84-.52-.83-.63-.04-.08.28-.46 1.16-.71zm-8.23-2.89c0-.12.29-.49 1.18-.73a9.15 9.15 0 012.56-.32 9 9 0 013 .46c.67.25.87.55.85.65-.02.1-.28.49-1.17.74a9.15 9.15 0 01-2.56.32 9.05 9.05 0 01-3-.47c-.64-.24-.85-.52-.85-.62zm-5 2.61l4.44-.62v1.36c0 .56.5.91 1.22 1.19a9.26 9.26 0 003.26.51 10.11 10.11 0 002.59-.31v2.22c0 .56.5.92 1.22 1.21a9.86 9.86 0 003.27.5 10.21 10.21 0 002.73-.34c.94-.29 1.56-.66 1.6-1.31v-3.35a10.3 10.3 0 002.55-.31v2.21c0 .56.51.92 1.22 1.2a9.52 9.52 0 003.27.51 10.21 10.21 0 002.73-.34c.93-.29 1.55-.66 1.59-1.31v-1.55l5 2.72-23 3.23zm37.26 22.33c-.09.05-23.39 3.28-23.39 3.28v-17.61l23.39-3.29s-.05 17.55-.04 17.67z" fill="#02743b"/><path d="M62.314 3.242c0-.56-.5-.92-1.22-1.21a10.85 10.85 0 00-6-.15c-.94.27-1.55.65-1.59 1.29v1.38l-5.42.76h-.11a.14.14 0 000 .06v18.2a.34.34 0 000 .14l3.84 2.09 10.7 5.81a.33.33 0 00.13 0l24-3.37a.25.25 0 00.11 0 .14.14 0 000-.07V9.912a.27.27 0 000-.12l-6.06-3.3v-1.14c0-.55-.49-.91-1.22-1.2a9.51 9.51 0 00-3.26-.5h-.73l-1.84-1v-.94c0-.56-.5-.92-1.22-1.2a9.34 9.34 0 00-3.26-.51 10.1 10.1 0 00-2.73.34c-.94.29-1.55.65-1.6 1.3v1.19l-2.55.36" fill="#1ea551"/><path d="M86.944 10.162a.27.27 0 000-.12l-6.06-3.3v-1.14c0-.55-.49-.91-1.22-1.2a9.51 9.51 0 00-3.26-.5h-.73l-1.84-1v.67l.83.45q-.43.07-.84.18v-2.24c0-.56-.5-.92-1.22-1.2a9.34 9.34 0 00-3.26-.51 10.1 10.1 0 00-2.73.34c-.94.29-1.55.65-1.6 1.3v1.19l-2.55.36v.6l2.54-.35v1.54a9.8 9.8 0 00-2.69.34h.14v-2.24c0-.56-.5-.92-1.22-1.21a10.85 10.85 0 00-6-.15c-.94.27-1.55.65-1.59 1.29v1.38l-5.42.76h-.11a.14.14 0 000 .06v18.2a.34.34 0 000 .14l3.84 2.09 10.7 5.81a.33.33 0 00.13 0l24-3.37a.25.25 0 00.11 0 .14.14 0 000-.07v-18.26zm-10.69-5.84a9.05 9.05 0 013 .47c.66.24.86.55.84.64-.02.09-.27.5-1.16.75a9.66 9.66 0 01-2.57.32 9.05 9.05 0 01-3.05-.47c-.64-.24-.85-.52-.85-.62 0-.12.29-.49 1.18-.74a9.53 9.53 0 012.61-.35zm-9.62-3.32a9.61 9.61 0 012.57-.32 9.07 9.07 0 013 .47c.67.25.87.55.85.65-.02.1-.28.49-1.17.74a9.68 9.68 0 01-2.57.31 8.86 8.86 0 01-3-.46c-.63-.24-.84-.52-.84-.63-.04-.11.27-.44 1.16-.73zm-4.31 5a9.61 9.61 0 012.57-.32 9.09 9.09 0 013 .47c.66.25.86.55.84.65-.02.1-.28.49-1.17.74a9.66 9.66 0 01-2.57.32 9.09 9.09 0 01-3-.47c-.63-.24-.84-.52-.83-.63-.04-.05.28-.44 1.16-.68zm-8.23-2.89c0-.12.29-.49 1.18-.73a9.13 9.13 0 012.56-.33 9 9 0 013 .47c.67.25.87.55.85.65-.02.1-.28.49-1.17.74a9.53 9.53 0 01-2.56.32 9.05 9.05 0 01-3-.47c-.64-.24-.85-.52-.85-.62zm-5 2.61l4.44-.63v1.37c0 .55.5.91 1.22 1.19a9.5 9.5 0 003.26.51 10.11 10.11 0 002.59-.31v2.21c0 .56.5.92 1.22 1.2a9.6 9.6 0 003.27.51 10.21 10.21 0 002.73-.34c.94-.29 1.56-.66 1.6-1.31v-3.36a9.85 9.85 0 002.55-.3v2.21c0 .56.51.92 1.22 1.2a9.52 9.52 0 003.27.51 10.21 10.21 0 002.73-.34c.93-.29 1.55-.66 1.59-1.31v-1.41l5 2.72-23 3.23zm37.26 22.33c-.09.05-23.39 3.28-23.39 3.28v-17.61l23.39-3.29s-.05 17.58-.04 17.7z" fill="#02743b"/><path d="M38.334 61.482c0-.56-.5-.91-1.22-1.2a9.55 9.55 0 00-3.26-.5 10.21 10.21 0 00-2.73.34c-.93.28-1.54.66-1.59 1.3v1.39l-5.42.76h-.1a.19.19 0 010 .07v18.21a.27.27 0 000 .13.1.1 0 000 .05l3.84 2.09 10.7 5.82a.28.28 0 00.12 0l24-3.37h.11v-18.27a.43.43 0 000-.12l-6.06-3.29v-1.14c0-.56-.49-.91-1.22-1.2a9.47 9.47 0 00-3.26-.5h-.72l-1.85-1v-.94c0-.55-.5-.91-1.22-1.19a9.57 9.57 0 00-3.26-.52 10.09 10.09 0 00-2.73.35c-.94.28-1.55.65-1.6 1.29v1.19l-2.55.36" fill="#1ea551"/><path d="M62.964 68.402a.43.43 0 000-.12l-6.06-3.29v-1.14c0-.56-.49-.91-1.22-1.2a9.47 9.47 0 00-3.26-.5h-.72l-1.85-1v.67l.84.45a5.18 5.18 0 00-.84.18v-2.24c0-.55-.5-.91-1.22-1.19a9.57 9.57 0 00-3.26-.52 10.09 10.09 0 00-2.73.35c-.94.28-1.55.65-1.6 1.29v1.19l-2.55.36v.6l2.55-.36v1.53a9.85 9.85 0 00-2.69.34h.14v-2.23c0-.56-.5-.91-1.22-1.2a9.55 9.55 0 00-3.26-.5 10.21 10.21 0 00-2.73.34c-.93.28-1.54.66-1.59 1.3v1.39l-5.42.76h-.1a.19.19 0 010 .07v18.21a.27.27 0 000 .13.1.1 0 000 .05l3.84 2.09 10.7 5.82a.28.28 0 00.12 0l24-3.37h.11v-18.27zm-10.69-5.81a9.28 9.28 0 013 .46c.66.25.87.56.84.65-.03.09-.27.49-1.16.74a9.27 9.27 0 01-2.57.32 9.07 9.07 0 01-3-.46c-.63-.24-.84-.52-.84-.63 0-.12.28-.5 1.18-.74a9.41 9.41 0 012.55-.34zm-9.61-3.32a9.48 9.48 0 012.56-.32 8.79 8.79 0 013 .47c.67.25.87.55.85.64-.02.09-.28.5-1.17.75a10.11 10.11 0 01-2.57.31 8.86 8.86 0 01-3.05-.46c-.63-.24-.84-.52-.84-.63.01-.14.3-.52 1.22-.71zm-4.32 5a9.66 9.66 0 012.57-.32 8.85 8.85 0 013 .47c.66.25.86.55.84.65-.02.1-.28.49-1.17.74a9.68 9.68 0 01-2.57.31 8.86 8.86 0 01-3-.46c-.63-.24-.84-.52-.84-.63-.03-.09.29-.46 1.17-.71zm-8.22-2.9c0-.12.28-.49 1.17-.74a9.53 9.53 0 012.56-.32 9.37 9.37 0 013.05.46c.66.25.86.56.84.65-.02.09-.27.5-1.16.75a9.66 9.66 0 01-2.57.32 9.05 9.05 0 01-3-.47c-.64-.24-.84-.52-.84-.63zm-5.05 2.61l4.44-.62v1.37c0 .56.5.92 1.22 1.2a9.5 9.5 0 003.26.51 10.57 10.57 0 002.59-.31v2.21c0 .56.5.91 1.21 1.2a9.6 9.6 0 003.27.51 10.15 10.15 0 002.73-.34c.94-.29 1.56-.66 1.6-1.31v-3.36a10.31 10.31 0 002.55-.3v2.2c0 .56.5.92 1.22 1.2a9.56 9.56 0 003.27.51 10.2 10.2 0 002.73-.35c.93-.28 1.55-.65 1.59-1.31v-1.91.37l5 2.72-23 3.23zm37.26 22.34c-.08.06-23.39 3.28-23.39 3.28v-17.61l23.39-3.28s-.01 17.54 0 17.61z" fill="#02743b"/><path d="M38.334 6.622c0-.56-.5-.91-1.22-1.2a9.55 9.55 0 00-3.26-.5 9.82 9.82 0 00-2.73.34c-.93.28-1.54.65-1.59 1.3v1.39l-5.42.76h-.1a.14.14 0 010 .06v18.21a.27.27 0 000 .13l3.84 2.09 10.7 5.82h.12l24-3.37h.11v-18.28a.37.37 0 000-.12l-6.06-3.29v-1.14c0-.56-.49-.91-1.22-1.2a9.46 9.46 0 00-3.26-.51h-.72l-1.85-1v-.94c0-.56-.5-.91-1.22-1.2a9.83 9.83 0 00-3.26-.51 9.71 9.71 0 00-2.73.35c-.94.28-1.55.65-1.6 1.29v1.22l-2.55.36" fill="#1ea551"/><path d="M62.964 13.542a.37.37 0 000-.12l-6.06-3.29v-1.14c0-.56-.49-.91-1.22-1.2a9.46 9.46 0 00-3.26-.51h-.72l-1.85-1v.66l.84.46a6.56 6.56 0 00-.84.17v-2.23c0-.56-.5-.91-1.22-1.2a9.83 9.83 0 00-3.26-.51 9.71 9.71 0 00-2.73.35c-.94.28-1.55.65-1.6 1.29v1.05l-2.55.36v.6l2.55-.36v1.53a10.25 10.25 0 00-2.69.35h.14v-2.18c0-.56-.5-.91-1.22-1.2a9.55 9.55 0 00-3.26-.5 9.82 9.82 0 00-2.73.34c-.93.28-1.54.65-1.59 1.3v1.39l-5.42.76h-.1a.14.14 0 010 .06v18.21a.27.27 0 000 .13l3.84 2.09 10.7 5.82h.12l24-3.37h.11v-18.28zm-10.69-5.81a9 9 0 013 .46c.66.25.87.56.84.65-.03.09-.27.49-1.16.74a9.27 9.27 0 01-2.57.32 9.07 9.07 0 01-3-.46c-.63-.24-.84-.52-.84-.63 0-.12.28-.5 1.18-.74a9.41 9.41 0 012.55-.34zm-9.61-3.32a9.48 9.48 0 012.56-.32 9 9 0 013 .46c.67.26.87.56.85.65-.02.09-.28.5-1.17.75a10.11 10.11 0 01-2.57.31 8.86 8.86 0 01-3.05-.46c-.63-.24-.84-.53-.84-.63.01-.14.3-.52 1.22-.76zm-4.32 5a9.66 9.66 0 012.57-.32 8.85 8.85 0 013 .47c.66.25.86.55.84.65-.02.1-.28.49-1.17.74a10.11 10.11 0 01-2.57.31 8.86 8.86 0 01-3-.46c-.63-.24-.84-.52-.84-.63-.03-.09.29-.47 1.17-.71zm-8.22-2.9c0-.12.28-.5 1.17-.74a9.53 9.53 0 012.56-.32 9.37 9.37 0 013.05.46c.66.25.86.56.84.65-.02.09-.27.49-1.16.74a9.27 9.27 0 01-2.57.32 9.07 9.07 0 01-3-.46c-.64-.24-.84-.52-.84-.63zm-5.05 2.61l4.44-.62v1.37c0 .56.5.92 1.22 1.2a9.5 9.5 0 003.26.51 10.57 10.57 0 002.59-.31v2.21c0 .56.5.91 1.21 1.2a9.6 9.6 0 003.27.51 10.15 10.15 0 002.73-.34c.94-.3 1.56-.66 1.6-1.31v-3.41a10.31 10.31 0 002.55-.3v2.2c0 .56.5.92 1.22 1.19a9.31 9.31 0 003.27.52 10.2 10.2 0 002.73-.35c.93-.28 1.55-.65 1.59-1.31v-1.92.38l5 2.72-23 3.23zm37.26 22.33c-.08.06-23.39 3.28-23.39 3.28v-17.61l23.39-3.28s-.01 17.55 0 17.66z" fill="#02743b"/><path d="M14.354 101.412c0-.56-.5-.92-1.23-1.2a9.5 9.5 0 00-3.26-.51 9.81 9.81 0 00-2.73.35c-.93.28-1.54.65-1.59 1.29v1.38l-5.41.77a.2.2 0 00-.11 0 .14.14 0 010 .06v18.21a.59.59 0 000 .13l3.84 2.09 10.7 5.82a.28.28 0 00.12 0l24-3.37a.21.21 0 00.11 0v-18.33a.5.5 0 000-.12v-.06l-6.06-3.29v-1.14c0-.56-.5-.92-1.23-1.2a9.5 9.5 0 00-3.26-.51h-.72l-1.85-1v-.94c0-.56-.5-.92-1.22-1.2a9.3 9.3 0 00-3.26-.51 10.15 10.15 0 00-2.73.34c-.93.29-1.55.66-1.6 1.3v1.19l-2.54.36" fill="#1ea551"/><path d="M38.974 108.322a.5.5 0 000-.12v-.06l-6.06-3.29v-1.14c0-.56-.5-.92-1.23-1.2a9.5 9.5 0 00-3.26-.51h-.72l-1.85-1v.67l.84.45q-.45.07-.84.18v-2.24c0-.56-.5-.92-1.22-1.2a9.3 9.3 0 00-3.26-.51 10.15 10.15 0 00-2.73.34c-.93.29-1.55.66-1.6 1.3v1.19l-2.54.36v.6l2.55-.35v1.53a10.26 10.26 0 00-2.69.34h.14v-2.24c0-.56-.5-.92-1.23-1.2a9.5 9.5 0 00-3.26-.51 9.81 9.81 0 00-2.73.35c-.93.28-1.54.65-1.59 1.29v1.38l-5.41.77a.2.2 0 00-.11 0 .14.14 0 010 .06v18.21a.59.59 0 000 .13l3.84 2.09 10.7 5.82a.28.28 0 00.12 0l24-3.37a.21.21 0 00.11 0v-18.33zm-10.69-5.81a9 9 0 013 .47c.67.24.87.55.84.65-.03.1-.27.49-1.16.74a9.61 9.61 0 01-2.57.32 9.09 9.09 0 01-3-.47c-.63-.24-.84-.52-.84-.62 0-.12.28-.49 1.17-.74a9.59 9.59 0 012.56-.34zm-9.61-3.32a9.53 9.53 0 012.56-.32 9 9 0 013 .47c.67.25.87.55.85.65-.02.1-.28.49-1.17.74a9.66 9.66 0 01-2.57.32 8.85 8.85 0 01-3.05-.47c-.63-.24-.84-.52-.83-.63 0-.12.28-.51 1.21-.75zm-4.31 5a10 10 0 012.56-.32 9.09 9.09 0 013 .47c.66.25.87.56.84.65-.03.09-.28.49-1.17.74a9.61 9.61 0 01-2.57.32 8.89 8.89 0 01-3-.47c-.63-.23-.84-.52-.83-.63-.03-.07.27-.45 1.17-.7zm-8.23-2.89c0-.11.28-.49 1.17-.73a10.37 10.37 0 015.61.14c.66.25.86.55.84.65-.02.1-.27.49-1.16.74a9.27 9.27 0 01-2.57.32 9.05 9.05 0 01-3-.47c-.64-.24-.84-.51-.84-.62zm-5.05 2.61l4.44-.63v1.37c0 .55.5.91 1.22 1.19a9.26 9.26 0 003.26.51 10.24 10.24 0 002.6-.31v2.21c0 .55.5.91 1.22 1.2a9.51 9.51 0 003.26.5 10.15 10.15 0 002.73-.34c.94-.29 1.56-.66 1.6-1.31v-3.35a10.24 10.24 0 002.55-.31v2.21c0 .56.51.91 1.22 1.19a9.56 9.56 0 003.27.51 10.21 10.21 0 002.73-.34c.93-.29 1.55-.66 1.59-1.31v-1.92.37l5 2.72-23 3.24zm37.26 22.41c-.08 0-23.39 3.28-23.39 3.28v-17.61l23.39-3.29s-.01 17.49 0 17.62z" fill="#02743b"/><path d="M14.354 83.132c0-.56-.5-.91-1.23-1.2a9.5 9.5 0 00-3.26-.51 9.81 9.81 0 00-2.73.35c-.93.28-1.54.65-1.59 1.3v1.39l-5.41.76a.21.21 0 00-.11 0 .25.25 0 010 .07v18.21a.51.51 0 000 .13l3.84 2.09 10.7 5.82a.28.28 0 00.12 0l24-3.37a.22.22 0 00.11 0v-18.28a.5.5 0 000-.12v-.06h-.05l-6.06-3.29v-1.1c0-.56-.5-.92-1.23-1.2a9.5 9.5 0 00-3.26-.51h-.72l-1.85-1v-.94c0-.56-.5-.91-1.22-1.2a9.79 9.79 0 00-3.26-.51 10.15 10.15 0 00-2.73.34c-.93.29-1.55.66-1.6 1.3v1.2l-2.54.35" fill="#1ea551"/><path d="M38.974 90.042a.5.5 0 000-.12v-.06h-.05l-6.06-3.29v-1.25c0-.56-.5-.92-1.23-1.2a9.5 9.5 0 00-3.26-.51h-.72l-1.85-1v.71l.84.46a6.56 6.56 0 00-.84.17v-2.23c0-.56-.5-.91-1.22-1.2a9.79 9.79 0 00-3.26-.51 10.15 10.15 0 00-2.73.34c-.93.29-1.55.66-1.6 1.3v1.2l-2.54.35v.61l2.55-.36v1.53a10.26 10.26 0 00-2.69.34.7.7 0 00.14 0v-2.23c0-.56-.5-.91-1.23-1.2a9.5 9.5 0 00-3.26-.51 9.81 9.81 0 00-2.73.35c-.93.28-1.54.65-1.59 1.3v1.39l-5.41.76a.21.21 0 00-.11 0 .25.25 0 010 .07v18.21a.51.51 0 000 .13l3.84 2.09 10.7 5.82h.12l24-3.37a.22.22 0 00.11 0v-18.28zm-10.69-5.8a9.28 9.28 0 013 .46c.67.25.87.56.84.65-.03.09-.27.49-1.16.74a9.22 9.22 0 01-2.57.32 9.09 9.09 0 01-3-.47c-.63-.23-.84-.51-.84-.62 0-.12.28-.5 1.17-.74a9.59 9.59 0 012.56-.34zm-9.61-3.32a9.53 9.53 0 012.56-.32 8.75 8.75 0 013 .47c.67.25.87.55.85.64-.02.09-.28.5-1.17.75a10.11 10.11 0 01-2.57.31 8.86 8.86 0 01-3.05-.46c-.63-.24-.84-.53-.83-.64 0-.13.28-.51 1.21-.75zm-4.31 5a9.53 9.53 0 012.56-.32 8.85 8.85 0 013 .47c.66.24.87.55.84.64-.03.09-.28.5-1.17.75a10.05 10.05 0 01-2.57.31 8.9 8.9 0 01-3-.46c-.63-.24-.84-.53-.83-.63-.03-.09.27-.47 1.17-.71zm-8.23-2.9c0-.12.28-.5 1.17-.74a9.53 9.53 0 012.56-.32 9.37 9.37 0 013.05.46c.66.25.86.56.84.65-.02.09-.27.49-1.16.74a9.27 9.27 0 01-2.57.32 9.07 9.07 0 01-3-.46c-.64-.24-.84-.52-.84-.63zm-5.05 2.61l4.44-.62v1.37c0 .56.5.91 1.22 1.2a9.5 9.5 0 003.26.51 10.71 10.71 0 002.6-.31v2.21c0 .56.5.91 1.22 1.2a9.51 9.51 0 003.26.5 9.77 9.77 0 002.73-.34c.94-.28 1.56-.65 1.6-1.3v-3.36a10.25 10.25 0 002.55-.3v2.2c0 .56.51.91 1.22 1.19a9.31 9.31 0 003.27.52 10.2 10.2 0 002.73-.35c.93-.29 1.55-.65 1.59-1.31v-1.92.38l5 2.71-23 3.23zm37.26 22.33c-.08.06-23.39 3.28-23.39 3.28v-17.61l23.39-3.28s-.01 17.55 0 17.66z" fill="#02743b"/><path d="M14.354 64.842c0-.56-.5-.91-1.23-1.2a9.51 9.51 0 00-3.26-.5 10.21 10.21 0 00-2.73.34c-.93.28-1.54.66-1.59 1.3v1.38l-5.41.76h-.11a.19.19 0 010 .07v18.21a.51.51 0 000 .13.1.1 0 000 .05l3.84 2.1 10.7 5.81a.53.53 0 00.12 0l24-3.37h.11a.36.36 0 000-.07v-18.26a.5.5 0 000-.12l-6.06-3.29v-1.14c0-.56-.5-.91-1.23-1.2a9.51 9.51 0 00-3.26-.5h-.72l-1.85-1v-.94c0-.55-.5-.91-1.22-1.2a9.79 9.79 0 00-3.26-.51 10.14 10.14 0 00-2.73.35c-.93.28-1.55.65-1.6 1.29v1.19l-2.54.36" fill="#1ea551"/><path d="M38.974 71.762a.5.5 0 000-.12l-6.06-3.29v-1.14c0-.56-.5-.91-1.23-1.2a9.51 9.51 0 00-3.26-.5h-.72l-1.85-1v.66l.84.46a6.52 6.52 0 00-.84.18v-2.24c0-.55-.5-.91-1.22-1.2a9.79 9.79 0 00-3.26-.51 10.14 10.14 0 00-2.73.35c-.93.28-1.55.65-1.6 1.29v1.19l-2.54.36v.6l2.55-.36v1.53a9.85 9.85 0 00-2.69.34h.14v-2.24c0-.56-.5-.91-1.23-1.2a9.51 9.51 0 00-3.26-.5 10.21 10.21 0 00-2.73.34c-.93.28-1.54.66-1.59 1.3v1.38l-5.41.76h-.11a.19.19 0 010 .07v18.21a.51.51 0 000 .13.1.1 0 000 .05l3.84 2.1 10.7 5.81a.53.53 0 00.12 0l24-3.37h.11a.36.36 0 000-.07v-18.26zm-10.69-5.81a9.28 9.28 0 013 .46c.67.25.87.56.84.65-.03.09-.27.49-1.16.74a9.21 9.21 0 01-2.57.33 9.09 9.09 0 01-3-.47c-.63-.24-.84-.52-.84-.63 0-.12.28-.49 1.17-.74a9.59 9.59 0 012.56-.34zm-9.61-3.32a9.53 9.53 0 012.56-.32 8.75 8.75 0 013 .47c.67.25.87.55.85.64-.02.09-.28.5-1.17.75a9.68 9.68 0 01-2.57.31 8.86 8.86 0 01-3.05-.46c-.63-.24-.84-.52-.83-.63 0-.14.28-.52 1.21-.76zm-4.31 5.05a9.53 9.53 0 012.56-.32 9.09 9.09 0 013 .47c.66.25.87.55.84.65-.03.1-.28.49-1.17.74a9.63 9.63 0 01-2.57.31 8.9 8.9 0 01-3-.46c-.63-.24-.84-.52-.83-.63-.03-.12.27-.52 1.17-.76zm-8.23-2.89c0-.12.28-.49 1.17-.74a9.53 9.53 0 012.56-.32 9.09 9.09 0 013.05.47c.66.24.86.55.84.64-.02.09-.27.49-1.16.75a9.66 9.66 0 01-2.57.32 9.05 9.05 0 01-3-.47c-.64-.24-.84-.52-.84-.63zm-5.05 2.61l4.44-.63v1.37c0 .56.5.92 1.22 1.2a9.5 9.5 0 003.26.51 10.71 10.71 0 002.6-.31v2.21c0 .56.5.92 1.22 1.2a9.5 9.5 0 003.26.51 10.15 10.15 0 002.73-.34c.94-.29 1.56-.66 1.6-1.31v-3.36a10.25 10.25 0 002.55-.3v2.21c0 .56.51.92 1.22 1.19a9.31 9.31 0 003.27.52 9.81 9.81 0 002.73-.35c.93-.28 1.55-.65 1.59-1.31v-1.91.37l5 2.72-23 3.23zm37.26 22.32c-.08.06-23.39 3.28-23.39 3.28v-17.6l23.39-3.29s-.01 17.5 0 17.61z" fill="#02743b"/><path d="M14.354 46.552c0-.56-.5-.92-1.23-1.2a9.5 9.5 0 00-3.26-.51 9.81 9.81 0 00-2.73.35c-.93.28-1.54.65-1.59 1.29v1.38l-5.41.76h-.11a.14.14 0 010 .06v18.2a.51.51 0 000 .13l3.84 2.09 10.7 5.82a.28.28 0 00.12 0l24-3.37a.15.15 0 00.11 0v-18.28a.5.5 0 000-.12v-.05l-6.05-3.18v-1.14c0-.56-.5-.92-1.23-1.21a9.75 9.75 0 00-3.26-.5h-.72l-1.85-1v-.94c0-.56-.5-.92-1.22-1.2a9.3 9.3 0 00-3.26-.51 10.15 10.15 0 00-2.73.34c-.93.29-1.55.65-1.6 1.3v1.26l-2.54.36" fill="#1ea551"/><path d="M38.974 53.472a.5.5 0 000-.12v-.05l-6.23-3.38v-1.14c0-.56-.5-.92-1.23-1.21a9.75 9.75 0 00-3.26-.5h-.72l-1.85-1v.67l.84.45q-.45.07-.84.18v-2.24c0-.56-.5-.92-1.22-1.2a9.3 9.3 0 00-3.26-.51 10.15 10.15 0 00-2.73.34c-.93.29-1.55.65-1.6 1.3v1.26l-2.54.36v.6l2.55-.35v1.52a9.85 9.85 0 00-2.69.34h.14v-2.24c0-.56-.5-.92-1.23-1.2a9.5 9.5 0 00-3.26-.51 9.81 9.81 0 00-2.73.35c-.93.28-1.54.65-1.59 1.29v1.38l-5.41.76h-.11a.14.14 0 010 .06v18.2a.51.51 0 000 .13l3.84 2.09 10.7 5.82a.28.28 0 00.12 0l24-3.37a.15.15 0 00.11 0v-18.28zm-10.69-5.81a9 9 0 013 .47c.67.24.87.55.84.65-.03.1-.27.49-1.16.74a9.61 9.61 0 01-2.57.32 9.09 9.09 0 01-3-.47c-.63-.24-.84-.52-.84-.63 0-.12.28-.49 1.17-.74a9.59 9.59 0 012.56-.34zm-9.61-3.32a9.53 9.53 0 012.56-.32 9 9 0 013 .47c.67.25.87.55.85.65-.02.1-.28.49-1.17.74a9.68 9.68 0 01-2.57.31 8.86 8.86 0 01-3.05-.46c-.63-.24-.84-.52-.83-.63 0-.13.28-.52 1.21-.78zm-4.31 5.05a9.53 9.53 0 012.56-.32 9.09 9.09 0 013 .47c.66.25.87.55.84.65-.03.1-.28.49-1.17.74a9.61 9.61 0 01-2.57.32 8.89 8.89 0 01-3-.47c-.63-.24-.84-.52-.83-.63-.03-.13.27-.51 1.17-.76zm-8.23-2.89c0-.11.28-.49 1.17-.74a9.53 9.53 0 012.56-.32 9.09 9.09 0 013.05.47c.66.25.86.55.84.65-.02.1-.27.49-1.16.74a9.27 9.27 0 01-2.57.32 9.05 9.05 0 01-3-.47c-.64-.24-.84-.52-.84-.62zm-5.05 2.61l4.44-.63v1.37c0 .55.5.91 1.22 1.19a9.26 9.26 0 003.26.51 10.24 10.24 0 002.6-.31v2.21c0 .56.5.92 1.22 1.2a9.5 9.5 0 003.26.51 10.15 10.15 0 002.73-.34c.94-.29 1.56-.66 1.6-1.31v-3.36a10.24 10.24 0 002.55-.31v2.21c0 .56.51.92 1.22 1.2a9.56 9.56 0 003.27.51 10.21 10.21 0 002.73-.34c.93-.29 1.55-.66 1.59-1.31v-1.92.37l5 2.72-23 3.23zm37.26 22.32c-.08.06-23.39 3.29-23.39 3.29v-17.61l23.39-3.29s-.01 17.5 0 17.61z" fill="#02743b"/><path d="M14.354 28.322c0-.56-.5-.92-1.23-1.2a9.5 9.5 0 00-3.26-.51 9.81 9.81 0 00-2.73.35c-.93.28-1.54.65-1.59 1.29v1.38l-5.41.77a.35.35 0 00-.11 0 .14.14 0 010 .06v18.21a.51.51 0 000 .13l3.84 2.09 10.7 5.82a.28.28 0 00.12 0l24-3.38a.21.21 0 00.11 0v-18.13a.5.5 0 000-.12.21.21 0 000-.06l-6.06-3.3v-1.14c0-.56-.5-.92-1.23-1.2a9.5 9.5 0 00-3.26-.51h-.72l-1.85-1v-.94c0-.56-.5-.91-1.22-1.2a9.54 9.54 0 00-3.26-.51 10.15 10.15 0 00-2.73.34c-.93.29-1.55.66-1.6 1.3v1.2l-2.54.35" fill="#1ea551"/><path d="M38.974 35.182a.5.5 0 000-.12.21.21 0 000-.06l-6.06-3.3v-1.14c0-.56-.5-.92-1.23-1.2a9.5 9.5 0 00-3.26-.51h-.72l-1.85-1v.66l.84.46a6.56 6.56 0 00-.84.17v-2.23c0-.56-.5-.91-1.22-1.2a9.54 9.54 0 00-3.26-.51 10.15 10.15 0 00-2.73.34c-.93.29-1.55.66-1.6 1.3v1.2l-2.54.35v.61l2.55-.36v1.53a10.26 10.26 0 00-2.69.34h.14v-2.23c0-.56-.5-.92-1.23-1.2a9.5 9.5 0 00-3.26-.51 9.81 9.81 0 00-2.73.35c-.93.28-1.54.65-1.59 1.29v1.38l-5.41.77a.35.35 0 00-.11 0 .14.14 0 010 .06v18.21a.51.51 0 000 .13l3.84 2.09 10.7 5.82h.12l24-3.38a.15.15 0 00.11 0v-18.09zm-10.69-5.8a9 9 0 013 .46c.67.25.87.55.84.65-.03.1-.27.49-1.16.74a9.61 9.61 0 01-2.57.32 8.85 8.85 0 01-3-.47c-.63-.23-.84-.52-.84-.62 0-.12.28-.49 1.17-.73a9.2 9.2 0 012.56-.35zm-9.61-3.33a10 10 0 012.56-.32 9 9 0 013 .47c.67.25.87.56.85.65-.02.09-.28.49-1.17.74a9.66 9.66 0 01-2.57.32 8.85 8.85 0 01-3.05-.47c-.63-.23-.84-.52-.83-.62 0-.14.28-.5 1.21-.77zm-4.31 5.06a9.52 9.52 0 012.56-.33 9.09 9.09 0 013 .47c.66.25.87.56.84.65-.03.09-.28.49-1.17.75a10.05 10.05 0 01-2.57.31 8.9 8.9 0 01-3-.46c-.63-.24-.84-.53-.83-.63-.03-.14.27-.55 1.17-.76zm-8.23-2.9c0-.12.28-.5 1.17-.74a9.53 9.53 0 012.56-.32 9.11 9.11 0 013.05.46c.66.25.86.55.84.65-.02.1-.27.49-1.16.74a9.27 9.27 0 01-2.57.32 8.81 8.81 0 01-3-.47c-.64-.23-.84-.51-.84-.62zm-5.05 2.61l4.44-.62v1.36c0 .56.5.91 1.22 1.19a9.25 9.25 0 003.26.52 10.71 10.71 0 002.6-.31v2.21c0 .56.5.91 1.22 1.2a9.51 9.51 0 003.26.5 10.15 10.15 0 002.73-.34c.94-.29 1.56-.66 1.6-1.31v-3.35a10.25 10.25 0 002.55-.3v2.2c0 .56.51.91 1.22 1.19a9.32 9.32 0 003.27.51 10.21 10.21 0 002.73-.34c.93-.29 1.55-.65 1.59-1.31v-1.92.42l5 2.72-23 3.23zm37.26 22.33c-.08 0-23.39 3.28-23.39 3.28v-17.61l23.39-3.29s-.01 17.51 0 17.62z" fill="#02743b"/><path d="M14.354 9.982c0-.56-.5-.91-1.23-1.2a9.51 9.51 0 00-3.26-.5 9.82 9.82 0 00-2.73.34c-.93.28-1.54.66-1.59 1.3v1.4l-5.41.76h-.11a.19.19 0 010 .07v18.21a.51.51 0 000 .13v.05l3.84 2.09 10.7 5.82a.53.53 0 00.12 0l24-3.37h.11v-18.27a.43.43 0 000-.12l-6.05-3.37v-1.14c0-.56-.5-.92-1.23-1.2a9.51 9.51 0 00-3.26-.5h-.72l-1.85-1v-.94c0-.55-.5-.91-1.22-1.2a9.79 9.79 0 00-3.26-.51 10.14 10.14 0 00-2.73.35c-.93.28-1.55.65-1.6 1.29v1.19l-2.54.36" fill="#1ea551"/><path d="M38.974 16.902a.43.43 0 000-.12l-6.23-3.46v-1.14c0-.56-.5-.92-1.23-1.2a9.51 9.51 0 00-3.26-.5h-.72l-1.85-1v.66l.84.46a6.56 6.56 0 00-.84.17v-2.23c0-.55-.5-.91-1.22-1.2a9.79 9.79 0 00-3.26-.51 10.14 10.14 0 00-2.73.35c-.93.28-1.55.65-1.6 1.29v1.19l-2.54.36v.6l2.55-.36v1.53a10.25 10.25 0 00-2.69.35h.14v-2.23c0-.56-.5-.91-1.23-1.2a9.51 9.51 0 00-3.26-.5 9.82 9.82 0 00-2.73.34c-.93.28-1.54.66-1.59 1.3v1.47l-5.41.76h-.11a.19.19 0 010 .07v18.21a.51.51 0 000 .13.1.1 0 000 .05l3.84 2.09 10.7 5.82a.53.53 0 00.12 0l24-3.37h.11v-18.27zm-10.69-5.81a9.28 9.28 0 013 .46c.67.25.87.56.84.65-.03.09-.27.49-1.16.74a9.22 9.22 0 01-2.57.32 8.85 8.85 0 01-3-.47c-.63-.23-.84-.51-.84-.62 0-.12.28-.5 1.17-.74a9.59 9.59 0 012.56-.34zm-9.61-3.32a9.53 9.53 0 012.56-.32 8.75 8.75 0 013 .47c.67.24.87.55.85.64-.02.09-.28.5-1.17.75a10.11 10.11 0 01-2.57.31 8.86 8.86 0 01-3.05-.46c-.63-.24-.84-.52-.83-.63 0-.14.28-.52 1.21-.76zm-4.31 5a9.53 9.53 0 012.56-.32 8.85 8.85 0 013 .47c.66.25.87.55.84.65-.03.1-.28.49-1.17.74a9.63 9.63 0 01-2.57.31 8.9 8.9 0 01-3-.46c-.63-.24-.84-.52-.83-.63-.03-.09.27-.47 1.17-.71zm-8.23-2.9c0-.12.28-.5 1.17-.74a9.53 9.53 0 012.56-.32 9.37 9.37 0 013.05.46c.66.25.86.56.84.65-.02.09-.27.49-1.16.75a9.66 9.66 0 01-2.57.32 9.05 9.05 0 01-3-.47c-.64-.24-.84-.52-.84-.63zm-5.05 2.61l4.44-.62v1.46c0 .56.5.92 1.22 1.2a9.5 9.5 0 003.26.51 10.71 10.71 0 002.6-.31v2.21c0 .56.5.91 1.22 1.2a9.5 9.5 0 003.26.51 10.15 10.15 0 002.66-.32c.94-.29 1.56-.66 1.6-1.31v-3.36a10.25 10.25 0 002.55-.3v2.21c0 .56.51.92 1.22 1.19a9.31 9.31 0 003.27.52 10.2 10.2 0 002.73-.35c.93-.28 1.55-.65 1.59-1.31v-1.92.38l5 2.72-23 3.23zm37.26 22.33c-.08.06-23.39 3.28-23.39 3.28v-17.61l23.39-3.28s-.01 17.55 0 17.66z" fill="#02743b"/><path d="M101.414 99.532c0-.55-.5-.91-1.22-1.2a9.61 9.61 0 00-3.27-.5 9.86 9.86 0 00-2.73.35c-.93.27-1.54.65-1.59 1.29v1.38l-5.41.76h-.11v18.32a.68.68 0 000 .14l3.83 2.09 10.7 5.82a.28.28 0 00.12 0l24-3.37h.11v-18.33a.25.25 0 000-.12v-.05l-6.06-3.29v-1.14c0-.55-.5-.91-1.22-1.2a9.57 9.57 0 00-3.27-.5h-.72l-1.85-1v-.94c0-.56-.5-.92-1.22-1.2a9.26 9.26 0 00-3.26-.51 10.15 10.15 0 00-2.73.34c-.93.29-1.55.65-1.6 1.3v1.19l-2.55.36" fill="#1ea551"/><path d="M126.034 106.452a.25.25 0 000-.12v-.05l-6.06-3.29v-1.14c0-.55-.5-.91-1.22-1.2a9.57 9.57 0 00-3.27-.5h-.72l-1.85-1v.67l.84.45a6.91 6.91 0 00-.84.18v-2.33c0-.56-.5-.92-1.22-1.2a9.26 9.26 0 00-3.26-.51 10.15 10.15 0 00-2.73.34c-.93.29-1.55.65-1.6 1.3v1.19l-2.55.36v.6l2.55-.36v1.53a9.91 9.91 0 00-2.69.34h.14v-2.24c0-.55-.5-.91-1.22-1.2a9.61 9.61 0 00-3.27-.5 9.86 9.86 0 00-2.73.35c-.93.27-1.54.65-1.59 1.29v1.38l-5.41.76h-.11v18.32a.68.68 0 000 .14l3.83 2.08 10.7 5.82a.28.28 0 00.12 0l24-3.37h.11v-18.33zm-10.69-5.81a9 9 0 013.05.47c.67.24.87.55.84.64-.03.09-.27.5-1.16.75a9.61 9.61 0 01-2.57.32 9 9 0 01-3-.47c-.64-.24-.85-.52-.85-.63 0-.12.29-.49 1.18-.74a9.51 9.51 0 012.51-.34zm-9.6-3.32a9.53 9.53 0 012.56-.32 9.09 9.09 0 013 .47c.66.25.87.55.84.65-.03.1-.28.49-1.17.74a9.63 9.63 0 01-2.57.31 8.9 8.9 0 01-3-.46c-.63-.24-.84-.52-.83-.63-.04-.14.27-.52 1.17-.76zm-4.31 5a9.53 9.53 0 012.56-.32 9.09 9.09 0 013 .47c.67.25.87.55.84.65-.03.1-.28.49-1.17.74a9.56 9.56 0 01-2.57.32 9.07 9.07 0 01-3-.47c-.63-.24-.85-.52-.84-.63-.03-.08.28-.47 1.17-.71zm-8.23-2.89c0-.12.28-.49 1.17-.74a9.64 9.64 0 012.56-.32 9 9 0 013 .47c.66.24.87.55.84.64-.03.09-.27.5-1.16.75a9.66 9.66 0 01-2.57.32 9.05 9.05 0 01-3-.47c-.63-.24-.84-.52-.84-.63zm-5 2.61l4.44-.63v1.37c0 .55.51.91 1.23 1.19a9.42 9.42 0 003.26.51 10.69 10.69 0 002.59-.31v2.21c0 .56.5.92 1.22 1.2a9.5 9.5 0 003.26.51 10.15 10.15 0 002.73-.34c.94-.29 1.56-.66 1.6-1.31v-3.41a10.25 10.25 0 002.55-.3v2.24c0 .56.5.92 1.22 1.2a9.5 9.5 0 003.26.51 10.21 10.21 0 002.73-.34c.94-.29 1.55-.66 1.6-1.31v-1.55l5 2.72-23 3.23zm37.26 22.33c-.08 0-23.39 3.27-23.39 3.27v-17.6l23.39-3.29s-.07 17.57-.06 17.67z" fill="#02743b"/><path d="M101.414 81.242c0-.56-.5-.92-1.22-1.2a9.6 9.6 0 00-3.27-.51 9.86 9.86 0 00-2.73.35c-.93.28-1.54.65-1.59 1.29v1.38l-5.41.77a.35.35 0 00-.11 0v18.27a.69.69 0 000 .13l3.83 2.09 10.7 5.82a.28.28 0 00.12 0l24-3.37a.19.19 0 00.11 0v-18.06a.25.25 0 000-.12v-.06l-6.06-3.3v-1.14c0-.56-.5-.92-1.22-1.2a9.56 9.56 0 00-3.27-.51h-.72l-1.85-1v-.94c0-.56-.5-.91-1.22-1.2a9.5 9.5 0 00-3.26-.51 10.15 10.15 0 00-2.73.34c-.93.29-1.55.66-1.6 1.3v1.19l-2.55.36" fill="#1ea551"/><path d="M126.034 88.162a.25.25 0 000-.12v-.06l-6.06-3.3v-1.14c0-.56-.5-.92-1.22-1.2a9.56 9.56 0 00-3.27-.51h-.72l-1.85-1v.67l.84.45c-.29 0-.58.11-.84.18v-2.24c0-.56-.5-.91-1.22-1.2a9.5 9.5 0 00-3.26-.51 10.15 10.15 0 00-2.73.34c-.93.29-1.55.66-1.6 1.3v1.19l-2.55.36v.6l2.55-.35v1.52a9.91 9.91 0 00-2.69.34h.14v-2.24c0-.56-.5-.92-1.22-1.2a9.6 9.6 0 00-3.27-.51 9.86 9.86 0 00-2.73.35c-.93.28-1.54.65-1.59 1.29v1.38l-5.41.77a.35.35 0 00-.11 0v18.27a.69.69 0 000 .13l3.83 2.09 10.7 5.82a.28.28 0 00.12 0l24-3.37a.19.19 0 00.11 0v-18.06zm-10.69-5.84a9 9 0 013.05.47c.67.25.87.55.84.65-.03.1-.27.49-1.16.74a9.61 9.61 0 01-2.57.32 9 9 0 01-3-.47c-.64-.24-.85-.52-.85-.63 0-.12.29-.49 1.18-.73a9.11 9.11 0 012.51-.35zm-9.61-3.32a9.53 9.53 0 012.56-.32 9.09 9.09 0 013 .47c.66.25.87.55.84.65-.03.1-.28.49-1.17.74a9.61 9.61 0 01-2.57.32 8.89 8.89 0 01-3-.47c-.63-.24-.84-.52-.83-.63-.03-.1.28-.44 1.18-.73zm-4.31 5a10 10 0 012.56-.31 9.11 9.11 0 013 .46c.67.25.87.56.84.65-.03.09-.28.5-1.17.74a9.56 9.56 0 01-2.57.32 8.83 8.83 0 01-3-.47c-.63-.23-.85-.52-.84-.62-.02-.06.29-.45 1.18-.69zm-8.23-2.89c0-.11.28-.49 1.17-.74a9.66 9.66 0 012.56-.31 9 9 0 013 .46c.66.25.87.55.84.65-.03.1-.27.49-1.16.74a9.66 9.66 0 01-2.57.32 9.05 9.05 0 01-3-.47c-.63-.24-.84-.51-.84-.62zm-5 2.61l4.44-.63v1.37c0 .56.51.91 1.23 1.19a9.19 9.19 0 003.26.51 10.22 10.22 0 002.59-.31v2.22c0 .55.5.91 1.22 1.2a9.75 9.75 0 003.26.5 10.15 10.15 0 002.73-.34c.94-.29 1.56-.66 1.6-1.31v-3.35a10.74 10.74 0 002.55-.3v2.23c0 .55.5.91 1.22 1.19a9.26 9.26 0 003.26.51 10.21 10.21 0 002.73-.34c.94-.29 1.55-.66 1.6-1.31v-1.43l5 2.72-23 3.23zm37.26 22.32c-.08.06-23.39 3.29-23.39 3.29v-17.61l23.39-3.29s-.06 17.58-.05 17.69z" fill="#02743b"/><path d="M101.414 44.672c0-.55-.5-.91-1.22-1.2a11 11 0 00-6-.16c-.93.28-1.54.66-1.59 1.3v1.38l-5.41.76h-.11a.09.09 0 000 .05v18.28a.51.51 0 000 .13l3.83 2.1 10.7 5.81a.28.28 0 00.12 0l24-3.37h.11v-18.16a.25.25 0 000-.12v-.05l-6.06-3.29v-1.14c0-.56-.5-.91-1.22-1.2a9.57 9.57 0 00-3.27-.5h-.72l-1.85-1v-.94c0-.56-.5-.92-1.22-1.2a9.49 9.49 0 00-3.26-.52 10.14 10.14 0 00-2.73.35c-.93.28-1.55.65-1.6 1.29v1.19l-2.55.36" fill="#1ea551"/><path d="M126.034 51.592a.25.25 0 000-.12v-.05l-6.06-3.29v-1.14c0-.56-.5-.91-1.22-1.2a9.57 9.57 0 00-3.27-.5h-.72l-1.85-1v.67l.84.45a6.91 6.91 0 00-.84.18v-2.24c0-.56-.5-.92-1.22-1.2a9.49 9.49 0 00-3.26-.52 10.14 10.14 0 00-2.73.35c-.93.28-1.55.65-1.6 1.29v1.19l-2.55.36v.6l2.55-.36v1.53a9.91 9.91 0 00-2.69.34h.14v-2.24c0-.55-.5-.91-1.22-1.2a11 11 0 00-6-.16c-.93.28-1.54.66-1.59 1.3v1.38l-5.41.76h-.11a.09.09 0 000 .05v18.28a.51.51 0 000 .13l3.83 2.1 10.7 5.81a.28.28 0 00.12 0l24-3.37h.11v-18.18zm-10.69-5.81a9.28 9.28 0 013.05.46c.67.25.87.56.84.65-.03.09-.27.49-1.16.75a9.61 9.61 0 01-2.57.32 9 9 0 01-3-.47c-.64-.24-.85-.52-.85-.63 0-.12.29-.5 1.18-.74a9.51 9.51 0 012.51-.34zm-9.61-3.32a9.53 9.53 0 012.56-.32 8.85 8.85 0 013 .47c.66.25.87.55.84.65-.03.1-.28.49-1.17.74a9.63 9.63 0 01-2.57.31 8.9 8.9 0 01-3-.46c-.63-.24-.84-.52-.83-.63-.03-.14.28-.52 1.18-.76zm-4.31 5.05a9.53 9.53 0 012.56-.32 9.09 9.09 0 013 .47c.67.25.87.55.84.65-.03.1-.28.49-1.17.74a9.58 9.58 0 01-2.57.31 8.84 8.84 0 01-3-.46c-.63-.24-.85-.52-.84-.63-.02-.13.29-.52 1.18-.76zm-8.23-2.89c0-.12.28-.49 1.17-.74a9.64 9.64 0 012.56-.32 9 9 0 013 .47c.66.24.87.55.84.64-.03.09-.27.5-1.16.75a9.66 9.66 0 01-2.57.32 9.05 9.05 0 01-3-.47c-.63-.24-.84-.52-.84-.63zm-5 2.61l4.44-.63v1.37c0 .56.51.92 1.23 1.2a9.42 9.42 0 003.26.51 10.69 10.69 0 002.59-.31v2.21c0 .56.5.92 1.22 1.2a9.5 9.5 0 003.26.51 10.15 10.15 0 002.73-.34c.94-.29 1.56-.66 1.6-1.31v-3.36a10.25 10.25 0 002.55-.3v2.24c0 .56.5.92 1.22 1.2a9.5 9.5 0 003.26.51 9.81 9.81 0 002.73-.35c.94-.28 1.55-.65 1.6-1.3v-1.55l5 2.72-23 3.23zm37.26 22.32c-.08.06-23.39 3.28-23.39 3.28v-17.6l23.39-3.29s-.06 17.5-.05 17.61z" fill="#02743b"/><path d="M101.414 26.382c0-.56-.5-.92-1.22-1.2a9.6 9.6 0 00-3.27-.51 10.26 10.26 0 00-2.73.34c-.93.28-1.54.66-1.59 1.3v1.38l-5.41.77a.2.2 0 00-.11 0v18.26a.51.51 0 000 .13l3.83 2.09 10.7 5.82a.28.28 0 00.12 0l24-3.37a.3.3 0 00.11 0v-18.32a.25.25 0 000-.12l-6.06-3.29v-1.14c0-.56-.5-.92-1.22-1.21a9.57 9.57 0 00-3.27-.5h-.72l-1.85-1v-.94c0-.56-.5-.92-1.22-1.2a9.26 9.26 0 00-3.26-.51 10.15 10.15 0 00-2.73.34c-.93.29-1.55.65-1.6 1.3v1.19l-2.55.36" fill="#1ea551"/><path d="M126.034 33.322a.25.25 0 000-.12l-6.06-3.29v-1.14c0-.56-.5-.92-1.22-1.21a9.57 9.57 0 00-3.27-.5h-.72l-1.85-1v.67l.84.45c-.29 0-.58.11-.84.18v-2.24c0-.56-.5-.92-1.22-1.2a9.26 9.26 0 00-3.26-.51 10.15 10.15 0 00-2.73.34c-.93.29-1.55.65-1.6 1.3v1.19l-2.55.36v.6l2.55-.35v1.52a9.91 9.91 0 00-2.69.34h.14v-2.24c0-.56-.5-.92-1.22-1.2a9.6 9.6 0 00-3.27-.51 10.26 10.26 0 00-2.73.34c-.93.28-1.54.66-1.59 1.3v1.38l-5.41.77a.2.2 0 00-.11 0v18.26a.51.51 0 000 .13l3.83 2.09 10.7 5.82a.28.28 0 00.12 0l24-3.37a.19.19 0 00.11 0v-18.33zm-10.69-5.81a9 9 0 013.05.47c.67.25.87.55.84.65-.03.1-.27.49-1.16.74a9.61 9.61 0 01-2.57.32 9 9 0 01-3-.47c-.64-.24-.85-.52-.85-.63 0-.12.29-.49 1.18-.74a9.51 9.51 0 012.51-.36zm-9.61-3.32a9.53 9.53 0 012.56-.32 9.09 9.09 0 013 .47c.66.25.87.55.84.65-.03.1-.28.49-1.17.74a9.61 9.61 0 01-2.57.32 9.14 9.14 0 01-3-.47c-.63-.24-.84-.52-.83-.63-.03-.15.28-.54 1.18-.78zm-4.31 5a10 10 0 012.56-.32 9.09 9.09 0 013 .47c.67.25.87.55.84.65-.03.1-.28.49-1.17.74a9.56 9.56 0 01-2.57.32 8.83 8.83 0 01-3-.47c-.63-.23-.85-.52-.84-.63-.02-.1.29-.48 1.18-.73zm-8.23-2.89c0-.12.28-.49 1.17-.74a9.64 9.64 0 012.56-.32 9 9 0 013 .47c.66.25.87.55.84.65-.03.1-.27.49-1.16.74a9.66 9.66 0 01-2.57.32 9.05 9.05 0 01-3-.47c-.63-.24-.84-.52-.84-.62zm-5 2.61l4.44-.63v1.37c0 .56.51.91 1.23 1.19a9.19 9.19 0 003.26.51 10.22 10.22 0 002.59-.31v2.21c0 .56.5.92 1.22 1.2a9.5 9.5 0 003.26.51 10.15 10.15 0 002.73-.34c.94-.29 1.56-.66 1.6-1.31v-3.36a10.24 10.24 0 002.55-.31v2.24c0 .55.5.91 1.22 1.19a9.5 9.5 0 003.26.51 10.21 10.21 0 002.73-.34c.94-.29 1.55-.66 1.6-1.31v-1.51l5 2.72-23 3.23zm37.26 22.32c-.08.06-23.39 3.29-23.39 3.29v-17.61l23.39-3.29s-.06 17.53-.05 17.64z" fill="#02743b"/><path d="M77.414 66.322c0-.55-.5-.91-1.22-1.19a9.36 9.36 0 00-3.27-.51 9.86 9.86 0 00-2.73.35c-.93.27-1.54.65-1.59 1.29v1.38l-5.42.76h-.11v18.27a.35.35 0 000 .14v.05l3.83 2.09 10.7 5.82a.28.28 0 00.12 0l24-3.37a.18.18 0 00.1 0v-18.33a.25.25 0 000-.12l-6.06-3.3v-1.14c0-.55-.5-.91-1.22-1.2a9.55 9.55 0 00-3.26-.5h-.73l-1.85-1v-.94c0-.56-.51-.92-1.22-1.2a9.59 9.59 0 00-3.27-.52 10.14 10.14 0 00-2.73.35c-.93.28-1.55.65-1.6 1.3v1.19l-2.55.36" fill="#1ea551"/><path d="M102.034 73.262a.25.25 0 000-.12l-6.06-3.3v-1.14c0-.55-.5-.91-1.22-1.2a9.55 9.55 0 00-3.26-.5h-.73l-1.85-1v.67l.83.45q-.43.08-.84.18v-2.24c0-.56-.51-.92-1.22-1.2a9.59 9.59 0 00-3.27-.52 10.14 10.14 0 00-2.73.35c-.93.28-1.55.65-1.6 1.3v1.19l-2.55.36v.6l2.55-.36v1.55a9.93 9.93 0 00-2.7.34h.14v-2.24c0-.55-.5-.91-1.22-1.19a9.36 9.36 0 00-3.27-.51 9.86 9.86 0 00-2.73.35c-.93.27-1.54.65-1.59 1.29v1.38l-5.42.76h-.11v18.27a.35.35 0 000 .14v.05l3.83 2.09 10.7 5.82a.28.28 0 00.12 0l24-3.37a.18.18 0 00.1 0v-18.33zm-10.68-5.81a9.26 9.26 0 013 .46c.67.26.87.56.85.65-.02.09-.28.5-1.17.75a9.53 9.53 0 01-2.56.32 9 9 0 01-3-.47c-.64-.24-.85-.52-.85-.62 0-.12.29-.49 1.18-.74a9.53 9.53 0 012.55-.35zm-9.62-3.32a9.59 9.59 0 012.56-.32 9.09 9.09 0 013 .47c.66.25.87.55.85.65-.02.1-.28.49-1.18.74a9.58 9.58 0 01-2.57.31 8.7 8.7 0 01-3-.46c-.62-.24-.84-.52-.83-.63-.03-.13.28-.51 1.18-.76zm-4.31 5.05a10 10 0 012.56-.32 9.09 9.09 0 013 .47c.66.25.87.55.84.65-.03.1-.27.49-1.17.74a9.53 9.53 0 01-2.56.32 9.05 9.05 0 01-3.05-.47c-.63-.23-.84-.52-.84-.63.02-.13.33-.51 1.22-.76zm-8.23-2.89c0-.12.29-.49 1.18-.73a9.13 9.13 0 012.55-.32 9 9 0 013 .46c.67.25.87.55.85.64-.02.09-.28.5-1.17.75a9.61 9.61 0 01-2.57.32 9.09 9.09 0 01-3-.47c-.63-.24-.84-.52-.84-.62zm-5 2.61l4.44-.63v1.37c0 .55.51.91 1.23 1.19a9.46 9.46 0 003.26.51 10.16 10.16 0 002.59-.31v2.21c0 .56.5.92 1.22 1.2a9.54 9.54 0 003.26.51 10.28 10.28 0 002.74-.34c.94-.29 1.55-.66 1.59-1.31v-3.35a10.25 10.25 0 002.55-.3v2.21c0 .56.51.91 1.23 1.19a9.5 9.5 0 003.26.51 10.33 10.33 0 002.74-.34c.93-.29 1.55-.66 1.59-1.31v-1.55l5 2.72-23 3.23zm37.26 22.33c-.08.05-23.39 3.27-23.39 3.27v-17.6l23.39-3.29-.05 17.62z" fill="#02743b"/><path d="M77.414 11.482c0-.55-.5-.91-1.22-1.2a9.61 9.61 0 00-3.27-.5 10.26 10.26 0 00-2.73.34c-.93.28-1.54.66-1.59 1.3v1.38l-5.42.76h-.11v18.28a.28.28 0 000 .13v.05l3.83 2.09 10.7 5.83a.28.28 0 00.12 0l24-3.37h.1v-18.33a.25.25 0 000-.12l-6.06-3.29v-1.14c0-.56-.5-.91-1.22-1.2a9.55 9.55 0 00-3.26-.5h-.73l-1.85-1v-.94c0-.55-.51-.91-1.22-1.19a9.59 9.59 0 00-3.27-.52 10.14 10.14 0 00-2.73.35c-.93.28-1.55.65-1.6 1.3v1.19l-2.55.36" fill="#1ea551"/><path d="M102.034 18.402a.25.25 0 000-.12l-6.06-3.29v-1.14c0-.56-.5-.91-1.22-1.2a9.55 9.55 0 00-3.26-.5h-.73l-1.85-1v.67l.83.45q-.43.08-.84.18v-2.24c0-.55-.51-.91-1.22-1.19a9.59 9.59 0 00-3.27-.52 10.14 10.14 0 00-2.73.35c-.93.28-1.55.65-1.6 1.3v1.19l-2.55.36v.6l2.55-.35v1.37a9.93 9.93 0 00-2.7.34h.14v-2.24c0-.55-.5-.91-1.22-1.2a9.61 9.61 0 00-3.27-.5 10.26 10.26 0 00-2.73.34c-.93.28-1.54.66-1.59 1.3v1.38l-5.42.76h-.11v18.28a.28.28 0 000 .13v.05l3.83 2.09 10.7 5.83a.28.28 0 00.12 0l24-3.37h.1v-18.33zm-10.68-5.81a9.26 9.26 0 013 .46c.67.26.87.56.85.65-.02.09-.28.5-1.17.74a9.13 9.13 0 01-2.56.33 9 9 0 01-3-.47c-.64-.24-.85-.52-.85-.63 0-.12.29-.49 1.18-.74a9.53 9.53 0 012.55-.34zm-9.61-3.27a9.59 9.59 0 012.56-.32 9.09 9.09 0 013 .47c.66.25.87.55.85.64-.02.09-.28.5-1.18.75a9.58 9.58 0 01-2.57.31 8.94 8.94 0 01-3-.46c-.62-.24-.84-.52-.83-.63-.04-.19.27-.57 1.17-.76zm-4.31 5a9.53 9.53 0 012.56-.32 9.09 9.09 0 013 .47c.66.25.87.55.84.65-.03.1-.27.49-1.17.74a9.55 9.55 0 01-2.56.31 8.59 8.59 0 01-3.05-.46c-.63-.23-.84-.52-.84-.63.01-.14.32-.51 1.21-.76zm-8.23-2.89c0-.12.29-.49 1.18-.74a9.51 9.51 0 012.55-.32 9.28 9.28 0 013 .46c.67.26.87.56.85.65-.02.09-.28.5-1.17.75a9.61 9.61 0 01-2.57.32 9.09 9.09 0 01-3-.47c-.63-.24-.84-.52-.84-.63zm-5 2.61l4.44-.63v1.37c0 .56.51.92 1.23 1.2a9.46 9.46 0 003.26.51 10.16 10.16 0 002.59-.31v2.21c0 .56.5.92 1.22 1.2a9.54 9.54 0 003.26.51 10.28 10.28 0 002.74-.34c.94-.29 1.55-.66 1.59-1.31v-3.36a10.25 10.25 0 002.55-.3v2.21c0 .56.51.92 1.23 1.2a9.5 9.5 0 003.26.51 9.93 9.93 0 002.74-.35c.93-.28 1.55-.65 1.59-1.3v-1.54l5 2.72-23 3.23zm37.2 22.28c-.08.06-23.39 3.28-23.39 3.28v-17.61l23.39-3.28z" fill="#02743b"/><path d="M53.434 69.722c0-.56-.5-.91-1.22-1.2a9.57 9.57 0 00-3.27-.5 9.87 9.87 0 00-2.73.34c-.93.28-1.54.65-1.59 1.3v1.38l-5.42.76h-.11a.14.14 0 000 .07v18.21a.28.28 0 000 .13v.05l3.83 2.09 10.7 5.82a.31.31 0 00.13 0l24-3.37h.11a.14.14 0 000-.06v-18.21a.22.22 0 000-.12l-6.05-3.29v-1.14c0-.56-.5-.92-1.22-1.2a9.54 9.54 0 00-3.26-.51h-.72l-1.86-1v-.95c0-.55-.51-.91-1.23-1.2a9.74 9.74 0 00-3.26-.51 10 10 0 00-2.72.35c-.94.28-1.56.65-1.61 1.29v1.21l-2.55.36" fill="#1ea551"/><path d="M78.054 76.642a.22.22 0 000-.12l-6.05-3.29v-1.14c0-.56-.5-.92-1.22-1.2a9.54 9.54 0 00-3.26-.51h-.72l-1.86-1v.66l.83.46c-.29.05-.57.1-.83.17v-2.35c0-.55-.51-.91-1.23-1.2a9.74 9.74 0 00-3.26-.51 10 10 0 00-2.72.35c-.94.28-1.56.65-1.61 1.29v1.21l-2.55.36v.6l2.54-.36v1.55a9.78 9.78 0 00-2.68.34h.14v-2.23c0-.56-.5-.91-1.22-1.2a9.57 9.57 0 00-3.27-.5 9.87 9.87 0 00-2.73.34c-.93.28-1.54.65-1.59 1.3v1.38l-5.42.76h-.11a.14.14 0 000 .07v18.21a.28.28 0 000 .13v.05l3.83 2.09 10.7 5.82a.31.31 0 00.13 0l24-3.37h.11a.14.14 0 000-.06v-18.21zm-10.68-5.81a9.37 9.37 0 013 .46c.66.25.86.55.84.65-.02.1-.27.5-1.17.74a9.13 9.13 0 01-2.56.33 8.79 8.79 0 01-3-.48c-.64-.24-.85-.51-.85-.62 0-.12.29-.5 1.18-.74a9.53 9.53 0 012.56-.34zm-9.62-3.32a9.59 9.59 0 012.56-.32 8.85 8.85 0 013 .47c.67.25.87.55.85.64-.02.09-.28.5-1.18.74a9.53 9.53 0 01-2.56.32 8.86 8.86 0 01-3-.46c-.63-.24-.85-.53-.84-.63-.03-.14.28-.52 1.16-.76zm-4.31 5a9.59 9.59 0 012.56-.32 8.81 8.81 0 013 .47c.67.25.87.55.85.64-.02.09-.28.5-1.17.75a9.68 9.68 0 01-2.57.31 8.86 8.86 0 01-3.05-.46c-.63-.24-.84-.53-.84-.63.02-.09.33-.47 1.22-.71zm-8.23-2.89c0-.12.29-.5 1.18-.74a9.51 9.51 0 012.55-.32 9.28 9.28 0 013 .46c.67.25.87.56.85.65-.02.09-.28.49-1.17.74a10.11 10.11 0 01-5.61-.14c-.64-.24-.85-.52-.85-.63zm-5 2.61l4.44-.63v1.37c0 .56.51.92 1.23 1.2a9.5 9.5 0 003.26.51 10.57 10.57 0 002.59-.31v2.21c0 .56.5.92 1.22 1.2a9.54 9.54 0 003.26.51 10.28 10.28 0 002.74-.34c.94-.3 1.56-.67 1.6-1.31v-3.36a10.19 10.19 0 002.55-.3v2.23c0 .56.5.92 1.22 1.2a9.52 9.52 0 003.27.51 10.2 10.2 0 002.73-.35c.93-.29 1.55-.65 1.59-1.31v-1.54l5 2.72-23 3.23zm37.27 22.32c-.09.06-23.4 3.28-23.4 3.28v-17.61l23.39-3.29s-.05 17.56-.04 17.67z" fill="#02743b"/><path d="M53.434 14.862c0-.56-.5-.91-1.22-1.2a9.56 9.56 0 00-3.27-.51 9.86 9.86 0 00-2.73.35c-.93.28-1.54.65-1.59 1.3v1.39l-5.42.76h-.11a.14.14 0 000 .07v18.21a.28.28 0 000 .13v.05l3.83 2.09 10.7 5.82a.61.61 0 00.13 0l24-3.37h.11a.14.14 0 000-.07v-18.21a.2.2 0 000-.11l-6.05-3.29v-1.14c0-.56-.5-.92-1.22-1.2a9.54 9.54 0 00-3.26-.51h-.72l-1.86-1v-.94c0-.56-.51-.91-1.23-1.2a9.74 9.74 0 00-3.26-.51 9.64 9.64 0 00-2.72.35c-.94.28-1.56.65-1.61 1.29v1.2l-2.55.36" fill="#1ea551"/><path d="M78.054 21.772a.2.2 0 000-.11l-6.05-3.29v-1.14c0-.56-.5-.92-1.22-1.2a9.54 9.54 0 00-3.26-.51h-.72l-1.86-1v.66l.83.46a6.76 6.76 0 00-.83.17v-2.23c0-.56-.51-.91-1.23-1.2a9.74 9.74 0 00-3.26-.51 9.64 9.64 0 00-2.72.35c-.94.28-1.56.65-1.61 1.29v1.2l-2.55.36v.6l2.54-.36v1.55a10.17 10.17 0 00-2.68.35h.14v-2.23c0-.56-.5-.91-1.22-1.2a9.56 9.56 0 00-3.27-.51 9.86 9.86 0 00-2.73.35c-.93.28-1.54.65-1.59 1.3v1.39l-5.42.76h-.11a.14.14 0 000 .07v18.21a.28.28 0 000 .13v.05l3.83 2.09 10.7 5.82a.61.61 0 00.13 0l24-3.37h.11a.14.14 0 000-.07v-18.21zm-10.68-5.8a9.11 9.11 0 013 .46c.66.25.86.55.84.65-.02.1-.27.49-1.17.74a9.15 9.15 0 01-2.56.32 8.81 8.81 0 01-3-.47c-.64-.24-.85-.51-.85-.62 0-.11.29-.49 1.18-.73a9.15 9.15 0 012.56-.35zm-9.62-3.32a9.57 9.57 0 012.56-.33 9.09 9.09 0 013 .47c.67.25.87.56.85.65-.02.09-.28.5-1.18.74a9.53 9.53 0 01-2.56.32 8.86 8.86 0 01-3-.46c-.63-.24-.85-.53-.84-.64-.03-.08.28-.51 1.16-.75zm-4.31 5a9.59 9.59 0 012.56-.32 8.81 8.81 0 013 .47c.67.25.87.55.85.64-.02.09-.28.5-1.17.75a10.11 10.11 0 01-2.57.31 8.86 8.86 0 01-3.05-.46c-.63-.24-.84-.53-.84-.63.02-.09.33-.47 1.22-.71zm-8.23-2.9c0-.12.29-.5 1.18-.74a9.51 9.51 0 012.55-.32 9.28 9.28 0 013 .46c.67.25.87.55.85.65-.02.1-.28.49-1.17.74a9.13 9.13 0 01-2.56.33 8.79 8.79 0 01-3-.48c-.64-.23-.85-.51-.85-.62zm-5 2.61l4.44-.62v1.36c0 .56.51.92 1.23 1.2a9.5 9.5 0 003.26.51 10.57 10.57 0 002.59-.31v2.21c0 .55.5.91 1.22 1.2a9.55 9.55 0 003.26.5 10.28 10.28 0 002.74-.34c.94-.29 1.56-.66 1.6-1.3v-3.36a10.68 10.68 0 002.55-.3v2.23c0 .56.5.91 1.22 1.19a9.28 9.28 0 003.27.51 10.21 10.21 0 002.73-.34c.93-.29 1.55-.65 1.59-1.31v-1.55l5 2.72-23 3.24zm37.27 22.33c-.09.06-23.4 3.28-23.4 3.28v-17.61l23.39-3.28s-.05 17.55-.04 17.66z" fill="#02743b"/><path d="M29.444 109.652c0-.55-.5-.91-1.22-1.2a10.85 10.85 0 00-6-.15c-.94.27-1.55.65-1.59 1.29v1.38l-5.42.76h-.11a.14.14 0 000 .06v18.21a.32.32 0 000 .13l3.83 2.09 10.71 5.82a.33.33 0 00.13 0l24-3.37a.25.25 0 00.11 0v-18.28a.27.27 0 000-.12v-.05l-6.05-3.3v-1.14c0-.55-.49-.91-1.22-1.2a9.51 9.51 0 00-3.26-.5h-.72l-1.86-1v-1c0-.55-.5-.91-1.22-1.19a9.36 9.36 0 00-3.27-.51 10 10 0 00-2.72.34c-.94.29-1.56.65-1.6 1.3v1.19l-2.55.36" fill="#1ea551"/><path d="M54.074 116.572a.27.27 0 000-.12v-.05l-6.05-3.3v-1.14c0-.55-.49-.91-1.22-1.2a9.51 9.51 0 00-3.26-.5h-.72l-1.86-1v.67l.84.45q-.45.07-.84.18v-2.25c0-.55-.5-.91-1.22-1.19a9.36 9.36 0 00-3.27-.51 10 10 0 00-2.72.34c-.94.29-1.56.65-1.6 1.3v1.19l-2.55.36v.6l2.54-.36v1.55a9.8 9.8 0 00-2.69.34h.14v-2.24c0-.55-.5-.91-1.22-1.2a10.85 10.85 0 00-6-.15c-.94.27-1.55.65-1.59 1.29v1.38l-5.42.76h-.11a.14.14 0 000 .06v18.21a.32.32 0 000 .13l3.83 2.09 10.71 5.82a.33.33 0 00.13 0l24-3.37a.25.25 0 00.11 0v-18.28zm-10.69-5.81a9.09 9.09 0 013 .47c.66.25.86.55.84.64-.02.09-.27.5-1.17.75a9.53 9.53 0 01-2.56.32 9.05 9.05 0 01-3-.47c-.64-.24-.85-.52-.85-.62 0-.12.29-.49 1.18-.74a9.53 9.53 0 012.56-.35zm-9.62-3.32a9.59 9.59 0 012.56-.32 9.09 9.09 0 013.05.47c.67.25.87.55.85.64-.02.09-.28.5-1.17.75a9.66 9.66 0 01-2.57.32 8.85 8.85 0 01-3-.47c-.63-.24-.84-.52-.84-.63-.08-.13.23-.51 1.1-.76zm-4.31 5a9.66 9.66 0 012.57-.32 9.14 9.14 0 013 .47c.66.25.86.55.84.65-.02.1-.28.49-1.17.74a9.66 9.66 0 01-2.57.32 8.85 8.85 0 01-3-.47c-.63-.24-.84-.52-.84-.63-.03-.08.29-.46 1.17-.71zm-8.23-2.89c0-.12.29-.49 1.18-.73a9.11 9.11 0 012.55-.33 9 9 0 013 .47c.67.25.87.55.85.64-.02.09-.28.5-1.17.75a9.53 9.53 0 01-2.56.32 9.05 9.05 0 01-3.05-.47c-.64-.24-.85-.52-.85-.62zm-5 2.61l4.45-.62v1.36c0 .56.5.91 1.22 1.19a9.5 9.5 0 003.26.51 10.11 10.11 0 002.59-.31v2.21c0 .56.5.92 1.22 1.2a9.58 9.58 0 003.26.51 10.23 10.23 0 002.74-.34c.94-.29 1.56-.66 1.6-1.3v-3.36a.09.09 0 000-.05 10.66 10.66 0 002.55-.31v2.24c0 .57.5.92 1.22 1.2a9.52 9.52 0 003.27.51 10.21 10.21 0 002.73-.34c.93-.29 1.55-.66 1.59-1.31v-1.55l5 2.72-23 3.23zm37.27 22.33c-.09 0-23.4 3.27-23.4 3.27v-17.6l23.39-3.29s-.05 17.55-.04 17.67z" fill="#02743b"/><path d="M29.444 91.372c0-.56-.5-.92-1.22-1.2a9.56 9.56 0 00-3.27-.51 9.74 9.74 0 00-2.72.35c-.94.28-1.55.65-1.59 1.29v1.38l-5.42.77h-.11a.14.14 0 000 .06v18.2a.32.32 0 000 .14l3.83 2.09 10.71 5.82h.13l24-3.36a.27.27 0 00.11-.05v-18.28a.2.2 0 000-.11v-.06l-6.05-3.3v-1.14c0-.56-.49-.92-1.22-1.2a9.5 9.5 0 00-3.26-.51h-.72l-1.86-1v-.93c0-.56-.5-.91-1.22-1.2a9.6 9.6 0 00-3.27-.51 10 10 0 00-2.72.34c-.94.29-1.56.66-1.6 1.3v1.2l-2.55.35" fill="#1ea551"/><path d="M54.074 98.322a.2.2 0 000-.11v-.06l-6.05-3.3v-1.14c0-.56-.49-.92-1.22-1.2a9.5 9.5 0 00-3.26-.51h-.72l-1.86-1v.67l.84.46a6.56 6.56 0 00-.84.17v-2.23c0-.56-.5-.91-1.22-1.2a9.6 9.6 0 00-3.27-.51 10 10 0 00-2.72.34c-.94.29-1.56.66-1.6 1.3v1.2l-2.55.35v.61l2.54-.36v1.54a10.2 10.2 0 00-2.69.34h.14v-2.23c0-.56-.5-.92-1.22-1.2a9.56 9.56 0 00-3.27-.51 9.74 9.74 0 00-2.72.35c-.94.28-1.55.65-1.59 1.29v1.38l-5.42.77h-.11a.14.14 0 000 .06v18.2a.32.32 0 000 .14l3.83 2.09 10.71 5.82h.13l24-3.36a.27.27 0 00.11-.05v-18.28zm-10.69-5.81a9.09 9.09 0 013 .47c.66.25.86.55.84.65-.02.1-.27.49-1.17.74a9.53 9.53 0 01-2.56.32 9.05 9.05 0 01-3-.47c-.64-.24-.85-.51-.85-.62 0-.11.29-.49 1.18-.73a9.13 9.13 0 012.56-.4zm-9.62-3.32a9.59 9.59 0 012.56-.32 9.09 9.09 0 013.05.47c.67.25.87.55.85.65-.02.1-.28.49-1.17.74a9.66 9.66 0 01-2.57.32 8.85 8.85 0 01-3-.47c-.63-.23-.84-.52-.84-.62-.08-.18.23-.56 1.1-.81zm-4.31 5a10.09 10.09 0 012.57-.32 9.14 9.14 0 013 .47c.66.25.86.56.84.65-.02.09-.28.5-1.17.74a9.66 9.66 0 01-2.57.32 8.86 8.86 0 01-3-.46c-.63-.24-.84-.53-.84-.64-.03-.12.29-.5 1.17-.75zm-8.23-2.89c0-.12.29-.5 1.18-.74a9.13 9.13 0 012.55-.32 9 9 0 013 .46c.67.25.87.56.85.65-.02.09-.28.49-1.17.74a9.15 9.15 0 01-2.56.32 9.05 9.05 0 01-3.05-.47c-.64-.24-.85-.51-.85-.62zm-5 2.61l4.45-.62v1.36c0 .56.5.91 1.22 1.19a9.26 9.26 0 003.26.51 10.58 10.58 0 002.59-.3v2.2c0 .55.5.91 1.22 1.2a9.59 9.59 0 003.26.5 10.23 10.23 0 002.74-.34c.94-.29 1.56-.66 1.6-1.31v-3.35a10.68 10.68 0 002.55-.3v2.23c0 .56.5.91 1.22 1.19a9.52 9.52 0 003.27.51 10.21 10.21 0 002.73-.34c.93-.29 1.55-.66 1.59-1.31v-1.55l5 2.72-23 3.24zm37.27 22.33c-.09.05-23.4 3.28-23.4 3.28v-17.61l23.39-3.29s-.05 17.52-.04 17.63z" fill="#02743b"/><path d="M29.444 73.082c0-.56-.5-.91-1.22-1.2a9.56 9.56 0 00-3.27-.51 9.74 9.74 0 00-2.72.35c-.94.28-1.55.66-1.59 1.3v1.38l-5.42.76h-.11a.14.14 0 000 .07v18.21a.27.27 0 000 .13v.05l3.83 2.09 10.71 5.82a.31.31 0 00.13 0l24-3.37a.25.25 0 00.11 0v-18.34a.21.21 0 000-.12l-6.05-3.29v-1.09c0-.56-.49-.91-1.22-1.2a9.51 9.51 0 00-3.26-.5h-.72l-1.86-1v-.94c0-.56-.5-.91-1.22-1.2a9.85 9.85 0 00-3.27-.51 10 10 0 00-2.72.34c-.94.29-1.56.66-1.6 1.3v1.21l-2.55.36" fill="#1ea551"/><path d="M54.074 80.002a.21.21 0 000-.12l-6.05-3.29v-1.27c0-.56-.49-.91-1.22-1.2a9.51 9.51 0 00-3.26-.5h-.72l-1.86-1v.7l.84.46a6.52 6.52 0 00-.84.18v-2.24c0-.56-.5-.91-1.22-1.2a9.85 9.85 0 00-3.27-.51 10 10 0 00-2.72.34c-.94.29-1.56.66-1.6 1.3v1.21l-2.55.36v.6l2.54-.36v1.55a10.19 10.19 0 00-2.69.35h.14v-2.23c0-.56-.5-.91-1.22-1.2a9.56 9.56 0 00-3.27-.51 9.74 9.74 0 00-2.72.35c-.94.28-1.55.66-1.59 1.3v1.38l-5.42.76h-.11a.14.14 0 000 .07v18.21a.27.27 0 000 .13v.05l3.83 2.09 10.71 5.82a.31.31 0 00.13 0l24-3.37a.25.25 0 00.11 0v-18.34zm-10.69-5.81a9.37 9.37 0 013 .46c.66.25.86.56.84.65-.02.09-.27.49-1.17.74a9.15 9.15 0 01-2.56.32 8.81 8.81 0 01-3-.47c-.64-.23-.85-.51-.85-.62 0-.12.29-.5 1.18-.74a9.53 9.53 0 012.56-.34zm-9.62-3.32a9.59 9.59 0 012.56-.32 8.85 8.85 0 013.05.47c.67.24.87.55.85.64-.02.09-.28.5-1.17.75a10.11 10.11 0 01-2.57.31 8.86 8.86 0 01-3-.46c-.63-.24-.84-.53-.84-.63-.08-.14.23-.52 1.1-.76zm-4.31 5.05a9.66 9.66 0 012.57-.32 8.89 8.89 0 013 .47c.66.25.86.55.84.64-.02.09-.28.5-1.17.75a10.11 10.11 0 01-2.57.31 8.63 8.63 0 01-3-.46c-.63-.24-.84-.52-.84-.63-.03-.14.29-.52 1.17-.76zm-8.23-2.89c0-.12.29-.5 1.18-.74a9.51 9.51 0 012.55-.32 9.28 9.28 0 013 .46c.67.25.87.56.85.65-.02.09-.28.49-1.17.74a10.37 10.37 0 01-5.61-.14c-.64-.24-.85-.52-.85-.63zm-5 2.6l4.45-.62v1.37c0 .56.5.92 1.22 1.2a9.5 9.5 0 003.26.51 10.57 10.57 0 002.59-.31v2.21c0 .56.5.91 1.22 1.2a9.58 9.58 0 003.26.51 10.23 10.23 0 002.74-.34c.94-.3 1.56-.66 1.6-1.31v-3.36a10.19 10.19 0 002.55-.3v2.23c0 .56.5.92 1.22 1.19a9.27 9.27 0 003.27.52 10.2 10.2 0 002.73-.35c.93-.29 1.55-.65 1.59-1.3v-1.56l5 2.72-23 3.23zm37.27 22.33c-.09.06-23.4 3.28-23.4 3.28v-17.61l23.39-3.28s-.05 17.5-.04 17.61z" fill="#02743b"/><path d="M29.444 54.792c0-.55-.5-.91-1.22-1.2a10.85 10.85 0 00-6-.15c-.94.27-1.55.65-1.59 1.29v1.38l-5.42.76h-.11v.05a.19.19 0 000 .07v18.22a.32.32 0 000 .13l3.83 2.1 10.71 5.82a.33.33 0 00.13 0l24-3.37a.25.25 0 00.11 0v-18.33a.27.27 0 000-.12v-.05l-6.05-3.3v-1.07c0-.56-.49-.91-1.22-1.2a9.51 9.51 0 00-3.26-.5h-.72l-1.86-1v-.94c0-.56-.5-.92-1.22-1.2a9.59 9.59 0 00-3.27-.52 10 10 0 00-2.72.35c-.94.28-1.56.65-1.6 1.29v1.19l-2.55.36" fill="#1ea551"/><path d="M54.074 61.712a.27.27 0 000-.12v-.05l-6.05-3.3v-1.22c0-.56-.49-.91-1.22-1.2a9.51 9.51 0 00-3.26-.5h-.72l-1.86-1v.67l.84.45a6.52 6.52 0 00-.84.18v-2.24c0-.56-.5-.92-1.22-1.2a9.59 9.59 0 00-3.27-.52 10 10 0 00-2.72.35c-.94.28-1.56.65-1.6 1.29v1.19l-2.55.36v.6l2.54-.36v1.55a9.8 9.8 0 00-2.69.34h.14v-2.24c0-.55-.5-.91-1.22-1.2a10.85 10.85 0 00-6-.15c-.94.27-1.55.65-1.59 1.29v1.38l-5.42.76h-.11v.05a.19.19 0 000 .07v18.22a.32.32 0 000 .13l3.83 2.09 10.71 5.82a.33.33 0 00.13 0l24-3.37a.25.25 0 00.11 0v-18.33zm-10.69-5.81a9.37 9.37 0 013 .46c.66.26.86.56.84.65-.02.09-.27.5-1.17.75a9.53 9.53 0 01-2.56.32 9.05 9.05 0 01-3-.47c-.64-.24-.85-.52-.85-.62 0-.12.29-.49 1.18-.74a9.53 9.53 0 012.56-.35zm-9.62-3.32a9.59 9.59 0 012.56-.32 8.85 8.85 0 013.05.47c.67.25.87.55.85.65-.02.1-.28.49-1.17.74a9.68 9.68 0 01-2.57.31 8.63 8.63 0 01-3-.46c-.63-.24-.84-.52-.84-.63-.08-.14.23-.51 1.1-.76zm-4.31 5a9.66 9.66 0 012.57-.32 9.14 9.14 0 013 .47c.66.25.86.55.84.65-.02.1-.28.49-1.17.74a9.66 9.66 0 01-2.57.32 8.85 8.85 0 01-3-.47c-.63-.24-.84-.52-.84-.63-.03-.08.29-.46 1.17-.71zm-8.23-2.89c0-.12.29-.49 1.18-.73a9.11 9.11 0 012.55-.33 9 9 0 013 .47c.67.25.87.55.85.64-.02.09-.28.5-1.17.75a9.53 9.53 0 01-2.56.32 9.05 9.05 0 01-3.05-.47c-.64-.24-.85-.52-.85-.62zm-5 2.61l4.45-.63v1.37c0 .56.5.92 1.22 1.2a9.5 9.5 0 003.26.51 10.57 10.57 0 002.59-.31v2.21c0 .56.5.92 1.22 1.2a9.58 9.58 0 003.26.51 10.23 10.23 0 002.74-.34c.94-.29 1.56-.66 1.6-1.31v-3.36a.09.09 0 000-.05 10.66 10.66 0 002.55-.31v2.33c0 .56.5.92 1.22 1.2a9.52 9.52 0 003.27.51 9.81 9.81 0 002.73-.35c.93-.28 1.55-.65 1.59-1.3v-1.55l5 2.72-23 3.23zm37.27 22.33c-.09 0-23.4 3.27-23.4 3.27v-17.6l23.39-3.29s-.05 17.55-.04 17.67z" fill="#02743b"/><path d="M29.444 36.502c0-.56-.5-.92-1.22-1.2a9.56 9.56 0 00-3.27-.51 9.74 9.74 0 00-2.72.35c-.94.28-1.55.65-1.59 1.29v1.38l-5.42.77a.23.23 0 00-.11 0 .14.14 0 000 .06v18.21a.32.32 0 000 .13l3.83 2.09 10.71 5.82a.33.33 0 00.13 0l24-3.37a.17.17 0 00.11 0v-18.28a.27.27 0 000-.12v-.06l-6.05-3.29v-1.14c0-.56-.49-.92-1.22-1.21a9.75 9.75 0 00-3.26-.5h-.72l-1.86-1v-.94c0-.56-.5-.92-1.22-1.2a9.36 9.36 0 00-3.27-.51 10 10 0 00-2.72.34c-.94.29-1.56.66-1.6 1.3v1.19l-2.55.36" fill="#1ea551"/><path d="M54.074 43.422a.27.27 0 000-.12v-.06l-6.05-3.29v-1.14c0-.56-.49-.92-1.22-1.21a9.75 9.75 0 00-3.26-.5h-.72l-1.86-1v.67l.84.45q-.45.07-.84.18v-2.24c0-.56-.5-.92-1.22-1.2a9.36 9.36 0 00-3.27-.51 10 10 0 00-2.72.34c-.94.29-1.56.66-1.6 1.3v1.19l-2.55.36v.6l2.54-.35v1.54a9.8 9.8 0 00-2.69.34h.14v-2.24c0-.56-.5-.92-1.22-1.2a9.56 9.56 0 00-3.27-.51 9.74 9.74 0 00-2.72.35c-.94.28-1.55.65-1.59 1.29v1.38l-5.42.77a.23.23 0 00-.11 0 .14.14 0 000 .06v18.21a.32.32 0 000 .13l3.83 2.09 10.71 5.82a.33.33 0 00.13 0l24-3.37a.17.17 0 00.11 0v-18.28zm-10.69-5.8a9.11 9.11 0 013 .46c.66.25.86.55.84.65-.02.1-.27.49-1.17.74a9.53 9.53 0 01-2.56.32 9.05 9.05 0 01-3-.47c-.64-.24-.85-.52-.85-.63 0-.12.29-.49 1.18-.74a9.55 9.55 0 012.56-.33zm-9.64-3.3a9.59 9.59 0 012.56-.32 9.09 9.09 0 013.05.47c.67.25.87.55.85.65-.02.1-.28.49-1.17.74a9.66 9.66 0 01-2.57.32 8.85 8.85 0 01-3-.47c-.63-.24-.84-.52-.84-.63-.06-.16.25-.54 1.12-.76zm-4.31 5a10.09 10.09 0 012.57-.32 9.14 9.14 0 013 .47c.66.25.86.55.84.65-.02.1-.28.49-1.17.74a9.66 9.66 0 01-2.57.32 8.85 8.85 0 01-3-.47c-.63-.23-.84-.52-.84-.63-.01-.11.31-.49 1.19-.76zm-8.23-2.89c0-.11.29-.49 1.18-.73a9.13 9.13 0 012.55-.32 9 9 0 013 .46c.67.25.87.55.85.65-.02.1-.28.49-1.17.74a9.53 9.53 0 01-2.56.32 9.05 9.05 0 01-3.05-.47c-.64-.24-.85-.52-.85-.62zm-5 2.61l4.45-.62v1.36c0 .56.5.91 1.22 1.19a9.26 9.26 0 003.26.51 10.11 10.11 0 002.59-.31v2.21c0 .56.5.92 1.22 1.21a9.84 9.84 0 003.26.5 10.23 10.23 0 002.74-.34c.94-.29 1.56-.66 1.6-1.31v-3.35a10.18 10.18 0 002.55-.31v2.24c0 .55.5.91 1.22 1.19a9.52 9.52 0 003.27.51 10.21 10.21 0 002.73-.34c.93-.29 1.55-.66 1.59-1.31v-1.55l5 2.72-23 3.24zm37.27 22.33c-.09 0-23.4 3.28-23.4 3.28v-17.61l23.39-3.29s-.03 17.57-.02 17.64z" fill="#02743b"/><path d="M29.444 18.222c0-.56-.5-.91-1.22-1.2a9.56 9.56 0 00-3.27-.51 9.74 9.74 0 00-2.72.35c-.94.28-1.55.65-1.59 1.29v1.39l-5.42.76h-.11a.14.14 0 000 .06v18.21a.27.27 0 000 .13v.05l3.83 2.09 10.71 5.82a.31.31 0 00.13 0l24-3.37h.11v-18.28a.21.21 0 000-.12v-.06l-6.05-3.3v-1.14c0-.56-.49-.92-1.22-1.2a9.5 9.5 0 00-3.26-.51h-.72l-1.86-1v-.94c0-.56-.5-.91-1.22-1.2a9.85 9.85 0 00-3.27-.51 10 10 0 00-2.72.34c-.94.29-1.56.66-1.6 1.3v1.21l-2.55.35" fill="#1ea551"/><path d="M54.074 25.142a.21.21 0 000-.12v-.06l-6.05-3.3v-1.14c0-.56-.49-.92-1.22-1.2a9.5 9.5 0 00-3.26-.51h-.72l-1.86-1v.66l.84.46a6.56 6.56 0 00-.84.17v-2.23c0-.56-.5-.91-1.22-1.2a9.85 9.85 0 00-3.27-.51 10 10 0 00-2.72.34c-.94.29-1.56.66-1.6 1.3v1.21l-2.55.35v.61l2.54-.36v1.53a9.79 9.79 0 00-2.69.35h.14v-2.27c0-.56-.5-.91-1.22-1.2a9.56 9.56 0 00-3.27-.51 9.74 9.74 0 00-2.72.35c-.94.28-1.55.65-1.59 1.29v1.39l-5.42.76h-.11a.14.14 0 000 .06v18.21a.27.27 0 000 .13v.05l3.83 2.09 10.71 5.82a.31.31 0 00.13 0l24-3.37h.11v-18.28zm-10.69-5.82a9.11 9.11 0 013 .46c.66.25.86.55.84.65-.02.1-.27.49-1.17.74a9.15 9.15 0 01-2.56.32 8.81 8.81 0 01-3-.47c-.64-.23-.85-.51-.85-.62 0-.12.29-.5 1.18-.74a9.53 9.53 0 012.56-.34zm-9.62-3.32a9.57 9.57 0 012.56-.33 9.09 9.09 0 013.05.47c.67.25.87.56.85.65-.02.09-.28.5-1.17.74a9.66 9.66 0 01-2.57.32 9.11 9.11 0 01-3-.46c-.63-.24-.84-.53-.84-.63-.08-.13.23-.51 1.1-.75zm-4.31 5a9.66 9.66 0 012.57-.32 8.89 8.89 0 013 .47c.66.25.86.55.84.64-.02.09-.28.5-1.17.75a10.11 10.11 0 01-2.57.31 8.86 8.86 0 01-3-.46c-.63-.24-.84-.53-.84-.63-.03-.08.29-.44 1.17-.7zm-8.23-2.9c0-.12.29-.5 1.18-.74a9.51 9.51 0 012.55-.32 9.28 9.28 0 013 .46c.67.25.87.56.85.65-.02.09-.28.49-1.17.74a9.15 9.15 0 01-2.56.32 8.81 8.81 0 01-3.05-.47c-.64-.23-.85-.51-.85-.62zm-5 2.61l4.45-.62v1.37c0 .56.5.92 1.22 1.19a9.25 9.25 0 003.26.52 10.57 10.57 0 002.59-.31v2.21c0 .56.5.91 1.22 1.2a9.59 9.59 0 003.26.5 10.24 10.24 0 002.74-.33c.94-.3 1.56-.67 1.6-1.31v-3.36a10.19 10.19 0 002.55-.3v2.23c0 .56.5.92 1.22 1.19a9.27 9.27 0 003.27.52 10.2 10.2 0 002.73-.35c.93-.29 1.55-.65 1.59-1.31v-1.54l5 2.72-23 3.23zm37.27 22.33c-.09.06-23.4 3.28-23.4 3.28v-17.61l23.39-3.28s-.05 17.56-.04 17.67z" fill="#02743b"/></svg>