<svg xmlns="http://www.w3.org/2000/svg" viewBox="0 0 150.024 138.03"><path d="M110.293 3.123c0-.56-.49-.92-1.22-1.2a9.5 9.5 0 00-3.26-.51 9.76 9.76 0 00-2.73.35c-.93.27-1.54.65-1.59 1.29v1.38l-5.42.77a.19.19 0 00-.1 0v18.26a.32.32 0 000 .14l3.83 2.09 10.71 5.82a.28.28 0 00.12 0l24-3.37a.21.21 0 00.11 0 .19.19 0 010-.07v-17.98a.27.27 0 000-.12l-6-3.3v-1.14c0-.55-.5-.91-1.22-1.2a9.61 9.61 0 00-3.27-.5h-.72l-1.85-1v-.94c0-.56-.5-.92-1.22-1.2a9.26 9.26 0 00-3.26-.51 10.15 10.15 0 00-2.73.34c-.93.29-1.55.65-1.6 1.3v1.19l-2.55.36" fill="#33abe1"/><path d="M134.923 10.043a.27.27 0 000-.12l-6-3.3v-1.14c0-.55-.5-.91-1.22-1.2a9.61 9.61 0 00-3.27-.5h-.72l-1.85-1v.67l.84.45q-.45.08-.84.18v-2.37c0-.56-.5-.92-1.22-1.2a9.26 9.26 0 00-3.26-.51 10.15 10.15 0 00-2.73.34c-.93.29-1.55.65-1.6 1.3v1.19l-2.55.36v.6l2.55-.35v1.52a9.85 9.85 0 00-2.69.34h.14v-2.24c0-.56-.49-.92-1.22-1.2a9.5 9.5 0 00-3.26-.51 9.76 9.76 0 00-2.73.35c-.93.27-1.54.65-1.59 1.29v1.38l-5.42.77a.19.19 0 00-.1 0v18.26a.32.32 0 000 .14l3.83 2.09 10.71 5.82a.28.28 0 00.12 0l24-3.37a.21.21 0 00.11 0 .19.19 0 010-.07v-17.92zm-10.69-5.83a9 9 0 013 .47c.66.25.87.55.84.64-.03.09-.27.5-1.16.75a9.61 9.61 0 01-2.57.32 9.05 9.05 0 01-3.05-.47c-.63-.24-.84-.52-.84-.62 0-.12.28-.49 1.17-.73a9.18 9.18 0 012.61-.36zm-9.62-3.32a9.61 9.61 0 012.57-.32 9.14 9.14 0 013 .47c.66.25.86.55.84.65-.02.1-.28.49-1.17.74a9.68 9.68 0 01-2.57.31 8.63 8.63 0 01-3-.46c-.63-.24-.84-.52-.84-.63-.03-.12.28-.44 1.17-.74zm-4.3 5a10 10 0 012.56-.32 9.09 9.09 0 013 .47c.66.25.87.55.84.65-.03.1-.28.49-1.17.74a9.61 9.61 0 01-2.57.32 8.79 8.79 0 01-3-.47c-.64-.23-.85-.52-.84-.63-.02-.06.29-.44 1.18-.69zm-8.23-2.89c0-.12.28-.49 1.17-.73a10.37 10.37 0 015.61.14c.66.25.87.55.84.65-.03.1-.27.49-1.16.74a9.66 9.66 0 01-2.57.32 8.81 8.81 0 01-3-.47c-.63-.24-.84-.52-.84-.62zm-5 2.61l4.44-.63v1.37c0 .57.5.92 1.22 1.2a9.52 9.52 0 003.27.51 10.22 10.22 0 002.59-.31v2.21c0 .56.5.92 1.22 1.2a9.5 9.5 0 003.26.51 10.15 10.15 0 002.73-.34c.94-.29 1.56-.66 1.6-1.31v-3.35a10.3 10.3 0 002.55-.31v2.21c0 .56.51.92 1.23 1.2a9.42 9.42 0 003.26.51 10.21 10.21 0 002.73-.34c.94-.29 1.55-.66 1.59-1.31v-1.92.5l5 2.72-23 3.23zm37.26 22.33c-.08.05-23.39 3.28-23.39 3.28v-17.61l23.39-3.29s-.06 17.57-.05 17.69z" fill="#237dba"/><path d="M86.303 6.513c0-.56-.5-.91-1.23-1.2a9.51 9.51 0 00-3.26-.5 9.82 9.82 0 00-2.73.34c-.93.28-1.54.65-1.59 1.29v1.39l-5.41.76a.21.21 0 00-.11 0 .14.14 0 010 .06v18.21a.51.51 0 000 .13l3.84 2.09 10.7 5.82h.12l24-3.37h.11v-18.31a.43.43 0 000-.12l-6.06-3.29v-1.14c0-.56-.5-.91-1.22-1.2a9.56 9.56 0 00-3.27-.51h-.72l-1.85-1v-.94c0-.55-.5-.91-1.22-1.2a9.74 9.74 0 00-3.26-.51 10.15 10.15 0 00-2.73.34c-.93.29-1.55.66-1.6 1.3v1.26l-2.54.36" fill="#33abe1"/><path d="M110.923 13.433a.43.43 0 000-.12l-6.06-3.29v-1.14c0-.56-.5-.91-1.22-1.2a9.56 9.56 0 00-3.27-.51h-.72l-1.85-1v.66l.83.46a6.93 6.93 0 00-.84.17v-2.23c0-.55-.5-.91-1.22-1.2a9.74 9.74 0 00-3.26-.51 10.15 10.15 0 00-2.73.34c-.93.29-1.55.66-1.6 1.3v1.05l-2.54.36v.6l2.55-.36v1.53a10.3 10.3 0 00-2.69.35h.14v-2.23c0-.56-.5-.91-1.23-1.2a9.51 9.51 0 00-3.26-.5 9.82 9.82 0 00-2.73.34c-.93.28-1.54.65-1.59 1.29v1.39l-5.41.76a.21.21 0 00-.11 0 .14.14 0 010 .06v18.21a.51.51 0 000 .13l3.84 2.09 10.7 5.82h.12l24-3.37h.11v-18.31zm-10.69-5.81a9.28 9.28 0 013 .46c.67.25.87.56.85.65-.02.09-.28.49-1.17.74a9.22 9.22 0 01-2.57.32 8.85 8.85 0 01-3.05-.47c-.63-.23-.84-.51-.84-.62 0-.12.29-.5 1.18-.74a9.51 9.51 0 012.6-.34zm-9.61-3.32a9.53 9.53 0 012.56-.32 9.11 9.11 0 013 .46c.66.26.86.56.84.65-.02.09-.28.5-1.17.75a10.05 10.05 0 01-2.57.31 8.86 8.86 0 01-3-.46c-.63-.24-.84-.53-.83-.63-.03-.14.27-.52 1.17-.76zm-4.31 5a9.53 9.53 0 012.56-.32 8.85 8.85 0 013 .47c.66.25.87.55.84.64-.03.09-.28.5-1.17.75a10.05 10.05 0 01-2.57.31 8.9 8.9 0 01-3-.46c-.62-.24-.84-.52-.83-.63-.03-.09.28-.47 1.17-.71zm-8.23-2.9c0-.12.29-.5 1.18-.74a10.33 10.33 0 015.6.14c.66.25.87.56.84.65-.03.09-.27.49-1.16.75a9.66 9.66 0 01-2.57.32 9.09 9.09 0 01-3-.47c-.63-.24-.84-.52-.84-.63zm-5 2.61l4.44-.62v1.37c0 .56.5.92 1.23 1.2a9.42 9.42 0 003.26.51 10.69 10.69 0 002.59-.31v2.21c0 .56.5.91 1.22 1.2a9.5 9.5 0 003.26.51 9.88 9.88 0 002.74-.35c.93-.28 1.55-.65 1.59-1.3v-3.36a10.25 10.25 0 002.55-.3v2.2c0 .56.51.92 1.23 1.19a9.22 9.22 0 003.26.52 10.2 10.2 0 002.73-.35c.94-.28 1.55-.65 1.59-1.31v-1.92.38l5 2.72-23 3.23zm37.26 22.33c-.08.06-23.39 3.28-23.39 3.28v-17.61l23.4-3.28s-.07 17.55-.06 17.66z" fill="#237dba"/><path d="M62.323 101.323c0-.56-.5-.91-1.23-1.2a9.47 9.47 0 00-3.26-.5 10.26 10.26 0 00-2.73.34c-.93.28-1.54.66-1.59 1.3v1.39l-5.41.76h-.11v18.39a.51.51 0 000 .13l3.83 2.09 10.7 5.82a.28.28 0 00.12 0l24-3.37h.1v-18.32a.5.5 0 000-.12.1.1 0 000-.05l-6.06-3.29v-1.14c0-.56-.5-.91-1.23-1.2a9.46 9.46 0 00-3.26-.51h-.72l-1.85-1v-.94c0-.55-.5-.91-1.22-1.19a9.49 9.49 0 00-3.26-.52 10.14 10.14 0 00-2.73.35c-.93.28-1.55.65-1.6 1.29v1.19l-2.55.36" fill="#33abe1"/><path d="M86.943 108.213a.5.5 0 000-.12.1.1 0 000-.05l-6.06-3.29v-1.14c0-.56-.5-.91-1.23-1.2a9.46 9.46 0 00-3.26-.51h-.72l-1.85-1v.67l.83.45a5.69 5.69 0 00-.84.18v-2.29c0-.55-.5-.91-1.22-1.19a9.49 9.49 0 00-3.26-.52 10.14 10.14 0 00-2.73.35c-.93.28-1.55.65-1.6 1.29v1.19l-2.55.36v.6l2.55-.36v1.58a9.78 9.78 0 00-2.68.34h.13v-2.23c0-.56-.5-.91-1.23-1.2a9.47 9.47 0 00-3.26-.5 10.26 10.26 0 00-2.73.34c-.93.28-1.54.66-1.59 1.3v1.39l-5.41.76h-.11v18.39a.51.51 0 000 .13l3.83 2.09 10.7 5.82a.28.28 0 00.12 0l24-3.37h.1v-18.32zm-10.69-5.81a9.28 9.28 0 013 .46c.67.25.87.56.85.65-.02.09-.28.5-1.17.74a9.17 9.17 0 01-2.57.32 9 9 0 01-3-.46c-.64-.24-.85-.52-.85-.63 0-.12.29-.5 1.18-.74a9.51 9.51 0 012.56-.31zm-9.61-3.32a9.53 9.53 0 012.56-.32 8.85 8.85 0 013 .47c.66.25.87.55.84.64-.03.09-.28.5-1.17.75a10.05 10.05 0 01-2.57.31 8.76 8.76 0 01-3-.46c-.63-.24-.85-.52-.84-.63-.02-.11.26-.49 1.18-.73zm-4.31 5.05a9.59 9.59 0 012.56-.32 8.85 8.85 0 013 .47c.66.25.87.55.84.65-.03.1-.28.49-1.17.74a9.55 9.55 0 01-2.56.31 8.86 8.86 0 01-3-.46c-.63-.24-.85-.52-.84-.63-.03-.1.28-.49 1.17-.68zm-8.23-2.9c0-.12.29-.5 1.18-.74a9.51 9.51 0 012.55-.32 9.33 9.33 0 013.05.46c.67.25.87.56.84.65-.03.09-.27.49-1.16.75a9.66 9.66 0 01-2.57.32 9.09 9.09 0 01-3-.47c-.63-.24-.84-.52-.84-.63zm-5.05 2.62l4.44-.63v1.37c0 .56.51.92 1.22 1.2a9.52 9.52 0 003.27.51 10.57 10.57 0 002.59-.31v2.21c0 .56.5.91 1.22 1.2a9.51 9.51 0 003.26.5 9.89 9.89 0 002.74-.34c.93-.28 1.55-.65 1.59-1.3v-3.36a10.25 10.25 0 002.55-.3v2.21c0 .56.51.92 1.23 1.2a9.5 9.5 0 003.26.51 10.14 10.14 0 002.73-.35c.94-.28 1.55-.65 1.6-1.3v-1.55l5 2.72-23 3.23zm37.26 22.36c-.08.06-23.39 3.28-23.39 3.28v-17.61l23.39-3.28s-.01 17.49 0 17.61z" fill="#237dba"/><path d="M62.323 83.033c0-.56-.5-.92-1.23-1.2a9.46 9.46 0 00-3.26-.51 9.86 9.86 0 00-2.73.35c-.93.28-1.54.65-1.59 1.29v1.38l-5.41.76h-.11v18.26a.51.51 0 000 .13l3.83 2.09 10.7 5.82a.28.28 0 00.12 0l24-3.37a.21.21 0 00.1 0v-18.33a.5.5 0 000-.12.21.21 0 000-.06l-6.06-3.29v-1.14c0-.55-.5-.91-1.23-1.2a9.71 9.71 0 00-3.26-.5h-.72l-1.85-1v-.94c0-.56-.5-.92-1.22-1.21a9.51 9.51 0 00-3.26-.5 10.15 10.15 0 00-2.73.34c-.93.29-1.55.65-1.6 1.29v1.19l-2.55.36" fill="#33abe1"/><path d="M86.943 89.953a.5.5 0 000-.12.21.21 0 000-.06l-6.06-3.29v-1.14c0-.55-.5-.91-1.23-1.2a9.71 9.71 0 00-3.26-.5h-.72l-1.85-1v.57l.83.45q-.43.07-.84.18v-2.24c0-.56-.5-.92-1.22-1.21a9.51 9.51 0 00-3.26-.5 10.15 10.15 0 00-2.73.34c-.93.29-1.55.65-1.6 1.29v1.19l-2.55.36v.6l2.55-.36v1.53a9.78 9.78 0 00-2.68.34h.13v-2.24c0-.56-.5-.92-1.23-1.2a9.46 9.46 0 00-3.26-.51 9.86 9.86 0 00-2.73.35c-.93.28-1.54.65-1.59 1.29v1.38l-5.41.76h-.11v18.26a.51.51 0 000 .13l3.83 2.09 10.7 5.82a.28.28 0 00.12 0l24-3.37a.21.21 0 00.1 0v-18.33zm-10.69-5.81a9 9 0 013 .47c.67.25.87.55.85.64-.02.09-.28.5-1.17.75a9.56 9.56 0 01-2.57.32 9 9 0 01-3-.47c-.64-.24-.85-.52-.85-.63 0-.12.29-.49 1.18-.74a9.51 9.51 0 012.56-.34zm-9.61-3.32a9.53 9.53 0 012.56-.32 9.09 9.09 0 013 .47c.66.25.87.55.84.65-.03.1-.28.49-1.17.74a9.61 9.61 0 01-2.57.32 9 9 0 01-3-.47c-.63-.24-.85-.52-.84-.63-.02-.13.26-.52 1.18-.76zm-4.31 5a9.59 9.59 0 012.56-.32 9.09 9.09 0 013 .47c.66.25.87.55.84.65-.03.1-.28.49-1.17.74a9.53 9.53 0 01-2.56.32 8.85 8.85 0 01-3-.47c-.63-.24-.85-.52-.84-.63-.03-.08.28-.46 1.17-.71zm-8.23-2.89c0-.12.29-.49 1.18-.74a9.51 9.51 0 012.55-.32 9.05 9.05 0 013.05.47c.67.24.87.55.84.65-.03.1-.27.49-1.16.74a9.66 9.66 0 01-2.57.32 9.09 9.09 0 01-3-.47c-.63-.24-.84-.52-.84-.62zm-5.05 2.61l4.44-.63v1.37c0 .56.51.91 1.22 1.19a9.52 9.52 0 003.27.51 10.11 10.11 0 002.59-.31v2.21c0 .56.5.92 1.22 1.2a9.5 9.5 0 003.26.51 10.28 10.28 0 002.74-.34c.93-.29 1.55-.66 1.59-1.31v-3.36a10.73 10.73 0 002.55-.31v2.21c0 .56.51.92 1.23 1.2a9.5 9.5 0 003.26.51 10.15 10.15 0 002.73-.34c.94-.29 1.55-.66 1.6-1.31v-1.55l5 2.72-23 3.23zm37.26 22.32c-.08.06-23.39 3.29-23.39 3.29v-17.61l23.39-3.29s-.01 17.55 0 17.66z" fill="#237dba"/><path d="M62.323 64.743c0-.56-.5-.92-1.23-1.2a9.46 9.46 0 00-3.26-.51 9.86 9.86 0 00-2.73.35c-.93.28-1.54.65-1.59 1.29v1.39l-5.41.76a.23.23 0 00-.11 0v18.27a.51.51 0 000 .13l3.83 2.09 10.7 5.82a.28.28 0 00.12 0l24-3.37a.14.14 0 00.1 0 .64.64 0 000-.07v-18.25a.36.36 0 000-.11.21.21 0 000-.06l-6.06-3.3v-1.14c0-.56-.5-.92-1.23-1.2a9.46 9.46 0 00-3.26-.51h-.72l-1.85-1v-1c0-.56-.5-.91-1.22-1.2a9.5 9.5 0 00-3.26-.51 10.15 10.15 0 00-2.73.34c-.93.29-1.55.66-1.6 1.3v1.19l-2.55.36" fill="#33abe1"/><path d="M86.943 71.663a.36.36 0 000-.11.21.21 0 000-.06l-6.06-3.3v-1.14c0-.56-.5-.92-1.23-1.2a9.46 9.46 0 00-3.26-.51h-.72l-1.85-1v.66l.83.46a7.34 7.34 0 00-.84.17v-2.24c0-.56-.5-.91-1.22-1.2a9.5 9.5 0 00-3.26-.51 10.15 10.15 0 00-2.73.34c-.93.29-1.55.66-1.6 1.3v1.19l-2.55.36v.61l2.55-.36v1.52a10.18 10.18 0 00-2.68.34h.13v-2.24c0-.56-.5-.92-1.23-1.2a9.46 9.46 0 00-3.26-.51 9.86 9.86 0 00-2.73.35c-.93.28-1.54.65-1.59 1.29v1.39l-5.41.76a.23.23 0 00-.11 0v18.27a.51.51 0 000 .13l3.83 2.09 10.7 5.82a.53.53 0 00.12 0l24-3.37a.14.14 0 00.1 0 .64.64 0 000-.07v-18.25zm-10.69-5.8a9 9 0 013 .46c.67.25.87.55.85.65-.02.1-.28.49-1.17.74a9.56 9.56 0 01-2.57.32 9 9 0 01-3-.47c-.64-.24-.85-.52-.85-.62 0-.11.29-.49 1.18-.73a9.13 9.13 0 012.56-.35zm-9.61-3.33a10 10 0 012.56-.32 9.09 9.09 0 013 .47c.66.25.87.56.84.65-.03.09-.28.49-1.17.74a9.61 9.61 0 01-2.57.32 8.75 8.75 0 01-3-.47c-.63-.23-.85-.52-.84-.63-.02-.08.26-.51 1.18-.76zm-4.31 5.06a9.59 9.59 0 012.56-.32 9.11 9.11 0 013 .46c.66.25.87.56.84.65-.03.09-.28.5-1.17.74a9.53 9.53 0 01-2.56.32 8.85 8.85 0 01-3-.47c-.63-.23-.85-.52-.84-.62-.03-.14.28-.52 1.17-.76zm-8.23-2.9c0-.12.29-.5 1.18-.74a10.33 10.33 0 015.6.14c.67.25.87.55.84.65-.03.1-.27.49-1.16.74a9.66 9.66 0 01-2.57.32 8.85 8.85 0 01-3-.47c-.63-.23-.84-.51-.84-.62zm-5.05 2.61l4.44-.62v1.36c0 .56.51.91 1.22 1.19a9.27 9.27 0 003.27.52 10.1 10.1 0 002.59-.32v2.21c0 .55.5.91 1.22 1.2a9.51 9.51 0 003.26.5 9.89 9.89 0 002.74-.34c.93-.29 1.55-.66 1.59-1.3v-3.36a10.25 10.25 0 002.55-.3v2.2c0 .56.51.91 1.23 1.19a9.26 9.26 0 003.26.51 10.15 10.15 0 002.73-.34c.94-.29 1.55-.66 1.6-1.31v-1.54l5 2.71-23 3.24zm37.26 22.33c-.08.05-23.39 3.28-23.39 3.28v-17.61l23.39-3.29s-.01 17.51 0 17.62z" fill="#237dba"/><path d="M62.323 46.463c0-.56-.5-.91-1.23-1.2a9.47 9.47 0 00-3.26-.5 9.87 9.87 0 00-2.73.34c-.93.28-1.54.66-1.59 1.3v1.39l-5.41.76a.25.25 0 00-.11 0v18.33a.51.51 0 000 .13v.05l3.83 2.09 10.7 5.82a.28.28 0 00.12 0l24-3.37h.1a.64.64 0 000-.07v-18.27a.37.37 0 000-.12.21.21 0 000-.06l-6.06-3.29v-1.14c0-.56-.5-.91-1.23-1.2a9.46 9.46 0 00-3.26-.51h-.72l-1.85-1v-.94c0-.56-.5-.91-1.22-1.2a10.74 10.74 0 00-6-.16c-.93.28-1.55.65-1.6 1.29v1.28l-2.55.36" fill="#33abe1"/><path d="M86.943 53.383a.37.37 0 000-.12.21.21 0 000-.06l-6.06-3.29v-1.14c0-.56-.5-.91-1.23-1.2a9.46 9.46 0 00-3.26-.51h-.72l-1.85-1v.66l.83.46a7.34 7.34 0 00-.84.17v-2.23c0-.56-.5-.91-1.22-1.2a10.74 10.74 0 00-6-.16c-.93.28-1.55.65-1.6 1.29v1.16l-2.55.36v.6l2.55-.36v1.53a10.17 10.17 0 00-2.68.35h.13v-2.23c0-.56-.5-.91-1.23-1.2a9.47 9.47 0 00-3.26-.5 9.87 9.87 0 00-2.73.34c-.93.28-1.54.66-1.59 1.3v1.39l-5.41.76a.25.25 0 00-.11 0v18.33a.51.51 0 000 .13v.05l3.83 2.09 10.7 5.82a.28.28 0 00.12 0l24-3.37h.1a.64.64 0 000-.07v-18.27zm-10.69-5.81a9.28 9.28 0 013 .46c.67.25.87.56.85.65-.02.09-.28.49-1.17.74a9.17 9.17 0 01-2.57.32 9 9 0 01-3-.46c-.64-.24-.85-.52-.85-.63 0-.12.29-.5 1.18-.74a9.51 9.51 0 012.56-.34zm-9.61-3.32a9.53 9.53 0 012.56-.32 9.11 9.11 0 013 .46c.66.26.87.56.84.65-.03.09-.28.5-1.17.75a10.05 10.05 0 01-2.57.31 8.76 8.76 0 01-3-.46c-.63-.24-.85-.52-.84-.63-.02-.14.26-.52 1.18-.8zm-4.31 5.05a9.59 9.59 0 012.56-.32 8.85 8.85 0 013 .47c.66.25.87.55.84.64-.03.09-.28.5-1.17.75a9.55 9.55 0 01-2.56.31 8.86 8.86 0 01-3-.46c-.63-.24-.85-.52-.84-.63-.03-.14.28-.52 1.17-.76zm-8.23-2.9c0-.12.29-.5 1.18-.74a9.51 9.51 0 012.55-.32 9.33 9.33 0 013.05.46c.67.25.87.56.84.65-.03.09-.27.49-1.16.74a9.26 9.26 0 01-2.57.33 9.09 9.09 0 01-3-.47c-.63-.24-.84-.52-.84-.63zm-5.05 2.61l4.44-.62v1.37c0 .56.51.92 1.22 1.19a9.27 9.27 0 003.27.52 10.57 10.57 0 002.59-.31v2.21c0 .56.5.91 1.22 1.2a9.51 9.51 0 003.26.5 9.89 9.89 0 002.74-.34c.93-.29 1.55-.65 1.59-1.3v-3.36a10.25 10.25 0 002.55-.3v2.2c0 .56.51.92 1.23 1.2a9.5 9.5 0 003.26.51 10.14 10.14 0 002.73-.35c.94-.28 1.55-.65 1.6-1.31v-1.54l5 2.72-23 3.23zm37.26 22.33c-.08.06-23.39 3.28-23.39 3.28v-17.61l23.39-3.28s-.01 17.48 0 17.61z" fill="#237dba"/><path d="M62.323 28.213c0-.56-.5-.92-1.23-1.21a9.71 9.71 0 00-3.26-.5 10.26 10.26 0 00-2.73.34c-.93.28-1.54.66-1.59 1.3v1.38l-5.41.76h-.11v18.33a.51.51 0 000 .13l3.83 2.1 10.7 5.81h.12l24-3.37h.1v-18.2a.43.43 0 000-.12v-.05l-6.06-3.29v-1.14c0-.56-.5-.91-1.23-1.2a9.47 9.47 0 00-3.26-.5h-.72l-1.85-1v-.94c0-.56-.5-.92-1.22-1.2a9.49 9.49 0 00-3.26-.52 10.14 10.14 0 00-2.73.35c-.93.29-1.55.65-1.6 1.29v1.19l-2.55.36" fill="#33abe1"/><path d="M86.943 35.093a.43.43 0 000-.12v-.05l-6.06-3.29v-1.14c0-.56-.5-.91-1.23-1.2a9.47 9.47 0 00-3.26-.5h-.72l-1.85-1v.67l.83.45q-.43.07-.84.18v-2.24c0-.56-.5-.92-1.22-1.2a9.49 9.49 0 00-3.26-.52 10.14 10.14 0 00-2.73.35c-.93.29-1.55.65-1.6 1.29v1.19l-2.55.36v.6l2.55-.36v1.53a9.78 9.78 0 00-2.68.34h.13v-2.24c0-.56-.5-.92-1.23-1.21a9.71 9.71 0 00-3.26-.5 10.26 10.26 0 00-2.73.34c-.93.28-1.54.66-1.59 1.3v1.38l-5.41.76h-.11v18.33a.51.51 0 000 .13l3.83 2.1 10.7 5.81h.12l24-3.37h.1v-18.18zm-10.69-5.81a9 9 0 013 .47c.67.24.87.55.85.64-.02.09-.28.5-1.17.75a9.56 9.56 0 01-2.57.32 9 9 0 01-3-.47c-.64-.24-.85-.52-.85-.63 0-.12.29-.49 1.18-.74a9.51 9.51 0 012.56-.34zm-9.61-3.32a9.53 9.53 0 012.56-.32 8.85 8.85 0 013 .47c.66.25.87.55.84.65-.03.1-.28.49-1.17.74a9.63 9.63 0 01-2.57.31 8.76 8.76 0 01-3-.46c-.63-.24-.85-.52-.84-.63-.02-.14.26-.51 1.18-.76zm-4.31 5a9.59 9.59 0 012.56-.32 9.09 9.09 0 013 .47c.66.25.87.55.84.65-.03.1-.28.49-1.17.74a9.53 9.53 0 01-2.56.32 9.09 9.09 0 01-3-.47c-.63-.24-.85-.52-.84-.63-.03-.08.28-.51 1.17-.71zm-8.23-2.89c0-.12.29-.49 1.18-.74a9.51 9.51 0 012.55-.32 9.05 9.05 0 013.05.47c.67.25.87.55.84.65-.03.1-.27.49-1.16.74a9.66 9.66 0 01-2.57.32 9.09 9.09 0 01-3-.47c-.63-.24-.84-.52-.84-.63zm-5.05 2.61l4.44-.63v1.37c0 .56.51.92 1.22 1.2a9.52 9.52 0 003.27.51 10.11 10.11 0 002.59-.31v2.21c0 .56.5.92 1.22 1.2a9.5 9.5 0 003.26.51 10.28 10.28 0 002.74-.34c.93-.29 1.55-.66 1.59-1.31v-3.41a10.25 10.25 0 002.55-.3v2.21c0 .56.51.92 1.23 1.2a9.5 9.5 0 003.26.51 9.76 9.76 0 002.73-.35c.94-.28 1.55-.65 1.6-1.3v-1.44l5 2.72-23.03 3.28zm37.26 22.32c-.08.06-23.39 3.29-23.39 3.29v-17.61l23.39-3.29s-.01 17.55 0 17.66z" fill="#237dba"/><path d="M62.323 9.883c0-.56-.5-.92-1.23-1.2a9.46 9.46 0 00-3.26-.51 9.86 9.86 0 00-2.73.35c-.93.28-1.54.65-1.59 1.29v1.4l-5.41.77a.23.23 0 00-.11 0v18.27a.59.59 0 000 .13l3.83 2.09 10.7 5.82a.28.28 0 00.12 0l24-3.37a.14.14 0 00.1 0v-18.32a.5.5 0 000-.12.21.21 0 000-.06l-6.02-3.21v-1.1c0-.56-.5-.92-1.23-1.2a9.46 9.46 0 00-3.26-.51h-.72l-1.85-1v-.94c0-.56-.5-.92-1.22-1.2a9.26 9.26 0 00-3.26-.51 10.15 10.15 0 00-2.73.34c-.93.29-1.55.66-1.6 1.3v1.19l-2.55.36" fill="#33abe1"/><path d="M86.943 16.803a.5.5 0 000-.12.21.21 0 000-.06l-6.22-3.41v-1.1c0-.56-.5-.92-1.23-1.2a9.46 9.46 0 00-3.26-.51h-.72l-1.85-1v.67l.83.45q-.43.07-.84.18v-2.24c0-.56-.5-.92-1.22-1.2a9.26 9.26 0 00-3.26-.51 10.15 10.15 0 00-2.73.34c-.93.29-1.55.66-1.6 1.3v1.19l-2.55.36v.61l2.55-.36v1.52a9.78 9.78 0 00-2.68.34h.13v-2.24c0-.56-.5-.92-1.23-1.2a9.46 9.46 0 00-3.26-.51 9.86 9.86 0 00-2.73.35c-.93.28-1.54.65-1.59 1.29v1.47l-5.41.77a.23.23 0 00-.11 0v18.27a.59.59 0 000 .13l3.83 2.09 10.7 5.82h.12l24-3.37a.14.14 0 00.1 0v-18.32zm-10.69-5.8a9 9 0 013 .46c.67.25.87.55.85.65-.02.1-.28.49-1.17.74a9.56 9.56 0 01-2.57.32 9 9 0 01-3-.47c-.64-.24-.85-.52-.85-.62 0-.11.29-.49 1.18-.74a9.53 9.53 0 012.56-.34zm-9.61-3.33a10 10 0 012.56-.32 9.09 9.09 0 013 .47c.66.25.87.55.84.65-.03.1-.28.49-1.17.74a9.61 9.61 0 01-2.57.32 8.75 8.75 0 01-3-.47c-.63-.24-.85-.52-.84-.63-.02-.13.26-.51 1.18-.76zm-4.31 5a10 10 0 012.56-.32 9.09 9.09 0 013 .47c.66.25.87.56.84.65-.03.09-.28.5-1.17.74a9.53 9.53 0 01-2.56.32 9.11 9.11 0 01-3-.46c-.63-.24-.85-.53-.84-.63-.03-.09.28-.47 1.17-.72zm-8.23-2.89c0-.11.29-.49 1.18-.73a10.33 10.33 0 015.6.14c.67.25.87.55.84.65-.03.1-.27.49-1.16.74a9.66 9.66 0 01-2.57.32 9.09 9.09 0 01-3-.47c-.63-.24-.84-.52-.84-.62zm-5.05 2.61l4.44-.63v1.45c0 .56.51.91 1.22 1.19a9.28 9.28 0 003.27.51 10.11 10.11 0 002.59-.31v2.21c0 .56.5.92 1.22 1.21a9.75 9.75 0 003.26.5 10.28 10.28 0 002.67-.31c.93-.29 1.55-.66 1.59-1.31v-3.35a10.24 10.24 0 002.55-.31v2.21c0 .55.51.91 1.23 1.19a9.26 9.26 0 003.26.51 10.15 10.15 0 002.73-.34c.94-.29 1.55-.66 1.6-1.31v-1.55l5 2.72-23 3.23zm37.26 22.33c-.08.05-23.39 3.28-23.39 3.28v-17.61l23.39-3.29s-.01 17.56 0 17.67z" fill="#237dba"/><path d="M38.333 13.213c0-.56-.5-.92-1.22-1.2a9.56 9.56 0 00-3.27-.51 9.74 9.74 0 00-2.72.35c-.94.28-1.55.65-1.6 1.29v1.38l-5.41.77a.2.2 0 00-.11 0v18.27a.59.59 0 000 .13l3.83 2.09 10.7 5.82a.28.28 0 00.13 0l24-3.37a.14.14 0 00.1 0 .64.64 0 000-.07v-18.21a.25.25 0 000-.12v-.06l-6.06-3.3v-1.14c0-.55-.5-.91-1.22-1.19a9.54 9.54 0 00-3.26-.51h-.73l-1.85-1v-.94c0-.56-.51-.92-1.23-1.2a9.5 9.5 0 00-3.26-.51 10 10 0 00-2.72.34c-.94.29-1.56.66-1.6 1.3v1.19l-2.55.36" fill="#33abe1"/><path d="M62.953 20.213a.25.25 0 000-.12v-.06l-6.06-3.3v-1.14c0-.55-.5-.91-1.22-1.19a9.54 9.54 0 00-3.26-.51h-.73l-1.85-1v.66l.83.45q-.43.08-.84.18v-2.23c0-.56-.51-.92-1.23-1.2a9.5 9.5 0 00-3.26-.51 10 10 0 00-2.72.34c-.94.29-1.56.66-1.6 1.3v1.19l-2.55.36v.61l2.54-.36v1.52a10.2 10.2 0 00-2.69.34h.13v-2.24c0-.56-.5-.92-1.22-1.2a9.56 9.56 0 00-3.27-.51 9.74 9.74 0 00-2.72.35c-.94.28-1.55.65-1.6 1.29v1.38l-5.41.77a.2.2 0 00-.11 0v18.27a.59.59 0 000 .13l3.83 2.09 10.7 5.82a.28.28 0 00.13 0l24-3.37a.14.14 0 00.1 0 .64.64 0 000-.07v-18.21zm-10.68-5.8a9 9 0 013 .46c.67.25.87.55.85.64-.02.09-.28.5-1.17.75a9.56 9.56 0 01-2.57.32 9 9 0 01-3-.47c-.64-.24-.85-.52-.85-.62 0-.12.29-.49 1.18-.73a9.15 9.15 0 012.56-.4zm-9.62-3.33a10 10 0 012.56-.32 9.09 9.09 0 013 .47c.66.25.87.55.84.65-.03.1-.28.49-1.17.74a9.53 9.53 0 01-2.56.32 8.85 8.85 0 01-3.05-.47c-.63-.23-.85-.52-.84-.63.02-.18.29-.56 1.22-.81zm-4.31 5a10 10 0 012.56-.32 9.09 9.09 0 013 .47c.67.25.87.56.84.65-.03.09-.27.49-1.17.74a9.53 9.53 0 01-2.56.32 9.11 9.11 0 01-3-.46c-.63-.24-.85-.53-.84-.64-.03-.13.28-.51 1.17-.76zm-8.23-2.89c0-.12.29-.49 1.18-.73a9.13 9.13 0 012.55-.32 9 9 0 013.05.46c.66.25.87.55.85.65-.02.1-.28.49-1.17.74a9.66 9.66 0 01-2.57.32 8.85 8.85 0 01-3-.47c-.63-.24-.84-.52-.84-.62zm-5.05 2.61l4.44-.63v1.37c0 .56.51.91 1.23 1.19a9.19 9.19 0 003.26.51 10.11 10.11 0 002.59-.31v2.22c0 .56.5.91 1.22 1.19a9.56 9.56 0 003.27.51 10.21 10.21 0 002.73-.34c.93-.29 1.56-.66 1.6-1.31v-3.35a10.25 10.25 0 002.55-.3v2.2c0 .56.51.91 1.23 1.19a9.26 9.26 0 003.26.51 10.33 10.33 0 002.74-.34c.93-.29 1.55-.66 1.59-1.31v-1.55l5 2.72-23.05 3.24zm37.27 22.33c-.09.05-23.4 3.28-23.4 3.28v-17.61l23.39-3.29s0 17.51.01 17.62z" fill="#237dba"/><path d="M14.343 16.613c0-.56-.5-.92-1.23-1.2a9.46 9.46 0 00-3.26-.51 9.86 9.86 0 00-2.73.35c-.93.28-1.54.65-1.59 1.29v1.38l-5.42.76h-.11v18.27a.69.69 0 000 .13v.05l3.84 2.09 10.7 5.82a.28.28 0 00.13 0l24-3.37a.14.14 0 00.1 0 .14.14 0 000-.07v-18.25a.25.25 0 000-.12v-.06l-6.06-3.29v-1.14c0-.56-.5-.92-1.23-1.2a9.46 9.46 0 00-3.26-.51h-.72l-1.85-1v-.82c0-.56-.5-.92-1.22-1.2a9.26 9.26 0 00-3.26-.51 10.15 10.15 0 00-2.73.34c-.93.29-1.55.66-1.6 1.3v1.19l-2.55.36" fill="#33abe1"/><path d="M38.963 23.533a.25.25 0 000-.12v-.06l-6.06-3.29v-1.14c0-.56-.5-.92-1.23-1.2a9.46 9.46 0 00-3.26-.51h-.72l-1.85-1v.67l.83.46a7.34 7.34 0 00-.84.17v-2.3c0-.56-.5-.92-1.22-1.2a9.26 9.26 0 00-3.26-.51 10.15 10.15 0 00-2.73.34c-.93.29-1.55.66-1.6 1.3v1.19l-2.55.36v.6l2.55-.35v1.52a10.18 10.18 0 00-2.68.34h.13v-2.24c0-.56-.5-.92-1.23-1.2a9.46 9.46 0 00-3.26-.51 9.86 9.86 0 00-2.73.35c-.93.28-1.54.65-1.59 1.29v1.38l-5.42.76h-.11v18.27a.69.69 0 000 .13v.05l3.84 2.09 10.7 5.82a.28.28 0 00.13 0l24-3.37a.14.14 0 00.1 0 .14.14 0 000-.07v-18.25zm-10.69-5.81a9 9 0 013 .47c.67.25.87.55.85.65-.02.1-.28.49-1.17.74a9.59 9.59 0 01-2.56.32 9.11 9.11 0 01-3.06-.47c-.63-.24-.84-.52-.84-.63 0-.12.29-.49 1.18-.74a9.51 9.51 0 012.6-.34zm-9.61-3.32a9.53 9.53 0 012.56-.32 9.09 9.09 0 013 .47c.66.25.87.55.84.65-.03.1-.28.49-1.17.74a9.56 9.56 0 01-2.57.32 9 9 0 01-3-.47c-.63-.24-.85-.52-.84-.63-.02-.13.29-.51 1.18-.76zm-4.31 5a10 10 0 012.56-.32 9.09 9.09 0 013 .47c.67.25.87.56.84.65-.03.09-.28.5-1.17.74a9.53 9.53 0 01-2.56.32 8.85 8.85 0 01-3-.47c-.63-.23-.85-.52-.84-.63-.03-.08.28-.46 1.17-.71zm-8.23-2.89c0-.11.28-.49 1.18-.73a9.13 9.13 0 012.55-.32 9 9 0 013 .46c.67.25.87.55.84.65-.03.1-.27.49-1.16.74a9.66 9.66 0 01-2.57.32 9.05 9.05 0 01-3-.47c-.63-.24-.84-.52-.84-.62zm-5.05 2.61l4.44-.62v1.36c0 .56.51.91 1.22 1.19a9.28 9.28 0 003.27.51 10.16 10.16 0 002.59-.31v2.21c0 .56.5.92 1.22 1.21a9.8 9.8 0 003.26.5 10.15 10.15 0 002.73-.34c1-.29 1.56-.66 1.6-1.31v-3.36a10.24 10.24 0 002.55-.31v2.21c0 .55.51.91 1.23 1.19a9.26 9.26 0 003.26.51 10.33 10.33 0 002.74-.34c.92-.29 1.55-.66 1.59-1.31v-1.55l5 2.72-23 3.23zm37.26 22.33c-.08.05-23.39 3.28-23.39 3.28v-17.61l23.39-3.29v17.67z" fill="#237dba"/><path d="M125.383 11.363c0-.56-.5-.92-1.23-1.2a9.51 9.51 0 00-3.26-.5 9.82 9.82 0 00-2.73.34c-.93.28-1.54.65-1.59 1.29v1.39l-5.42.76a.21.21 0 00-.1 0 .14.14 0 010 .06v18.28a.51.51 0 000 .13l3.83 2.09 10.7 5.82a.28.28 0 00.12 0l24-3.37a.22.22 0 00.11-.05.64.64 0 000-.07v-18.21a.5.5 0 000-.12v-.06l-6-3.3v-1.14c0-.56-.5-.92-1.23-1.2a9.46 9.46 0 00-3.26-.51h-.72l-1.85-1v-.94c0-.56-.5-.92-1.22-1.2a9.83 9.83 0 00-3.26-.51 10.15 10.15 0 00-2.73.34c-.93.29-1.55.66-1.6 1.3v1.2l-2.54.36" fill="#33abe1"/><path d="M150.003 18.273a.5.5 0 000-.12v-.06l-6-3.3v-1.14c0-.56-.5-.92-1.23-1.2a9.46 9.46 0 00-3.26-.51h-.72l-1.85-1v.66l.84.46a7.34 7.34 0 00-.84.17v-2.23c0-.56-.5-.92-1.22-1.2a9.83 9.83 0 00-3.26-.51 10.15 10.15 0 00-2.73.34c-.93.29-1.55.66-1.6 1.3v1.2l-2.54.36v.6l2.55-.36v1.48a10.3 10.3 0 00-2.69.35h.14v-2.23c0-.56-.5-.92-1.23-1.2a9.51 9.51 0 00-3.26-.5 9.82 9.82 0 00-2.73.34c-.93.28-1.54.65-1.59 1.29v1.39l-5.42.76a.21.21 0 00-.1 0 .14.14 0 010 .06v18.28a.51.51 0 000 .13l3.83 2.09 10.7 5.82a.28.28 0 00.12 0l24-3.37a.22.22 0 00.11-.05.64.64 0 000-.07v-18.21zm-10.69-5.8a9 9 0 013.05.46c.66.25.87.55.84.65-.03.1-.27.49-1.16.74a9.66 9.66 0 01-2.57.32 8.85 8.85 0 01-3-.47c-.63-.23-.84-.51-.84-.62 0-.12.29-.5 1.18-.74a9.08 9.08 0 012.5-.34zm-9.61-3.32a9.52 9.52 0 012.56-.33 9.09 9.09 0 013 .47c.66.25.86.56.84.65-.02.09-.28.49-1.17.74a9.61 9.61 0 01-2.57.32 8.76 8.76 0 01-3-.46c-.64-.24-.85-.53-.85-.63-.01-.14.3-.52 1.21-.76zm-4.31 5a9.52 9.52 0 012.56-.33 9.09 9.09 0 013 .47c.66.25.87.56.84.65-.03.09-.28.5-1.17.75a10 10 0 01-2.57.31 8.8 8.8 0 01-3-.46c-.63-.24-.85-.53-.84-.63-.02-.09.29-.47 1.18-.7zm-8.23-2.9c0-.12.28-.5 1.17-.74a9.2 9.2 0 012.56-.32 9.33 9.33 0 013 .46c.66.25.86.55.84.65-.02.1-.27.49-1.16.74a9.27 9.27 0 01-2.57.32 8.85 8.85 0 01-3-.47c-.63-.23-.84-.51-.84-.62zm-5 2.61l4.44-.62v1.36c0 .56.5.91 1.22 1.19a9.27 9.27 0 003.27.52 10.54 10.54 0 002.58-.31v2.21c0 .56.5.91 1.22 1.2a9.51 9.51 0 003.26.5 9.77 9.77 0 002.73-.34c.94-.29 1.56-.66 1.6-1.3v-3.36a10.25 10.25 0 002.55-.3v2.2c0 .56.51.91 1.23 1.19a9.22 9.22 0 003.26.51 10.21 10.21 0 002.73-.34c.93-.29 1.55-.65 1.59-1.31v-1.92.38l5 2.71-23 3.24zm37.21 22.35c-.08.06-23.39 3.28-23.39 3.28v-17.61l23.4-3.28s-.02 17.53-.01 17.61z" fill="#237dba"/><path d="M101.383 14.743c0-.55-.5-.91-1.23-1.2a9.47 9.47 0 00-3.26-.5 10.26 10.26 0 00-2.73.34c-.93.28-1.54.66-1.59 1.3v1.38l-5.41.76h-.11v18.28a.35.35 0 000 .14v.05l3.84 2.1 10.7 5.81a.28.28 0 00.12 0l24-3.37a.21.21 0 00.1 0 .07.07 0 000-.06v-18.25a.25.25 0 000-.12l-6.06-3.3v-1.14c0-.55-.5-.91-1.22-1.2a9.57 9.57 0 00-3.27-.5h-.72l-1.85-1v-.94c0-.56-.51-.92-1.23-1.2a9.26 9.26 0 00-3.26-.51 10.15 10.15 0 00-2.73.34c-.93.29-1.55.65-1.6 1.29v1.19l-2.55.36" fill="#33abe1"/><path d="M126.003 21.663a.25.25 0 000-.12l-6.06-3.3v-1.14c0-.55-.5-.91-1.22-1.2a9.57 9.57 0 00-3.27-.5h-.72l-1.85-1v.67l.83.45q-.43.08-.84.18v-2.24c0-.56-.51-.92-1.23-1.2a9.26 9.26 0 00-3.26-.51 10.15 10.15 0 00-2.73.34c-.93.29-1.55.65-1.6 1.29v1.19l-2.55.36v.6l2.55-.36v1.53a9.91 9.91 0 00-2.69.34h.14v-2.24c0-.55-.5-.91-1.23-1.2a9.47 9.47 0 00-3.26-.5 10.26 10.26 0 00-2.73.34c-.93.28-1.54.66-1.59 1.3v1.38l-5.41.76h-.11v18.28a.35.35 0 000 .14v.05l3.84 2.09 10.7 5.81a.28.28 0 00.12 0l24-3.37a.21.21 0 00.1 0 .07.07 0 000-.06v-18.25zm-10.69-5.81a9.28 9.28 0 013.05.46c.67.25.87.56.84.65-.03.09-.27.49-1.16.75a9.61 9.61 0 01-2.57.32 9 9 0 01-3-.47c-.64-.24-.85-.52-.85-.62 0-.12.29-.49 1.18-.74a9.51 9.51 0 012.51-.35zm-9.61-3.32a9.53 9.53 0 012.56-.32 9.09 9.09 0 013 .47c.66.25.86.55.84.65-.02.1-.28.49-1.17.74a9.58 9.58 0 01-2.57.31 8.76 8.76 0 01-3-.46c-.63-.24-.85-.52-.84-.63-.02-.14.29-.51 1.2-.76zm-4.31 5a9.59 9.59 0 012.56-.32 9.09 9.09 0 013 .47c.67.25.86.55.84.65-.02.1-.28.49-1.17.74a9.53 9.53 0 01-2.56.32 8.85 8.85 0 01-3.05-.47c-.63-.24-.85-.52-.84-.63.02-.08.33-.46 1.22-.71zm-8.23-2.89c0-.12.28-.49 1.18-.73a10.08 10.08 0 015.6.14c.67.24.87.55.84.64-.03.09-.27.5-1.16.75a9.66 9.66 0 01-2.57.32 9.09 9.09 0 01-3-.47c-.63-.24-.84-.52-.84-.62zm-5 2.61l4.44-.63v1.37c0 .56.51.92 1.23 1.2a9.46 9.46 0 003.26.51 10.16 10.16 0 002.59-.31v2.21c0 .56.5.91 1.22 1.2a9.5 9.5 0 003.26.51 10.28 10.28 0 002.74-.34c.93-.29 1.55-.66 1.59-1.31v-3.35a10.73 10.73 0 002.55-.31v2.21c0 .56.51.92 1.23 1.2a9.46 9.46 0 003.26.51 10.21 10.21 0 002.73-.34c.94-.29 1.56-.66 1.6-1.31v-1.55l5 2.72-23 3.23zm37.26 22.33c-.08.05-23.39 3.27-23.39 3.27v-17.6l23.39-3.29-.05 17.67z" fill="#237dba"/><path d="M77.403 109.553c0-.56-.5-.92-1.23-1.2a9.46 9.46 0 00-3.26-.51 9.74 9.74 0 00-2.72.35c-.94.27-1.55.65-1.6 1.29v1.38l-5.42.76h-.11v18.32a.35.35 0 000 .13l3.83 2.09 10.7 5.82a.28.28 0 00.13 0l24-3.37a.21.21 0 00.1 0 .14.14 0 000-.07v-18.21a.25.25 0 000-.12v-.05l-6.06-3.3v-1.14c0-.55-.5-.91-1.22-1.2a9.55 9.55 0 00-3.26-.5h-.73l-1.85-1v-1c0-.55-.51-.91-1.22-1.19a9.36 9.36 0 00-3.27-.51 10.15 10.15 0 00-2.73.34c-.93.29-1.55.65-1.59 1.3v1.19l-2.55.36" fill="#33abe1"/><path d="M102.023 116.473a.25.25 0 000-.12v-.05l-6.06-3.3v-1.14c0-.55-.5-.91-1.22-1.2a9.55 9.55 0 00-3.26-.5h-.73l-1.85-1v.67l.83.45q-.43.07-.84.18v-2.23c0-.55-.51-.91-1.22-1.19a9.36 9.36 0 00-3.27-.51 10.15 10.15 0 00-2.73.34c-.93.29-1.55.65-1.59 1.3v1.19l-2.55.36v.6l2.55-.35v1.52a9.8 9.8 0 00-2.69.34h.13v-2.24c0-.56-.5-.92-1.23-1.2a9.46 9.46 0 00-3.26-.51 9.74 9.74 0 00-2.72.35c-.94.27-1.55.65-1.6 1.29v1.38l-5.42.76h-.11v18.32a.35.35 0 000 .13l3.83 2.09 10.7 5.82a.28.28 0 00.13 0l24-3.37a.21.21 0 00.1 0 .14.14 0 000-.07v-18.21zm-10.68-5.81a9 9 0 013 .47c.67.25.87.55.85.64-.02.09-.27.5-1.17.75a9.56 9.56 0 01-2.57.32 9 9 0 01-3-.47c-.64-.24-.85-.52-.85-.62 0-.12.29-.49 1.18-.74a9.53 9.53 0 012.56-.35zm-9.62-3.32a9.53 9.53 0 012.56-.32 9.09 9.09 0 013 .47c.67.25.87.55.84.64-.03.09-.28.5-1.17.75a9.53 9.53 0 01-2.56.32 8.81 8.81 0 01-3-.47c-.63-.24-.85-.52-.84-.63-.03-.13.28-.51 1.17-.76zm-4.31 5.06a9.18 9.18 0 012.56-.33 9.09 9.09 0 013 .47c.67.25.87.55.84.65-.03.1-.28.49-1.17.74a9.53 9.53 0 01-2.56.32 8.85 8.85 0 01-3.05-.47c-.63-.24-.84-.52-.84-.63.02-.13.33-.51 1.22-.75zm-8.23-2.9c0-.12.28-.49 1.18-.73a9.11 9.11 0 012.55-.33 9 9 0 013 .47c.67.25.87.55.84.65-.03.1-.27.49-1.16.74a9.61 9.61 0 01-2.57.32 8.85 8.85 0 01-3-.47c-.63-.24-.84-.52-.84-.62zm-5 2.61l4.44-.62v1.36c0 .56.51.91 1.22 1.19a9.6 9.6 0 003.27.51 10.11 10.11 0 002.59-.31v2.21c0 .56.5.92 1.22 1.2a9.54 9.54 0 003.26.51 10.28 10.28 0 002.74-.34c.94-.29 1.56-.66 1.6-1.3v-3.36a10.73 10.73 0 002.55-.31v2.21c0 .57.51.92 1.23 1.2a9.5 9.5 0 003.26.51 10.21 10.21 0 002.73-.34c.94-.29 1.56-.66 1.6-1.31v-1.55l5 2.72-23 3.23zm37.26 22.33c-.08 0-23.39 3.27-23.39 3.27v-17.6l23.39-3.29s-.06 17.5-.05 17.62z" fill="#237dba"/><path d="M77.403 91.273c0-.56-.5-.92-1.23-1.2a9.46 9.46 0 00-3.26-.51 9.74 9.74 0 00-2.72.35c-.94.28-1.55.65-1.6 1.29v1.39l-5.42.76h-.11v18.26a.29.29 0 000 .14l3.83 2.09 10.7 5.82a.5.5 0 00.13 0l24-3.36a.24.24 0 00.1 0 .14.14 0 000-.07v-18.21a.2.2 0 000-.11v-.06l-6.06-3.3v-1.14c0-.56-.5-.92-1.22-1.2a9.54 9.54 0 00-3.26-.51h-.73l-1.85-1v-.94c0-.56-.51-.91-1.22-1.2a9.6 9.6 0 00-3.27-.51 10.15 10.15 0 00-2.73.34c-.93.29-1.55.66-1.59 1.3v1.2l-2.55.35" fill="#33abe1"/><path d="M102.023 98.213a.2.2 0 000-.11v-.06l-6.06-3.3v-1.14c0-.56-.5-.92-1.22-1.2a9.54 9.54 0 00-3.26-.51h-.73l-1.85-1v.66l.83.46a7.34 7.34 0 00-.84.17v-2.23c0-.56-.51-.91-1.22-1.2a9.6 9.6 0 00-3.27-.51 10.15 10.15 0 00-2.73.34c-.93.29-1.55.66-1.59 1.3v1.2l-2.55.35v.61l2.55-.36v1.52a10.2 10.2 0 00-2.69.34h.13v-2.23c0-.56-.5-.92-1.23-1.2a9.46 9.46 0 00-3.26-.51 9.74 9.74 0 00-2.72.35c-.94.28-1.55.65-1.6 1.29v1.39l-5.42.76h-.11v18.26a.29.29 0 000 .14l3.83 2.09 10.7 5.82a.5.5 0 00.13 0l24-3.36a.24.24 0 00.1 0 .14.14 0 000-.07v-18.21zm-10.68-5.81a9 9 0 013 .47c.67.25.87.55.85.65-.02.1-.27.49-1.17.74a9.56 9.56 0 01-2.57.32 9 9 0 01-3-.47c-.64-.24-.85-.51-.85-.62 0-.11.29-.49 1.18-.73a9.52 9.52 0 012.56-.39zm-9.62-3.32a10 10 0 012.56-.32 9.09 9.09 0 013 .47c.67.25.87.55.84.65-.03.1-.28.49-1.17.74a9.53 9.53 0 01-2.56.32 8.81 8.81 0 01-3-.47c-.63-.23-.85-.52-.84-.62-.03-.17.28-.55 1.17-.8zm-4.31 5a10 10 0 012.56-.32 9.09 9.09 0 013 .47c.67.25.87.56.84.65-.03.09-.28.5-1.17.74a9.53 9.53 0 01-2.56.32 8.86 8.86 0 01-3.05-.46c-.63-.24-.84-.53-.84-.64.02-.11.33-.49 1.22-.74zm-8.23-2.89c0-.12.28-.5 1.18-.74a9.13 9.13 0 012.55-.32 9 9 0 013 .46c.67.25.87.56.84.65-.03.09-.27.49-1.16.74a9.22 9.22 0 01-2.57.32 9.09 9.09 0 01-3-.47c-.63-.24-.84-.51-.84-.62zm-5 2.61l4.44-.62v1.36c0 .56.51.92 1.22 1.19a9.36 9.36 0 003.27.51 10.58 10.58 0 002.59-.3v2.2c0 .55.5.91 1.22 1.2a9.55 9.55 0 003.26.5 10.28 10.28 0 002.74-.34c.94-.29 1.56-.66 1.6-1.31v-3.35a10.74 10.74 0 002.55-.3v2.2c0 .56.51.91 1.23 1.19a9.26 9.26 0 003.26.51 10.21 10.21 0 002.73-.34c.94-.29 1.56-.66 1.6-1.31v-1.55l5 2.72-23 3.24zm37.26 22.33c-.08 0-23.39 3.28-23.39 3.28v-17.61l23.39-3.29s-.06 17.53-.05 17.64z" fill="#237dba"/><path d="M77.403 72.983c0-.56-.5-.91-1.23-1.2a9.46 9.46 0 00-3.26-.51 9.74 9.74 0 00-2.72.35c-.94.28-1.55.66-1.6 1.3v1.38l-5.42.76h-.11v18.28a.28.28 0 000 .13v.05l3.83 2.09 10.7 5.82a.28.28 0 00.13 0l24-3.37a.21.21 0 00.1 0 .14.14 0 000-.07v-18.27a.22.22 0 000-.12l-6.06-3.29v-1.1c0-.56-.5-.91-1.22-1.2a9.55 9.55 0 00-3.26-.5h-.73l-1.85-1v-.94c0-.56-.51-.91-1.22-1.2a9.85 9.85 0 00-3.27-.51 10.57 10.57 0 00-2.73.34c-.93.29-1.55.66-1.59 1.3v1.21l-2.55.36" fill="#33abe1"/><path d="M102.023 79.903a.22.22 0 000-.12l-6.06-3.29v-1.28c0-.56-.5-.91-1.22-1.2a9.55 9.55 0 00-3.26-.5h-.73l-1.85-1v.7l.83.46a7.34 7.34 0 00-.84.18v-2.24c0-.56-.51-.91-1.22-1.2a9.85 9.85 0 00-3.27-.51 10.57 10.57 0 00-2.73.34c-.93.29-1.55.66-1.59 1.3v1.21l-2.55.36v.6l2.55-.36v1.53a10.19 10.19 0 00-2.69.35h.13v-2.23c0-.56-.5-.91-1.23-1.2a9.46 9.46 0 00-3.26-.51 9.74 9.74 0 00-2.72.35c-.94.28-1.55.66-1.6 1.3v1.38l-5.42.76h-.11v18.28a.28.28 0 000 .13v.05l3.83 2.09 10.7 5.82a.28.28 0 00.13 0l24-3.37a.21.21 0 00.1 0 .14.14 0 000-.07v-18.27zm-10.68-5.81a9.26 9.26 0 013 .46c.67.25.87.56.85.65-.02.09-.27.49-1.17.74a9.17 9.17 0 01-2.57.32 9 9 0 01-3-.46c-.64-.24-.85-.52-.85-.63 0-.12.29-.5 1.18-.74a9.53 9.53 0 012.56-.34zm-9.62-3.32a9.53 9.53 0 012.56-.32 8.85 8.85 0 013 .47c.67.25.87.55.84.64-.03.09-.28.5-1.17.75a10 10 0 01-2.56.31 8.82 8.82 0 01-3-.46c-.63-.24-.85-.52-.84-.63-.03-.14.28-.52 1.17-.76zm-4.31 5.05a9.59 9.59 0 012.56-.32 8.85 8.85 0 013 .47c.67.25.87.55.84.64-.03.09-.28.5-1.17.75a10 10 0 01-2.56.31 8.63 8.63 0 01-3.05-.46c-.63-.24-.84-.52-.84-.63.02-.14.33-.52 1.22-.76zm-8.23-2.89c0-.12.28-.5 1.18-.74a9.51 9.51 0 012.55-.32 9.28 9.28 0 013 .46c.67.25.87.56.84.65-.03.09-.27.49-1.16.74a9.21 9.21 0 01-2.57.33 9.09 9.09 0 01-3-.47c-.63-.24-.84-.52-.84-.62zm-5 2.6l4.44-.62v1.37c0 .56.51.92 1.22 1.2a9.6 9.6 0 003.27.51 10.57 10.57 0 002.59-.31v2.21c0 .56.5.91 1.22 1.2a9.54 9.54 0 003.26.51 10.28 10.28 0 002.74-.34c.94-.3 1.56-.66 1.6-1.31v-3.36a10.25 10.25 0 002.55-.3v2.2c0 .56.51.92 1.23 1.19a9.25 9.25 0 003.26.52 10.2 10.2 0 002.73-.35c.94-.28 1.56-.65 1.6-1.3v-1.55l5 2.72-23 3.23zm37.26 22.33c-.08.06-23.39 3.28-23.39 3.28v-17.61l23.39-3.28s-.06 17.5-.05 17.61z" fill="#237dba"/><path d="M77.403 54.693c0-.56-.5-.92-1.23-1.21a10.82 10.82 0 00-6-.15c-.94.27-1.55.65-1.6 1.29v1.38l-5.42.76h-.11v18.34a.35.35 0 000 .13l3.83 2.1 10.7 5.82a.28.28 0 00.13 0l24-3.37a.21.21 0 00.1 0 .19.19 0 000-.07v-18.26a.25.25 0 000-.12v-.05l-6.06-3.3v-1.14c0-.56-.5-.91-1.22-1.2a9.55 9.55 0 00-3.26-.5h-.73l-1.85-1v-.94c0-.56-.51-.92-1.22-1.2a9.59 9.59 0 00-3.27-.52 10.14 10.14 0 00-2.73.35c-.93.28-1.55.65-1.59 1.29v1.19l-2.55.36" fill="#33abe1"/><path d="M102.023 61.613a.25.25 0 000-.12v-.05l-6.06-3.3v-1.14c0-.56-.5-.91-1.22-1.2a9.55 9.55 0 00-3.26-.5h-.73l-1.85-1v.67l.83.45a7.34 7.34 0 00-.84.18v-2.24c0-.56-.51-.92-1.22-1.2a9.59 9.59 0 00-3.27-.52 10.14 10.14 0 00-2.73.35c-.93.28-1.55.65-1.59 1.29v1.19l-2.55.36v.6l2.55-.36v1.53a9.8 9.8 0 00-2.69.34h.13v-2.24c0-.56-.5-.92-1.23-1.21a10.82 10.82 0 00-6-.15c-.94.27-1.55.65-1.6 1.29v1.38l-5.42.76h-.11v18.34a.35.35 0 000 .13l3.83 2.09 10.7 5.82a.28.28 0 00.13 0l24-3.37a.21.21 0 00.1 0 .19.19 0 000-.07v-18.26zm-10.68-5.81a9.26 9.26 0 013 .46c.67.26.87.56.85.65-.02.09-.27.5-1.17.75a9.56 9.56 0 01-2.57.32 9 9 0 01-3-.47c-.64-.24-.85-.52-.85-.62 0-.12.29-.49 1.18-.74a9.53 9.53 0 012.56-.35zm-9.62-3.32a9.53 9.53 0 012.56-.32 8.85 8.85 0 013 .47c.67.25.87.55.84.65-.03.1-.28.49-1.17.74a9.55 9.55 0 01-2.56.31 8.59 8.59 0 01-3-.46c-.63-.24-.85-.52-.84-.63-.03-.14.28-.51 1.17-.76zm-4.31 5.05a9.59 9.59 0 012.56-.32 9.09 9.09 0 013 .47c.67.25.87.55.84.65-.03.1-.28.49-1.17.74a9.53 9.53 0 01-2.56.32 8.85 8.85 0 01-3.05-.47c-.63-.24-.84-.52-.84-.63.02-.08.33-.51 1.22-.76zm-8.23-2.89c0-.12.28-.49 1.18-.73a9.11 9.11 0 012.55-.33 9 9 0 013 .47c.67.25.87.55.84.65-.03.1-.27.49-1.16.74a9.61 9.61 0 01-2.57.32 9.09 9.09 0 01-3-.47c-.63-.24-.84-.52-.84-.62zm-5 2.61l4.44-.63v1.37c0 .56.51.92 1.22 1.2a9.6 9.6 0 003.27.51 10.11 10.11 0 002.59-.31v2.21c0 .56.5.92 1.22 1.2a9.54 9.54 0 003.26.51 10.28 10.28 0 002.74-.34c.94-.29 1.56-.66 1.6-1.31v-3.36a10.73 10.73 0 002.55-.31v2.21c0 .56.51.92 1.23 1.2a9.5 9.5 0 003.26.51 10.21 10.21 0 002.73-.34c.94-.29 1.56-.66 1.6-1.31v-1.55l5 2.72-23 3.23zm37.26 22.33c-.08 0-23.39 3.27-23.39 3.27v-17.6l23.39-3.29s-.06 17.5-.05 17.62z" fill="#237dba"/><path d="M77.403 36.403c0-.56-.5-.92-1.23-1.2a9.46 9.46 0 00-3.26-.51 9.74 9.74 0 00-2.72.35c-.94.28-1.55.65-1.6 1.29v1.39l-5.42.76a.23.23 0 00-.11 0v18.27a.31.31 0 000 .13l3.83 2.09 10.7 5.82a.28.28 0 00.13 0l24-3.37a.14.14 0 00.1 0 .14.14 0 000-.07v-18.21a.25.25 0 000-.12.21.21 0 000-.06l-6.06-3.29v-1.14c0-.56-.5-.92-1.22-1.2a9.54 9.54 0 00-3.26-.51h-.73l-1.85-1v-.94c0-.56-.51-.92-1.22-1.2a9.36 9.36 0 00-3.27-.51 10.15 10.15 0 00-2.73.34c-.93.29-1.55.66-1.59 1.3v1.19l-2.55.36" fill="#33abe1"/><path d="M102.023 43.323a.25.25 0 000-.12.21.21 0 000-.06l-6.06-3.29v-1.14c0-.56-.5-.92-1.22-1.2a9.54 9.54 0 00-3.26-.51h-.73l-1.85-1v.67l.83.45q-.43.07-.84.18v-2.24c0-.56-.51-.92-1.22-1.2a9.36 9.36 0 00-3.27-.51 10.15 10.15 0 00-2.73.34c-.93.29-1.55.66-1.59 1.3v1.19l-2.55.36v.6l2.55-.35v1.52a9.8 9.8 0 00-2.69.34h.13v-2.24c0-.56-.5-.92-1.23-1.2a9.46 9.46 0 00-3.26-.51 9.74 9.74 0 00-2.72.35c-.94.28-1.55.65-1.6 1.29v1.39l-5.42.76a.23.23 0 00-.11 0v18.27a.31.31 0 000 .13l3.83 2.09 10.7 5.82a.28.28 0 00.13 0l24-3.37a.14.14 0 00.1 0 .14.14 0 000-.07v-18.21zm-10.68-5.8a9 9 0 013 .46c.67.25.87.55.85.65-.02.1-.27.49-1.17.74a9.56 9.56 0 01-2.57.32 9 9 0 01-3-.47c-.64-.24-.85-.52-.85-.62 0-.12.29-.49 1.18-.74a9.55 9.55 0 012.56-.34zm-9.62-3.31a9.53 9.53 0 012.56-.32 9.09 9.09 0 013 .47c.67.25.87.55.84.65-.03.1-.28.49-1.17.74a9.53 9.53 0 01-2.56.32 8.81 8.81 0 01-3-.47c-.63-.24-.85-.52-.84-.63-.03-.15.28-.53 1.17-.76zm-4.31 5a10 10 0 012.56-.32 9.09 9.09 0 013 .47c.67.25.87.56.84.65-.03.09-.28.49-1.17.74a9.53 9.53 0 01-2.56.32 8.85 8.85 0 01-3.05-.47c-.63-.23-.84-.52-.84-.63.02-.1.33-.48 1.22-.76zm-8.23-2.89c0-.11.28-.49 1.18-.73a9.13 9.13 0 012.55-.32 9 9 0 013 .46c.67.25.87.55.84.65-.03.1-.27.49-1.16.74a9.61 9.61 0 01-2.57.32 9.09 9.09 0 01-3-.47c-.63-.24-.84-.52-.84-.62zm-5 2.61l4.44-.62v1.36c0 .56.51.91 1.22 1.19a9.36 9.36 0 003.27.51 10.11 10.11 0 002.59-.31v2.21c0 .56.5.92 1.22 1.21a9.8 9.8 0 003.26.5 10.28 10.28 0 002.74-.34c.94-.29 1.56-.66 1.6-1.31v-3.35a10.24 10.24 0 002.55-.31v2.21c0 .55.51.91 1.23 1.19a9.5 9.5 0 003.26.51 10.21 10.21 0 002.73-.34c.94-.29 1.56-.66 1.6-1.31v-1.55l5 2.72-23 3.24zm37.26 22.33c-.08 0-23.39 3.28-23.39 3.28v-17.61l23.39-3.29s-.06 17.57-.05 17.65z" fill="#237dba"/><path d="M77.403 18.123c0-.56-.5-.91-1.23-1.2a9.47 9.47 0 00-3.26-.5 9.74 9.74 0 00-2.72.34c-.94.28-1.55.65-1.6 1.29v1.39l-5.42.76h-.11v18.27a.28.28 0 000 .13v.05l3.83 2.09 10.7 5.82a.28.28 0 00.13 0l24-3.37h.1a.14.14 0 000-.07v-18.21a.22.22 0 000-.12v-.06l-6.06-3.3v-1.14c0-.56-.5-.92-1.22-1.2a9.54 9.54 0 00-3.26-.51h-.73l-1.85-1v-.94c0-.56-.51-.91-1.22-1.2a9.85 9.85 0 00-3.27-.51 10.15 10.15 0 00-2.73.34c-.93.29-1.55.66-1.59 1.3v1.21l-2.55.35" fill="#33abe1"/><path d="M102.023 25.043a.22.22 0 000-.12v-.06l-6.06-3.3v-1.14c0-.56-.5-.92-1.22-1.2a9.54 9.54 0 00-3.26-.51h-.73l-1.85-1v.66l.83.46a7.34 7.34 0 00-.84.17v-2.23c0-.56-.51-.91-1.22-1.2a9.85 9.85 0 00-3.27-.51 10.15 10.15 0 00-2.73.34c-.93.29-1.55.66-1.59 1.3v1.21l-2.55.35v.61l2.55-.36v1.53a9.79 9.79 0 00-2.69.35h.13v-2.23c0-.56-.5-.91-1.23-1.2a9.47 9.47 0 00-3.26-.5 9.74 9.74 0 00-2.72.34c-.94.28-1.55.65-1.6 1.29v1.39l-5.42.76h-.11v18.27a.28.28 0 000 .13v.05l3.83 2.09 10.7 5.82a.28.28 0 00.13 0l24-3.37h.1a.14.14 0 000-.07v-18.21zm-10.68-5.83a9 9 0 013 .46c.67.25.87.55.85.65-.02.1-.27.49-1.17.74a9.17 9.17 0 01-2.57.32 8.75 8.75 0 01-3-.47c-.64-.23-.85-.51-.85-.62 0-.12.29-.5 1.18-.74a9.53 9.53 0 012.56-.34zm-9.62-3.3a9.52 9.52 0 012.56-.33 9.09 9.09 0 013 .47c.67.25.87.56.84.65-.03.09-.28.5-1.17.74a9.53 9.53 0 01-2.56.32 8.82 8.82 0 01-3-.46c-.63-.24-.85-.53-.84-.63-.03-.14.28-.52 1.17-.76zm-4.31 5a9.59 9.59 0 012.56-.32 8.85 8.85 0 013 .47c.67.25.87.55.84.64-.03.09-.28.5-1.17.75a10 10 0 01-2.56.31 8.86 8.86 0 01-3.05-.46c-.63-.24-.84-.52-.84-.63.02-.09.33-.46 1.22-.71zm-8.23-2.9c0-.12.28-.5 1.18-.74a9.51 9.51 0 012.55-.32 9.28 9.28 0 013 .46c.67.25.87.56.84.65-.03.09-.27.49-1.16.74a9.22 9.22 0 01-2.57.32 8.85 8.85 0 01-3-.47c-.63-.23-.84-.51-.84-.62zm-5 2.61l4.44-.62v1.37c0 .56.51.92 1.22 1.19a9.35 9.35 0 003.27.52 10.57 10.57 0 002.59-.31v2.21c0 .56.5.91 1.22 1.2a9.55 9.55 0 003.26.5 10.29 10.29 0 002.74-.33c.94-.3 1.56-.67 1.6-1.31v-3.36a10.25 10.25 0 002.55-.3v2.2c0 .56.51.92 1.23 1.19a9.25 9.25 0 003.26.52 10.2 10.2 0 002.73-.35c.94-.29 1.56-.65 1.6-1.31v-1.42l5 2.72-23 3.23zm37.26 22.33c-.08.06-23.39 3.28-23.39 3.28v-17.61l23.39-3.28s-.06 17.55-.05 17.66z" fill="#237dba"/><path d="M53.413 21.483c0-.56-.5-.91-1.22-1.2a9.57 9.57 0 00-3.27-.5 9.74 9.74 0 00-2.72.34c-.94.28-1.55.66-1.6 1.3v1.39l-5.42.76a.45.45 0 00-.11 0v18.34a.28.28 0 000 .13l3.83 2.09 10.7 5.82h.13l24-3.37h.11a.14.14 0 000-.07v-18.21a.27.27 0 000-.13v-.06h-.06l-6.06-3.3v-1.1c0-.56-.5-.91-1.22-1.2a9.54 9.54 0 00-3.26-.51h-.72l-1.86-1v-.94c0-.56-.51-.91-1.22-1.2a9.85 9.85 0 00-3.27-.51 10.15 10.15 0 00-2.73.34c-.93.29-1.55.66-1.59 1.3v1.22l-2.55.36" fill="#33abe1"/><path d="M78.033 28.403a.27.27 0 000-.13v-.06h-.06l-6.06-3.3v-1.2c0-.56-.5-.91-1.22-1.2a9.54 9.54 0 00-3.26-.51h-.72l-1.86-1v.66l.83.46a7.34 7.34 0 00-.84.17v-2.23c0-.56-.51-.91-1.22-1.2a9.85 9.85 0 00-3.27-.51 10.15 10.15 0 00-2.73.34c-.93.29-1.55.66-1.59 1.3v1.22l-2.55.36v.6l2.54-.36v1.53a10.19 10.19 0 00-2.69.35h.13v-2.23c0-.56-.5-.91-1.22-1.2a9.57 9.57 0 00-3.27-.5 9.74 9.74 0 00-2.72.34c-.94.28-1.55.66-1.6 1.3v1.39l-5.42.76a.45.45 0 00-.11 0v18.34a.28.28 0 000 .13l3.83 2.09 10.7 5.82h.13l24-3.37h.11a.14.14 0 000-.07v-18.21zm-10.68-5.81a9.37 9.37 0 013 .46c.66.25.86.55.84.65-.02.1-.27.49-1.16.74a9.27 9.27 0 01-2.57.32 8.81 8.81 0 01-3-.47c-.64-.23-.85-.51-.85-.62 0-.12.29-.5 1.18-.74a9.53 9.53 0 012.56-.34zm-9.62-3.32a9.59 9.59 0 012.56-.32 9.11 9.11 0 013 .46c.66.26.87.56.84.65-.03.09-.28.5-1.17.74a9.53 9.53 0 01-2.56.32 8.86 8.86 0 01-3-.46c-.63-.24-.85-.53-.84-.63-.03-.14.28-.52 1.16-.76zm-4.31 5.05a9.59 9.59 0 012.56-.32 8.85 8.85 0 013 .47c.67.25.87.55.85.64-.02.09-.28.5-1.18.75a10 10 0 01-2.56.31 8.86 8.86 0 01-3.05-.46c-.63-.24-.84-.52-.84-.63.02-.14.33-.52 1.22-.76zm-8.23-2.9c0-.12.29-.5 1.18-.74a9.51 9.51 0 012.55-.32 9.28 9.28 0 013 .46c.67.25.87.56.84.65-.03.09-.27.49-1.16.74a9.22 9.22 0 01-2.57.32 9.11 9.11 0 01-3-.46c-.63-.24-.84-.52-.84-.63zm-5 2.61l4.44-.62v1.37c0 .56.51.92 1.23 1.19a9.25 9.25 0 003.26.52 10.57 10.57 0 002.59-.31v2.21c0 .56.51.91 1.22 1.2a9.59 9.59 0 003.26.5 9.89 9.89 0 002.74-.34c.94-.29 1.56-.65 1.6-1.3v-3.36a10.25 10.25 0 002.55-.3v2.23c0 .56.5.91 1.22 1.19a9.25 9.25 0 003.26.52 10.27 10.27 0 002.74-.35c.93-.29 1.55-.65 1.59-1.31v-1.54l5 2.71-23 3.24zm37.27 22.33c-.09.06-23.4 3.28-23.4 3.28v-17.61l23.39-3.28s-.05 17.46-.04 17.61z" fill="#237dba"/><path d="M29.423 24.853c0-.56-.5-.91-1.22-1.2a9.56 9.56 0 00-3.27-.51 9.74 9.74 0 00-2.72.35c-.94.28-1.55.65-1.6 1.3v1.42l-5.42.76a.25.25 0 00-.11 0 .19.19 0 000 .07v18.21a.28.28 0 000 .13v.05l3.83 2.09 10.7 5.82a.28.28 0 00.13 0l24-3.37a.24.24 0 00.1-.05.14.14 0 000-.06v-18.21a.2.2 0 000-.11v-.06l-6.06-3.3v-1.13c0-.56-.5-.91-1.22-1.2a9.56 9.56 0 00-3.27-.51h-.72l-1.85-1v-.94c0-.56-.5-.91-1.23-1.2a10.74 10.74 0 00-6-.16c-.93.28-1.55.65-1.6 1.29v1.21l-2.55.36" fill="#33abe1"/><path d="M54.043 31.763a.2.2 0 000-.11v-.06l-6.06-3.3v-1.13c0-.56-.5-.91-1.22-1.2a9.56 9.56 0 00-3.27-.51h-.72l-1.85-1v.66l.84.46a7.34 7.34 0 00-.84.17v-2.23c0-.56-.5-.91-1.23-1.2a10.74 10.74 0 00-6-.16c-.93.28-1.55.65-1.6 1.29v1.21l-2.55.36v.6l2.55-.36v1.53a10.32 10.32 0 00-2.7.35h.14v-2.23c0-.56-.5-.91-1.22-1.2a9.56 9.56 0 00-3.27-.51 9.74 9.74 0 00-2.72.35c-.94.28-1.55.65-1.6 1.3v1.37l-5.42.76a.25.25 0 00-.11 0 .19.19 0 000 .07v18.21a.28.28 0 000 .13v.05l3.83 2.09 10.7 5.82a.28.28 0 00.13 0l24-3.37a.24.24 0 00.1-.05.14.14 0 000-.06v-18.21zm-10.69-5.8a9 9 0 013 .46c.67.25.87.55.85.65-.02.1-.28.49-1.17.74a9.17 9.17 0 01-2.57.32 8.75 8.75 0 01-3-.47c-.64-.24-.85-.51-.85-.62 0-.11.29-.49 1.18-.73a9.13 9.13 0 012.56-.35zm-9.61-3.32a9.52 9.52 0 012.56-.33 8.83 8.83 0 013.05.48c.67.24.87.55.84.64-.03.09-.27.5-1.17.74a9.56 9.56 0 01-2.57.32 8.84 8.84 0 01-3-.46c-.63-.24-.85-.53-.84-.63-.07-.14.24-.52 1.11-.76zm-4.31 5.05a9.59 9.59 0 012.56-.32 8.85 8.85 0 013 .47c.67.24.87.55.85.64-.02.09-.28.5-1.17.74a9.66 9.66 0 01-2.57.32 8.86 8.86 0 01-3-.46c-.63-.24-.85-.53-.84-.63-.03-.14.28-.52 1.17-.76zm-8.23-2.9c0-.12.28-.5 1.17-.74a10.37 10.37 0 015.61.14c.67.25.87.56.85.65-.02.09-.28.49-1.17.74a9.21 9.21 0 01-2.57.33 8.83 8.83 0 01-3-.48c-.63-.23-.84-.51-.84-.62zm-5 2.61l4.44-.62v1.36c0 .56.51.92 1.23 1.19a9.22 9.22 0 003.26.51 10.64 10.64 0 002.59-.3v2.21c0 .55.5.91 1.22 1.2a9.55 9.55 0 003.26.5 9.84 9.84 0 002.74-.34c.94-.29 1.55-.66 1.59-1.3v-3.36a10.25 10.25 0 002.55-.3v2.23c0 .56.5.92 1.22 1.19a9.26 9.26 0 003.26.51 10.21 10.21 0 002.73-.34c.94-.29 1.56-.65 1.6-1.31v-1.54l5 2.71-23 3.24zm37.26 22.33c-.08.06-23.39 3.28-23.39 3.28v-17.61l23.39-3.29-.05 17.62z" fill="#237dba"/></svg>