<svg xmlns="http://www.w3.org/2000/svg" viewBox="0 0 125.962 141.367"><path d="M86.238 94.58c0-.56-.5-.92-1.22-1.2a9.54 9.54 0 00-3.26-.51 9.81 9.81 0 00-2.73.35c-.93.28-1.54.65-1.59 1.29v1.43l-5.42.76h-.1v18.25a.27.27 0 000 .13l3.83 2.09 10.69 5.81a.5.5 0 00.13 0l24-3.37h.1v-18.3a.23.23 0 000-.12v-.06l-6-3.29V96.7c0-.56-.5-.92-1.23-1.2a9.46 9.46 0 00-3.26-.51h-.72l-1.85-1v-.93c0-.56-.51-.91-1.22-1.2a10.74 10.74 0 00-6-.16c-.93.28-1.55.65-1.59 1.29v1.2l-2.54.35" fill="#eb5859"/><path d="M110.838 101.5a.23.23 0 000-.12v-.06l-6-3.29v-1.14c0-.56-.5-.92-1.23-1.2a9.46 9.46 0 00-3.26-.51h-.72l-1.85-1v.67l.83.45q-.43.08-.84.18v-2.23c0-.56-.51-.91-1.22-1.2a10.74 10.74 0 00-6-.16c-.93.28-1.55.65-1.59 1.29v1.2l-2.54.35v.6l2.54-.35v1.52a9.78 9.78 0 00-2.68.34h.14V94.6c0-.56-.5-.92-1.22-1.2a9.54 9.54 0 00-3.26-.51 9.81 9.81 0 00-2.73.35c-.93.28-1.54.65-1.59 1.29v1.41l-5.42.76h-.1v18.25a.27.27 0 000 .13l3.83 2.09 10.69 5.81a.5.5 0 00.13 0l24-3.37h.1v-18.3zm-10.68-5.81a9 9 0 013 .47c.66.24.87.55.84.65-.03.1-.27.48-1.16.74a9.61 9.61 0 01-2.57.32 9 9 0 01-3-.47c-.64-.24-.84-.52-.84-.63 0-.12.28-.49 1.17-.74a9.51 9.51 0 012.56-.34zm-9.6-3.32a10 10 0 012.56-.31 9.09 9.09 0 013 .46c.67.25.87.56.85.65-.02.09-.28.49-1.18.74a9.53 9.53 0 01-2.56.32 9.11 9.11 0 01-3-.46c-.62-.24-.84-.53-.83-.63-.04-.14.29-.52 1.16-.77zm-4.31 5.05a9.59 9.59 0 012.56-.32 9.09 9.09 0 013.05.47c.66.25.87.55.84.65-.03.1-.28.49-1.17.74a9.56 9.56 0 01-2.57.32 9.07 9.07 0 01-3-.47c-.63-.24-.84-.52-.84-.63-.07-.13.24-.52 1.13-.76zm-8.22-2.89c0-.12.29-.49 1.17-.73a9.53 9.53 0 012.56-.32 9 9 0 013 .46c.67.25.87.55.85.65-.02.1-.28.49-1.17.74a9.53 9.53 0 01-2.56.32 9.09 9.09 0 01-3-.47c-.63-.23-.84-.51-.84-.62zm-5 2.61l4.43-.63v1.37c0 .56.51.92 1.22 1.2a9.32 9.32 0 003.27.51 10.54 10.54 0 002.58-.31v2.21c0 .56.5.91 1.22 1.19a9.3 9.3 0 003.26.51 9.77 9.77 0 002.73-.34c.94-.29 1.56-.65 1.6-1.3v-3.36a10.17 10.17 0 002.54-.3v2.24c0 .56.5.91 1.22 1.2a9.5 9.5 0 003.26.51 10.2 10.2 0 002.73-.35c.93-.28 1.55-.65 1.59-1.31v-1.92.38l5 2.72-23 3.22zm37.22 22.3c-.08.06-23.37 3.28-23.37 3.28v-17.59l23.37-3.28-.04 17.59z" fill="#c91a20"/><path d="M86.238 76.32c0-.56-.5-.92-1.22-1.2a9.54 9.54 0 00-3.26-.51 9.81 9.81 0 00-2.73.35c-.93.27-1.54.65-1.59 1.29v1.38l-5.42.76h-.1v18.3a.3.3 0 000 .13l3.83 2.09 10.69 5.81a.5.5 0 00.13 0l24-3.37a.21.21 0 00.1 0V83.23a.22.22 0 000-.12l-6-3.29v-1.28c0-.56-.5-.91-1.23-1.2a9.71 9.71 0 00-3.26-.5h-.72l-1.85-1v-.9c0-.56-.51-.92-1.22-1.2a9.83 9.83 0 00-3.26-.51 10.15 10.15 0 00-2.73.34c-.93.29-1.55.65-1.59 1.3v1.2l-2.54.35" fill="#eb5859"/><path d="M110.838 83.23a.22.22 0 000-.12l-6-3.29v-1.28c0-.56-.5-.91-1.23-1.2a9.71 9.71 0 00-3.26-.5h-.72l-1.85-1v.66l.83.45q-.43.08-.84.18V74.9c0-.56-.51-.92-1.22-1.2a9.83 9.83 0 00-3.26-.51 10.15 10.15 0 00-2.73.34c-.93.29-1.55.65-1.59 1.3v1.2l-2.54.35v.6l2.54-.35v1.52a9.78 9.78 0 00-2.68.34h.14v-2.23c0-.56-.5-.92-1.22-1.2a9.54 9.54 0 00-3.26-.51 9.81 9.81 0 00-2.73.35c-.93.27-1.54.65-1.59 1.29v1.38l-5.42.76h-.1v18.3a.3.3 0 000 .13l3.83 2.09 10.69 5.81a.5.5 0 00.13 0l24-3.37a.21.21 0 00.1 0V83.23zm-10.68-5.81a9 9 0 013 .47c.66.25.87.55.84.64-.03.09-.27.5-1.16.74a9.21 9.21 0 01-2.57.33 9 9 0 01-3-.47c-.64-.24-.84-.52-.84-.62 0-.12.28-.49 1.17-.74a9.51 9.51 0 012.56-.35zm-9.6-3.32a10 10 0 012.56-.32 9.07 9.07 0 013 .47c.67.25.87.56.85.65-.02.09-.28.49-1.18.74a9.53 9.53 0 01-2.56.32 8.85 8.85 0 01-3-.47c-.62-.24-.84-.52-.83-.62-.04-.14.29-.52 1.16-.77zm-4.31 5.05a9.59 9.59 0 012.56-.32 9.09 9.09 0 013.05.47c.66.25.87.55.84.65-.03.1-.28.49-1.17.74a9.56 9.56 0 01-2.57.32 9.07 9.07 0 01-3-.47c-.63-.24-.84-.52-.84-.63-.07-.14.24-.51 1.13-.76zm-8.22-2.89c0-.12.29-.49 1.17-.73a9.15 9.15 0 012.56-.32 9 9 0 013 .46c.67.25.87.55.85.65-.02.1-.28.49-1.17.74a9.53 9.53 0 01-2.56.32 8.85 8.85 0 01-3-.47c-.63-.24-.84-.52-.84-.62zm-5 2.61l4.43-.63v1.37c0 .55.51.91 1.22 1.19a9.56 9.56 0 003.27.51 10.54 10.54 0 002.58-.31v2.21c0 .56.5.91 1.22 1.2a9.55 9.55 0 003.26.5 9.77 9.77 0 002.73-.34c.94-.29 1.56-.66 1.6-1.3v-3.36a10.17 10.17 0 002.54-.3v2.23c0 .56.5.92 1.22 1.19a9.25 9.25 0 003.26.52 10.2 10.2 0 002.73-.35c.93-.28 1.55-.65 1.59-1.3v-1.92.37l5 2.71-23 3.23zm37.22 22.3c-.08.06-23.37 3.28-23.37 3.28V86.86l23.37-3.28-.04 17.59z" fill="#c91a20"/><path d="M86.238 58.04c0-.55-.5-.91-1.22-1.19a9.54 9.54 0 00-3.26-.51 9.81 9.81 0 00-2.73.35c-.93.28-1.54.65-1.59 1.29v1.38l-5.42.77a.17.17 0 00-.1 0 .1.1 0 000 .05v.07c0 .07 0 0 0 0v18.19a.3.3 0 000 .13l3.77 2.37 10.69 5.81a.5.5 0 00.13 0l24-3.37h.1v-18.3a.27.27 0 000-.13.1.1 0 000-.05l-6-3.29v-1.14c0-.56-.5-.91-1.23-1.2a9.71 9.71 0 00-3.26-.5h-.72l-1.85-1v-.93c0-.56-.51-.92-1.22-1.2a9.83 9.83 0 00-3.26-.51 10.15 10.15 0 00-2.73.34c-.93.29-1.55.66-1.59 1.3v1.2l-2.54.35" fill="#eb5859"/><path d="M110.838 64.94a.27.27 0 000-.13.1.1 0 000-.05l-6-3.29v-1.14c0-.56-.5-.91-1.23-1.2a9.71 9.71 0 00-3.26-.5h-.72l-1.85-1v.67l.83.45q-.43.07-.84.18V56.7c0-.56-.51-.92-1.22-1.2a9.83 9.83 0 00-3.26-.51 10.15 10.15 0 00-2.73.34c-.93.29-1.55.66-1.59 1.3v1.2l-2.54.35v.6l2.54-.36v1.52a9.78 9.78 0 00-2.68.34h.14v-2.24c0-.55-.5-.91-1.22-1.19a9.54 9.54 0 00-3.26-.51 9.81 9.81 0 00-2.73.35c-.93.28-1.54.65-1.59 1.29v1.38l-5.42.77a.17.17 0 00-.1 0 .1.1 0 000 .05v.07c0 .07 0 0 0 0v18.19a.3.3 0 000 .13l3.58 2.37 10.69 5.81a.5.5 0 00.13 0l24-3.37h.1V65.07zm-10.68-5.81a9 9 0 013 .47c.66.25.87.55.84.64-.03.09-.27.5-1.16.74a9.21 9.21 0 01-2.57.33 9 9 0 01-3-.47c-.64-.24-.84-.52-.84-.63 0-.12.28-.49 1.17-.74a9.51 9.51 0 012.56-.32zm-9.6-3.32a10 10 0 012.56-.32 9.07 9.07 0 013 .47c.67.25.87.56.85.65-.02.09-.28.49-1.18.74a9.53 9.53 0 01-2.56.32 8.85 8.85 0 01-3-.47c-.62-.23-.84-.52-.83-.63-.04-.11.29-.49 1.16-.74zm-4.31 5.05a9.59 9.59 0 012.56-.32 9.09 9.09 0 013.05.47c.66.25.87.55.84.65-.03.1-.28.49-1.17.74a9.58 9.58 0 01-2.57.31 8.84 8.84 0 01-3-.46c-.63-.24-.84-.52-.84-.63-.07-.12.24-.5 1.13-.74zm-8.22-2.89c0-.13.29-.5 1.17-.74a9.15 9.15 0 012.56-.32 9 9 0 013 .46c.67.25.87.55.85.64-.02.09-.28.5-1.17.75a9.53 9.53 0 01-2.56.32 9.09 9.09 0 01-3-.47c-.63-.24-.84-.52-.84-.62zm-5 2.61l4.43-.63v1.37c0 .56.51.92 1.22 1.2a9.56 9.56 0 003.27.51 10.08 10.08 0 002.58-.31v2.21c0 .56.5.91 1.22 1.2a9.55 9.55 0 003.26.5 9.77 9.77 0 002.73-.34c.94-.29 1.56-.66 1.6-1.3v-3.36a10.17 10.17 0 002.54-.3v2.23c0 .56.5.91 1.22 1.19a9.25 9.25 0 003.26.52 10.2 10.2 0 002.73-.35c.93-.28 1.55-.65 1.59-1.31V61.7v.37l5 2.72-23 3.22zm37.18 22.36c-.08 0-23.37 3.27-23.37 3.27V68.62l23.37-3.28z" fill="#c91a20"/><path d="M86.238 39.77c0-.55-.5-.91-1.22-1.19a9.54 9.54 0 00-3.26-.51 9.81 9.81 0 00-2.73.35c-.93.28-1.54.65-1.59 1.29v1.38l-5.42.76h-.1v18.26a.27.27 0 000 .13l3.83 2.09 10.69 5.81a.5.5 0 00.13 0l24-3.37h.1V46.46a.22.22 0 000-.12.1.1 0 000-.05l-6-3.29v-1.14c0-.56-.5-.91-1.23-1.2a9.71 9.71 0 00-3.26-.5h-.72l-1.85-1v-.94c0-.56-.51-.91-1.22-1.2a9.83 9.83 0 00-3.26-.51 10.15 10.15 0 00-2.73.34c-.93.29-1.55.66-1.59 1.3v1.19l-2.54.36" fill="#eb5859"/><path d="M110.838 46.69a.22.22 0 000-.12.1.1 0 000-.05l-6-3.29v-1.14c0-.56-.5-.91-1.23-1.2a9.71 9.71 0 00-3.26-.5h-.72l-1.85-1v.55l.83.45q-.43.07-.84.18v-2.24c0-.56-.51-.91-1.22-1.2a9.83 9.83 0 00-3.26-.51 10.15 10.15 0 00-2.73.34c-.93.29-1.55.66-1.59 1.3v1.19l-2.54.36v.6l2.54-.35v1.52a9.78 9.78 0 00-2.68.34h.14v-2.24c0-.55-.5-.91-1.22-1.19a9.54 9.54 0 00-3.26-.51 9.81 9.81 0 00-2.73.35c-.93.28-1.54.65-1.59 1.29V41l-5.42.76h-.1v18.26a.27.27 0 000 .13l3.83 2.09 10.69 5.81a.5.5 0 00.13 0l24-3.37h.1V46.37zm-10.68-5.81a9 9 0 013 .47c.66.24.87.55.84.64-.03.09-.27.5-1.16.74a9.21 9.21 0 01-2.57.33 9 9 0 01-3-.47c-.64-.24-.84-.52-.84-.63 0-.12.28-.49 1.17-.74a9.51 9.51 0 012.56-.34zm-9.6-3.32a10 10 0 012.56-.32 9.07 9.07 0 013 .47c.67.25.87.55.85.65-.02.1-.28.49-1.18.74a9.53 9.53 0 01-2.56.32 8.85 8.85 0 01-3-.47c-.62-.23-.84-.52-.83-.63-.04-.13.29-.51 1.16-.76zm-4.31 5a9.59 9.59 0 012.56-.32 9.09 9.09 0 013.05.47c.66.25.87.55.84.65-.03.1-.28.49-1.17.74a9.58 9.58 0 01-2.57.31 8.84 8.84 0 01-3-.46c-.63-.24-.84-.52-.84-.63-.07-.08.24-.47 1.13-.71zm-8.22-2.89c0-.12.29-.49 1.17-.73a9.15 9.15 0 012.56-.32 9 9 0 013 .46c.67.25.87.55.85.64-.02.09-.28.5-1.17.75a9.53 9.53 0 01-2.56.32 9.09 9.09 0 01-3-.47c-.63-.24-.84-.52-.84-.62zm-5 2.61l4.43-.63v1.37c0 .56.51.92 1.22 1.2a9.56 9.56 0 003.27.51 10.54 10.54 0 002.58-.31v2.21c0 .56.5.91 1.22 1.2a9.55 9.55 0 003.26.5 9.77 9.77 0 002.73-.34c.94-.29 1.56-.66 1.6-1.3v-3.41a10.17 10.17 0 002.54-.3v2.23c0 .56.5.91 1.22 1.19a9.25 9.25 0 003.26.52 10.2 10.2 0 002.73-.35c.93-.28 1.55-.65 1.59-1.31v-1.91.37l5 2.71-23 3.23zm37.22 22.3c-.08.06-23.37 3.28-23.37 3.28V50.27l23.37-3.28-.04 17.64z" fill="#c91a20"/><path d="M86.238 21.5c0-.56-.5-.92-1.22-1.2a9.54 9.54 0 00-3.26-.51 9.81 9.81 0 00-2.73.35c-.93.27-1.54.65-1.59 1.29v1.38l-5.42.76h-.1v18.27a.3.3 0 000 .13.1.1 0 000 .05l3.83 2.09 10.69 5.81a.28.28 0 00.13 0l24-3.37h.1v-18.3a.25.25 0 000-.12l-6-3.29V23.7c0-.56-.5-.91-1.23-1.2a9.47 9.47 0 00-3.26-.5h-.72l-1.85-1v-.93c0-.56-.51-.92-1.22-1.2a9.83 9.83 0 00-3.26-.51 10.15 10.15 0 00-2.73.34c-.93.29-1.55.66-1.59 1.3v1.19l-2.54.36" fill="#eb5859"/><path d="M110.838 28.41a.25.25 0 000-.12l-6-3.29v-1.14c0-.56-.5-.91-1.23-1.2a9.47 9.47 0 00-3.26-.5h-.72l-1.85-1v.67l.83.45q-.43.07-.84.18v-2.23c0-.56-.51-.92-1.22-1.2a9.83 9.83 0 00-3.26-.51 10.15 10.15 0 00-2.73.34c-.93.29-1.55.66-1.59 1.3v1.19l-2.54.36v.6l2.54-.35v1.52a9.78 9.78 0 00-2.68.34h.14v-2.24c0-.56-.5-.92-1.22-1.2a9.54 9.54 0 00-3.26-.51 9.81 9.81 0 00-2.73.35c-.93.27-1.54.65-1.59 1.29v1.38l-5.42.76h-.1v18.27a.3.3 0 000 .13.1.1 0 000 .05l3.83 2.09L86.628 50a.28.28 0 00.13 0l24-3.37h.1v-18.3zm-10.68-5.8a9.28 9.28 0 013 .46c.66.25.87.56.84.65-.03.09-.27.49-1.16.74a9.21 9.21 0 01-2.57.33 8.77 8.77 0 01-3-.48c-.64-.23-.84-.51-.84-.62 0-.12.28-.49 1.17-.74a9.51 9.51 0 012.56-.34zm-9.6-3.32a10 10 0 012.56-.32 9.07 9.07 0 013 .47c.67.25.87.55.85.65-.02.1-.28.49-1.18.74a9.55 9.55 0 01-2.56.31 8.63 8.63 0 01-3-.46c-.62-.23-.84-.52-.83-.63-.04-.11.29-.51 1.16-.76zm-4.31 5a9.59 9.59 0 012.56-.32 9.09 9.09 0 013.05.47c.66.25.87.55.84.65-.03.1-.28.49-1.17.74a9.58 9.58 0 01-2.57.31 8.84 8.84 0 01-3-.46c-.63-.24-.84-.52-.84-.63-.07-.11.24-.47 1.13-.71zm-8.22-2.89c0-.12.29-.49 1.17-.73a9.15 9.15 0 012.56-.32 9 9 0 013 .46c.67.25.87.55.85.65-.02.1-.28.49-1.17.74a9.53 9.53 0 01-2.56.32 9.09 9.09 0 01-3-.47c-.63-.24-.84-.52-.84-.62zm-5 2.61l4.43-.63v1.37c0 .56.51.92 1.22 1.2a9.56 9.56 0 003.27.51 10.54 10.54 0 002.58-.31v2.21c0 .56.5.91 1.22 1.2a9.8 9.8 0 003.26.5 10.15 10.15 0 002.73-.34c.94-.29 1.56-.66 1.6-1.3v-3.41a10.17 10.17 0 002.54-.3v2.23c0 .56.5.91 1.22 1.19a9.25 9.25 0 003.26.52 10.2 10.2 0 002.73-.35c.93-.28 1.55-.65 1.59-1.31v-1.91.37l5 2.71-23 3.23zm37.22 22.3c-.08.06-23.37 3.28-23.37 3.28V32l23.37-3.29-.04 17.65z" fill="#c91a20"/><path d="M86.238 3.23c0-.55-.5-.91-1.22-1.19a9.54 9.54 0 00-3.26-.51 9.81 9.81 0 00-2.73.35c-.93.27-1.54.65-1.59 1.29v1.38l-5.42.76h-.1v18.27a.3.3 0 000 .13l3.83 2.09 10.69 5.81a.5.5 0 00.13 0l24-3.37h.1V9.95a.25.25 0 000-.12v-.06l-6-3.29V5.34c0-.56-.5-.91-1.23-1.2a9.71 9.71 0 00-3.26-.5h-.72l-1.85-1v-.93c0-.56-.51-.92-1.22-1.2a9.83 9.83 0 00-3.26-.51 10.15 10.15 0 00-2.73.34c-.93.29-1.55.66-1.59 1.3v1.19l-2.54.36" fill="#eb5859"/><path d="M110.838 10.14a.25.25 0 000-.12v-.06l-6-3.29V5.53c0-.56-.5-.91-1.23-1.2a9.71 9.71 0 00-3.26-.5h-.72l-1.85-1v.67l.83.45a7.34 7.34 0 00-.84.18V1.9c0-.56-.51-.92-1.22-1.2a9.83 9.83 0 00-3.26-.51 10.15 10.15 0 00-2.73.34c-.93.29-1.55.66-1.59 1.3v1.19l-2.54.36v.6l2.54-.36v1.53a9.78 9.78 0 00-2.68.34h.14V3.25c0-.55-.5-.91-1.22-1.19a9.54 9.54 0 00-3.26-.51 9.81 9.81 0 00-2.73.35c-.93.27-1.54.65-1.59 1.29v1.38l-5.42.76h-.1V23.6a.3.3 0 000 .13l3.83 2.09 10.69 5.81a.5.5 0 00.13 0l24-3.37h.1V9.97zm-10.68-5.8a9 9 0 013 .47c.66.25.87.55.84.64-.03.09-.27.5-1.16.74a9.21 9.21 0 01-2.57.33 8.77 8.77 0 01-3-.48c-.64-.23-.84-.51-.84-.62 0-.12.28-.49 1.17-.74a9.51 9.51 0 012.56-.34zm-9.6-3.32a10 10 0 012.56-.32 9.07 9.07 0 013 .47c.67.25.87.56.85.65-.02.09-.28.49-1.18.74a9.53 9.53 0 01-2.56.32 8.85 8.85 0 01-3-.47c-.62-.23-.84-.52-.83-.63-.04-.13.29-.51 1.16-.76zm-4.31 5a9.59 9.59 0 012.56-.32 9.09 9.09 0 013.05.47c.66.25.87.55.84.65-.03.1-.28.49-1.17.74a9.58 9.58 0 01-2.57.31 8.84 8.84 0 01-3-.46c-.63-.24-.84-.52-.84-.63-.07-.09.24-.47 1.13-.71zm-8.22-2.89c0-.12.29-.49 1.17-.73a9.15 9.15 0 012.56-.32 9 9 0 013 .46c.67.25.87.55.85.64-.02.09-.28.5-1.17.75a9.53 9.53 0 01-2.56.32 9.09 9.09 0 01-3-.47c-.63-.24-.84-.52-.84-.62zm-5 2.61l4.43-.63v1.37c0 .56.51.92 1.22 1.2a9.56 9.56 0 003.27.51 10.54 10.54 0 002.58-.31v2.21c0 .56.5.91 1.22 1.2a9.55 9.55 0 003.26.5 10.15 10.15 0 002.73-.34c.94-.29 1.56-.66 1.6-1.3V6.79a10.17 10.17 0 002.54-.3v2.23c0 .56.5.91 1.22 1.19a9.25 9.25 0 003.26.52 10.2 10.2 0 002.73-.35c.93-.28 1.55-.65 1.59-1.31V6.85v.37l5 2.72-23 3.23zm37.22 22.3c-.08.06-23.37 3.28-23.37 3.28V13.73l23.37-3.29-.04 17.65z" fill="#c91a20"/><path d="M62.258 97.94c0-.56-.5-.91-1.22-1.2a9.5 9.5 0 00-3.26-.51 9.74 9.74 0 00-2.72.35c-.93.28-1.55.65-1.6 1.3v1.39l-5.41.76a.35.35 0 00-.11 0v18.31a.51.51 0 000 .13l3.75 2.47 10.7 5.82h.13l24-3.37a.25.25 0 00.11 0 .19.19 0 000-.07v-18.23a.22.22 0 000-.12l-6-3.29v-1.13c0-.56-.5-.92-1.23-1.2a9.44 9.44 0 00-3.25-.51h-.72l-1.86-1v-.94c0-.56-.5-.91-1.22-1.2a10.74 10.74 0 00-6-.16c-.93.28-1.55.65-1.59 1.29v1.21l-2.55.36" fill="#eb5859"/><path d="M86.858 104.88a.22.22 0 000-.12l-6-3.29v-1.13c0-.56-.5-.92-1.23-1.2a9.44 9.44 0 00-3.25-.51h-.72l-1.86-1v.66l.83.45c-.29.05-.57.11-.83.18v-2.23c0-.56-.5-.91-1.22-1.2a10.74 10.74 0 00-6-.16c-.93.28-1.55.65-1.59 1.29v1.21l-2.55.36v.6l2.55-.36v1.53a9.79 9.79 0 00-2.69.35h.14v-2.37c0-.56-.5-.91-1.22-1.2a9.5 9.5 0 00-3.26-.51 9.74 9.74 0 00-2.72.35c-.93.28-1.55.65-1.6 1.3v1.39l-5.41.76a.35.35 0 00-.11 0v18.31a.51.51 0 000 .13l3.57 2.47 10.7 5.82h.13l24-3.37a.25.25 0 00.11 0 .19.19 0 000-.07v-18.23zm-10.67-5.81a9 9 0 013 .47c.67.25.87.55.84.65-.03.1-.27.49-1.16.74a9.53 9.53 0 01-2.56.32 9.05 9.05 0 01-3.05-.47c-.63-.24-.84-.52-.84-.62 0-.11.28-.49 1.17-.73a9.13 9.13 0 012.6-.36zm-9.61-3.31a9.52 9.52 0 012.56-.33 8.83 8.83 0 013 .48c.66.24.86.55.84.64-.02.09-.28.5-1.17.74a9.56 9.56 0 01-2.57.32 8.84 8.84 0 01-3-.46c-.63-.24-.84-.53-.84-.64-.02-.13.29-.51 1.18-.75zm-4.3 5a9.9 9.9 0 012.56-.32 9.07 9.07 0 013 .47c.67.25.87.55.84.65-.03.1-.28.49-1.17.74a9.53 9.53 0 01-2.56.32 8.85 8.85 0 01-3-.47c-.63-.23-.84-.52-.83-.63-.04-.09.27-.47 1.16-.72zm-8.23-2.89c0-.12.29-.5 1.18-.74a9.51 9.51 0 012.55-.32 9.07 9.07 0 013.05.46c.66.25.87.55.84.65-.03.1-.27.5-1.16.74a9.27 9.27 0 01-2.57.32 8.75 8.75 0 01-3-.47c-.64-.23-.85-.51-.85-.62zm-5 2.61l4.43-.62v1.36c0 .56.51.91 1.23 1.19a9.5 9.5 0 003.26.51 10.69 10.69 0 002.59-.31v2.21c0 .56.5.91 1.22 1.2a9.49 9.49 0 003.25.5 10.24 10.24 0 002.74-.33c.93-.3 1.55-.67 1.59-1.31v-3.35a10.3 10.3 0 002.55-.31v2.21c0 .56.5.92 1.23 1.2a9.4 9.4 0 003.25.51 10.63 10.63 0 002.73-.34c.94-.29 1.56-.66 1.59-1.31v-1.92.37l5 2.72-23.02 3.28zm37.23 22.31c-.09.05-23.37 3.27-23.37 3.27v-17.59l23.37-3.28s-.05 17.52-.04 17.64z" fill="#c91a20"/><path d="M38.308 101.34c0-.56-.5-.91-1.22-1.2a9.57 9.57 0 00-3.27-.5 9.74 9.74 0 00-2.72.35c-.93.27-1.54.65-1.59 1.29v1.38l-5.41.76h-.11v18.26a.51.51 0 000 .13.1.1 0 000 .05l3.83 2.09 10.69 5.81a.28.28 0 00.12 0l24-3.37a.2.2 0 00.11 0v-18.26a.5.5 0 000-.12l-6-3.3v-1.14c0-.56-.49-.91-1.22-1.2a9.5 9.5 0 00-3.26-.51h-.72l-1.85-1v-.92c0-.55-.51-.91-1.23-1.19a9.26 9.26 0 00-3.26-.51 10.08 10.08 0 00-2.72.34c-.93.29-1.55.65-1.6 1.29v1.19l-2.54.36" fill="#eb5859"/><path d="M62.908 108.25a.5.5 0 000-.12l-6-3.3v-1.14c0-.56-.49-.91-1.22-1.2a9.5 9.5 0 00-3.26-.51h-.72l-1.85-1v.66l.84.46c-.29.05-.57.1-.84.17v-2.23c0-.55-.51-.91-1.23-1.19a9.26 9.26 0 00-3.26-.51 10.08 10.08 0 00-2.72.34c-.93.29-1.55.65-1.6 1.29v1.19l-2.54.36v.6l2.55-.36v1.53a10.25 10.25 0 00-2.69.35h.14v-2.23c0-.56-.5-.91-1.22-1.2a9.57 9.57 0 00-3.27-.5 9.74 9.74 0 00-2.72.35c-.93.27-1.54.65-1.59 1.29v1.38l-5.41.76h-.11v18.26a.51.51 0 000 .13.1.1 0 000 .05l3.83 2.08 10.69 5.81a.28.28 0 00.12 0l24-3.37a.2.2 0 00.11 0v-18.26zm-10.68-5.8a9 9 0 013 .46c.66.25.86.55.84.65-.02.1-.27.49-1.16.74a9.27 9.27 0 01-2.57.32 9.09 9.09 0 01-3-.47c-.63-.23-.84-.51-.84-.62 0-.12.29-.5 1.18-.74a9.51 9.51 0 012.55-.34zm-9.61-3.32a9.59 9.59 0 012.56-.32 9.09 9.09 0 013 .47c.66.25.87.55.84.64-.03.09-.28.5-1.17.75a10 10 0 01-2.56.31 8.86 8.86 0 01-3.05-.46c-.63-.24-.84-.52-.84-.63.02-.14.29-.52 1.22-.76zm-4.3 5a9.53 9.53 0 012.56-.32 9 9 0 013 .46c.67.25.87.56.85.65-.02.09-.28.5-1.17.74a9.66 9.66 0 01-2.57.32 8.56 8.56 0 01-3-.47c-.63-.23-.84-.52-.84-.63-.03-.08.28-.46 1.17-.7zm-8.22-2.89c0-.12.28-.49 1.17-.74a9.51 9.51 0 012.55-.32 9.28 9.28 0 013 .46c.66.26.87.56.84.65-.03.09-.27.5-1.16.74a9.17 9.17 0 01-2.57.32 9 9 0 01-3-.46c-.64-.24-.84-.52-.84-.62zm-5.05 2.6l4.44-.62v1.37c0 .56.5.92 1.22 1.19a9.26 9.26 0 003.26.51 10.11 10.11 0 002.59-.31v2.21c0 .56.5.92 1.22 1.2a9.5 9.5 0 003.26.51 10.15 10.15 0 002.73-.34c.94-.29 1.55-.66 1.6-1.31v-3.35a10.74 10.74 0 002.55-.3v2.23c0 .56.5.92 1.22 1.2a9.46 9.46 0 003.26.51 10.21 10.21 0 002.73-.34c.93-.29 1.55-.66 1.59-1.31v-1.55l5 2.72-23 3.23zm37.23 22.31c-.08.06-23.37 3.27-23.37 3.27v-17.59l23.37-3.28s-.01 17.54 0 17.65z" fill="#c91a20"/><path d="M14.338 104.7c0-.56-.5-.91-1.22-1.2a9.55 9.55 0 00-3.26-.5 9.77 9.77 0 00-2.73.34c-.93.28-1.54.66-1.59 1.29v1.39l-5.42.76h-.11v18.25a.28.28 0 000 .13l3.83 2.09 10.69 5.81a.28.28 0 00.13 0l24-3.37a.3.3 0 00.11 0 .14.14 0 000-.07v-18.25a.23.23 0 000-.12l-6-3.29v-1.02c0-.56-.5-.92-1.22-1.2a9.56 9.56 0 00-3.27-.51h-.72l-1.85-1v-.94c0-.56-.5-.91-1.22-1.19a9.57 9.57 0 00-3.26-.52 9.76 9.76 0 00-2.73.35c-.93.28-1.55.65-1.6 1.29v1.2l-2.55.35" fill="#eb5859"/><path d="M38.938 111.61a.23.23 0 000-.12l-6-3.29v-1.26c0-.56-.5-.92-1.22-1.2a9.56 9.56 0 00-3.27-.51h-.72l-1.85-1v.71l.83.45q-.43.08-.84.18v-2.23c0-.56-.5-.91-1.22-1.19a9.57 9.57 0 00-3.26-.52 9.76 9.76 0 00-2.73.35c-.93.28-1.55.65-1.6 1.29v1.2l-2.55.35v.6l2.54-.35v1.54a10.2 10.2 0 00-2.69.34h.13v-2.23c0-.56-.5-.91-1.22-1.2a9.55 9.55 0 00-3.26-.5 9.77 9.77 0 00-2.73.34c-.93.28-1.54.66-1.59 1.29v1.39l-5.42.76h-.11v18.25a.28.28 0 000 .13l3.83 2.09 10.69 5.81a.28.28 0 00.13 0l24-3.37a.3.3 0 00.11 0 .14.14 0 000-.07v-18.25zm-10.68-5.8a9 9 0 013 .46c.66.25.87.55.85.65-.02.1-.28.49-1.17.74a9.61 9.61 0 01-2.57.32 9 9 0 01-3-.47c-.64-.24-.84-.52-.84-.62 0-.12.28-.49 1.17-.74a9.53 9.53 0 012.56-.34zm-9.6-3.32a9.48 9.48 0 012.56-.32 8.79 8.79 0 013 .47c.67.25.87.55.85.64-.02.09-.28.5-1.17.74a9.66 9.66 0 01-2.57.32 9.11 9.11 0 01-3-.46c-.63-.24-.84-.53-.83-.63-.04-.14.27-.52 1.19-.76zm-4.31 5a10 10 0 012.56-.32 9.09 9.09 0 013 .47c.66.25.86.55.84.65-.02.1-.28.49-1.17.74a9.53 9.53 0 01-2.56.32 9.09 9.09 0 01-3.05-.47c-.63-.23-.84-.52-.84-.63.02-.09.33-.47 1.22-.72zm-8.22-2.89c0-.12.29-.5 1.17-.74a9.53 9.53 0 012.56-.32 9.26 9.26 0 013 .46c.67.25.87.56.85.65-.02.09-.28.49-1.17.74a9.15 9.15 0 01-2.56.32 8.85 8.85 0 01-3-.47c-.63-.24-.84-.51-.84-.62zm-5 2.61l4.44-.62v1.36c0 .55.51.91 1.22 1.19a9.28 9.28 0 003.27.51 10.08 10.08 0 002.58-.31v2.21c0 .56.49.91 1.21 1.2a9.55 9.55 0 003.26.5 9.77 9.77 0 002.73-.34c.94-.28 1.56-.65 1.6-1.3v-3.36a10.58 10.58 0 002.54-.31v2.24c0 .56.5.92 1.22 1.2a9.5 9.5 0 003.26.51 10.2 10.2 0 002.73-.35c.93-.28 1.55-.65 1.59-1.3v-1.92.37l5 2.72-23 3.23zm37.23 22.31c-.08 0-23.37 3.27-23.37 3.27V115.2l23.37-3.28-.05 17.64z" fill="#c91a20"/><path d="M14.338 86.43c0-.56-.5-.91-1.22-1.2a9.55 9.55 0 00-3.26-.5 9.77 9.77 0 00-2.73.34c-.93.28-1.54.65-1.59 1.29v1.39l-5.42.76h-.11v.11c0 .06 0 0 0 0v18.19a.28.28 0 000 .13l3.83 2.09 10.69 5.81a.28.28 0 00.13 0l24-3.37a.3.3 0 00.11 0 .11.11 0 000-.06v-18.2a.23.23 0 000-.12v-.05l-6-3.29v-1.14c0-.56-.5-.92-1.22-1.2a9.56 9.56 0 00-3.27-.51h-.72l-1.85-1v-.94c0-.55-.5-.91-1.22-1.2a9.83 9.83 0 00-3.26-.51 10.57 10.57 0 00-2.73.34c-.93.29-1.55.66-1.6 1.3v1.2l-2.55.35" fill="#eb5859"/><path d="M38.938 93.34a.23.23 0 000-.12v-.05l-6-3.29v-1.14c0-.56-.5-.92-1.22-1.2a9.56 9.56 0 00-3.27-.51h-.72l-1.85-1v.66l.83.46a7.34 7.34 0 00-.84.17v-2.23c0-.55-.5-.91-1.22-1.2a9.83 9.83 0 00-3.26-.51 10.57 10.57 0 00-2.73.34c-.93.29-1.55.66-1.6 1.3v1.2l-2.55.35v.61l2.54-.36v1.54a9.8 9.8 0 00-2.69.34h.13v-2.23c0-.56-.5-.91-1.22-1.2a9.55 9.55 0 00-3.26-.5 9.77 9.77 0 00-2.73.34c-.93.28-1.54.65-1.59 1.29v1.39l-5.42.76h-.11v.11c0 .06 0 0 0 0v18.19a.28.28 0 000 .13l3.83 2.09 10.69 5.81a.28.28 0 00.13 0l24-3.37a.3.3 0 00.11 0 .19.19 0 000-.07v-18.2zm-10.68-5.81a9 9 0 013 .47c.66.25.87.55.85.65-.02.1-.28.49-1.17.74a9.61 9.61 0 01-2.57.32 9 9 0 01-3-.47c-.64-.24-.84-.52-.84-.62 0-.12.28-.49 1.17-.73a9.11 9.11 0 012.56-.36zm-9.6-3.31a9.48 9.48 0 012.56-.32 8.79 8.79 0 013 .47c.67.25.87.55.85.64-.02.09-.28.5-1.17.74a9.66 9.66 0 01-2.57.32 8.61 8.61 0 01-3-.47c-.63-.23-.84-.51-.83-.62-.04-.14.27-.52 1.19-.76zm-4.31 5a10 10 0 012.56-.32 9.09 9.09 0 013 .47c.66.25.86.55.84.65-.02.1-.28.49-1.17.74a9.55 9.55 0 01-2.56.31 8.63 8.63 0 01-3.05-.46c-.63-.24-.84-.52-.84-.63.02-.04.33-.47 1.22-.72zm-8.22-2.89c0-.12.29-.5 1.17-.74a9.53 9.53 0 012.56-.32 9.26 9.26 0 013 .46c.67.25.87.56.85.65-.02.09-.28.49-1.17.74a9.15 9.15 0 01-2.56.32 8.85 8.85 0 01-3-.47c-.63-.23-.84-.51-.84-.62zm-5 2.61l4.44-.62v1.36c0 .55.51.91 1.22 1.19a9.52 9.52 0 003.27.51 10.08 10.08 0 002.58-.31v2.21c0 .56.49.92 1.21 1.2a9.55 9.55 0 003.26.5 9.77 9.77 0 002.73-.34c.94-.28 1.56-.65 1.6-1.3v-3.36a10.1 10.1 0 002.54-.31v2.27c0 .56.5.92 1.22 1.19a9.25 9.25 0 003.26.52 10.2 10.2 0 002.73-.35c.93-.28 1.55-.65 1.59-1.3v-1.92.37l5 2.72-23 3.22zm37.23 22.31c-.08 0-23.37 3.27-23.37 3.27V96.93l23.37-3.28-.05 17.64z" fill="#c91a20"/><path d="M14.338 68.16c0-.56-.5-.91-1.22-1.2a9.54 9.54 0 00-3.26-.51 9.76 9.76 0 00-2.73.35c-.93.28-1.54.65-1.59 1.29v1.39l-5.42.76h-.11v18.25a.28.28 0 000 .13l3.83 2.09 10.69 5.81a.5.5 0 00.13 0l24-3.37h.11a.19.19 0 000-.07V74.89a.25.25 0 000-.12v-.05l-6-3.29v-1.14c0-.56-.5-.92-1.22-1.2a9.56 9.56 0 00-3.27-.51h-.72l-1.85-1v-.94c0-.56-.5-.91-1.22-1.2a9.83 9.83 0 00-3.26-.51 10.14 10.14 0 00-2.73.35c-.93.28-1.55.65-1.6 1.29v1.37l-2.55.35" fill="#eb5859"/><path d="M38.938 75.07a.25.25 0 000-.12v-.05l-6-3.29v-1.14c0-.56-.5-.92-1.22-1.2a9.56 9.56 0 00-3.27-.51h-.72l-1.85-1v.66l.83.45q-.43.07-.84.18v-2.23c0-.56-.5-.91-1.22-1.2a9.83 9.83 0 00-3.26-.51 10.14 10.14 0 00-2.73.35c-.93.28-1.55.65-1.6 1.29v1.19l-2.55.35v.61l2.54-.36v1.54a9.8 9.8 0 00-2.69.34h.13v-2.23c0-.56-.5-.91-1.22-1.2a9.54 9.54 0 00-3.26-.51 9.76 9.76 0 00-2.73.35c-.93.28-1.54.65-1.59 1.29v1.39l-5.42.76h-.11v18.25a.28.28 0 000 .13l3.83 2.09 10.69 5.81a.5.5 0 00.13 0l24-3.37h.11a.19.19 0 000-.07V74.92zm-10.68-5.8a9 9 0 013 .46c.66.25.87.55.85.65-.02.1-.28.49-1.17.74a9.61 9.61 0 01-2.57.32 9 9 0 01-3-.47c-.64-.24-.84-.52-.84-.62 0-.12.28-.49 1.17-.74a9.53 9.53 0 012.56-.34zm-9.57-3.33a9.48 9.48 0 012.56-.32 9 9 0 013 .46c.67.26.87.56.85.65-.02.09-.28.5-1.17.74a9.66 9.66 0 01-2.57.32 9.11 9.11 0 01-3-.46c-.63-.24-.84-.53-.83-.63-.07-.13.24-.51 1.16-.76zm-4.31 5a9.59 9.59 0 012.56-.32 9.09 9.09 0 013 .47c.66.25.86.55.84.65-.02.1-.28.49-1.17.74a9.53 9.53 0 01-2.56.32 8.85 8.85 0 01-3.05-.47c-.63-.24-.84-.52-.84-.63-.01-.08.3-.46 1.19-.71zm-8.22-2.89c0-.12.29-.5 1.17-.74a9.53 9.53 0 012.56-.32 9 9 0 013 .46c.67.25.87.55.85.65-.02.1-.28.49-1.17.74a9.53 9.53 0 01-2.56.32 8.85 8.85 0 01-3-.47c-.63-.23-.84-.51-.84-.62zm-5 2.61l4.44-.63v1.37c0 .55.51.91 1.22 1.19a9.28 9.28 0 003.27.51 10.08 10.08 0 002.58-.31V75c0 .56.49.91 1.21 1.2a9.54 9.54 0 003.26.51 9.76 9.76 0 002.73-.35c.94-.28 1.56-.65 1.6-1.3V71.7a.09.09 0 010-.05 9.67 9.67 0 002.54-.3v2.24c0 .56.5.92 1.22 1.19a9.25 9.25 0 003.26.52 9.81 9.81 0 002.73-.35c.93-.28 1.55-.65 1.59-1.3v-1.92.37l5 2.72-23 3.23zm37.23 22.31c-.08 0-23.37 3.27-23.37 3.27V78.65l23.37-3.28-.08 17.65z" fill="#c91a20"/><path d="M14.338 49.88c0-.56-.5-.91-1.22-1.2a9.55 9.55 0 00-3.26-.5 9.77 9.77 0 00-2.73.34c-.93.28-1.54.65-1.59 1.29v1.39l-5.42.75h-.11V70.2a.28.28 0 000 .13l3.83 2.09 10.69 5.81a.28.28 0 00.13 0l24-3.37a.19.19 0 00.11 0 .14.14 0 000-.07V56.83a.23.23 0 000-.12.1.1 0 000-.05l-6-3.29v-1.14c0-.56-.5-.92-1.22-1.2a9.56 9.56 0 00-3.27-.51h-.72l-1.85-1v-.94c0-.56-.5-.91-1.22-1.2a9.83 9.83 0 00-3.26-.51 10.15 10.15 0 00-2.73.34c-.93.29-1.55.66-1.6 1.3v1.2l-2.55.35" fill="#eb5859"/><path d="M38.938 56.8a.23.23 0 000-.12.1.1 0 000-.05l-6-3.29V52.2c0-.56-.5-.92-1.22-1.2a9.56 9.56 0 00-3.27-.51h-.72l-1.85-1v.66l.83.45q-.43.07-.84.18v-2.23c0-.56-.5-.91-1.22-1.2a9.83 9.83 0 00-3.26-.51 10.15 10.15 0 00-2.73.34c-.93.29-1.55.66-1.6 1.3v1.2l-2.55.35v.61l2.54-.36v1.54a9.8 9.8 0 00-2.69.34h.13v-2.24c0-.56-.5-.91-1.22-1.2a9.55 9.55 0 00-3.26-.5 9.77 9.77 0 00-2.73.34c-.93.28-1.54.65-1.59 1.29v1.39l-5.42.75h-.11v18.25a.28.28 0 000 .13l3.83 2.09 10.69 5.81a.28.28 0 00.13 0l24-3.37a.19.19 0 00.11 0 .14.14 0 000-.07v-18zm-10.68-5.81a9 9 0 013 .47c.66.25.87.55.85.65-.02.1-.28.49-1.17.74a9.61 9.61 0 01-2.57.32 9 9 0 01-3-.47c-.64-.24-.84-.52-.84-.62 0-.12.28-.49 1.17-.74a9.51 9.51 0 012.56-.35zm-9.6-3.31a9.48 9.48 0 012.56-.32 9 9 0 013 .46c.67.25.87.56.85.65-.02.09-.28.5-1.17.74a9.66 9.66 0 01-2.57.32 9.11 9.11 0 01-3-.46c-.63-.24-.84-.53-.83-.63-.04-.14.27-.5 1.19-.76zm-4.31 5a9.59 9.59 0 012.56-.32 9.09 9.09 0 013 .47c.66.25.86.55.84.65-.02.1-.28.49-1.17.74a9.53 9.53 0 01-2.56.32 9.09 9.09 0 01-3.05-.47c-.63-.24-.84-.52-.84-.63.02-.09.33-.5 1.22-.72zm-8.22-2.89c0-.12.29-.5 1.17-.74a9.53 9.53 0 012.56-.32 9 9 0 013 .46c.67.25.87.55.85.65-.02.1-.28.49-1.17.74a10.25 10.25 0 01-5.61-.15c-.63-.23-.84-.51-.84-.62zm-5 2.61l4.44-.63v1.37c0 .55.51.91 1.22 1.19a9.52 9.52 0 003.27.51 10.54 10.54 0 002.58-.31v2.21c0 .56.49.91 1.21 1.2a9.55 9.55 0 003.26.5 9.77 9.77 0 002.73-.34c.94-.29 1.56-.65 1.6-1.3v-3.36a.09.09 0 010-.05 9.67 9.67 0 002.54-.3v2.24c0 .56.5.92 1.22 1.19a9.25 9.25 0 003.26.52 10.2 10.2 0 002.73-.35c.93-.28 1.55-.65 1.59-1.3v-1.92.47l5 2.72-23 3.23zm37.23 22.3c-.08.06-23.37 3.28-23.37 3.28V60.39l23.37-3.28-.05 17.63z" fill="#c91a20"/><path d="M14.338 31.61c0-.56-.5-.92-1.22-1.2a9.54 9.54 0 00-3.26-.51 9.76 9.76 0 00-2.73.35c-.93.28-1.54.65-1.59 1.29v1.4l-5.42.76h-.11v18.25a.28.28 0 000 .13l3.83 2.09 10.69 5.81a.28.28 0 00.13 0l24-3.37h.11a.11.11 0 000-.06V38.53a.23.23 0 000-.12l-6-3.29v-1.28c0-.55-.5-.91-1.22-1.2a9.81 9.81 0 00-3.27-.5h-.72l-1.85-1v-.94c0-.56-.5-.91-1.22-1.2a10.74 10.74 0 00-6-.16c-.93.28-1.55.65-1.6 1.29v1.2l-2.55.35" fill="#eb5859"/><path d="M38.938 38.53a.23.23 0 000-.12l-6-3.29v-1.28c0-.55-.5-.91-1.22-1.2a9.81 9.81 0 00-3.27-.5h-.72l-1.85-1v.66l.83.45q-.43.07-.84.18V30.2c0-.56-.5-.91-1.22-1.2a10.74 10.74 0 00-6-.16c-.93.28-1.55.65-1.6 1.29v1.2l-2.55.35v.6l2.54-.35v1.54a9.8 9.8 0 00-2.69.34h.13v-2.24c0-.56-.5-.92-1.22-1.2a9.54 9.54 0 00-3.26-.51 9.76 9.76 0 00-2.73.35c-.93.28-1.54.65-1.59 1.29v1.44l-5.42.76h-.11v18.25a.28.28 0 000 .13l3.83 2.09 10.69 5.81a.28.28 0 00.13 0l24-3.37h.11a.19.19 0 000-.07V38.53zm-10.68-5.8a9 9 0 013 .46c.66.25.87.55.85.64-.02.09-.28.5-1.17.75a9.61 9.61 0 01-2.57.32 9 9 0 01-3-.47c-.64-.24-.84-.52-.84-.63 0-.12.28-.49 1.17-.74a9.53 9.53 0 012.56-.33zm-9.6-3.32a9.48 9.48 0 012.56-.32 9 9 0 013 .46c.67.25.87.56.85.65-.02.09-.28.49-1.17.74a9.66 9.66 0 01-2.57.32 9.11 9.11 0 01-3-.46c-.63-.24-.84-.53-.83-.63-.04-.14.27-.52 1.19-.76zm-4.31 5a9.59 9.59 0 012.56-.32 9.09 9.09 0 013 .47c.66.25.86.55.84.65-.02.1-.28.49-1.17.74a9.55 9.55 0 01-2.56.31 8.86 8.86 0 01-3.05-.46c-.63-.24-.84-.52-.84-.63.02-.09.33-.47 1.22-.72zm-8.22-2.89c0-.12.29-.49 1.17-.73a9.53 9.53 0 012.56-.32 9 9 0 013 .46c.67.25.87.55.85.65-.02.1-.28.49-1.17.74a9.53 9.53 0 01-2.56.32 8.85 8.85 0 01-3-.47c-.63-.24-.84-.51-.84-.62zm-5 2.61l4.44-.63v1.44c0 .55.51.91 1.22 1.19a9.52 9.52 0 003.27.51 10.08 10.08 0 002.58-.31v2.21c0 .56.49.91 1.21 1.2a9.55 9.55 0 003.26.5 9.77 9.77 0 002.73-.34c.94-.29 1.56-.65 1.6-1.3v-3.36a10.11 10.11 0 002.54-.3v2.24c0 .56.5.92 1.22 1.19a9.25 9.25 0 003.26.52 10.2 10.2 0 002.73-.35c.93-.28 1.55-.65 1.59-1.3v-1.92.37l5 2.71-23 3.23zm37.23 22.3c-.08.06-23.37 3.28-23.37 3.28V42.12l23.37-3.28-.05 17.63z" fill="#c91a20"/><path d="M14.338 13.34c0-.56-.5-.92-1.22-1.2a9.54 9.54 0 00-3.26-.51 9.76 9.76 0 00-2.73.35c-.93.28-1.54.65-1.59 1.29v1.38l-5.42.77h-.11v18.25a.28.28 0 000 .13l3.83 2.09 10.69 5.81a.5.5 0 00.13 0l24-3.37h.11a.11.11 0 000-.06V20.08a.23.23 0 000-.12l-6-3.29v-1.14c0-.56-.5-.92-1.22-1.21a9.81 9.81 0 00-3.27-.5h-.72l-1.85-1v-.88c0-.56-.5-.91-1.22-1.2a9.83 9.83 0 00-3.26-.51 10.15 10.15 0 00-2.73.34c-.93.29-1.55.66-1.6 1.3v1.2l-2.55.35" fill="#eb5859"/><path d="M38.938 20.26a.23.23 0 000-.12l-6-3.29v-1.14c0-.56-.5-.92-1.22-1.21a9.81 9.81 0 00-3.27-.5h-.72l-1.85-1v.66l.83.45q-.43.08-.84.18v-2.23c0-.56-.5-.91-1.22-1.2a9.83 9.83 0 00-3.26-.51 10.15 10.15 0 00-2.73.34c-.93.29-1.55.66-1.6 1.3v1.2l-2.55.35v.61l2.54-.36v1.54a9.8 9.8 0 00-2.69.34h.13v-2.24c0-.56-.5-.92-1.22-1.2a9.54 9.54 0 00-3.26-.51 9.76 9.76 0 00-2.73.35c-.93.28-1.54.65-1.59 1.29v1.38l-5.42.77h-.11v18.25a.28.28 0 000 .13l3.83 2.09 10.69 5.81a.5.5 0 00.13 0l24-3.37h.11a.11.11 0 000-.06V20.17zm-10.68-5.81a9 9 0 013 .47c.66.25.87.55.85.65-.02.1-.28.49-1.17.74a9.61 9.61 0 01-2.57.32 9 9 0 01-3-.47c-.64-.24-.84-.52-.84-.62 0-.12.28-.49 1.17-.74a9.51 9.51 0 012.56-.35zm-9.6-3.31a9.48 9.48 0 012.56-.32 9 9 0 013 .46c.67.25.87.56.85.65-.02.09-.28.49-1.17.74a9.66 9.66 0 01-2.57.32 8.85 8.85 0 01-3-.47c-.63-.23-.84-.52-.83-.63-.04-.13.27-.51 1.19-.75zm-4.31 5a9.59 9.59 0 012.56-.32 9.09 9.09 0 013 .47c.66.25.86.55.84.65-.02.1-.28.49-1.17.74a9.55 9.55 0 01-2.56.31 8.86 8.86 0 01-3.05-.46c-.63-.24-.84-.52-.84-.63.02-.09.33-.47 1.22-.72zm-8.22-2.89c0-.12.29-.5 1.17-.74a9.53 9.53 0 012.56-.32 9 9 0 013 .46c.67.25.87.55.85.65-.02.1-.28.49-1.17.74a9.53 9.53 0 01-2.56.32 9.09 9.09 0 01-3-.47c-.63-.24-.84-.51-.84-.62zm-5 2.61l4.44-.63v1.37c0 .55.51.91 1.22 1.19a9.52 9.52 0 003.27.51 10.08 10.08 0 002.58-.31v2.21c0 .56.49.91 1.21 1.2a9.55 9.55 0 003.26.5 9.77 9.77 0 002.73-.34c.94-.29 1.56-.65 1.6-1.3V16.9a9.67 9.67 0 002.54-.3v2.24c0 .56.5.92 1.22 1.19a9.25 9.25 0 003.26.52 10.2 10.2 0 002.73-.35c.93-.28 1.55-.65 1.59-1.31v-1.91.37l5 2.72-23 3.22zm37.23 22.3c-.08.06-23.37 3.28-23.37 3.28V23.85l23.37-3.28-.05 17.63z" fill="#c91a20"/><path d="M101.318 102.81c0-.56-.49-.91-1.22-1.2a9.51 9.51 0 00-3.26-.5 9.87 9.87 0 00-2.73.34c-.93.28-1.54.65-1.58 1.29v1.38l-5.42.76h-.1v18.3a.51.51 0 000 .13l3.83 2.09 10.7 5.81a.28.28 0 00.12 0l24-3.37h.11a.19.19 0 000-.07v-18.19a.24.24 0 000-.12l-6-3.29v-1.13c0-.56-.5-.92-1.22-1.21a9.8 9.8 0 00-3.26-.5h-.72l-1.86-1v-.93c0-.56-.5-.91-1.22-1.2a9.83 9.83 0 00-3.26-.51 10.57 10.57 0 00-2.73.34c-.93.29-1.55.66-1.59 1.3v1.19l-2.55.36" fill="#eb5859"/><path d="M125.928 109.73a.24.24 0 000-.12l-6-3.29v-1.28c0-.56-.5-.92-1.22-1.21a9.8 9.8 0 00-3.26-.5h-.72l-1.86-1v.67l.84.45q-.45.08-.84.18v-2.23c0-.56-.5-.91-1.22-1.2a9.83 9.83 0 00-3.26-.51 10.57 10.57 0 00-2.73.34c-.93.29-1.55.66-1.59 1.3v1.19l-2.55.36v.61l2.54-.36v1.54a10.2 10.2 0 00-2.69.34h.14v-2.24c0-.56-.49-.91-1.22-1.2a9.51 9.51 0 00-3.26-.5 9.87 9.87 0 00-2.73.34c-.93.28-1.54.65-1.58 1.29v1.38l-5.42.76h-.1v18.3a.51.51 0 000 .13l3.83 2.09 10.7 5.81a.28.28 0 00.12 0l24-3.37h.11a.19.19 0 000-.07v-18.19zm-10.68-5.8a9 9 0 013 .46c.67.25.87.55.85.65-.02.1-.28.49-1.17.74a9.53 9.53 0 01-2.56.32 9.09 9.09 0 01-3-.47c-.63-.24-.84-.52-.84-.62 0-.12.28-.49 1.17-.74a9.55 9.55 0 012.55-.33zm-9.61-3.32a9.53 9.53 0 012.56-.32 8.75 8.75 0 013 .47c.67.25.87.55.85.64-.02.09-.28.5-1.17.74a9.66 9.66 0 01-2.57.32 9.09 9.09 0 01-3-.46c-.63-.24-.85-.53-.84-.63-.03-.14.28-.52 1.22-.76zm-4.3 5a9.87 9.87 0 012.55-.32 9.09 9.09 0 013 .47c.66.25.87.55.85.65-.02.1-.28.49-1.17.74a9.66 9.66 0 01-2.57.32 9.09 9.09 0 01-3-.47c-.63-.24-.84-.52-.84-.63-.02-.09.28-.43 1.18-.72zm-8.23-2.89c0-.11.29-.49 1.18-.73a9.46 9.46 0 012.55-.32 8.92 8.92 0 013 .46c.67.25.87.55.85.65-.02.1-.28.49-1.16.74a9.27 9.27 0 01-2.57.32 9.09 9.09 0 01-3-.47c-.63-.24-.84-.51-.84-.62zm-5 2.61l4.44-.62v1.33c0 .55.51.91 1.23 1.19a9.46 9.46 0 003.26.51 10.63 10.63 0 002.59-.31v2.21c0 .56.5.91 1.22 1.2a9.49 9.49 0 003.25.5 10.17 10.17 0 002.73-.33c.94-.3 1.56-.67 1.6-1.31v-3.36a10.73 10.73 0 002.55-.31v2.21c0 .56.51.92 1.22 1.2a9.5 9.5 0 003.26.51 10.33 10.33 0 002.74-.35c.93-.28 1.54-.65 1.58-1.3v-1.92.37l5 2.72-23 3.23zm37.23 22.31c-.09 0-23.37 3.27-23.37 3.27v-17.59l23.37-3.28s-.05 17.52-.04 17.64z" fill="#c91a20"/><path d="M101.318 84.54c0-.56-.49-.92-1.22-1.2a9.5 9.5 0 00-3.26-.51 9.86 9.86 0 00-2.73.35c-.93.28-1.54.65-1.58 1.29v1.38l-5.42.77a.19.19 0 00-.1 0v18.31a.51.51 0 000 .13l3.83 2.09 10.7 5.81a.28.28 0 00.12 0l24-3.37a.3.3 0 00.11 0 .11.11 0 000-.06v-18.2a.24.24 0 000-.12.07.07 0 000-.05l-6-3.29v-1.14c0-.56-.5-.92-1.22-1.2a9.54 9.54 0 00-3.26-.51h-.72l-1.86-1v-.94c0-.56-.5-.91-1.22-1.2a9.83 9.83 0 00-3.26-.51 10.15 10.15 0 00-2.73.34c-.93.29-1.55.66-1.59 1.3v1.19l-2.55.36" fill="#eb5859"/><path d="M125.928 91.46a.24.24 0 000-.12.07.07 0 000-.05l-6-3.29v-1.14c0-.56-.5-.92-1.22-1.2a9.54 9.54 0 00-3.26-.51h-.72l-1.86-1v.66l.84.46a6.56 6.56 0 00-.84.17v-2.3c0-.56-.5-.91-1.22-1.2a9.83 9.83 0 00-3.26-.51 10.15 10.15 0 00-2.73.34c-.93.29-1.55.66-1.59 1.3v1.19l-2.55.36v.6l2.54-.35v1.54a9.8 9.8 0 00-2.69.34h.14v-2.21c0-.56-.49-.92-1.22-1.2a9.5 9.5 0 00-3.26-.51 9.86 9.86 0 00-2.73.35c-.93.28-1.54.65-1.58 1.29v1.38l-5.42.77a.19.19 0 00-.1 0v18.31a.51.51 0 000 .13l3.83 2.09 10.7 5.81h.12l24-3.37a.3.3 0 00.11 0 .11.11 0 000-.06v-18.2zm-10.68-5.81a9 9 0 013 .47c.67.25.87.55.85.65-.02.1-.28.49-1.17.74a9.53 9.53 0 01-2.56.32 9.09 9.09 0 01-3-.47c-.63-.24-.84-.52-.84-.63 0-.12.28-.49 1.17-.74a9.53 9.53 0 012.55-.34zm-9.56-3.31a9.53 9.53 0 012.56-.32 9 9 0 013 .46c.67.25.87.56.85.65-.02.09-.28.49-1.17.74a9.66 9.66 0 01-2.57.32 8.83 8.83 0 01-3-.47c-.63-.23-.85-.52-.84-.62-.08-.16.23-.52 1.17-.76zm-4.3 5a9.87 9.87 0 012.55-.32 9.09 9.09 0 013 .47c.66.25.87.55.85.65-.02.1-.28.49-1.17.74a9.66 9.66 0 01-2.57.32 9.09 9.09 0 01-3-.47c-.63-.24-.84-.52-.84-.63-.07-.09.23-.47 1.13-.72zm-8.23-2.89c0-.12.29-.5 1.18-.74a9.08 9.08 0 012.55-.32 9.18 9.18 0 013 .46c.67.25.87.56.85.65-.02.09-.28.49-1.16.74a9.66 9.66 0 01-2.57.32 9.09 9.09 0 01-3-.47c-.63-.23-.84-.51-.84-.62zm-5 2.61l4.44-.63v1.34c0 .55.51.91 1.23 1.19a9.46 9.46 0 003.26.51 10.16 10.16 0 002.59-.31v2.21c0 .56.5.91 1.22 1.2a9.49 9.49 0 003.25.5 10.17 10.17 0 002.73-.33c.94-.3 1.56-.66 1.6-1.31v-3.36a10.25 10.25 0 002.55-.3v2.21c0 .56.51.92 1.22 1.19a9.25 9.25 0 003.26.52 10.33 10.33 0 002.74-.35c.93-.28 1.54-.65 1.58-1.31v-1.91.37l5 2.71-23 3.23zm37.23 22.3c-.09.06-23.37 3.28-23.37 3.28V95.05l23.37-3.28s-.1 17.52-.09 17.63z" fill="#c91a20"/><path d="M101.318 66.27c0-.56-.49-.92-1.22-1.2a9.5 9.5 0 00-3.26-.51 9.86 9.86 0 00-2.73.35c-.93.28-1.54.65-1.58 1.29v1.38l-5.42.77a.19.19 0 00-.1 0V86.6a.51.51 0 000 .13l3.83 2.09 10.7 5.81a.56.56 0 00.12 0l24-3.37h.11a.19.19 0 000-.07V73a.24.24 0 000-.12v-.06h-.05l-6-3.29v-1.14c0-.55-.5-.91-1.22-1.2a9.8 9.8 0 00-3.26-.5h-.72l-1.86-1v-.94c0-.56-.5-.91-1.22-1.2a9.83 9.83 0 00-3.26-.51 10.15 10.15 0 00-2.73.34c-.93.29-1.55.66-1.59 1.3v1.19l-2.55.36" fill="#eb5859"/><path d="M125.928 73.19a.24.24 0 000-.12v-.06h-.05l-6-3.29v-1.14c0-.55-.5-.91-1.22-1.2a9.8 9.8 0 00-3.26-.5h-.72l-1.86-1v.66l.84.45q-.45.07-.84.18v-2.23c0-.56-.5-.91-1.22-1.2a9.83 9.83 0 00-3.26-.51 10.15 10.15 0 00-2.73.34c-.93.29-1.55.66-1.59 1.3v1.19l-2.55.36v.6l2.54-.35v1.54a9.8 9.8 0 00-2.69.34h.14v-2.24c0-.56-.49-.92-1.22-1.2a9.5 9.5 0 00-3.26-.51 9.86 9.86 0 00-2.73.35c-.93.28-1.54.65-1.58 1.29v1.38l-5.42.77a.19.19 0 00-.1 0v18.25a.51.51 0 000 .13l3.83 2.09 10.7 5.81a.56.56 0 00.12 0l24-3.37h.11a.19.19 0 000-.07V73.04zm-10.68-5.81a9 9 0 013 .47c.67.25.87.55.85.64-.02.09-.28.5-1.17.75a9.53 9.53 0 01-2.56.32 9.09 9.09 0 01-3-.47c-.63-.24-.84-.52-.84-.63 0-.12.28-.49 1.17-.74a9.53 9.53 0 012.55-.34zm-9.61-3.31a9.52 9.52 0 012.56-.33 9 9 0 013 .47c.67.25.87.56.85.65-.02.09-.28.49-1.17.74a9.66 9.66 0 01-2.57.32 8.83 8.83 0 01-3-.47c-.63-.23-.85-.52-.84-.62-.03-.14.28-.52 1.22-.76zm-4.3 5a9.46 9.46 0 012.55-.32 9.09 9.09 0 013 .47c.66.25.87.55.85.65-.02.1-.28.49-1.17.74a9.66 9.66 0 01-2.57.32 9.09 9.09 0 01-3-.47c-.63-.24-.84-.52-.84-.63-.02-.09.28-.47 1.18-.72zm-8.23-2.89c0-.12.29-.5 1.18-.74a9.46 9.46 0 012.55-.32 8.92 8.92 0 013 .46c.67.25.87.55.85.65-.02.1-.28.49-1.16.74a9.27 9.27 0 01-2.57.32 9.09 9.09 0 01-3-.47c-.63-.23-.84-.51-.84-.62zm-5 2.61l4.44-.63v1.34c0 .56.51.92 1.23 1.2a9.46 9.46 0 003.26.51 10.63 10.63 0 002.59-.31v2.21c0 .56.5.91 1.22 1.2a9.49 9.49 0 003.25.5 9.77 9.77 0 002.73-.34c.94-.29 1.56-.65 1.6-1.3v-3.41a9.8 9.8 0 002.55-.3v2.21c0 .56.51.92 1.22 1.2a9.5 9.5 0 003.26.51 10.33 10.33 0 002.74-.35c.93-.28 1.54-.65 1.58-1.3V69.8v.38l5 2.71-23 3.23zm37.23 22.3c-.09.06-23.37 3.28-23.37 3.28V76.78l23.37-3.28s-.05 17.53-.04 17.63z" fill="#c91a20"/><path d="M101.318 48c0-.56-.49-.92-1.22-1.2a9.5 9.5 0 00-3.26-.51 9.86 9.86 0 00-2.73.35c-.93.28-1.54.65-1.58 1.29v1.38l-5.42.76h-.1v18.25a.51.51 0 000 .13l3.83 2.09 10.7 5.81a.27.27 0 00.12 0l24-3.36h.11a.11.11 0 000-.06V54.74a.21.21 0 000-.12l-6-3.29v-1.14c0-.55-.5-.91-1.22-1.2a9.8 9.8 0 00-3.26-.5h-.72l-1.86-1v-.93c0-.56-.5-.91-1.22-1.2a9.83 9.83 0 00-3.26-.51 10.15 10.15 0 00-2.73.34c-.93.29-1.55.66-1.59 1.3v1.19l-2.55.36" fill="#eb5859"/><path d="M125.928 54.94a.21.21 0 000-.12l-6-3.29v-1.14c0-.55-.5-.91-1.22-1.2a9.8 9.8 0 00-3.26-.5h-.72l-1.86-1v.67l.84.45q-.45.07-.84.18v-2.23c0-.56-.5-.91-1.22-1.2a9.83 9.83 0 00-3.26-.51 10.15 10.15 0 00-2.73.34c-.93.29-1.55.66-1.59 1.3v1.19l-2.55.36v.6l2.54-.35v1.54a9.8 9.8 0 00-2.69.34h.14v-2.24c0-.56-.49-.92-1.22-1.2a9.5 9.5 0 00-3.26-.51 9.86 9.86 0 00-2.73.35c-.93.28-1.54.65-1.58 1.29v1.38l-5.42.76h-.1v18.25a.51.51 0 000 .13l3.83 2.09 10.7 5.81a.27.27 0 00.12 0l24-3.36h.11a.11.11 0 000-.06V54.87zm-10.68-5.81a9 9 0 013 .47c.67.25.87.55.85.64-.02.09-.28.5-1.17.75a9.53 9.53 0 01-2.56.32 9.09 9.09 0 01-3-.47c-.63-.24-.84-.52-.84-.63 0-.12.28-.49 1.17-.74a9.53 9.53 0 012.55-.36zm-9.61-3.32a10 10 0 012.56-.32 9 9 0 013 .47c.67.25.87.56.85.65-.02.09-.28.49-1.17.74a9.66 9.66 0 01-2.57.32 8.83 8.83 0 01-3-.47c-.63-.23-.85-.52-.84-.63-.03-.15.28-.53 1.22-.78zm-4.3 5a9.46 9.46 0 012.55-.32 9.09 9.09 0 013 .47c.66.25.87.55.85.65-.02.1-.28.49-1.17.74a9.68 9.68 0 01-2.57.31 8.86 8.86 0 01-3-.46c-.63-.24-.84-.52-.84-.63-.02-.1.28-.48 1.18-.73zm-8.23-2.89c0-.11.29-.49 1.18-.73a9.46 9.46 0 012.55-.32 8.92 8.92 0 013 .46c.67.25.87.55.85.65-.02.1-.28.49-1.16.74a9.27 9.27 0 01-2.57.32 9.09 9.09 0 01-3-.47c-.63-.24-.84-.52-.84-.62zm-5 2.61l4.44-.63v1.34c0 .55.51.91 1.23 1.19a9.46 9.46 0 003.26.51 10.63 10.63 0 002.59-.31v2.21c0 .56.5.91 1.22 1.2a9.49 9.49 0 003.25.5 9.77 9.77 0 002.73-.34c.94-.29 1.56-.65 1.6-1.3v-3.41a10.25 10.25 0 002.55-.3v2.2c0 .56.51.92 1.22 1.19a9.25 9.25 0 003.26.52 10.33 10.33 0 002.74-.35c.93-.28 1.54-.65 1.58-1.3v-1.92.37l5 2.72-23 3.23zm37.23 22.3c-.09.06-23.37 3.28-23.37 3.28V58.52l23.37-3.28s-.05 17.51-.04 17.62z" fill="#c91a20"/><path d="M101.318 29.73c0-.56-.49-.92-1.22-1.2a9.5 9.5 0 00-3.26-.51 9.86 9.86 0 00-2.73.35c-.93.28-1.54.65-1.58 1.29v1.38l-5.42.76h-.1v18.25a.51.51 0 000 .13l3.83 2.09 10.7 5.81h.12l24-3.37h.11a.11.11 0 000-.06V36.41a.21.21 0 000-.12l-6-3.29v-1.06c0-.55-.5-.91-1.22-1.2a9.8 9.8 0 00-3.26-.5h-.72l-1.86-1v-.93c0-.56-.5-.91-1.22-1.2a9.83 9.83 0 00-3.26-.51 10.15 10.15 0 00-2.73.34c-.93.29-1.55.66-1.59 1.3v1.2l-2.55.35" fill="#eb5859"/><path d="M125.928 36.65a.21.21 0 000-.12l-6-3.29v-1.3c0-.55-.5-.91-1.22-1.2a9.8 9.8 0 00-3.26-.5h-.72l-1.86-1v.7l.84.45q-.45.07-.84.18v-2.23c0-.56-.5-.91-1.22-1.2a9.83 9.83 0 00-3.26-.51 10.15 10.15 0 00-2.73.34c-.93.29-1.55.66-1.59 1.3v1.2l-2.55.35v.6l2.54-.35v1.54a9.8 9.8 0 00-2.69.34h.14v-2.24c0-.56-.49-.92-1.22-1.2a9.5 9.5 0 00-3.26-.51 9.86 9.86 0 00-2.73.35c-.93.28-1.54.65-1.58 1.29v1.38l-5.42.76h-.1v18.25a.51.51 0 000 .13l3.83 2.09 10.7 5.81h.12l24-3.37h.11a.11.11 0 000-.06V36.39zm-10.68-5.81a9 9 0 013 .47c.67.24.87.55.85.64-.02.09-.28.5-1.17.75a9.53 9.53 0 01-2.56.32 9.09 9.09 0 01-3-.47c-.63-.24-.84-.52-.84-.63 0-.12.28-.49 1.17-.74a9.53 9.53 0 012.55-.34zm-9.61-3.32a10 10 0 012.56-.32 9 9 0 013 .47c.67.25.87.56.85.65-.02.09-.28.49-1.17.74a9.66 9.66 0 01-2.57.32 8.83 8.83 0 01-3-.47c-.63-.23-.85-.52-.84-.63-.03-.13.28-.51 1.22-.76zm-4.3 5a9.46 9.46 0 012.55-.32 9.09 9.09 0 013 .47c.66.25.87.55.85.65-.02.1-.28.49-1.17.74a9.68 9.68 0 01-2.57.31 8.86 8.86 0 01-3-.46c-.63-.24-.84-.52-.84-.63-.02-.08.28-.47 1.18-.71zm-8.23-2.89c0-.12.29-.49 1.18-.73a9.08 9.08 0 012.55-.32 8.92 8.92 0 013 .46c.67.25.87.55.85.65-.02.1-.28.49-1.16.74a9.66 9.66 0 01-2.57.32 9.09 9.09 0 01-3-.47c-.63-.24-.84-.52-.84-.62zm-5 2.61l4.44-.63v1.34c0 .56.51.92 1.23 1.2a9.46 9.46 0 003.26.51 10.63 10.63 0 002.59-.31v2.21c0 .56.5.91 1.22 1.2a9.49 9.49 0 003.25.5 10.15 10.15 0 002.73-.34c.94-.29 1.56-.66 1.6-1.3v-3.36a10.25 10.25 0 002.55-.3v2.2c0 .56.51.91 1.22 1.19a9.26 9.26 0 003.26.51 10.33 10.33 0 002.74-.34c.93-.28 1.54-.65 1.58-1.31V33.3v.37l5 2.71-23 3.23zm37.23 22.3c-.09.06-23.37 3.28-23.37 3.28V40.23l23.37-3.28s-.05 17.53-.04 17.64z" fill="#c91a20"/><path d="M101.318 11.46c0-.56-.49-.92-1.22-1.2a9.5 9.5 0 00-3.26-.51 9.86 9.86 0 00-2.73.35c-.93.28-1.54.65-1.58 1.29v1.38l-5.42.76h-.1v18.26a.59.59 0 000 .13l3.83 2.09 10.7 5.81h.12l24-3.37h.11a.11.11 0 000-.06V18.2a.2.2 0 000-.11v-.06l-6-3.29V13.6c0-.55-.5-.91-1.22-1.2a9.8 9.8 0 00-3.26-.5h-.72l-1.86-1v-.94c0-.56-.5-.91-1.22-1.2a9.83 9.83 0 00-3.26-.51 10.15 10.15 0 00-2.73.34c-.93.29-1.55.66-1.59 1.3v1.19l-2.55.36" fill="#eb5859"/><path d="M125.928 18.37a.2.2 0 000-.11v-.06l-6-3.29v-1.14c0-.55-.5-.91-1.22-1.2a9.8 9.8 0 00-3.26-.5h-.72l-1.86-1v.66l.84.45q-.45.08-.84.18v-2.23c0-.56-.5-.91-1.22-1.2a9.83 9.83 0 00-3.26-.51 10.15 10.15 0 00-2.73.34c-.93.29-1.55.66-1.59 1.3v1.19l-2.55.36v.6l2.54-.35v1.54a9.8 9.8 0 00-2.69.34h.14V11.5c0-.56-.49-.92-1.22-1.2a9.5 9.5 0 00-3.26-.51 9.86 9.86 0 00-2.73.35c-.93.28-1.54.65-1.58 1.29v1.38l-5.42.76h-.1v18.26a.59.59 0 000 .13l3.83 2.09 10.7 5.81h.12l24-3.37h.11a.11.11 0 000-.06V18.24zm-10.68-5.8a9 9 0 013 .47c.67.25.87.55.85.64-.02.09-.28.5-1.17.75a9.53 9.53 0 01-2.56.32 9.09 9.09 0 01-3-.47c-.63-.24-.84-.52-.84-.63 0-.12.28-.49 1.17-.74a9.53 9.53 0 012.55-.34zm-9.61-3.31a9.52 9.52 0 012.56-.33 9 9 0 013 .47c.67.25.87.56.85.65-.02.09-.28.49-1.17.74a9.66 9.66 0 01-2.57.32 8.83 8.83 0 01-3-.47c-.63-.23-.85-.52-.84-.63-.03-.13.28-.51 1.22-.75zm-4.3 5a9.46 9.46 0 012.55-.32 9.09 9.09 0 013 .47c.66.25.87.55.85.65-.02.1-.28.49-1.17.74a9.68 9.68 0 01-2.57.31 8.86 8.86 0 01-3-.46c-.63-.24-.84-.52-.84-.63-.02-.08.28-.47 1.18-.72zm-8.23-2.89c0-.11.29-.49 1.18-.73a9.08 9.08 0 012.55-.32 8.92 8.92 0 013 .46c.67.25.87.55.85.65-.02.1-.28.49-1.16.74a9.66 9.66 0 01-2.57.32 9.09 9.09 0 01-3-.47c-.63-.24-.84-.52-.84-.62zm-5 2.61l4.44-.63v1.34c0 .56.51.92 1.23 1.2a9.46 9.46 0 003.26.51 10.63 10.63 0 002.59-.31v2.21c0 .56.5.91 1.22 1.2a9.49 9.49 0 003.25.5 9.77 9.77 0 002.73-.34c.94-.29 1.56-.66 1.6-1.3V15a10.25 10.25 0 002.55-.3v2.21c0 .56.51.91 1.22 1.19a9.25 9.25 0 003.26.52 10.33 10.33 0 002.74-.35c.93-.28 1.54-.65 1.58-1.31v-1.91.37l5 2.71-23 3.23zm37.23 22.3c-.09.06-23.37 3.28-23.37 3.28V21.97l23.37-3.28s-.05 17.52-.04 17.63z" fill="#c91a20"/><path d="M77.348 106.2c0-.56-.5-.91-1.23-1.2a9.47 9.47 0 00-3.26-.5 9.74 9.74 0 00-2.72.34c-.93.28-1.55.65-1.59 1.29v1.39l-5.41.76a.45.45 0 00-.11 0v18.32a.28.28 0 000 .13l3.83 2.09 10.69 5.81a.28.28 0 00.12 0l24-3.37a.25.25 0 00.11 0V112.9a.37.37 0 000-.12v-.06l-6-3.29v-1.14c0-.56-.51-.92-1.23-1.2a9.46 9.46 0 00-3.26-.51h-.72l-1.85-1v-.94c0-.55-.51-.91-1.23-1.2a9.74 9.74 0 00-3.26-.51 10 10 0 00-2.72.35c-.94.28-1.55.65-1.6 1.29v1.37l-2.54.36" fill="#eb5859"/><path d="M101.948 113.11a.37.37 0 000-.12v-.06l-6-3.29v-1.14c0-.56-.51-.92-1.23-1.2a9.46 9.46 0 00-3.26-.51h-.72l-1.85-1v.66l.83.46a6.93 6.93 0 00-.84.17v-2.23c0-.55-.51-.91-1.23-1.2a9.74 9.74 0 00-3.26-.51 10 10 0 00-2.72.35c-.94.28-1.55.65-1.6 1.29v1.16l-2.54.36v.6l2.55-.36v1.53a10.31 10.31 0 00-2.69.34h.14v-2.23c0-.56-.5-.91-1.23-1.2a9.47 9.47 0 00-3.26-.5 9.74 9.74 0 00-2.72.34c-.93.28-1.55.65-1.59 1.29v1.39l-5.41.76a.45.45 0 00-.11 0v18.32a.28.28 0 000 .13l3.83 2.09 10.69 5.81a.28.28 0 00.12 0l24-3.37a.25.25 0 00.11 0v-18.36zm-10.68-5.8a9.11 9.11 0 013.05.46c.66.25.86.55.84.65-.02.1-.27.49-1.17.74a9.53 9.53 0 01-2.56.32 8.75 8.75 0 01-3-.47c-.64-.24-.85-.51-.85-.62 0-.12.29-.49 1.18-.73a9.08 9.08 0 012.51-.35zm-9.61-3.32a9.59 9.59 0 012.56-.32 8.85 8.85 0 013 .47c.66.25.86.55.84.64-.02.09-.28.5-1.17.75a9.55 9.55 0 01-2.56.31 8.86 8.86 0 01-3-.46c-.63-.24-.84-.52-.84-.63-.03-.14.28-.52 1.2-.76zm-4.3 5a10 10 0 012.56-.32 9.09 9.09 0 013 .47c.66.25.86.56.84.65-.02.09-.28.49-1.17.75a10.11 10.11 0 01-2.57.31 9 9 0 01-3-.46c-.63-.24-.85-.53-.84-.63-.02-.1.29-.48 1.18-.73zm-8.23-2.89c0-.12.29-.5 1.18-.74a9.51 9.51 0 012.55-.32 9.28 9.28 0 013 .46c.67.25.87.56.84.65-.03.09-.27.49-1.16.74a9.21 9.21 0 01-2.57.33 8.77 8.77 0 01-3-.48c-.64-.23-.85-.51-.85-.62zm-5 2.61l4.44-.62v1.36c0 .56.5.91 1.22 1.19a9.5 9.5 0 003.26.51 10.16 10.16 0 002.59-.31v2.21c0 .56.5.92 1.22 1.2a9.5 9.5 0 003.26.51 10.15 10.15 0 002.73-.34c.94-.29 1.56-.66 1.6-1.31v-3.35a10.74 10.74 0 002.55-.3v2.2c0 .55.51.91 1.23 1.19a9.42 9.42 0 003.26.51 10.2 10.2 0 002.73-.35c.93-.28 1.55-.65 1.59-1.3v-1.55l5 2.72-23 3.23zm37.23 22.31c-.08 0-23.37 3.28-23.37 3.28v-17.6l23.38-3.28s-.06 17.52-.05 17.64z" fill="#c91a20"/><path d="M53.388 109.57c0-.56-.5-.91-1.22-1.2a11 11 0 00-6-.16c-.93.28-1.54.66-1.59 1.3v1.43l-5.42.76h-.11v18.31a.27.27 0 000 .13l3.83 2.09 10.7 5.81a.28.28 0 00.13 0l24-3.36a.24.24 0 00.1 0v-18.25a.5.5 0 000-.12v-.06l-6-3.3v-1.13c0-.56-.5-.91-1.23-1.2a9.47 9.47 0 00-3.26-.5h-.72l-1.85-1v-.94c0-.56-.51-.92-1.23-1.2a9.24 9.24 0 00-3.25-.51 10.15 10.15 0 00-2.73.34c-.93.29-1.55.66-1.6 1.3v1.19l-2.54.36" fill="#eb5859"/><path d="M77.988 116.48a.5.5 0 000-.12v-.06l-6-3.3v-1.13c0-.56-.5-.91-1.23-1.2a9.47 9.47 0 00-3.26-.5h-.72l-1.85-1v.67l.83.45a7.34 7.34 0 00-.84.17v-2.23c0-.56-.51-.92-1.23-1.2a9.24 9.24 0 00-3.25-.51 10.15 10.15 0 00-2.73.34c-.93.29-1.55.66-1.6 1.3v1.19l-2.54.36v.6l2.55-.36v1.55a10.17 10.17 0 00-2.68.35h.13v-2.24c0-.56-.5-.91-1.22-1.2a11 11 0 00-6-.16c-.93.28-1.54.66-1.59 1.3v1.39l-5.42.76h-.11v18.31a.27.27 0 000 .13l3.83 2.09 10.7 5.81a.28.28 0 00.13 0l24-3.36a.24.24 0 00.1 0v-18.25zm-10.68-5.8a9 9 0 013.05.46c.66.25.87.56.84.65-.03.09-.27.49-1.16.74a9.27 9.27 0 01-2.57.32 8.75 8.75 0 01-3-.47c-.64-.23-.85-.51-.85-.62 0-.11.29-.49 1.18-.73a9.51 9.51 0 012.51-.35zm-9.6-3.32a9.53 9.53 0 012.56-.32 9.07 9.07 0 013 .47c.67.25.87.55.84.65-.03.1-.27.49-1.17.74a9.55 9.55 0 01-2.56.31 8.63 8.63 0 01-3-.46c-.62-.24-.84-.52-.83-.63-.04-.18.27-.52 1.14-.76zm-4.31 5.05a9.59 9.59 0 012.56-.32 8.85 8.85 0 013 .47c.66.24.86.55.84.65-.02.1-.28.48-1.17.74a10 10 0 01-2.56.31 8.86 8.86 0 01-3-.46c-.63-.24-.85-.52-.84-.63-.03-.14.28-.52 1.17-.76zm-8.22-2.9c0-.12.28-.49 1.18-.74a9.46 9.46 0 012.55-.32 9 9 0 013 .47c.67.25.87.55.85.64-.02.09-.28.5-1.17.75a9.53 9.53 0 01-2.56.32 9.05 9.05 0 01-3.05-.47c-.63-.24-.84-.52-.84-.62zm-5 2.62l4.44-.63v1.37c0 .56.51.92 1.23 1.19a9.18 9.18 0 003.26.52 10.54 10.54 0 002.58-.31v2.2c0 .55.5.91 1.22 1.19a9.54 9.54 0 003.26.51 10.15 10.15 0 002.73-.34c.94-.29 1.56-.66 1.6-1.31v-3.35a10.17 10.17 0 002.54-.3v2.23c0 .56.5.91 1.22 1.19a9.46 9.46 0 003.26.51 10.21 10.21 0 002.73-.34c.93-.29 1.55-.66 1.59-1.31v-1.92.37l5 2.72-23 3.23zm37.24 22.3c-.09.06-23.38 3.28-23.38 3.28v-17.59l23.37-3.29s-.05 17.49-.04 17.6z" fill="#c91a20"/><path d="M29.418 112.94c0-.56-.5-.91-1.22-1.2a9.51 9.51 0 00-3.26-.5 9.74 9.74 0 00-2.72.34c-.94.28-1.55.65-1.59 1.3v1.38l-5.42.76a.21.21 0 00-.1 0v.05a.14.14 0 010 .06v18.19a.28.28 0 000 .13l3.83 2.09 10.7 5.82a.28.28 0 00.12 0l24-3.36h.11a.14.14 0 000-.07v-18.19a.25.25 0 000-.12.1.1 0 010-.05l-6-3.3v-1.13c0-.56-.5-.92-1.22-1.2a9.54 9.54 0 00-3.26-.51h-.73l-1.85-1v-.94c0-.55-.5-.91-1.22-1.19a9.26 9.26 0 00-3.26-.51 10.15 10.15 0 00-2.73.34c-.93.28-1.55.65-1.59 1.29v1.21l-2.55.36" fill="#eb5859"/><path d="M54.018 119.84a.25.25 0 000-.12.1.1 0 010-.05l-6-3.3v-1.13c0-.56-.5-.92-1.22-1.2a9.54 9.54 0 00-3.26-.51h-.73l-1.85-1v.66l.83.46a6.76 6.76 0 00-.83.17v-2.23c0-.55-.5-.91-1.22-1.19a9.26 9.26 0 00-3.26-.51 10.15 10.15 0 00-2.73.34c-.93.28-1.55.65-1.59 1.29v1.21l-2.55.36v.6l2.55-.36v1.53a9.79 9.79 0 00-2.69.35h.14v-2.27c0-.56-.5-.91-1.22-1.2a9.51 9.51 0 00-3.26-.5 9.74 9.74 0 00-2.72.34c-.94.28-1.55.65-1.59 1.3v1.38l-5.42.76a.21.21 0 00-.1 0v.05a.14.14 0 010 .06v18.19a.28.28 0 000 .13l3.83 2.09 10.7 5.82a.28.28 0 00.12 0l24-3.36h.11a.14.14 0 000-.07v-18.19zm-10.67-5.8a9 9 0 013 .46c.67.25.87.55.84.65-.03.1-.27.49-1.16.74a9.53 9.53 0 01-2.56.32 8.81 8.81 0 01-3-.47c-.63-.24-.84-.52-.84-.62 0-.11.28-.49 1.17-.73a9.15 9.15 0 012.55-.35zm-9.61-3.32a9.59 9.59 0 012.56-.32 8.85 8.85 0 013.05.47c.66.25.86.55.84.64-.02.09-.28.5-1.17.74a9.66 9.66 0 01-2.57.32 8.8 8.8 0 01-3-.46c-.63-.24-.85-.53-.84-.63-.07-.14.24-.54 1.13-.76zm-4.3 5.05a9.46 9.46 0 012.56-.33 9.07 9.07 0 013 .47c.66.25.87.55.84.65-.03.1-.28.49-1.17.74a9.53 9.53 0 01-2.56.32 8.85 8.85 0 01-3-.47c-.63-.24-.84-.52-.83-.63-.04-.13.26-.51 1.16-.75zm-8.23-2.89c0-.12.29-.5 1.18-.74a9.51 9.51 0 012.55-.32 9.33 9.33 0 013 .46c.66.25.86.56.84.65-.02.09-.28.49-1.16.74a9.26 9.26 0 01-2.57.33 8.73 8.73 0 01-3-.48c-.64-.23-.85-.51-.85-.62zm-5 2.6l4.44-.62v1.33c0 .56.51.91 1.23 1.19a9.5 9.5 0 003.26.51 10.22 10.22 0 002.59-.31v2.21c0 .56.5.91 1.22 1.2a9.5 9.5 0 003.26.51 10.26 10.26 0 002.73-.34c.94-.3 1.55-.66 1.59-1.31v-3.35a10.3 10.3 0 002.55-.31v2.21c0 .56.51.92 1.22 1.2a9.5 9.5 0 003.26.51 10.15 10.15 0 002.73-.34c.93-.29 1.55-.66 1.6-1.31v-1.52l5 2.72-23 3.23zm37.23 22.31c-.09.06-23.37 3.27-23.37 3.27v-17.59l23.37-3.28s-.05 17.49-.04 17.6z" fill="#c91a20"/><path d="M29.418 94.66c0-.56-.5-.92-1.22-1.2a9.51 9.51 0 00-3.26-.5 9.74 9.74 0 00-2.72.34c-.94.28-1.55.65-1.59 1.29v1.39l-5.42.76a.38.38 0 00-.1 0 .14.14 0 010 .06v18.19a.28.28 0 000 .13l3.83 2.09 10.7 5.81a.28.28 0 00.12 0l24-3.37a.17.17 0 00.11 0 .14.14 0 000-.07v-18.2a.25.25 0 000-.12v-.05l-6-3.29v-1.14c0-.55-.5-.91-1.22-1.19a9.54 9.54 0 00-3.26-.51h-.73l-1.85-1v-.94c0-.55-.5-.91-1.22-1.2a9.74 9.74 0 00-3.26-.51 10.14 10.14 0 00-2.73.35c-.93.28-1.55.65-1.59 1.29v1.21l-2.55.35" fill="#eb5859"/><path d="M54.018 101.57a.25.25 0 000-.12v-.05l-6-3.29v-1.14c0-.55-.5-.91-1.22-1.19a9.54 9.54 0 00-3.26-.51h-.73l-1.85-1v.66l.83.46a6.76 6.76 0 00-.83.17v-2.23c0-.55-.5-.91-1.22-1.2a9.74 9.74 0 00-3.26-.51 10.14 10.14 0 00-2.73.35c-.93.28-1.55.65-1.59 1.29v1.21l-2.55.35v.61l2.55-.36v1.52a9.8 9.8 0 00-2.69.34h.14V94.7c0-.56-.5-.92-1.22-1.2a9.51 9.51 0 00-3.26-.5 9.74 9.74 0 00-2.72.34c-.94.28-1.55.65-1.59 1.29v1.39l-5.42.76a.38.38 0 00-.1 0 .14.14 0 010 .06v18.19a.28.28 0 000 .13l3.83 2.09 10.7 5.81a.28.28 0 00.12 0l24-3.37a.17.17 0 00.11 0 .14.14 0 000-.07v-18.2zm-10.67-5.8a9 9 0 013 .46c.67.25.87.55.84.64-.03.09-.27.5-1.16.75a9.53 9.53 0 01-2.56.32 9.05 9.05 0 01-3-.47c-.63-.24-.84-.52-.84-.62 0-.11.28-.49 1.17-.73a9.53 9.53 0 012.55-.35zm-9.61-3.32a9.59 9.59 0 012.56-.32 9.11 9.11 0 013.05.46c.66.26.86.56.84.65-.02.09-.28.49-1.17.75a10.11 10.11 0 01-2.57.31 8.8 8.8 0 01-3-.46c-.63-.24-.85-.52-.84-.63-.07-.14.24-.52 1.13-.76zm-4.3 5a9.9 9.9 0 012.56-.32 9.07 9.07 0 013 .47c.66.25.87.56.84.65-.03.09-.28.49-1.17.74a9.53 9.53 0 01-2.56.32 9.09 9.09 0 01-3-.47c-.63-.23-.84-.52-.83-.63-.04-.09.26-.47 1.16-.72zm-8.23-2.89c0-.12.29-.5 1.18-.74a9.51 9.51 0 012.55-.32 9.33 9.33 0 013 .46c.66.25.86.56.84.65-.02.09-.28.49-1.16.74a9.27 9.27 0 01-2.57.32 8.75 8.75 0 01-3-.47c-.64-.24-.85-.51-.85-.62zm-5 2.61l4.44-.62v1.33c0 .55.51.91 1.23 1.19a9.26 9.26 0 003.26.51 10.22 10.22 0 002.59-.31v2.21c0 .56.5.91 1.22 1.2a9.51 9.51 0 003.26.5 10.27 10.27 0 002.73-.33c.94-.29 1.55-.66 1.59-1.31v-3.41a10.82 10.82 0 002.55-.29v2.2c0 .56.51.92 1.22 1.2a9.5 9.5 0 003.26.51 10.14 10.14 0 002.73-.35c.93-.28 1.55-.65 1.6-1.3v-1.55l5 2.72-23 3.23zm37.23 22.31c-.09 0-23.37 3.27-23.37 3.27v-17.59l23.37-3.28s-.05 17.53-.04 17.64z" fill="#c91a20"/><path d="M29.418 76.38c0-.56-.5-.91-1.22-1.2a9.5 9.5 0 00-3.26-.51 9.74 9.74 0 00-2.72.35c-.94.28-1.55.65-1.59 1.3v1.39l-5.42.76a.19.19 0 00-.1 0 .14.14 0 010 .06v18.19a.28.28 0 000 .13l3.83 2.09 10.7 5.81a.28.28 0 00.12 0l24-3.37a.25.25 0 00.11 0 .14.14 0 000-.07v-18.2a.25.25 0 000-.12v-.05l-6-3.29v-1.14c0-.56-.5-.92-1.22-1.2a9.54 9.54 0 00-3.26-.51h-.73l-1.85-1v-.86c0-.56-.5-.91-1.22-1.19a9.49 9.49 0 00-3.26-.52 10.14 10.14 0 00-2.73.35c-.93.28-1.55.65-1.59 1.29v1.21l-2.55.35" fill="#eb5859"/><path d="M54.018 83.3a.25.25 0 000-.12v-.05l-6-3.29V78.7c0-.56-.5-.92-1.22-1.2a9.54 9.54 0 00-3.26-.51h-.73l-1.85-1v.66l.83.46a6.76 6.76 0 00-.83.17v-2.34c0-.56-.5-.91-1.22-1.19a9.49 9.49 0 00-3.26-.52 10.14 10.14 0 00-2.73.35c-.93.28-1.55.65-1.59 1.29v1.21l-2.55.35v.61l2.55-.36v1.53a10.2 10.2 0 00-2.69.34h.14v-2.24c0-.56-.5-.91-1.22-1.2a9.5 9.5 0 00-3.26-.51 9.74 9.74 0 00-2.72.35c-.94.28-1.55.65-1.59 1.3v1.39l-5.42.76a.19.19 0 00-.1 0 .14.14 0 010 .06v18.19a.28.28 0 000 .13l3.83 2.09 10.7 5.81a.28.28 0 00.12 0l24-3.37a.25.25 0 00.11 0 .14.14 0 000-.07v-18.2zm-10.67-5.8a9 9 0 013 .46c.67.25.87.55.84.65-.03.1-.27.49-1.16.74a9.53 9.53 0 01-2.56.32 9.05 9.05 0 01-3-.47c-.63-.24-.84-.52-.84-.62 0-.12.28-.49 1.17-.73a9.15 9.15 0 012.55-.35zm-9.61-3.32a9.59 9.59 0 012.56-.32 8.85 8.85 0 013.05.47c.66.24.86.55.84.64-.02.09-.28.5-1.17.74a9.66 9.66 0 01-2.57.32 8.8 8.8 0 01-3-.46c-.63-.24-.85-.53-.84-.63-.07-.14.24-.52 1.13-.76zm-4.3 5a9.9 9.9 0 012.56-.32 9.07 9.07 0 013 .47c.66.25.87.55.84.65-.03.1-.28.49-1.17.74a9.53 9.53 0 01-2.56.32 8.85 8.85 0 01-3-.47c-.63-.24-.84-.52-.83-.63-.04-.09.26-.47 1.16-.72zm-8.23-2.89c0-.12.29-.5 1.18-.74a9.51 9.51 0 012.55-.32 9.33 9.33 0 013 .46c.66.25.86.56.84.65-.02.09-.28.49-1.16.74a9.27 9.27 0 01-2.57.32 8.75 8.75 0 01-3-.47c-.64-.24-.85-.51-.85-.62zm-5 2.61l4.44-.62v1.33c0 .56.51.91 1.23 1.19a9.26 9.26 0 003.26.51 10.22 10.22 0 002.59-.31v2.21c0 .56.5.92 1.22 1.2a9.5 9.5 0 003.26.51 10.26 10.26 0 002.73-.34c.94-.3 1.55-.66 1.59-1.31v-3.35a10.3 10.3 0 002.55-.31v2.21c0 .56.51.92 1.22 1.2a9.5 9.5 0 003.26.51 10.57 10.57 0 002.73-.34c.93-.29 1.55-.66 1.6-1.31v-1.55l5 2.72-23 3.23zm37.23 22.31c-.09.05-23.37 3.27-23.37 3.27V86.89l23.37-3.28s-.05 17.53-.04 17.64z" fill="#c91a20"/><path d="M29.418 58.11c0-.56-.5-.91-1.22-1.2a9.51 9.51 0 00-3.26-.5 9.74 9.74 0 00-2.72.34c-.94.28-1.55.65-1.59 1.3v1.38l-5.42.77a.19.19 0 00-.1 0 .14.14 0 010 .06v18.19a.28.28 0 000 .13v.05l3.83 2.09 10.7 5.82a.28.28 0 00.12 0l24-3.37a.25.25 0 00.11 0 .19.19 0 000-.07V64.91a.22.22 0 000-.12l-6-3.29v-1.16c0-.56-.5-.92-1.22-1.2a9.54 9.54 0 00-3.26-.51h-.73l-1.85-1v-.94c0-.56-.5-.91-1.22-1.2a9.74 9.74 0 00-3.26-.51 10.14 10.14 0 00-2.73.35c-.93.28-1.55.65-1.59 1.29v1.21l-2.55.36" fill="#eb5859"/><path d="M54.018 65.03a.22.22 0 000-.12l-6-3.29v-1.28c0-.56-.5-.92-1.22-1.2a9.54 9.54 0 00-3.26-.51h-.73l-1.85-1v.66l.83.46a6.76 6.76 0 00-.83.17v-2.23c0-.56-.5-.91-1.22-1.2a9.74 9.74 0 00-3.26-.51 10.14 10.14 0 00-2.73.35c-.93.28-1.55.65-1.59 1.29v1.21l-2.55.36v.6l2.55-.36v1.52a10.2 10.2 0 00-2.69.34h.14v-2.24c0-.56-.5-.91-1.22-1.2a9.51 9.51 0 00-3.26-.5 9.74 9.74 0 00-2.72.34c-.94.28-1.55.65-1.59 1.3v1.38l-5.42.77a.19.19 0 00-.1 0 .14.14 0 010 .06v18.19a.28.28 0 000 .13v.05l3.83 2.09 10.7 5.82a.28.28 0 00.12 0l24-3.37a.25.25 0 00.11 0 .19.19 0 000-.07V64.85zm-10.67-5.8a9 9 0 013 .46c.67.25.87.55.84.65-.03.1-.27.49-1.16.74a9.53 9.53 0 01-2.56.32 9.05 9.05 0 01-3-.47c-.63-.24-.84-.52-.84-.62 0-.12.28-.49 1.17-.73a9.15 9.15 0 012.55-.35zm-9.61-3.32a9.59 9.59 0 012.56-.32 8.85 8.85 0 013.05.47c.66.24.86.55.84.64-.02.09-.28.5-1.17.74a9.66 9.66 0 01-2.57.32 8.8 8.8 0 01-3-.46c-.63-.24-.85-.53-.84-.63-.07-.14.24-.52 1.13-.73zm-4.3 5a9.9 9.9 0 012.56-.32 9.07 9.07 0 013 .47c.66.25.87.56.84.65-.03.09-.28.49-1.17.74a9.53 9.53 0 01-2.56.32 8.85 8.85 0 01-3-.47c-.63-.24-.84-.52-.83-.63-.04-.09.26-.47 1.16-.73zm-8.23-2.89c0-.12.29-.5 1.18-.74a9.51 9.51 0 012.55-.32 9.33 9.33 0 013 .46c.66.25.86.56.84.65-.02.09-.28.49-1.16.74a9.27 9.27 0 01-2.57.32 8.75 8.75 0 01-3-.47c-.64-.23-.85-.51-.85-.62zm-5 2.61l4.44-.62v1.33c0 .55.51.91 1.23 1.19a9.5 9.5 0 003.26.51 10.22 10.22 0 002.59-.31v2.21c0 .56.5.91 1.22 1.2a9.5 9.5 0 003.26.51 10.26 10.26 0 002.73-.34c.94-.29 1.55-.66 1.59-1.31v-3.35a10.3 10.3 0 002.55-.31v2.21c0 .56.51.92 1.22 1.19a9.25 9.25 0 003.26.52 9.76 9.76 0 002.73-.35c.93-.28 1.55-.65 1.6-1.3v-1.55l5 2.72-23 3.23zm37.19 22.31c-.09.05-23.37 3.27-23.37 3.27V68.62l23.37-3.28s-.01 17.53 0 17.6z" fill="#c91a20"/><path d="M29.418 39.84c0-.56-.5-.91-1.22-1.2a9.51 9.51 0 00-3.26-.5 9.74 9.74 0 00-2.72.34c-.94.28-1.55.65-1.59 1.29v1.39l-5.42.76a.19.19 0 00-.1 0 .14.14 0 010 .06v18.19a.28.28 0 000 .13l3.83 2.09 10.7 5.81a.28.28 0 00.12 0l24-3.37a.25.25 0 00.11 0 .14.14 0 000-.07v-18.2a.23.23 0 000-.12l-6-3.29v-1.14c0-.56-.5-.92-1.22-1.2a9.54 9.54 0 00-3.26-.51h-.73l-1.85-1v-.94c0-.56-.5-.91-1.22-1.2a10.74 10.74 0 00-6-.16c-.93.28-1.55.65-1.59 1.29v1.21l-2.55.35" fill="#eb5859"/><path d="M54.018 46.76a.23.23 0 000-.12l-6-3.29v-1.14c0-.56-.5-.92-1.22-1.2a9.54 9.54 0 00-3.26-.51h-.73l-1.85-1v.66l.83.45c-.29.05-.57.11-.83.18v-2.35c0-.56-.5-.91-1.22-1.2a10.74 10.74 0 00-6-.16c-.93.28-1.55.65-1.59 1.29v1.21l-2.55.35v.6l2.55-.35v1.52a9.8 9.8 0 00-2.69.34h.14v-2.2c0-.56-.5-.91-1.22-1.2a9.51 9.51 0 00-3.26-.5 9.74 9.74 0 00-2.72.34c-.94.28-1.55.65-1.59 1.29v1.39l-5.42.76a.19.19 0 00-.1 0 .14.14 0 010 .06v18.19a.28.28 0 000 .13l3.83 2.09 10.7 5.81a.28.28 0 00.12 0l24-3.37a.25.25 0 00.11 0 .14.14 0 000-.07v-18.2zm-10.67-5.8a9 9 0 013 .46c.67.25.87.55.84.65-.03.1-.27.49-1.16.74a9.53 9.53 0 01-2.56.32 9.05 9.05 0 01-3-.47c-.63-.24-.84-.52-.84-.63 0-.12.28-.49 1.17-.74a9.55 9.55 0 012.55-.35zm-9.61-3.32a9.59 9.59 0 012.56-.32 9.11 9.11 0 013.05.46c.66.26.86.56.84.65-.02.09-.28.5-1.17.74a9.66 9.66 0 01-2.57.32 9 9 0 01-3-.46c-.63-.24-.85-.53-.84-.63-.07-.14.24-.52 1.13-.76zm-4.3 5a9.9 9.9 0 012.56-.32 9.07 9.07 0 013 .47c.66.25.87.55.84.65-.03.1-.28.49-1.17.74a9.53 9.53 0 01-2.56.32 9.09 9.09 0 01-3-.47c-.63-.24-.84-.52-.83-.63-.04-.09.26-.46 1.16-.72zm-8.23-2.89c0-.12.29-.5 1.18-.74a9.51 9.51 0 012.55-.32 9.33 9.33 0 013 .46c.66.25.86.55.84.65-.02.1-.28.49-1.16.74a9.27 9.27 0 01-2.57.32 8.75 8.75 0 01-3-.47c-.64-.23-.85-.51-.85-.62zm-5 2.61l4.44-.62v1.33c0 .55.51.91 1.23 1.19a9.5 9.5 0 003.26.51 10.22 10.22 0 002.59-.31v2.21c0 .56.5.91 1.22 1.2a9.51 9.51 0 003.26.5 9.87 9.87 0 002.73-.34c.94-.29 1.55-.65 1.59-1.3v-3.36a10.79 10.79 0 002.55-.31v2.21c0 .56.51.92 1.22 1.2a9.5 9.5 0 003.26.51 10.14 10.14 0 002.73-.35c.93-.28 1.55-.65 1.6-1.3v-1.55l5 2.72-23 3.23zm37.23 22.31c-.09.05-23.37 3.27-23.37 3.27V50.35l23.37-3.28s-.05 17.52-.04 17.64z" fill="#c91a20"/><path d="M29.418 21.57c0-.56-.5-.91-1.22-1.2a9.51 9.51 0 00-3.26-.5 9.74 9.74 0 00-2.72.34c-.94.28-1.55.65-1.59 1.29v1.44l-5.42.76a.19.19 0 00-.1 0 .1.1 0 010 .05.14.14 0 010 .06V42a.28.28 0 000 .13v.05l3.83 2.09 10.7 5.81a.28.28 0 00.12 0l24-3.37a.25.25 0 00.11 0 .14.14 0 000-.07v-18.2a.23.23 0 000-.12l-6-3.29v-1.14c0-.56-.5-.92-1.22-1.2a9.54 9.54 0 00-3.26-.51h-.73l-1.85-1v-.94c0-.56-.5-.91-1.22-1.2a10.74 10.74 0 00-6-.16c-.93.28-1.55.65-1.59 1.29v1.21l-2.55.35" fill="#eb5859"/><path d="M54.018 28.49a.23.23 0 000-.12l-6-3.29v-1.14c0-.56-.5-.92-1.22-1.2a9.54 9.54 0 00-3.26-.51h-.73l-1.85-1v.66l.83.46a6.76 6.76 0 00-.83.17v-2.23c0-.56-.5-.91-1.22-1.2a10.74 10.74 0 00-6-.16c-.93.28-1.55.65-1.59 1.29v1.21l-2.55.35v.61l2.55-.36v1.52a9.8 9.8 0 00-2.69.34h.14v-2.24c0-.56-.5-.91-1.22-1.2a9.51 9.51 0 00-3.26-.5 9.74 9.74 0 00-2.72.34c-.94.28-1.55.65-1.59 1.29v1.36l-5.42.76a.19.19 0 00-.1 0 .1.1 0 010 .05.14.14 0 010 .06V42a.28.28 0 000 .13v.05l3.83 2.09 10.7 5.81a.28.28 0 00.12 0l24-3.37a.25.25 0 00.11 0 .14.14 0 000-.07v-18.2zm-10.67-5.8a9 9 0 013 .46c.67.25.87.55.84.65-.03.1-.27.49-1.16.74a9.53 9.53 0 01-2.56.32 9.05 9.05 0 01-3-.47c-.63-.24-.84-.52-.84-.62 0-.12.28-.49 1.17-.74a9.55 9.55 0 012.55-.34zm-9.61-3.32a9.57 9.57 0 012.56-.33 9.09 9.09 0 013.05.47c.66.26.86.56.84.65-.02.09-.28.5-1.17.74a9.66 9.66 0 01-2.57.32 9 9 0 01-3-.46c-.63-.24-.85-.53-.84-.63-.07-.14.24-.52 1.13-.76zm-4.3 5a9.9 9.9 0 012.56-.32 9.07 9.07 0 013 .47c.66.25.87.55.84.65-.03.1-.28.49-1.17.74a9.53 9.53 0 01-2.56.32 9.09 9.09 0 01-3-.47c-.63-.24-.84-.52-.83-.63-.04-.09.26-.47 1.16-.72zm-8.23-2.89c0-.12.29-.5 1.18-.74a9.51 9.51 0 012.55-.32 9.33 9.33 0 013 .46c.66.25.86.55.84.65-.02.1-.28.49-1.16.74a9.27 9.27 0 01-2.57.32 9 9 0 01-3-.47c-.64-.24-.85-.51-.85-.62zm-5 2.61l4.44-.62v1.33c0 .55.51.91 1.23 1.19a9.5 9.5 0 003.26.51 10.22 10.22 0 002.59-.31v2.21c0 .56.5.91 1.22 1.2a9.51 9.51 0 003.26.5 10.27 10.27 0 002.73-.33c.94-.29 1.55-.66 1.59-1.31V25.1a10.3 10.3 0 002.55-.31V27c0 .56.51.92 1.22 1.19a9.25 9.25 0 003.26.52 10.14 10.14 0 002.73-.35c.93-.28 1.55-.65 1.6-1.3v-1.55l5 2.72-23 3.23zm37.23 22.31c-.09 0-23.37 3.27-23.37 3.27V32.08l23.37-3.28s-.05 17.52-.04 17.64z" fill="#c91a20"/></svg>