<svg xmlns="http://www.w3.org/2000/svg" viewBox="0 0 126.052 138.058"><path d="M86.324 76.271c0-.56-.5-.91-1.22-1.2a9.55 9.55 0 00-3.26-.5 9.77 9.77 0 00-2.73.34c-.93.28-1.55.65-1.6 1.3v1.39l-5.42.76h-.11v18.28a.28.28 0 000 .13l3.77 2.44 10.71 5.82a.35.35 0 00.12 0l24-3.37h.11v-18.27a.24.24 0 000-.12l-6-3.29v-1.14c0-.56-.5-.92-1.23-1.2a9.5 9.5 0 00-3.26-.51h-.72l-1.86-1v-.94c0-.55-.5-.91-1.22-1.2a9.85 9.85 0 00-3.27-.51 9.64 9.64 0 00-2.72.35c-.94.28-1.56.65-1.6 1.29v1.21l-2.55.36" fill="#1ea551"/><path d="M110.954 83.211a.24.24 0 000-.12l-6-3.29v-1.14c0-.56-.5-.92-1.23-1.2a9.5 9.5 0 00-3.26-.51h-.72l-1.86-1v.66l.84.46a6.56 6.56 0 00-.84.17v-2.23c0-.55-.5-.91-1.22-1.2a9.85 9.85 0 00-3.27-.51 9.64 9.64 0 00-2.72.35c-.94.28-1.56.65-1.6 1.29v1.21l-2.55.36v.6l2.54-.36v1.55a9.85 9.85 0 00-2.69.34h.14v-2.23c0-.56-.5-.91-1.22-1.2a9.55 9.55 0 00-3.26-.5 9.77 9.77 0 00-2.73.34c-.93.28-1.55.65-1.6 1.3v1.39l-5.42.76h-.11v18.28a.28.28 0 000 .13l3.58 2.3 10.71 5.82a.35.35 0 00.12 0l24-3.37h.11v-18.27zm-10.69-5.81a9.07 9.07 0 013 .46c.66.25.86.55.84.65-.02.1-.27.49-1.16.74a9.27 9.27 0 01-2.57.32 8.81 8.81 0 01-3-.47c-.63-.23-.84-.51-.84-.62 0-.12.28-.5 1.17-.74a9.53 9.53 0 012.56-.36zm-9.62-3.32a9.59 9.59 0 012.56-.32 8.85 8.85 0 013 .47c.67.24.87.55.85.64-.02.09-.28.5-1.18.75a10 10 0 01-2.56.31 8.86 8.86 0 01-3.05-.46c-.63-.24-.85-.52-.84-.63.02-.16.33-.54 1.22-.78zm-4.3 5a9.48 9.48 0 012.56-.32 8.83 8.83 0 013 .47c.67.25.87.55.85.64-.02.09-.28.5-1.17.75a9.68 9.68 0 01-2.57.31 8.86 8.86 0 01-3-.46c-.63-.24-.84-.53-.84-.63-.04-.11.27-.49 1.17-.73zm-8.24-2.9c0-.12.29-.49 1.18-.74a9.53 9.53 0 012.56-.32 9.26 9.26 0 013 .46c.67.26.87.56.85.65-.02.09-.27.5-1.17.74a9.13 9.13 0 01-2.56.33 8.79 8.79 0 01-3-.48c-.64-.23-.85-.51-.85-.62zm-5.05 2.62l4.45-.63v1.36c0 .56.5.92 1.22 1.2a9.5 9.5 0 003.26.51 10.57 10.57 0 002.59-.31v2.21c0 .56.5.92 1.22 1.2a9.59 9.59 0 003.26.5 10.24 10.24 0 002.74-.33c.94-.3 1.56-.66 1.6-1.31v-3.36a10.17 10.17 0 002.54-.3v2.24c0 .56.5.92 1.22 1.2a9.52 9.52 0 003.27.51 10.2 10.2 0 002.73-.35c.93-.28 1.55-.65 1.59-1.31v-1.52l5 2.72-23 3.23zm37.27 22.32c-.09.06-23.39 3.28-23.39 3.28v-17.61l23.39-3.28s-.01 17.53 0 17.64z" fill="#02743b"/><path d="M86.324 57.981c0-.55-.5-.91-1.22-1.19a9.3 9.3 0 00-3.26-.51 10.15 10.15 0 00-2.73.34c-.93.28-1.55.66-1.6 1.3v1.38l-5.42.76h-.11v18.29a.27.27 0 000 .12.1.1 0 000 .05l3.83 2.08 10.71 5.83a.21.21 0 00.12 0l24-3.37a.25.25 0 00.11 0v-18.26a.27.27 0 000-.12l-6-3.29v-1.18c0-.56-.5-.91-1.23-1.2a9.51 9.51 0 00-3.26-.5h-.72l-1.86-1v-.94c0-.56-.5-.92-1.22-1.2a9.59 9.59 0 00-3.27-.52 10 10 0 00-2.72.35c-.94.28-1.56.65-1.6 1.3v1.19l-2.55.36" fill="#1ea551"/><path d="M110.954 64.901a.27.27 0 000-.12l-6-3.29v-1.28c0-.56-.5-.91-1.23-1.2a9.51 9.51 0 00-3.26-.5h-.72l-1.86-1v.7l.84.45q-.45.08-.84.18v-2.24c0-.56-.5-.92-1.22-1.2a9.59 9.59 0 00-3.27-.52 10 10 0 00-2.72.35c-.94.28-1.56.65-1.6 1.3v1.19l-2.55.36v.6l2.54-.36v1.55a9.85 9.85 0 00-2.69.34h.14v-2.24c0-.55-.5-.91-1.22-1.19a9.3 9.3 0 00-3.26-.51 10.15 10.15 0 00-2.73.34c-.93.28-1.55.66-1.6 1.3v1.38l-5.42.76h-.11v18.29a.27.27 0 000 .12.1.1 0 000 .05l3.83 2.08 10.71 5.83a.21.21 0 00.12 0l24-3.37a.25.25 0 00.11 0v-18.26zm-10.69-5.81a9.33 9.33 0 013 .46c.66.26.86.56.84.65-.02.09-.27.5-1.16.75a9.66 9.66 0 01-2.57.32 9.05 9.05 0 01-3-.47c-.63-.24-.84-.52-.84-.63 0-.12.28-.49 1.17-.74a9.53 9.53 0 012.56-.34zm-9.62-3.32a9.59 9.59 0 012.56-.32 8.85 8.85 0 013 .47c.67.25.87.55.85.65-.02.1-.28.49-1.18.74a9.55 9.55 0 01-2.56.31 8.86 8.86 0 01-3.05-.46c-.63-.24-.85-.52-.84-.63.02-.14.33-.52 1.22-.76zm-4.3 5.05a9.48 9.48 0 012.56-.32 9.07 9.07 0 013 .47c.67.25.87.55.85.65-.02.1-.28.49-1.17.74a9.68 9.68 0 01-2.57.31 8.63 8.63 0 01-3-.46c-.63-.23-.84-.52-.84-.63-.04-.14.27-.52 1.17-.76zm-8.24-2.89c0-.12.29-.49 1.18-.74a9.53 9.53 0 012.56-.32 9 9 0 013 .47c.67.25.87.55.85.64-.02.09-.27.5-1.17.75a9.53 9.53 0 01-2.56.32 9.05 9.05 0 01-3-.47c-.64-.24-.85-.52-.85-.62zm-5.05 2.61l4.45-.63v1.37c0 .55.5.91 1.22 1.19a9.5 9.5 0 003.26.51 10.11 10.11 0 002.59-.31v2.21c0 .56.5.92 1.22 1.2a9.58 9.58 0 003.26.51 10.23 10.23 0 002.74-.34c.94-.29 1.56-.66 1.6-1.31v-3.36a10.64 10.64 0 002.54-.31v2.24c0 .56.5.92 1.22 1.2a9.52 9.52 0 003.27.51 9.81 9.81 0 002.73-.35c.93-.28 1.55-.65 1.59-1.3v-1.55l5 2.72-23 3.23zm37.27 22.33c-.09.05-23.39 3.27-23.39 3.27v-17.61l23.42-3.32s-.04 17.54-.03 17.66z" fill="#02743b"/><path d="M86.324 39.691c0-.56-.5-.92-1.22-1.2a9.54 9.54 0 00-3.26-.51 9.76 9.76 0 00-2.73.35c-.93.28-1.55.65-1.6 1.29v1.38l-5.42.77a.45.45 0 00-.11 0v18.27a.31.31 0 000 .13l3.83 2.09 10.71 5.82a.21.21 0 00.12 0l24-3.37a.17.17 0 00.11 0v-18.37a.27.27 0 000-.12v-.06l-6-3.3v-1.14c0-.55-.5-.91-1.23-1.19a9.5 9.5 0 00-3.26-.51h-.72l-1.86-1v-.93c0-.56-.5-.92-1.22-1.2a9.6 9.6 0 00-3.27-.51 10 10 0 00-2.72.34c-.94.29-1.56.66-1.6 1.3v1.2l-2.55.35" fill="#1ea551"/><path d="M110.954 46.611a.27.27 0 000-.12v-.06l-6-3.3v-1.14c0-.55-.5-.91-1.23-1.19a9.5 9.5 0 00-3.26-.51h-.72l-1.86-1v.67l.84.46a6.56 6.56 0 00-.84.17v-2.23c0-.56-.5-.92-1.22-1.2a9.6 9.6 0 00-3.27-.51 10 10 0 00-2.72.34c-.94.29-1.56.66-1.6 1.3v1.2l-2.55.35v.61l2.54-.36v1.54a10.26 10.26 0 00-2.69.34h.14v-2.24c0-.56-.5-.92-1.22-1.2a9.54 9.54 0 00-3.26-.51 9.76 9.76 0 00-2.73.35c-.93.28-1.55.65-1.6 1.29v1.38l-5.42.77a.45.45 0 00-.11 0v18.27a.31.31 0 000 .13l3.83 2.09 10.71 5.82a.21.21 0 00.12 0l24-3.37a.17.17 0 00.11 0v-18.37zm-10.69-5.8a9.07 9.07 0 013 .46c.66.25.86.55.84.64-.02.09-.27.5-1.16.75a9.66 9.66 0 01-2.57.32 9.05 9.05 0 01-3-.47c-.63-.24-.84-.51-.84-.62 0-.12.28-.49 1.17-.73a9.15 9.15 0 012.56-.35zm-9.62-3.33a10 10 0 012.56-.32 9.09 9.09 0 013 .47c.67.25.87.55.85.65-.02.1-.28.49-1.18.74a9.53 9.53 0 01-2.56.32 8.85 8.85 0 01-3.05-.47c-.63-.23-.85-.52-.84-.63.02-.13.33-.51 1.22-.76zm-4.3 5.06a9.46 9.46 0 012.56-.33 9.07 9.07 0 013 .47c.67.25.87.56.85.65-.02.09-.28.49-1.17.75a10.11 10.11 0 01-2.57.31 8.86 8.86 0 01-3-.46c-.63-.24-.84-.53-.84-.63-.04-.09.27-.52 1.17-.76zm-8.24-2.9c0-.11.29-.49 1.18-.73a9.15 9.15 0 012.56-.32 9 9 0 013 .46c.67.25.87.55.85.65-.02.1-.27.49-1.17.74a9.53 9.53 0 01-2.56.32 8.81 8.81 0 01-3-.47c-.64-.23-.85-.51-.85-.62zm-5.05 2.57l4.45-.62v1.36c0 .56.5.91 1.22 1.19a9.26 9.26 0 003.26.51 10.58 10.58 0 002.59-.3v2.21c0 .56.5.91 1.22 1.19a9.58 9.58 0 003.26.51 9.84 9.84 0 002.74-.34c.94-.29 1.56-.66 1.6-1.31v-3.35a10.17 10.17 0 002.54-.3v2.25c0 .56.5.91 1.22 1.19a9.52 9.52 0 003.27.51 10.21 10.21 0 002.73-.34c.93-.29 1.55-.66 1.59-1.31v-1.55l5 2.72-23 3.23zm37.27 22.33c-.09 0-23.39 3.28-23.39 3.28v-17.61l23.39-3.29s-.01 17.55 0 17.66z" fill="#02743b"/><path d="M86.324 21.411c0-.56-.5-.91-1.22-1.2a9.54 9.54 0 00-3.26-.51 9.76 9.76 0 00-2.73.35c-.93.28-1.55.65-1.6 1.3v1.39l-5.42.76h-.11v18.28a.28.28 0 000 .13l3.83 2.09 10.68 6.21a.35.35 0 00.12 0l24-3.37h.11v-18.27a.2.2 0 000-.11.12.12 0 000-.05l-6-3.29v-1.14c0-.56-.5-.92-1.23-1.2a9.5 9.5 0 00-3.26-.51h-.72l-1.86-1v-.94c0-.55-.5-.91-1.22-1.2a9.85 9.85 0 00-3.27-.51 10 10 0 00-2.72.34c-.94.29-1.56.66-1.6 1.3v1.2l-2.55.36" fill="#1ea551"/><path d="M110.954 28.321a.2.2 0 000-.11.12.12 0 000-.05l-6-3.29v-1.14c0-.56-.5-.92-1.23-1.2a9.5 9.5 0 00-3.26-.51h-.72l-1.86-1v.66l.84.46a6.56 6.56 0 00-.84.17v-2.23c0-.55-.5-.91-1.22-1.2a9.85 9.85 0 00-3.27-.51 10 10 0 00-2.72.34c-.94.29-1.56.66-1.6 1.3v1.2l-2.55.36v.6l2.54-.36v1.55a10.25 10.25 0 00-2.69.35h.14v-2.3c0-.56-.5-.91-1.22-1.2a9.54 9.54 0 00-3.26-.51 9.76 9.76 0 00-2.73.35c-.93.28-1.55.65-1.6 1.3v1.39l-5.42.76h-.11v18.28a.28.28 0 000 .13l3.83 2.09 10.49 6.21a.35.35 0 00.12 0l24-3.37h.11v-18.27zm-10.69-5.8a9.07 9.07 0 013 .46c.66.25.86.55.84.65-.02.1-.27.49-1.16.74a9.27 9.27 0 01-2.57.32 8.81 8.81 0 01-3-.47c-.63-.23-.84-.52-.84-.62 0-.11.28-.49 1.17-.73a9.15 9.15 0 012.56-.35zm-9.62-3.31a9.57 9.57 0 012.56-.33 8.83 8.83 0 013 .48c.67.24.87.55.85.64-.02.09-.28.5-1.18.74a9.53 9.53 0 01-2.56.32 8.86 8.86 0 01-3.05-.46c-.63-.24-.85-.53-.84-.63.02-.15.33-.53 1.22-.76zm-4.3 5a9.48 9.48 0 012.56-.32 8.83 8.83 0 013 .47c.67.25.87.55.85.64-.02.09-.28.5-1.17.75a9.68 9.68 0 01-2.57.31 8.86 8.86 0 01-3-.46c-.63-.24-.84-.53-.84-.63-.04-.1.27-.48 1.17-.76zm-8.24-2.9c0-.12.29-.5 1.18-.74a9.53 9.53 0 012.56-.32 9 9 0 013 .46c.67.25.87.55.85.65-.02.1-.27.49-1.17.74a9.13 9.13 0 01-2.56.33 8.79 8.79 0 01-3-.48c-.64-.23-.85-.51-.85-.62zm-5.05 2.61l4.45-.62v1.36c0 .56.5.92 1.22 1.2a9.5 9.5 0 003.26.51 10.1 10.1 0 002.59-.32v2.22c0 .55.5.91 1.22 1.2a9.59 9.59 0 003.26.5 9.84 9.84 0 002.74-.34c.94-.29 1.56-.66 1.6-1.3v-3.36a10.17 10.17 0 002.54-.3v2.23c0 .56.5.92 1.22 1.19a9.28 9.28 0 003.27.51 10.21 10.21 0 002.73-.34c.93-.29 1.55-.65 1.59-1.31v-1.55l5 2.73-23 3.23zm37.27 22.33c-.09.06-23.39 3.28-23.39 3.28v-17.61l23.39-3.29s-.01 17.58 0 17.66z" fill="#02743b"/><path d="M86.324 3.121c0-.56-.5-.91-1.22-1.2a9.55 9.55 0 00-3.26-.5 9.77 9.77 0 00-2.73.34c-.93.28-1.55.66-1.6 1.3v1.38l-5.42.76h-.11v18.28a.28.28 0 000 .13.1.1 0 000 .05l3.83 2.09 10.71 5.82a.21.21 0 00.12 0l24-3.37h.11v-18.12a.27.27 0 000-.12l-6-3.29v-1.14c0-.56-.5-.91-1.23-1.2a9.5 9.5 0 00-3.26-.51h-.72l-1.86-1v-.94c0-.55-.5-.91-1.22-1.19a9.59 9.59 0 00-3.27-.52 10 10 0 00-2.72.35c-.94.28-1.56.65-1.6 1.3v1.19l-2.55.36" fill="#1ea551"/><path d="M110.954 10.041a.27.27 0 000-.12l-6-3.29v-1.14c0-.56-.5-.91-1.23-1.2a9.5 9.5 0 00-3.26-.51h-.72l-1.86-1v.67l.84.45c-.3.05-.58.1-.84.17v-2.36c0-.55-.5-.91-1.22-1.19a9.59 9.59 0 00-3.27-.52 10 10 0 00-2.72.35c-.94.28-1.56.65-1.6 1.3v1.19l-2.55.36v.6l2.54-.36v1.55a9.85 9.85 0 00-2.69.34h.14v-2.24c0-.56-.5-.91-1.22-1.2a9.55 9.55 0 00-3.26-.5 9.77 9.77 0 00-2.73.34c-.93.28-1.55.66-1.6 1.3v1.38l-5.42.76h-.11v18.28a.28.28 0 000 .13.1.1 0 000 .05l3.83 2.09 10.71 5.82a.21.21 0 00.12 0l24-3.37h.11v-18.09zm-10.69-5.83a9.33 9.33 0 013 .46c.66.25.86.56.84.65-.02.09-.27.5-1.16.74a9.26 9.26 0 01-2.57.33 9.05 9.05 0 01-3-.47c-.63-.24-.84-.52-.84-.63 0-.12.28-.49 1.17-.74a9.53 9.53 0 012.56-.34zm-9.62-3.32a9.59 9.59 0 012.56-.32 8.85 8.85 0 013 .47c.67.25.87.55.85.64-.02.09-.28.5-1.18.75a9.55 9.55 0 01-2.56.31 8.86 8.86 0 01-3.05-.46c-.63-.24-.85-.52-.84-.63.02-.12.33-.5 1.22-.74zm-4.3 5a9.48 9.48 0 012.56-.32 9.07 9.07 0 013 .47c.67.25.87.55.85.64-.02.09-.28.5-1.17.75a9.68 9.68 0 01-2.57.31 8.86 8.86 0 01-3-.46c-.63-.24-.84-.52-.84-.63-.04-.07.27-.44 1.17-.69zm-8.24-2.89c0-.12.29-.49 1.18-.74a9.53 9.53 0 012.56-.32 9.26 9.26 0 013 .46c.67.26.87.56.85.65-.02.09-.27.5-1.17.75a9.53 9.53 0 01-2.56.32 9.05 9.05 0 01-3-.47c-.64-.24-.85-.52-.85-.63zm-5.05 2.61l4.45-.63v1.37c0 .56.5.92 1.22 1.2a9.5 9.5 0 003.26.51 10.11 10.11 0 002.59-.31v2.21c0 .56.5.92 1.22 1.2a9.58 9.58 0 003.26.51 10.23 10.23 0 002.74-.34c.94-.29 1.56-.66 1.6-1.31v-3.36a10.17 10.17 0 002.54-.3v2.24c0 .56.5.92 1.22 1.2a9.52 9.52 0 003.27.51 10.2 10.2 0 002.73-.35c.93-.28 1.55-.65 1.59-1.31v-1.44l5 2.72-23 3.23zm37.27 22.32c-.09.06-23.39 3.28-23.39 3.28v-17.61l23.39-3.28s-.01 17.57 0 17.68z" fill="#02743b"/><path d="M62.324 97.941c0-.55-.49-.91-1.22-1.2a10.85 10.85 0 00-6-.15c-.94.27-1.55.65-1.59 1.29v1.38l-5.42.76h-.1v.05a.25.25 0 000 .07v18.21a.27.27 0 000 .13l3.84 2.1 10.7 5.81a.25.25 0 00.12 0l24-3.37h.11v-18.27a.5.5 0 000-.12v-.05l-6-3.29v-1.08c0-.55-.5-.91-1.23-1.2a9.47 9.47 0 00-3.26-.5h-.72l-1.86-1v-.94c0-.56-.5-.92-1.22-1.2a9.57 9.57 0 00-3.26-.52 10.09 10.09 0 00-2.73.35c-.94.28-1.55.65-1.6 1.29v1.21l-2.55.36" fill="#1ea551"/><path d="M86.954 104.861a.5.5 0 000-.12v-.05l-6-3.29v-1.19c0-.55-.5-.91-1.23-1.2a9.47 9.47 0 00-3.26-.5h-.72l-1.86-1v.67l.84.45a6.52 6.52 0 00-.84.18v-2.24c0-.56-.5-.92-1.22-1.2a9.57 9.57 0 00-3.26-.52 10.09 10.09 0 00-2.73.35c-.94.28-1.55.65-1.6 1.29v1.21l-2.55.36v.6l2.55-.36v1.53a9.8 9.8 0 00-2.69.34h.14v-2.24c0-.55-.49-.91-1.22-1.2a10.85 10.85 0 00-6-.15c-.94.27-1.55.65-1.59 1.29v1.38l-5.42.76h-.1v.05a.25.25 0 000 .07v18.21a.27.27 0 000 .13l3.84 2.09 10.7 5.81a.25.25 0 00.12 0l24-3.37h.11v-18.27zm-10.69-5.81a9.33 9.33 0 013 .46c.67.25.87.56.84.65-.03.09-.27.49-1.16.75a9.66 9.66 0 01-2.57.32 9.05 9.05 0 01-3-.47c-.63-.24-.84-.52-.84-.62 0-.12.28-.5 1.18-.74a9.41 9.41 0 012.55-.35zm-9.62-3.32a9.61 9.61 0 012.57-.32 8.75 8.75 0 013 .47c.67.25.87.55.85.65-.02.1-.28.49-1.17.74a9.68 9.68 0 01-2.57.31 8.86 8.86 0 01-3.05-.46c-.63-.24-.84-.52-.84-.63.01-.14.32-.51 1.21-.76zm-4.3 5.05a9.48 9.48 0 012.56-.32 9 9 0 013 .47c.67.25.87.55.85.65-.02.1-.28.49-1.17.74a9.66 9.66 0 01-2.57.32 9.09 9.09 0 01-3-.47c-.63-.24-.84-.52-.84-.63-.03-.13.27-.51 1.17-.76zm-8.24-2.89c0-.12.29-.49 1.18-.74a9.53 9.53 0 012.56-.32 9.09 9.09 0 013 .47c.66.24.86.55.84.64-.02.09-.28.5-1.17.75a9.53 9.53 0 01-2.56.32 9.05 9.05 0 01-3-.47c-.64-.24-.85-.52-.85-.62zm-5 2.61l4.44-.63v1.34c0 .56.5.92 1.22 1.2a9.5 9.5 0 003.26.51 10.57 10.57 0 002.59-.31v2.21c0 .56.49.92 1.21 1.2a9.6 9.6 0 003.27.51 10.15 10.15 0 002.66-.32c.94-.29 1.56-.66 1.6-1.31v-3.36a10.31 10.31 0 002.55-.3v2.21c0 .56.51.92 1.22 1.2a9.52 9.52 0 003.27.51 10.2 10.2 0 002.73-.35c.93-.28 1.55-.65 1.59-1.3v-1.92.37l5 2.72-23 3.23zm37.26 22.33c-.08 0-23.39 3.28-23.39 3.28v-17.61l23.38-3.29s-.04 17.5-.03 17.62z" fill="#02743b"/><path d="M62.324 79.651c0-.56-.49-.92-1.22-1.2a9.5 9.5 0 00-3.26-.51 9.81 9.81 0 00-2.73.35c-.94.28-1.55.65-1.59 1.29v1.38l-5.42.77a.17.17 0 00-.1 0 .14.14 0 000 .06v18.21a.25.25 0 000 .12l3.84 2.09 10.7 5.82h.12l24-3.37a.25.25 0 00.11 0v-18.32a.5.5 0 000-.12v-.06l-6-3.3v-1.14c0-.56-.5-.92-1.23-1.2a9.46 9.46 0 00-3.26-.51h-.72l-1.86-1v-.8c0-.56-.5-.91-1.22-1.2a9.34 9.34 0 00-3.26-.51 10.1 10.1 0 00-2.73.34c-.94.29-1.55.66-1.6 1.3v1.19l-2.55.36" fill="#1ea551"/><path d="M86.954 86.571a.5.5 0 000-.12v-.06l-6-3.3v-1.14c0-.56-.5-.92-1.23-1.2a9.46 9.46 0 00-3.26-.51h-.72l-1.86-1v.67l.84.45q-.45.07-.84.18v-2.33c0-.56-.5-.91-1.22-1.2a9.34 9.34 0 00-3.26-.51 10.1 10.1 0 00-2.73.34c-.94.29-1.55.66-1.6 1.3v1.19l-2.55.36v.6l2.55-.35v1.52a9.8 9.8 0 00-2.69.34h.14v-2.24c0-.56-.49-.92-1.22-1.2a9.5 9.5 0 00-3.26-.51 9.81 9.81 0 00-2.73.35c-.94.28-1.55.65-1.59 1.29v1.38l-5.42.77a.17.17 0 00-.1 0 .14.14 0 000 .06v18.21a.25.25 0 000 .12l3.84 2.09 10.7 5.82h.12l24-3.37a.25.25 0 00.11 0v-18.32zm-10.69-5.81a9.05 9.05 0 013 .47c.67.25.87.55.84.65-.03.1-.27.49-1.16.74a9.66 9.66 0 01-2.57.32 9.05 9.05 0 01-3-.47c-.63-.24-.84-.52-.84-.63 0-.12.28-.49 1.18-.73a9 9 0 012.55-.35zm-9.62-3.32a9.61 9.61 0 012.57-.32 9 9 0 013 .47c.67.25.87.55.85.65-.02.1-.28.49-1.17.74a9.66 9.66 0 01-2.57.32 8.85 8.85 0 01-3.05-.47c-.63-.24-.84-.52-.84-.63.01-.13.32-.51 1.21-.76zm-4.3 5a9.9 9.9 0 012.56-.32 9 9 0 013 .47c.67.25.87.55.85.65-.02.1-.28.5-1.17.74a9.66 9.66 0 01-2.57.32 8.85 8.85 0 01-3-.47c-.63-.23-.84-.52-.84-.63-.03-.08.27-.46 1.17-.71zm-8.24-2.89c0-.11.29-.49 1.18-.73a10.37 10.37 0 015.61.14c.66.25.86.55.84.65-.02.1-.28.49-1.17.74a9.53 9.53 0 01-2.56.32 9.05 9.05 0 01-3-.47c-.64-.24-.85-.52-.85-.62zm-5 2.61l4.44-.63v1.37c0 .56.5.91 1.22 1.19a9.26 9.26 0 003.26.51 10.11 10.11 0 002.59-.31v2.21c0 .55.49.91 1.21 1.2a9.61 9.61 0 003.27.5 10.15 10.15 0 002.73-.34c.94-.29 1.56-.66 1.6-1.31v-3.35a10.3 10.3 0 002.55-.31v2.21c0 .56.51.92 1.22 1.2a9.52 9.52 0 003.27.51 10.21 10.21 0 002.73-.34c.93-.29 1.55-.66 1.59-1.31v-1.92.37l5 2.72-23 3.23zm37.26 22.33c-.08 0-23.39 3.28-23.39 3.28v-17.61l23.39-3.29s-.05 17.55-.04 17.67z" fill="#02743b"/><path d="M38.344 101.321c0-.56-.5-.91-1.22-1.2a9.51 9.51 0 00-3.26-.5 9.82 9.82 0 00-2.73.34c-.93.28-1.54.66-1.59 1.29v1.39l-5.42.76h-.1a.1.1 0 000 .05v18.27a.27.27 0 000 .13l3.83 2.09 10.71 5.82h.12l24-3.36h.1v-18.33a.36.36 0 000-.11v-.06h-.06l-6-3.3v-1.14c0-.56-.5-.92-1.23-1.2a9.5 9.5 0 00-3.26-.51h-.72l-1.85-1v-.94c0-.56-.5-.91-1.22-1.2a9.54 9.54 0 00-3.26-.51 10.15 10.15 0 00-2.73.34c-.93.29-1.55.66-1.6 1.3v1.2l-2.55.36" fill="#1ea551"/><path d="M62.974 108.211a.36.36 0 000-.11v-.06h-.06l-6-3.3v-1.14c0-.56-.5-.92-1.23-1.2a9.5 9.5 0 00-3.26-.51h-.72l-1.85-1v.66l.84.46a6.93 6.93 0 00-.84.17v-2.27c0-.56-.5-.91-1.22-1.2a9.54 9.54 0 00-3.26-.51 10.15 10.15 0 00-2.73.34c-.93.29-1.55.66-1.6 1.3v1.2l-2.55.36v.6l2.55-.36v1.57a9.9 9.9 0 00-2.69.35h.14v-2.23c0-.56-.5-.91-1.22-1.2a9.51 9.51 0 00-3.26-.5 9.82 9.82 0 00-2.73.34c-.93.28-1.54.66-1.59 1.29v1.39l-5.42.76h-.1a.1.1 0 000 .05v18.27a.27.27 0 000 .13l3.83 2.09 10.71 5.82h.12l24-3.36h.1v-18.33zm-10.69-5.8a9.07 9.07 0 013.05.46c.67.25.87.55.84.65-.03.1-.27.49-1.16.74a9.22 9.22 0 01-2.57.32 8.85 8.85 0 01-3.05-.47c-.63-.24-.84-.51-.84-.62 0-.12.28-.5 1.18-.74a9.51 9.51 0 012.55-.32zm-9.61-3.32a9.48 9.48 0 012.56-.32 9.11 9.11 0 013 .46c.66.25.86.55.84.65-.02.1-.28.5-1.17.74a9.66 9.66 0 01-2.57.32 9.11 9.11 0 01-3-.46c-.63-.24-.84-.53-.84-.63-.02-.12.26-.5 1.18-.74zm-4.31 5.12a9.53 9.53 0 012.56-.32 9.11 9.11 0 013.05.46c.66.26.86.56.84.65-.02.09-.28.5-1.17.75a10.11 10.11 0 01-2.57.31 8.76 8.76 0 01-3-.46c-.63-.24-.85-.53-.84-.63-.07-.19.24-.57 1.13-.76zm-8.23-2.9c0-.12.28-.5 1.17-.74a9.53 9.53 0 012.56-.32 9.11 9.11 0 013 .46c.66.25.87.56.84.65-.03.09-.27.49-1.16.74a9.27 9.27 0 01-2.57.32 8.81 8.81 0 01-3-.47c-.64-.23-.84-.51-.84-.62zm-5 2.61l4.44-.62v1.36c0 .56.5.92 1.22 1.19a9.27 9.27 0 003.27.52 10.69 10.69 0 002.59-.31v2.21c0 .55.5.91 1.22 1.2a9.51 9.51 0 003.26.5 10.15 10.15 0 002.73-.34c.94-.29 1.56-.66 1.6-1.31v-3.35a10.31 10.31 0 002.55-.3v2.2c0 .56.51.92 1.22 1.19a9.32 9.32 0 003.27.51 10.21 10.21 0 002.73-.34c.94-.29 1.55-.65 1.59-1.31v-1.92.37l5 2.73-23 3.23zm37.21 22.29c-.08.06-23.39 3.28-23.39 3.28v-17.61l23.39-3.29s-.01 17.5 0 17.62z" fill="#02743b"/><path d="M38.344 83.031c0-.55-.5-.91-1.22-1.2a9.51 9.51 0 00-3.26-.5 10.21 10.21 0 00-2.73.34c-.93.28-1.54.66-1.59 1.3v1.39l-5.42.76h-.1v18.33a.27.27 0 000 .13l3.83 2.1 10.71 5.81h.12l24-3.37h.1v-18.27a.43.43 0 000-.12v-.05l-6-3.29v-1.14c0-.56-.5-.92-1.23-1.2a9.51 9.51 0 00-3.26-.5h-.72l-1.85-1v-.94c0-.55-.5-.91-1.22-1.2a9.79 9.79 0 00-3.26-.51 10.14 10.14 0 00-2.73.35c-.93.28-1.55.65-1.6 1.29v1.19l-2.55.36" fill="#1ea551"/><path d="M62.974 89.951a.43.43 0 000-.12v-.05l-6-3.29v-1.14c0-.56-.5-.92-1.23-1.2a9.51 9.51 0 00-3.26-.5h-.72l-1.85-1v.56l.84.45c-.29 0-.58.11-.84.18v-2.24c0-.55-.5-.91-1.22-1.2a9.79 9.79 0 00-3.26-.51 10.14 10.14 0 00-2.73.35c-.93.28-1.55.65-1.6 1.29v1.19l-2.55.36v.6l2.55-.36v1.53a10.3 10.3 0 00-2.69.35h.14v-2.23c0-.55-.5-.91-1.22-1.2a9.51 9.51 0 00-3.26-.5 10.21 10.21 0 00-2.73.34c-.93.28-1.54.66-1.59 1.3v1.39l-5.42.76h-.1v18.33a.27.27 0 000 .13l3.83 2.1 10.71 5.81h.12l24-3.37h.1v-18.27zm-10.69-5.81a9.33 9.33 0 013.05.46c.67.25.87.56.84.65-.03.09-.27.49-1.16.75a9.61 9.61 0 01-2.57.32 9.09 9.09 0 01-3.05-.47c-.63-.24-.84-.52-.84-.63 0-.12.28-.5 1.18-.74a9.51 9.51 0 012.55-.34zm-9.61-3.32a9.48 9.48 0 012.56-.32 9.09 9.09 0 013 .47c.66.25.86.55.84.64-.02.09-.28.5-1.17.75a9.68 9.68 0 01-2.57.31 8.86 8.86 0 01-3-.46c-.63-.24-.84-.52-.84-.63-.02-.14.26-.52 1.18-.76zm-4.31 5a9.53 9.53 0 012.56-.32 9.09 9.09 0 013.05.47c.66.25.86.55.84.65-.02.1-.28.49-1.17.74a9.68 9.68 0 01-2.57.31 8.76 8.76 0 01-3-.46c-.63-.24-.85-.52-.84-.63-.07-.09.24-.47 1.13-.71zm-8.23-2.9c0-.12.28-.49 1.17-.74a9.53 9.53 0 012.56-.32 9.09 9.09 0 013 .47c.66.24.87.55.84.64-.03.09-.27.5-1.16.75a9.66 9.66 0 01-2.57.32 9.05 9.05 0 01-3-.47c-.64-.24-.84-.52-.84-.63zm-5 2.62l4.44-.63v1.37c0 .56.5.92 1.22 1.2a9.52 9.52 0 003.27.51 10.69 10.69 0 002.59-.31v2.21c0 .56.5.92 1.22 1.2a9.5 9.5 0 003.26.51 9.76 9.76 0 002.73-.35c.94-.28 1.56-.65 1.6-1.3v-3.41a10.31 10.31 0 002.55-.3v2.21c0 .56.51.92 1.22 1.19a9.31 9.31 0 003.27.52 10.2 10.2 0 002.73-.35c.94-.28 1.55-.65 1.59-1.3v-1.92.37l5 2.72-23 3.23zm37.26 22.32c-.08.06-23.39 3.28-23.39 3.28v-17.61l23.39-3.28s-.06 17.55-.05 17.66z" fill="#02743b"/><path d="M14.364 86.391c0-.56-.5-.91-1.23-1.2a11 11 0 00-6-.16c-.93.28-1.54.65-1.59 1.3v1.38l-5.42.76h-.1v18.27a.51.51 0 000 .13l3.84 2.09 10.7 5.82h.12l24-3.37h.1v-18.27a.43.43 0 000-.12l-6.03-3.26v-1.14c0-.56-.5-.92-1.22-1.2a9.57 9.57 0 00-3.27-.5h-.72l-1.85-1v-.94c0-.56-.5-.92-1.22-1.21a9.74 9.74 0 00-3.26-.51 10.14 10.14 0 00-2.73.35c-.93.28-1.55.65-1.6 1.29v1.19l-2.54.36" fill="#1ea551"/><path d="M38.984 93.311a.43.43 0 000-.12l-6.23-3.43v-1.14c0-.56-.5-.92-1.22-1.2a9.57 9.57 0 00-3.27-.5h-.72l-1.85-1v.67l.84.45c-.29 0-.57.1-.84.17v-2.23c0-.56-.5-.92-1.22-1.21a9.74 9.74 0 00-3.26-.51 10.14 10.14 0 00-2.73.35c-.93.28-1.55.65-1.6 1.29v1.19l-2.54.36v.6l2.55-.36v1.52a9.91 9.91 0 00-2.69.34h.14v-2.24c0-.56-.5-.91-1.23-1.2a11 11 0 00-6-.16c-.93.28-1.54.65-1.59 1.3v1.38l-5.42.76h-.1v18.27a.51.51 0 000 .13l3.84 2.09 10.7 5.82h.12l24-3.37h.1v-18.27zm-10.69-5.81a9.28 9.28 0 013.05.46c.67.25.87.55.84.65-.03.1-.27.5-1.16.74a9.16 9.16 0 01-2.57.33 8.83 8.83 0 01-3.05-.48c-.63-.23-.84-.51-.84-.62 0-.12.29-.5 1.18-.74a9.51 9.51 0 012.55-.34zm-9.62-3.29a9.66 9.66 0 012.57-.32 8.85 8.85 0 013 .47c.66.25.87.55.84.65-.03.1-.28.49-1.17.74a9.63 9.63 0 01-2.57.31 8.86 8.86 0 01-3-.46c-.63-.24-.84-.52-.83-.63-.03-.17.24-.55 1.16-.76zm-4.3 5a9.53 9.53 0 012.56-.32 9.09 9.09 0 013.05.47c.67.25.86.55.84.65-.02.1-.28.49-1.17.74a9.61 9.61 0 01-2.57.32 9 9 0 01-3-.47c-.64-.24-.85-.52-.84-.63-.07-.12.24-.5 1.13-.76zm-8.23-2.89c0-.12.28-.49 1.17-.74a9.53 9.53 0 012.56-.32 9.09 9.09 0 013 .47c.66.25.87.55.84.64-.03.09-.27.5-1.16.75a9.66 9.66 0 01-2.57.32 9.09 9.09 0 01-3-.47c-.64-.24-.84-.52-.84-.63zm-5 2.61l4.44-.63v1.37c0 .56.51.92 1.22 1.2a9.52 9.52 0 003.27.51 10.54 10.54 0 002.58-.31v2.21c0 .56.5.92 1.22 1.2a9.5 9.5 0 003.26.51 10.15 10.15 0 002.73-.34c.94-.3 1.56-.66 1.6-1.31v-3.41a10.31 10.31 0 002.55-.3v2.21c0 .56.51.92 1.23 1.2a9.5 9.5 0 003.26.51 10.2 10.2 0 002.73-.35c.94-.28 1.55-.65 1.59-1.31v-1.92.38l5 2.72-23 3.23zm37.26 22.32c-.08.06-23.39 3.28-23.39 3.28v-17.6l23.38-3.29s-.05 17.57-.04 17.63z" fill="#02743b"/><path d="M14.364 68.101c0-.56-.5-.92-1.23-1.2a9.5 9.5 0 00-3.26-.51 10.21 10.21 0 00-2.73.34c-.93.28-1.54.66-1.59 1.3v1.38l-5.42.77a.19.19 0 00-.1 0v18.27a.43.43 0 000 .12l3.84 2.09 10.7 5.82a.28.28 0 00.12 0l24-3.37a.21.21 0 00.1 0v-18.28a.5.5 0 000-.12v-.06l-6.04-3.18v-1.14c0-.56-.5-.91-1.22-1.2a9.81 9.81 0 00-3.27-.5h-.72l-1.85-1v-.94c0-.56-.5-.92-1.22-1.2a9.49 9.49 0 00-3.26-.52 10.14 10.14 0 00-2.73.35c-.93.28-1.55.65-1.6 1.3v1.19l-2.54.36" fill="#1ea551"/><path d="M38.984 75.021a.5.5 0 000-.12v-.06l-6.23-3.37v-1.14c0-.56-.5-.91-1.22-1.2a9.81 9.81 0 00-3.27-.5h-.72l-1.85-1v.67l.84.45q-.43.08-.84.18v-2.24c0-.56-.5-.92-1.22-1.2a9.49 9.49 0 00-3.26-.52 10.14 10.14 0 00-2.73.35c-.93.28-1.55.65-1.6 1.3v1.19l-2.54.36v.6l2.55-.35v1.52a9.91 9.91 0 00-2.69.34h.14v-2.24c0-.56-.5-.92-1.23-1.2a9.5 9.5 0 00-3.26-.51 10.21 10.21 0 00-2.73.34c-.93.28-1.54.66-1.59 1.3v1.38l-5.42.77a.19.19 0 00-.1 0v18.27a.43.43 0 000 .12l3.84 2.09 10.7 5.82a.28.28 0 00.12 0l24-3.37a.21.21 0 00.1 0v-18.28zm-10.69-5.81a9 9 0 013.05.47c.67.24.87.55.84.64-.03.09-.27.5-1.16.75a9.56 9.56 0 01-2.57.32 9.09 9.09 0 01-3.05-.47c-.63-.24-.84-.52-.84-.63 0-.12.29-.49 1.18-.74a9.51 9.51 0 012.55-.34zm-9.62-3.32a9.66 9.66 0 012.57-.32 9.09 9.09 0 013 .47c.66.25.87.55.84.65-.03.1-.28.49-1.17.74a9.61 9.61 0 01-2.57.32 8.85 8.85 0 01-3-.47c-.63-.24-.84-.52-.83-.63-.03-.13.24-.52 1.16-.76zm-4.3 5.05a10 10 0 012.56-.32 9.09 9.09 0 013.05.47c.67.25.86.55.84.65-.02.1-.28.49-1.17.74a9.61 9.61 0 01-2.57.32 8.79 8.79 0 01-3-.47c-.64-.23-.85-.52-.84-.63-.07-.13.24-.49 1.13-.76zm-8.23-2.89c0-.12.28-.49 1.17-.73a10.37 10.37 0 015.61.14c.66.25.87.55.84.65-.03.1-.27.49-1.16.74a9.66 9.66 0 01-2.57.32 9.09 9.09 0 01-3-.47c-.64-.24-.84-.52-.84-.62zm-5 2.61l4.44-.63v1.37c0 .56.51.91 1.22 1.19a9.28 9.28 0 003.27.51 10.08 10.08 0 002.58-.31v2.21c0 .55.5.91 1.22 1.19a9.5 9.5 0 003.26.51 10.15 10.15 0 002.73-.34c.94-.29 1.56-.66 1.6-1.31v-3.36a10.3 10.3 0 002.55-.31v2.21c0 .56.51.92 1.23 1.2a9.5 9.5 0 003.26.51 10.21 10.21 0 002.73-.34c.94-.29 1.55-.66 1.59-1.31v-1.92.37l5 2.72-23 3.23zm37.26 22.33c-.08.05-23.39 3.28-23.39 3.28v-17.61l23.38-3.29s-.05 17.51-.04 17.62z" fill="#02743b"/><path d="M14.364 49.811c0-.56-.5-.92-1.23-1.2a9.5 9.5 0 00-3.26-.51 9.81 9.81 0 00-2.73.35c-.93.28-1.54.65-1.59 1.29v1.39l-5.42.76h-.1v18.27a.51.51 0 000 .13l3.84 2.09 10.7 5.82a.28.28 0 00.12 0l24.06-2.99a.24.24 0 00.1 0v-.05a.64.64 0 000-.07v-18.21a.5.5 0 000-.12v-.06l-6.1-3.49v-1.14c0-.56-.5-.92-1.22-1.2a9.56 9.56 0 00-3.27-.51h-.72l-1.85-1v-.94c0-.56-.5-.91-1.22-1.2a9.5 9.5 0 00-3.26-.51 10.15 10.15 0 00-2.73.34c-.93.29-1.55.66-1.6 1.3v1.2l-2.54.36" fill="#1ea551"/><path d="M38.984 56.731a.5.5 0 000-.12v-.06l-6.23-3.34v-1.14c0-.56-.5-.92-1.22-1.2a9.56 9.56 0 00-3.27-.51h-.72l-1.85-1v.66l.84.46a7.34 7.34 0 00-.84.17v-2.24c0-.56-.5-.91-1.22-1.2a9.5 9.5 0 00-3.26-.51 10.15 10.15 0 00-2.73.34c-.93.29-1.55.66-1.6 1.3v1.2l-2.54.36v.6l2.55-.36v1.53a10.31 10.31 0 00-2.69.34h.14v-2.24c0-.56-.5-.92-1.23-1.2a9.5 9.5 0 00-3.26-.51 9.81 9.81 0 00-2.73.35c-.93.28-1.54.65-1.59 1.29v1.39l-5.42.76h-.1v18.27a.51.51 0 000 .13l3.84 2.09 10.7 5.82h.12l24.08-2.95a.24.24 0 00.1 0v-.05a.64.64 0 000-.07v-18.21zm-10.69-5.8a9 9 0 013.05.46c.67.25.87.55.84.65-.03.1-.27.49-1.16.74a10.29 10.29 0 01-5.62-.15c-.63-.24-.84-.51-.84-.62 0-.13.29-.5 1.18-.74a9.51 9.51 0 012.55-.34zm-9.62-3.33a10.09 10.09 0 012.57-.32 9.09 9.09 0 013 .47c.66.25.87.56.84.65-.03.09-.28.49-1.17.74a9.61 9.61 0 01-2.57.32 8.85 8.85 0 01-3-.47c-.63-.23-.84-.52-.83-.62-.03-.16.24-.52 1.16-.77zm-4.3 5.06a9.52 9.52 0 012.56-.33 8.83 8.83 0 013.05.48c.67.24.86.55.84.64-.02.09-.28.49-1.17.75a10.05 10.05 0 01-2.57.31 8.8 8.8 0 01-3-.46c-.64-.24-.85-.53-.84-.63-.07-.14.24-.52 1.13-.76zm-8.23-2.9c0-.12.28-.5 1.17-.74a9.53 9.53 0 012.56-.32 9.37 9.37 0 013 .46c.66.25.87.56.84.65-.03.09-.27.49-1.16.74a9.66 9.66 0 01-2.57.32 8.85 8.85 0 01-3-.47c-.64-.23-.84-.51-.84-.62zm-5 2.61l4.44-.62v1.36c0 .56.51.91 1.22 1.19a9.27 9.27 0 003.27.52 10.54 10.54 0 002.58-.31v2.21c0 .56.5.91 1.22 1.19a9.26 9.26 0 003.26.51 9.77 9.77 0 002.73-.34c.94-.29 1.56-.66 1.6-1.3v-3.36a10.31 10.31 0 002.55-.3v2.2c0 .56.51.91 1.23 1.19a9.26 9.26 0 003.26.51 10.21 10.21 0 002.73-.34c.94-.29 1.55-.65 1.59-1.31v-1.92.37l5 2.72-23 3.24zm37.26 22.33c-.08 0-23.39 3.28-23.39 3.28v-17.61l23.38-3.28s-.05 17.5-.04 17.61z" fill="#02743b"/><path d="M14.364 31.531c0-.56-.5-.91-1.23-1.2a9.51 9.51 0 00-3.26-.5 9.82 9.82 0 00-2.73.34c-.93.28-1.54.65-1.59 1.3v1.39l-5.42.76h-.1v18.28a.51.51 0 000 .13l3.84 2.09 10.7 5.82h.12l24-3.37h.1v-18.27a.37.37 0 000-.12.1.1 0 000-.05l-6.04-3.23v-1.14c0-.56-.5-.92-1.22-1.2a9.57 9.57 0 00-3.27-.5h-.72l-1.85-1v-.94c0-.55-.5-.91-1.22-1.2a9.74 9.74 0 00-3.26-.51 10.14 10.14 0 00-2.73.35c-.93.28-1.55.65-1.6 1.29v1.19l-2.54.36" fill="#1ea551"/><path d="M38.984 38.451a.37.37 0 000-.12.1.1 0 000-.05l-6.23-3.38v-1.14c0-.56-.5-.92-1.22-1.2a9.57 9.57 0 00-3.27-.5h-.72l-1.85-1v.66l.84.46c-.29 0-.57.1-.84.17v-2.23c0-.55-.5-.91-1.22-1.2a9.74 9.74 0 00-3.26-.51 10.14 10.14 0 00-2.73.35c-.93.28-1.55.65-1.6 1.29v1.19l-2.54.36v.6l2.55-.36v1.53a10.3 10.3 0 00-2.69.35h.14v-2.23c0-.56-.5-.91-1.23-1.2a9.51 9.51 0 00-3.26-.5 9.82 9.82 0 00-2.73.34c-.93.28-1.54.65-1.59 1.3v1.39l-5.42.76h-.1v18.28a.51.51 0 000 .13l3.84 2.09 10.7 5.82h.12l24-3.37h.1v-18.27zm-10.69-5.81a9 9 0 013.05.46c.67.25.87.55.84.65-.03.1-.27.49-1.16.74a9.16 9.16 0 01-2.57.33 8.83 8.83 0 01-3.05-.48c-.63-.23-.84-.51-.84-.62 0-.12.29-.5 1.18-.74a9.13 9.13 0 012.55-.34zm-9.62-3.32a9.66 9.66 0 012.57-.32 8.85 8.85 0 013 .47c.66.24.87.55.84.64-.03.09-.28.5-1.17.75a10.05 10.05 0 01-2.57.31 8.86 8.86 0 01-3-.46c-.63-.24-.84-.53-.83-.63-.03-.14.24-.52 1.16-.76zm-4.3 5a9.53 9.53 0 012.56-.32 9.09 9.09 0 013.05.47c.67.25.86.55.84.65-.02.1-.28.49-1.17.74a9.63 9.63 0 01-2.57.31 8.8 8.8 0 01-3-.46c-.64-.24-.85-.52-.84-.63-.07-.09.24-.47 1.13-.71zm-8.23-2.9c0-.12.28-.49 1.17-.74a9.53 9.53 0 012.56-.32 9.37 9.37 0 013 .46c.66.25.87.56.84.65-.03.09-.27.5-1.16.74a9.26 9.26 0 01-2.57.33 9.09 9.09 0 01-3-.47c-.64-.24-.84-.52-.84-.63zm-5 2.61l4.44-.62v1.36c0 .56.51.92 1.22 1.2a9.52 9.52 0 003.27.51 10.54 10.54 0 002.58-.31v2.21c0 .56.5.91 1.22 1.2a9.51 9.51 0 003.26.5 10.17 10.17 0 002.73-.33c.94-.3 1.56-.66 1.6-1.31v-3.36a.43.43 0 000-.05 10.31 10.31 0 002.55-.3v2.21c0 .56.51.92 1.23 1.19a9.25 9.25 0 003.26.52 10.2 10.2 0 002.73-.35c.94-.28 1.55-.65 1.59-1.31v-1.92.38l5 2.72-23 3.23zm37.21 22.38c-.08.06-23.39 3.28-23.39 3.28v-17.61l23.38-3.28s0 17.5.01 17.61z" fill="#02743b"/><path d="M14.364 13.211c0-.55-.5-.91-1.23-1.2a9.51 9.51 0 00-3.26-.5 10.21 10.21 0 00-2.73.34c-.93.28-1.54.66-1.59 1.3v1.38l-5.42.76h-.1v18.27a.51.51 0 000 .13.09.09 0 000 .05l3.84 2.1 10.7 5.81a.28.28 0 00.12 0l24-3.37h.1v-18.28a.5.5 0 000-.12l-6.04-3.27v-1.14c0-.56-.5-.91-1.22-1.2a9.57 9.57 0 00-3.27-.5h-.72l-1.85-1v-.94c0-.56-.5-.92-1.22-1.2a9.49 9.49 0 00-3.26-.52 10.14 10.14 0 00-2.73.35c-.93.28-1.55.65-1.6 1.3v1.19l-2.54.36" fill="#1ea551"/><path d="M38.984 20.211a.5.5 0 000-.12l-6.23-3.48v-1.14c0-.56-.5-.91-1.22-1.2a9.57 9.57 0 00-3.27-.5h-.72l-1.85-1v.67l.84.45a7.34 7.34 0 00-.84.18v-2.24c0-.56-.5-.92-1.22-1.2a9.49 9.49 0 00-3.26-.52 10.14 10.14 0 00-2.73.35c-.93.28-1.55.65-1.6 1.3v1.19l-2.54.36v.6l2.55-.36v1.53a9.91 9.91 0 00-2.69.34h.14v-2.24c0-.55-.5-.91-1.23-1.2a9.51 9.51 0 00-3.26-.5 10.21 10.21 0 00-2.73.34c-.93.28-1.54.66-1.59 1.3v1.38l-5.42.76h-.1v18.27a.51.51 0 000 .13.09.09 0 000 .05l3.84 2.1 10.7 5.81a.28.28 0 00.12 0l24-3.37h.1v-18.28zm-10.69-5.81a9.28 9.28 0 013.05.46c.67.25.87.56.84.65-.03.09-.27.5-1.16.74a10.15 10.15 0 01-5.62-.14c-.63-.24-.84-.52-.84-.63 0-.12.29-.49 1.18-.74a9.51 9.51 0 012.55-.39zm-9.62-3.32a9.66 9.66 0 012.57-.32 9.09 9.09 0 013 .47c.66.25.87.55.84.65-.03.1-.28.49-1.17.74a9.63 9.63 0 01-2.57.31 8.86 8.86 0 01-3-.46c-.63-.24-.84-.52-.83-.63-.03-.19.24-.57 1.16-.81zm-4.3 5a9.53 9.53 0 012.56-.32 9.09 9.09 0 013.05.47c.67.25.86.56.84.65-.02.09-.28.49-1.17.74a9.63 9.63 0 01-2.57.31 8.57 8.57 0 01-3-.46c-.64-.23-.85-.52-.84-.63-.07-.14.24-.51 1.13-.76zm-8.23-2.87c0-.12.28-.49 1.17-.74a9.53 9.53 0 012.56-.32 9.09 9.09 0 013 .47c.66.25.87.55.84.64-.03.09-.27.5-1.16.75a9.66 9.66 0 01-2.57.32 9.09 9.09 0 01-3-.47c-.64-.24-.84-.52-.84-.62zm-5 2.61l4.44-.63v1.37c0 .55.51.91 1.22 1.19a9.52 9.52 0 003.27.51 10.08 10.08 0 002.58-.31v2.21c0 .56.5.92 1.22 1.2a9.5 9.5 0 003.26.51 10.15 10.15 0 002.73-.34c.94-.29 1.56-.66 1.6-1.31v-3.36a9.85 9.85 0 002.55-.3v2.21c0 .56.51.92 1.23 1.2a9.5 9.5 0 003.26.51 9.81 9.81 0 002.73-.35c.94-.28 1.55-.65 1.59-1.3v-1.92.37l5 2.72-23.07 3.21zm37.26 22.32c-.08.06-23.39 3.29-23.39 3.29v-17.61l23.38-3.29s-.05 17.48-.04 17.59z" fill="#02743b"/><path d="M101.424 84.511c0-.56-.5-.91-1.23-1.2a9.47 9.47 0 00-3.26-.5 9.87 9.87 0 00-2.73.34c-.93.28-1.54.65-1.59 1.29v1.39l-5.42.76a.25.25 0 00-.11 0v18.28a.28.28 0 000 .13l3.83 2.09 10.7 5.82a.28.28 0 00.13 0l24-3.36a.24.24 0 00.1-.05.14.14 0 000-.07v-18.25a.22.22 0 000-.12l-6.06-3.29v-1.14c0-.56-.5-.92-1.22-1.2a9.55 9.55 0 00-3.26-.5h-.73l-1.85-1v-.94c0-.56-.51-.91-1.23-1.2a9.74 9.74 0 00-3.26-.51 10.14 10.14 0 00-2.73.35c-.93.28-1.55.65-1.6 1.29v1.29l-2.55.36" fill="#1ea551"/><path d="M126.044 91.431a.22.22 0 000-.12l-6.06-3.29v-1.14c0-.56-.5-.92-1.22-1.2a9.55 9.55 0 00-3.26-.5h-.73l-1.85-1v.66l.83.46a7.34 7.34 0 00-.84.17v-2.23c0-.56-.51-.91-1.23-1.2a9.74 9.74 0 00-3.26-.51 10.14 10.14 0 00-2.73.35c-.93.28-1.55.65-1.6 1.29v1.04l-2.55.36v.6l2.54-.36v1.53a10.32 10.32 0 00-2.7.35h.14v-2.23c0-.56-.5-.91-1.23-1.2a9.47 9.47 0 00-3.26-.5 9.87 9.87 0 00-2.73.34c-.93.28-1.54.65-1.59 1.29v1.39l-5.42.76a.25.25 0 00-.11 0v18.28a.28.28 0 000 .13l3.83 2.09 10.7 5.82a.28.28 0 00.13 0l24-3.36a.24.24 0 00.1-.05.14.14 0 000-.07v-18.25zm-10.68-5.81a9 9 0 013 .46c.67.25.87.55.85.65-.02.1-.28.49-1.17.74a9.17 9.17 0 01-2.57.32 8.85 8.85 0 01-3-.47c-.63-.23-.83-.51-.83-.62 0-.12.28-.5 1.17-.74a9.15 9.15 0 012.55-.34zm-9.62-3.32a9.52 9.52 0 012.56-.33 9.09 9.09 0 013.05.47c.66.25.87.56.84.65-.03.09-.28.5-1.17.75a10 10 0 01-2.57.31 8.8 8.8 0 01-3-.46c-.63-.24-.85-.53-.84-.63-.07-.14.24-.52 1.14-.76zm-4.31 5a9.57 9.57 0 012.56-.33 8.83 8.83 0 013 .48c.67.24.87.55.85.64-.02.09-.28.49-1.17.75a10.11 10.11 0 01-2.57.31 8.86 8.86 0 01-3-.46c-.63-.24-.85-.53-.84-.63-.03-.09.28-.47 1.17-.71zm-8.23-2.9c0-.12.28-.5 1.18-.74a9.08 9.08 0 012.55-.32 9.28 9.28 0 013.05.46c.67.25.87.55.84.65-.03.1-.27.49-1.16.74a9.22 9.22 0 01-2.57.32 8.85 8.85 0 01-3.05-.47c-.63-.23-.84-.51-.84-.62zm-5.05 2.61l4.44-.62v1.36c0 .56.51.92 1.23 1.19a9.18 9.18 0 003.26.52 10.63 10.63 0 002.59-.31v2.21c0 .56.5.91 1.22 1.2a9.55 9.55 0 003.26.5 9.89 9.89 0 002.74-.34c.94-.29 1.55-.66 1.59-1.3v-3.36a10.25 10.25 0 002.55-.3v2.23c0 .56.5.91 1.22 1.19a9.26 9.26 0 003.26.51 10.33 10.33 0 002.74-.34c.93-.29 1.55-.65 1.59-1.31v-1.54l5 2.71-23 3.24zm37.26 22.33c-.08.06-23.39 3.28-23.39 3.28v-17.61l23.39-3.28v17.66z" fill="#02743b"/><path d="M101.424 66.211c0-.55-.5-.91-1.23-1.2a9.71 9.71 0 00-3.26-.5 10.26 10.26 0 00-2.73.34c-.93.28-1.54.66-1.59 1.3v1.39l-5.42.76h-.11v18.28a.28.28 0 000 .13v.05l3.83 2.1 10.7 5.81a.28.28 0 00.13 0l24-3.37h.1a.11.11 0 000-.06v-18.26a.23.23 0 000-.12l-6.06-3.29v-1.14c0-.56-.5-.91-1.22-1.2a9.55 9.55 0 00-3.26-.5h-.73l-1.85-1v-.94c0-.56-.51-.92-1.23-1.21a9.74 9.74 0 00-3.26-.51 10.14 10.14 0 00-2.73.35c-.93.29-1.55.65-1.6 1.29v1.19l-2.55.36" fill="#1ea551"/><path d="M126.044 73.141a.23.23 0 000-.12l-6.06-3.29v-1.14c0-.56-.5-.91-1.22-1.2a9.55 9.55 0 00-3.26-.5h-.73l-1.85-1v.66l.83.46a7.34 7.34 0 00-.84.18v-2.24c0-.56-.51-.92-1.23-1.21a9.74 9.74 0 00-3.26-.51 10.14 10.14 0 00-2.73.35c-.93.29-1.55.65-1.6 1.29v1.19l-2.55.36v.6l2.54-.36v1.53a9.93 9.93 0 00-2.7.34h.14v-2.24c0-.55-.5-.91-1.23-1.2a9.71 9.71 0 00-3.26-.5 10.26 10.26 0 00-2.73.34c-.93.28-1.54.66-1.59 1.3v1.39l-5.42.76h-.11v18.28a.28.28 0 000 .13v.05l3.83 2.1 10.7 5.81a.28.28 0 00.13 0l24-3.37h.1a.11.11 0 000-.06v-18.26zm-10.68-5.81a9 9 0 013 .47c.67.24.87.55.85.64-.02.09-.28.5-1.17.74a9.17 9.17 0 01-2.57.32 8.85 8.85 0 01-3-.47c-.63-.23-.83-.51-.83-.62 0-.12.28-.5 1.17-.74a9.53 9.53 0 012.55-.34zm-9.61-3.32a9.53 9.53 0 012.56-.32 9.09 9.09 0 013.05.47c.66.25.87.55.84.65-.03.1-.28.49-1.17.74a9.58 9.58 0 01-2.57.31 8.8 8.8 0 01-3-.46c-.63-.24-.85-.53-.84-.63-.08-.14.23-.56 1.13-.76zm-4.31 5.05a9.59 9.59 0 012.56-.32 9.09 9.09 0 013 .47c.67.25.87.55.85.65-.02.1-.28.49-1.17.74a9.66 9.66 0 01-2.57.32 9.09 9.09 0 01-3-.47c-.63-.24-.85-.53-.84-.63-.04-.13.27-.52 1.16-.76zm-8.23-2.9c0-.12.28-.49 1.18-.74a9.46 9.46 0 012.55-.32 9 9 0 013.05.47c.67.25.87.55.84.64-.03.09-.27.5-1.16.74a9.21 9.21 0 01-2.57.33 9.09 9.09 0 01-3.05-.47c-.63-.24-.84-.52-.84-.63zm-5.05 2.62l4.44-.63v1.37c0 .56.51.92 1.23 1.2a9.42 9.42 0 003.26.51 10.63 10.63 0 002.59-.31v2.21c0 .56.5.92 1.22 1.2a9.54 9.54 0 003.26.51 10.28 10.28 0 002.74-.34c.94-.3 1.55-.66 1.59-1.31v-3.36a10.25 10.25 0 002.55-.3v2.24c0 .56.5.92 1.22 1.2a9.5 9.5 0 003.26.51 10.33 10.33 0 002.74-.35c.93-.28 1.55-.65 1.59-1.3v-1.55l5 2.72-23 3.23zm37.26 22.32c-.08.06-23.39 3.29-23.39 3.29v-17.61l23.39-3.29-.01 17.61z" fill="#02743b"/><path d="M101.424 47.931c0-.56-.5-.92-1.23-1.2a9.46 9.46 0 00-3.26-.51 9.86 9.86 0 00-2.73.35c-.93.27-1.54.65-1.59 1.29v1.38l-5.42.77a.23.23 0 00-.11 0v18.32a.35.35 0 000 .13l3.83 2.09 10.7 5.82a.28.28 0 00.13 0l24-3.37a.21.21 0 00.1 0 .19.19 0 000-.07v-18.25a.25.25 0 000-.12v-.06l-6.06-3.3v-.99c0-.55-.5-.91-1.22-1.2a9.8 9.8 0 00-3.26-.5h-.73l-1.85-1v-.94c0-.56-.51-.92-1.23-1.2a9.26 9.26 0 00-3.26-.51 10.15 10.15 0 00-2.73.34c-.93.29-1.55.65-1.6 1.3v1.19l-2.55.36" fill="#1ea551"/><path d="M126.044 54.851a.25.25 0 000-.12v-.06l-6.06-3.3v-1.16c0-.55-.5-.91-1.22-1.2a9.8 9.8 0 00-3.26-.5h-.73l-1.85-1v.67l.83.45q-.43.07-.84.18v-2.24c0-.56-.51-.92-1.23-1.2a9.26 9.26 0 00-3.26-.51 10.15 10.15 0 00-2.73.34c-.93.29-1.55.65-1.6 1.3v1.19l-2.55.36v.6l2.54-.35v1.52a9.93 9.93 0 00-2.7.34h.14v-2.24c0-.56-.5-.92-1.23-1.2a9.46 9.46 0 00-3.26-.51 9.86 9.86 0 00-2.73.35c-.93.27-1.54.65-1.59 1.29v1.38l-5.42.77a.23.23 0 00-.11 0v18.32a.35.35 0 000 .13l3.83 2.09 10.7 5.82a.28.28 0 00.13 0l24-3.37a.14.14 0 00.1 0 .19.19 0 000-.07v-18.25zm-10.68-5.81a9 9 0 013 .47c.67.25.87.55.85.64-.02.09-.28.5-1.17.75a9.56 9.56 0 01-2.57.32 9.09 9.09 0 01-3-.47c-.63-.24-.83-.52-.83-.62 0-.12.28-.49 1.17-.74a9.53 9.53 0 012.55-.35zm-9.62-3.32a9.53 9.53 0 012.56-.32 9.09 9.09 0 013.05.47c.66.25.87.55.84.65-.03.1-.28.49-1.17.74a9.56 9.56 0 01-2.57.32 9 9 0 01-3-.47c-.63-.24-.85-.52-.84-.63-.07-.13.24-.52 1.14-.76zm-4.31 5a10 10 0 012.56-.32 9.09 9.09 0 013 .47c.67.25.87.55.85.65-.02.1-.28.49-1.17.74a9.66 9.66 0 01-2.57.32 8.85 8.85 0 01-3-.47c-.63-.23-.85-.52-.84-.63-.03-.08.28-.46 1.17-.71zm-8.23-2.89c0-.12.28-.49 1.18-.73a10.08 10.08 0 015.6.14c.67.25.87.55.84.65-.03.1-.27.49-1.16.74a9.61 9.61 0 01-2.57.32 9.09 9.09 0 01-3.05-.47c-.63-.24-.84-.52-.84-.62zm-5.05 2.61l4.44-.63v1.4c0 .56.51.91 1.23 1.19a9.19 9.19 0 003.26.51 10.16 10.16 0 002.59-.31v2.21c0 .56.5.92 1.22 1.2a9.54 9.54 0 003.26.51 10.28 10.28 0 002.74-.34c.94-.29 1.55-.66 1.59-1.31v-3.35a10.24 10.24 0 002.55-.31v2.24c0 .55.5.91 1.22 1.19a9.5 9.5 0 003.26.51 10.33 10.33 0 002.74-.34c.93-.29 1.55-.66 1.59-1.31v-1.55l5 2.72-23 3.23zm37.26 22.33c-.08 0-23.39 3.28-23.39 3.28v-17.61l23.43-3.23-.04 17.61z" fill="#02743b"/><path d="M101.424 29.651c0-.56-.5-.92-1.23-1.2a9.46 9.46 0 00-3.26-.51 9.86 9.86 0 00-2.73.35c-.93.28-1.54.65-1.59 1.29v1.39l-5.42.76a.45.45 0 00-.11 0v18.27a.31.31 0 000 .13l3.83 2.09 10.7 5.82a.28.28 0 00.13 0l24-3.36a.24.24 0 00.1 0 .14.14 0 000-.07v-18.25a.25.25 0 000-.12.21.21 0 000-.06l-6.06-3.3v-1.14c0-.56-.5-.92-1.22-1.2a9.54 9.54 0 00-3.26-.51h-.73l-1.85-1v-.82c0-.56-.51-.91-1.23-1.2a9.74 9.74 0 00-3.26-.51 10.15 10.15 0 00-2.73.34c-.93.29-1.55.66-1.6 1.3v1.2l-2.55.36" fill="#1ea551"/><path d="M126.044 36.561a.25.25 0 000-.12.21.21 0 000-.06l-6.06-3.3v-1.14c0-.56-.5-.92-1.22-1.2a9.54 9.54 0 00-3.26-.51h-.73l-1.85-1v.66l.83.46a7.34 7.34 0 00-.84.17v-2.23c0-.56-.51-.91-1.23-1.2a9.74 9.74 0 00-3.26-.51 10.15 10.15 0 00-2.73.34c-.93.29-1.55.66-1.6 1.3v1.2l-2.55.36v.6l2.54-.36v1.53a10.34 10.34 0 00-2.7.34h.14v-2.23c0-.56-.5-.92-1.23-1.2a9.46 9.46 0 00-3.26-.51 9.86 9.86 0 00-2.73.35c-.93.28-1.54.65-1.59 1.29v1.39l-5.42.76a.45.45 0 00-.11 0v18.27a.31.31 0 000 .13l3.83 2.09 10.7 5.82a.28.28 0 00.13 0l24-3.36a.24.24 0 00.1 0 .14.14 0 000-.07v-18.25zm-10.68-5.8a9 9 0 013 .46c.67.25.87.55.85.65-.02.1-.28.49-1.17.74a9.56 9.56 0 01-2.57.32 8.85 8.85 0 01-3-.47c-.63-.23-.83-.51-.83-.62 0-.12.28-.49 1.17-.73a9.15 9.15 0 012.55-.35zm-9.62-3.32a9.52 9.52 0 012.56-.33 9.09 9.09 0 013.05.47c.66.25.87.56.84.65-.03.09-.28.49-1.17.74a9.56 9.56 0 01-2.57.32 9 9 0 01-3-.46c-.63-.24-.85-.53-.84-.63-.07-.14.24-.52 1.14-.76zm-4.31 5a9.57 9.57 0 012.56-.33 9.09 9.09 0 013 .47c.67.25.87.56.85.65-.02.09-.28.49-1.17.75a10.11 10.11 0 01-2.57.31 8.86 8.86 0 01-3-.46c-.63-.24-.85-.53-.84-.63-.03-.09.28-.47 1.17-.71zm-8.23-2.9c0-.11.28-.49 1.18-.73a10.33 10.33 0 015.6.14c.67.25.87.55.84.65-.03.1-.27.49-1.16.74a9.22 9.22 0 01-2.57.32 8.85 8.85 0 01-3.05-.47c-.63-.23-.84-.51-.84-.62zm-5.05 2.67l4.44-.62v1.36c0 .56.51.91 1.23 1.19a9.18 9.18 0 003.26.52 10.63 10.63 0 002.59-.31v2.21c0 .56.5.91 1.22 1.2a9.55 9.55 0 003.26.5 9.89 9.89 0 002.74-.34c.94-.29 1.55-.66 1.59-1.3v-3.36a10.25 10.25 0 002.55-.3v2.25c0 .56.5.91 1.22 1.19a9.26 9.26 0 003.26.51 10.33 10.33 0 002.74-.34c.93-.29 1.55-.65 1.59-1.31v-1.55l5 2.72-23 3.24zm37.26 22.33c-.08 0-23.39 3.28-23.39 3.28v-17.61l23.39-3.28v17.6z" fill="#02743b"/><path d="M101.424 11.361c0-.56-.5-.91-1.23-1.2a9.47 9.47 0 00-3.26-.5 9.87 9.87 0 00-2.73.34c-.93.28-1.54.65-1.59 1.3v1.39l-5.42.76h-.11v18.28a.28.28 0 000 .13v.05l3.83 2.1 10.7 5.81a.28.28 0 00.13 0l24-3.37h.1a.11.11 0 000-.06v-18.11a.22.22 0 000-.12l-6.06-3.29v-1.14c0-.56-.5-.92-1.22-1.2a9.55 9.55 0 00-3.26-.5h-.73l-1.85-1v-.94c0-.55-.51-.91-1.23-1.2a9.74 9.74 0 00-3.26-.51 10.14 10.14 0 00-2.73.35c-.93.28-1.55.65-1.6 1.29v1.19l-2.55.36" fill="#1ea551"/><path d="M126.044 18.281a.22.22 0 000-.12l-6.06-3.29v-1.14c0-.56-.5-.92-1.22-1.2a9.55 9.55 0 00-3.26-.5h-.73l-1.85-1v.66l.83.46a7.34 7.34 0 00-.84.18v-2.24c0-.55-.51-.91-1.23-1.2a9.74 9.74 0 00-3.26-.51 10.14 10.14 0 00-2.73.35c-.93.28-1.55.65-1.6 1.29v1.19l-2.55.36v.6l2.54-.36v1.4a9.93 9.93 0 00-2.7.34h.14v-2.23c0-.56-.5-.91-1.23-1.2a9.47 9.47 0 00-3.26-.5 9.87 9.87 0 00-2.73.34c-.93.28-1.54.65-1.59 1.3v1.39l-5.42.76h-.11v18.28a.28.28 0 000 .13v.05l3.83 2.1 10.7 5.81a.28.28 0 00.13 0l24-3.37h.1a.11.11 0 000-.06v-18.07zm-10.68-5.81a9.26 9.26 0 013 .46c.67.25.87.55.85.65-.02.1-.28.49-1.17.74a9.16 9.16 0 01-2.57.33 8.83 8.83 0 01-3-.48c-.63-.23-.83-.51-.83-.62 0-.12.28-.5 1.17-.74a9.53 9.53 0 012.55-.34zm-9.62-3.32a9.53 9.53 0 012.56-.32 8.85 8.85 0 013.05.47c.66.25.87.55.84.64-.03.09-.28.5-1.17.75a10 10 0 01-2.57.31 8.8 8.8 0 01-3-.46c-.63-.24-.85-.53-.84-.63-.07-.14.24-.52 1.14-.76zm-4.31 5a9.59 9.59 0 012.56-.32 9.09 9.09 0 013 .47c.67.25.87.55.85.65-.02.1-.28.49-1.17.74a9.68 9.68 0 01-2.57.31 8.86 8.86 0 01-3-.46c-.63-.24-.85-.53-.84-.63-.03-.09.28-.47 1.17-.7zm-8.23-2.9c0-.12.28-.49 1.18-.74a9.46 9.46 0 012.55-.32 9 9 0 013.05.47c.67.24.87.55.84.64-.03.09-.27.5-1.16.74a9.21 9.21 0 01-2.57.33 9.09 9.09 0 01-3.05-.47c-.63-.24-.84-.52-.84-.63zm-5.05 2.62l4.44-.63v1.37c0 .56.51.92 1.23 1.2a9.42 9.42 0 003.26.51 10.63 10.63 0 002.59-.31v2.21c0 .56.5.91 1.22 1.2a9.55 9.55 0 003.26.5 10.29 10.29 0 002.74-.33c.94-.3 1.55-.66 1.59-1.31v-3.36a10.25 10.25 0 002.55-.3v2.23c0 .56.5.92 1.22 1.2a9.5 9.5 0 003.26.51 10.33 10.33 0 002.74-.35c.93-.28 1.55-.65 1.59-1.3v-1.55l5 2.72-23 3.23zm37.26 22.34c-.08.06-23.39 3.28-23.39 3.28v-17.61l23.39-3.28z" fill="#02743b"/><path d="M77.424 106.211c0-.56-.5-.91-1.22-1.2a9.57 9.57 0 00-3.27-.5 9.87 9.87 0 00-2.73.34c-.93.28-1.54.65-1.58 1.3v1.38l-5.42.76h-.11v.05a.19.19 0 000 .07v18.21a.27.27 0 000 .13l3.83 2.1 10.7 5.81a.33.33 0 00.13 0l24-3.37h.11a.14.14 0 000-.06v-18.27a.24.24 0 000-.12.1.1 0 000-.05l-6.06-3.29v-1.09c0-.56-.5-.91-1.22-1.2a9.54 9.54 0 00-3.26-.51h-.73l-1.85-1v-.94c0-.55-.51-.91-1.23-1.2a9.74 9.74 0 00-3.26-.51 10.14 10.14 0 00-2.73.35c-.93.28-1.55.65-1.59 1.29v1.19l-2.55.36" fill="#1ea551"/><path d="M102.054 113.101a.24.24 0 000-.12.1.1 0 000-.05l-6.06-3.29v-1.23c0-.56-.5-.91-1.22-1.2a9.54 9.54 0 00-3.26-.51h-.73l-1.85-1v.66l.83.46c-.29 0-.57.1-.84.17v-2.23c0-.55-.51-.91-1.23-1.2a9.74 9.74 0 00-3.26-.51 10.14 10.14 0 00-2.73.35c-.93.28-1.55.65-1.59 1.29v1.19l-2.55.36v.6l2.55-.36v1.55a9.93 9.93 0 00-2.7.34h.14v-2.24c0-.56-.5-.91-1.22-1.2a9.57 9.57 0 00-3.27-.5 9.87 9.87 0 00-2.73.34c-.93.28-1.54.65-1.58 1.3v1.38l-5.42.76h-.11v.05a.19.19 0 000 .07v18.21a.27.27 0 000 .13l3.83 2.1 10.7 5.81a.33.33 0 00.13 0l24-3.37h.11a.14.14 0 000-.06v-18.27zm-10.69-5.81a9 9 0 013 .46c.67.25.87.56.85.65-.02.09-.27.5-1.17.74a10.11 10.11 0 01-5.61-.14c-.64-.24-.85-.52-.85-.63 0-.12.29-.49 1.18-.74a9.53 9.53 0 012.6-.34zm-9.61-3.32a9.53 9.53 0 012.56-.32 8.81 8.81 0 013.05.47c.67.25.87.55.84.64-.03.09-.27.5-1.16.75a9.68 9.68 0 01-2.57.31 8.86 8.86 0 01-3.05-.46c-.63-.24-.85-.53-.84-.63-.04-.14.27-.52 1.17-.76zm-4.31 5a9.53 9.53 0 012.56-.32 9.05 9.05 0 013 .47c.67.25.87.55.85.64-.02.09-.28.5-1.17.75a9.68 9.68 0 01-2.57.31 8.86 8.86 0 01-3-.46c-.63-.24-.84-.52-.84-.63-.04-.09.27-.47 1.16-.71zm-8.23-2.89c0-.12.29-.49 1.18-.73a9.11 9.11 0 012.55-.33 9.28 9.28 0 013.05.46c.67.26.87.56.85.65-.02.09-.28.5-1.17.74a9.21 9.21 0 01-2.57.33 9 9 0 01-3-.47c-.64-.24-.85-.52-.85-.63zm-5.05 2.61l4.44-.63v1.37c0 .56.51.92 1.23 1.2a9.5 9.5 0 003.26.51 10.63 10.63 0 002.59-.31v2.21c0 .56.5.92 1.22 1.2a9.54 9.54 0 003.26.51 10.28 10.28 0 002.74-.34c.94-.29 1.55-.66 1.6-1.31v-3.36a10.73 10.73 0 002.55-.31v2.23c0 .56.5.92 1.22 1.2a9.5 9.5 0 003.26.51 10.27 10.27 0 002.74-.35c.93-.28 1.55-.65 1.59-1.31v-1.5l5 2.72-23 3.23zm37.27 22.32c-.09.06-23.4 3.28-23.4 3.28v-17.61l23.39-3.28s-.01 17.55 0 17.66z" fill="#02743b"/><path d="M77.424 87.891c0-.55-.5-.91-1.22-1.2a9.57 9.57 0 00-3.27-.5 9.86 9.86 0 00-2.73.35c-.93.27-1.54.65-1.58 1.29v1.38l-5.42.76h-.11a.25.25 0 000 .07v18.21a.25.25 0 000 .12l3.83 2.1 10.7 5.82a.33.33 0 00.13 0l24-3.37a.3.3 0 00.11 0 .11.11 0 000-.06v-18.21a.27.27 0 000-.12l-6.06-3.29v-1.14c0-.56-.5-.92-1.22-1.21a9.55 9.55 0 00-3.26-.5h-.73l-1.85-1v-.93c0-.56-.51-.92-1.23-1.2a9.49 9.49 0 00-3.26-.52 10.14 10.14 0 00-2.73.35c-.93.29-1.55.65-1.59 1.3v1.19l-2.55.36" fill="#1ea551"/><path d="M102.054 94.811a.27.27 0 000-.12l-6.06-3.29v-1.14c0-.56-.5-.92-1.22-1.21a9.55 9.55 0 00-3.26-.5h-.73l-1.85-1v.67l.83.45q-.43.07-.84.18v-2.23c0-.56-.51-.92-1.23-1.2a9.49 9.49 0 00-3.26-.52 10.14 10.14 0 00-2.73.35c-.93.29-1.55.65-1.59 1.3v1.19l-2.55.36v.6l2.55-.35v1.54a9.93 9.93 0 00-2.7.34h.14v-2.24c0-.55-.5-.91-1.22-1.2a9.57 9.57 0 00-3.27-.5 9.86 9.86 0 00-2.73.35c-.93.27-1.54.65-1.58 1.29v1.28l-5.42.76h-.11a.25.25 0 000 .07v18.21a.25.25 0 000 .12l3.83 2.09 10.7 5.82a.33.33 0 00.13 0l24-3.37a.3.3 0 00.11 0 .11.11 0 000-.06v-18.21zm-10.69-5.81a9 9 0 013 .47c.67.24.87.55.85.65-.02.1-.27.49-1.17.74a9.53 9.53 0 01-2.56.32 9.05 9.05 0 01-3-.47c-.64-.24-.85-.52-.85-.62 0-.12.29-.5 1.18-.74a9.53 9.53 0 012.55-.35zm-9.61-3.32a9.53 9.53 0 012.56-.32 9.05 9.05 0 013.05.47c.67.25.87.55.84.65-.03.1-.27.49-1.16.74a9.68 9.68 0 01-2.57.31 8.63 8.63 0 01-3.05-.46c-.63-.24-.85-.52-.84-.63-.04-.14.27-.51 1.17-.76zm-4.31 5a9.53 9.53 0 012.56-.32 9.05 9.05 0 013 .47c.67.25.87.55.85.65-.02.1-.28.49-1.17.74a9.66 9.66 0 01-2.57.32 8.61 8.61 0 01-3-.47c-.63-.23-.84-.52-.84-.63-.04-.08.27-.46 1.16-.71zm-8.23-2.89c0-.11.29-.49 1.18-.73a9.11 9.11 0 012.55-.33 9 9 0 013.05.47c.67.25.87.55.85.64-.02.09-.28.5-1.17.75a9.61 9.61 0 01-2.57.32 9 9 0 01-3-.47c-.64-.24-.85-.52-.85-.62zm-5.05 2.61l4.44-.62v1.43c0 .55.51.91 1.23 1.19a9.5 9.5 0 003.26.51 10.16 10.16 0 002.59-.31v2.22c0 .56.5.92 1.22 1.2a9.54 9.54 0 003.26.51 10.28 10.28 0 002.74-.34c.94-.29 1.55-.66 1.6-1.31v-3.35a.09.09 0 000-.05 10.73 10.73 0 002.55-.31v2.24c0 .55.5.91 1.22 1.19a9.5 9.5 0 003.26.51 10.28 10.28 0 002.74-.34c.93-.29 1.55-.66 1.59-1.31v-1.55l5 2.72-23 3.23zm37.27 22.33c-.09 0-23.4 3.27-23.4 3.27v-17.6l23.42-3.19s-.04 17.45-.03 17.57z" fill="#02743b"/><path d="M53.444 109.551c0-.56-.5-.91-1.22-1.2a9.56 9.56 0 00-3.27-.51 9.74 9.74 0 00-2.72.35c-.94.28-1.55.65-1.59 1.29v1.39l-5.42.76a.25.25 0 00-.11 0 .11.11 0 000 .05.14.14 0 000 .07v18.21a.3.3 0 000 .13l3.83 2.09 10.71 5.82a.33.33 0 00.13 0l24-3.36a.34.34 0 00.11 0 .14.14 0 000-.07v-18.21a.27.27 0 000-.12v-.05l-6-3.3v-1.13c0-.56-.49-.92-1.22-1.2a9.54 9.54 0 00-3.26-.51h-.72l-1.86-1v-.93c0-.56-.5-.91-1.22-1.2a10.74 10.74 0 00-6-.16c-.94.28-1.56.65-1.6 1.29v1.2l-2.55.36" fill="#1ea551"/><path d="M78.074 116.471a.27.27 0 000-.12v-.05l-6-3.3v-1.13c0-.56-.49-.92-1.22-1.2a9.54 9.54 0 00-3.26-.51h-.72l-1.86-1v.67l.84.46a7.1 7.1 0 00-.85.17v-2.23c0-.56-.5-.91-1.22-1.2a10.74 10.74 0 00-6-.16c-.94.28-1.56.65-1.6 1.29v1.2l-2.55.36v.6l2.55-.36v1.53a9.79 9.79 0 00-2.69.35h.14v-2.24c0-.56-.5-.91-1.22-1.2a9.56 9.56 0 00-3.27-.51 9.74 9.74 0 00-2.72.35c-.94.28-1.55.65-1.59 1.29v1.39l-5.42.76a.25.25 0 00-.11 0 .11.11 0 000 .05.14.14 0 000 .07v18.21a.3.3 0 000 .13l3.83 2.09 10.71 5.82a.33.33 0 00.13 0l24-3.36a.34.34 0 00.11 0 .14.14 0 000-.07v-18.21zm-10.69-5.8a9 9 0 013 .46c.67.25.87.55.85.65-.02.1-.27.49-1.16.74a9.27 9.27 0 01-2.57.32 8.81 8.81 0 01-3-.47c-.64-.24-.84-.52-.84-.62 0-.11.28-.49 1.18-.73a9 9 0 012.54-.35zm-9.63-3.33a10 10 0 012.56-.32 9.05 9.05 0 013 .47c.67.25.87.55.85.65-.02.1-.28.5-1.17.74a9.66 9.66 0 01-2.57.32 8.61 8.61 0 01-3.05-.47c-.63-.23-.85-.52-.84-.63.03-.13.34-.51 1.22-.76zm-4.3 5.06a9.5 9.5 0 012.55-.33 8.79 8.79 0 013 .48c.67.24.87.55.85.64-.02.09-.28.49-1.17.74a9.66 9.66 0 01-2.57.32 8.86 8.86 0 01-3-.46c-.63-.24-.85-.53-.84-.64-.02-.13.29-.51 1.19-.75zm-8.24-2.9c0-.12.29-.5 1.18-.74a9.13 9.13 0 012.55-.32 9 9 0 013 .46c.67.25.87.55.85.65-.02.1-.28.49-1.17.74a9.15 9.15 0 01-2.56.32 8.81 8.81 0 01-3-.47c-.64-.23-.85-.51-.85-.62zm-5.05 2.61l4.45-.62v1.33c0 .56.51.92 1.23 1.19a9.27 9.27 0 003.27.52 10.07 10.07 0 002.58-.32v2.22c0 .55.49.91 1.21 1.19a9.58 9.58 0 003.26.51 10.18 10.18 0 002.74-.34c.94-.29 1.56-.66 1.6-1.3v-3.36a9.71 9.71 0 002.54-.31v2.24c0 .56.5.91 1.22 1.19a9.26 9.26 0 003.26.51 10.33 10.33 0 002.74-.34c.93-.29 1.55-.65 1.59-1.31v-1.92.37l5 2.72-23 3.24zm37.27 22.33c-.08.06-23.4 3.28-23.4 3.28v-17.61l23.39-3.29s.01 17.51.02 17.62z" fill="#02743b"/><path d="M53.444 91.271c0-.56-.5-.91-1.22-1.2a9.57 9.57 0 00-3.27-.5 9.74 9.74 0 00-2.72.34c-.94.28-1.55.65-1.59 1.3v1.39l-5.42.76h-.11a.14.14 0 000 .06v18.21a.27.27 0 000 .13l3.83 2.09 10.71 5.82h.13l24-3.37h.11a.14.14 0 000-.07v-18.04a.24.24 0 000-.12v-.06h-.05l-6-3.3v-1.13c0-.56-.49-.92-1.22-1.2a9.54 9.54 0 00-3.26-.51h-.72l-1.86-1v-.94c0-.55-.5-.91-1.22-1.2a9.85 9.85 0 00-3.27-.51 10.08 10.08 0 00-2.72.34c-.94.29-1.56.66-1.6 1.3v1.21l-2.55.36" fill="#1ea551"/><path d="M78.074 98.211a.24.24 0 000-.12v-.06h-.05l-6-3.3v-1.13c0-.56-.49-.92-1.22-1.2a9.54 9.54 0 00-3.26-.51h-.72l-1.86-1v.66l.84.46a7.1 7.1 0 00-.85.17v-2.23c0-.55-.5-.91-1.22-1.2a9.85 9.85 0 00-3.27-.51 10.08 10.08 0 00-2.72.34c-.94.29-1.56.66-1.6 1.3v1.21l-2.55.36v.6l2.55-.36v1.53a10.19 10.19 0 00-2.69.35h.14v-2.23c0-.56-.5-.91-1.22-1.2a9.57 9.57 0 00-3.27-.5 9.74 9.74 0 00-2.72.34c-.94.28-1.55.65-1.59 1.3v1.39l-5.42.76h-.11a.14.14 0 000 .06v18.21a.27.27 0 000 .13l3.83 2.09 10.71 5.82h.13l24-3.37h.11a.14.14 0 000-.07v-18.11zm-10.69-5.81a9 9 0 013 .46c.67.25.87.55.85.65-.02.1-.27.49-1.16.74a9.27 9.27 0 01-2.57.32 8.81 8.81 0 01-3-.47c-.64-.23-.84-.51-.84-.62 0-.12.28-.5 1.18-.74a9.41 9.41 0 012.54-.36zm-9.63-3.34a9.59 9.59 0 012.56-.32 9.07 9.07 0 013 .46c.67.26.87.56.85.65-.02.09-.28.5-1.17.75a10.11 10.11 0 01-2.57.31 8.86 8.86 0 01-3.05-.46c-.63-.24-.85-.52-.84-.63.03-.14.34-.52 1.22-.76zm-4.3 5a9.51 9.51 0 012.55-.32 9.07 9.07 0 013 .46c.67.26.87.56.85.65-.02.09-.28.5-1.17.75a9.68 9.68 0 01-2.57.31 8.86 8.86 0 01-3-.46c-.63-.24-.85-.52-.84-.63-.02-.09.29-.47 1.19-.71zm-8.24-2.9c0-.12.29-.5 1.18-.74a9.51 9.51 0 012.55-.32 9.28 9.28 0 013 .46c.67.25.87.56.85.65-.02.09-.28.49-1.17.74a9.13 9.13 0 01-2.56.33 8.79 8.79 0 01-3-.48c-.64-.23-.85-.51-.85-.62zm-5.05 2.61l4.45-.62v1.34c0 .56.51.92 1.23 1.19a9.27 9.27 0 003.27.52 10.54 10.54 0 002.58-.31v2.32c0 .56.49.91 1.21 1.2a9.59 9.59 0 003.26.5 10.61 10.61 0 002.74-.33c.94-.3 1.56-.67 1.6-1.31v-3.36a10.17 10.17 0 002.54-.3v2.24c0 .56.5.92 1.22 1.19a9.25 9.25 0 003.26.52 10.33 10.33 0 002.74-.35c.93-.28 1.55-.65 1.59-1.31v-1.92.37l5 2.73-23 3.23zm37.27 22.33c-.08.06-23.4 3.28-23.4 3.28v-17.61l23.39-3.28s.01 17.55.02 17.66z" fill="#02743b"/><path d="M29.454 94.631c0-.56-.5-.91-1.22-1.2a9.55 9.55 0 00-3.26-.5 9.77 9.77 0 00-2.73.34c-.94.28-1.55.66-1.59 1.29v1.39l-5.42.76h-.11a.19.19 0 000 .07v18.21a.27.27 0 000 .13l3.83 2.09 10.71 5.82h.12l24-3.37h.11v-18.27a.23.23 0 000-.11l-6-3.29v-1.14c0-.56-.5-.91-1.23-1.2a9.54 9.54 0 00-3.26-.51h-.72l-1.86-1v-.93c0-.55-.5-.91-1.22-1.2a9.85 9.85 0 00-3.27-.51 10 10 0 00-2.72.35c-.94.28-1.55.65-1.6 1.29v1.2l-2.55.36" fill="#1ea551"/><path d="M54.084 101.541a.23.23 0 000-.11l-6-3.29v-1.14c0-.56-.5-.91-1.23-1.2a9.54 9.54 0 00-3.26-.51h-.72l-1.86-1v.66l.83.46a6.76 6.76 0 00-.83.17v-2.37c0-.55-.5-.91-1.22-1.2a9.85 9.85 0 00-3.27-.51 10 10 0 00-2.72.35c-.94.28-1.55.65-1.6 1.29v1.2l-2.55.36v.6l2.54-.36v1.53a10.19 10.19 0 00-2.69.35h.14v-2.23c0-.56-.5-.91-1.22-1.2a9.55 9.55 0 00-3.26-.5 9.77 9.77 0 00-2.73.34c-.94.28-1.55.66-1.59 1.29v1.39l-5.42.76h-.11a.19.19 0 000 .07v18.21a.27.27 0 000 .13l3.83 2.09 10.71 5.82h.12l24-3.37h.11v-18.27zm-10.69-5.8a9.33 9.33 0 013.05.46c.66.25.86.56.84.65-.02.09-.27.49-1.16.74a9.27 9.27 0 01-2.57.32 8.85 8.85 0 01-3-.47c-.63-.23-.84-.51-.84-.62 0-.12.28-.5 1.18-.74a9.41 9.41 0 012.5-.34zm-9.64-3.32a9.59 9.59 0 012.56-.32 9.17 9.17 0 013.06.46c.66.26.86.56.84.65-.02.09-.28.5-1.17.75a10.11 10.11 0 01-2.57.31 8.86 8.86 0 01-3-.46c-.63-.24-.84-.53-.84-.63-.06-.14.25-.52 1.12-.76zm-4.3 5a9.46 9.46 0 012.55-.32 9.15 9.15 0 013.06.47c.66.25.86.55.84.64-.02.09-.28.5-1.17.75a9.68 9.68 0 01-2.57.31 8.86 8.86 0 01-3-.46c-.63-.24-.84-.52-.84-.63-.05-.09.25-.47 1.15-.71zm-8.24-2.9c0-.12.29-.5 1.18-.74a9.53 9.53 0 012.56-.32 9.26 9.26 0 013 .46c.67.25.87.56.85.65-.02.09-.28.49-1.17.75a9.55 9.55 0 01-2.56.31 9.07 9.07 0 01-3-.46c-.64-.24-.85-.52-.85-.63zm-5.03 2.69l4.45-.62v1.37c0 .56.5.92 1.22 1.2a9.5 9.5 0 003.26.51 10.57 10.57 0 002.59-.31v2.21c0 .56.5.91 1.22 1.2a9.5 9.5 0 003.26.51 9.76 9.76 0 002.73-.35c.94-.28 1.56-.65 1.6-1.3v-3.36a10.17 10.17 0 002.54-.3v2.24c0 .56.5.91 1.22 1.19a9.27 9.27 0 003.27.52 10.2 10.2 0 002.73-.35c.93-.28 1.55-.65 1.59-1.31v-1.92.38l5 2.72-23 3.23zm37.27 22.3c-.08.05-23.39 3.28-23.39 3.28v-17.61l23.39-3.28s-.01 17.5 0 17.61z" fill="#02743b"/><path d="M29.454 76.341c0-.55-.5-.91-1.22-1.2a9.55 9.55 0 00-3.26-.5 9.76 9.76 0 00-2.73.35c-.94.27-1.55.65-1.59 1.29v1.38l-5.42.76h-.11v.05a.25.25 0 000 .07v18.2a.27.27 0 000 .13.1.1 0 000 .05l3.83 2.1 10.71 5.81a.28.28 0 00.12 0l24-3.37h.11v-18.28a.27.27 0 000-.12l-6-3.29v-1.14c0-.56-.5-.92-1.23-1.21a9.55 9.55 0 00-3.26-.5h-.72l-1.86-1v-.94c0-.56-.5-.92-1.22-1.2a9.59 9.59 0 00-3.27-.52 10 10 0 00-2.72.35c-.94.29-1.55.65-1.6 1.3v1.19l-2.55.36" fill="#1ea551"/><path d="M54.084 83.261a.27.27 0 000-.12l-6-3.29v-1.14c0-.56-.5-.92-1.23-1.21a9.55 9.55 0 00-3.26-.5h-.72l-1.86-1v.67l.83.45c-.29.05-.57.11-.83.18v-2.24c0-.56-.5-.92-1.22-1.2a9.59 9.59 0 00-3.27-.52 10 10 0 00-2.72.35c-.94.29-1.55.65-1.6 1.3v1.19l-2.55.36v.6l2.54-.36v1.43a9.8 9.8 0 00-2.69.34h.14v-2.24c0-.55-.5-.91-1.22-1.2a9.55 9.55 0 00-3.26-.5 9.76 9.76 0 00-2.73.35c-.94.27-1.55.65-1.59 1.29v1.38l-5.42.76h-.11v.05a.25.25 0 000 .07v18.2a.27.27 0 000 .13.1.1 0 000 .05l3.83 2.1 10.71 5.81a.28.28 0 00.12 0l24-3.37h.11v-18.28zm-10.69-5.81a9.05 9.05 0 013.05.47c.66.24.86.55.84.65-.02.1-.27.49-1.16.74a9.66 9.66 0 01-2.57.32 9.09 9.09 0 01-3-.47c-.63-.24-.84-.52-.84-.63 0-.12.28-.5 1.18-.74a9.41 9.41 0 012.5-.34zm-9.64-3.32a9.59 9.59 0 012.56-.32 9.15 9.15 0 013.06.47c.66.25.86.55.84.65-.02.1-.28.49-1.17.74a9.66 9.66 0 01-2.57.32 9.09 9.09 0 01-3-.47c-.63-.24-.84-.52-.84-.63-.06-.14.25-.52 1.12-.76zm-4.3 5.05a9.46 9.46 0 012.55-.32 9.15 9.15 0 013.06.47c.66.25.86.55.84.65-.02.1-.28.49-1.17.74a9.66 9.66 0 01-2.57.32 9.09 9.09 0 01-3-.47c-.63-.23-.84-.52-.84-.63-.05-.13.25-.51 1.15-.73zm-8.24-2.89c0-.11.29-.49 1.18-.74a9.53 9.53 0 012.56-.32 9 9 0 013 .47c.67.25.87.55.85.64-.02.09-.28.5-1.17.75a9.53 9.53 0 01-2.56.32 9.05 9.05 0 01-3-.47c-.64-.24-.85-.52-.85-.63zm-5.05 2.61l4.45-.63v1.37c0 .56.5.92 1.22 1.2a9.5 9.5 0 003.26.51 10.11 10.11 0 002.59-.31v2.17c0 .56.5.92 1.22 1.2a9.5 9.5 0 003.26.51 10.15 10.15 0 002.73-.34c.94-.29 1.56-.66 1.6-1.31v-3.36a10.17 10.17 0 002.54-.3v2.24c0 .56.5.92 1.22 1.2a9.52 9.52 0 003.27.51 9.81 9.81 0 002.73-.35c.93-.28 1.55-.65 1.59-1.3v-1.92.37l5 2.72-23 3.23zm37.29 22.31c-.08.06-23.39 3.28-23.39 3.28v-17.6l23.39-3.29s-.01 17.51 0 17.61z" fill="#02743b"/><path d="M29.454 58.051c0-.56-.5-.92-1.22-1.2a9.54 9.54 0 00-3.26-.51 9.76 9.76 0 00-2.73.35c-.94.28-1.55.65-1.59 1.29v1.38l-5.42.77a.23.23 0 00-.11 0 .14.14 0 000 .06v18.21a.32.32 0 000 .13l3.83 2.09 10.71 5.82h.12l24-3.36a.27.27 0 00.11 0v-18.32a.27.27 0 000-.12v-.06l-6-3.3v-1.14c0-.56-.5-.92-1.23-1.2a9.54 9.54 0 00-3.26-.51h-.72l-1.86-1v-.94c0-.56-.5-.92-1.22-1.2a9.6 9.6 0 00-3.27-.51 10 10 0 00-2.72.34c-.94.29-1.55.66-1.6 1.3v1.19l-2.55.36" fill="#1ea551"/><path d="M54.084 64.971a.27.27 0 000-.12v-.06l-6-3.3v-1.14c0-.56-.5-.92-1.23-1.2a9.54 9.54 0 00-3.26-.51h-.72l-1.86-1v.57l.83.45c-.29 0-.57.11-.83.18v-2.24c0-.56-.5-.92-1.22-1.2a9.6 9.6 0 00-3.27-.51 10 10 0 00-2.72.34c-.94.29-1.55.66-1.6 1.3v1.19l-2.55.36v.6l2.54-.35v1.54a9.8 9.8 0 00-2.69.34h.14v-2.24c0-.56-.5-.92-1.22-1.2a9.54 9.54 0 00-3.26-.51 9.76 9.76 0 00-2.73.35c-.94.28-1.55.65-1.59 1.29v1.38l-5.42.77a.23.23 0 00-.11 0 .14.14 0 000 .06v18.21a.32.32 0 000 .13l3.83 2.09 10.71 5.82h.12l24-3.36a.27.27 0 00.11 0v-18.32zm-10.69-5.76a9.07 9.07 0 013.05.46c.66.25.86.55.84.65-.02.1-.27.49-1.16.74a9.66 9.66 0 01-2.57.32 9.09 9.09 0 01-3-.47c-.63-.24-.84-.52-.84-.62 0-.11.28-.49 1.18-.73a9 9 0 012.5-.35zm-9.64-3.37a10 10 0 012.56-.32 9.15 9.15 0 013.06.47c.66.25.86.55.84.65-.02.1-.28.49-1.17.74a9.66 9.66 0 01-2.57.32 8.85 8.85 0 01-3-.47c-.63-.23-.84-.52-.84-.63-.06-.13.25-.51 1.12-.76zm-4.3 5a9.87 9.87 0 012.55-.32 9.15 9.15 0 013.06.47c.66.25.86.55.84.65-.02.1-.28.5-1.17.74a9.66 9.66 0 01-2.57.32 8.85 8.85 0 01-3-.47c-.63-.23-.84-.52-.84-.63-.05-.08.25-.46 1.15-.71zm-8.24-2.89c0-.11.29-.49 1.18-.73a9.15 9.15 0 012.56-.32 9 9 0 013 .46c.67.25.87.55.85.65-.02.1-.28.49-1.17.74a9.15 9.15 0 01-2.56.32 8.81 8.81 0 01-3-.47c-.64-.24-.85-.52-.85-.62zm-5.05 2.61l4.45-.63v1.37c0 .56.5.91 1.22 1.19a9.26 9.26 0 003.26.51 10.11 10.11 0 002.59-.31v2.21c0 .55.5.91 1.22 1.2a9.75 9.75 0 003.26.5 10.15 10.15 0 002.73-.34c.94-.29 1.56-.66 1.6-1.31v-3.35a10.66 10.66 0 002.54-.3v2.23c0 .55.5.91 1.22 1.19a9.28 9.28 0 003.27.51 10.21 10.21 0 002.73-.34c.93-.29 1.55-.66 1.59-1.31v-1.92.37l5 2.72-23 3.23zm37.27 22.33c-.08 0-23.39 3.28-23.39 3.28v-17.61l23.39-3.29s.01 17.56.02 17.67z" fill="#02743b"/><path d="M29.454 39.771c0-.56-.5-.91-1.22-1.2a9.55 9.55 0 00-3.26-.5 9.77 9.77 0 00-2.73.34c-.94.28-1.55.65-1.59 1.29v1.39l-5.42.76a.45.45 0 00-.11 0 .14.14 0 000 .06v18.21a.27.27 0 000 .13l3.83 2.09 10.71 5.82a.28.28 0 00.12 0l23.97-2.95a.27.27 0 00.11 0v-18.52a.21.21 0 000-.12l-6-3.3v-1.13c0-.56-.5-.91-1.23-1.2a9.54 9.54 0 00-3.26-.51h-.72l-1.86-1v-.94c0-.56-.5-.91-1.22-1.2a9.85 9.85 0 00-3.27-.51 10 10 0 00-2.72.34c-.94.29-1.55.66-1.6 1.3v1.2l-2.55.36" fill="#1ea551"/><path d="M54.084 46.691a.21.21 0 000-.12l-6-3.3v-1.13c0-.56-.5-.91-1.23-1.2a9.54 9.54 0 00-3.26-.51h-.72l-1.86-1v.66l.83.46a6.76 6.76 0 00-.83.17v-2.23c0-.56-.5-.91-1.22-1.2a9.85 9.85 0 00-3.27-.51 10 10 0 00-2.72.34c-.94.29-1.55.66-1.6 1.3v1.2l-2.55.36v.6l2.54-.36v1.53a10.19 10.19 0 00-2.69.35h.14v-2.23c0-.56-.5-.91-1.22-1.2a9.55 9.55 0 00-3.26-.5 9.77 9.77 0 00-2.73.34c-.94.28-1.55.65-1.59 1.29v1.39l-5.42.76a.45.45 0 00-.11 0 .14.14 0 000 .06v18.21a.27.27 0 000 .13l3.83 2.09 10.71 5.82h.12l23.78-3.05a.27.27 0 00.11 0v-18.52zm-10.69-5.81a9.07 9.07 0 013.05.46c.66.25.86.55.84.65-.02.1-.27.49-1.16.74a9.27 9.27 0 01-2.57.32 8.85 8.85 0 01-3-.47c-.63-.23-.84-.51-.84-.62 0-.12.28-.5 1.18-.74a9 9 0 012.5-.34zm-9.64-3.32a9.59 9.59 0 012.56-.32 9.17 9.17 0 013.06.46c.66.25.86.56.84.65-.02.09-.28.5-1.17.74a9.66 9.66 0 01-2.57.32 8.86 8.86 0 01-3-.46c-.63-.24-.84-.53-.84-.63-.06-.11.25-.52 1.12-.76zm-4.3 5a9.46 9.46 0 012.55-.32 9.17 9.17 0 013.06.46c.66.26.86.56.84.65-.02.09-.28.5-1.17.75a10.11 10.11 0 01-2.57.31 8.86 8.86 0 01-3-.46c-.63-.24-.84-.52-.84-.63-.05-.11.25-.47 1.15-.71zm-8.24-2.9c0-.12.29-.5 1.18-.74a9.53 9.53 0 012.56-.32 9.26 9.26 0 013 .46c.67.25.87.56.85.65-.02.09-.28.49-1.17.74a9.15 9.15 0 01-2.56.32 8.81 8.81 0 01-3-.47c-.64-.23-.85-.51-.85-.62zm-5.05 2.61l4.45-.62v1.37c0 .56.5.92 1.22 1.19a9.25 9.25 0 003.26.52 10.57 10.57 0 002.59-.31v2.21c0 .56.5.91 1.22 1.2a9.51 9.51 0 003.26.5 9.77 9.77 0 002.73-.34c.94-.28 1.56-.66 1.6-1.3v-3.36a10.17 10.17 0 002.54-.3v2.23c0 .56.5.91 1.22 1.19a9.27 9.27 0 003.27.52 10.2 10.2 0 002.73-.35c.93-.29 1.55-.65 1.59-1.31v-1.92.38l5 2.71-23 3.24zm37.27 22.33c-.08 0-23.39 3.28-23.39 3.28v-17.61l23.39-3.28s.01 17.55.02 17.66z" fill="#02743b"/><path d="M29.454 21.481c0-.55-.5-.91-1.22-1.2a9.8 9.8 0 00-3.26-.5 10.15 10.15 0 00-2.73.34c-.94.28-1.55.66-1.59 1.3v1.38l-5.42.76h-.11a.19.19 0 000 .07v18.21a.27.27 0 000 .13.1.1 0 000 .05l3.83 2.1 10.67 6.09h.12l24-3.37h.11v-18.27a.27.27 0 000-.12l-6-3.29v-1.45c0-.56-.5-.91-1.23-1.2a9.55 9.55 0 00-3.26-.5h-.72l-1.86-1v-.94c0-.55-.5-.91-1.22-1.2a9.85 9.85 0 00-3.27-.51 10 10 0 00-2.72.35c-.94.28-1.55.65-1.6 1.29v1.21l-2.55.36" fill="#1ea551"/><path d="M54.084 28.401a.27.27 0 000-.12l-6-3.29v-1.28c0-.56-.5-.91-1.23-1.2a9.55 9.55 0 00-3.26-.5h-.72l-1.86-1v.66l.83.46c-.29.05-.57.11-.83.18v-2.24c0-.55-.5-.91-1.22-1.2a9.85 9.85 0 00-3.27-.51 10 10 0 00-2.72.35c-.94.28-1.55.65-1.6 1.29v1.21l-2.55.36v.6l2.54-.36v1.55a9.8 9.8 0 00-2.69.34h.14v-2.24c0-.55-.5-.91-1.22-1.2a9.8 9.8 0 00-3.26-.5 10.15 10.15 0 00-2.73.34c-.94.28-1.55.66-1.59 1.3v1.38l-5.42.76h-.11a.19.19 0 000 .07v18.21a.27.27 0 000 .13.1.1 0 000 .05l3.83 2.1 10.48 6.11h.12l24-3.37h.11v-18.27zm-10.69-5.81a9.33 9.33 0 013.05.46c.66.25.86.56.84.65-.02.09-.27.49-1.16.75a9.66 9.66 0 01-2.57.32 9.09 9.09 0 01-3-.47c-.63-.24-.84-.52-.84-.63 0-.12.28-.5 1.18-.74a9.41 9.41 0 012.5-.34zm-9.64-3.32a9.59 9.59 0 012.56-.32 9.15 9.15 0 013.06.47c.66.25.86.55.84.64-.02.09-.28.5-1.17.75a9.68 9.68 0 01-2.57.31 8.86 8.86 0 01-3-.46c-.63-.24-.84-.52-.84-.63-.06-.14.25-.52 1.12-.76zm-4.3 5.05a9.46 9.46 0 012.55-.32 9.15 9.15 0 013.06.47c.66.25.86.55.84.65-.02.1-.28.49-1.17.74a9.66 9.66 0 01-2.57.32 9.09 9.09 0 01-3-.47c-.63-.24-.84-.52-.84-.63-.05-.14.25-.52 1.15-.76zm-8.24-2.89c0-.12.29-.49 1.18-.74a9.53 9.53 0 012.56-.32 9 9 0 013 .47c.67.24.87.55.85.64-.02.09-.28.5-1.17.75a9.53 9.53 0 01-2.56.32 9.05 9.05 0 01-3-.47c-.64-.24-.85-.52-.85-.63zm-5.05 2.61l4.45-.63v1.37c0 .56.5.92 1.22 1.2a9.5 9.5 0 003.26.51 10.11 10.11 0 002.59-.31v2.21c0 .56.5.92 1.22 1.2a9.5 9.5 0 003.26.51 10.15 10.15 0 002.73-.34c.94-.29 1.56-.66 1.6-1.31v-3.36a10.17 10.17 0 002.54-.3v2.24c0 .56.5.92 1.22 1.2a9.52 9.52 0 003.27.51 9.81 9.81 0 002.73-.35c.93-.28 1.55-.65 1.59-1.3v-1.93.38l5 2.72-23 3.23zm37.27 22.32c-.08.06-23.39 3.28-23.39 3.28v-17.61l23.39-3.28s.01 17.46.02 17.61z" fill="#02743b"/></svg>