<svg xmlns="http://www.w3.org/2000/svg" viewBox="0 0 146.402 141.429"><path d="M107.644 92.392c0-.55-.48-.9-1.19-1.18a9.63 9.63 0 00-3.19-.49 9.73 9.73 0 00-2.66.34c-.91.27-1.5.64-1.55 1.26v1.35l-5.28.75a.23.23 0 00-.11 0v17.84a.3.3 0 000 .13l3.74 2 10.44 5.67h.12l23.42-3.29a.21.21 0 00.1 0 .14.14 0 000-.06v-17.61a.2.2 0 000-.11l-5.9-3.22v-1.11c0-.54-.48-.89-1.19-1.17a9.38 9.38 0 00-3.19-.49h-.7l-1.81-1v-.92c0-.54-.49-.89-1.2-1.17a9.31 9.31 0 00-3.18-.5 9.58 9.58 0 00-2.66.34c-.91.28-1.52.64-1.56 1.26v1.18l-2.49.35" fill="#ffdc5a"/><path d="M131.684 99.132a.2.2 0 000-.11l-5.9-3.22v-1.11c0-.54-.48-.89-1.19-1.17a9.38 9.38 0 00-3.19-.49h-.7l-1.81-1v.64l.81.45a7 7 0 00-.82.17v-2.18c0-.54-.49-.89-1.2-1.17a9.31 9.31 0 00-3.18-.5 9.58 9.58 0 00-2.66.34c-.91.28-1.52.64-1.56 1.26v1.18l-2.49.35v.59l2.49-.35v1.49a9.85 9.85 0 00-2.63.34h.14v-2.18c0-.55-.48-.9-1.19-1.18a9.63 9.63 0 00-3.19-.49 9.73 9.73 0 00-2.66.34c-.91.27-1.5.64-1.55 1.26v1.35l-5.28.75a.23.23 0 00-.11 0v17.84a.3.3 0 000 .13l3.74 2 10.44 5.67h.12l23.42-3.29a.21.21 0 00.1 0 .14.14 0 000-.06v-17.68zm-10.44-5.66a8.9 8.9 0 013 .45c.65.24.85.54.82.63-.03.09-.26.48-1.13.73a9.22 9.22 0 01-2.51.31 8.58 8.58 0 01-3-.46c-.63-.23-.83-.5-.83-.61 0-.12.28-.48 1.15-.72a9.07 9.07 0 012.5-.33zm-9.38-3.24a9.13 9.13 0 012.5-.32 8.62 8.62 0 013 .46c.65.24.85.54.83.63-.02.09-.27.48-1.14.73a9.65 9.65 0 01-2.51.3 8.4 8.4 0 01-3-.45c-.62-.23-.83-.51-.82-.61-.03-.14.27-.51 1.14-.74zm-4.21 4.92a9.61 9.61 0 012.5-.31 8.68 8.68 0 013 .46c.65.24.85.54.83.63-.02.09-.28.48-1.15.73a9.57 9.57 0 01-2.5.3 8.46 8.46 0 01-3-.45c-.61-.23-.82-.51-.82-.61-.02-.14.28-.51 1.14-.75zm-8-2.82c0-.11.28-.48 1.15-.71a8.69 8.69 0 012.49-.32 8.9 8.9 0 013 .45c.65.25.85.54.82.64-.03.1-.26.48-1.13.72a9.21 9.21 0 01-2.51.32 8.87 8.87 0 01-3-.46c-.62-.23-.83-.51-.83-.61zm-4.93 2.55l4.34-.61v1.33c0 .54.49.89 1.2 1.16a9 9 0 003.18.5 10.06 10.06 0 002.52-.3v2.16c0 .54.49.89 1.19 1.17a9.32 9.32 0 003.18.49 9.72 9.72 0 002.67-.33c.92-.28 1.52-.64 1.56-1.28v-3.27a9.69 9.69 0 002.48-.3v2.19c0 .55.49.9 1.19 1.17a9.33 9.33 0 003.19.5 10.21 10.21 0 002.67-.34c.9-.28 1.51-.64 1.55-1.28v-1.51l4.87 2.66-22.45 3.15zm36.37 21.79c-.08 0-22.83 3.2-22.83 3.2v-17.19l22.83-3.2s-.04 17.08-.03 17.19z" fill="#f3aa00"/><path d="M107.644 74.532c0-.55-.48-.89-1.19-1.17a9.37 9.37 0 00-3.19-.5 9.73 9.73 0 00-2.66.34c-.91.27-1.5.64-1.55 1.27v1.35l-5.28.75a.23.23 0 00-.11 0v17.83a.27.27 0 000 .13l3.74 2 10.44 5.68a.28.28 0 00.12 0l23.42-3.29a.21.21 0 00.1 0v-.05a.14.14 0 000-.06v-17.77a.27.27 0 000-.12v-.05l-5.9-3.22v-1.11c0-.54-.48-.89-1.19-1.17a9.38 9.38 0 00-3.19-.49h-.7l-1.81-1v-.92c0-.55-.49-.9-1.2-1.18a9.32 9.32 0 00-3.18-.49 9.59 9.59 0 00-2.66.33c-.91.28-1.52.64-1.56 1.26v1.17l-2.49.34" fill="#ffdc5a"/><path d="M131.684 81.292a.27.27 0 000-.12v-.05l-5.9-3.22v-1.11c0-.54-.48-.89-1.19-1.17a9.38 9.38 0 00-3.19-.49h-.7l-1.81-1v.65l.81.44c-.28 0-.56.1-.82.17v-2.18c0-.55-.49-.9-1.2-1.18a9.32 9.32 0 00-3.18-.49 9.59 9.59 0 00-2.66.33c-.91.28-1.52.64-1.56 1.26v1.17l-2.49.34v.59l2.49-.35v1.49a10.28 10.28 0 00-2.63.34h.14v-2.18c0-.55-.48-.89-1.19-1.17a9.37 9.37 0 00-3.19-.5 9.73 9.73 0 00-2.66.34c-.91.27-1.5.64-1.55 1.27v1.35l-5.28.75a.23.23 0 00-.11 0v17.83a.27.27 0 000 .13l3.74 2 10.44 5.68a.28.28 0 00.12 0l23.42-3.29a.21.21 0 00.1 0v-.05a.14.14 0 000-.06v-17.77zm-10.44-5.67a8.9 8.9 0 013 .45c.65.25.85.54.82.63-.03.09-.26.49-1.13.73a9.22 9.22 0 01-2.51.31 8.84 8.84 0 01-3-.45c-.63-.24-.83-.51-.83-.61 0-.11.28-.48 1.15-.72a9.07 9.07 0 012.5-.34zm-9.38-3.24a9.13 9.13 0 012.5-.32 8.87 8.87 0 013 .46c.65.25.85.54.83.64-.02.1-.27.48-1.14.72a9.63 9.63 0 01-2.51.31 8.39 8.39 0 01-3-.46c-.62-.23-.83-.51-.82-.61-.03-.13.27-.5 1.14-.74zm-4.21 4.93a9.19 9.19 0 012.5-.32 8.93 8.93 0 013 .46c.65.25.85.54.83.63-.02.09-.28.49-1.15.73a9.55 9.55 0 01-2.5.31 8.45 8.45 0 01-3-.46c-.61-.23-.82-.51-.82-.61-.02-.12.28-.5 1.14-.74zm-8-2.83c0-.12.28-.48 1.15-.72a9.06 9.06 0 012.49-.32 8.89 8.89 0 013 .46c.65.24.85.54.82.63-.03.09-.26.48-1.13.72a9.21 9.21 0 01-2.51.32 8.62 8.62 0 01-3-.46c-.62-.23-.83-.51-.83-.61zm-4.93 2.55l4.34-.61v1.34c0 .54.49.89 1.2 1.17a9.24 9.24 0 003.18.49 10.06 10.06 0 002.52-.3v2.16c0 .54.49.89 1.19 1.17a9.32 9.32 0 003.18.49 9.72 9.72 0 002.67-.33c.92-.28 1.52-.64 1.56-1.27v-3.28a10.15 10.15 0 002.48-.3v2.17c0 .54.49.89 1.19 1.16a9.09 9.09 0 003.19.5 9.81 9.81 0 002.67-.34c.9-.28 1.51-.63 1.55-1.27v-1.51l4.87 2.65-22.45 3.16zm36.37 21.79c-.08.06-22.83 3.2-22.83 3.2v-17.18l22.83-3.21s-.04 17.08-.03 17.19z" fill="#f3aa00"/><path d="M107.644 56.692c0-.54-.48-.89-1.19-1.17a10.6 10.6 0 00-5.85-.15c-.91.27-1.5.63-1.55 1.26v1.35l-5.28.74h-.11v17.83a.25.25 0 000 .12v.05l3.74 2 10.44 5.68h.12l23.42-3.29h.1a.08.08 0 000-.06v-17.83a.27.27 0 000-.12.07.07 0 000-.05l-5.9-3.21v-1.12c0-.55-.48-.89-1.19-1.17a9.13 9.13 0 00-3.19-.5h-.7l-1.81-1v-.92c0-.55-.49-.89-1.2-1.17a9.07 9.07 0 00-3.18-.5 9.58 9.58 0 00-2.66.34c-.91.27-1.52.63-1.56 1.26v1.17l-2.49.35" fill="#ffdc5a"/><path d="M131.684 63.442a.27.27 0 000-.12.07.07 0 000-.05l-5.9-3.21v-1.12c0-.55-.48-.89-1.19-1.17a9.13 9.13 0 00-3.19-.5h-.7l-1.81-1v.66l.81.44c-.28.05-.56.11-.82.18v-2.19c0-.55-.49-.89-1.2-1.17a9.07 9.07 0 00-3.18-.5 9.58 9.58 0 00-2.66.34c-.91.27-1.52.63-1.56 1.26v1.17l-2.49.35v.59l2.49-.35v1.48a9.46 9.46 0 00-2.63.34h.14v-2.18c0-.54-.48-.89-1.19-1.17a10.6 10.6 0 00-5.85-.15c-.91.27-1.5.63-1.55 1.26v1.35l-5.28.74h-.11v17.83a.25.25 0 000 .12v.05l3.74 2 10.44 5.68h.12l23.42-3.29h.1a.08.08 0 000-.06v-17.83zm-10.44-5.67a8.64 8.64 0 013 .46c.65.24.85.53.82.63-.03.1-.26.48-1.13.72a9.21 9.21 0 01-2.51.32 8.82 8.82 0 01-3-.46c-.63-.23-.83-.51-.83-.61 0-.11.28-.47 1.15-.71a9.06 9.06 0 012.5-.35zm-9.38-3.24a9.55 9.55 0 012.5-.31 8.62 8.62 0 013 .46c.65.24.85.53.83.63-.02.1-.27.48-1.14.72a9.22 9.22 0 01-2.51.31 8.4 8.4 0 01-3-.45c-.62-.23-.83-.51-.82-.62-.03-.13.27-.5 1.14-.74zm-4.21 4.93a9.61 9.61 0 012.5-.31 8.68 8.68 0 013 .46c.65.24.85.54.83.63-.02.09-.28.48-1.15.72a9.15 9.15 0 01-2.5.31 8.46 8.46 0 01-3-.45c-.61-.23-.82-.51-.82-.62-.02-.13.28-.5 1.14-.74zm-8-2.82c0-.11.28-.48 1.15-.72a9.07 9.07 0 012.49-.31 8.9 8.9 0 013 .45c.65.25.85.54.82.63-.03.09-.26.48-1.13.73a9.22 9.22 0 01-2.51.31 8.62 8.62 0 01-3-.46c-.62-.23-.83-.5-.83-.61zm-4.93 2.54l4.34-.61v1.36c0 .55.49.9 1.2 1.17a9.23 9.23 0 003.18.5 10.55 10.55 0 002.52-.3v2.16c0 .55.49.9 1.19 1.18a9.57 9.57 0 003.18.49 10.12 10.12 0 002.67-.33c.92-.29 1.52-.65 1.56-1.28v-3.28a10.15 10.15 0 002.48-.3v2.18c0 .54.49.89 1.19 1.16a9.09 9.09 0 003.19.5 10.22 10.22 0 002.67-.33c.9-.28 1.51-.64 1.55-1.28v-1.54l4.87 2.65-22.45 3.16zm36.34 21.75c-.08.06-22.83 3.21-22.83 3.21v-17.19l22.83-3.21s-.01 17.12 0 17.19z" fill="#f3aa00"/><path d="M107.644 38.842c0-.55-.48-.9-1.19-1.17a9.13 9.13 0 00-3.19-.5 9.73 9.73 0 00-2.66.34c-.91.27-1.5.64-1.55 1.26v1.35l-5.28.75a.23.23 0 00-.11 0v17.89a.27.27 0 000 .13.1.1 0 000 .05l3.74 2 10.44 5.68h.12l23.42-3.29a.21.21 0 00.1 0 .14.14 0 000-.06v-17.67a.2.2 0 000-.11l-5.9-3.22v-1.11c0-.54-.48-.89-1.19-1.17a9.38 9.38 0 00-3.19-.49h-.7l-1.81-1v-.91c0-.54-.49-.89-1.2-1.17a9.31 9.31 0 00-3.18-.5 9.58 9.58 0 00-2.66.34c-.91.28-1.52.64-1.56 1.26v1.18l-2.49.35" fill="#ffdc5a"/><path d="M131.684 45.592a.2.2 0 000-.11l-5.9-3.22v-1.11c0-.54-.48-.89-1.19-1.17a9.38 9.38 0 00-3.19-.49h-.7l-1.81-1v.65l.81.45a7 7 0 00-.82.17v-2.18c0-.54-.49-.89-1.2-1.17a9.31 9.31 0 00-3.18-.5 9.58 9.58 0 00-2.66.34c-.91.28-1.52.64-1.56 1.26v1.18l-2.49.35v.59l2.49-.35v1.49a10.28 10.28 0 00-2.63.34h.14v-2.18c0-.55-.48-.9-1.19-1.17a9.13 9.13 0 00-3.19-.5 9.73 9.73 0 00-2.66.34c-.91.27-1.5.64-1.55 1.26v1.35l-5.28.75a.23.23 0 00-.11 0v17.89a.27.27 0 000 .13.1.1 0 000 .05l3.74 2 10.44 5.68h.12l23.42-3.29a.21.21 0 00.1 0 .14.14 0 000-.06v-17.76zm-10.44-5.66a8.9 8.9 0 013 .45c.65.24.85.54.82.63-.03.09-.26.48-1.13.73a9.22 9.22 0 01-2.51.31 8.58 8.58 0 01-3-.46c-.63-.23-.83-.5-.83-.61 0-.12.28-.48 1.15-.72a9.07 9.07 0 012.5-.33zm-9.38-3.24a9.13 9.13 0 012.5-.32 8.62 8.62 0 013 .46c.65.24.85.54.83.63-.02.09-.27.48-1.14.73a9.65 9.65 0 01-2.51.3 8.4 8.4 0 01-3-.45c-.62-.23-.83-.51-.82-.61-.03-.14.27-.5 1.14-.74zm-4.21 4.93a9.19 9.19 0 012.5-.32 8.68 8.68 0 013 .46c.65.24.85.54.83.63-.02.09-.28.48-1.15.73a9.57 9.57 0 01-2.5.3 8.46 8.46 0 01-3-.45c-.61-.23-.82-.51-.82-.61-.02-.14.28-.51 1.14-.74zm-8-2.83c0-.11.28-.48 1.15-.71a9.06 9.06 0 012.49-.32 8.9 8.9 0 013 .45c.65.25.85.54.82.64-.03.1-.26.48-1.13.72a9.21 9.21 0 01-2.51.32 8.87 8.87 0 01-3-.46c-.62-.24-.83-.51-.83-.61zm-4.93 2.55l4.34-.61v1.33c0 .54.49.89 1.2 1.16a9 9 0 003.18.5 10.06 10.06 0 002.52-.3v2.16c0 .54.49.89 1.19 1.17a9.32 9.32 0 003.18.49 10.12 10.12 0 002.59-.31c.92-.29 1.52-.64 1.56-1.27v-3.28a9.69 9.69 0 002.48-.3v2.19c0 .55.49.9 1.19 1.17a9.33 9.33 0 003.19.5 9.81 9.81 0 002.67-.34c.9-.28 1.51-.64 1.55-1.28v-1.51l4.87 2.66-22.45 3.15zm36.37 21.79c-.08 0-22.83 3.2-22.83 3.2v-17.19l22.83-3.2s-.04 17.08-.03 17.19z" fill="#f3aa00"/><path d="M107.644 20.992c0-.55-.48-.89-1.19-1.17a9.37 9.37 0 00-3.19-.5 9.73 9.73 0 00-2.66.34c-.91.27-1.5.64-1.55 1.27v1.35l-5.28.75a.23.23 0 00-.11 0v17.84a.27.27 0 000 .13l3.74 2 10.44 5.67a.28.28 0 00.12 0l23.42-3.29a.14.14 0 00.1 0 .14.14 0 000-.06v-17.77a.27.27 0 000-.12l-5.9-3.22v-1.11c0-.54-.48-.89-1.19-1.17a9.38 9.38 0 00-3.19-.49h-.7l-1.81-1v-.92c0-.55-.49-.9-1.2-1.18a10.46 10.46 0 00-5.84-.16c-.91.28-1.52.64-1.56 1.26v1.16l-2.49.35" fill="#ffdc5a"/><path d="M131.684 27.752a.27.27 0 000-.12l-5.9-3.22v-1.11c0-.54-.48-.89-1.19-1.17a9.38 9.38 0 00-3.19-.49h-.7l-1.81-1v.65l.81.44a7 7 0 00-.82.17v-2.18c0-.55-.49-.9-1.2-1.18a10.46 10.46 0 00-5.84-.16c-.91.28-1.52.64-1.56 1.26v1.16l-2.49.35v.59l2.49-.35v1.49a10.28 10.28 0 00-2.63.34h.14v-2.19c0-.55-.48-.89-1.19-1.17a9.37 9.37 0 00-3.19-.5 9.73 9.73 0 00-2.66.34c-.91.27-1.5.64-1.55 1.27v1.35l-5.28.75a.23.23 0 00-.11 0v17.84a.27.27 0 000 .13l3.74 2 10.44 5.67a.28.28 0 00.12 0l23.42-3.29a.14.14 0 00.1 0 .14.14 0 000-.06v-17.77zm-10.44-5.67a8.9 8.9 0 013 .45c.65.24.85.54.82.63-.03.09-.26.49-1.13.73a9.22 9.22 0 01-2.51.31 8.58 8.58 0 01-3-.46c-.63-.23-.83-.5-.83-.6 0-.11.28-.48 1.15-.72a9.07 9.07 0 012.5-.34zm-9.38-3.24a9.13 9.13 0 012.5-.32 8.87 8.87 0 013 .46c.65.25.85.54.83.64-.02.1-.27.48-1.14.72a9.63 9.63 0 01-2.51.31 8.62 8.62 0 01-3-.46c-.62-.23-.83-.51-.82-.61-.03-.13.27-.5 1.14-.74zm-4.21 4.93a9.19 9.19 0 012.5-.32 8.93 8.93 0 013 .46c.65.25.85.54.83.63-.02.09-.28.49-1.15.73a9.55 9.55 0 01-2.5.31 8.68 8.68 0 01-3-.46c-.61-.23-.82-.51-.82-.61-.02-.13.28-.5 1.14-.74zm-8-2.83c0-.12.28-.49 1.15-.72a9.06 9.06 0 012.49-.32 8.89 8.89 0 013 .46c.65.24.85.54.82.63-.03.09-.26.48-1.13.72a9.21 9.21 0 01-2.51.32 8.87 8.87 0 01-3-.46c-.62-.23-.83-.51-.83-.61zm-4.93 2.55l4.34-.61v1.33c0 .54.49.89 1.2 1.16a9 9 0 003.18.5 10.06 10.06 0 002.52-.3v2.16c0 .54.49.89 1.19 1.17a9.32 9.32 0 003.18.49 9.72 9.72 0 002.67-.33c.92-.28 1.52-.64 1.56-1.27v-3.28a10.16 10.16 0 002.48-.29v2.18c0 .55.49.9 1.19 1.17a9.09 9.09 0 003.19.5 9.81 9.81 0 002.67-.34c.9-.28 1.51-.64 1.55-1.27v-1.53l4.87 2.65-22.45 3.16zm36.37 21.79c-.08 0-22.83 3.2-22.83 3.2v-17.18l22.83-3.21s-.04 17.08-.03 17.19z" fill="#f3aa00"/><path d="M107.644 3.152c0-.54-.48-.89-1.19-1.17a10.6 10.6 0 00-5.85-.15c-.91.27-1.5.63-1.55 1.26v1.35l-5.28.74h-.11v17.84a.25.25 0 000 .12l3.74 2 10.44 5.68h.12l23.42-3.29h.1a.11.11 0 000-.06V9.702a.27.27 0 000-.12l-5.9-3.22v-1.11c0-.55-.48-.89-1.19-1.18a9.38 9.38 0 00-3.19-.49h-.7l-1.81-1v-.91c0-.55-.49-.89-1.2-1.17a9.07 9.07 0 00-3.18-.5 9.58 9.58 0 00-2.66.34c-.91.27-1.52.63-1.56 1.26v1.33l-2.49.35" fill="#ffdc5a"/><path d="M131.684 9.932a.27.27 0 000-.12l-5.9-3.22v-1.11c0-.55-.48-.89-1.19-1.18a9.38 9.38 0 00-3.19-.49h-.7l-1.81-1v.65l.81.44c-.28 0-.56.1-.82.17v-2.17c0-.55-.49-.89-1.2-1.17a9.07 9.07 0 00-3.18-.5 9.58 9.58 0 00-2.66.34c-.91.27-1.52.63-1.56 1.26v1.1l-2.49.35v.58l2.49-.34v1.49a9.46 9.46 0 00-2.63.34h.14v-2.18c0-.54-.48-.89-1.19-1.17a10.6 10.6 0 00-5.85-.15c-.91.27-1.5.63-1.55 1.26v1.35l-5.28.74h-.11v17.84a.25.25 0 000 .12l3.74 2 10.44 5.68h.12l23.42-3.29h.1a.11.11 0 000-.06V9.662zm-10.44-5.67a8.64 8.64 0 013 .46c.65.24.85.53.82.63-.03.1-.26.48-1.13.72a9.22 9.22 0 01-2.51.31 8.84 8.84 0 01-3-.45c-.63-.23-.83-.51-.83-.61 0-.11.28-.47 1.15-.71a9.06 9.06 0 012.5-.38zm-9.38-3.24a9.55 9.55 0 012.5-.31 8.62 8.62 0 013 .46c.65.24.85.53.83.63-.02.1-.27.48-1.14.72a9.63 9.63 0 01-2.51.31 8.4 8.4 0 01-3-.45c-.62-.23-.83-.51-.82-.62-.03-.16.27-.53 1.14-.77zm-4.21 4.93a9.61 9.61 0 012.5-.31 8.94 8.94 0 013 .45c.65.25.85.54.83.64-.02.1-.28.48-1.15.72a9.55 9.55 0 01-2.5.31 8.7 8.7 0 01-3-.45c-.61-.23-.82-.51-.82-.62-.02-.16.28-.53 1.14-.76zm-8-2.82c0-.12.28-.48 1.15-.72a9.07 9.07 0 012.49-.31 8.9 8.9 0 013 .45c.65.25.85.54.82.63-.03.09-.26.48-1.13.73a9.22 9.22 0 01-2.51.31 8.62 8.62 0 01-3-.46c-.62-.23-.83-.5-.83-.61zm-4.93 2.54l4.34-.61v1.34c0 .55.49.9 1.2 1.17a9.23 9.23 0 003.18.5 10.55 10.55 0 002.52-.3v2.16c0 .55.49.9 1.19 1.18a9.57 9.57 0 003.18.49 10.12 10.12 0 002.67-.33c.92-.29 1.52-.65 1.56-1.28v-3.28a10.15 10.15 0 002.48-.3v2.18c0 .54.49.89 1.19 1.16a9.09 9.09 0 003.19.5 10.22 10.22 0 002.67-.33c.9-.28 1.51-.64 1.55-1.28v-1.51l4.87 2.65-22.48 3.15zm36.37 21.79c-.08.06-22.83 3.2-22.83 3.2v-17.18l22.83-3.21s-.04 17.05-.03 17.16z" fill="#f3aa00"/><path d="M84.224 95.692c0-.55-.48-.89-1.19-1.17a9.38 9.38 0 00-3.19-.49 9.79 9.79 0 00-2.66.33c-.91.28-1.51.64-1.55 1.27v1.35l-5.29.75a.19.19 0 00-.1 0v17.83a.27.27 0 000 .13l3.74 2 10.44 5.68a.28.28 0 00.12 0l23.42-3.28h.1a.11.11 0 000-.06v-17.82a.25.25 0 000-.12v-.06l-5.9-3.22v-1.11c0-.55-.49-.9-1.19-1.18a9.38 9.38 0 00-3.19-.49h-.7l-1.81-1v-.92c0-.54-.49-.89-1.2-1.16a9.07 9.07 0 00-3.18-.5 10 10 0 00-2.66.33c-.91.28-1.52.64-1.56 1.27v1.16l-2.49.35" fill="#ffdc5a"/><path d="M108.254 102.442a.25.25 0 000-.12v-.06l-5.9-3.22v-1.11c0-.55-.49-.9-1.19-1.18a9.38 9.38 0 00-3.19-.49h-.7l-1.81-1v.67l.81.44a7 7 0 00-.82.17v-2.18c0-.54-.49-.89-1.2-1.16a9.07 9.07 0 00-3.18-.5 10 10 0 00-2.66.33c-.91.28-1.52.64-1.56 1.27v1.16l-2.49.35v.59l2.48-.35v1.51a9.81 9.81 0 00-2.63.33h.14v-2.18c0-.55-.48-.89-1.19-1.17a9.38 9.38 0 00-3.19-.49 9.79 9.79 0 00-2.66.33c-.91.28-1.51.64-1.55 1.27v1.35l-5.29.75a.19.19 0 00-.1 0v17.83a.27.27 0 000 .13l3.74 2 10.44 5.68a.28.28 0 00.12 0l23.42-3.28h.1a.11.11 0 000-.06v-17.82zm-10.43-5.67a8.94 8.94 0 013 .45c.65.25.85.54.82.64-.03.1-.26.47-1.14.72a9.1 9.1 0 01-2.5.31 9 9 0 01-3-.45c-.61-.24-.82-.51-.82-.61 0-.11.28-.48 1.15-.72a9.07 9.07 0 012.49-.34zm-9.38-3.24a9.55 9.55 0 012.5-.31 8.88 8.88 0 013 .45c.65.25.85.54.83.63-.02.09-.27.49-1.14.73a9.63 9.63 0 01-2.51.31 8.92 8.92 0 01-3-.45c-.62-.24-.83-.52-.82-.62-.03-.13.27-.5 1.14-.74zm-4.2 4.93a9.48 9.48 0 012.49-.31 8.94 8.94 0 013 .45c.65.25.84.54.82.64-.02.1-.27.48-1.14.72a9.55 9.55 0 01-2.5.31 8.94 8.94 0 01-3-.45c-.61-.24-.82-.51-.82-.62-.03-.13.28-.5 1.15-.74zm-8-2.83c0-.12.28-.48 1.15-.72a9.07 9.07 0 012.49-.31 8.9 8.9 0 013 .45c.65.24.85.54.82.63-.03.09-.27.48-1.13.73a9.63 9.63 0 01-2.51.31 8.93 8.93 0 01-3-.46c-.61-.23-.82-.5-.82-.61zm-4.93 2.55l4.34-.61v1.36c0 .55.49.9 1.19 1.16a9.08 9.08 0 003.19.51 10.19 10.19 0 002.53-.31v2.16c0 .55.49.89 1.19 1.17a9.31 9.31 0 003.18.5 9.71 9.71 0 002.67-.34c.92-.28 1.52-.64 1.56-1.27v-3.28a9.75 9.75 0 002.48-.29v2.18c0 .54.49.89 1.19 1.16a9.09 9.09 0 003.19.5 9.68 9.68 0 002.66-.34c.92-.28 1.52-.64 1.56-1.27v-1.54l4.87 2.65-22.45 3.16zm36.33 21.75c-.08.05-22.83 3.2-22.83 3.2v-17.18l22.82-3.21s0 17.12.01 17.19z" fill="#f3aa00"/><path d="M84.224 77.842c0-.54-.48-.89-1.19-1.17a10.6 10.6 0 00-5.85-.15c-.91.27-1.51.63-1.55 1.26v1.35l-5.29.74h-.1v17.88a.25.25 0 000 .12v.05l3.74 2 10.44 5.68h.12l23.42-3.28h.1a.11.11 0 000-.06v-17.77a.25.25 0 000-.12l-5.9-3.21v-1.11c0-.55-.49-.9-1.19-1.17a9.37 9.37 0 00-3.19-.5h-.7l-1.81-1v-.91c0-.55-.49-.89-1.2-1.17a9.07 9.07 0 00-3.18-.5 10 10 0 00-2.66.33c-.91.29-1.52.64-1.56 1.27v1.17l-2.49.35" fill="#ffdc5a"/><path d="M108.254 84.592a.25.25 0 000-.12l-5.9-3.21v-1.11c0-.55-.49-.9-1.19-1.17a9.37 9.37 0 00-3.19-.5h-.7l-1.81-1v.65l.81.44c-.28.05-.56.11-.82.18v-2.18c0-.55-.49-.89-1.2-1.17a9.07 9.07 0 00-3.18-.5 10 10 0 00-2.66.33c-.91.29-1.52.64-1.56 1.27v1.17l-2.49.35v.58l2.48-.35v1.51a9.81 9.81 0 00-2.63.33h.14v-2.18c0-.54-.48-.89-1.19-1.17a10.6 10.6 0 00-5.85-.15c-.91.27-1.51.63-1.55 1.26v1.35l-5.29.74h-.1v17.88a.25.25 0 000 .12v.05l3.74 2 10.44 5.68h.12l23.42-3.28h.1a.11.11 0 000-.06v-17.77zm-10.43-5.66a8.93 8.93 0 013 .46c.65.24.85.54.82.63-.03.09-.26.48-1.14.72a9.08 9.08 0 01-2.5.32 9 9 0 01-3-.46c-.61-.23-.82-.51-.82-.61 0-.12.28-.48 1.15-.72a9.06 9.06 0 012.49-.34zm-9.38-3.24a9.55 9.55 0 012.5-.31 8.62 8.62 0 013 .46c.65.24.85.54.83.63-.02.09-.27.48-1.14.73a9.65 9.65 0 01-2.51.3 8.67 8.67 0 01-3-.45c-.62-.23-.83-.51-.82-.61-.03-.15.27-.51 1.14-.76zm-4.2 4.93a9.48 9.48 0 012.49-.31 8.68 8.68 0 013 .46c.65.24.84.54.82.63-.02.09-.27.48-1.14.72a9.15 9.15 0 01-2.5.31 8.7 8.7 0 01-3-.45c-.61-.23-.82-.51-.82-.62-.03-.14.28-.51 1.15-.75zm-8-2.82c0-.12.28-.48 1.15-.72a9.07 9.07 0 012.49-.31 8.9 8.9 0 013 .45c.65.24.85.54.82.63-.03.09-.27.49-1.13.73a9.22 9.22 0 01-2.51.31 8.68 8.68 0 01-3-.46c-.61-.23-.82-.5-.82-.61zm-4.93 2.54l4.34-.61v1.34c0 .55.49.9 1.19 1.17a9.09 9.09 0 003.19.5 10.2 10.2 0 002.53-.3v2.15c0 .55.49.9 1.19 1.17a9.07 9.07 0 003.18.5 10.12 10.12 0 002.67-.33c.92-.29 1.52-.65 1.56-1.28v-3.28a10.21 10.21 0 002.48-.3v2.19c0 .54.49.89 1.19 1.16a9.08 9.08 0 003.19.51 10.08 10.08 0 002.66-.34c.92-.28 1.52-.64 1.56-1.28v-1.51l4.87 2.65-22.45 3.16zm36.37 21.79c-.08.06-22.83 3.21-22.83 3.21v-17.19l22.82-3.2s-.04 17.06-.03 17.17z" fill="#f3aa00"/><path d="M60.824 81.132c0-.55-.48-.9-1.19-1.17a9.37 9.37 0 00-3.19-.5 9.79 9.79 0 00-2.66.34c-.91.27-1.51.64-1.55 1.26v1.35l-5.29.75a.19.19 0 00-.1 0v17.84a.28.28 0 000 .13l3.74 2 10.44 5.68h.12l23.42-3.29h.1a.14.14 0 000-.06v-17.83a.22.22 0 000-.12.21.21 0 010-.06l-5.91-3.22v-1.11c0-.54-.49-.89-1.19-1.17a9.38 9.38 0 00-3.19-.49h-.71l-1.8-1v-.92c0-.54-.5-.89-1.2-1.17a10.46 10.46 0 00-5.84-.16c-.92.28-1.52.64-1.56 1.27v1.16l-2.49.35" fill="#ffdc5a"/><path d="M84.854 87.932a.22.22 0 000-.12.21.21 0 010-.06l-5.91-3.22v-1.11c0-.54-.49-.89-1.19-1.17a9.38 9.38 0 00-3.19-.49h-.71l-1.8-1v.64l.81.45c-.28 0-.56.1-.82.17v-2.18c0-.54-.5-.89-1.2-1.17a10.46 10.46 0 00-5.84-.16c-.92.28-1.52.64-1.56 1.27v1.16l-2.49.35v.59l2.48-.35v1.4a10.22 10.22 0 00-2.63.34h.14v-2.14c0-.55-.48-.9-1.19-1.17a9.37 9.37 0 00-3.19-.5 9.79 9.79 0 00-2.66.34c-.91.27-1.51.64-1.55 1.26v1.35l-5.29.75a.19.19 0 00-.1 0v17.84a.28.28 0 000 .13l3.74 2 10.44 5.68h.12l23.42-3.29a.26.26 0 00.1 0 .14.14 0 000-.06v-17.83zm-10.43-5.67a8.94 8.94 0 013 .45c.65.24.84.54.82.63-.02.09-.27.48-1.14.73a9.15 9.15 0 01-2.5.31 8.68 8.68 0 01-3-.46c-.62-.23-.82-.5-.82-.61 0-.12.28-.48 1.15-.72a9.07 9.07 0 012.49-.37zm-9.38-3.24a9.54 9.54 0 012.5-.32 8.91 8.91 0 013 .46c.65.24.85.54.83.63-.02.09-.27.48-1.15.73a9.5 9.5 0 01-2.5.31 8.72 8.72 0 01-3-.46c-.61-.23-.82-.51-.81-.61-.05-.17.26-.55 1.13-.78zm-4.21 4.93a9.13 9.13 0 012.5-.32 8.68 8.68 0 013 .46c.65.24.84.54.82.63-.02.09-.27.48-1.14.73a9.63 9.63 0 01-2.51.31 8.66 8.66 0 01-3-.46c-.62-.23-.83-.51-.82-.61-.02-.18.24-.55 1.15-.76zm-8-2.83c0-.12.28-.49 1.15-.72a9.06 9.06 0 012.49-.32 8.93 8.93 0 013 .46c.65.24.84.54.82.63-.02.09-.27.48-1.14.72a9.08 9.08 0 01-2.5.32 8.58 8.58 0 01-3-.46c-.63-.23-.83-.51-.83-.61zm-4.91 2.51l4.33-.61v1.33c0 .55.49.89 1.19 1.16a9.09 9.09 0 003.19.5 10.06 10.06 0 002.52-.3v2.22c0 .55.48.89 1.19 1.17a9.32 9.32 0 003.18.49 9.72 9.72 0 002.67-.33c.91-.28 1.52-.64 1.56-1.27v-3.28a10.22 10.22 0 002.48-.29v2.18c0 .55.49.9 1.19 1.17a9.09 9.09 0 003.19.5 9.68 9.68 0 002.66-.34c.91-.28 1.52-.64 1.56-1.27v-1.51l4.87 2.65-22.49 3.13zm36.37 21.79c-.08 0-22.83 3.2-22.83 3.2v-17.18l22.82-3.21s-.05 17.08-.04 17.19z" fill="#f3aa00"/><path d="M60.824 63.292c0-.54-.48-.89-1.19-1.17a9.38 9.38 0 00-3.19-.49 9.79 9.79 0 00-2.66.33c-.91.28-1.51.64-1.55 1.27v1.34l-5.29.75h-.1v17.83a.28.28 0 000 .13l3.74 2 10.44 5.68a.28.28 0 00.12 0l23.42-3.28h.1a.11.11 0 000-.06v-17.84a.25.25 0 000-.12v-.05l-5.91-3.21v-1.12c0-.55-.49-.9-1.19-1.17a9.13 9.13 0 00-3.19-.5h-.71l-1.8-1v-.68c0-.55-.5-.9-1.2-1.17a9.3 9.3 0 00-3.18-.51 10 10 0 00-2.66.34c-.92.28-1.52.64-1.56 1.27v1.16l-2.49.35" fill="#ffdc5a"/><path d="M84.854 70.042a.25.25 0 000-.12v-.05l-5.91-3.21v-1.12c0-.55-.49-.9-1.19-1.17a9.13 9.13 0 00-3.19-.5h-.71l-1.8-1v.65l.81.44a7 7 0 00-.82.18v-2.19c0-.55-.5-.9-1.2-1.17a9.3 9.3 0 00-3.18-.51 10 10 0 00-2.66.34c-.92.28-1.52.64-1.56 1.27v1.16l-2.49.35v.54l2.48-.35v1.51a9.81 9.81 0 00-2.63.33h.14v-2.18c0-.54-.48-.89-1.19-1.17a9.38 9.38 0 00-3.19-.49 9.79 9.79 0 00-2.66.33c-.91.28-1.51.64-1.55 1.27v1.34l-5.29.75h-.1v17.83a.28.28 0 000 .13l3.74 2 10.44 5.68h.12l23.42-3.28h.1a.11.11 0 000-.06v-17.84zm-10.43-5.67a8.68 8.68 0 013 .46c.65.24.84.53.82.63-.02.1-.27.48-1.14.72a9.15 9.15 0 01-2.5.31 8.94 8.94 0 01-3-.45c-.62-.24-.82-.51-.82-.61 0-.11.28-.48 1.15-.71a9.06 9.06 0 012.49-.35zm-9.38-3.24a9.55 9.55 0 012.5-.31 8.66 8.66 0 013 .46c.65.24.85.53.83.63-.02.1-.27.48-1.15.72a9.1 9.1 0 01-2.5.31 9 9 0 01-3-.45c-.61-.24-.82-.51-.81-.62-.05-.13.26-.5 1.13-.74zm-4.21 4.93a9.54 9.54 0 012.5-.32 8.93 8.93 0 013 .46c.65.25.84.54.82.64-.02.1-.27.48-1.14.72a9.63 9.63 0 01-2.51.31 8.92 8.92 0 01-3-.45c-.62-.23-.83-.52-.82-.62-.02-.13.24-.5 1.15-.74zm-8-2.82c0-.12.28-.48 1.15-.72a9.07 9.07 0 012.49-.31 8.94 8.94 0 013 .45c.65.24.84.54.82.63-.02.09-.27.48-1.14.72a9.08 9.08 0 01-2.5.32 8.58 8.58 0 01-3-.46c-.63-.23-.83-.5-.83-.61zm-4.93 2.54l4.33-.61v1.34c0 .55.49.9 1.19 1.17a9.33 9.33 0 003.19.5 10.05 10.05 0 002.52-.31v2.16c0 .55.48.9 1.19 1.17a9.31 9.31 0 003.18.5 9.71 9.71 0 002.67-.34c.91-.28 1.52-.64 1.56-1.27v-3.28a9.75 9.75 0 002.48-.29v2.18c0 .54.49.89 1.19 1.16a9.09 9.09 0 003.19.5 9.68 9.68 0 002.66-.34c.91-.27 1.52-.63 1.56-1.27v-1.52l4.87 2.65-22.45 3.16zm36.37 21.79c-.08.06-22.83 3.2-22.83 3.2v-17.18l22.82-3.21s-.03 17.08-.02 17.19z" fill="#f3aa00"/><path d="M60.824 45.442c0-.55-.48-.9-1.19-1.18a9.38 9.38 0 00-3.19-.49 10.2 10.2 0 00-2.66.33c-.91.28-1.51.65-1.55 1.27v1.35l-5.29.74h-.1v17.88a.27.27 0 000 .12.13.13 0 000 .05l3.74 2 10.44 5.67h.12l23.42-3.29h.1a.14.14 0 000-.07v-17.83a.2.2 0 000-.11v-.05l-5.91-3.21v-1.11c0-.54-.49-.89-1.19-1.17a9.38 9.38 0 00-3.19-.49h-.71l-1.8-1v-.91c0-.54-.5-.89-1.2-1.17a9.31 9.31 0 00-3.18-.5 9.58 9.58 0 00-2.66.34c-.92.28-1.52.63-1.56 1.26v1.17l-2.49.35" fill="#ffdc5a"/><path d="M84.854 52.192a.2.2 0 000-.11v-.05l-5.91-3.21v-1.11c0-.54-.49-.89-1.19-1.17a9.38 9.38 0 00-3.19-.49h-.71l-1.8-1v.65l.81.45a7 7 0 00-.82.17v-2.18c0-.54-.5-.89-1.2-1.17a9.31 9.31 0 00-3.18-.5 9.58 9.58 0 00-2.66.34c-.92.28-1.52.63-1.56 1.26v1.17l-2.49.35v.59l2.48-.35v1.49a9.41 9.41 0 00-2.63.34h.14v-2.18c0-.55-.48-.9-1.19-1.18a9.38 9.38 0 00-3.19-.49 10.2 10.2 0 00-2.66.33c-.91.28-1.51.65-1.55 1.27v1.35l-5.29.74h-.1v17.88a.27.27 0 000 .12v.05l3.74 2 10.44 5.67h.12l23.42-3.29h.1a.14.14 0 000-.07v-17.83zm-10.43-5.66a8.94 8.94 0 013 .45c.65.24.84.54.82.63-.02.09-.27.48-1.14.72a9.13 9.13 0 01-2.5.32 8.68 8.68 0 01-3-.46c-.62-.23-.82-.5-.82-.61 0-.12.28-.48 1.15-.72a9.07 9.07 0 012.49-.33zm-9.38-3.25a9.55 9.55 0 012.5-.31 8.66 8.66 0 013 .46c.65.24.85.54.83.63-.02.09-.27.48-1.15.73a9.52 9.52 0 01-2.5.3 8.5 8.5 0 01-3-.45c-.61-.23-.82-.51-.81-.61-.05-.1.26-.51 1.13-.75zm-4.21 4.93a9.55 9.55 0 012.5-.31 8.68 8.68 0 013 .46c.65.24.84.54.82.63-.02.09-.27.48-1.14.73a9.65 9.65 0 01-2.51.3 8.44 8.44 0 01-3-.45c-.62-.23-.83-.51-.82-.61-.02-.14.24-.51 1.15-.75zm-8-2.82c0-.11.28-.48 1.15-.72a9.48 9.48 0 012.49-.31 8.94 8.94 0 013 .45c.65.25.84.54.82.64-.02.1-.27.48-1.14.72a9.1 9.1 0 01-2.5.31 8.84 8.84 0 01-3-.45c-.63-.24-.83-.51-.83-.61zm-4.91 2.54l4.33-.61v1.33c0 .54.49.89 1.19 1.16a9.09 9.09 0 003.19.5 10.06 10.06 0 002.52-.3v2.16c0 .54.48.89 1.19 1.17a9.32 9.32 0 003.18.49 9.72 9.72 0 002.67-.33c.91-.29 1.52-.64 1.56-1.28v-3.27a9.74 9.74 0 002.48-.3v2.19c0 .55.49.89 1.19 1.17a9.34 9.34 0 003.19.49 10.09 10.09 0 002.66-.33c.91-.28 1.52-.64 1.56-1.28v-1.51l4.87 2.65-22.45 3.16zm36.37 21.78c-.08.06-22.83 3.21-22.83 3.21v-17.19l22.82-3.2s-.05 17.09-.04 17.19z" fill="#f3aa00"/><path d="M60.824 27.592c0-.55-.48-.9-1.19-1.17a9.13 9.13 0 00-3.19-.5 9.79 9.79 0 00-2.66.34c-.91.27-1.51.64-1.55 1.26v1.41l-5.29.75a.19.19 0 00-.1 0v17.89a.28.28 0 000 .13l3.74 2 10.44 5.67a.28.28 0 00.12 0l23.42-3.29h.1a.14.14 0 000-.06v-17.83a.22.22 0 000-.12l-5.91-3.22v-1.11c0-.54-.49-.89-1.19-1.17a9.38 9.38 0 00-3.19-.49h-.71l-1.8-1v-.92c0-.54-.5-.89-1.2-1.17a10.46 10.46 0 00-5.74-.06c-.92.28-1.52.64-1.56 1.26v1.16l-2.49.35" fill="#ffdc5a"/><path d="M84.854 34.352a.22.22 0 000-.12l-5.91-3.22v-1.11c0-.54-.49-.89-1.19-1.17a9.38 9.38 0 00-3.19-.49h-.71l-1.8-1v.64l.81.45a7 7 0 00-.82.17v-2.18c0-.54-.5-.89-1.2-1.17a10.46 10.46 0 00-5.92-.22c-.92.28-1.52.64-1.56 1.26v1.16l-2.49.35v.59l2.48-.35v1.51a10.22 10.22 0 00-2.63.34h.14v-2.19c0-.55-.48-.9-1.19-1.17a9.13 9.13 0 00-3.19-.5 9.79 9.79 0 00-2.66.34c-.91.27-1.51.64-1.55 1.26v1.4l-5.29.75a.19.19 0 00-.1 0v17.89a.28.28 0 000 .13l3.74 2 10.44 5.67a.28.28 0 00.12 0l23.42-3.29h.1a.14.14 0 000-.06v-17.83zm-10.43-5.67a8.94 8.94 0 013 .45c.65.24.84.54.82.63-.02.09-.27.48-1.14.73a9.15 9.15 0 01-2.5.31 8.68 8.68 0 01-3-.46c-.62-.23-.82-.5-.82-.61 0-.12.28-.48 1.15-.72a9.07 9.07 0 012.49-.33zm-9.38-3.24a9.13 9.13 0 012.5-.32 8.91 8.91 0 013 .46c.65.24.85.54.83.63-.02.09-.27.48-1.15.73a9.52 9.52 0 01-2.5.3 8.5 8.5 0 01-3-.45c-.61-.23-.82-.51-.81-.61-.05-.14.26-.51 1.13-.74zm-4.21 4.93a9.13 9.13 0 012.5-.32 8.93 8.93 0 013 .46c.65.24.84.54.82.63-.02.09-.27.48-1.14.73a9.65 9.65 0 01-2.51.3 8.44 8.44 0 01-3-.45c-.62-.23-.83-.51-.82-.61-.02-.18.24-.51 1.15-.74zm-8-2.83c0-.11.28-.48 1.15-.71a9.06 9.06 0 012.49-.32 8.94 8.94 0 013 .45c.65.25.84.54.82.64-.02.1-.27.48-1.14.72a9.08 9.08 0 01-2.5.32 8.82 8.82 0 01-3-.46c-.63-.23-.83-.51-.83-.61zm-4.93 2.55l4.33-.61v1.33c0 .54.49.89 1.19 1.16a9.09 9.09 0 003.19.5 10.06 10.06 0 002.52-.3v2.16c0 .54.48.89 1.19 1.17a9.32 9.32 0 003.18.49 9.72 9.72 0 002.67-.33c.91-.28 1.52-.64 1.56-1.27v-3.28a10.22 10.22 0 002.48-.29v2.18c0 .55.49.9 1.19 1.17a9.33 9.33 0 003.19.5 9.68 9.68 0 002.66-.34c.91-.28 1.52-.64 1.56-1.28v-1.52l4.87 2.66-22.45 3.15zm36.34 21.84c-.08 0-22.83 3.2-22.83 3.2v-17.18l22.82-3.21s0 17.03.01 17.19z" fill="#f3aa00"/><path d="M37.414 102.262c0-.54-.49-.89-1.2-1.17a9.28 9.28 0 00-3.18-.49 9.69 9.69 0 00-2.66.33c-.91.28-1.51.64-1.55 1.27v1.35l-5.29.74h-.1v17.83a.24.24 0 000 .12l3.75 2 10.44 5.68h.12l23.41-3.29h.11a.11.11 0 000-.06v-17.83a.25.25 0 000-.12l-5.91-3.21v-1.11c0-.55-.49-.89-1.2-1.17a9.27 9.27 0 00-3.18-.5h-.7l-1.81-1v-.7c0-.54-.5-.89-1.2-1.17a9.07 9.07 0 00-3.18-.5 10.12 10.12 0 00-2.67.33c-.9.28-1.51.64-1.56 1.27v1.17l-2.49.35" fill="#ffdc5a"/><path d="M61.444 109.012a.25.25 0 000-.12l-5.91-3.21v-1.11c0-.55-.49-.89-1.2-1.17a9.27 9.27 0 00-3.18-.5h-.7l-1.81-1v.65l.81.45c-.29 0-.56.1-.82.16v-2.18c0-.54-.5-.89-1.2-1.17a9.07 9.07 0 00-3.18-.5 10.12 10.12 0 00-2.67.33c-.9.28-1.51.64-1.56 1.27v1.17l-2.49.35v.5l2.49-.35v1.49a9.41 9.41 0 00-2.63.34h.14v-2.18c0-.54-.49-.89-1.2-1.17a9.28 9.28 0 00-3.18-.49 9.69 9.69 0 00-2.66.33c-.91.28-1.51.64-1.55 1.27v1.35l-5.29.74h-.1v17.83a.24.24 0 000 .12l3.75 2 10.44 5.68h.12l23.41-3.29h.11a.19.19 0 000-.07v-17.83zm-10.43-5.67a8.93 8.93 0 013 .46c.65.24.84.54.82.63-.02.09-.27.48-1.14.72a9.13 9.13 0 01-2.5.32 8.68 8.68 0 01-3-.46c-.62-.23-.82-.5-.82-.61 0-.12.28-.49 1.15-.72a9.06 9.06 0 012.49-.34zm-9.38-3.24a9.55 9.55 0 012.5-.31 8.66 8.66 0 013 .46c.65.24.85.54.82.63-.03.09-.27.48-1.14.73a9.57 9.57 0 01-2.5.3 8.7 8.7 0 01-3-.45c-.61-.23-.82-.51-.82-.61-.04-.14.27-.51 1.14-.75zm-4.21 4.93a9.55 9.55 0 012.5-.31 8.72 8.72 0 013 .46c.65.24.85.54.82.63-.03.09-.27.48-1.14.73a9.65 9.65 0 01-2.51.3 8.44 8.44 0 01-3-.45c-.62-.23-.82-.51-.82-.62-.02-.13.28-.5 1.15-.74zm-8-2.82c0-.11.28-.48 1.15-.72a9.07 9.07 0 012.49-.31 8.94 8.94 0 013 .45c.65.25.84.54.82.63-.02.09-.26.49-1.14.73a9.15 9.15 0 01-2.5.31 8.68 8.68 0 01-3-.46c-.62-.23-.82-.5-.82-.61zm-4.93 2.54l4.34-.6v1.3c0 .55.5.9 1.2 1.17a9.09 9.09 0 003.19.5 10.06 10.06 0 002.52-.3v2.15c0 .55.48.9 1.19 1.18a9.32 9.32 0 003.18.49 10.22 10.22 0 002.67-.33c.91-.29 1.52-.64 1.56-1.28v-3.27a10.21 10.21 0 002.48-.3v2.16c0 .54.5.89 1.2 1.17a9.32 9.32 0 003.18.49 10.17 10.17 0 002.67-.33c.92-.28 1.52-.64 1.56-1.28v-1.51l4.86 2.66-22.45 3.15zm36.37 21.79c-.08.06-22.83 3.21-22.83 3.21v-17.19l22.83-3.2s-.04 17.08-.03 17.18z" fill="#f3aa00"/><path d="M37.414 84.412c0-.55-.49-.9-1.2-1.17a9 9 0 00-3.18-.5 9.68 9.68 0 00-2.66.34c-.91.27-1.51.64-1.55 1.27v1.35l-5.29.75a.19.19 0 00-.1 0v17.84a.31.31 0 000 .13l3.75 2 10.44 5.68a.27.27 0 00.12 0l23.41-3.29h.11v-.05a.14.14 0 000-.07v-17.83a.22.22 0 000-.12v-.05l-5.91-3.22v-1.11c0-.54-.49-.89-1.2-1.17a9.28 9.28 0 00-3.18-.49h-.7l-1.81-1v-.91c0-.54-.5-.89-1.2-1.17a9.31 9.31 0 00-3.18-.5 9.71 9.71 0 00-2.67.34c-.9.28-1.51.64-1.56 1.27v1.18l-2.49.35" fill="#ffdc5a"/><path d="M61.444 91.172a.22.22 0 000-.12v-.05l-5.91-3.22v-1.11c0-.54-.49-.89-1.2-1.17a9.28 9.28 0 00-3.18-.49h-.7l-1.81-1v.65l.81.45c-.29 0-.56.1-.82.17v-2.18c0-.54-.5-.89-1.2-1.17a9.31 9.31 0 00-3.18-.5 9.71 9.71 0 00-2.67.34c-.9.28-1.51.64-1.56 1.27v1.18l-2.49.35v.59l2.49-.35v1.51a10.22 10.22 0 00-2.63.34h.14v-2.19c0-.55-.49-.9-1.2-1.17a9 9 0 00-3.18-.5 9.68 9.68 0 00-2.66.34c-.91.27-1.51.64-1.55 1.27v1.35l-5.29.75a.19.19 0 00-.1 0v17.84a.31.31 0 000 .13l3.75 2 10.44 5.68a.27.27 0 00.12 0l23.41-3.29h.11v-.05a.14.14 0 000-.07v-17.83zm-10.43-5.67a8.94 8.94 0 013 .45c.65.24.84.54.82.63-.02.09-.27.48-1.14.72a9.9 9.9 0 01-5.48-.14c-.62-.23-.82-.5-.82-.61 0-.11.28-.48 1.15-.72a9.07 9.07 0 012.47-.33zm-9.38-3.24a9.13 9.13 0 012.5-.32 8.91 8.91 0 013 .46c.65.24.85.54.82.63-.03.09-.27.48-1.14.73a9.57 9.57 0 01-2.5.3 8.71 8.71 0 01-3-.44c-.61-.24-.82-.52-.82-.62-.04-.14.27-.51 1.14-.74zm-4.21 4.93a9.13 9.13 0 012.5-.32 8.72 8.72 0 013 .46c.65.24.85.54.82.63-.03.09-.27.48-1.14.73a9.65 9.65 0 01-2.51.3 8.44 8.44 0 01-3-.45c-.62-.23-.82-.51-.82-.61-.02-.13.28-.51 1.15-.74zm-8-2.83c0-.11.28-.48 1.15-.71a9.06 9.06 0 012.49-.32 8.94 8.94 0 013 .45c.65.25.84.54.82.64-.02.1-.26.48-1.14.72a9.13 9.13 0 01-2.5.32 8.93 8.93 0 01-3-.46c-.62-.23-.82-.51-.82-.61zm-4.93 2.55l4.34-.61v1.3c0 .55.5.89 1.2 1.16a9.09 9.09 0 003.19.5 10.06 10.06 0 002.52-.3v2.16c0 .55.48.89 1.19 1.17a9.32 9.32 0 003.18.49 9.82 9.82 0 002.67-.33c.91-.28 1.52-.64 1.56-1.27v-3.28a10.22 10.22 0 002.48-.29v2.15c0 .55.5.9 1.2 1.17a9.31 9.31 0 003.18.5 9.76 9.76 0 002.67-.34c.92-.28 1.52-.64 1.56-1.28v-1.51l4.86 2.66-22.45 3.15zm36.37 21.79c-.08.05-22.83 3.2-22.83 3.2v-17.19l22.83-3.21s-.04 17.09-.03 17.2z" fill="#f3aa00"/><path d="M14.004 105.552c0-.54-.49-.89-1.2-1.17a9.32 9.32 0 00-3.18-.49 9.82 9.82 0 00-2.67.33c-.91.28-1.5.64-1.55 1.27v1.35l-5.29.74h-.11a.14.14 0 010 .06v17.77a.68.68 0 000 .14l3.75 2 10.45 5.68h.12l23.41-3.29h.1v-17.84a.5.5 0 000-.12.1.1 0 000-.05l-5.91-3.21v-1.12c0-.55-.48-.9-1.19-1.17a9.07 9.07 0 00-3.18-.5h-.71l-1.8-1v-.92c0-.55-.49-.89-1.19-1.17a9.17 9.17 0 00-3.19-.5 10.09 10.09 0 00-2.66.33c-.91.28-1.51.64-1.56 1.27v1.17l-2.48.35" fill="#ffdc5a"/><path d="M38.034 112.302a.5.5 0 000-.12.1.1 0 000-.05l-5.91-3.21v-1.12c0-.55-.48-.9-1.19-1.17a9.07 9.07 0 00-3.18-.5h-.71l-1.8-1v.65l.81.45a5.68 5.68 0 00-.82.17v-2.19c0-.55-.49-.89-1.19-1.17a9.17 9.17 0 00-3.19-.5 10.09 10.09 0 00-2.66.33c-.91.28-1.51.64-1.56 1.27v1.17l-2.48.35v.58l2.49-.34v1.48a9.73 9.73 0 00-2.62.33h.13v-2.18c0-.54-.49-.89-1.2-1.17a9.32 9.32 0 00-3.18-.49 9.82 9.82 0 00-2.67.33c-.91.28-1.5.64-1.55 1.27v1.35l-5.29.74h-.11a.14.14 0 010 .06v17.77a.68.68 0 000 .14l3.75 2 10.45 5.68h.12l23.41-3.29h.1v-17.84zm-10.43-5.67a8.87 8.87 0 013 .46c.65.24.85.54.83.63-.02.09-.27.48-1.14.72a9.21 9.21 0 01-2.51.32 8.91 8.91 0 01-3-.46c-.62-.24-.83-.51-.83-.61 0-.12.28-.49 1.15-.72a9.13 9.13 0 012.5-.34zm-9.39-3.24a9.55 9.55 0 012.5-.31 8.68 8.68 0 013 .46c.65.24.85.54.82.63-.03.09-.27.48-1.14.72a9.22 9.22 0 01-2.51.31 8.67 8.67 0 01-3-.45c-.62-.24-.82-.51-.82-.62-.02-.13.28-.5 1.15-.74zm-4.2 4.93a9.55 9.55 0 012.5-.31 8.66 8.66 0 013 .46c.65.24.85.53.82.63-.03.1-.27.48-1.13.72a9.63 9.63 0 01-2.51.31 9 9 0 01-3-.45c-.61-.23-.82-.51-.81-.62-.04-.13.26-.5 1.13-.74zm-8-2.82c0-.12.27-.48 1.14-.72a9.1 9.1 0 012.5-.31 8.84 8.84 0 013 .45c.65.24.85.54.83.63-.02.09-.27.48-1.14.73a9.2 9.2 0 01-2.5.31 8.68 8.68 0 01-3-.46c-.62-.23-.82-.5-.82-.61zm-4.93 2.54l4.33-.6v1.33c0 .55.5.9 1.2 1.17a9.07 9.07 0 003.18.5 9.69 9.69 0 002.53-.31v2.16c0 .55.49.9 1.19 1.17a9.17 9.17 0 003.19.5 9.68 9.68 0 002.66-.34c.92-.28 1.52-.64 1.56-1.27v-3.28a9.83 9.83 0 002.49-.29v2.15c0 .54.5.89 1.2 1.16a9.07 9.07 0 003.18.5 10.17 10.17 0 002.67-.33c.91-.28 1.51-.64 1.55-1.28v-1.51l4.87 2.66-22.45 3.15zm36.37 21.8c-.09.05-22.83 3.19-22.83 3.19v-17.18l22.83-3.21s-.05 17.09-.03 17.2z" fill="#f3aa00"/><path d="M14.004 87.702c0-.55-.49-.9-1.2-1.18a9.32 9.32 0 00-3.18-.49 9.81 9.81 0 00-2.67.34c-.91.27-1.5.64-1.55 1.26v1.35l-5.29.74h-.11v.05a.14.14 0 010 .06v17.77a.59.59 0 000 .13.1.1 0 000 .05l3.75 2 10.45 5.67a.24.24 0 00.12 0l23.41-3.29h.1v-17.84a.36.36 0 000-.11v-.05l-5.91-3.21v-1.02c0-.54-.48-.89-1.19-1.17a9.32 9.32 0 00-3.18-.49h-.71l-1.8-1v-.92c0-.54-.49-.89-1.19-1.17a9.41 9.41 0 00-3.19-.5 9.68 9.68 0 00-2.66.34c-.91.28-1.51.64-1.56 1.26v1.17l-2.48.35" fill="#ffdc5a"/><path d="M38.034 94.452a.36.36 0 000-.11v-.05l-5.91-3.21v-1.15c0-.54-.48-.89-1.19-1.17a9.32 9.32 0 00-3.18-.49h-.71l-1.8-1v.66l.81.45a7.45 7.45 0 00-.82.17v-2.18c0-.54-.49-.89-1.19-1.17a9.41 9.41 0 00-3.19-.5 9.68 9.68 0 00-2.66.34c-.91.28-1.51.64-1.56 1.26v1.17l-2.48.35v.59l2.49-.35v1.49a10.6 10.6 0 00-2.62.33.61.61 0 00.13 0v-2.18c0-.55-.49-.9-1.2-1.18a9.32 9.32 0 00-3.18-.49 9.81 9.81 0 00-2.67.34c-.91.27-1.5.64-1.55 1.26v1.35l-5.29.74h-.11v.05a.14.14 0 010 .06v17.77a.59.59 0 000 .13.1.1 0 000 .05l3.75 2 10.45 5.67a.24.24 0 00.12 0l23.41-3.29h.1v-17.84zm-10.43-5.67a8.87 8.87 0 013 .46c.65.24.85.54.83.63-.02.09-.27.48-1.14.73a9.63 9.63 0 01-2.51.31 8.91 8.91 0 01-3-.46c-.62-.23-.83-.5-.83-.61 0-.12.28-.48 1.15-.72a9.13 9.13 0 012.5-.34zm-9.39-3.24a9.55 9.55 0 012.5-.31 8.68 8.68 0 013 .46c.65.24.85.54.82.63-.03.09-.27.48-1.14.73a9.63 9.63 0 01-2.51.31 8.66 8.66 0 01-3-.46c-.62-.23-.82-.51-.82-.62-.02-.13.28-.5 1.15-.74zm-4.2 4.93a9.55 9.55 0 012.5-.31 8.66 8.66 0 013 .46c.65.24.85.54.82.63-.03.09-.27.49-1.13.73a9.65 9.65 0 01-2.51.3 8.5 8.5 0 01-3-.45c-.61-.23-.82-.51-.81-.61-.04-.14.26-.51 1.13-.75zm-8-2.82c0-.11.27-.48 1.14-.72a9.5 9.5 0 012.5-.31 8.84 8.84 0 013 .45c.65.24.85.54.83.64-.02.1-.27.48-1.14.72a9.2 9.2 0 01-2.5.31 8.94 8.94 0 01-3-.45c-.62-.24-.82-.51-.82-.61zm-4.93 2.55l4.33-.61v1.34c0 .54.5.89 1.2 1.16a9.07 9.07 0 003.18.5 10.14 10.14 0 002.53-.3v2.16c0 .54.49.89 1.19 1.17a9.42 9.42 0 003.19.49 9.69 9.69 0 002.66-.33c.92-.28 1.52-.64 1.56-1.27v-3.28a10.3 10.3 0 002.49-.3v2.16c0 .55.5.89 1.2 1.17a9.31 9.31 0 003.18.5 9.76 9.76 0 002.67-.34c.91-.28 1.51-.64 1.55-1.28v-1.51l4.87 2.66-22.45 3.15zm36.37 21.79c-.09.05-22.83 3.2-22.83 3.2v-17.19l22.83-3.2s-.05 17.13-.03 17.19z" fill="#f3aa00"/><path d="M14.004 69.852c0-.55-.49-.89-1.2-1.17a9.32 9.32 0 00-3.18-.49 9.82 9.82 0 00-2.67.33c-.91.27-1.5.64-1.55 1.27v1.35l-5.29.75a.23.23 0 00-.11 0v17.88a.51.51 0 000 .13l3.75 2 10.45 5.67a.25.25 0 00.12 0l23.41-3.29a.14.14 0 00.1 0v-17.83a.5.5 0 000-.12l-5.91-3.22v-1.08c0-.54-.48-.89-1.19-1.17a9.32 9.32 0 00-3.18-.49h-.71l-1.8-1v-.92c0-.55-.49-.9-1.19-1.18a9.66 9.66 0 00-3.19-.5 10.08 10.08 0 00-2.66.34c-.91.28-1.51.64-1.56 1.26v1.16l-2.48.35" fill="#ffdc5a"/><path d="M38.034 76.612a.5.5 0 000-.12l-5.91-3.22v-1.24c0-.54-.48-.89-1.19-1.17a9.32 9.32 0 00-3.18-.49h-.71l-1.8-1v.65l.81.44a7.45 7.45 0 00-.82.17v-2.18c0-.55-.49-.9-1.19-1.18a9.66 9.66 0 00-3.19-.5 10.08 10.08 0 00-2.66.34c-.91.28-1.51.64-1.56 1.26v1.16l-2.48.35v.59l2.49-.35v1.49a10.14 10.14 0 00-2.62.34h.13v-2.19c0-.55-.49-.89-1.2-1.17a9.32 9.32 0 00-3.18-.49 9.82 9.82 0 00-2.67.33c-.91.27-1.5.64-1.55 1.27v1.35l-5.29.75a.23.23 0 00-.11 0v17.88a.51.51 0 000 .13l3.75 2 10.45 5.67a.25.25 0 00.12 0l23.41-3.29a.14.14 0 00.1 0v-17.83zm-10.43-5.68a8.88 8.88 0 013 .45c.65.24.85.54.83.63-.02.09-.27.48-1.14.73a9.22 9.22 0 01-2.51.31 8.66 8.66 0 01-3-.46c-.62-.23-.83-.5-.83-.61 0-.11.28-.48 1.15-.72a9.15 9.15 0 012.5-.33zm-9.39-3.24a9.13 9.13 0 012.5-.32 8.93 8.93 0 013 .46c.65.25.85.54.82.64-.03.1-.27.48-1.14.72a9.63 9.63 0 01-2.51.31 8.66 8.66 0 01-3-.46c-.62-.23-.82-.51-.82-.61-.02-.12.28-.5 1.15-.73zm-4.2 4.93a9.13 9.13 0 012.5-.32 8.91 8.91 0 013 .46c.65.25.85.54.82.63-.03.09-.27.49-1.13.73a9.63 9.63 0 01-2.51.31 8.72 8.72 0 01-3-.46c-.61-.23-.82-.51-.81-.61-.04-.12.26-.5 1.13-.73zm-8-2.83c0-.12.27-.48 1.14-.72a9.08 9.08 0 012.5-.32 8.82 8.82 0 013 .46c.65.24.85.54.83.63-.02.09-.27.48-1.14.72a9.19 9.19 0 01-2.5.32 8.93 8.93 0 01-3-.46c-.62-.23-.82-.51-.82-.61zm-4.93 2.55l4.33-.61v1.34c0 .54.5.89 1.2 1.16a9.07 9.07 0 003.18.51 10.14 10.14 0 002.53-.31v2.16c0 .54.49.89 1.19 1.17a9.41 9.41 0 003.19.5 9.68 9.68 0 002.66-.34c.92-.28 1.52-.64 1.56-1.27v-3.28a9.83 9.83 0 002.49-.29v2.15c0 .55.5.9 1.2 1.17a9.07 9.07 0 003.18.5 9.76 9.76 0 002.67-.34c.91-.28 1.51-.64 1.55-1.27v-1.51l4.87 2.65-22.45 3.16zm36.37 21.79c-.09 0-22.83 3.2-22.83 3.2v-17.18l22.83-3.21s-.05 17.09-.03 17.2z" fill="#f3aa00"/><path d="M14.004 52.012c0-.54-.49-.89-1.2-1.17a9.32 9.32 0 00-3.18-.49 9.43 9.43 0 00-2.67.34c-.91.27-1.5.63-1.55 1.26v1.36l-5.29.74a.45.45 0 00-.11 0 .14.14 0 010 .06v17.76a.51.51 0 000 .13l3.75 2 10.45 5.68a.42.42 0 00.12 0l23.41-3.28h.1v-17.84a.5.5 0 000-.12v-.06l-5.91-3.22v-1.11c0-.55-.48-.89-1.19-1.17a9.07 9.07 0 00-3.18-.5h-.71l-1.8-1v-.92c0-.55-.49-.89-1.19-1.17a9.17 9.17 0 00-3.19-.5 10.09 10.09 0 00-2.66.33c-.91.28-1.51.64-1.56 1.27v1.16l-2.48.35" fill="#ffdc5a"/><path d="M38.034 58.762a.5.5 0 000-.12v-.06l-5.91-3.22v-1.11c0-.55-.48-.89-1.19-1.17a9.07 9.07 0 00-3.18-.5h-.71l-1.8-1v.65l.81.44-.82.17v-2.18c0-.55-.49-.89-1.19-1.17a9.17 9.17 0 00-3.19-.5 10.09 10.09 0 00-2.66.33c-.91.28-1.51.64-1.56 1.27v1.16l-2.48.35v.59l2.49-.35v1.49a9.73 9.73 0 00-2.62.33h.13v-2.18c0-.54-.49-.89-1.2-1.17a9.32 9.32 0 00-3.18-.49 9.43 9.43 0 00-2.67.34c-.91.27-1.5.63-1.55 1.26v1.36l-5.29.74a.45.45 0 00-.11 0 .14.14 0 010 .06v17.76a.51.51 0 000 .13l3.75 2 10.45 5.68a.42.42 0 00.12 0l23.41-3.28h.1v-17.84zm-10.43-5.67a8.87 8.87 0 013 .46c.65.24.85.53.83.63-.02.1-.27.48-1.14.72a9.22 9.22 0 01-2.51.31 8.92 8.92 0 01-3-.45c-.62-.23-.83-.51-.83-.61 0-.11.28-.48 1.15-.71a9.13 9.13 0 012.5-.35zm-9.39-3.24a9.55 9.55 0 012.5-.31 8.68 8.68 0 013 .46c.65.24.85.54.82.63-.03.09-.27.48-1.14.72a9.22 9.22 0 01-2.51.31 8.67 8.67 0 01-3-.45c-.62-.24-.82-.51-.82-.62-.02-.13.28-.5 1.15-.74zm-4.2 4.93a9.55 9.55 0 012.5-.31 8.92 8.92 0 013 .45c.65.25.85.55.82.64-.03.09-.27.48-1.13.72a9.22 9.22 0 01-2.51.31 9 9 0 01-3-.45c-.61-.23-.82-.51-.81-.62-.04-.13.26-.5 1.13-.74zm-8-2.83c0-.11.27-.48 1.14-.72a9.1 9.1 0 012.5-.31 8.84 8.84 0 013 .45c.65.24.85.54.83.63-.02.09-.27.48-1.14.73a9.2 9.2 0 01-2.5.31 8.68 8.68 0 01-3-.46c-.62-.23-.82-.5-.82-.61zm-4.93 2.55l4.33-.61v1.34c0 .55.5.9 1.2 1.17a9.31 9.31 0 003.18.5 9.69 9.69 0 002.53-.31v2.16c0 .55.49.89 1.19 1.18a9.67 9.67 0 003.19.49 10.09 10.09 0 002.66-.33c.92-.29 1.52-.65 1.56-1.28v-3.28a10.3 10.3 0 002.49-.3v2.15c0 .54.5.89 1.2 1.16a9.07 9.07 0 003.18.5 10.17 10.17 0 002.67-.33c.91-.28 1.51-.64 1.55-1.28v-1.5l4.87 2.66-22.45 3.15zm36.37 21.79c-.09.06-22.83 3.21-22.83 3.21v-17.19l22.83-3.21s-.05 17.08-.03 17.19z" fill="#f3aa00"/><path d="M14.004 34.162c0-.55-.49-.9-1.2-1.18a9.32 9.32 0 00-3.18-.49 9.81 9.81 0 00-2.67.34c-.91.27-1.5.64-1.55 1.26v1.35l-5.29.74h-.11a.14.14 0 010 .06v17.77a.59.59 0 000 .13l3.75 2 10.45 5.67a.42.42 0 00.12 0l23.41-3.29h.1a.64.64 0 000-.07v-17.77a.36.36 0 000-.11v-.05l-5.91-3.21v-1.11c0-.54-.48-.89-1.19-1.17a9.32 9.32 0 00-3.18-.49h-.71l-1.8-1v-.91c0-.54-.49-.89-1.19-1.17a9.41 9.41 0 00-3.19-.5 9.68 9.68 0 00-2.66.34c-.91.28-1.51.63-1.56 1.26v1.37l-2.48.35" fill="#ffdc5a"/><path d="M38.034 40.932a.36.36 0 000-.11v-.05l-5.91-3.21v-1.11c0-.54-.48-.89-1.19-1.17a9.32 9.32 0 00-3.18-.49h-.71l-1.8-1v.65l.81.45a7.45 7.45 0 00-.82.17v-2.18c0-.54-.49-.89-1.19-1.17a9.41 9.41 0 00-3.19-.5 9.68 9.68 0 00-2.66.34c-.91.28-1.51.63-1.56 1.26v1.12l-2.48.35v.59l2.49-.35v1.49a9.34 9.34 0 00-2.62.34h.13v-2.18c0-.55-.49-.9-1.2-1.18a9.32 9.32 0 00-3.18-.49 9.81 9.81 0 00-2.67.34c-.91.27-1.5.64-1.55 1.26v1.35l-5.29.74h-.11a.14.14 0 010 .06v17.77a.59.59 0 000 .13l3.75 2 10.45 5.67a.42.42 0 00.12 0l23.41-3.29h.1a.64.64 0 000-.07v-17.77zm-10.43-5.66a8.88 8.88 0 013 .45c.65.24.85.54.83.63-.02.09-.27.48-1.14.73a9.63 9.63 0 01-2.51.31 8.66 8.66 0 01-3-.46c-.62-.23-.83-.5-.83-.61 0-.12.28-.48 1.15-.72a9.15 9.15 0 012.5-.35zm-9.39-3.25a9.55 9.55 0 012.5-.31 8.68 8.68 0 013 .46c.65.24.85.54.82.63-.03.09-.27.48-1.14.73a9.65 9.65 0 01-2.51.3 8.44 8.44 0 01-3-.45c-.62-.23-.82-.51-.82-.61-.02-.16.28-.53 1.15-.77zm-4.2 4.93a9.55 9.55 0 012.5-.31 8.66 8.66 0 013 .46c.65.24.85.54.82.63-.03.09-.27.48-1.13.73a9.65 9.65 0 01-2.51.3 8.5 8.5 0 01-3-.45c-.61-.23-.82-.51-.81-.61-.04-.16.26-.53 1.13-.77zm-8-2.82c0-.11.27-.48 1.14-.72a9.5 9.5 0 012.5-.31 8.84 8.84 0 013 .45c.65.25.85.54.83.64-.02.1-.27.48-1.14.72a9.2 9.2 0 01-2.5.31 8.94 8.94 0 01-3-.45c-.62-.24-.82-.51-.82-.61zm-4.93 2.55l4.33-.61v1.33c0 .54.5.89 1.2 1.16a9.07 9.07 0 003.18.5 10.14 10.14 0 002.53-.3v2.16c0 .54.49.89 1.19 1.17a9.42 9.42 0 003.19.49 9.69 9.69 0 002.66-.33c.92-.28 1.52-.64 1.56-1.28v-3.27a9.82 9.82 0 002.49-.3v2.16c0 .55.5.89 1.2 1.17a9.31 9.31 0 003.18.5 9.76 9.76 0 002.67-.34c.91-.28 1.51-.64 1.55-1.28v-1.51l4.87 2.66-22.5 3.17zm36.37 21.79c-.09.05-22.83 3.2-22.83 3.2v-17.19l22.83-3.2s-.05 17.06-.03 17.17z" fill="#f3aa00"/><path d="M14.004 16.312c0-.55-.49-.89-1.2-1.17a9.31 9.31 0 00-3.18-.5 9.81 9.81 0 00-2.67.34c-.91.27-1.5.64-1.55 1.26v1.35l-5.29.75a.23.23 0 00-.11 0 .19.19 0 010 .07v17.77a.51.51 0 000 .13l3.75 2 10.45 5.68a.25.25 0 00.12 0l23.41-3.29a.14.14 0 00.1 0v-17.6a.5.5 0 000-.12v-.05l-5.91-3.22v-1.11c0-.54-.48-.89-1.19-1.17a9.32 9.32 0 00-3.18-.49h-.71l-1.8-1v-1.01c0-.54-.49-.89-1.19-1.17a10.49 10.49 0 00-5.85-.16c-.91.28-1.51.64-1.56 1.26v1.16l-2.48.35" fill="#ffdc5a"/><path d="M38.034 23.072a.5.5 0 000-.12v-.05l-5.91-3.22v-1.11c0-.54-.48-.89-1.19-1.17a9.32 9.32 0 00-3.18-.49h-.71l-1.8-1v.64l.81.45a7.45 7.45 0 00-.82.17v-2.18c0-.54-.49-.89-1.19-1.17a10.49 10.49 0 00-5.85-.16c-.91.28-1.51.64-1.56 1.26v1.16l-2.48.35v.59l2.49-.35v1.49a9.73 9.73 0 00-2.62.33h.13v-2.19c0-.55-.49-.89-1.2-1.17a9.31 9.31 0 00-3.18-.5 9.81 9.81 0 00-2.67.34c-.91.27-1.5.64-1.55 1.26v1.35l-5.29.75a.23.23 0 00-.11 0 .19.19 0 010 .07v17.77a.51.51 0 000 .13l3.75 2 10.45 5.68a.25.25 0 00.12 0l23.41-3.29a.14.14 0 00.1 0v-17.59zm-10.43-5.67a8.88 8.88 0 013 .45c.65.24.85.54.83.63-.02.09-.27.48-1.14.73a9.22 9.22 0 01-2.51.31 8.66 8.66 0 01-3-.46c-.62-.23-.83-.5-.83-.61 0-.11.28-.48 1.15-.72a9.15 9.15 0 012.5-.33zm-9.39-3.24a9.54 9.54 0 012.5-.32 8.93 8.93 0 013 .46c.65.25.85.54.82.63-.03.09-.27.49-1.14.73a9.63 9.63 0 01-2.51.31 8.66 8.66 0 01-3-.46c-.62-.23-.82-.51-.82-.61-.02-.13.28-.51 1.15-.74zm-4.2 4.93a9.13 9.13 0 012.5-.32 8.91 8.91 0 013 .46c.65.25.85.54.82.63-.03.09-.27.49-1.13.73a9.63 9.63 0 01-2.51.31 8.72 8.72 0 01-3-.46c-.61-.23-.82-.51-.81-.61-.04-.13.26-.51 1.13-.74zm-8-2.83c0-.12.27-.49 1.14-.72a9.08 9.08 0 012.5-.32 8.82 8.82 0 013 .46c.65.24.85.54.83.63-.02.09-.27.48-1.14.72a9.19 9.19 0 01-2.5.32 8.93 8.93 0 01-3-.46c-.62-.23-.82-.51-.82-.61zm-4.93 2.55l4.33-.61v1.33c0 .54.5.89 1.2 1.16a9.07 9.07 0 003.18.5 10.14 10.14 0 002.53-.3v2.16c0 .54.49.89 1.19 1.17a9.42 9.42 0 003.19.49 9.69 9.69 0 002.66-.33c.92-.28 1.52-.64 1.56-1.27v-3.28a10.31 10.31 0 002.49-.29v2.15c0 .55.5.9 1.2 1.17a9.07 9.07 0 003.18.5 9.76 9.76 0 002.67-.34c.91-.28 1.51-.64 1.55-1.27v-1.51l4.87 2.65-22.45 3.15zm36.37 21.79c-.09.05-22.83 3.2-22.83 3.2v-17.18l22.83-3.21s-.05 17.08-.03 17.19z" fill="#f3aa00"/><path d="M122.364 100.422c0-.54-.49-.89-1.19-1.17a9.38 9.38 0 00-3.19-.49 9.69 9.69 0 00-2.66.33c-.91.28-1.51.64-1.55 1.27v1.34l-5.29.75h-.1v17.82a.27.27 0 000 .13l3.75 2 10.44 5.68a.28.28 0 00.12 0l23.42-3.28a.24.24 0 00.1 0 .11.11 0 000-.06v-17.84a.25.25 0 000-.12.1.1 0 000-.05l-5.91-3.22v-1.11c0-.55-.49-.9-1.19-1.17a9.37 9.37 0 00-3.19-.5h-.7l-1.81-1v-.92c0-.55-.5-.9-1.2-1.17a9.3 9.3 0 00-3.18-.51 10 10 0 00-2.66.34c-.91.28-1.52.64-1.56 1.27v1.16l-2.49.35" fill="#ffdc5a"/><path d="M146.394 107.172a.25.25 0 000-.12.1.1 0 000-.05l-5.91-3.22v-1.11c0-.55-.49-.9-1.19-1.17a9.37 9.37 0 00-3.19-.5h-.7l-1.81-1v.65l.82.44a7 7 0 00-.82.18v-2.19c0-.55-.5-.9-1.2-1.17a9.3 9.3 0 00-3.18-.51 10 10 0 00-2.66.34c-.91.28-1.52.64-1.56 1.27v1.16l-2.49.35v.59l2.48-.35v1.49a9.81 9.81 0 00-2.63.33h.14v-2.18c0-.54-.49-.89-1.19-1.17a9.38 9.38 0 00-3.19-.49 9.69 9.69 0 00-2.66.33c-.91.28-1.51.64-1.55 1.27v1.34l-5.29.75h-.1v17.82a.27.27 0 000 .13l3.75 2 10.44 5.68a.28.28 0 00.12 0l23.42-3.28a.24.24 0 00.1 0 .19.19 0 000-.07v-17.84zm-10.47-5.67a8.64 8.64 0 013 .46c.65.24.84.53.82.63-.02.1-.27.48-1.14.72a9.08 9.08 0 01-2.5.32 8.93 8.93 0 01-3-.46c-.62-.23-.82-.51-.82-.61 0-.12.28-.49 1.15-.72a9.06 9.06 0 012.49-.34zm-9.38-3.24a9.55 9.55 0 012.5-.31 8.66 8.66 0 013 .46c.65.24.85.53.83.63-.02.1-.28.48-1.15.72a9.15 9.15 0 01-2.5.31 8.88 8.88 0 01-3-.45c-.62-.23-.83-.51-.82-.62.01-.13.31-.5 1.18-.74zm-4.21 4.93a9.54 9.54 0 012.5-.32 8.93 8.93 0 013 .46c.65.25.85.55.82.64-.03.09-.27.48-1.14.72a9.2 9.2 0 01-2.5.31 8.94 8.94 0 01-3-.45c-.62-.23-.83-.51-.82-.62.01-.13.31-.5 1.18-.74zm-8-2.82c0-.12.28-.48 1.15-.72a9.07 9.07 0 012.49-.31 8.94 8.94 0 013 .45c.65.24.84.54.82.63-.02.09-.27.48-1.14.73a9.1 9.1 0 01-2.5.31 8.68 8.68 0 01-3-.46c-.62-.23-.82-.5-.82-.61zm-4.93 2.54l4.34-.61v1.33c0 .55.49.9 1.19 1.17a9.09 9.09 0 003.19.5 9.61 9.61 0 002.52-.31v2.16c0 .55.49.9 1.19 1.17a9.07 9.07 0 003.18.5 10.12 10.12 0 002.67-.33c.92-.29 1.52-.65 1.56-1.28v-3.28a10.21 10.21 0 002.48-.3v2.18c0 .54.49.89 1.19 1.16a9.09 9.09 0 003.19.5 10.09 10.09 0 002.66-.33c.91-.28 1.52-.64 1.56-1.28v-1.51l4.87 2.65-22.45 3.16zm36.37 21.79c-.08.06-22.83 3.2-22.83 3.2v-17.18l22.82-3.21s.01 17.08.02 17.19z" fill="#f3aa00"/><path d="M122.364 82.572c0-.54-.49-.89-1.19-1.17a9.38 9.38 0 00-3.19-.49 9.68 9.68 0 00-2.66.34c-.91.27-1.51.63-1.55 1.26v1.35l-5.29.74h-.1v17.88a.23.23 0 000 .12v.05l3.75 2 10.44 5.68h.12l23.42-3.29h.1a.14.14 0 000-.07v-17.83a.2.2 0 000-.11v-.05l-5.91-3.21v-1.11c0-.55-.49-.89-1.19-1.17a9.38 9.38 0 00-3.19-.49h-.7l-1.81-1v-.91c0-.54-.5-.89-1.2-1.17a9.31 9.31 0 00-3.18-.5 9.58 9.58 0 00-2.66.34c-.91.27-1.52.64-1.56 1.26v1.17l-2.49.35" fill="#ffdc5a"/><path d="M146.394 89.322a.2.2 0 000-.11v-.05l-5.91-3.21v-1.11c0-.55-.49-.89-1.19-1.17a9.38 9.38 0 00-3.19-.49h-.7l-1.81-1v.65l.82.45a7 7 0 00-.82.17v-2.18c0-.54-.5-.89-1.2-1.17a9.31 9.31 0 00-3.18-.5 9.58 9.58 0 00-2.66.34c-.91.27-1.52.64-1.56 1.26v1.17l-2.49.35v.59l2.48-.35v1.49a9.41 9.41 0 00-2.63.34h.14v-2.18c0-.54-.49-.89-1.19-1.17a9.38 9.38 0 00-3.19-.49 9.68 9.68 0 00-2.66.34c-.91.27-1.51.63-1.55 1.26v1.35l-5.29.74h-.1v17.88a.23.23 0 000 .12v.05l3.75 2 10.44 5.68h.12l23.42-3.29h.1a.14.14 0 000-.07v-17.83zm-10.47-5.66a8.9 8.9 0 013 .45c.65.24.84.54.82.63-.02.09-.27.48-1.14.72a9.08 9.08 0 01-2.5.32 8.68 8.68 0 01-3-.46c-.62-.23-.82-.5-.82-.61 0-.12.28-.48 1.15-.72a9.07 9.07 0 012.49-.33zm-9.38-3.24a9.13 9.13 0 012.5-.32 8.66 8.66 0 013 .46c.65.24.85.54.83.63-.02.09-.28.48-1.15.73a9.57 9.57 0 01-2.5.3 8.4 8.4 0 01-3-.45c-.62-.23-.83-.51-.82-.61.01-.14.31-.51 1.18-.74zm-4.21 4.92a9.55 9.55 0 012.5-.31 8.68 8.68 0 013 .46c.65.24.85.54.82.63-.03.09-.27.48-1.14.73a9.63 9.63 0 01-2.5.3 8.46 8.46 0 01-3-.45c-.62-.23-.83-.51-.82-.61.01-.16.31-.51 1.18-.75zm-8-2.82c0-.11.28-.48 1.15-.72a9.07 9.07 0 012.49-.31 8.94 8.94 0 013 .45c.65.25.84.54.82.63-.02.09-.27.49-1.14.73a9.1 9.1 0 01-2.5.31 8.68 8.68 0 01-3-.46c-.62-.23-.82-.5-.82-.6zm-4.93 2.55l4.34-.61v1.33c0 .54.49.89 1.19 1.16a9.09 9.09 0 003.19.5 10.06 10.06 0 002.52-.3v2.16c0 .54.49.89 1.19 1.17a9.32 9.32 0 003.18.49 9.72 9.72 0 002.67-.33c.92-.29 1.52-.64 1.56-1.28v-3.27a9.74 9.74 0 002.48-.3v2.14c0 .55.49.89 1.19 1.17a9.33 9.33 0 003.19.5 10.08 10.08 0 002.66-.34c.91-.28 1.52-.64 1.56-1.28v-1.51l4.87 2.66-22.45 3.15zm36.37 21.79c-.08.05-22.83 3.2-22.83 3.2v-17.19l22.82-3.2s.01 17.07.02 17.19z" fill="#f3aa00"/><path d="M122.364 64.722c0-.55-.49-.9-1.19-1.17a9.13 9.13 0 00-3.19-.5 9.68 9.68 0 00-2.66.34c-.91.27-1.51.64-1.55 1.26v1.35l-5.29.75h-.1v17.89a.27.27 0 000 .13l3.75 2 10.44 5.68a.28.28 0 00.12 0l23.42-3.29h.1a.14.14 0 000-.06v-17.84a.23.23 0 000-.12l-5.91-3.22v-.99c0-.54-.49-.89-1.19-1.17a9.38 9.38 0 00-3.19-.49h-.7l-1.81-1v-.91c0-.55-.5-.9-1.2-1.18a9.56 9.56 0 00-3.18-.5 10 10 0 00-2.66.34c-.91.28-1.52.64-1.56 1.26v1.16l-2.49.35" fill="#ffdc5a"/><path d="M146.394 71.482a.23.23 0 000-.12l-5.91-3.22v-1.21c0-.54-.49-.89-1.19-1.17a9.38 9.38 0 00-3.19-.49h-.7l-1.81-1v.66l.82.45a7 7 0 00-.82.17v-2.18c0-.55-.5-.9-1.2-1.18a9.56 9.56 0 00-3.18-.5 10 10 0 00-2.66.34c-.91.28-1.52.64-1.56 1.26v1.16l-2.49.35v.59l2.48-.35v1.49a10.22 10.22 0 00-2.63.34h.14v-2.19c0-.55-.49-.9-1.19-1.17a9.13 9.13 0 00-3.19-.5 9.68 9.68 0 00-2.66.34c-.91.27-1.51.64-1.55 1.26v1.35l-5.29.75h-.1v17.89a.27.27 0 000 .13l3.75 2 10.44 5.68a.28.28 0 00.12 0l23.42-3.29h.1a.14.14 0 000-.06v-17.84zm-10.47-5.67a8.9 8.9 0 013 .45c.65.24.84.54.82.63-.02.09-.27.48-1.14.73a9.1 9.1 0 01-2.5.31 8.68 8.68 0 01-3-.46c-.62-.23-.82-.5-.82-.6 0-.11.28-.48 1.15-.72a9.07 9.07 0 012.49-.34zm-9.38-3.24a9.54 9.54 0 012.5-.32 8.91 8.91 0 013 .46c.65.25.85.54.83.64-.02.1-.28.47-1.15.72a9.57 9.57 0 01-2.5.3 8.4 8.4 0 01-3-.45c-.62-.23-.83-.51-.82-.61.01-.14.31-.51 1.18-.74zm-4.21 4.93a9.54 9.54 0 012.5-.32 8.93 8.93 0 013 .46c.65.24.85.54.82.64-.03.1-.27.47-1.14.72a9.63 9.63 0 01-2.5.3 8.71 8.71 0 01-3-.44c-.62-.24-.83-.52-.82-.62.01-.13.31-.51 1.18-.74zm-8-2.83c0-.11.28-.48 1.15-.71a9.07 9.07 0 012.49-.31 9.23 9.23 0 013 .44c.65.25.84.55.82.64-.02.09-.27.48-1.14.72a9.08 9.08 0 01-2.5.32 8.93 8.93 0 01-3-.46c-.62-.23-.82-.5-.82-.61zm-4.93 2.55l4.34-.61v1.32c0 .54.49.89 1.19 1.16a9.09 9.09 0 003.19.5 10.06 10.06 0 002.52-.3v2.16c0 .54.49.89 1.19 1.17a9.32 9.32 0 003.18.49 9.72 9.72 0 002.67-.33c.92-.28 1.52-.64 1.56-1.27v-3.33a10.22 10.22 0 002.48-.29v2.18c0 .55.49.9 1.19 1.17a9.09 9.09 0 003.19.5 9.68 9.68 0 002.66-.34c.91-.28 1.52-.64 1.56-1.28v-1.51l4.87 2.66-22.45 3.16zm36.37 21.79c-.08 0-22.83 3.2-22.83 3.2v-17.18l22.82-3.21s.01 17.11.02 17.19z" fill="#f3aa00"/><path d="M122.364 46.932c0-.54-.49-.89-1.19-1.17a9.38 9.38 0 00-3.19-.49 9.69 9.69 0 00-2.66.33c-.91.28-1.51.64-1.55 1.27v1.35l-5.29.74h-.1v17.84a.25.25 0 000 .12l3.75 2 10.39 6.01a.28.28 0 00.12 0l23.42-3.28a.24.24 0 00.1 0 .14.14 0 000-.06v-17.83a.25.25 0 000-.12l-5.91-3.21v-1.12c0-.55-.49-.9-1.19-1.17a9.13 9.13 0 00-3.19-.5h-.7l-1.81-1v-.92c0-.55-.5-.9-1.2-1.17a9.07 9.07 0 00-3.18-.5 10 10 0 00-2.66.33c-.91.28-1.52.64-1.56 1.27v1.17l-2.49.34" fill="#ffdc5a"/><path d="M146.394 53.632a.25.25 0 000-.12l-5.91-3.21v-1.12c0-.55-.49-.9-1.19-1.17a9.13 9.13 0 00-3.19-.5h-.7l-1.81-1v.65l.82.44c-.28 0-.56.1-.82.17v-2.18c0-.55-.5-.9-1.2-1.17a9.07 9.07 0 00-3.18-.5 10 10 0 00-2.66.33c-.91.28-1.52.64-1.56 1.27v1.17l-2.49.34v.59l2.48-.35v1.49a9.81 9.81 0 00-2.63.33h.14v-2.16c0-.54-.49-.89-1.19-1.17a9.38 9.38 0 00-3.19-.49 9.69 9.69 0 00-2.66.33c-.91.28-1.51.64-1.55 1.27v1.35l-5.29.74h-.1v17.84a.25.25 0 000 .12l3.75 2 10.26 6.01a.28.28 0 00.12 0l23.42-3.28a.24.24 0 00.1 0 .14.14 0 000-.06v-17.83zm-10.47-5.7a8.9 8.9 0 013 .45c.65.25.84.54.82.64-.02.1-.27.48-1.14.72a9.08 9.08 0 01-2.5.32 8.93 8.93 0 01-3-.46c-.62-.23-.82-.51-.82-.61 0-.11.28-.48 1.15-.71a9.06 9.06 0 012.49-.35zm-9.38-3.24a9.55 9.55 0 012.5-.31 8.66 8.66 0 013 .46c.65.24.85.53.83.63-.02.1-.28.48-1.15.72a9.15 9.15 0 01-2.5.31 8.63 8.63 0 01-3-.45c-.62-.23-.83-.51-.82-.62.01-.1.31-.5 1.18-.71zm-4.21 4.93a9.55 9.55 0 012.5-.31 8.68 8.68 0 013 .46c.65.24.85.53.82.63-.03.1-.27.48-1.14.72a9.2 9.2 0 01-2.5.31 8.94 8.94 0 01-3-.45c-.62-.23-.83-.51-.82-.62.01-.1.31-.43 1.18-.71zm-8-2.82c0-.12.28-.48 1.15-.72a9.07 9.07 0 012.49-.31 8.94 8.94 0 013 .45c.65.24.84.54.82.63-.02.09-.27.48-1.14.73a9.1 9.1 0 01-2.5.31 8.68 8.68 0 01-3-.46c-.62-.23-.82-.5-.82-.61zm-4.93 2.54l4.34-.61v1.34c0 .55.49.89 1.19 1.17a9.33 9.33 0 003.19.5 9.61 9.61 0 002.52-.31v2.16c0 .55.49.9 1.19 1.17a9.32 9.32 0 003.18.49 9.72 9.72 0 002.67-.33c.92-.28 1.52-.64 1.56-1.27v-3.28a10.21 10.21 0 002.48-.3v2.18c0 .54.49.89 1.19 1.16a9.09 9.09 0 003.19.5 10.09 10.09 0 002.66-.33c.91-.28 1.52-.64 1.56-1.28v-1.51l4.87 2.65-22.45 3.16zm36.37 21.79c-.08.06-22.83 3.21-22.83 3.21v-17.19l22.82-3.21s.01 17.11.02 17.22z" fill="#f3aa00"/><path d="M122.364 29.032c0-.54-.49-.89-1.19-1.17a10.6 10.6 0 00-5.85-.15c-.91.27-1.51.63-1.55 1.26v1.35l-5.29.74h-.1v17.83a.3.3 0 000 .13l3.75 2 10.44 5.68h.12l23.42-3.29h.1a.19.19 0 000-.07v-17.83a.2.2 0 000-.11v-.05l-5.91-3.21v-1.11c0-.55-.49-.89-1.19-1.17a9.37 9.37 0 00-3.19-.5h-.7l-1.81-1v-.91c0-.54-.5-.89-1.2-1.17a9.31 9.31 0 00-3.18-.5 9.58 9.58 0 00-2.66.34c-.91.27-1.52.63-1.56 1.26v1.17l-2.49.35" fill="#ffdc5a"/><path d="M146.394 35.782a.2.2 0 000-.11v-.05l-5.91-3.21v-1.11c0-.55-.49-.89-1.19-1.17a9.37 9.37 0 00-3.19-.5h-.7l-1.81-1v.65l.82.45a7 7 0 00-.82.17v-2.18c0-.54-.5-.89-1.2-1.17a9.31 9.31 0 00-3.18-.5 9.58 9.58 0 00-2.66.34c-.91.27-1.52.63-1.56 1.26v1.17l-2.49.35v.59l2.48-.35v1.49a9.41 9.41 0 00-2.63.34h.14v-2.21c0-.54-.49-.89-1.19-1.17a10.6 10.6 0 00-5.85-.15c-.91.27-1.51.63-1.55 1.26v1.35l-5.29.74h-.1v17.83a.3.3 0 000 .13l3.75 2 10.44 5.68h.12l23.42-3.29h.1a.19.19 0 000-.07v-17.83zm-10.47-5.67a8.89 8.89 0 013 .46c.65.24.84.54.82.63-.02.09-.27.48-1.14.72a9.08 9.08 0 01-2.5.32 8.68 8.68 0 01-3-.46c-.62-.23-.82-.51-.82-.61 0-.12.28-.48 1.15-.72a9.06 9.06 0 012.49-.34zm-9.38-3.24a9.55 9.55 0 012.5-.31 8.66 8.66 0 013 .46c.65.24.85.54.83.63-.02.09-.28.48-1.15.72a9.15 9.15 0 01-2.5.31 8.4 8.4 0 01-3-.45c-.62-.23-.83-.51-.82-.62.01-.13.31-.5 1.18-.74zm-4.21 4.93a9.55 9.55 0 012.5-.31 8.68 8.68 0 013 .46c.65.24.85.54.82.63-.03.09-.27.48-1.14.72a9.2 9.2 0 01-2.5.31 8.46 8.46 0 01-3-.45c-.62-.23-.83-.51-.82-.62.01-.13.31-.5 1.18-.74zm-8-2.82c0-.11.28-.48 1.15-.72a9.07 9.07 0 012.49-.31 8.94 8.94 0 013 .45c.65.25.84.54.82.63-.02.09-.27.49-1.14.73a9.1 9.1 0 01-2.5.31 8.68 8.68 0 01-3-.46c-.62-.23-.82-.5-.82-.6zm-4.93 2.55l4.34-.61v1.33c0 .55.49.9 1.19 1.17a9.09 9.09 0 003.19.5 10.06 10.06 0 002.52-.3v2.16c0 .54.49.89 1.19 1.17a9.32 9.32 0 003.18.49 10.12 10.12 0 002.67-.33c.92-.29 1.52-.65 1.56-1.28v-3.27a9.74 9.74 0 002.48-.3v2.18c0 .55.49.89 1.19 1.17a9.33 9.33 0 003.19.5 10.08 10.08 0 002.66-.34c.91-.28 1.52-.64 1.56-1.28v-1.56l4.87 2.66-22.45 3.15zm36.37 21.79c-.08.05-22.83 3.2-22.83 3.2v-17.19l22.82-3.21s.01 17.09.02 17.2z" fill="#f3aa00"/><path d="M122.364 11.182c0-.55-.49-.9-1.19-1.17a9.14 9.14 0 00-3.19-.49 9.69 9.69 0 00-2.66.33c-.91.27-1.51.64-1.55 1.26v1.35l-5.29.75a.19.19 0 00-.1 0v17.84a.27.27 0 000 .13l3.75 2 10.44 5.68a.28.28 0 00.12 0l23.42-3.29a.21.21 0 00.1 0 .14.14 0 000-.06v-17.83a.2.2 0 000-.11v-.05l-5.91-3.22v-1.11c0-.54-.49-.89-1.19-1.17a9.38 9.38 0 00-3.19-.49h-.7l-1.81-1v-.91c0-.54-.5-.89-1.2-1.17a9.31 9.31 0 00-3.18-.5 10 10 0 00-2.66.34c-.91.28-1.52.64-1.56 1.26v1.38l-2.49.35" fill="#ffdc5a"/><path d="M146.394 17.932a.2.2 0 000-.11v-.05l-5.91-3.22v-1.11c0-.54-.49-.89-1.19-1.17a9.38 9.38 0 00-3.19-.49h-.7l-1.81-1v.65l.82.45a7 7 0 00-.82.17v-2.18c0-.54-.5-.89-1.2-1.17a9.31 9.31 0 00-3.18-.5 10 10 0 00-2.66.34c-.91.28-1.52.64-1.56 1.26v1.13l-2.49.35v.59l2.48-.35v1.49a10.22 10.22 0 00-2.63.34h.14v-2.19c0-.55-.49-.9-1.19-1.17a9.14 9.14 0 00-3.19-.49 9.69 9.69 0 00-2.66.33c-.91.27-1.51.64-1.55 1.26v1.35l-5.29.75a.19.19 0 00-.1 0v17.84a.27.27 0 000 .13l3.75 2 10.44 5.68a.28.28 0 00.12 0l23.42-3.29a.21.21 0 00.1 0 .14.14 0 000-.06v-17.83zm-10.47-5.66a8.9 8.9 0 013 .45c.65.24.84.54.82.63-.02.09-.27.48-1.14.73a9.1 9.1 0 01-2.5.31 8.68 8.68 0 01-3-.46c-.62-.23-.82-.5-.82-.61 0-.12.28-.48 1.15-.72a9.07 9.07 0 012.49-.33zm-9.38-3.24a9.54 9.54 0 012.5-.32 8.66 8.66 0 013 .46c.65.24.85.54.83.63-.02.09-.28.48-1.15.73a9.55 9.55 0 01-2.5.31 8.62 8.62 0 01-3-.46c-.62-.23-.83-.51-.82-.61.01-.14.31-.51 1.18-.74zm-4.21 4.93a9.13 9.13 0 012.5-.32 8.68 8.68 0 013 .46c.65.24.85.54.82.64-.03.1-.27.47-1.14.72a9.63 9.63 0 01-2.5.3 8.46 8.46 0 01-3-.45c-.62-.23-.83-.51-.82-.61.01-.13.31-.51 1.18-.77zm-8-2.83c0-.11.28-.48 1.15-.71a9.06 9.06 0 012.49-.32 8.94 8.94 0 013 .45c.65.25.84.55.82.64-.02.09-.27.48-1.14.72a9.08 9.08 0 01-2.5.32 8.93 8.93 0 01-3-.46c-.62-.23-.82-.51-.82-.61zm-4.93 2.55l4.34-.61v1.33c0 .54.49.89 1.19 1.16a9.09 9.09 0 003.19.5 10.06 10.06 0 002.52-.3v2.17c0 .54.49.89 1.19 1.17a9.32 9.32 0 003.18.49 9.72 9.72 0 002.67-.33c.92-.28 1.52-.64 1.56-1.27v-3.28a9.74 9.74 0 002.48-.3v2.19c0 .55.49.9 1.19 1.17a9.33 9.33 0 003.19.5 9.68 9.68 0 002.66-.34c.91-.28 1.52-.64 1.56-1.28v-1.5l4.87 2.65-22.44 3.13zm36.37 21.79c-.08.05-22.83 3.2-22.83 3.2v-17.19l22.82-3.2s.01 17.08.02 17.19z" fill="#f3aa00"/><path d="M98.924 103.722c0-.55-.49-.9-1.19-1.18a10.6 10.6 0 00-5.85-.15c-.91.27-1.51.64-1.56 1.26v1.35l-5.29.74h-.1v17.89a.59.59 0 000 .13v.05l3.74 2 10.45 5.68h.12l23.42-3.29h.1a.14.14 0 000-.07v-17.83a.2.2 0 000-.11l-5.91-3.22v-1.04c0-.55-.49-.89-1.19-1.17a9.38 9.38 0 00-3.19-.49h-.7l-1.81-1v-.91c0-.54-.5-.89-1.2-1.17a9.31 9.31 0 00-3.18-.5 9.71 9.71 0 00-2.67.34c-.91.27-1.51.63-1.56 1.26v1.18l-2.49.35" fill="#ffdc5a"/><path d="M122.974 110.472a.2.2 0 000-.11l-5.91-3.22v-1.21c0-.55-.49-.89-1.19-1.17a9.38 9.38 0 00-3.19-.49h-.7l-1.81-1v.66l.82.44a6.6 6.6 0 00-.82.17v-2.18c0-.54-.5-.89-1.2-1.17a9.31 9.31 0 00-3.18-.5 9.71 9.71 0 00-2.67.34c-.91.27-1.51.63-1.56 1.26v1.18l-2.49.35v.59l2.48-.35v1.49a9.8 9.8 0 00-2.63.34h.14v-2.18c0-.55-.49-.9-1.19-1.18a10.6 10.6 0 00-5.85-.15c-.91.27-1.51.64-1.56 1.26v1.35l-5.29.74h-.1v17.89a.59.59 0 000 .13v.05l3.74 2 10.45 5.68h.12l23.42-3.29h.1a.14.14 0 000-.07v-17.83zm-10.43-5.66a8.94 8.94 0 013 .45c.65.24.85.54.82.63-.03.09-.27.48-1.14.72a9.08 9.08 0 01-2.5.32 8.68 8.68 0 01-3-.46c-.62-.23-.82-.51-.82-.61 0-.12.28-.48 1.15-.72a9.07 9.07 0 012.49-.33zm-9.38-3.25a9.55 9.55 0 012.5-.31 8.66 8.66 0 013 .46c.65.24.85.54.83.63-.02.09-.28.48-1.15.72a9.1 9.1 0 01-2.5.31 8.5 8.5 0 01-3-.45c-.62-.23-.82-.51-.82-.61-.04-.14.27-.51 1.14-.75zm-4.21 4.93a9.55 9.55 0 012.5-.31 8.72 8.72 0 013 .46c.65.24.84.54.82.63-.02.09-.27.48-1.14.73a9.65 9.65 0 01-2.51.3 8.44 8.44 0 01-3-.45c-.62-.23-.83-.51-.82-.61-.02-.14.28-.51 1.12-.75zm-8-2.82c0-.11.28-.48 1.15-.71a9.06 9.06 0 012.49-.32 8.94 8.94 0 013 .45c.65.25.85.54.82.64-.03.1-.27.47-1.14.72a9.1 9.1 0 01-2.5.31 8.94 8.94 0 01-3-.45c-.62-.24-.82-.51-.82-.61zm-4.93 2.54l4.34-.6v1.32c0 .54.49.89 1.19 1.16a9.07 9.07 0 003.18.5 10.09 10.09 0 002.53-.3v2.16c0 .54.49.89 1.19 1.17a9.32 9.32 0 003.18.49 9.77 9.77 0 002.67-.33c.92-.28 1.52-.64 1.56-1.28v-3.27a9.77 9.77 0 002.49-.3v2.18c0 .55.49.9 1.19 1.17a9.32 9.32 0 003.18.49 10.17 10.17 0 002.67-.33c.91-.28 1.51-.64 1.56-1.28v-1.51l4.87 2.66-22.45 3.15zm36.37 21.8c-.08 0-22.83 3.2-22.83 3.2v-17.19l22.82-3.21s-.03 17.12-.02 17.2z" fill="#f3aa00"/><path d="M98.924 85.932c0-.55-.49-.89-1.19-1.18a10.6 10.6 0 00-5.85-.15c-.91.27-1.51.64-1.56 1.26v1.35l-5.29.75a.19.19 0 00-.1 0v17.84a.51.51 0 000 .13l3.74 2 10.45 5.68a.28.28 0 00.12 0l23.42-3.29a.26.26 0 00.1 0 .14.14 0 000-.06v-17.83a.25.25 0 000-.12l-5.91-3.22v-1.11c0-.54-.49-.89-1.19-1.17a9.38 9.38 0 00-3.19-.49h-.7l-1.81-1v-.92c0-.54-.5-.89-1.2-1.17a9.32 9.32 0 00-3.18-.49 9.72 9.72 0 00-2.67.33c-.91.28-1.51.64-1.56 1.27v1.16l-2.43.43" fill="#ffdc5a"/><path d="M122.974 92.632a.25.25 0 000-.12l-5.91-3.22v-1.11c0-.54-.49-.89-1.19-1.17a9.38 9.38 0 00-3.19-.49h-.7l-1.81-1v.65l.82.44a6.6 6.6 0 00-.82.17v-2.18c0-.54-.5-.89-1.2-1.17a9.32 9.32 0 00-3.18-.49 9.72 9.72 0 00-2.67.33c-.91.28-1.51.64-1.56 1.27v1.16l-2.64.23v.59l2.48-.35v1.49a10.22 10.22 0 00-2.63.34h.14v-2.07c0-.55-.49-.89-1.19-1.18a10.6 10.6 0 00-5.85-.15c-.91.27-1.51.64-1.56 1.26v1.35l-5.29.75a.19.19 0 00-.1 0v17.84a.51.51 0 000 .13l3.74 2 10.45 5.68a.28.28 0 00.12 0l23.42-3.29a.26.26 0 00.1 0 .14.14 0 000-.06v-17.83zm-10.43-5.7a8.94 8.94 0 013 .45c.65.24.85.54.82.63-.03.09-.27.48-1.14.73a9.1 9.1 0 01-2.5.31 8.68 8.68 0 01-3-.46c-.62-.23-.82-.5-.82-.61 0-.11.28-.48 1.15-.72a9.07 9.07 0 012.49-.33zm-9.38-3.24a9.13 9.13 0 012.5-.32 8.91 8.91 0 013 .46c.65.25.85.54.83.63-.02.09-.28.49-1.15.73a9.5 9.5 0 01-2.5.31 8.72 8.72 0 01-3-.46c-.62-.23-.82-.51-.82-.61-.04-.1.27-.5 1.14-.71zm-4.21 4.93a9.13 9.13 0 012.5-.32 9 9 0 013 .46c.65.25.84.54.82.64-.02.1-.27.48-1.14.72a9.63 9.63 0 01-2.51.31 8.66 8.66 0 01-3-.46c-.62-.23-.83-.51-.82-.61-.02-.1.28-.43 1.12-.71zm-8-2.83c0-.12.28-.49 1.15-.72a9.06 9.06 0 012.49-.32 8.93 8.93 0 013 .46c.65.24.85.54.82.63-.03.09-.27.48-1.14.73a9.5 9.5 0 01-2.5.31 8.93 8.93 0 01-3-.46c-.62-.23-.82-.51-.82-.61zm-4.93 2.55l4.34-.61v1.33c0 .54.49.89 1.19 1.16a9.07 9.07 0 003.18.5 10.09 10.09 0 002.53-.3v2.16c0 .54.49.89 1.19 1.17a9.32 9.32 0 003.18.49 9.77 9.77 0 002.67-.33c.92-.28 1.52-.64 1.56-1.27v-3.28a9.77 9.77 0 002.49-.3v2.19c0 .54.49.89 1.19 1.16a9.07 9.07 0 003.18.5 9.76 9.76 0 002.67-.34c.91-.28 1.51-.64 1.56-1.27v-1.51l4.87 2.65-22.45 3.15zm36.37 21.79c-.08 0-22.83 3.2-22.83 3.2v-17.18l22.82-3.21s-.03 17.11-.02 17.22z" fill="#f3aa00"/><path d="M75.544 89.172c0-.54-.49-.89-1.2-1.17a10.57 10.57 0 00-5.84-.15c-.91.27-1.51.63-1.56 1.26v1.35l-5.29.74h-.11v17.83a.27.27 0 000 .12l3.74 2 10.45 5.68a.28.28 0 00.12 0l23.41-3.29h.11a.64.64 0 000-.07v-17.83a.2.2 0 000-.11.1.1 0 000-.05l-5.91-3.21v-1.12c0-.54-.49-.89-1.19-1.17a9.41 9.41 0 00-3.19-.5h-.7l-1.81-1v-.91c0-.54-.5-.89-1.2-1.17a9.07 9.07 0 00-3.18-.5 10.12 10.12 0 00-2.67.33c-.91.28-1.51.64-1.56 1.27v1.43l-2.49.35" fill="#ffdc5a"/><path d="M99.574 95.932a.2.2 0 000-.11.1.1 0 000-.05l-5.91-3.21v-1.12c0-.54-.49-.89-1.19-1.17a9.41 9.41 0 00-3.19-.5h-.7l-1.81-1v.65l.82.44c-.29 0-.56.11-.82.18v-2.18c0-.54-.5-.89-1.2-1.17a9.07 9.07 0 00-3.18-.5 10.12 10.12 0 00-2.67.33c-.91.28-1.51.64-1.56 1.27v1.14l-2.49.35v.58l2.48-.35v1.5a9.81 9.81 0 00-2.63.33h.13v-2.18c0-.54-.49-.89-1.2-1.17a10.57 10.57 0 00-5.84-.15c-.91.27-1.51.63-1.56 1.26v1.35l-5.29.74h-.11v17.83a.27.27 0 000 .12l3.74 2 10.45 5.68h.12l23.41-3.29h.11a.64.64 0 000-.07v-17.83zm-10.43-5.67a8.93 8.93 0 013 .46c.64.24.84.54.82.63-.02.09-.27.48-1.14.72a9.13 9.13 0 01-2.5.32 8.93 8.93 0 01-3-.46c-.62-.23-.82-.51-.82-.61 0-.12.28-.49 1.15-.73a9.48 9.48 0 012.49-.34zm-9.38-3.24a9.5 9.5 0 012.5-.31 8.66 8.66 0 013 .46c.65.24.85.54.82.63-.03.09-.27.48-1.14.72a9.17 9.17 0 01-2.51.31 8.71 8.71 0 01-3-.45c-.61-.23-.82-.51-.82-.62-.03-.14.31-.51 1.15-.75zm-4.21 4.93a9.55 9.55 0 012.5-.31 8.72 8.72 0 013 .46c.65.24.84.54.82.63-.02.09-.27.48-1.14.72a9.22 9.22 0 01-2.51.31 8.67 8.67 0 01-3-.45c-.62-.23-.83-.51-.82-.62-.02-.14.28-.51 1.15-.76zm-8-2.82c0-.11.28-.48 1.14-.72a9.61 9.61 0 012.5-.31 8.84 8.84 0 013 .45c.66.24.85.54.83.63-.02.09-.27.48-1.14.73a9.15 9.15 0 01-2.5.31 8.68 8.68 0 01-3-.46c-.62-.23-.82-.5-.82-.61zm-4.93 2.54l4.33-.61v1.34c0 .55.49.9 1.19 1.17a9.07 9.07 0 003.18.5 10.14 10.14 0 002.53-.3v2.16c0 .55.48.89 1.19 1.18a9.57 9.57 0 003.18.49 10.09 10.09 0 002.66-.33c.92-.29 1.53-.65 1.56-1.28v-3.28a10.24 10.24 0 002.49-.3v2.18c0 .54.49.89 1.19 1.16a9.07 9.07 0 003.18.5 10.17 10.17 0 002.62-.32c.91-.28 1.51-.64 1.56-1.28v-1.51l4.87 2.65-22.43 3.14zm36.3 21.78c-.08.06-22.83 3.21-22.83 3.21v-17.19l22.83-3.21z" fill="#f3aa00"/><path d="M75.544 71.322c0-.55-.49-.9-1.2-1.17a9 9 0 00-3.18-.5 9.68 9.68 0 00-2.66.34c-.91.27-1.51.64-1.56 1.26v1.35l-5.29.74h-.11v17.88a.31.31 0 000 .13v.05l3.74 2 10.45 5.67a.28.28 0 00.12 0l23.41-3.29h.11a.64.64 0 000-.07v-17.83a.23.23 0 000-.12v-.05l-5.91-3.22v-1.11c0-.54-.49-.89-1.19-1.17a9.42 9.42 0 00-3.19-.49h-.7l-1.81-1v-.79c0-.54-.5-.89-1.2-1.17a9.31 9.31 0 00-3.18-.5 9.71 9.71 0 00-2.67.34c-.91.28-1.51.64-1.56 1.26v1.17l-2.49.35" fill="#ffdc5a"/><path d="M99.574 78.082a.23.23 0 000-.12v-.05l-5.91-3.22v-1.11c0-.54-.49-.89-1.19-1.17a9.42 9.42 0 00-3.19-.49h-.7l-1.81-1v.65l.82.45a6.6 6.6 0 00-.82.17v-2.18c0-.54-.5-.89-1.2-1.17a9.31 9.31 0 00-3.18-.5 9.71 9.71 0 00-2.67.34c-.91.28-1.51.64-1.56 1.26v1.17l-2.49.35v.59l2.48-.35v1.49a9.41 9.41 0 00-2.63.34h.13v-2.18c0-.55-.49-.9-1.2-1.17a9 9 0 00-3.18-.5 9.68 9.68 0 00-2.66.34c-.91.27-1.51.64-1.56 1.26v1.35l-5.29.74h-.11v17.88a.31.31 0 000 .13v.05l3.74 2 10.45 5.67a.28.28 0 00.12 0l23.41-3.29h.11a.64.64 0 000-.07v-17.83zm-10.43-5.67a8.94 8.94 0 013 .45c.64.24.84.54.82.63-.02.09-.27.48-1.14.73a9.15 9.15 0 01-2.5.31 8.68 8.68 0 01-3-.46c-.62-.23-.82-.5-.82-.61 0-.12.28-.48 1.15-.72a9.07 9.07 0 012.49-.33zm-9.38-3.24a9.08 9.08 0 012.5-.32 8.91 8.91 0 013 .46c.65.25.85.54.82.63-.03.09-.27.48-1.14.73a9.6 9.6 0 01-2.51.3 8.48 8.48 0 01-3-.45c-.61-.23-.82-.51-.82-.61-.03-.14.31-.51 1.15-.74zm-4.21 4.93a9.13 9.13 0 012.5-.32 8.72 8.72 0 013 .46c.65.24.84.54.82.63-.02.09-.27.48-1.14.73a9.65 9.65 0 01-2.51.3 8.44 8.44 0 01-3-.45c-.62-.23-.83-.51-.82-.61-.02-.14.28-.51 1.15-.74zm-8-2.83c0-.12.28-.49 1.14-.72a9.19 9.19 0 012.5-.32 8.84 8.84 0 013 .45c.66.25.85.54.83.64-.02.1-.27.48-1.14.72a9.15 9.15 0 01-2.5.31 8.94 8.94 0 01-3-.45c-.62-.24-.82-.51-.82-.61zm-4.93 2.55l4.33-.61v1.33c0 .54.49.89 1.19 1.16a9.07 9.07 0 003.18.5 10.14 10.14 0 002.53-.3v2.16c0 .54.48.89 1.19 1.17a9.32 9.32 0 003.18.49 9.69 9.69 0 002.66-.33c.92-.28 1.53-.64 1.56-1.28v-3.27a9.77 9.77 0 002.49-.3v2.19c0 .55.49.9 1.19 1.17a9.31 9.31 0 003.18.5 9.76 9.76 0 002.67-.34c.91-.28 1.51-.64 1.56-1.28v-1.51l4.87 2.66-22.48 3.14zm36.3 21.79c-.08.05-22.83 3.2-22.83 3.2v-17.18l22.83-3.21z" fill="#f3aa00"/><path d="M75.544 53.482c0-.54-.49-.89-1.2-1.17a9.28 9.28 0 00-3.18-.49 9.69 9.69 0 00-2.66.33c-.91.28-1.51.64-1.56 1.27v1.35l-5.29.75a.45.45 0 00-.11 0v17.83a.28.28 0 000 .13l3.74 2 10.45 5.68a.28.28 0 00.12 0l23.41-3.28a.27.27 0 00.11 0v-17.89a.25.25 0 000-.12v-.06l-5.91-3.22v-1.11c0-.54-.49-.89-1.19-1.17a9.42 9.42 0 00-3.19-.49h-.7l-1.81-1v-.92c0-.54-.5-.89-1.2-1.16a9.3 9.3 0 00-3.18-.51 10.1 10.1 0 00-2.67.34c-.91.28-1.51.64-1.56 1.27v1.16l-2.49.35" fill="#ffdc5a"/><path d="M99.574 60.232a.25.25 0 000-.12v-.06l-5.91-3.22v-1.11c0-.54-.49-.89-1.19-1.17a9.42 9.42 0 00-3.19-.49h-.7l-1.81-1v.65l.82.44a6.6 6.6 0 00-.82.17v-2.18c0-.54-.5-.89-1.2-1.16a9.3 9.3 0 00-3.18-.51 10.1 10.1 0 00-2.67.34c-.91.28-1.51.64-1.56 1.27v1.16l-2.49.35v.59l2.48-.35v1.49a9.81 9.81 0 00-2.63.33h.13v-2.18c0-.54-.49-.89-1.2-1.17a9.28 9.28 0 00-3.18-.49 9.69 9.69 0 00-2.66.33c-.91.28-1.51.64-1.56 1.27v1.35l-5.29.75a.45.45 0 00-.11 0v17.83a.28.28 0 000 .13l3.74 2 10.45 5.68a.28.28 0 00.12 0l23.41-3.28a.27.27 0 00.11 0v-17.89zm-10.43-5.67a8.94 8.94 0 013 .45c.64.24.84.54.82.63-.02.09-.27.49-1.14.73a9.15 9.15 0 01-2.5.31 8.68 8.68 0 01-3-.46c-.62-.23-.82-.5-.82-.6 0-.11.28-.48 1.15-.72a9.07 9.07 0 012.49-.34zm-9.38-3.24a9.5 9.5 0 012.5-.31 8.92 8.92 0 013 .45c.65.25.85.54.82.63-.03.09-.27.49-1.14.73a9.58 9.58 0 01-2.51.31 8.7 8.7 0 01-3-.46c-.61-.23-.82-.5-.82-.61-.03-.13.31-.5 1.15-.74zm-4.21 4.93a9.13 9.13 0 012.5-.32 9 9 0 013 .46c.65.25.84.54.82.64-.02.1-.27.48-1.14.72a9.63 9.63 0 01-2.51.31 8.92 8.92 0 01-3-.45c-.62-.24-.83-.51-.82-.62-.02-.13.28-.5 1.15-.74zm-8-2.83c0-.12.28-.48 1.14-.72a9.2 9.2 0 012.5-.31 8.84 8.84 0 013 .45c.66.24.85.54.83.63-.02.09-.27.48-1.14.73a9.15 9.15 0 01-2.5.31 8.93 8.93 0 01-3-.46c-.62-.23-.82-.5-.82-.61zm-4.93 2.55l4.33-.61v1.34c0 .54.49.89 1.19 1.16a9.07 9.07 0 003.18.51 10.14 10.14 0 002.53-.31v2.16c0 .54.48.89 1.19 1.17a9.31 9.31 0 003.18.5 9.68 9.68 0 002.66-.34c.92-.28 1.53-.64 1.56-1.27v-3.28a.09.09 0 000-.05 9.78 9.78 0 002.49-.29v2.18c0 .54.49.89 1.19 1.16a9.07 9.07 0 003.18.5 9.76 9.76 0 002.67-.34c.91-.28 1.51-.63 1.56-1.27v-1.51l4.87 2.65-22.48 3.2zm36.3 21.79c-.08 0-22.83 3.2-22.83 3.2v-17.18l22.83-3.21z" fill="#f3aa00"/><path d="M75.544 35.632c0-.54-.49-.89-1.2-1.17a9.28 9.28 0 00-3.18-.49 9.69 9.69 0 00-2.66.33c-.91.28-1.51.64-1.56 1.27v1.36l-5.29.74h-.11v17.82a.28.28 0 000 .13l3.74 2 10.45 5.68a.28.28 0 00.12 0l23.41-3.29h.11v-17.89a.25.25 0 000-.12l-5.91-3.21v-1.12c0-.55-.49-.9-1.19-1.17a9.41 9.41 0 00-3.19-.5h-.7l-1.81-1v-.92c0-.55-.5-.89-1.2-1.17a9.07 9.07 0 00-3.18-.5 10.12 10.12 0 00-2.67.33c-.91.28-1.51.64-1.56 1.27v1.17l-2.49.35" fill="#ffdc5a"/><path d="M99.574 42.382a.25.25 0 000-.12l-5.91-3.21v-1.12c0-.55-.49-.9-1.19-1.17a9.41 9.41 0 00-3.19-.5h-.7l-1.81-1v.65l.82.44c-.29 0-.56.11-.82.18v-2.19c0-.55-.5-.89-1.2-1.17a9.07 9.07 0 00-3.18-.5 10.12 10.12 0 00-2.67.33c-.91.28-1.51.64-1.56 1.27v1.17l-2.49.35v.58l2.48-.35v1.49a9.81 9.81 0 00-2.63.33h.13v-2.18c0-.54-.49-.89-1.2-1.17a9.28 9.28 0 00-3.18-.49 9.69 9.69 0 00-2.66.33c-.91.28-1.51.64-1.56 1.27v1.33l-5.29.74h-.11v17.82a.28.28 0 000 .13l3.74 2 10.45 5.68h.12l23.41-3.29h.11v-17.89zm-10.43-5.67a8.93 8.93 0 013 .46c.64.24.84.54.82.63-.02.09-.27.48-1.14.72a9.13 9.13 0 01-2.5.32 8.93 8.93 0 01-3-.46c-.62-.23-.82-.51-.82-.61 0-.12.28-.49 1.15-.72a9.06 9.06 0 012.49-.34zm-9.38-3.24a9.5 9.5 0 012.5-.31 8.66 8.66 0 013 .46c.65.24.85.54.82.63-.03.09-.27.48-1.14.72a9.17 9.17 0 01-2.51.31 8.71 8.71 0 01-3-.45c-.61-.23-.82-.51-.82-.62-.03-.13.31-.5 1.15-.74zm-4.21 4.93a9.55 9.55 0 012.5-.31 8.72 8.72 0 013 .46c.65.24.84.54.82.63-.02.09-.27.48-1.14.72a9.22 9.22 0 01-2.51.31 8.67 8.67 0 01-3-.45c-.62-.23-.83-.51-.82-.62-.02-.13.28-.5 1.15-.74zm-8-2.82c0-.12.28-.48 1.14-.72a9.2 9.2 0 012.5-.31 8.84 8.84 0 013 .45c.66.24.85.54.83.63-.02.09-.27.48-1.14.73a9.15 9.15 0 01-2.5.31 8.68 8.68 0 01-3-.46c-.62-.23-.82-.5-.82-.61zm-4.93 2.54l4.33-.61v1.34c0 .55.49.9 1.19 1.17a9.07 9.07 0 003.18.5 10.14 10.14 0 002.53-.3v2.15c0 .55.48.9 1.19 1.17a9.07 9.07 0 003.18.5 10.09 10.09 0 002.66-.33c.92-.29 1.53-.65 1.56-1.28v-3.28a10.24 10.24 0 002.49-.3v2.18c0 .54.49.89 1.19 1.16a9.07 9.07 0 003.18.5 10.17 10.17 0 002.67-.33c.91-.28 1.51-.64 1.56-1.28v-1.51l4.87 2.65-22.48 3.16zm36.3 21.81c-.08.06-22.83 3.21-22.83 3.21v-17.19l22.83-3.21z" fill="#f3aa00"/><path d="M52.134 110.292c0-.54-.49-.89-1.2-1.17a9.27 9.27 0 00-3.18-.5 9.68 9.68 0 00-2.66.34c-.91.28-1.51.64-1.55 1.27v1.36l-5.29.74h-.11v17.83a.28.28 0 000 .13l3.74 2 10.45 5.68a.28.28 0 00.12 0l23.41-3.29a.17.17 0 00.11 0v-17.9a.27.27 0 000-.12.21.21 0 000-.06h-.05l-5.91-3.22v-1.11c0-.55-.49-.9-1.2-1.18a9.32 9.32 0 00-3.18-.49h-.71l-1.8-1v-.67c0-.55-.49-.9-1.19-1.18a9.42 9.42 0 00-3.19-.49 10.09 10.09 0 00-2.66.33c-.91.28-1.51.64-1.56 1.27v1.16l-2.48.35" fill="#ffdc5a"/><path d="M76.164 117.052a.27.27 0 000-.12.21.21 0 000-.06h-.05l-5.91-3.22v-1.11c0-.55-.49-.9-1.2-1.18a9.32 9.32 0 00-3.18-.49h-.71l-1.8-1v.64l.82.45a6.6 6.6 0 00-.82.17v-2.2c0-.55-.49-.9-1.19-1.18a9.42 9.42 0 00-3.19-.49 10.09 10.09 0 00-2.66.33c-.91.28-1.51.64-1.56 1.27v1.16l-2.48.35v.56l2.49-.35v1.49a10.16 10.16 0 00-2.63.34h.13v-2.19c0-.54-.49-.89-1.2-1.17a9.27 9.27 0 00-3.18-.5 9.68 9.68 0 00-2.66.34c-.91.28-1.51.64-1.55 1.27v1.36l-5.29.74h-.11v17.83a.28.28 0 000 .13l3.74 2 10.45 5.68a.28.28 0 00.12 0l23.41-3.29a.17.17 0 00.11 0v-17.9zm-10.43-5.67a8.84 8.84 0 013 .45c.65.24.85.54.83.64-.02.1-.27.48-1.14.72a9.2 9.2 0 01-2.5.31 8.68 8.68 0 01-3-.46c-.62-.23-.82-.5-.82-.6 0-.11.27-.48 1.14-.72a9.61 9.61 0 012.49-.34zm-9.39-3.24a9.59 9.59 0 012.5-.32 8.93 8.93 0 013 .46c.65.25.85.54.82.64-.03.1-.27.48-1.14.72a9.58 9.58 0 01-2.51.31 8.66 8.66 0 01-3-.46c-.62-.23-.82-.5-.82-.61-.02-.13.28-.5 1.15-.74zm-4.2 4.93a9.55 9.55 0 012.5-.31 8.92 8.92 0 013 .45c.65.25.85.54.83.63-.02.09-.27.49-1.14.73a9.63 9.63 0 01-2.51.31 9 9 0 01-3-.45c-.61-.24-.82-.51-.81-.62-.04-.13.26-.51 1.13-.74zm-8-2.83c0-.12.27-.49 1.14-.72a9.2 9.2 0 012.5-.31 8.84 8.84 0 013 .45c.66.24.85.54.83.63-.02.09-.27.48-1.14.73a9.61 9.61 0 01-2.5.31 8.68 8.68 0 01-3-.46c-.62-.23-.82-.5-.82-.61zm-4.93 2.55l4.33-.61v1.34c0 .54.49.89 1.19 1.16a9.07 9.07 0 003.18.5 10.14 10.14 0 002.53-.3v2.16c0 .54.48.89 1.19 1.17a9.32 9.32 0 003.18.49 9.69 9.69 0 002.66-.33c.92-.28 1.52-.64 1.56-1.27v-3.28a9.78 9.78 0 002.49-.29v2.15c0 .54.5.89 1.2 1.16a9.07 9.07 0 003.18.5 9.76 9.76 0 002.67-.34c.91-.28 1.51-.63 1.55-1.27v-1.88.37l4.8 2.71-22.45 3.15zm36.37 21.79c-.08.05-22.83 3.2-22.83 3.2v-17.18l22.83-3.21s-.04 17.08-.03 17.19z" fill="#f3aa00"/><path d="M52.134 92.452c0-.54-.49-.89-1.2-1.17a9.28 9.28 0 00-3.18-.49 9.69 9.69 0 00-2.66.33c-.91.28-1.51.64-1.55 1.27v1.35l-5.29.74h-.11v17.83a.27.27 0 000 .12l3.74 2 10.45 5.68h.12l23.41-3.29h.11v-17.89a.27.27 0 000-.12.1.1 0 000-.05l-5.91-3.21v-1.12c0-.55-.49-.9-1.2-1.17a9.31 9.31 0 00-3.18-.5h-.71l-1.8-1v-.92c0-.54-.49-.89-1.19-1.17a9.17 9.17 0 00-3.19-.5 10.09 10.09 0 00-2.66.33c-.91.28-1.51.64-1.56 1.27v1.17l-2.48.35" fill="#ffdc5a"/><path d="M76.164 99.202a.27.27 0 000-.12.1.1 0 000-.05l-5.91-3.21v-1.12c0-.55-.49-.9-1.2-1.17a9.31 9.31 0 00-3.18-.5h-.71l-1.8-1v.65l.82.44a6.58 6.58 0 00-.82.18v-2.19c0-.54-.49-.89-1.19-1.17a9.17 9.17 0 00-3.19-.5 10.09 10.09 0 00-2.66.33c-.91.28-1.51.64-1.56 1.27v1.17l-2.48.35v.58l2.49-.35v1.49a9.76 9.76 0 00-2.63.33h.13v-2.18c0-.54-.49-.89-1.2-1.17a9.28 9.28 0 00-3.18-.49 9.69 9.69 0 00-2.66.33c-.91.28-1.51.64-1.55 1.27v1.35l-5.29.74h-.11v17.83a.27.27 0 000 .12l3.74 2 10.45 5.68h.12l23.41-3.29h.11v-17.9zm-10.43-5.67a8.82 8.82 0 013 .46c.65.24.85.54.83.63-.02.09-.27.48-1.14.72a9.19 9.19 0 01-2.5.32 8.93 8.93 0 01-3-.46c-.62-.23-.82-.51-.82-.61 0-.12.27-.49 1.14-.72a9.19 9.19 0 012.49-.34zm-9.39-3.24a9.61 9.61 0 012.5-.31 8.68 8.68 0 013 .46c.65.24.85.54.82.63-.03.09-.27.48-1.14.72a9.17 9.17 0 01-2.51.31 8.67 8.67 0 01-3-.45c-.62-.23-.82-.51-.82-.62-.02-.1.28-.5 1.15-.74zm-4.2 4.93a9.55 9.55 0 012.5-.31 8.66 8.66 0 013 .46c.65.24.85.54.83.63-.02.09-.27.48-1.14.72a9.22 9.22 0 01-2.51.31 8.78 8.78 0 01-3-.45c-.61-.24-.82-.51-.81-.62-.04-.13.26-.5 1.13-.74zm-8-2.82c0-.11.27-.48 1.14-.72a9.2 9.2 0 012.5-.31 8.84 8.84 0 013 .45c.66.24.85.54.83.63-.02.09-.27.48-1.14.73a9.2 9.2 0 01-2.5.31 8.68 8.68 0 01-3-.46c-.62-.23-.82-.5-.82-.61zm-4.93 2.54l4.33-.61v1.34c0 .55.49.9 1.19 1.17a9.07 9.07 0 003.18.5 10.14 10.14 0 002.53-.3v2.15c0 .55.48.9 1.19 1.18a9.58 9.58 0 003.18.48 10.1 10.1 0 002.66-.32c.92-.29 1.52-.65 1.56-1.28v-3.28a10.24 10.24 0 002.49-.3v2.15c0 .54.5.89 1.2 1.16a9.07 9.07 0 003.18.5 10.17 10.17 0 002.67-.33c.91-.28 1.51-.64 1.55-1.28v-1.87.36l4.86 2.65-22.45 3.16zm36.37 21.79c-.08.06-22.83 3.2-22.83 3.2v-17.18l22.83-3.21s-.04 17.09-.03 17.19z" fill="#f3aa00"/><path d="M28.724 113.582c0-.55-.49-.89-1.2-1.17a9.09 9.09 0 00-3.19-.5 9.68 9.68 0 00-2.66.34c-.91.27-1.5.64-1.55 1.27v1.41l-5.28.74h-.11v.05a.19.19 0 000 .07v17.77a.27.27 0 000 .13.1.1 0 000 .05l3.74 2 10.44 5.68a.28.28 0 00.12 0l23.42-3.29a.21.21 0 00.1 0 .07.07 0 000-.06v-17.77a.23.23 0 000-.11l-5.9-3.22v-1.11c0-.54-.48-.89-1.19-1.17a9.34 9.34 0 00-3.19-.49h-.7l-1.81-1v-.91c0-.54-.49-.89-1.2-1.17a9.31 9.31 0 00-3.18-.5 9.63 9.63 0 00-2.66.34c-.91.28-1.51.64-1.56 1.27v1.16l-2.48.35" fill="#ffdc5a"/><path d="M52.754 120.332a.23.23 0 000-.11l-5.9-3.22v-1.11c0-.54-.48-.89-1.19-1.17a9.34 9.34 0 00-3.19-.49h-.7l-1.81-1v.65l.82.45c-.29.05-.57.1-.82.17v-2.18c0-.54-.49-.89-1.2-1.17a9.31 9.31 0 00-3.18-.5 9.63 9.63 0 00-2.66.34c-.91.28-1.51.64-1.56 1.27v1.16l-2.48.35v.59l2.49-.35v1.49a10.14 10.14 0 00-2.62.34h.13v-2.19c0-.55-.49-.89-1.2-1.17a9.09 9.09 0 00-3.19-.5 9.68 9.68 0 00-2.66.34c-.91.27-1.5.64-1.55 1.27v1.34l-5.28.74h-.11v.05a.19.19 0 000 .07v17.77a.27.27 0 000 .13.1.1 0 000 .05l3.74 2 10.44 5.68a.28.28 0 00.12 0l23.42-3.29a.21.21 0 00.1 0 .07.07 0 000-.06v-17.77zm-10.44-5.66a8.9 8.9 0 013 .45c.65.24.85.54.83.63-.02.09-.27.49-1.14.73a9.22 9.22 0 01-2.51.31 8.66 8.66 0 01-3-.46c-.62-.23-.83-.5-.83-.61 0-.11.28-.48 1.15-.72a9.07 9.07 0 012.5-.33zm-9.39-3.24a9.13 9.13 0 012.5-.32 9 9 0 013 .46c.64.25.84.54.82.63-.02.09-.27.49-1.14.73a9.63 9.63 0 01-2.51.31 8.76 8.76 0 01-3-.46c-.61-.23-.82-.51-.81-.61-.02-.13.28-.5 1.14-.74zm-4.2 4.93a9.13 9.13 0 012.5-.32 8.91 8.91 0 013 .46c.65.24.85.54.83.63-.02.09-.28.48-1.15.73a9.55 9.55 0 01-2.5.31 8.72 8.72 0 01-3-.46c-.61-.23-.82-.51-.82-.61-.03-.17.28-.51 1.15-.74zm-8-2.83c0-.12.28-.49 1.15-.72a9.06 9.06 0 012.49-.32 8.89 8.89 0 013 .46c.65.24.85.54.83.63-.02.09-.27.48-1.14.72a9.21 9.21 0 01-2.51.32 8.62 8.62 0 01-3-.46c-.62-.23-.83-.51-.83-.61zm-4.93 2.55l4.34-.61v1.33c0 .55.49.89 1.19 1.17a9.34 9.34 0 003.19.49 10.2 10.2 0 002.53-.3v2.16c0 .54.49.89 1.19 1.17a9.32 9.32 0 003.18.49 9.72 9.72 0 002.67-.33c.92-.28 1.52-.64 1.56-1.27v-3.28a9.69 9.69 0 002.48-.3v2.19c0 .55.49.9 1.19 1.17a9.33 9.33 0 003.19.5 9.81 9.81 0 002.67-.34c.91-.28 1.51-.64 1.55-1.28v-1.51l4.87 2.66-22.45 3.15zm36.37 21.79c-.08.06-22.83 3.2-22.83 3.2v-17.18l22.83-3.21s-.04 17.08-.03 17.19z" fill="#f3aa00"/><path d="M28.724 95.742c0-.54-.49-.89-1.2-1.17a9.34 9.34 0 00-3.19-.49 9.69 9.69 0 00-2.66.33c-.91.28-1.5.64-1.55 1.27v1.35l-5.28.74h-.11a.14.14 0 000 .06v17.77a.27.27 0 000 .13l3.74 2 10.44 5.68a.28.28 0 00.12 0l23.42-3.28a.24.24 0 00.1 0 .07.07 0 000-.06v-17.83a.27.27 0 000-.12v-.06l-5.9-3.22v-.91c0-.54-.48-.89-1.19-1.17a9.34 9.34 0 00-3.19-.49h-.7l-1.81-1v-.92c0-.55-.49-.9-1.2-1.17a9.07 9.07 0 00-3.18-.5 10 10 0 00-2.66.33c-.91.28-1.51.64-1.56 1.27v1.17l-2.48.34" fill="#ffdc5a"/><path d="M52.754 102.492a.27.27 0 000-.12v-.06l-5.9-3.22v-1.16c0-.54-.48-.89-1.19-1.17a9.34 9.34 0 00-3.19-.49h-.7l-1.81-1v.66l.82.44c-.29 0-.57.1-.82.17v-2.18c0-.55-.49-.9-1.2-1.17a9.07 9.07 0 00-3.18-.5 10 10 0 00-2.66.33c-.91.28-1.51.64-1.56 1.27v1.17l-2.48.34v.59l2.49-.35v1.49a9.73 9.73 0 00-2.62.33h.13v-2.18c0-.54-.49-.89-1.2-1.17a9.34 9.34 0 00-3.19-.49 9.69 9.69 0 00-2.66.33c-.91.28-1.5.64-1.55 1.27v1.35l-5.28.74h-.11a.14.14 0 000 .06v17.77a.27.27 0 000 .13l3.74 2 10.44 5.68a.28.28 0 00.12 0l23.42-3.28a.24.24 0 00.1 0 .07.07 0 000-.06v-17.83zm-10.44-5.67a8.9 8.9 0 013 .45c.65.25.85.54.83.63-.02.09-.27.48-1.14.73a9.22 9.22 0 01-2.51.31 8.92 8.92 0 01-3-.45c-.62-.24-.83-.51-.83-.61 0-.11.28-.48 1.15-.71a9.06 9.06 0 012.5-.35zm-9.38-3.24a9.55 9.55 0 012.5-.31 9 9 0 013 .45c.64.25.84.54.82.64-.02.1-.27.48-1.14.72a9.63 9.63 0 01-2.51.31 8.78 8.78 0 01-3-.45c-.61-.24-.82-.51-.81-.62-.03-.13.27-.5 1.13-.74zm-4.2 4.93a9.54 9.54 0 012.5-.32 8.91 8.91 0 013 .46c.65.25.85.54.83.64-.02.1-.28.48-1.15.72a9.55 9.55 0 01-2.5.31 9 9 0 01-3-.45c-.61-.24-.82-.51-.82-.62-.04-.13.27-.5 1.14-.74zm-8-2.82c0-.12.28-.48 1.15-.72a9.07 9.07 0 012.49-.31 8.9 8.9 0 013 .45c.65.24.85.54.83.63-.02.09-.27.48-1.14.73a9.63 9.63 0 01-2.51.31 8.62 8.62 0 01-3-.46c-.62-.23-.83-.5-.83-.61zm-4.93 2.54l4.34-.61v1.31c0 .55.49.9 1.19 1.17a9.33 9.33 0 003.19.5 10.19 10.19 0 002.53-.31v2.16c0 .55.49.89 1.19 1.17a9.32 9.32 0 003.18.49 10.13 10.13 0 002.67-.32c.92-.29 1.52-.65 1.56-1.28v-3.33a10.16 10.16 0 002.48-.29v2.18c0 .54.49.89 1.19 1.16a9.09 9.09 0 003.19.5 10.22 10.22 0 002.67-.33c.91-.28 1.51-.65 1.55-1.28v-1.51l4.87 2.65-22.45 3.16zm36.37 21.79c-.08.06-22.83 3.2-22.83 3.2v-17.18l22.83-3.21s-.05 17.1-.04 17.19z" fill="#f3aa00"/><path d="M28.724 77.932c0-.55-.49-.9-1.2-1.18a10.6 10.6 0 00-5.85-.15c-.91.27-1.5.63-1.55 1.26v1.35l-5.28.74h-.11a.14.14 0 000 .06v17.77a.25.25 0 000 .12l3.74 2 10.45 6.03h.12l23.42-3.29a.21.21 0 00.1 0 .08.08 0 000-.07v-17.77a.2.2 0 000-.11l-5.9-3.21v-1.12c0-.55-.48-.89-1.19-1.17a9.34 9.34 0 00-3.19-.49h-.7l-1.81-1v-.91c0-.55-.49-.89-1.2-1.17a9.07 9.07 0 00-3.18-.5 10 10 0 00-2.66.33c-.91.28-1.51.64-1.56 1.27v1.18l-2.48.35" fill="#ffdc5a"/><path d="M52.754 84.642a.2.2 0 000-.11l-5.9-3.21v-1.12c0-.55-.48-.89-1.19-1.17a9.34 9.34 0 00-3.19-.49h-.7l-1.81-1v.65l.82.45a6.24 6.24 0 00-.82.17v-2.18c0-.55-.49-.89-1.2-1.17a9.07 9.07 0 00-3.18-.5 10 10 0 00-2.66.33c-.91.28-1.51.64-1.56 1.27v1.18l-2.48.35v.58l2.49-.34v1.49a9.73 9.73 0 00-2.62.33h.13v-2.18c0-.55-.49-.9-1.2-1.18a10.6 10.6 0 00-5.85-.15c-.91.27-1.5.63-1.55 1.26v1.35l-5.28.74h-.11a.14.14 0 000 .06v17.77a.25.25 0 000 .12l3.74 2 10.29 5.99h.12l23.42-3.29a.21.21 0 00.1 0 .08.08 0 000-.07v-17.77zm-10.44-5.71a8.89 8.89 0 013 .46c.65.24.85.54.83.63-.02.09-.27.48-1.14.72a9.21 9.21 0 01-2.51.32 8.91 8.91 0 01-3-.46c-.62-.23-.83-.51-.83-.61 0-.12.28-.48 1.15-.72a9.06 9.06 0 012.5-.34zm-9.39-3.2a9.55 9.55 0 012.5-.31 8.72 8.72 0 013 .46c.64.24.84.54.82.63-.02.09-.27.48-1.14.72a9.22 9.22 0 01-2.51.31 8.54 8.54 0 01-3-.45c-.61-.23-.82-.51-.81-.62-.02-.13.28-.54 1.14-.74zm-4.2 4.93a9.55 9.55 0 012.5-.31 8.66 8.66 0 013 .46c.65.24.85.54.83.63-.02.09-.28.48-1.15.72a9.15 9.15 0 01-2.5.31 8.5 8.5 0 01-3-.45c-.61-.23-.82-.51-.82-.62-.03-.13.28-.47 1.15-.74zm-8-2.82c0-.11.28-.48 1.15-.72a9.07 9.07 0 012.49-.31 8.9 8.9 0 013 .45c.65.24.85.54.83.64-.02.1-.27.47-1.14.72a9.22 9.22 0 01-2.51.31 8.62 8.62 0 01-3-.46c-.62-.23-.83-.5-.83-.6zm-4.93 2.54l4.34-.6v1.33c0 .54.49.89 1.19 1.16a9.09 9.09 0 003.19.5 10.2 10.2 0 002.53-.3v2.16c0 .54.49.89 1.19 1.17a9.32 9.32 0 003.18.49 9.72 9.72 0 002.67-.33c.92-.29 1.52-.65 1.56-1.28v-3.27a10.15 10.15 0 002.48-.3v2.18c0 .54.49.89 1.19 1.16a9.09 9.09 0 003.19.5 10.22 10.22 0 002.67-.33c.91-.28 1.51-.64 1.55-1.28v-1.51l4.87 2.66-22.45 3.15zm36.37 21.8c-.08 0-22.83 3.19-22.83 3.19v-17.18l22.83-3.21s-.04 17.09-.03 17.2z" fill="#f3aa00"/><path d="M28.724 60.042c0-.55-.49-.89-1.2-1.18a10.6 10.6 0 00-5.85-.15c-.91.27-1.5.64-1.55 1.27v1.35l-5.28.74h-.11a.14.14 0 000 .07v17.77a.27.27 0 000 .13l3.74 2 10.44 5.68a.28.28 0 00.12 0l23.42-3.29a.21.21 0 00.1 0 .07.07 0 000-.06v-17.57a.2.2 0 000-.11v-.05l-5.9-3.22v-1.11c0-.54-.48-.89-1.19-1.17a9.34 9.34 0 00-3.19-.49h-.7l-1.81-1v-.91c0-.54-.49-.89-1.2-1.17a10.46 10.46 0 00-5.84-.16c-.91.28-1.51.64-1.56 1.26v1.16l-2.48.35" fill="#ffdc5a"/><path d="M52.754 66.792a.2.2 0 000-.11v-.05l-5.9-3.22v-1.11c0-.54-.48-.89-1.19-1.17a9.34 9.34 0 00-3.19-.49h-.7l-1.81-1v.65l.82.45c-.29 0-.57.1-.82.17v-2.18c0-.54-.49-.89-1.2-1.17a10.46 10.46 0 00-5.84-.16c-.91.28-1.51.64-1.56 1.26v1.16l-2.48.35v.59l2.49-.35v1.49a10.14 10.14 0 00-2.62.34h.13v-2.19c0-.55-.49-.89-1.2-1.18a10.6 10.6 0 00-5.85-.15c-.91.27-1.5.64-1.55 1.27v1.35l-5.28.74h-.11a.14.14 0 000 .07v17.77a.27.27 0 000 .13l3.74 2 10.44 5.68a.28.28 0 00.12 0l23.42-3.29a.21.21 0 00.1 0 .07.07 0 000-.06v-17.58zm-10.44-5.66a8.9 8.9 0 013 .45c.65.25.85.54.83.63-.02.09-.27.49-1.14.73a9.22 9.22 0 01-2.51.31 8.66 8.66 0 01-3-.46c-.62-.23-.83-.5-.83-.6 0-.12.28-.48 1.15-.72a9.07 9.07 0 012.5-.34zm-9.39-3.2a9.13 9.13 0 012.5-.32 8.72 8.72 0 013 .46c.64.24.84.54.82.63-.02.09-.27.49-1.14.73a9.65 9.65 0 01-2.51.3 8.54 8.54 0 01-3-.45c-.61-.23-.82-.51-.81-.61-.02-.18.28-.54 1.14-.74zm-4.2 4.92a9.55 9.55 0 012.5-.31 8.66 8.66 0 013 .46c.65.25.85.54.83.63-.02.09-.28.48-1.15.73a9.55 9.55 0 01-2.5.31 8.72 8.72 0 01-3-.46c-.61-.23-.82-.51-.82-.61-.03-.17.28-.55 1.15-.79zm-8-2.82c0-.12.28-.49 1.15-.72a9.06 9.06 0 012.49-.32 8.64 8.64 0 013 .46c.65.24.85.54.83.63-.02.09-.27.48-1.14.72a9.22 9.22 0 01-2.51.31 8.88 8.88 0 01-3-.45c-.62-.23-.83-.51-.83-.61zm-4.93 2.55l4.34-.61v1.33c0 .54.49.89 1.19 1.17a9.34 9.34 0 003.19.49 10.2 10.2 0 002.53-.3v2.16c0 .54.49.89 1.19 1.17a9.32 9.32 0 003.18.49 9.72 9.72 0 002.67-.33c.92-.28 1.52-.64 1.56-1.28v-3.27a9.69 9.69 0 002.48-.3v2.19c0 .55.49.9 1.19 1.17a9.33 9.33 0 003.19.5 9.81 9.81 0 002.67-.34c.91-.28 1.51-.64 1.55-1.27v-1.51l4.87 2.65-22.45 3.15zm36.37 21.79c-.08.05-22.83 3.2-22.83 3.2v-17.19l22.83-3.2s-.04 17.04-.03 17.15z" fill="#f3aa00"/><path d="M28.724 42.202c0-.54-.49-.89-1.2-1.17a9.34 9.34 0 00-3.19-.49 9.69 9.69 0 00-2.66.33c-.91.28-1.5.64-1.55 1.27v1.36l-5.28.74a.45.45 0 00-.11 0 .14.14 0 000 .06v17.77a.27.27 0 000 .13l3.74 2 10.44 5.68a.28.28 0 00.12 0l23.42-3.29a.19.19 0 00.1 0v-17.9a.27.27 0 000-.12v-.06h-.06l-5.9-3.22v-1.11c0-.55-.48-.9-1.19-1.18a9.34 9.34 0 00-3.19-.49h-.7l-1.81-1v-.92c0-.55-.49-.9-1.2-1.17a9.07 9.07 0 00-3.18-.5 10 10 0 00-2.66.33c-.91.28-1.51.64-1.56 1.27v1.41l-2.48.35" fill="#ffdc5a"/><path d="M52.754 48.932a.27.27 0 000-.12v-.06h-.06l-5.9-3.22v-1.11c0-.55-.48-.9-1.19-1.18a9.34 9.34 0 00-3.19-.49h-.7l-1.81-1v.65l.82.44c-.29.05-.57.1-.82.17v-2.18c0-.55-.49-.9-1.2-1.17a9.07 9.07 0 00-3.18-.5 10 10 0 00-2.66.33c-.91.28-1.51.64-1.56 1.27v1.17l-2.48.35v.59l2.49-.35v1.49a9.73 9.73 0 00-2.62.33h.13v-2.18c0-.54-.49-.89-1.2-1.17a9.34 9.34 0 00-3.19-.49 9.69 9.69 0 00-2.66.33c-.91.28-1.5.64-1.55 1.27v1.36l-5.28.74a.45.45 0 00-.11 0 .14.14 0 000 .06v17.77a.27.27 0 000 .13l3.74 2 10.44 5.68a.28.28 0 00.12 0l23.42-3.29a.19.19 0 00.1 0v-17.9zm-10.44-5.67a8.9 8.9 0 013 .45c.65.25.85.54.83.64-.02.1-.27.48-1.14.72a9.22 9.22 0 01-2.51.31 8.92 8.92 0 01-3-.45c-.62-.24-.83-.51-.83-.61 0-.11.28-.48 1.15-.72a9.48 9.48 0 012.5-.32zm-9.38-3.24a9.55 9.55 0 012.5-.31 9 9 0 013 .45c.64.25.84.54.82.64-.02.1-.27.48-1.14.72a9.63 9.63 0 01-2.51.31 9 9 0 01-3-.45c-.61-.24-.82-.51-.81-.62-.03-.11.27-.48 1.13-.72zm-4.2 4.93a9.55 9.55 0 012.5-.31 8.92 8.92 0 013 .45c.65.25.85.54.83.64-.02.1-.28.48-1.15.72a9.55 9.55 0 01-2.5.31 9 9 0 01-3-.45c-.61-.24-.82-.51-.82-.62-.04-.11.27-.48 1.14-.76zm-8-2.83c0-.12.28-.48 1.15-.72a9.07 9.07 0 012.49-.31 8.9 8.9 0 013 .45c.65.24.85.54.83.63-.02.09-.27.48-1.14.73a9.63 9.63 0 01-2.51.31 8.62 8.62 0 01-3-.46c-.62-.23-.83-.5-.83-.61zm-4.93 2.55l4.34-.61v1.34c0 .55.49.9 1.19 1.17a9.33 9.33 0 003.19.5 10.19 10.19 0 002.53-.31v2.16c0 .55.49.89 1.19 1.17a9.31 9.31 0 003.18.5 9.71 9.71 0 002.67-.34c.92-.28 1.52-.64 1.56-1.27v-3.33a9.7 9.7 0 002.48-.29v2.18c0 .54.49.89 1.19 1.16a9.09 9.09 0 003.19.5 10.22 10.22 0 002.67-.33c.91-.28 1.51-.64 1.55-1.28v-1.51l4.87 2.65-22.5 3.2zm36.37 21.79c-.08.06-22.83 3.2-22.83 3.2v-17.18l22.83-3.21s-.05 17.1-.04 17.21z" fill="#f3aa00"/><path d="M28.724 24.352c0-.54-.49-.89-1.2-1.17a10.6 10.6 0 00-5.85-.15c-.91.27-1.5.63-1.55 1.26v1.35l-5.28.74h-.11v.05a.14.14 0 000 .06v17.77a.32.32 0 000 .13l3.74 2 10.44 5.68h.12l23.42-3.29h.1v-17.68a.2.2 0 000-.11l-5.9-3.21v-1.12c0-.55-.48-.89-1.19-1.17a9.33 9.33 0 00-3.19-.5h-.7l-1.81-1v-1.06c0-.55-.49-.89-1.2-1.17a9.07 9.07 0 00-3.18-.5 10 10 0 00-2.66.33c-.91.28-1.51.64-1.56 1.27v1.17l-2.48.35" fill="#ffdc5a"/><path d="M52.754 31.102a.2.2 0 000-.11l-5.9-3.21v-1.12c0-.55-.48-.89-1.19-1.17a9.33 9.33 0 00-3.19-.5h-.7l-1.81-1v.65l.82.45a6.24 6.24 0 00-.82.17v-2.33c0-.55-.49-.89-1.2-1.17a9.07 9.07 0 00-3.18-.5 10 10 0 00-2.66.33c-.91.28-1.51.64-1.56 1.27v1.17l-2.48.35v.58l2.49-.34v1.48a9.73 9.73 0 00-2.62.33h.13v-2.18c0-.54-.49-.89-1.2-1.17a10.6 10.6 0 00-5.85-.15c-.91.27-1.5.63-1.55 1.26v1.35l-5.28.74h-.11v.05a.14.14 0 000 .06v17.77a.32.32 0 000 .13l3.74 2 10.44 5.68h.12l23.42-3.29h.1v-17.58zm-10.44-5.67a8.89 8.89 0 013 .46c.65.24.85.54.83.63-.02.09-.27.48-1.14.72a9.21 9.21 0 01-2.51.32 8.91 8.91 0 01-3-.46c-.62-.23-.83-.51-.83-.61 0-.12.28-.49 1.15-.72a9.06 9.06 0 012.5-.34zm-9.38-3.24a9.55 9.55 0 012.5-.31 8.72 8.72 0 013 .46c.64.24.84.54.82.63-.02.09-.27.48-1.14.72a9.22 9.22 0 01-2.51.31 8.78 8.78 0 01-3-.45c-.61-.23-.82-.51-.81-.62-.03-.13.27-.5 1.13-.74zm-4.2 4.93a9.55 9.55 0 012.5-.31 8.66 8.66 0 013 .46c.65.24.85.54.83.63-.02.09-.28.48-1.15.72a9.15 9.15 0 01-2.5.31 8.74 8.74 0 01-3-.45c-.61-.23-.82-.51-.82-.62-.04-.13.27-.5 1.14-.74zm-8-2.82c0-.11.28-.48 1.15-.72a9.07 9.07 0 012.49-.31 8.9 8.9 0 013 .45c.65.24.85.54.83.63-.02.09-.27.48-1.14.73a9.22 9.22 0 01-2.51.31 8.62 8.62 0 01-3-.46c-.62-.23-.83-.5-.83-.61zm-4.93 2.54l4.34-.6v1.33c0 .55.49.9 1.19 1.17a9.09 9.09 0 003.19.5 10.2 10.2 0 002.53-.3v2.15c0 .55.49.9 1.19 1.18a9.32 9.32 0 003.18.49 10.12 10.12 0 002.67-.33c.92-.29 1.52-.65 1.56-1.28v-3.28a10.15 10.15 0 002.48-.3v2.18c0 .54.49.89 1.19 1.16a9.09 9.09 0 003.19.5 10.22 10.22 0 002.67-.33c.91-.28 1.51-.64 1.55-1.28v-1.51l4.87 2.66-22.45 3.15zm36.37 21.8c-.08 0-22.83 3.2-22.83 3.2v-17.19l22.83-3.21s-.05 17.09-.04 17.2z" fill="#f3aa00"/></svg>