<svg xmlns="http://www.w3.org/2000/svg" viewBox="0 0 125.952 141.327"><path d="M86.228 94.54c0-.56-.5-.92-1.22-1.2a9.54 9.54 0 00-3.26-.51 9.76 9.76 0 00-2.73.35c-.93.28-1.54.65-1.59 1.29v1.43l-5.42.76h-.11a.11.11 0 000 .06v18.19a.27.27 0 000 .13l3.83 2.09 10.69 5.81h.13l24-3.37h.1v-18.25a.43.43 0 000-.12v-.06l-6-3.29v-1.14c0-.56-.49-.92-1.22-1.2a9.46 9.46 0 00-3.26-.51h-.72l-1.85-1v-.93c0-.56-.51-.91-1.22-1.2a9.83 9.83 0 00-3.26-.51 9.71 9.71 0 00-2.73.35c-.93.28-1.55.65-1.6 1.29v1.2l-2.54.35" fill="#33abe1"/><path d="M110.828 101.46a.43.43 0 000-.12v-.06l-6-3.29v-1.14c0-.56-.49-.92-1.22-1.2a9.46 9.46 0 00-3.26-.51h-.72l-1.85-1v.67l.83.45q-.43.08-.84.18v-2.23c0-.56-.51-.91-1.22-1.2a9.83 9.83 0 00-3.26-.51 9.71 9.71 0 00-2.73.35c-.93.28-1.55.65-1.6 1.29v1.2l-2.54.35v.6l2.54-.35v1.52a9.78 9.78 0 00-2.68.34h.13v-2.24c0-.56-.5-.92-1.22-1.2a9.54 9.54 0 00-3.26-.51 9.76 9.76 0 00-2.73.35c-.93.28-1.54.65-1.59 1.29v1.41l-5.42.76h-.11a.11.11 0 000 .06v18.19a.27.27 0 000 .13l3.83 2.09 10.69 5.81h.13l24-3.37h.1v-18.25zm-10.68-5.81a9 9 0 013 .47c.66.24.87.55.84.65-.03.1-.27.48-1.16.74a9.61 9.61 0 01-2.57.32 9 9 0 01-3-.47c-.64-.24-.85-.52-.85-.63 0-.12.29-.49 1.18-.74a9.51 9.51 0 012.56-.34zm-9.6-3.32a9.92 9.92 0 012.56-.31 9.09 9.09 0 013 .46c.67.25.87.56.84.65-.03.09-.27.49-1.17.74a9.53 9.53 0 01-2.56.32 9.11 9.11 0 01-3-.46c-.63-.24-.84-.53-.84-.63-.04-.14.3-.52 1.17-.77zm-4.31 5.05a9.59 9.59 0 012.56-.32 9.09 9.09 0 013.05.47c.66.25.86.55.84.65-.02.1-.28.49-1.17.74a9.61 9.61 0 01-2.57.32 9.07 9.07 0 01-3-.47c-.63-.24-.84-.52-.84-.63-.07-.13.24-.52 1.13-.76zm-8.22-2.89c0-.12.28-.49 1.17-.73a9.53 9.53 0 012.56-.32 9 9 0 013 .46c.67.25.87.55.84.65-.03.1-.26.49-1.16.74a9.53 9.53 0 01-2.56.32 9.05 9.05 0 01-3-.47c-.63-.23-.84-.51-.84-.62zm-5 2.61l4.44-.63v1.37c0 .56.5.92 1.23 1.2a9.17 9.17 0 003.25.51 10.57 10.57 0 002.59-.31v2.21c0 .56.5.91 1.22 1.19a9.3 9.3 0 003.26.51 9.77 9.77 0 002.73-.34c.94-.29 1.56-.65 1.6-1.3v-3.36a10.17 10.17 0 002.54-.3v2.24c0 .56.5.91 1.22 1.2a9.5 9.5 0 003.26.51 10.2 10.2 0 002.73-.35c.93-.28 1.55-.65 1.59-1.31V98.6l5 2.72-23 3.22zm37.23 22.3c-.08.06-23.37 3.28-23.37 3.28v-17.59l23.37-3.28-.05 17.59z" fill="#237dba"/><path d="M86.228 76.28c0-.56-.5-.92-1.22-1.2a9.54 9.54 0 00-3.26-.51 9.76 9.76 0 00-2.73.35c-.93.27-1.54.65-1.59 1.29v1.38l-5.42.76h-.11v.05a.14.14 0 000 .06v18.19a.3.3 0 000 .13l3.83 2.09 10.69 5.81h.13l24-3.37a.21.21 0 00.1 0V83.19a.37.37 0 000-.12l-6-3.29V78.5c0-.56-.49-.91-1.22-1.2a9.71 9.71 0 00-3.26-.5h-.72l-1.85-1v-.9c0-.56-.51-.92-1.22-1.2a9.83 9.83 0 00-3.26-.51 10.1 10.1 0 00-2.73.34c-.93.29-1.55.65-1.6 1.3v1.2l-2.54.35" fill="#33abe1"/><path d="M110.828 83.19a.37.37 0 000-.12l-6-3.29V78.5c0-.56-.49-.91-1.22-1.2a9.71 9.71 0 00-3.26-.5h-.72l-1.85-1v.66l.83.45q-.43.08-.84.18v-2.23c0-.56-.51-.92-1.22-1.2a9.83 9.83 0 00-3.26-.51 10.1 10.1 0 00-2.73.34c-.93.29-1.55.65-1.6 1.3v1.2l-2.54.35v.6l2.54-.35v1.52a9.78 9.78 0 00-2.68.34h.13v-2.23c0-.56-.5-.92-1.22-1.2a9.54 9.54 0 00-3.26-.51 9.76 9.76 0 00-2.73.35c-.93.27-1.54.65-1.59 1.29v1.38l-5.42.76h-.11v.05a.14.14 0 000 .06v18.19a.3.3 0 000 .13l3.83 2.09 10.69 5.81h.13l24-3.37a.21.21 0 00.1 0zm-10.68-5.81a9 9 0 013 .47c.66.25.87.55.84.64-.03.09-.27.5-1.16.74a9.21 9.21 0 01-2.57.33 9 9 0 01-3-.47c-.64-.24-.85-.52-.85-.62 0-.12.29-.49 1.18-.74a9.51 9.51 0 012.56-.35zm-9.6-3.32a9.9 9.9 0 012.56-.32 9.07 9.07 0 013 .47c.67.25.87.56.84.65-.03.09-.27.49-1.17.74a9.53 9.53 0 01-2.56.32 8.85 8.85 0 01-3-.47c-.63-.24-.84-.52-.84-.62-.04-.14.3-.52 1.17-.77zm-4.31 5.05a9.59 9.59 0 012.56-.32 9.09 9.09 0 013.05.47c.66.25.86.55.84.65-.02.1-.28.49-1.17.74a9.61 9.61 0 01-2.57.32 9.07 9.07 0 01-3-.47c-.63-.24-.84-.52-.84-.63-.07-.14.24-.51 1.13-.76zm-8.22-2.89c0-.12.28-.49 1.17-.73a9.15 9.15 0 012.56-.32 9 9 0 013 .46c.67.25.87.55.84.65-.03.1-.26.49-1.16.74a9.53 9.53 0 01-2.56.32 8.81 8.81 0 01-3-.47c-.63-.24-.84-.52-.84-.62zm-5 2.61l4.44-.63v1.37c0 .55.5.91 1.23 1.19a9.4 9.4 0 003.25.51 10.57 10.57 0 002.59-.31v2.21c0 .56.5.91 1.22 1.2a9.55 9.55 0 003.26.5 9.77 9.77 0 002.73-.34c.94-.29 1.56-.66 1.6-1.3v-3.36a10.17 10.17 0 002.54-.3v2.23c0 .56.5.92 1.22 1.19a9.25 9.25 0 003.26.52 10.2 10.2 0 002.73-.35c.93-.28 1.55-.65 1.59-1.3v-1.55l5 2.71-23 3.23zm37.23 22.3c-.08.06-23.37 3.28-23.37 3.28V86.82l23.37-3.28-.05 17.59z" fill="#237dba"/><path d="M86.228 21.46c0-.56-.5-.92-1.22-1.2a9.54 9.54 0 00-3.26-.51 9.76 9.76 0 00-2.73.35c-.93.27-1.54.65-1.59 1.29v1.38l-5.42.76h-.11a.25.25 0 000 .07v18.2a.3.3 0 000 .13.1.1 0 000 .05l3.83 2.09 10.69 5.81a.33.33 0 00.13 0l24-3.37h.1v-18.3a.5.5 0 000-.12l-6-3.29v-1.14c0-.56-.49-.91-1.22-1.2a9.47 9.47 0 00-3.26-.5h-.72l-1.85-1v-.93c0-.56-.51-.92-1.22-1.2a9.83 9.83 0 00-3.26-.51 10.1 10.1 0 00-2.73.34c-.93.29-1.55.66-1.6 1.3v1.19l-2.54.36" fill="#33abe1"/><path d="M110.828 28.37a.5.5 0 000-.12l-6-3.29v-1.14c0-.56-.49-.91-1.22-1.2a9.47 9.47 0 00-3.26-.5h-.72l-1.85-1v.67l.83.45q-.43.07-.84.18v-2.23c0-.56-.51-.92-1.22-1.2a9.83 9.83 0 00-3.26-.51 10.1 10.1 0 00-2.73.34c-.93.29-1.55.66-1.6 1.3v1.19l-2.54.36v.6l2.54-.35v1.52a9.78 9.78 0 00-2.68.34h.13v-2.24c0-.56-.5-.92-1.22-1.2a9.54 9.54 0 00-3.26-.51 9.76 9.76 0 00-2.73.35c-.93.27-1.54.65-1.59 1.29v1.38l-5.42.76h-.11a.25.25 0 000 .07v18.2a.3.3 0 000 .13.1.1 0 000 .05l3.83 2.09 10.69 5.81a.33.33 0 00.13 0l24-3.37h.1v-18.3zm-10.68-5.8a9.28 9.28 0 013 .46c.66.25.87.56.84.65-.03.09-.27.49-1.16.74a9.21 9.21 0 01-2.57.33 8.73 8.73 0 01-3-.48c-.64-.23-.85-.51-.85-.62 0-.12.29-.49 1.18-.74a9.51 9.51 0 012.56-.34zm-9.6-3.32a9.9 9.9 0 012.56-.32 9.07 9.07 0 013 .47c.67.25.87.55.84.65-.03.1-.27.49-1.17.74a9.55 9.55 0 01-2.56.31 8.63 8.63 0 01-3-.46c-.63-.23-.84-.52-.84-.63-.04-.11.3-.51 1.17-.76zm-4.31 5a9.59 9.59 0 012.56-.32 9.09 9.09 0 013.05.47c.66.25.86.55.84.65-.02.1-.28.49-1.17.74a9.63 9.63 0 01-2.57.31 8.84 8.84 0 01-3-.46c-.63-.24-.84-.52-.84-.63-.07-.11.24-.47 1.13-.71zm-8.22-2.89c0-.12.28-.49 1.17-.73a9.15 9.15 0 012.56-.32 9 9 0 013 .46c.67.25.87.55.84.65-.03.1-.26.49-1.16.74a9.53 9.53 0 01-2.56.32 9.05 9.05 0 01-3-.47c-.63-.24-.84-.52-.84-.62zm-5 2.61l4.44-.63v1.37c0 .56.5.92 1.23 1.2a9.4 9.4 0 003.25.51 10.57 10.57 0 002.59-.31v2.21c0 .56.5.91 1.22 1.2a9.8 9.8 0 003.26.5 10.15 10.15 0 002.73-.34c.94-.29 1.56-.66 1.6-1.3v-3.41a10.17 10.17 0 002.54-.3v2.23c0 .56.5.91 1.22 1.19a9.25 9.25 0 003.26.52 10.2 10.2 0 002.73-.35c.93-.28 1.55-.65 1.59-1.31V25.5l5 2.71-23 3.23zm37.23 22.3c-.08.06-23.37 3.28-23.37 3.28V31.96l23.37-3.29-.05 17.65z" fill="#237dba"/><path d="M86.228 3.19c0-.55-.5-.91-1.22-1.19a9.54 9.54 0 00-3.26-.51 9.76 9.76 0 00-2.73.35c-.93.27-1.54.65-1.59 1.29v1.38l-5.42.76h-.11a.25.25 0 000 .07v18.2a.3.3 0 000 .13l3.83 2.09 10.69 5.81h.13l24-3.37h.1V9.95a.5.5 0 000-.12v-.06l-6-3.29V5.34c0-.56-.49-.91-1.22-1.2a9.71 9.71 0 00-3.26-.5h-.72l-1.85-1v-.93c0-.56-.51-.92-1.22-1.2a9.83 9.83 0 00-3.26-.51 10.1 10.1 0 00-2.73.34c-.93.29-1.55.66-1.6 1.3V2.9l-2.54.36" fill="#33abe1"/><path d="M110.828 10.1a.5.5 0 000-.12v-.06l-6-3.29V5.49c0-.56-.49-.91-1.22-1.2a9.71 9.71 0 00-3.26-.5h-.72l-1.85-1v.67l.83.45a7.34 7.34 0 00-.84.18V1.86c0-.56-.51-.92-1.22-1.2a9.83 9.83 0 00-3.26-.51 10.1 10.1 0 00-2.73.34c-.93.29-1.55.66-1.6 1.3V2.9l-2.54.36v.6l2.54-.36v1.53a9.78 9.78 0 00-2.68.34h.13V3.13c0-.55-.5-.91-1.22-1.19a9.54 9.54 0 00-3.26-.51 9.76 9.76 0 00-2.73.35c-.93.27-1.54.65-1.59 1.29v1.38l-5.42.76h-.11a.25.25 0 000 .07v18.2a.3.3 0 000 .13l3.83 2.09 10.69 5.81h.13l24-3.37h.1V9.89zm-10.68-5.8a9 9 0 013 .47c.66.25.87.55.84.64-.03.09-.27.5-1.16.74a9.21 9.21 0 01-2.57.33 8.73 8.73 0 01-3-.48c-.64-.23-.85-.51-.85-.62 0-.12.29-.49 1.18-.74a9.51 9.51 0 012.56-.34zm-9.6-3.32a9.9 9.9 0 012.56-.32 9.07 9.07 0 013 .47c.67.25.87.56.84.65-.03.09-.27.49-1.17.74a9.53 9.53 0 01-2.56.32 8.85 8.85 0 01-3-.47c-.63-.23-.84-.52-.84-.63-.04-.13.3-.51 1.17-.76zm-4.31 5a9.59 9.59 0 012.56-.32 9.09 9.09 0 013.05.47c.66.25.86.55.84.65-.02.1-.28.49-1.17.74a9.63 9.63 0 01-2.57.31 8.84 8.84 0 01-3-.46c-.63-.24-.84-.52-.84-.63-.07-.09.24-.47 1.13-.71zm-8.22-2.89c0-.12.28-.49 1.17-.73a9.15 9.15 0 012.56-.32 9 9 0 013 .46c.67.25.87.55.84.64-.03.09-.26.5-1.16.75a9.53 9.53 0 01-2.56.32 9.05 9.05 0 01-3-.47c-.63-.24-.84-.52-.84-.62zm-5 2.61l4.44-.63v1.37c0 .56.5.92 1.23 1.2a9.4 9.4 0 003.25.51 10.57 10.57 0 002.59-.31v2.21c0 .56.5.91 1.22 1.2a9.55 9.55 0 003.26.5 10.15 10.15 0 002.73-.34c.94-.29 1.56-.66 1.6-1.3V6.75a10.17 10.17 0 002.54-.3v2.23c0 .56.5.91 1.22 1.19a9.25 9.25 0 003.26.52 10.2 10.2 0 002.73-.35c.93-.28 1.55-.65 1.59-1.31V7.18l5 2.72-23 3.23zm37.23 22.3c-.08.06-23.37 3.28-23.37 3.28V13.69l23.37-3.29-.05 17.65z" fill="#237dba"/><path d="M62.248 61.38c0-.56-.5-.91-1.22-1.2a9.5 9.5 0 00-3.26-.51 9.69 9.69 0 00-2.72.35c-.94.28-1.55.65-1.59 1.3v1.38l-5.42.76h-.1v.05a.14.14 0 010 .06v18.19a.51.51 0 000 .13l3.83 2.09 10.7 5.81h.13l24-3.37a.19.19 0 00.11 0 .14.14 0 000-.07V68.16a.21.21 0 000-.12.1.1 0 000-.05l-6-3.29v-1.14c0-.56-.5-.92-1.22-1.2a9.54 9.54 0 00-3.26-.51h-.72l-1.86-1v-.93c0-.56-.5-.91-1.22-1.2a10.74 10.74 0 00-6-.16c-.93.28-1.55.65-1.6 1.29v1.2l-2.55.36" fill="#33abe1"/><path d="M86.858 68.3a.21.21 0 000-.12.1.1 0 000-.05l-6-3.29V63.7c0-.56-.5-.92-1.22-1.2a9.54 9.54 0 00-3.26-.51h-.72l-1.86-1v.67l.83.46a7.34 7.34 0 00-.84.17v-2.23c0-.56-.5-.91-1.22-1.2a10.74 10.74 0 00-6-.16c-.93.28-1.55.65-1.6 1.29v1.2l-2.55.36v.6l2.54-.36v1.54a9.8 9.8 0 00-2.69.34h.14v-2.24c0-.56-.5-.91-1.22-1.2a9.5 9.5 0 00-3.26-.51 9.69 9.69 0 00-2.72.35c-.94.28-1.55.65-1.59 1.3v1.38l-5.42.76h-.1v.05a.14.14 0 010 .06v18.19a.51.51 0 000 .13l3.83 2.09 10.7 5.81h.13l24-3.37a.19.19 0 00.11 0 .14.14 0 000-.07V68.21zm-10.68-5.81a9 9 0 013 .47c.67.25.87.55.85.65-.02.1-.28.49-1.17.74a9.53 9.53 0 01-2.56.32 9.05 9.05 0 01-3.05-.47c-.64-.24-.84-.52-.84-.62 0-.12.28-.49 1.17-.73a9.13 9.13 0 012.6-.36zm-9.61-3.31a9.53 9.53 0 012.56-.32 9 9 0 013 .46c.67.25.87.56.85.65-.02.09-.28.5-1.17.74a9.66 9.66 0 01-2.57.32 8.52 8.52 0 01-3-.47c-.63-.23-.85-.52-.84-.63-.03-.13.28-.51 1.17-.75zm-4.31 5a10 10 0 012.56-.32 9.09 9.09 0 013 .47c.66.25.87.55.84.65-.03.1-.28.49-1.17.74a9.53 9.53 0 01-2.56.32 8.85 8.85 0 01-3-.47c-.63-.24-.84-.52-.84-.63-.02-.04.28-.47 1.17-.72zm-8.22-2.89c0-.11.28-.49 1.17-.73a9.59 9.59 0 012.56-.32 9 9 0 013 .46c.67.25.87.55.85.65-.02.1-.28.49-1.17.74a9.15 9.15 0 01-2.56.32 8.85 8.85 0 01-3-.47c-.63-.24-.84-.51-.84-.62zm-5 2.61l4.44-.62v1.33c0 .56.51.92 1.23 1.2a9.46 9.46 0 003.26.51 10.54 10.54 0 002.58-.31v2.21c0 .56.5.91 1.22 1.2a9.49 9.49 0 003.25.5 10.29 10.29 0 002.74-.33c.93-.3 1.55-.66 1.59-1.31v-3.35a10.73 10.73 0 002.55-.31v2.21c0 .56.5.92 1.23 1.2a9.4 9.4 0 003.25.51 10.2 10.2 0 002.73-.35c.94-.28 1.56-.65 1.59-1.3v-1.92.37l5 2.72-23 3.23zm37.23 22.31c-.09 0-23.37 3.27-23.37 3.27V71.89l23.37-3.28s-.05 17.52-.04 17.64z" fill="#237dba"/><path d="M62.248 43.11c0-.56-.5-.91-1.22-1.2a9.5 9.5 0 00-3.26-.51 9.69 9.69 0 00-2.72.35c-.94.28-1.55.65-1.59 1.29v1.38l-5.42.76h-.1v.05a.14.14 0 010 .06v18.19a.51.51 0 000 .13l3.83 2.09 10.7 5.81h.13l24-3.37a.3.3 0 00.11 0 .11.11 0 000-.06v-18.2a.21.21 0 000-.12.1.1 0 000-.05l-6-3.29v-1.14c0-.55-.5-.91-1.22-1.2a9.8 9.8 0 00-3.26-.5h-.72l-1.86-1v-.94c0-.56-.5-.91-1.22-1.2a10.74 10.74 0 00-6-.16c-.93.28-1.55.65-1.6 1.29v1.33l-2.55.36" fill="#33abe1"/><path d="M86.858 50.03a.21.21 0 000-.12.1.1 0 000-.05l-6-3.29v-1.14c0-.55-.5-.91-1.22-1.2a9.8 9.8 0 00-3.26-.5h-.72l-1.86-1v.66l.83.46a7.34 7.34 0 00-.84.17v-2.23c0-.56-.5-.91-1.22-1.2a10.74 10.74 0 00-6-.16c-.93.28-1.55.65-1.6 1.29v1.18l-2.55.36v.6l2.54-.36v1.54a10.2 10.2 0 00-2.69.34h.14v-2.24c0-.56-.5-.91-1.22-1.2a9.5 9.5 0 00-3.26-.51 9.69 9.69 0 00-2.72.35c-.94.28-1.55.65-1.59 1.29v1.38l-5.42.76h-.1v.05a.14.14 0 010 .06v18.19a.51.51 0 000 .13l3.83 2.09 10.7 5.81h.13l24-3.37a.3.3 0 00.11 0 .11.11 0 000-.06v-18.2zm-10.68-5.81a9 9 0 013 .47c.67.25.87.55.85.64-.02.09-.28.5-1.17.75a9.53 9.53 0 01-2.56.32 9.05 9.05 0 01-3.05-.47c-.64-.24-.84-.52-.84-.62 0-.12.28-.49 1.17-.73a9.13 9.13 0 012.6-.36zm-9.61-3.31a9.53 9.53 0 012.56-.32 8.75 8.75 0 013 .47c.67.25.87.55.85.64-.02.09-.28.5-1.17.74a9.66 9.66 0 01-2.57.32 8.76 8.76 0 01-3-.46c-.63-.24-.85-.53-.84-.63-.03-.14.28-.52 1.17-.77zm-4.31 5a9.59 9.59 0 012.56-.32 9.09 9.09 0 013 .47c.66.25.87.55.84.65-.03.1-.28.49-1.17.74a9.55 9.55 0 01-2.56.31 8.63 8.63 0 01-3-.46c-.63-.24-.84-.52-.84-.63-.02-.09.28-.47 1.17-.72zm-8.22-2.89c0-.11.28-.49 1.17-.73a9.59 9.59 0 012.56-.32 9 9 0 013 .46c.67.25.87.55.85.65-.02.1-.28.49-1.17.74a10.25 10.25 0 01-5.61-.15c-.63-.24-.84-.51-.84-.62zm-5 2.61l4.44-.62v1.33c0 .56.51.92 1.23 1.2a9.46 9.46 0 003.26.51 10.54 10.54 0 002.58-.31v2.21c0 .56.5.91 1.22 1.2a9.49 9.49 0 003.25.5 10.29 10.29 0 002.74-.33c.93-.3 1.55-.66 1.59-1.31v-3.4a10.73 10.73 0 002.55-.31v2.21c0 .56.5.92 1.23 1.2a9.4 9.4 0 003.25.51 10.2 10.2 0 002.73-.35c.94-.28 1.56-.65 1.59-1.3v-1.92.37l5 2.72-23 3.23zm37.23 22.31c-.09 0-23.37 3.27-23.37 3.27V53.62l23.37-3.28s-.05 17.56-.04 17.64z" fill="#237dba"/><path d="M38.298 64.76c0-.56-.5-.91-1.23-1.2a9.47 9.47 0 00-3.26-.5 10.13 10.13 0 00-2.72.34c-.93.28-1.55.66-1.59 1.29v1.39l-5.41.76h-.11v18.25a.28.28 0 000 .13l3.84 2.09 10.69 5.81a.28.28 0 00.12 0l24-3.37a.17.17 0 00.11 0V71.48a.27.27 0 000-.12v-.05l-6-3.29v-1.14c0-.56-.5-.92-1.22-1.2a9.54 9.54 0 00-3.26-.51h-.72l-1.85-1v-.94c0-.55-.5-.91-1.22-1.19a9.49 9.49 0 00-3.26-.52 10 10 0 00-2.72.35c-.94.28-1.55.65-1.6 1.29v1.19l-2.54.36" fill="#33abe1"/><path d="M62.898 71.67a.27.27 0 000-.12v-.05l-6-3.29v-1.14c0-.56-.5-.92-1.22-1.2a9.54 9.54 0 00-3.26-.51h-.72l-1.85-1v.66l.83.46a6.93 6.93 0 00-.84.17v-2.23c0-.55-.5-.91-1.22-1.19a9.49 9.49 0 00-3.26-.52 10 10 0 00-2.72.35c-.94.28-1.55.65-1.6 1.29v1.19l-2.54.36v.6l2.55-.36v1.52a10.31 10.31 0 00-2.69.34h.14v-2.23c0-.56-.5-.91-1.23-1.2a9.47 9.47 0 00-3.26-.5 10.13 10.13 0 00-2.72.34c-.93.28-1.55.66-1.59 1.29v1.39l-5.41.76h-.11V85.1a.28.28 0 000 .13l3.84 2.09 10.69 5.81a.28.28 0 00.12 0l24-3.37a.17.17 0 00.11 0V71.49zm-10.68-5.8a9 9 0 013 .46c.67.25.87.55.85.65-.02.1-.27.49-1.16.74a9.27 9.27 0 01-2.57.32 9.09 9.09 0 01-3-.47c-.63-.23-.84-.52-.84-.62 0-.11.29-.49 1.18-.73a9.46 9.46 0 012.54-.32zm-9.61-3.32a9.59 9.59 0 012.56-.32 8.85 8.85 0 013 .47c.66.25.86.55.84.64-.02.09-.28.5-1.17.75a10 10 0 01-2.56.31 8.86 8.86 0 01-3.05-.46c-.63-.24-.84-.52-.84-.63.03-.14.29-.52 1.22-.76zm-4.3 5.05a9.52 9.52 0 012.56-.33 9 9 0 013 .47c.67.25.87.56.84.65-.03.09-.27.5-1.16.74a9.66 9.66 0 01-2.57.32 9 9 0 01-3-.46c-.63-.24-.85-.53-.84-.64-.03-.13.28-.51 1.17-.75zm-8.23-2.9c0-.12.29-.5 1.18-.74a9.51 9.51 0 012.55-.32 9.28 9.28 0 013 .46c.66.25.87.56.84.65-.03.09-.27.49-1.16.74a9.22 9.22 0 01-2.57.32 9 9 0 01-3-.46c-.64-.24-.85-.52-.85-.63zm-5 2.61l4.44-.62v1.36c0 .56.5.91 1.22 1.19a9.26 9.26 0 003.26.51 10.16 10.16 0 002.59-.31v2.21c0 .56.5.92 1.22 1.2a9.5 9.5 0 003.26.51 10.15 10.15 0 002.73-.34c.94-.29 1.55-.66 1.6-1.31v-3.35a10.74 10.74 0 002.55-.3v2.2c0 .55.51.91 1.23 1.19a9.46 9.46 0 003.26.51 10.21 10.21 0 002.73-.34c.93-.29 1.55-.66 1.59-1.31v-1.55l5 2.72-23 3.23zm37.23 22.31c-.08 0-23.37 3.27-23.37 3.27V75.3l23.37-3.28s-.05 17.49-.04 17.6z" fill="#237dba"/><path d="M38.298 46.49c0-.56-.5-.91-1.23-1.2a9.47 9.47 0 00-3.26-.5 9.74 9.74 0 00-2.72.34c-.93.28-1.55.66-1.59 1.3v1.38l-5.41.76h-.11v18.31a.28.28 0 000 .13l3.84 2.09 10.69 5.81a.28.28 0 00.12 0l24-3.37a.17.17 0 00.11 0v-18.3a.27.27 0 000-.12v-.05l-6-3.3v-1.14c0-.56-.5-.92-1.22-1.2a9.54 9.54 0 00-3.26-.51h-.72l-1.85-1v-.94c0-.55-.5-.91-1.22-1.19a9.49 9.49 0 00-3.26-.52 10 10 0 00-2.72.35c-.94.28-1.55.65-1.6 1.29v1.21l-2.54.36" fill="#33abe1"/><path d="M62.898 53.4a.27.27 0 000-.12v-.05l-6-3.3v-1.14c0-.56-.5-.92-1.22-1.2a9.54 9.54 0 00-3.26-.51h-.72l-1.85-1v.66l.83.46a6.93 6.93 0 00-.84.17v-2.23c0-.55-.5-.91-1.22-1.19a9.49 9.49 0 00-3.26-.52 10 10 0 00-2.72.35c-.94.28-1.55.65-1.6 1.29v1.21l-2.54.36v.6l2.55-.36v1.53a10.31 10.31 0 00-2.69.34h.14v-2.23c0-.56-.5-.91-1.23-1.2a9.47 9.47 0 00-3.26-.5 9.74 9.74 0 00-2.72.34c-.93.28-1.55.66-1.59 1.3v1.38l-5.41.76h-.11v18.31a.28.28 0 000 .13l3.84 2.09 10.69 5.81a.28.28 0 00.12 0l24-3.37a.17.17 0 00.11 0v-18.3zm-10.68-5.8a9 9 0 013 .46c.67.25.87.55.85.65-.02.1-.27.49-1.16.74a9.27 9.27 0 01-2.57.32 9.09 9.09 0 01-3-.47c-.63-.24-.84-.52-.84-.62 0-.11.29-.49 1.18-.73a9.46 9.46 0 012.54-.35zm-9.61-3.32a9.59 9.59 0 012.56-.32 8.85 8.85 0 013 .47c.66.25.86.55.84.64-.02.09-.28.5-1.17.75a10 10 0 01-2.56.31 8.86 8.86 0 01-3.05-.46c-.63-.24-.84-.52-.84-.63.03-.14.29-.52 1.22-.76zm-4.3 5a9.52 9.52 0 012.56-.33 9 9 0 013 .47c.67.25.87.56.84.65-.03.09-.27.49-1.16.74a9.66 9.66 0 01-2.57.32 8.56 8.56 0 01-3-.47c-.63-.23-.85-.52-.84-.63-.03-.08.28-.46 1.17-.7zm-8.23-2.89c0-.12.29-.5 1.18-.74a9.51 9.51 0 012.55-.32 9.28 9.28 0 013 .46c.66.25.87.56.84.65-.03.09-.27.49-1.16.74a9.22 9.22 0 01-2.57.32 9 9 0 01-3-.46c-.64-.24-.85-.52-.85-.63zm-5 2.6l4.44-.62v1.36c0 .56.5.91 1.22 1.19a9.26 9.26 0 003.26.51 10.16 10.16 0 002.59-.31v2.21c0 .56.5.92 1.22 1.2a9.5 9.5 0 003.26.51 10.15 10.15 0 002.73-.34c.94-.29 1.55-.66 1.6-1.31v-3.35a10.25 10.25 0 002.55-.3v2.2c0 .56.51.92 1.23 1.2a9.46 9.46 0 003.26.51 10.21 10.21 0 002.73-.34c.93-.29 1.55-.66 1.59-1.31v-1.55l5 2.72-23 3.23zm37.23 22.31c-.08 0-23.37 3.27-23.37 3.27V56.98l23.37-3.28s-.05 17.54-.04 17.65z" fill="#237dba"/><path d="M14.328 104.66c0-.56-.5-.91-1.22-1.2a9.55 9.55 0 00-3.26-.5 9.77 9.77 0 00-2.73.34c-.93.28-1.54.66-1.59 1.29v1.39l-5.41.76a.23.23 0 00-.11 0 .14.14 0 000 .06v18.19a.27.27 0 000 .13l3.83 2.09 10.69 5.81a.28.28 0 00.13 0l24-3.37a.21.21 0 00.11 0 .64.64 0 000-.07v-18.25a.43.43 0 000-.12l-6-3.29v-1.02c0-.56-.5-.92-1.23-1.2a9.46 9.46 0 00-3.26-.51h-.72l-1.85-1v-.94c0-.56-.51-.91-1.22-1.19a9.59 9.59 0 00-3.27-.52 9.69 9.69 0 00-2.72.35c-.93.28-1.55.65-1.6 1.29v1.2l-2.54.35" fill="#33abe1"/><path d="M38.928 111.57a.43.43 0 000-.12l-6-3.29v-1.26c0-.56-.5-.92-1.23-1.2a9.46 9.46 0 00-3.26-.51h-.72l-1.85-1v.71l.83.45q-.43.08-.84.18v-2.23c0-.56-.51-.91-1.22-1.19a9.59 9.59 0 00-3.27-.52 9.69 9.69 0 00-2.72.35c-.93.28-1.55.65-1.6 1.29v1.2l-2.54.35v.6l2.54-.35v1.52a10.18 10.18 0 00-2.68.34h.13v-2.23c0-.56-.5-.91-1.22-1.2a9.55 9.55 0 00-3.26-.5 9.77 9.77 0 00-2.73.34c-.93.28-1.54.66-1.59 1.29v1.39l-5.41.76a.23.23 0 00-.11 0 .14.14 0 000 .06v18.19a.27.27 0 000 .13l3.83 2.09 10.69 5.81a.28.28 0 00.13 0l24-3.37a.21.21 0 00.11 0 .64.64 0 000-.07v-18.25zm-10.68-5.8a9 9 0 013 .46c.66.25.86.55.84.65-.02.1-.27.49-1.16.74a9.66 9.66 0 01-2.57.32 9 9 0 01-3-.47c-.64-.24-.85-.52-.85-.62 0-.12.29-.49 1.18-.74a9.53 9.53 0 012.56-.34zm-9.6-3.32a9.46 9.46 0 012.55-.32 8.85 8.85 0 013 .47c.66.25.87.55.84.64-.03.09-.27.5-1.17.74a9.53 9.53 0 01-2.56.32 9 9 0 01-3-.46c-.64-.24-.85-.53-.84-.63-.02-.14.29-.52 1.21-.76zm-4.31 5a10 10 0 012.56-.32 9.09 9.09 0 013 .47c.66.25.86.55.84.65-.02.1-.28.49-1.17.74a9.61 9.61 0 01-2.57.32 9.07 9.07 0 01-3-.47c-.63-.23-.84-.52-.84-.63-.02-.09.29-.47 1.18-.72zm-8.22-2.89c0-.12.29-.5 1.17-.74a9.53 9.53 0 012.56-.32 9.26 9.26 0 013 .46c.67.25.87.56.85.65-.02.09-.28.49-1.17.74a9.15 9.15 0 01-2.56.32 8.81 8.81 0 01-3-.47c-.63-.24-.84-.51-.84-.62zm-5 2.61l4.44-.62v1.36c0 .55.5.91 1.22 1.19a9.26 9.26 0 003.26.51 10.11 10.11 0 002.59-.31v2.21c0 .56.5.91 1.22 1.2a9.55 9.55 0 003.26.5 9.77 9.77 0 002.73-.34c.94-.28 1.56-.65 1.6-1.3v-3.36a10.64 10.64 0 002.54-.31v2.24c0 .56.5.92 1.22 1.2a9.5 9.5 0 003.26.51 10.2 10.2 0 002.73-.35c.93-.28 1.55-.65 1.59-1.3v-1.92.37l5 2.72-23 3.23zm37.23 22.31c-.08 0-23.37 3.27-23.37 3.27v-17.59l23.37-3.28s-.06 17.53-.05 17.64z" fill="#237dba"/><path d="M14.328 86.39c0-.56-.5-.91-1.22-1.2a9.55 9.55 0 00-3.26-.5 9.77 9.77 0 00-2.73.34c-.93.28-1.54.65-1.59 1.29v1.39l-5.41.76a.23.23 0 00-.11 0v.05a.14.14 0 000 .06v18.19a.27.27 0 000 .13l3.83 2.09 10.69 5.81a.28.28 0 00.13 0l24-3.37a.21.21 0 00.11 0v-18.3a.43.43 0 000-.12v-.05l-6-3.29v-1.14c0-.56-.5-.92-1.23-1.2a9.46 9.46 0 00-3.26-.51h-.72l-1.85-1v-.94c0-.55-.51-.91-1.22-1.2a9.85 9.85 0 00-3.27-.51 10.49 10.49 0 00-2.72.34c-.93.29-1.55.66-1.6 1.3v1.2l-2.54.35" fill="#33abe1"/><path d="M38.928 93.3a.43.43 0 000-.12v-.05l-6-3.29V88.7c0-.56-.5-.92-1.23-1.2a9.46 9.46 0 00-3.26-.51h-.72l-1.85-1v.66l.83.46a7.34 7.34 0 00-.84.17v-2.23c0-.55-.51-.91-1.22-1.2a9.85 9.85 0 00-3.27-.51 10.49 10.49 0 00-2.72.34c-.93.29-1.55.66-1.6 1.3v1.2l-2.54.35v.61l2.54-.36v1.52a9.78 9.78 0 00-2.68.34h.13v-2.23c0-.56-.5-.91-1.22-1.2a9.55 9.55 0 00-3.26-.5 9.77 9.77 0 00-2.73.34c-.93.28-1.54.65-1.59 1.29v1.39l-5.41.76a.23.23 0 00-.11 0v.05a.14.14 0 000 .06v18.19a.27.27 0 000 .13l3.83 2.09 10.69 5.81a.28.28 0 00.13 0l24-3.37a.21.21 0 00.11 0V93.14zm-10.68-5.81a9 9 0 013 .47c.66.25.86.55.84.65-.02.1-.27.49-1.16.74a9.66 9.66 0 01-2.57.32 9 9 0 01-3-.47c-.64-.24-.85-.52-.85-.62 0-.12.29-.49 1.18-.73a9.11 9.11 0 012.56-.36zm-9.6-3.31a9.46 9.46 0 012.55-.32 8.85 8.85 0 013 .47c.66.25.87.55.84.64-.03.09-.27.5-1.17.74a9.53 9.53 0 01-2.56.32 8.52 8.52 0 01-3-.47c-.64-.23-.85-.51-.84-.62-.02-.14.29-.52 1.21-.76zm-4.31 5a10 10 0 012.56-.32 9.09 9.09 0 013 .47c.66.25.86.55.84.65-.02.1-.28.49-1.17.74a9.63 9.63 0 01-2.57.31 8.61 8.61 0 01-3-.46c-.63-.24-.84-.52-.84-.63-.02-.04.29-.47 1.18-.72zm-8.22-2.89c0-.12.29-.5 1.17-.74a9.53 9.53 0 012.56-.32 9.26 9.26 0 013 .46c.67.25.87.56.85.65-.02.09-.28.49-1.17.74a9.15 9.15 0 01-2.56.32 8.81 8.81 0 01-3-.47c-.63-.23-.84-.51-.84-.62zm-5 2.61l4.44-.62v1.36c0 .55.5.91 1.22 1.19a9.5 9.5 0 003.26.51 10.11 10.11 0 002.59-.31v2.21c0 .56.5.92 1.22 1.2a9.55 9.55 0 003.26.5 9.77 9.77 0 002.73-.34c.94-.28 1.56-.65 1.6-1.3v-3.36a10.16 10.16 0 002.54-.31v2.27c0 .56.5.92 1.22 1.19a9.25 9.25 0 003.26.52 10.2 10.2 0 002.73-.35c.93-.28 1.55-.65 1.59-1.3v-1.92.37l5 2.72-23 3.22zm37.23 22.31c-.08 0-23.37 3.27-23.37 3.27V96.89l23.37-3.28s-.06 17.53-.05 17.64z" fill="#237dba"/><path d="M14.328 31.57c0-.56-.5-.92-1.22-1.2a9.54 9.54 0 00-3.26-.51 9.76 9.76 0 00-2.73.35c-.93.28-1.54.65-1.59 1.29v1.4l-5.41.76h-.11a.14.14 0 000 .06v18.19a.27.27 0 000 .13l3.83 2.09 10.69 5.81a.28.28 0 00.13 0l24-3.37h.11V38.49a.43.43 0 000-.12l-6-3.29V33.8c0-.55-.5-.91-1.23-1.2a9.71 9.71 0 00-3.26-.5h-.72l-1.85-1v-.94c0-.56-.51-.91-1.22-1.2a9.85 9.85 0 00-3.27-.51 9.69 9.69 0 00-2.72.35c-.93.28-1.55.65-1.6 1.29v1.2l-2.54.35" fill="#33abe1"/><path d="M38.928 38.49a.43.43 0 000-.12l-6-3.29V33.8c0-.55-.5-.91-1.23-1.2a9.71 9.71 0 00-3.26-.5h-.72l-1.85-1v.66l.83.45q-.43.07-.84.18v-2.23c0-.56-.51-.91-1.22-1.2a9.85 9.85 0 00-3.27-.51 9.69 9.69 0 00-2.72.35c-.93.28-1.55.65-1.6 1.29v1.2l-2.54.35v.6l2.54-.35v1.52a9.78 9.78 0 00-2.68.34h.13v-2.24c0-.56-.5-.92-1.22-1.2a9.54 9.54 0 00-3.26-.51 9.76 9.76 0 00-2.73.35c-.93.28-1.54.65-1.59 1.29v1.46l-5.41.76h-.11a.14.14 0 000 .06v18.19a.27.27 0 000 .13l3.83 2.09 10.69 5.81a.28.28 0 00.13 0l24-3.37h.11V38.49zm-10.68-5.8a9 9 0 013 .46c.66.25.86.55.84.64-.02.09-.27.5-1.16.75a9.66 9.66 0 01-2.57.32 9 9 0 01-3-.47c-.64-.24-.85-.52-.85-.63 0-.12.29-.49 1.18-.74a9.53 9.53 0 012.56-.33zm-9.6-3.32a9.46 9.46 0 012.55-.32 9.11 9.11 0 013 .46c.66.25.87.56.84.65-.03.09-.27.49-1.17.74a9.53 9.53 0 01-2.56.32 9 9 0 01-3-.46c-.64-.24-.85-.53-.84-.63-.02-.14.29-.52 1.21-.76zm-4.31 5a9.59 9.59 0 012.56-.32 9.09 9.09 0 013 .47c.66.25.86.55.84.65-.02.1-.28.49-1.17.74a9.63 9.63 0 01-2.57.31 8.84 8.84 0 01-3-.46c-.63-.24-.84-.52-.84-.63-.02-.09.29-.47 1.18-.72zm-8.22-2.89c0-.12.29-.49 1.17-.73a9.53 9.53 0 012.56-.32 9 9 0 013 .46c.67.25.87.55.85.65-.02.1-.28.49-1.17.74a9.53 9.53 0 01-2.56.32 8.81 8.81 0 01-3-.47c-.63-.24-.84-.51-.84-.62zm-5 2.61l4.44-.63v1.44c0 .55.5.91 1.22 1.19a9.5 9.5 0 003.26.51 10.11 10.11 0 002.59-.31v2.21c0 .56.5.91 1.22 1.2a9.55 9.55 0 003.26.5 9.77 9.77 0 002.73-.34c.94-.29 1.56-.65 1.6-1.3V35.2a10.17 10.17 0 002.54-.3v2.24c0 .56.5.92 1.22 1.19a9.25 9.25 0 003.26.52 10.2 10.2 0 002.73-.35c.93-.28 1.55-.65 1.59-1.3v-1.92.37l5 2.71-23 3.23zm37.23 22.3c-.08.06-23.37 3.28-23.37 3.28V42.08l23.37-3.28s-.06 17.52-.05 17.63z" fill="#237dba"/><path d="M14.328 13.3c0-.56-.5-.92-1.22-1.2a9.54 9.54 0 00-3.26-.51 9.76 9.76 0 00-2.73.35c-.93.28-1.54.65-1.59 1.29v1.38l-5.41.77a.23.23 0 00-.11 0 .14.14 0 000 .06v18.19a.27.27 0 000 .13l3.83 2.09 10.69 5.81a.5.5 0 00.13 0l24-3.37h.11v-18.3a.43.43 0 000-.12l-6-3.29v-1.14c0-.56-.5-.92-1.23-1.21a9.71 9.71 0 00-3.26-.5h-.72l-1.85-1v-.83c0-.56-.51-.91-1.22-1.2a9.85 9.85 0 00-3.27-.51 10.08 10.08 0 00-2.72.34c-.93.29-1.55.66-1.6 1.3v1.2l-2.54.35" fill="#33abe1"/><path d="M38.928 20.22a.43.43 0 000-.12l-6-3.29v-1.14c0-.56-.5-.92-1.23-1.21a9.71 9.71 0 00-3.26-.5h-.72l-1.85-1v.66l.83.45q-.43.08-.84.18v-2.23c0-.56-.51-.91-1.22-1.2a9.85 9.85 0 00-3.27-.51 10.08 10.08 0 00-2.72.34c-.93.29-1.55.66-1.6 1.3v1.2l-2.54.35v.61l2.54-.36v1.52a9.78 9.78 0 00-2.68.34h.13v-2.24c0-.56-.5-.92-1.22-1.2a9.54 9.54 0 00-3.26-.51 9.76 9.76 0 00-2.73.35c-.93.28-1.54.65-1.59 1.29v1.38l-5.41.77a.23.23 0 00-.11 0 .14.14 0 000 .06V33.7a.27.27 0 000 .13l3.83 2.09 10.69 5.81a.5.5 0 00.13 0l24-3.37h.11v-18.3zm-10.68-5.81a9 9 0 013 .47c.66.25.86.55.84.65-.02.1-.27.49-1.16.74a9.66 9.66 0 01-2.57.32 9 9 0 01-3-.47c-.64-.24-.85-.52-.85-.62 0-.12.29-.49 1.18-.74a9.51 9.51 0 012.56-.35zm-9.6-3.31a9.46 9.46 0 012.55-.32 9.11 9.11 0 013 .46c.66.25.87.56.84.65-.03.09-.27.49-1.17.74a9.53 9.53 0 01-2.56.32 8.75 8.75 0 01-3-.47c-.64-.23-.85-.52-.84-.63-.02-.13.29-.51 1.21-.75zm-4.31 5a9.59 9.59 0 012.56-.32 9.09 9.09 0 013 .47c.66.25.86.55.84.65-.02.1-.28.49-1.17.74a9.63 9.63 0 01-2.57.31 8.84 8.84 0 01-3-.46c-.63-.24-.84-.52-.84-.63-.02-.09.29-.47 1.18-.72zm-8.22-2.89c0-.12.29-.5 1.17-.74a9.53 9.53 0 012.56-.32 9 9 0 013 .46c.67.25.87.55.85.65-.02.1-.28.49-1.17.74a9.53 9.53 0 01-2.56.32 9.05 9.05 0 01-3-.47c-.63-.24-.84-.51-.84-.62zm-5 2.61l4.44-.63v1.37c0 .55.5.91 1.22 1.19a9.5 9.5 0 003.26.51 10.11 10.11 0 002.59-.31v2.21c0 .56.5.91 1.22 1.2a9.55 9.55 0 003.26.5 9.77 9.77 0 002.73-.34c.94-.29 1.56-.65 1.6-1.3v-3.36a9.72 9.72 0 002.54-.3v2.24c0 .56.5.92 1.22 1.19a9.25 9.25 0 003.26.52 10.2 10.2 0 002.73-.35c.93-.28 1.55-.65 1.59-1.31v-1.91.37l5 2.72-23 3.22zm37.23 22.3c-.08.06-23.37 3.28-23.37 3.28V23.81l23.37-3.28s-.06 17.52-.05 17.63z" fill="#237dba"/><path d="M101.308 102.77c0-.56-.5-.91-1.22-1.2a9.55 9.55 0 00-3.26-.5 9.74 9.74 0 00-2.72.34c-.94.28-1.55.65-1.59 1.29v1.38l-5.42.76h-.1v.05a.14.14 0 010 .06v18.19a.27.27 0 000 .13l3.83 2.09 10.7 5.81a.38.38 0 00.13 0l24-3.37h.11a.19.19 0 000-.07v-18.19a.23.23 0 000-.12l-6-3.29V105c0-.56-.5-.92-1.22-1.21a9.81 9.81 0 00-3.27-.5h-.72l-1.84-1v-.93c0-.56-.5-.91-1.22-1.2a9.83 9.83 0 00-3.26-.51 10.57 10.57 0 00-2.73.34c-.93.29-1.55.66-1.6 1.3v1.19l-2.55.36" fill="#33abe1"/><path d="M125.908 109.69a.23.23 0 000-.12l-6-3.29V105c0-.56-.5-.92-1.22-1.21a9.81 9.81 0 00-3.27-.5h-.72l-1.84-1v.67l.83.45c-.29.05-.57.11-.83.18v-2.23c0-.56-.5-.91-1.22-1.2a9.83 9.83 0 00-3.26-.51 10.57 10.57 0 00-2.73.34c-.93.29-1.55.66-1.6 1.3v1.19l-2.55.36v.61l2.54-.36v1.54a10.2 10.2 0 00-2.69.34h.14v-2.24c0-.56-.5-.91-1.22-1.2a9.55 9.55 0 00-3.26-.5 9.74 9.74 0 00-2.72.34c-.94.28-1.55.65-1.59 1.29v1.38l-5.42.76h-.1v.05a.14.14 0 010 .06v18.19a.27.27 0 000 .13l3.83 2.09 10.7 5.81a.38.38 0 00.13 0l24-3.37h.11a.19.19 0 000-.07V109.5zm-10.68-5.8a9 9 0 013 .46c.67.25.87.55.85.65-.02.1-.28.49-1.17.74a9.53 9.53 0 01-2.56.32 9.05 9.05 0 01-3-.47c-.63-.24-.84-.52-.84-.62 0-.12.28-.49 1.17-.74a9.53 9.53 0 012.55-.33zm-9.6-3.32a9.59 9.59 0 012.56-.32 8.75 8.75 0 013 .47c.67.25.87.55.85.64-.02.09-.28.5-1.17.74a9.66 9.66 0 01-2.57.32 9 9 0 01-3-.46c-.63-.24-.85-.53-.84-.63-.03-.14.28-.52 1.22-.76zm-4.31 5a10 10 0 012.56-.32 9.09 9.09 0 013 .47c.66.25.87.55.84.65-.03.1-.28.49-1.17.74a9.53 9.53 0 01-2.56.32 9.09 9.09 0 01-3-.47c-.63-.24-.84-.52-.84-.63-.03-.09.28-.43 1.17-.72zm-8.22-2.89c0-.11.29-.49 1.18-.73a9.51 9.51 0 012.55-.32 9 9 0 013 .46c.67.25.87.55.85.65-.02.1-.28.49-1.16.74a9.27 9.27 0 01-2.57.32 9.09 9.09 0 01-3-.47c-.63-.24-.84-.51-.84-.62zm-5 2.61l4.43-.62v1.36c0 .55.51.91 1.23 1.19a9.46 9.46 0 003.26.51 10.54 10.54 0 002.58-.31v2.21c0 .56.5.91 1.21 1.2a9.59 9.59 0 003.26.5 10.29 10.29 0 002.74-.33c.93-.3 1.55-.67 1.59-1.31v-3.36a10.58 10.58 0 002.54-.31v2.24c0 .56.5.92 1.22 1.2a9.5 9.5 0 003.26.51 10.2 10.2 0 002.73-.35c.93-.28 1.55-.65 1.6-1.3v-1.55l5 2.72-23 3.23zm37.23 22.31c-.09 0-23.37 3.27-23.37 3.27v-17.59l23.37-3.28s-.05 17.52-.04 17.64z" fill="#237dba"/><path d="M101.308 84.5c0-.56-.5-.92-1.22-1.2a9.54 9.54 0 00-3.26-.51 9.74 9.74 0 00-2.72.35c-.94.28-1.55.65-1.59 1.29v1.38l-5.42.77a.19.19 0 00-.1 0v.05a.14.14 0 010 .07v18.19a.27.27 0 000 .13l3.83 2.09 10.7 5.81a.38.38 0 00.13 0l24-3.37a.25.25 0 00.11 0 .11.11 0 000-.06v-18.2a.23.23 0 000-.12.1.1 0 000-.05l-6-3.29v-1.14c0-.56-.5-.92-1.22-1.2a9.56 9.56 0 00-3.27-.51h-.72l-1.84-1v-.94c0-.56-.5-.91-1.22-1.2a9.83 9.83 0 00-3.26-.51 10.15 10.15 0 00-2.73.34c-.93.29-1.55.66-1.6 1.3v1.19l-2.55.36" fill="#33abe1"/><path d="M125.908 91.42a.23.23 0 000-.12.1.1 0 000-.05l-6-3.29v-1.14c0-.56-.5-.92-1.22-1.2a9.56 9.56 0 00-3.27-.51h-.72l-1.84-1v.66l.83.46a6.76 6.76 0 00-.83.17v-2.3c0-.56-.5-.91-1.22-1.2a9.83 9.83 0 00-3.26-.51 10.15 10.15 0 00-2.73.34c-.93.29-1.55.66-1.6 1.3v1.19l-2.55.36v.6l2.54-.35v1.54a9.8 9.8 0 00-2.69.34h.14V84.5c0-.56-.5-.92-1.22-1.2a9.54 9.54 0 00-3.26-.51 9.74 9.74 0 00-2.72.35c-.94.28-1.55.65-1.59 1.29v1.38l-5.42.77a.19.19 0 00-.1 0v.05a.14.14 0 010 .07v18.19a.27.27 0 000 .13l3.83 2.09 10.7 5.81h.13l24-3.37a.25.25 0 00.11 0 .11.11 0 000-.06v-18.2zm-10.68-5.81a9 9 0 013 .47c.67.25.87.55.85.65-.02.1-.28.49-1.17.74a9.53 9.53 0 01-2.56.32 9.05 9.05 0 01-3-.47c-.63-.24-.84-.52-.84-.63 0-.12.28-.49 1.17-.74a9.51 9.51 0 012.55-.34zm-9.6-3.31a9.59 9.59 0 012.56-.32 9 9 0 013 .46c.67.25.87.56.85.65-.02.09-.28.49-1.17.74a9.66 9.66 0 01-2.57.32 8.79 8.79 0 01-3-.47c-.63-.23-.85-.52-.84-.62-.03-.16.28-.52 1.22-.76zm-4.31 5a10 10 0 012.56-.32 9.09 9.09 0 013 .47c.66.25.87.55.84.65-.03.1-.28.49-1.17.74a9.53 9.53 0 01-2.56.32 9.09 9.09 0 01-3-.47c-.63-.24-.84-.52-.84-.63-.03-.09.28-.47 1.17-.72zm-8.22-2.89c0-.12.29-.5 1.18-.74a9.13 9.13 0 012.55-.32 9.22 9.22 0 013 .46c.67.25.87.56.85.65-.02.09-.28.49-1.16.74a9.66 9.66 0 01-2.57.32 9.09 9.09 0 01-3-.47c-.63-.23-.84-.51-.84-.62zm-5 2.61l4.43-.63v1.37c0 .55.51.91 1.23 1.19a9.46 9.46 0 003.26.51 10.08 10.08 0 002.58-.31v2.21c0 .56.5.91 1.21 1.2a9.59 9.59 0 003.26.5 10.29 10.29 0 002.74-.33c.93-.3 1.55-.66 1.59-1.31v-3.36a10.11 10.11 0 002.54-.3V90c0 .56.5.92 1.22 1.19a9.25 9.25 0 003.26.52 10.2 10.2 0 002.73-.35c.93-.28 1.55-.65 1.6-1.31v-1.54l5 2.71-23 3.23zm37.23 22.3c-.09.06-23.37 3.28-23.37 3.28V95.01l23.37-3.28s-.05 17.52-.04 17.63z" fill="#237dba"/><path d="M101.308 29.69c0-.56-.5-.92-1.22-1.2a9.54 9.54 0 00-3.26-.51 9.74 9.74 0 00-2.72.35c-.94.28-1.55.65-1.59 1.29V31l-5.42.76h-.1a.14.14 0 010 .06v18.19a.27.27 0 000 .13l3.83 2.09 10.7 5.81h.13l24-3.37h.11a.11.11 0 000-.06V36.37a.22.22 0 000-.12l-6-3.29V31.9c0-.55-.5-.91-1.22-1.2a9.81 9.81 0 00-3.27-.5h-.72l-1.84-1v-.93c0-.56-.5-.91-1.22-1.2a9.83 9.83 0 00-3.26-.51 10.15 10.15 0 00-2.73.34c-.93.29-1.55.66-1.6 1.3v1.2l-2.55.35" fill="#33abe1"/><path d="M125.908 36.61a.22.22 0 000-.12l-6-3.29v-1.3c0-.55-.5-.91-1.22-1.2a9.81 9.81 0 00-3.27-.5h-.72l-1.84-1v.7l.83.45c-.29 0-.57.11-.83.18V28.3c0-.56-.5-.91-1.22-1.2a9.83 9.83 0 00-3.26-.51 10.15 10.15 0 00-2.73.34c-.93.29-1.55.66-1.6 1.3v1.2l-2.55.35v.6l2.54-.35v1.54a9.8 9.8 0 00-2.69.34h.14v-2.24c0-.56-.5-.92-1.22-1.2a9.54 9.54 0 00-3.26-.51 9.74 9.74 0 00-2.72.35c-.94.28-1.55.65-1.59 1.29v1.38l-5.42.76h-.1a.14.14 0 010 .06v18.19a.27.27 0 000 .13l3.83 2.09 10.7 5.81h.13l24-3.37h.11a.11.11 0 000-.06V36.35zm-10.68-5.81a9 9 0 013 .47c.67.24.87.55.85.64-.02.09-.28.5-1.17.75a9.53 9.53 0 01-2.56.32 9.05 9.05 0 01-3-.47c-.63-.24-.84-.52-.84-.63 0-.12.28-.49 1.17-.74a9.51 9.51 0 012.55-.34zm-9.6-3.32a10 10 0 012.56-.32 9 9 0 013 .47c.67.25.87.56.85.65-.02.09-.28.49-1.17.74a9.66 9.66 0 01-2.57.32 8.79 8.79 0 01-3-.47c-.63-.23-.85-.52-.84-.63-.03-.13.28-.51 1.22-.76zm-4.31 5a9.59 9.59 0 012.56-.32 9.09 9.09 0 013 .47c.66.25.87.55.84.65-.03.1-.28.49-1.17.74a9.55 9.55 0 01-2.56.31 8.86 8.86 0 01-3-.46c-.63-.24-.84-.52-.84-.63-.03-.08.28-.47 1.17-.71zm-8.22-2.89c0-.12.29-.49 1.18-.73a9.13 9.13 0 012.55-.32 9 9 0 013 .46c.67.25.87.55.85.65-.02.1-.28.49-1.16.74a9.66 9.66 0 01-2.57.32 9.09 9.09 0 01-3-.47c-.63-.24-.84-.52-.84-.62zm-5 2.61l4.43-.63v1.37c0 .56.51.92 1.23 1.2a9.46 9.46 0 003.26.51 10.54 10.54 0 002.58-.31v2.21c0 .56.5.91 1.21 1.2a9.59 9.59 0 003.26.5 10.28 10.28 0 002.74-.34c.93-.29 1.55-.66 1.59-1.3v-3.36a10.11 10.11 0 002.54-.3v2.24c0 .56.5.91 1.22 1.19a9.26 9.26 0 003.26.51 10.21 10.21 0 002.73-.34c.93-.28 1.55-.65 1.6-1.31V33.7l5 2.71-23 3.23zm37.23 22.3c-.09.06-23.37 3.28-23.37 3.28V40.19l23.37-3.28s-.05 17.53-.04 17.64z" fill="#237dba"/><path d="M101.308 11.42c0-.56-.5-.92-1.22-1.2a9.54 9.54 0 00-3.26-.51 9.74 9.74 0 00-2.72.35c-.94.28-1.55.65-1.59 1.29v1.38l-5.42.76h-.1a.14.14 0 010 .07v18.19a.3.3 0 000 .13l3.83 2.09 10.7 5.81h.13l24-3.37h.11a.11.11 0 000-.06V18.16a.2.2 0 000-.11v-.06l-6-3.29v-1.14c0-.55-.5-.91-1.22-1.2a9.81 9.81 0 00-3.27-.5h-.72l-1.84-1v-.94c0-.56-.5-.91-1.22-1.2a9.83 9.83 0 00-3.26-.51 10.15 10.15 0 00-2.73.34c-.93.29-1.55.66-1.6 1.3v1.19l-2.55.36" fill="#33abe1"/><path d="M125.908 18.33a.2.2 0 000-.11v-.06l-6-3.29v-1.14c0-.55-.5-.91-1.22-1.2a9.81 9.81 0 00-3.27-.5h-.72l-1.84-1v.66l.83.45c-.29.05-.57.11-.83.18v-2.23c0-.56-.5-.91-1.22-1.2a9.83 9.83 0 00-3.26-.51 10.15 10.15 0 00-2.73.34c-.93.29-1.55.66-1.6 1.3v1.19l-2.55.36v.6l2.54-.35v1.54a9.8 9.8 0 00-2.69.34h.14v-2.24c0-.56-.5-.92-1.22-1.2a9.54 9.54 0 00-3.26-.51 9.74 9.74 0 00-2.72.35c-.94.28-1.55.65-1.59 1.29v1.38l-5.42.76h-.1a.14.14 0 010 .07v18.19a.3.3 0 000 .13l3.83 2.09 10.7 5.81h.13l24-3.37h.11a.11.11 0 000-.06V18.2zm-10.68-5.8a9 9 0 013 .47c.67.25.87.55.85.64-.02.09-.28.5-1.17.75a9.53 9.53 0 01-2.56.32 9.05 9.05 0 01-3-.47c-.63-.24-.84-.52-.84-.63 0-.12.28-.49 1.17-.74a9.51 9.51 0 012.55-.34zm-9.6-3.31a9.57 9.57 0 012.56-.33 9 9 0 013 .47c.67.25.87.56.85.65-.02.09-.28.49-1.17.74a9.66 9.66 0 01-2.57.32 8.79 8.79 0 01-3-.47c-.63-.23-.85-.52-.84-.63-.03-.13.28-.51 1.22-.75zm-4.31 5a9.59 9.59 0 012.56-.32 9.09 9.09 0 013 .47c.66.25.87.55.84.65-.03.1-.28.49-1.17.74a9.55 9.55 0 01-2.56.31 8.86 8.86 0 01-3-.46c-.63-.24-.84-.52-.84-.63-.03-.08.28-.47 1.17-.72zm-8.22-2.89c0-.11.29-.49 1.18-.73a9.13 9.13 0 012.55-.32 9 9 0 013 .46c.67.25.87.55.85.65-.02.1-.28.49-1.16.74a9.66 9.66 0 01-2.57.32 9.09 9.09 0 01-3-.47c-.63-.24-.84-.52-.84-.62zm-5 2.61l4.43-.63v1.37c0 .56.51.92 1.23 1.2a9.46 9.46 0 003.26.51 10.54 10.54 0 002.58-.31v2.21c0 .56.5.91 1.21 1.2a9.59 9.59 0 003.26.5 9.89 9.89 0 002.74-.34c.93-.29 1.55-.66 1.59-1.3v-3.36a10.11 10.11 0 002.54-.3v2.24c0 .56.5.91 1.22 1.19a9.25 9.25 0 003.26.52 10.2 10.2 0 002.73-.35c.93-.28 1.55-.65 1.6-1.31v-1.54l5 2.71-23 3.23zm37.23 22.3c-.09.06-23.37 3.28-23.37 3.28V21.93l23.37-3.28s-.05 17.52-.04 17.63z" fill="#237dba"/><path d="M77.338 69.62c0-.56-.51-.91-1.23-1.2a9.47 9.47 0 00-3.26-.5 9.74 9.74 0 00-2.72.34c-.93.28-1.55.65-1.59 1.29v1.39l-5.41.76a.35.35 0 00-.11 0v18.25a.51.51 0 000 .13l3.84 2.09 10.69 5.81h.12l24-3.37a.21.21 0 00.11 0 .19.19 0 000-.07V76.35a.24.24 0 000-.12v-.05l-6-3.3v-1.14c0-.56-.5-.92-1.22-1.2a9.5 9.5 0 00-3.26-.51h-.72l-1.85-1v-.94c0-.55-.5-.91-1.22-1.2a9.74 9.74 0 00-3.26-.51 10.14 10.14 0 00-2.73.35c-.93.28-1.55.65-1.59 1.29v1.21l-2.54.36" fill="#33abe1"/><path d="M101.938 76.53a.24.24 0 000-.12v-.05l-6-3.3v-1.14c0-.56-.5-.92-1.22-1.2a9.5 9.5 0 00-3.26-.51h-.72l-1.85-1v.66l.84.46a6.93 6.93 0 00-.84.17v-2.23c0-.55-.5-.91-1.22-1.2a9.74 9.74 0 00-3.26-.51 10.14 10.14 0 00-2.73.35c-.93.28-1.55.65-1.59 1.29v1.21l-2.54.36v.6l2.55-.36v1.52a10.26 10.26 0 00-2.69.34h.14v-2.23c0-.56-.51-.91-1.23-1.2a9.47 9.47 0 00-3.26-.5 9.74 9.74 0 00-2.72.34c-.93.28-1.55.65-1.59 1.29v1.39l-5.41.76a.35.35 0 00-.11 0v18.25a.51.51 0 000 .13l3.84 2.09L77.758 98h.12l24-3.37a.21.21 0 00.11 0 .19.19 0 000-.07V76.37zm-10.68-5.8a9.11 9.11 0 013.05.46c.66.25.86.55.84.65-.02.1-.28.49-1.17.74a9.53 9.53 0 01-2.56.32 9.05 9.05 0 01-3-.47c-.63-.24-.84-.52-.84-.62 0-.12.29-.49 1.18-.73a9.08 9.08 0 012.5-.35zm-9.61-3.32a9.59 9.59 0 012.56-.32 8.85 8.85 0 013 .47c.66.24.87.55.84.64-.03.09-.28.5-1.17.75a10 10 0 01-2.56.31 8.86 8.86 0 01-3-.46c-.63-.24-.84-.53-.83-.63-.04-.14.27-.52 1.19-.76zm-4.3 5a9.52 9.52 0 012.56-.33 9 9 0 013 .47c.67.25.87.55.84.65-.03.1-.27.49-1.16.74a9.66 9.66 0 01-2.57.32 9.26 9.26 0 01-3-.46c-.63-.24-.85-.53-.84-.63-.03-.09.28-.47 1.17-.71zm-8.23-2.9c0-.12.29-.5 1.18-.74a9.51 9.51 0 012.55-.32 9.28 9.28 0 013 .46c.67.25.87.55.84.65-.03.1-.27.49-1.16.74a9.27 9.27 0 01-2.57.32 8.79 8.79 0 01-3-.47c-.64-.23-.85-.51-.85-.62zm-5 2.61l4.44-.62v1.4c0 .56.5.91 1.22 1.19a9.5 9.5 0 003.26.51 10.16 10.16 0 002.59-.31v2.21c0 .56.5.92 1.22 1.2a9.51 9.51 0 003.26.5 10.22 10.22 0 002.73-.33c.94-.3 1.55-.66 1.6-1.31v-3.35a10.74 10.74 0 002.55-.3v2.2c0 .56.51.92 1.22 1.2a9.56 9.56 0 003.27.51 10.49 10.49 0 002.72-.34c.94-.29 1.56-.66 1.6-1.31v-1.55l5 2.72-23 3.23zm37.23 22.31c-.09 0-23.37 3.27-23.37 3.27V80.11l23.36-3.28s-.04 17.53-.03 17.65z" fill="#237dba"/><path d="M77.338 51.35c0-.56-.51-.91-1.23-1.2a9.47 9.47 0 00-3.26-.5 9.74 9.74 0 00-2.72.34c-.93.28-1.55.65-1.59 1.29v1.38l-5.41.77a.2.2 0 00-.11 0v18.25a.51.51 0 000 .13l3.84 2.09 10.69 5.82a.28.28 0 00.12 0l24-3.37a.21.21 0 00.11 0 .14.14 0 000-.07V58.04a.24.24 0 000-.12v-.05l-6-3.29v-1.14c0-.55-.5-.91-1.22-1.19a9.5 9.5 0 00-3.26-.51h-.72l-1.85-1v-.84c0-.55-.5-.91-1.22-1.2a9.74 9.74 0 00-3.26-.51 10.14 10.14 0 00-2.73.35c-.93.28-1.55.65-1.59 1.29v1.2l-2.54.36" fill="#33abe1"/><path d="M101.938 58.26a.24.24 0 000-.12v-.05l-6-3.29v-1.14c0-.55-.5-.91-1.22-1.19a9.5 9.5 0 00-3.26-.51h-.72l-1.85-1v.66l.84.46a6.93 6.93 0 00-.84.17V49.9c0-.55-.5-.91-1.22-1.2a9.74 9.74 0 00-3.26-.51 10.14 10.14 0 00-2.73.35c-.93.28-1.55.65-1.59 1.29v1.2l-2.54.36v.6l2.55-.36v1.52a10.26 10.26 0 00-2.69.34h.14v-2.23c0-.56-.51-.91-1.23-1.2a9.47 9.47 0 00-3.26-.5 9.74 9.74 0 00-2.72.34c-.93.28-1.55.65-1.59 1.29v1.38l-5.41.77a.2.2 0 00-.11 0v18.25a.51.51 0 000 .13l3.84 2.09 10.69 5.82a.28.28 0 00.12 0l24-3.37a.21.21 0 00.11 0 .14.14 0 000-.07V57.95zm-10.68-5.8a9.11 9.11 0 013.05.46c.66.25.86.55.84.64-.02.09-.28.5-1.17.75a9.53 9.53 0 01-2.56.32 9.05 9.05 0 01-3-.47c-.63-.24-.84-.52-.84-.62 0-.12.29-.49 1.18-.73a9.08 9.08 0 012.5-.35zm-9.61-3.32a9.59 9.59 0 012.56-.32 8.85 8.85 0 013 .47c.66.24.87.55.84.64-.03.09-.28.5-1.17.75a10 10 0 01-2.56.31 8.86 8.86 0 01-3-.46c-.63-.24-.84-.53-.83-.63-.04-.14.27-.52 1.19-.76zm-4.3 5a9.52 9.52 0 012.56-.33 9 9 0 013 .47c.67.25.87.55.84.65-.03.1-.27.49-1.16.74a9.68 9.68 0 01-2.57.31 8.53 8.53 0 01-3-.46c-.63-.23-.85-.52-.84-.63-.03-.08.28-.46 1.17-.7zm-8.23-2.9c0-.12.29-.5 1.18-.74a9.51 9.51 0 012.55-.32 9 9 0 013 .46c.67.25.87.55.84.65-.03.1-.27.49-1.16.74a9.27 9.27 0 01-2.57.32 8.79 8.79 0 01-3-.47c-.64-.23-.85-.51-.85-.62zm-5 2.61l4.44-.62v1.36c0 .56.5.91 1.22 1.19a9.5 9.5 0 003.26.51 10.16 10.16 0 002.59-.31v2.21c0 .56.5.92 1.22 1.2a9.51 9.51 0 003.26.5 10.22 10.22 0 002.73-.33c.94-.29 1.55-.66 1.6-1.31V54.9a11.29 11.29 0 002.55-.3v2.2c0 .56.51.92 1.22 1.2a9.56 9.56 0 003.27.51 10.07 10.07 0 002.72-.35c.94-.28 1.56-.65 1.6-1.3v-1.55l5 2.72-23 3.23zm37.23 22.31c-.09.05-23.37 3.27-23.37 3.27V61.84l23.36-3.28s-.04 17.54-.03 17.65z" fill="#237dba"/><path d="M53.378 72.99c0-.56-.5-.91-1.22-1.2a9.8 9.8 0 00-3.26-.5 10.21 10.21 0 00-2.73.34c-.93.28-1.54.66-1.59 1.3v1.38l-5.42.76h-.11a.14.14 0 000 .07v18.19a.27.27 0 000 .13l3.83 2.09 10.69 5.82a.33.33 0 00.13 0l24-3.37a.14.14 0 00.1 0V79.75a.25.25 0 000-.12v-.05l-6.05-3.29v-1.15c0-.56-.49-.92-1.22-1.2a9.5 9.5 0 00-3.26-.51h-.72l-1.85-1v-.94c0-.55-.51-.91-1.22-1.19a9.36 9.36 0 00-3.27-.51 10.13 10.13 0 00-2.72.34c-.93.28-1.55.65-1.6 1.3v1.19l-2.54.36" fill="#33abe1"/><path d="M77.978 79.9a.25.25 0 000-.12v-.05l-6.05-3.29v-1.15c0-.56-.49-.92-1.22-1.2a9.5 9.5 0 00-3.26-.51h-.72l-1.85-1v.66l.84.46c-.29 0-.57.1-.84.17v-2.23c0-.55-.51-.91-1.22-1.19a9.36 9.36 0 00-3.27-.51 10.13 10.13 0 00-2.72.34c-.93.28-1.55.65-1.6 1.3v1.19l-2.54.36v.6l2.55-.36v1.53a9.91 9.91 0 00-2.69.34h.14v-2.23c0-.56-.5-.91-1.22-1.2a9.8 9.8 0 00-3.26-.5 10.21 10.21 0 00-2.73.34c-.93.28-1.54.66-1.59 1.3v1.38l-5.42.76h-.11a.14.14 0 000 .07v18.19a.27.27 0 000 .13l3.83 2.09 10.69 5.82a.33.33 0 00.13 0l24-3.37a.14.14 0 00.1 0V79.77zm-10.68-5.8a9.28 9.28 0 013.05.46c.66.25.87.55.84.65-.03.1-.27.49-1.16.74a9.26 9.26 0 01-2.57.33 8.73 8.73 0 01-3-.48c-.64-.24-.84-.51-.84-.62 0-.12.28-.5 1.17-.74a9.51 9.51 0 012.51-.34zm-9.6-3.32a9.51 9.51 0 012.55-.32 9.09 9.09 0 013 .47c.67.25.87.55.84.64-.03.09-.28.5-1.17.75a9.55 9.55 0 01-2.56.31 8.86 8.86 0 01-3-.46c-.63-.24-.84-.52-.83-.63-.03-.14.27-.52 1.15-.76zm-4.31 5a9.59 9.59 0 012.56-.32 8.85 8.85 0 013 .47c.66.24.87.55.84.64-.03.09-.28.5-1.17.74a9.66 9.66 0 01-2.57.32 8.59 8.59 0 01-3-.47c-.63-.23-.85-.52-.84-.62-.02-.09.29-.47 1.18-.71zm-8.22-2.89c0-.12.28-.49 1.17-.74a9.53 9.53 0 012.56-.32 9.26 9.26 0 013 .46c.67.26.87.56.85.65-.02.09-.28.5-1.17.74a10.11 10.11 0 01-5.61-.14c-.63-.24-.84-.52-.84-.62zm-5 2.6l4.44-.62v1.37c0 .56.51.92 1.22 1.19a9.26 9.26 0 003.26.51 10.58 10.58 0 002.59-.3v2.26c0 .55.49.91 1.21 1.19a9.5 9.5 0 003.26.51 10.15 10.15 0 002.73-.34c.94-.29 1.56-.66 1.6-1.31V76.6a10.23 10.23 0 002.54-.3v2.23c0 .57.5.92 1.22 1.2a9.5 9.5 0 003.26.51 10.21 10.21 0 002.73-.34c.93-.29 1.55-.66 1.59-1.31v-1.55l5 2.72-23 3.23zm37.18 22.41c-.08.06-23.37 3.27-23.37 3.27V83.58l23.37-3.28s-.01 17.44 0 17.6z" fill="#237dba"/><path d="M53.378 54.72c0-.56-.5-.91-1.22-1.2a9.55 9.55 0 00-3.26-.5 9.82 9.82 0 00-2.73.34c-.93.28-1.54.65-1.59 1.3v1.38l-5.42.76h-.11v18.25a.27.27 0 000 .13l3.83 2.09 10.69 5.82a.33.33 0 00.13 0l24-3.36h.1a.64.64 0 000-.07V61.47a.25.25 0 000-.12l-6.05-3.29v-1.14c0-.56-.49-.92-1.22-1.2a9.51 9.51 0 00-3.26-.5h-.72l-1.85-1v-.94c0-.56-.51-.92-1.22-1.2a9.36 9.36 0 00-3.27-.51 10.13 10.13 0 00-2.72.34c-.93.29-1.55.65-1.6 1.29v1.19l-2.54.36" fill="#33abe1"/><path d="M77.978 61.63a.25.25 0 000-.12l-6.05-3.29v-1.14c0-.56-.49-.92-1.22-1.2a9.51 9.51 0 00-3.26-.5h-.72l-1.85-1v.52l.84.46c-.29 0-.57.1-.84.17V53.3c0-.56-.51-.92-1.22-1.2a9.36 9.36 0 00-3.27-.51 10.13 10.13 0 00-2.72.34c-.93.29-1.55.65-1.6 1.29v1.19l-2.54.36v.6l2.55-.36v1.53a10.3 10.3 0 00-2.69.35h.14v-2.23c0-.56-.5-.91-1.22-1.2a9.55 9.55 0 00-3.26-.5 9.82 9.82 0 00-2.73.34c-.93.28-1.54.65-1.59 1.3v1.38l-5.42.76h-.11v18.25a.27.27 0 000 .13l3.83 2.09 10.69 5.82a.33.33 0 00.13 0l24-3.36h.1a.64.64 0 000-.07V61.41zm-10.68-5.8a9.28 9.28 0 013.05.46c.66.25.87.55.84.65-.03.1-.27.49-1.16.74a9.27 9.27 0 01-2.57.32 8.75 8.75 0 01-3-.47c-.64-.23-.84-.51-.84-.62 0-.12.28-.5 1.17-.74a9.51 9.51 0 012.51-.34zm-9.6-3.32a9.51 9.51 0 012.55-.32 8.85 8.85 0 013 .47c.67.25.87.55.84.65-.03.1-.28.49-1.17.74a9.55 9.55 0 01-2.56.31 8.86 8.86 0 01-3-.46c-.63-.24-.84-.52-.83-.63-.03-.14.27-.52 1.15-.76zm-4.31 5a9.59 9.59 0 012.56-.32 8.85 8.85 0 013 .47c.66.24.87.55.84.64-.03.09-.28.49-1.17.74a9.66 9.66 0 01-2.57.32 8.84 8.84 0 01-3-.46c-.63-.24-.85-.53-.84-.63-.02-.09.29-.47 1.18-.71zm-8.22-2.89c0-.12.28-.49 1.17-.74a9.53 9.53 0 012.56-.32 9.26 9.26 0 013 .46c.67.26.87.56.85.65-.02.09-.28.5-1.17.74a10.11 10.11 0 01-5.61-.14c-.63-.24-.84-.52-.84-.63zm-5 2.6l4.44-.62v1.36c0 .56.51.92 1.22 1.19a9.25 9.25 0 003.26.52 10.57 10.57 0 002.59-.31v2.2c0 .56.49.92 1.21 1.2a9.5 9.5 0 003.26.51 10.15 10.15 0 002.73-.34c.94-.29 1.56-.66 1.6-1.31v-3.35a10.23 10.23 0 002.54-.3v2.23c0 .55.5.91 1.22 1.19a9.5 9.5 0 003.26.51 10.21 10.21 0 002.73-.34c.93-.29 1.55-.66 1.59-1.31V58.7l5 2.72-23 3.23zm37.23 22.31c-.08.06-23.37 3.28-23.37 3.28v-17.6l23.37-3.28s-.06 17.54-.05 17.65z" fill="#237dba"/><path d="M29.408 112.9c0-.56-.49-.91-1.22-1.2a9.51 9.51 0 00-3.26-.5 9.7 9.7 0 00-2.72.34c-.94.28-1.55.65-1.6 1.3v1.38l-5.42.76a.21.21 0 00-.1 0 .11.11 0 000 .05.14.14 0 010 .06v18.19a.51.51 0 000 .13l3.83 2.09 10.69 5.82a.33.33 0 00.13 0l24-3.36h.11a.14.14 0 000-.07v-18.1a.25.25 0 000-.12v-.05l-6-3.3v-1.13c0-.56-.5-.92-1.22-1.2a9.54 9.54 0 00-3.26-.51h-.73l-1.85-1v-.94c0-.55-.5-.91-1.22-1.19a9.3 9.3 0 00-3.26-.51 10.15 10.15 0 00-2.73.34c-.93.28-1.55.65-1.6 1.29v1.21l-2.55.36" fill="#33abe1"/><path d="M54.008 119.8a.25.25 0 000-.12v-.05l-6-3.3v-1.13c0-.56-.5-.92-1.22-1.2a9.54 9.54 0 00-3.26-.51h-.73l-1.85-1v.66l.83.46a7.34 7.34 0 00-.84.17v-2.23c0-.55-.5-.91-1.22-1.19a9.3 9.3 0 00-3.26-.51 10.15 10.15 0 00-2.73.34c-.93.28-1.55.65-1.6 1.29v1.21l-2.55.36v.6l2.54-.36v1.53a9.79 9.79 0 00-2.69.35h.14v-2.27c0-.56-.49-.91-1.22-1.2a9.51 9.51 0 00-3.26-.5 9.7 9.7 0 00-2.72.34c-.94.28-1.55.65-1.6 1.3v1.38l-5.42.76a.21.21 0 00-.1 0 .11.11 0 000 .05.14.14 0 010 .06v18.19a.51.51 0 000 .13l3.83 2.09 10.69 5.82a.33.33 0 00.13 0l24-3.36h.11a.14.14 0 000-.07v-18.1zm-10.67-5.8a9 9 0 013 .46c.67.25.87.55.84.65-.03.1-.27.49-1.16.74a9.56 9.56 0 01-2.57.32 8.79 8.79 0 01-3-.47c-.63-.24-.84-.52-.84-.62 0-.11.28-.49 1.17-.73a9.15 9.15 0 012.56-.35zm-9.61-3.32a9.53 9.53 0 012.56-.32 8.75 8.75 0 013 .47c.67.25.87.55.85.64-.02.09-.28.5-1.17.74a9.66 9.66 0 01-2.57.32 8.8 8.8 0 01-3-.46c-.63-.24-.85-.53-.84-.63-.03-.14.28-.54 1.17-.76zm-4.31 5.05a9.57 9.57 0 012.56-.33 9.09 9.09 0 013 .47c.66.25.87.55.85.65-.02.1-.29.49-1.18.74a9.53 9.53 0 01-2.56.32 8.85 8.85 0 01-3-.47c-.63-.24-.84-.52-.84-.63-.03-.13.28-.51 1.17-.75zm-8.22-2.89c0-.12.29-.5 1.18-.74a10.33 10.33 0 015.6.14c.66.25.86.56.84.65-.02.09-.28.49-1.16.74a9.26 9.26 0 01-2.57.33 8.79 8.79 0 01-3.05-.48c-.63-.23-.84-.51-.84-.62zm-5 2.6l4.43-.62v1.36c0 .56.51.91 1.23 1.19a9.44 9.44 0 003.25.51 10.11 10.11 0 002.59-.31v2.21c0 .56.5.91 1.21 1.2a9.58 9.58 0 003.26.51 10.15 10.15 0 002.73-.34c.94-.3 1.56-.66 1.6-1.31v-3.35a10.3 10.3 0 002.55-.31v2.21c0 .56.5.92 1.23 1.2a9.4 9.4 0 003.25.51 10.21 10.21 0 002.73-.34c.94-.29 1.55-.66 1.6-1.31v-1.55l5 2.72-23 3.23zm37.23 22.31c-.09.06-23.37 3.27-23.37 3.27v-17.59l23.37-3.28s-.06 17.49-.04 17.6z" fill="#237dba"/><path d="M29.408 94.62c0-.56-.49-.92-1.22-1.2a9.51 9.51 0 00-3.26-.5 9.7 9.7 0 00-2.72.34c-.94.28-1.55.65-1.6 1.29v1.39l-5.42.76a.38.38 0 00-.1 0 .14.14 0 010 .06v18.19a.51.51 0 000 .13l3.83 2.09 10.69 5.81a.33.33 0 00.13 0l24-3.37a.19.19 0 00.11 0 .14.14 0 000-.07v-18.2a.25.25 0 000-.12v-.05l-6-3.29v-1.14c0-.55-.5-.91-1.22-1.19a9.54 9.54 0 00-3.26-.51h-.73l-1.85-1v-.94c0-.55-.5-.91-1.22-1.2a9.79 9.79 0 00-3.26-.51 10.14 10.14 0 00-2.73.35c-.93.28-1.55.65-1.6 1.29v1.21l-2.55.35" fill="#33abe1"/><path d="M54.008 101.53a.25.25 0 000-.12v-.05l-6-3.29v-1.14c0-.55-.5-.91-1.22-1.19a9.54 9.54 0 00-3.26-.51h-.73l-1.85-1v.66l.83.46a7.34 7.34 0 00-.84.17v-2.23c0-.55-.5-.91-1.22-1.2a9.79 9.79 0 00-3.26-.51 10.14 10.14 0 00-2.73.35c-.93.28-1.55.65-1.6 1.29v1.21l-2.55.35v.61l2.54-.36v1.52a9.8 9.8 0 00-2.69.34h.14v-2.23c0-.56-.49-.92-1.22-1.2a9.51 9.51 0 00-3.26-.5 9.7 9.7 0 00-2.72.34c-.94.28-1.55.65-1.6 1.29v1.39l-5.42.76a.38.38 0 00-.1 0 .14.14 0 010 .06v18.19a.51.51 0 000 .13l3.83 2.09 10.69 5.81a.33.33 0 00.13 0l24-3.37a.19.19 0 00.11 0 .14.14 0 000-.07v-18.24zm-10.67-5.8a9 9 0 013 .46c.67.25.87.55.84.64-.03.09-.27.5-1.16.75a9.56 9.56 0 01-2.57.32 9 9 0 01-3-.47c-.63-.24-.84-.52-.84-.62 0-.11.28-.49 1.17-.73a9.53 9.53 0 012.56-.35zm-9.61-3.32a9.53 9.53 0 012.56-.32 9 9 0 013 .46c.67.26.87.56.85.65-.02.09-.28.49-1.17.75a10.11 10.11 0 01-2.57.31 8.8 8.8 0 01-3-.46c-.63-.24-.85-.52-.84-.63-.03-.14.28-.52 1.17-.76zm-4.31 5a10 10 0 012.56-.32 9.09 9.09 0 013 .47c.66.25.87.56.85.65-.02.09-.29.49-1.18.74a9.53 9.53 0 01-2.56.32 9.09 9.09 0 01-3-.47c-.63-.23-.84-.52-.84-.63-.03-.09.28-.47 1.17-.72zm-8.22-2.89c0-.12.29-.5 1.18-.74a10.33 10.33 0 015.6.14c.66.25.86.56.84.65-.02.09-.28.49-1.16.74a9.27 9.27 0 01-2.57.32 8.81 8.81 0 01-3.05-.47c-.63-.24-.84-.51-.84-.62zm-5 2.61l4.43-.62v1.39c0 .55.51.91 1.23 1.19a9.2 9.2 0 003.25.51 10.11 10.11 0 002.59-.31v2.21c0 .56.5.91 1.21 1.2a9.59 9.59 0 003.26.5 10.17 10.17 0 002.73-.33c.94-.29 1.56-.66 1.6-1.31v-3.41a10.82 10.82 0 002.55-.29v2.2c0 .56.5.92 1.23 1.2a9.4 9.4 0 003.25.51 10.2 10.2 0 002.73-.35c.94-.28 1.55-.65 1.6-1.3v-1.55l5 2.72-23 3.23zm37.23 22.31c-.09 0-23.37 3.27-23.37 3.27v-17.59l23.37-3.28s-.06 17.53-.04 17.64z" fill="#237dba"/><path d="M29.408 39.8c0-.56-.49-.91-1.22-1.2a9.51 9.51 0 00-3.26-.5 9.7 9.7 0 00-2.72.34c-.94.28-1.55.65-1.6 1.29v1.39l-5.42.76a.19.19 0 00-.1 0 .14.14 0 010 .06v18.19a.51.51 0 000 .13l3.83 2.09 10.69 5.81a.33.33 0 00.13 0l24-3.37a.3.3 0 00.11 0 .14.14 0 000-.07v-18.2a.23.23 0 000-.12l-6-3.29v-1.14c0-.56-.5-.92-1.22-1.2a9.54 9.54 0 00-3.26-.51h-.73l-1.85-1v-.94c0-.56-.5-.91-1.22-1.2a10.74 10.74 0 00-6-.16c-.93.28-1.55.65-1.6 1.29v1.21l-2.55.35" fill="#33abe1"/><path d="M54.008 46.72a.23.23 0 000-.12l-6-3.29v-1.14c0-.56-.5-.92-1.22-1.2a9.54 9.54 0 00-3.26-.51h-.73l-1.85-1v.66l.83.45q-.44.08-.84.18v-2.23c0-.56-.5-.91-1.22-1.2a10.74 10.74 0 00-6-.16c-.93.28-1.55.65-1.6 1.29v1.21l-2.55.35v.6l2.54-.35v1.52a9.8 9.8 0 00-2.69.34h.14V39.8c0-.56-.49-.91-1.22-1.2a9.51 9.51 0 00-3.26-.5 9.7 9.7 0 00-2.72.34c-.94.28-1.55.65-1.6 1.29v1.39l-5.42.76a.19.19 0 00-.1 0 .14.14 0 010 .06v18.19a.51.51 0 000 .13l3.83 2.09 10.69 5.81a.33.33 0 00.13 0l24-3.37a.3.3 0 00.11 0 .14.14 0 000-.07v-18.2zm-10.67-5.8a9 9 0 013 .46c.67.25.87.55.84.65-.03.1-.27.49-1.16.74a9.56 9.56 0 01-2.57.32 9 9 0 01-3-.47c-.63-.24-.84-.52-.84-.63 0-.12.28-.49 1.17-.74a9.55 9.55 0 012.56-.35zm-9.61-3.32a9.53 9.53 0 012.56-.32 9 9 0 013 .46c.67.26.87.56.85.65-.02.09-.28.5-1.17.74a9.66 9.66 0 01-2.57.32 9 9 0 01-3-.46c-.63-.24-.85-.53-.84-.63-.03-.14.28-.52 1.17-.76zm-4.31 5a10 10 0 012.56-.32 9.09 9.09 0 013 .47c.66.25.87.55.85.65-.02.1-.29.49-1.18.74a9.53 9.53 0 01-2.56.32 9.09 9.09 0 01-3-.47c-.63-.24-.84-.52-.84-.63-.03-.09.28-.46 1.17-.72zm-8.22-2.89c0-.12.29-.5 1.18-.74a10.33 10.33 0 015.6.14c.66.25.86.55.84.65-.02.1-.28.49-1.16.74a9.27 9.27 0 01-2.57.32 8.81 8.81 0 01-3.05-.47c-.63-.23-.84-.51-.84-.62zm-5 2.61l4.43-.62v1.36c0 .55.51.91 1.23 1.19a9.44 9.44 0 003.25.51 10.11 10.11 0 002.59-.31v2.21c0 .56.5.91 1.21 1.2a9.59 9.59 0 003.26.5 9.77 9.77 0 002.73-.34c.94-.29 1.56-.65 1.6-1.3v-3.36a10.79 10.79 0 002.55-.31v2.21c0 .56.5.92 1.23 1.2a9.4 9.4 0 003.25.51 10.2 10.2 0 002.73-.35c.94-.28 1.55-.65 1.6-1.3v-1.55l5 2.72-23 3.23zm37.23 22.31c-.09.05-23.37 3.27-23.37 3.27V50.31l23.37-3.28s-.06 17.52-.04 17.64z" fill="#237dba"/><path d="M29.408 21.53c0-.56-.49-.91-1.22-1.2a9.51 9.51 0 00-3.26-.5 9.7 9.7 0 00-2.72.34c-.94.28-1.55.65-1.6 1.29v1.44l-5.42.76a.19.19 0 00-.1 0v.05a.14.14 0 010 .06v18.19a.51.51 0 000 .13v.05l3.83 2.09 10.69 5.81a.33.33 0 00.13 0l24-3.37a.3.3 0 00.11 0 .14.14 0 000-.07V28.4a.23.23 0 000-.12l-6-3.29v-1.14c0-.56-.5-.92-1.22-1.2a9.54 9.54 0 00-3.26-.51h-.73l-1.85-1v-.94c0-.56-.5-.91-1.22-1.2a10.74 10.74 0 00-6-.16c-.93.28-1.55.65-1.6 1.29v1.21l-2.55.35" fill="#33abe1"/><path d="M54.008 28.45a.23.23 0 000-.12l-6-3.29V23.9c0-.56-.5-.92-1.22-1.2a9.54 9.54 0 00-3.26-.51h-.73l-1.85-1v.66l.83.46a7.34 7.34 0 00-.84.17v-2.23c0-.56-.5-.91-1.22-1.2a10.74 10.74 0 00-6-.16c-.93.28-1.55.65-1.6 1.29v1.21l-2.55.35v.61l2.54-.36v1.52a9.8 9.8 0 00-2.69.34h.14v-2.24c0-.56-.49-.91-1.22-1.2a9.51 9.51 0 00-3.26-.5 9.7 9.7 0 00-2.72.34c-.94.28-1.55.65-1.6 1.29v1.36l-5.42.76a.19.19 0 00-.1 0v.05a.14.14 0 010 .06v18.19a.51.51 0 000 .13v.05l3.83 2.09 10.69 5.81a.33.33 0 00.13 0l24-3.37a.3.3 0 00.11 0 .14.14 0 000-.07V28.36zm-10.67-5.8a9 9 0 013 .46c.67.25.87.55.84.65-.03.1-.27.49-1.16.74a9.56 9.56 0 01-2.57.32 9 9 0 01-3-.47c-.63-.24-.84-.52-.84-.62 0-.12.28-.49 1.17-.74a9.55 9.55 0 012.56-.34zm-9.61-3.32a9.52 9.52 0 012.56-.33 9 9 0 013 .47c.67.26.87.56.85.65-.02.09-.28.5-1.17.74a9.66 9.66 0 01-2.57.32 9 9 0 01-3-.46c-.63-.24-.85-.53-.84-.63-.03-.14.28-.52 1.17-.76zm-4.31 5a10 10 0 012.56-.32 9.09 9.09 0 013 .47c.66.25.87.55.85.65-.02.1-.29.49-1.18.74a9.53 9.53 0 01-2.56.32 9.09 9.09 0 01-3-.47c-.63-.24-.84-.52-.84-.63-.03-.09.28-.47 1.17-.72zm-8.22-2.89c0-.12.29-.5 1.18-.74a10.33 10.33 0 015.6.14c.66.25.86.55.84.65-.02.1-.28.49-1.16.74a9.27 9.27 0 01-2.57.32 9.05 9.05 0 01-3.05-.47c-.63-.24-.84-.51-.84-.62zm-5 2.61l4.43-.62v1.36c0 .55.51.91 1.23 1.19a9.44 9.44 0 003.25.51 10.11 10.11 0 002.59-.31v2.21c0 .56.5.91 1.21 1.2a9.59 9.59 0 003.26.5 10.17 10.17 0 002.73-.33c.94-.29 1.56-.66 1.6-1.31v-3.36a10.3 10.3 0 002.55-.31v2.21c0 .56.5.92 1.23 1.19a9.16 9.16 0 003.25.52 10.2 10.2 0 002.73-.35c.94-.28 1.55-.65 1.6-1.3V25.5l5 2.72-23 3.23zm37.23 22.31c-.09 0-23.37 3.27-23.37 3.27V32.04l23.37-3.28s-.06 17.52-.04 17.64z" fill="#237dba"/></svg>